<svg xmlns="http://www.w3.org/2000/svg" width="254.362" height="78.146" viewBox="0 0 254.362 78.146"><defs><style>.a{fill:#e6007a;}.a,.b,.c{fill-rule:evenodd;}.b{fill:#ab005b;}.c{fill:#fff;}</style></defs><g transform="translate(-0.249 -0.25)"><g transform="translate(0.249 0.249)"><path class="a" d="M61.387,55.968H27.774l-16.543-16.6L27.957,22.611Z" transform="translate(5.476 10.824)"/><path class="a" d="M61.331.633,27.969,34.068,11.207,17.338,27.969.633Z" transform="translate(5.463 -0.633)"/><path class="b" d="M16.894,11.615,33.656,28.343,16.931,45.1.3,28.413V28.16Z" transform="translate(-0.224 5.092)"/><path class="a" d="M16.932,39.344.3,56.014V22.657Z" transform="translate(-0.224 10.848)"/><path class="a" d="M16.92,17.314.324,33.86v.253L.249,34.04V.68Z" transform="translate(-0.249 -0.608)"/><g transform="translate(130.276 25.172)"><path class="c" d="M29.659,22.415c-1.389,3.434-3.923,9.482-5.232,12.426-.817,1.88-1.8,4.006-2.862,6.3-1.635,3.6-2.779,6.131-5.639,12.017H3.009a33.454,33.454,0,0,0,4.17-4.906c2.043-2.942,3.516-5.559,7.03-12.834L.883.18H14.126l6.622,19.129h.163L28.024.18H38.816Z" transform="translate(-0.883 -0.18)"/></g><path class="c" d="M114.2,61.389h12.424V2.857H114.2Z" transform="translate(59.154 -0.411)"/><path class="c" d="M129.137,54.459h12.424V16.151H129.137Z" transform="translate(66.94 6.519)"/><path class="c" d="M167.125,54.123V34.994c0-3.923-1.962-6.377-5.232-6.377s-5.232,2.454-5.232,6.377V54.123H144.235V16.8h11.854v6.835c3.923-4.334,7.52-6.3,11.69-6.3,7.112,0,11.772,5.232,11.772,13V54.123Z" transform="translate(74.811 6.855)"/><path class="a" d="M142.587,9.738a7.012,7.012,0,1,1-7.012-7.012,7.011,7.011,0,0,1,7.012,7.012" transform="translate(66.641 -0.479)"/><path class="c" d="M53.109,3.5H66.842V30.128L86.053,3.5H102.32L81.229,31.542l23.136,29.511H87.279L66.842,34.72V61.053H53.109Z" transform="translate(27.307 -0.075)"/></g></g></svg>