<svg xmlns="http://www.w3.org/2000/svg" width="23.229" height="15.492" viewBox="0 0 23.229 15.492"><defs><style>.a{fill:#ff0074;}</style></defs><path class="a" d="M22.688,11.548a1.054,1.054,0,0,0-.008,1.485l4.905,4.914H8.916a1.049,1.049,0,0,0,0,2.1H27.578l-4.905,4.914a1.062,1.062,0,0,0,.008,1.485,1.045,1.045,0,0,0,1.476-.008l6.648-6.7h0a1.178,1.178,0,0,0,.218-.331A1,1,0,0,0,31.1,19a1.052,1.052,0,0,0-.3-.734l-6.648-6.7A1.028,1.028,0,0,0,22.688,11.548Z" transform="translate(-7.875 -11.252)"/></svg>