<svg xmlns="http://www.w3.org/2000/svg" width="223.399" height="41.891" viewBox="0 0 223.399 41.891"><defs><style>.a{fill:#ff0074;}.b{fill:#fff;}</style></defs><g transform="translate(15880.001 -13606.801)"><g transform="translate(-15832.306 13606.801)"><g transform="translate(0 0)"><g transform="translate(0 3.005)"><path class="a" d="M664,705.487q0,.937-4.336,2.168.4,5.125.4,8.718,0,6.206-1.575,6.2a1.5,1.5,0,0,1-1.331-1.035,12.637,12.637,0,0,1-.787-3.6q-.342-4.728-.736-9.26-2.217.593-4.038,1.06t-5.515,1.5q-4.333,11.331-5.123,11.328a2.5,2.5,0,0,1-1.7-.959,2.93,2.93,0,0,1-.91-2.045,62.206,62.206,0,0,1,2.808-6.993h-.345a2.634,2.634,0,0,1-1.748-.64,2,2,0,0,1-.769-1.6q0-.96,4.875-2.538.786-1.774,1.28-3.2,1.134-2.808,3.153-7.683t2.56-6.23a5.191,5.191,0,0,1,1.9-2.315,4.577,4.577,0,0,1,2.635-.96q1.525,0,2.733,4.875a89.588,89.588,0,0,1,1.945,12.068,23.6,23.6,0,0,1,2.412-.147C663.264,704.2,664,704.63,664,705.487ZM647.9,706.519q3.5-.937,7.388-1.575-.885-8.423-1.723-12.658Q651.345,697.36,647.9,706.519Z" transform="translate(-638.293 -687.408)"/><path class="a" d="M675.373,697.809a4.11,4.11,0,0,1,3.152,1.848A5.512,5.512,0,0,1,680,702.882c0,.558-.263.837-.787.837a3.448,3.448,0,0,1-1.675-.862,3.8,3.8,0,0,0-2.315-.863,9.225,9.225,0,0,0-3.718,1.381q-2.537,1.378-2.538,2.9,0,1.134,4.53,3.891a13.114,13.114,0,0,1,3.128,2.782,5.626,5.626,0,0,1,1.4,3.646q0,1.948-2.684,3.792a10.778,10.778,0,0,1-6.256,1.848,11.576,11.576,0,0,1-6.305-1.723q-2.735-1.722-2.733-3.25a1.494,1.494,0,0,1,.32-1.01,1.021,1.021,0,0,1,.812-.37,2.744,2.744,0,0,1,1.38.64,9.337,9.337,0,0,0,5.54,1.92,9.632,9.632,0,0,0,4.163-.665,1.993,1.993,0,0,0,1.28-1.773,3.4,3.4,0,0,0-1.428-2.365,19.558,19.558,0,0,0-3.127-2.24,15.109,15.109,0,0,1-3.127-2.413,4.138,4.138,0,0,1-1.428-2.9q0-2.612,4.114-5.443T675.373,697.809Z" transform="translate(-637.483 -687.021)"/><path class="a" d="M696.059,697.809a2.606,2.606,0,0,1,1.624.615,1.74,1.74,0,0,1,.788,1.356q0,1.332-3.57,9.21T689.828,719.6q-1.5,2.734-2.635,2.733a2.543,2.543,0,0,1-1.576-.936,6.165,6.165,0,0,1-1.38-2.021,61.514,61.514,0,0,1-2.859-10,52.5,52.5,0,0,1-1.528-10.1q0-1.478.888-1.478a3.573,3.573,0,0,1,2.215.909,4.742,4.742,0,0,1,1.575,2.29q.146.79.4,3.94a44.051,44.051,0,0,0,2.365,11.968q1.332-2.856,3.4-8.1t3.372-8.128Q695.373,697.811,696.059,697.809Z" transform="translate(-636.746 -687.021)"/><path class="a" d="M713.99,700.049a6.623,6.623,0,0,1,1.873,4.037,6.693,6.693,0,0,1-1.23,3.671,2.19,2.19,0,0,1,.59,1.28,30.429,30.429,0,0,1-.615,4.728q-.616,3.35-.737,4.382t-.223,1.65c-.065.411-.147.812-.248,1.207-.132.823-.426,1.23-.887,1.23-.59,0-1.077-.518-1.453-1.553a13.562,13.562,0,0,1-.665-4.013q-4.386,5.567-8.128,5.566a6.723,6.723,0,0,1-4.458-1.945,5.472,5.472,0,0,1-2.193-4.013,17.223,17.223,0,0,1,2.168-7.312,28.808,28.808,0,0,1,5.615-7.757q3.449-3.4,6.5-3.4A5.331,5.331,0,0,1,713.99,700.049Zm-1.819,6.428q0-4.579-1.822-4.58-1.92,0-4.483,2.732a27.223,27.223,0,0,0-4.336,6.181,13.057,13.057,0,0,0-1.773,5.467,1.615,1.615,0,0,0,.69,1.356,2.625,2.625,0,0,0,1.625.518q2.315,0,5.22-3.127a17.161,17.161,0,0,0,4.037-7.611,1.03,1.03,0,0,1,.838-.888v-.047Z" transform="translate(-636.159 -687.021)"/></g><g transform="translate(90.058)"><path class="a" d="M732.084,687.992a1.04,1.04,0,0,1,.935-.345q.716,0,1.8,1.23a3.9,3.9,0,0,1,1.082,2.61q0,3.449-4.235,17.436-2.117,6.794-2.117,8.128t1.28,1.331a46.551,46.551,0,0,0,12.215-1.822,15.458,15.458,0,0,1,2.538-.59.73.73,0,0,1,.567.172,1.084,1.084,0,0,1,.147.665q0,2.071-5.047,3.891a30.069,30.069,0,0,1-10.268,1.823,6.429,6.429,0,0,1-4.113-1.381,4.068,4.068,0,0,1-1.748-3.274q0-1.9,3.373-13.618t3.372-15.121A2.156,2.156,0,0,1,732.084,687.992Z" transform="translate(-725.119 -684.394)"/><path class="a" d="M764.426,700.049a6.621,6.621,0,0,1,1.872,4.037,6.691,6.691,0,0,1-1.229,3.671,2.187,2.187,0,0,1,.589,1.28,30.392,30.392,0,0,1-.614,4.728q-.618,3.35-.737,4.382t-.223,1.65c-.065.411-.147.812-.248,1.207-.132.823-.426,1.23-.888,1.23-.589,0-1.076-.518-1.452-1.553a13.522,13.522,0,0,1-.665-4.013q-4.386,5.567-8.129,5.566a6.723,6.723,0,0,1-4.457-1.945,5.469,5.469,0,0,1-2.193-4.013,17.224,17.224,0,0,1,2.168-7.312,28.786,28.786,0,0,1,5.614-7.757q3.449-3.4,6.5-3.4A5.337,5.337,0,0,1,764.426,700.049Zm-1.822,6.428q0-4.579-1.823-4.58-1.92,0-4.483,2.732a27.254,27.254,0,0,0-4.335,6.181,13.041,13.041,0,0,0-1.773,5.467,1.615,1.615,0,0,0,.69,1.356,2.625,2.625,0,0,0,1.625.518q2.315,0,5.22-3.127a17.161,17.161,0,0,0,4.037-7.611,1.031,1.031,0,0,1,.838-.888v-.047Z" transform="translate(-724.34 -684.016)"/><path class="a" d="M769.223,722.733c-.461,0-1-.352-1.624-1.061a3.109,3.109,0,0,1-.936-1.995,42.812,42.812,0,0,1,1.553-6.4q1.553-5.467,3.1-13.176a71.9,71.9,0,0,0,1.553-14.11q0-1.476,1.082-1.477.786,0,1.92,1.452a4.642,4.642,0,0,1,1.133,2.833q0,6.057-2.661,17.288,5.859-7.929,10.638-7.931a4.693,4.693,0,0,1,3.916,2.265,9.116,9.116,0,0,1,1.6,5.392,17.979,17.979,0,0,1-1.8,7.165,21.34,21.34,0,0,1-4.85,6.92,9.276,9.276,0,0,1-6.4,2.879q-3.35,0-6.6-3.4l-.051.05C770.077,721.635,769.553,722.733,769.223,722.733Zm7.83-3.793q3.2,0,6.28-4.357a15.665,15.665,0,0,0,3.078-9.185q0-2.9-1.773-2.905-2.855,0-6.377,3.99a39.237,39.237,0,0,0-6.083,9.505Q774.493,718.939,777.053,718.94Z" transform="translate(-723.572 -684.511)"/><path class="a" d="M803.776,697.809a4.109,4.109,0,0,1,3.152,1.848,5.513,5.513,0,0,1,1.478,3.225c0,.558-.264.837-.787.837a3.449,3.449,0,0,1-1.675-.862,3.8,3.8,0,0,0-2.315-.863,9.23,9.23,0,0,0-3.717,1.381q-2.536,1.378-2.538,2.9,0,1.134,4.53,3.891a13.115,13.115,0,0,1,3.128,2.782,5.627,5.627,0,0,1,1.4,3.646q0,1.948-2.685,3.792a10.777,10.777,0,0,1-6.255,1.848,11.576,11.576,0,0,1-6.305-1.723q-2.735-1.722-2.733-3.25a1.494,1.494,0,0,1,.321-1.01,1.023,1.023,0,0,1,.812-.37,2.745,2.745,0,0,1,1.381.64,9.337,9.337,0,0,0,5.54,1.92,9.633,9.633,0,0,0,4.163-.665,1.993,1.993,0,0,0,1.28-1.773,3.4,3.4,0,0,0-1.428-2.365,19.56,19.56,0,0,0-3.127-2.24,15.112,15.112,0,0,1-3.127-2.413,4.136,4.136,0,0,1-1.427-2.9q0-2.612,4.113-5.443T803.776,697.809Z" transform="translate(-722.761 -684.016)"/></g></g></g><g transform="translate(-15880.001 13607.379)"><circle class="a" cx="20.656" cy="20.656" r="20.656" transform="translate(0 0)"/><path class="b" d="M622.6,705.887q0,.755-3.489,1.745.317,4.126.317,7.02,0,5-1.27,5a1.2,1.2,0,0,1-1.07-.833,10.141,10.141,0,0,1-.635-2.895q-.277-3.807-.594-7.456-1.785.476-3.252.853t-4.442,1.209q-3.49,9.122-4.124,9.121a2.017,2.017,0,0,1-1.368-.774,2.362,2.362,0,0,1-.733-1.645,50.207,50.207,0,0,1,2.26-5.631h-.277a2.129,2.129,0,0,1-1.409-.516,1.614,1.614,0,0,1-.614-1.289q0-.773,3.926-2.042.633-1.428,1.031-2.578.912-2.261,2.538-6.187t2.062-5.016a4.184,4.184,0,0,1,1.527-1.864,3.681,3.681,0,0,1,2.121-.774q1.229,0,2.2,3.926a71.953,71.953,0,0,1,1.567,9.717,18.369,18.369,0,0,1,1.943-.119Q622.606,704.856,622.6,705.887Zm-12.967.833q2.816-.753,5.948-1.27-.714-6.78-1.388-10.192Q612.414,699.345,609.638,706.72Z" transform="translate(-591.953 -684.835)"/></g></g></svg>