<svg width="512" height="512" viewBox="0 0 512 512" fill="none" xmlns="http://www.w3.org/2000/svg">
<path d="M0 64C0 28.6538 28.6538 0 64 0H448C483.346 0 512 28.6538 512 64V448C512 483.346 483.346 512 448 512H64C28.6538 512 0 483.346 0 448V64Z" fill="#1E5AFF"/>
<path d="M128 384.003H256H384C419.346 384.003 448 355.349 448 320.003V139.652C448 119.598 433.137 106.555 415.2 115.523C377.742 134.252 352 144.003 335.2 144.003H176C160 144.003 134.258 134.252 96.8 115.523C78.8634 106.555 64 119.598 64 139.652V320.003C64 355.349 92.6538 384.003 128 384.003Z" fill="white"/>
<path d="M96 224C96 206.327 110.327 192 128 192H384C401.673 192 416 206.327 416 224V288C416 305.673 401.673 320 384 320H225.511C224.517 320 223.537 320.231 222.649 320.676L169.262 351.324C165.007 353.452 160 350.358 160 345.6V326.4C160 322.865 157.135 320 153.6 320H128C110.327 320 96 305.673 96 288V224Z" fill="#0A141E"/>
<path d="M224 256C224 273.673 209.673 288 192 288C174.327 288 160 273.673 160 256C160 238.327 174.327 224 192 224C209.673 224 224 238.327 224 256Z" fill="#05F5FF"/>
<path d="M352 256C352 273.673 337.673 288 320 288C302.327 288 288 273.673 288 256C288 238.327 302.327 224 320 224C337.673 224 352 238.327 352 256Z" fill="#05F5FF"/>
</svg>
