<svg xmlns="http://www.w3.org/2000/svg" xmlns:xlink="http://www.w3.org/1999/xlink" width="191.415" height="182.002" viewBox="0 0 191.415 182.002">
  <defs>
    <linearGradient id="linear-gradient" y1="0.5" x2="1" y2="0.5" gradientUnits="objectBoundingBox">
      <stop offset="0" stop-color="#fce98b"/>
      <stop offset="0.587" stop-color="#fed942"/>
      <stop offset="1" stop-color="#f6af1a"/>
    </linearGradient>
  </defs>
  <g id="Group_2001" data-name="Group 2001" transform="translate(-1468.591 -84.034) rotate(-25)">
    <path id="Path_12226" data-name="Path 12226" d="M1377.617,950.131a39.107,39.107,0,0,0,9.9,9.055,33.854,33.854,0,0,0,13.281,4.347l6,10.609a.814.814,0,0,0,1.465-.7L1406.111,968l7.085,5.864a.811.811,0,0,0,1.116-1.172l-6.391-6.985,5.275.723a.688.688,0,0,0,.305-1.335l-6.56-2.127a6.742,6.742,0,0,1-2.951-2.247l-1.152-2.552a.907.907,0,0,0-1.727.276l-.052,2.846a42.718,42.718,0,0,1-9.169-3.379c-3.622-2.052-10.651-8.5-10.651-8.5Z" transform="translate(-38.864 -61.805)" fill="#8f1a1f"/>
    <path id="Path_12227" data-name="Path 12227" d="M1411.69,946.187s6.6,8.445,12.882,11.766,15.973,3.866,15.973,3.866l6.713,10.173a.813.813,0,0,0,1.412-.8l-2.519-5.282,7.471,5.365a.811.811,0,0,0,1.033-1.246L1447.8,963.5l5.311.36a.688.688,0,0,0,.214-1.354l-6.691-1.672a6.751,6.751,0,0,1-3.1-2.039l-1.324-2.467a.906.906,0,0,0-1.7.394l.144,2.843a73.369,73.369,0,0,1-13.134-4.542c-6.09-2.952-12.074-9.951-12.074-9.951Z" transform="translate(-49.617 -60.437)" fill="#8f1a1f"/>
    <path id="Path_12228" data-name="Path 12228" d="M1302.985,819.477c-7.356-8.549-25.272-19.22-33.531-11-2.351,2.334-.312,5.635,2.247,6.434,4.846,1.53,9.476,1.025,13.892,4.026a65.628,65.628,0,0,1,8.99,8.033c4.726,4.69,11.546,12.558,11.04,19.69-.561,7.987-7.732,9.972-14.268,8.118-5.925-1.666-11.744-6.012-16.19-10.152-2.475-2.306-6.29,1.17-4.372,3.9,5.231,7.458,13.213,11.364,22.228,13.166,9.987,2,19.764-2.009,22.121-11.552C1317.8,839.368,1309.677,827.246,1302.985,819.477Z" transform="translate(-4.399 -16.394)" fill="#e59d33" style="mix-blend-mode: multiply;isolation: isolate"/>
    <path id="Path_12229" data-name="Path 12229" d="M1304.206,828.9c-3.88-8.232-14.656-17.8-21.159-22.378-4.976-3.486-16.346-7.888-19.388-7.371-6.361,1.088-.983,15.668,2.932,18.7-4.458-2.855-11.514-7.784-10.741,1.095.64,7.3,6.069,11.536,10.763,16.238-4.671-2.444-11.663-7.022-12.122-2.552-.307,5.316,7.324,13.038,11.356,15.885,6.934,4.9,25.931,11.737,35.887,5.754C1311.9,848.158,1307.25,835.351,1304.206,828.9Z" transform="translate(0 -14.368)" fill="url(#linear-gradient)"/>
    <path id="Path_12230" data-name="Path 12230" d="M1304.194,774.75c-5.135,7.906-18.532,24.261-17.859,51.554s14.525,63.715,71.375,62.328c48.073-1.172,65.066-50.352,67.051-55.035s2.8-9.965,2.41-10.856c-.211-.487-3.569,4.859-3.85,4.328-.379-.716,2.077-4.126,1.589-4.913-.554-.89-2.753,3.274-3.42,2.309-4.624-6.689-12.945-17.4-17.542-24.4-7.077-10.783-15.744-37.543-48.362-44.918C1324.311,748.073,1309.328,766.843,1304.194,774.75Z" transform="translate(-10.046 0)" fill="url(#linear-gradient)"/>
    <path id="Path_12231" data-name="Path 12231" d="M1414.071,808.954c8.169-9.495,28.065-21.344,37.238-12.22,2.612,2.592.347,6.257-2.5,7.145-5.381,1.7-10.524,1.138-15.427,4.471-3.66,2.487-6.862,5.812-9.984,8.921-5.248,5.209-12.823,13.946-12.261,21.867.624,8.869,8.588,11.073,15.846,9.015,6.581-1.851,13.042-6.677,17.979-11.275,2.749-2.56,6.984,1.3,4.855,4.331-5.809,8.282-14.675,12.619-24.684,14.621-11.091,2.218-21.949-2.231-24.567-12.828C1397.621,831.044,1406.639,817.581,1414.071,808.954Z" transform="translate(-45.927 -12.586)" fill="#e59d33" style="mix-blend-mode: multiply;isolation: isolate"/>
    <path id="Path_12232" data-name="Path 12232" d="M1412.268,847.593c11.056,6.645,32.154-.945,39.854-6.389,4.477-3.163,12.953-11.738,12.611-17.641-.509-4.964-8.274.12-13.462,2.834,5.212-5.222,11.242-9.924,11.953-18.034.857-9.86-6.978-4.387-11.929-1.216,4.348-3.37,10.32-19.561,3.256-20.769-3.378-.575-16.006,4.314-21.531,8.186-7.223,5.084-19.189,15.709-23.5,24.851C1406.141,826.584,1400.981,840.805,1412.268,847.593Z" transform="translate(-47.619 -10.337)" fill="#f6bd2a"/>
    <path id="Path_12233" data-name="Path 12233" d="M1331.773,816.567a9.345,9.345,0,0,0,3.249-6.6c.156-3.046-1.243-5.641-3.416-8.18a42.039,42.039,0,0,1-5.487,5.331c-2.937,2.676-3.094,2.642-.1,5.127Q1328.8,814.538,1331.773,816.567Z" transform="translate(-21.892 -15.213)" fill="#e39125"/>
    <path id="Path_12234" data-name="Path 12234" d="M1354.073,795.432a3.155,3.155,0,0,1,.629-1.419c.092-.116.181-.207.261-.289a2.007,2.007,0,0,1,1.348-.715,1.734,1.734,0,0,1,1.046.235,2.52,2.52,0,0,1,.825.422,4.458,4.458,0,0,1,.762.794,3.7,3.7,0,0,1,.686,2.807,2.78,2.78,0,0,1-2.508,2.29,2.85,2.85,0,0,1-2.846-1.808A3.8,3.8,0,0,1,1354.073,795.432Z" transform="translate(-31.404 -12.441)" fill="#4d3435"/>
    <path id="Path_12235" data-name="Path 12235" d="M1322.451,792.438a5.719,5.719,0,0,1-.009-.912,2.27,2.27,0,0,1,1.438-2.27,2.242,2.242,0,0,1,2.844,1.311c.074.18.141.355.218.539a4.375,4.375,0,0,1,.23.849.689.689,0,0,1,.024.1,1.681,1.681,0,0,0,.044.187c-.01-.038-.018-.075-.029-.118a2.19,2.19,0,0,1,.022,1.017,2.346,2.346,0,0,1-1.473,1.775,2.285,2.285,0,0,1-2.275-.389,2.594,2.594,0,0,1-.81-1.163A6.165,6.165,0,0,1,1322.451,792.438Z" transform="translate(-21.445 -11.216)" fill="#4d3435"/>
    <path id="Path_12236" data-name="Path 12236" d="M1289.976,874.722s-5.871-11.238,1-25.86,16.765-20.063,26.817-18.811c9.434,1.175,24.143,3.267,32.34,26.529s22.924,24.427,26.912,25.077,12.508,1.956,17.11,7.949,2.941,8.369,2.941,8.369-25.074,20.852-58.371,13.568S1292.583,885.938,1289.976,874.722Z" transform="translate(-10.465 -24.08)" fill="#e59d33" opacity="0.3" style="mix-blend-mode: multiply;isolation: isolate"/>
  </g>
</svg>
