<svg xmlns="http://www.w3.org/2000/svg" width="113.7" height="83.246" viewBox="0 0 113.7 83.246"><g transform="translate(0.009 -60.109)"><path d="M347.992,326.064a2.03,2.03,0,1,1-2.03-2.03A2.029,2.029,0,0,1,347.992,326.064Z" transform="translate(-256.654 -196.944)" fill="#ffdf80"/><path d="M300.006,286.075a2.03,2.03,0,1,1-2.03-2.03A2.029,2.029,0,0,1,300.006,286.075Z" transform="translate(-220.846 -167.104)" fill="#ffdf80"/><path d="M68.193,258.143v-6.089H64.134v6.089a2.029,2.029,0,0,1-2.03,2.03H56.015v4.06H62.1a2.029,2.029,0,0,1,2.03,2.03v6.089h4.059v-6.089a2.03,2.03,0,0,1,2.03-2.03h6.089v-4.06H70.223A2.03,2.03,0,0,1,68.193,258.143Z" transform="translate(-41.806 -143.232)" fill="#ffdf80"/><path d="M347.992,246.087a2.03,2.03,0,1,1-2.03-2.03A2.029,2.029,0,0,1,347.992,246.087Z" transform="translate(-256.654 -137.264)" fill="#ffdf80"/><path d="M216.091,86.5h-2.056c0-.057.024-.107.02-.164,0-.1-.73-10.1,5.225-16.549,3.44-3.724,8.514-5.614,15.078-5.614a2.03,2.03,0,1,0,0-4.06c-7.759,0-13.842,2.337-18.084,6.946-6.808,7.4-6.372,18-6.273,19.44h-2.03v4.059h8.119Z" transform="translate(-155.198 0)" fill="#ffdf80"/><path d="M91.189,196.165H91.08a14.145,14.145,0,0,0-1.772-.1H24.358A24.357,24.357,0,1,0,44.875,233.54a2.029,2.029,0,0,1,1.708-.937h20.5a2.029,2.029,0,0,1,1.708.937,24.357,24.357,0,1,0,22.4-37.375Zm-52.623,28.32a2.029,2.029,0,0,1-2.03,2.03H30.447V232.6a2.029,2.029,0,0,1-2.03,2.03H20.3a2.03,2.03,0,0,1-2.03-2.03v-6.089H12.179a2.03,2.03,0,0,1-2.03-2.03v-8.119a2.03,2.03,0,0,1,2.03-2.03h6.089v-6.089a2.03,2.03,0,0,1,2.03-2.03h8.119a2.029,2.029,0,0,1,2.03,2.03v6.089h6.089a2.029,2.029,0,0,1,2.03,2.03Zm14.208,2.03h-4.06a2.03,2.03,0,0,1,0-4.059h4.06a2.03,2.03,0,0,1,0,4.059Zm12.178,0H60.893a2.03,2.03,0,1,1,0-4.059h4.059a2.03,2.03,0,1,1,0,4.059Zm24.357-22.327a6.089,6.089,0,1,1-6.089,6.089A6.089,6.089,0,0,1,89.309,204.188ZM77.13,226.514a6.089,6.089,0,1,1,6.089-6.089A6.089,6.089,0,0,1,77.13,226.514Zm12.178,10.149a6.089,6.089,0,1,1,6.089-6.089A6.089,6.089,0,0,1,89.309,236.663Zm12.178-10.149a6.089,6.089,0,1,1,6.089-6.089A6.089,6.089,0,0,1,101.487,226.514Z" transform="translate(0 -101.454)" fill="#ffdf80"/><path d="M395.978,286.075a2.03,2.03,0,1,1-2.03-2.03A2.029,2.029,0,0,1,395.978,286.075Z" transform="translate(-292.462 -167.104)" fill="#ffdf80"/></g></svg>