<svg xmlns="http://www.w3.org/2000/svg" width="82" height="88.443" viewBox="0 0 82 88.443"><g transform="translate(49.956 -171.125)"><g transform="translate(-49.956 171.125)"><path d="M4.437,171.125h-44.77a2.928,2.928,0,0,0-2.929,2.929,2.93,2.93,0,0,0,2.929,2.929H4.437a2.929,2.929,0,1,0,0-5.857Z" transform="translate(58.946 -171.125)" fill="#ffdf80"/><path d="M27.358,175.875H-45.27a4.684,4.684,0,0,0-4.686,4.686v49.2a4.686,4.686,0,0,0,4.686,4.686h12.5l-5.248,13.994a3.512,3.512,0,0,0,2.057,4.524,3.46,3.46,0,0,0,1.235.225,3.514,3.514,0,0,0,3.289-2.28l6.173-16.463H-12.47v15.229a3.514,3.514,0,0,0,3.514,3.514,3.516,3.516,0,0,0,3.514-3.514V234.446H7.35l6.173,16.463a3.517,3.517,0,0,0,3.292,2.28,3.469,3.469,0,0,0,1.235-.225A3.513,3.513,0,0,0,20.1,248.44l-5.248-13.994h12.5a4.687,4.687,0,0,0,4.686-4.686v-49.2A4.686,4.686,0,0,0,27.358,175.875Zm-45.325,16.4a4.06,4.06,0,0,1,4.06,4.06,4.06,4.06,0,0,1-4.06,4.06,4.061,4.061,0,0,1-4.06-4.06A4.061,4.061,0,0,1-17.967,192.275ZM7.425,222.732H-25.34A2.774,2.774,0,0,1-27.7,218.5l4.812-7.82a2.388,2.388,0,0,1,4.121.091l3.99,7.181L-4.8,202.984a2.389,2.389,0,0,1,3.959-.026l10.557,15.43A2.776,2.776,0,0,1,7.425,222.732Z" transform="translate(49.956 -164.746)" fill="#ffdf80"/></g></g></svg>