<svg xmlns="http://www.w3.org/2000/svg" width="100.421" height="92.359" viewBox="0 0 100.421 92.359"><g transform="translate(-262.468 -255)"><path d="M352.983,486.694h8.348a1.557,1.557,0,0,0,1.558-1.56V463.807a1.557,1.557,0,0,0-1.558-1.56h-7.523a30.16,30.16,0,0,0-3.752-5.914c.277-.652,3.752-8.8,6.331-13.883,1.051-.618-11.591-7.083-21.971,2.551a49.6,49.6,0,0,0-18.855-3.643c-22.583,0-40.889,14.468-40.889,32.315,0,.487.017.969.045,1.448a3.912,3.912,0,0,1-1.477,2.056,5.922,5.922,0,0,1-1.1.629,2.658,2.658,0,0,0,.259-1.15,2.79,2.79,0,0,0-.956-2.074,3.422,3.422,0,0,0-4.461,0,2.778,2.778,0,0,0-.961,2.074,2.662,2.662,0,0,0,.262,1.15,5.764,5.764,0,0,1-1.1-.629,3.627,3.627,0,0,1-1.585-2.858h-1.127a4.744,4.744,0,0,0,2.032,3.757,8.217,8.217,0,0,0,9.421,0,5.717,5.717,0,0,0,.98-.972,29.221,29.221,0,0,0,9.334,17.333l-1.568,15.849a1.719,1.719,0,0,0,1.234,1.823l5.627,1.625a1.723,1.723,0,0,0,2.006-.863l5.391-10.435a50.752,50.752,0,0,0,36.228.415l5.179,10.019a1.72,1.72,0,0,0,2,.863l5.625-1.625a1.715,1.715,0,0,0,1.235-1.823l-1.464-14.806A32.809,32.809,0,0,0,352.983,486.694Zm-82.293-8.8a2.293,2.293,0,0,1-2.962,0,1.6,1.6,0,0,1,0-2.466,2.3,2.3,0,0,1,2.962,0,1.6,1.6,0,0,1,0,2.466Zm63.359-26.914-2.066,4.823a.709.709,0,0,1-.39.384.718.718,0,0,1-.551-.007l-2.411-1.031h0l-.01,0-.029-.013-.158-.064c-.155-.061-.393-.153-.714-.265-.633-.226-1.574-.535-2.742-.846a35.617,35.617,0,0,0-8.969-1.234,41.344,41.344,0,0,0-9.282,1.194,43.176,43.176,0,0,0-4.455,1.289l-.015,0-2.455.91a.72.72,0,0,1-.924-.424l-1.823-4.92a.72.72,0,0,1,.423-.923l2.46-.91a52.143,52.143,0,0,1,16.071-2.9,42.283,42.283,0,0,1,10.561,1.424,37.392,37.392,0,0,1,4.659,1.529l.03.012,2.409,1.03a.715.715,0,0,1,.386.393A.725.725,0,0,1,334.049,450.977Z" transform="translate(0 -166.442)" fill="#ffdf80"/><path d="M485.377,256.228A14.228,14.228,0,1,0,499.605,242,14.244,14.244,0,0,0,485.377,256.228Z" transform="translate(-185.418 14)" fill="#ffdf80" stroke="#b84f2f" stroke-width="2"/></g></svg>