<svg xmlns="http://www.w3.org/2000/svg" width="126.075" height="73.615" viewBox="0 0 126.075 73.615"><g transform="translate(-358.197 -1388.409)"><g transform="translate(358.197 1388.409)"><path d="M105.127,573.179a.914.914,0,0,0,.656-.279L117.6,560.639a.913.913,0,0,0,.255-.632v-4.829a.912.912,0,0,0-.912-.912H105.127a.911.911,0,0,0-.911.912v17.089a.91.91,0,0,0,.57.845A.9.9,0,0,0,105.127,573.179Z" transform="translate(-74.227 -539.669)" fill="#ffdf80"/><path d="M134.6,565.835l-11.32,11.745a.914.914,0,0,0-.254.633v21.315a.911.911,0,0,0,.911.911h11.319a.911.911,0,0,0,.912-.911v-33.06a.911.911,0,0,0-1.567-.633Z" transform="translate(-77.145 -541.421)" fill="#ffdf80"/><path d="M86.909,589.149a.913.913,0,0,0,.656-.279l11.319-11.746a.908.908,0,0,0,.255-.632V555.178a.912.912,0,0,0-.912-.912H86.909a.911.911,0,0,0-.911.912v33.06a.91.91,0,0,0,.911.912Z" transform="translate(-71.401 -539.669)" fill="#ffdf80"/><path d="M1.078,0h10.19a1.079,1.079,0,0,1,1.079,1.079V43.343a1.078,1.078,0,0,1-1.078,1.078H1.078A1.078,1.078,0,0,1,0,43.343V1.078A1.078,1.078,0,0,1,1.078,0Z" transform="translate(0 14.597)" fill="#ffdf80"/><path d="M86,597.776a.91.91,0,0,0,.911.911H91.99a.911.911,0,0,0,.656-.279l37.518-38.924a.913.913,0,0,0,.255-.633v-3.673a.912.912,0,0,0-.912-.912h-5.081a.911.911,0,0,0-.656.279L86.253,593.458a.91.91,0,0,0-.255.633Z" transform="translate(-71.401 -539.669)" fill="#ffdf80"/><path d="M141.424,609.509H69.631a.911.911,0,0,0-.911.911v10.525a.91.91,0,0,0,.911.911h71.793a.911.911,0,0,0,.912-.911V610.42A.911.911,0,0,0,141.424,609.509Zm-66.365,6.17a2.168,2.168,0,1,1,2.168,2.167A2.17,2.17,0,0,1,75.059,615.679Zm56.6,0a2.168,2.168,0,1,1,2.168,2.167A2.17,2.17,0,0,1,131.66,615.679Z" transform="translate(-68.72 -548.24)" fill="#ffdf80"/><path d="M123.933,556.692a.913.913,0,0,0,.656-.279l.582-.6a.911.911,0,0,0-.656-1.544h-.582a.911.911,0,0,0-.911.912v.6a.912.912,0,0,0,.569.845A.926.926,0,0,0,123.933,556.692Z" transform="translate(-77.145 -539.669)" fill="#ffdf80"/><path d="M116.287,584.739,104.471,597a.91.91,0,0,0-.255.633v4.829a.911.911,0,0,0,.911.911h11.816a.911.911,0,0,0,.912-.911v-17.09a.911.911,0,0,0-1.567-.632Z" transform="translate(-74.227 -544.354)" fill="#ffdf80"/><path d="M141.424,536.988H69.631a.911.911,0,0,0-.911.912v10.524a.911.911,0,0,0,.911.912h71.793a.912.912,0,0,0,.912-.912V537.9A.912.912,0,0,0,141.424,536.988Zm-66.365,6.177a2.168,2.168,0,1,1,2.168,2.167A2.17,2.17,0,0,1,75.059,543.166Zm56.6,0a2.168,2.168,0,1,1,2.168,2.167A2.17,2.17,0,0,1,131.66,543.166Z" transform="translate(-68.72 -536.988)" fill="#ffdf80"/><path d="M1.078,0h10.19a1.079,1.079,0,0,1,1.079,1.079V43.343a1.078,1.078,0,0,1-1.078,1.078H1.078A1.078,1.078,0,0,1,0,43.343V1.078A1.078,1.078,0,0,1,1.078,0Z" transform="translate(61.268 14.597)" fill="#ffdf80"/><path d="M99.544,604.253l-.582.6a.911.911,0,0,0,.656,1.543h.582a.911.911,0,0,0,.912-.911v-.6a.911.911,0,0,0-1.567-.632Z" transform="translate(-73.372 -547.382)" fill="#ffdf80"/></g><g transform="translate(434.331 1412.083)"><path d="M112.85,567.1a.62.62,0,0,1-.445-.189l-8.016-8.318a.62.62,0,0,1-.173-.429v-3.276a.618.618,0,0,1,.618-.618h8.016a.618.618,0,0,1,.618.618v11.594a.617.617,0,0,1-.387.573A.61.61,0,0,1,112.85,567.1Z" transform="translate(-83.872 -544.363)" fill="#ffdf80"/><path d="M124.085,565.745l7.68,7.968a.621.621,0,0,1,.173.429V588.6a.618.618,0,0,1-.618.618H123.64a.618.618,0,0,1-.618-.618V566.174a.618.618,0,0,1,1.063-.429Z" transform="translate(-113.119 -549.182)" fill="#ffdf80"/><path d="M94.3,577.931a.62.62,0,0,1-.445-.189l-7.679-7.968a.616.616,0,0,1-.173-.429V554.884a.618.618,0,0,1,.618-.618H94.3a.618.618,0,0,1,.618.618v22.428a.617.617,0,0,1-.618.618Z" transform="translate(-54.875 -544.363)" fill="#ffdf80"/><path d="M1.079,0H7.3A1.078,1.078,0,0,1,8.376,1.078V29.057A1.078,1.078,0,0,1,7.3,30.135H1.078A1.078,1.078,0,0,1,0,29.057V1.079A1.079,1.079,0,0,1,1.079,0Z" transform="translate(41.565 9.903)" fill="#ffdf80"/><path d="M116.133,583.783a.618.618,0,0,1-.618.618h-3.447a.618.618,0,0,1-.445-.189L86.171,557.806a.619.619,0,0,1-.173-.429v-2.492a.618.618,0,0,1,.618-.618h3.447a.618.618,0,0,1,.445.189l25.452,26.4a.617.617,0,0,1,.173.429Z" transform="translate(-76.095 -544.363)" fill="#ffdf80"/><path d="M69.338,609.509h48.7a.618.618,0,0,1,.618.618v7.14a.617.617,0,0,1-.618.618h-48.7a.618.618,0,0,1-.618-.618v-7.14A.618.618,0,0,1,69.338,609.509Zm45.022,4.186a1.471,1.471,0,1,0-1.471,1.47A1.472,1.472,0,0,0,114.361,613.695Zm-38.4,0a1.471,1.471,0,1,0-1.471,1.47A1.472,1.472,0,0,0,75.962,613.695Z" transform="translate(-68.72 -567.944)" fill="#ffdf80"/><path d="M124.035,555.912a.619.619,0,0,1-.445-.189l-.395-.41a.618.618,0,0,1,.445-1.047h.395a.618.618,0,0,1,.618.618v.41a.619.619,0,0,1-.386.573A.628.628,0,0,1,124.035,555.912Z" transform="translate(-105.835 -544.363)" fill="#ffdf80"/><path d="M105.279,584.649l8.016,8.317a.617.617,0,0,1,.173.429v3.276a.618.618,0,0,1-.618.618h-8.016a.618.618,0,0,1-.618-.618V585.078a.618.618,0,0,1,1.063-.429Z" transform="translate(-83.872 -557.252)" fill="#ffdf80"/><path d="M69.338,536.988h48.7a.618.618,0,0,1,.618.618v7.14a.618.618,0,0,1-.618.618h-48.7a.618.618,0,0,1-.618-.618v-7.14A.618.618,0,0,1,69.338,536.988Zm45.022,4.191a1.471,1.471,0,1,0-1.471,1.47A1.472,1.472,0,0,0,114.361,541.179Zm-38.4,0a1.471,1.471,0,1,0-1.471,1.47A1.472,1.472,0,0,0,75.962,541.179Z" transform="translate(-68.72 -536.988)" fill="#ffdf80"/><path d="M1.079,0H7.3A1.078,1.078,0,0,1,8.376,1.078V29.057A1.078,1.078,0,0,1,7.3,30.135H1.078A1.078,1.078,0,0,1,0,29.057V1.079A1.079,1.079,0,0,1,1.079,0Z" transform="translate(0 9.903)" fill="#ffdf80"/><path d="M99.77,604.163l.395.41a.618.618,0,0,1-.445,1.047h-.395a.618.618,0,0,1-.618-.618v-.41a.618.618,0,0,1,1.063-.429Z" transform="translate(-67.584 -565.581)" fill="#ffdf80"/></g></g></svg>