<svg width="40" height="40" viewBox="0 0 40 40" fill="none" xmlns="http://www.w3.org/2000/svg">
<path d="M3.9876 4C2.67819 4 1.6001 5.0781 1.6001 6.3875V33.6125C1.6001 34.9219 2.67819 36 3.9876 36H36.0126C37.322 36 38.4001 34.9219 38.4001 33.6125V6.3875C38.4001 5.0781 37.322 4 36.0126 4H3.9876ZM3.9876 5.6H36.0126C36.4568 5.6 36.8001 5.9433 36.8001 6.3875V8.8H3.2001V6.3875C3.2001 5.9433 3.5434 5.6 3.9876 5.6ZM5.6001 6.4C5.38792 6.4 5.18444 6.48429 5.03441 6.63431C4.88438 6.78434 4.8001 6.98783 4.8001 7.2C4.8001 7.41217 4.88438 7.61566 5.03441 7.76569C5.18444 7.91571 5.38792 8 5.6001 8C5.81227 8 6.01575 7.91571 6.16578 7.76569C6.31581 7.61566 6.4001 7.41217 6.4001 7.2C6.4001 6.98783 6.31581 6.78434 6.16578 6.63431C6.01575 6.48429 5.81227 6.4 5.6001 6.4ZM8.0001 6.4C7.78792 6.4 7.58444 6.48429 7.43441 6.63431C7.28438 6.78434 7.2001 6.98783 7.2001 7.2C7.2001 7.41217 7.28438 7.61566 7.43441 7.76569C7.58444 7.91571 7.78792 8 8.0001 8C8.21227 8 8.41575 7.91571 8.56578 7.76569C8.71581 7.61566 8.8001 7.41217 8.8001 7.2C8.8001 6.98783 8.71581 6.78434 8.56578 6.63431C8.41575 6.48429 8.21227 6.4 8.0001 6.4ZM10.4001 6.4C10.1879 6.4 9.98444 6.48429 9.83441 6.63431C9.68438 6.78434 9.6001 6.98783 9.6001 7.2C9.6001 7.41217 9.68438 7.61566 9.83441 7.76569C9.98444 7.91571 10.1879 8 10.4001 8C10.6123 8 10.8158 7.91571 10.9658 7.76569C11.1158 7.61566 11.2001 7.41217 11.2001 7.2C11.2001 6.98783 11.1158 6.78434 10.9658 6.63431C10.8158 6.48429 10.6123 6.4 10.4001 6.4ZM3.2001 10.4H36.8001V33.6125C36.8001 34.0567 36.4568 34.4 36.0126 34.4H3.9876C3.5434 34.4 3.2001 34.0567 3.2001 33.6125V10.4ZM13.6001 11.2C13.3879 11.2 13.1844 11.2843 13.0344 11.4343C12.8844 11.5843 12.8001 11.7878 12.8001 12C12.8001 12.2122 12.8844 12.4157 13.0344 12.5657C13.1844 12.7157 13.3879 12.8 13.6001 12.8C13.8123 12.8 14.0158 12.7157 14.1658 12.5657C14.3158 12.4157 14.4001 12.2122 14.4001 12C14.4001 11.7878 14.3158 11.5843 14.1658 11.4343C14.0158 11.2843 13.8123 11.2 13.6001 11.2ZM19.2579 12.8L16.8001 22.4H18.4501L18.8142 20.8H21.2204L21.6001 22.4H23.2501L20.7907 12.8H19.2579ZM24.0001 12.8V13.6V22.4H24.8001C25.6001 22.4 26.6439 22.438 27.5126 21.7141C28.3813 20.9902 28.8001 19.7067 28.8001 17.6C28.8001 15.4933 28.3813 14.2098 27.5126 13.4859C26.6439 12.762 25.6001 12.8 24.8001 12.8H24.0001ZM32.0001 12.8C32.0001 12.8 31.4331 12.789 30.8423 13.0844C30.2515 13.3798 29.6001 14.1333 29.6001 15.2C29.6001 15.8667 29.9084 16.4115 30.2595 16.8797C30.6106 17.3479 31.0333 17.766 31.4329 18.1656L31.4345 18.1672C31.8345 18.5672 32.2125 18.9482 32.461 19.2797C32.7096 19.6111 32.8001 19.8664 32.8001 20C32.8001 20.5333 32.6515 20.5798 32.4423 20.6844C32.2331 20.789 32.0001 20.8 32.0001 20.8C31.3217 20.8 31.0688 20.3609 31.0688 20.3609L29.7313 21.2391C29.7313 21.2391 30.5281 22.4 32.0001 22.4C32.0001 22.4 32.5671 22.411 33.1579 22.1156C33.7487 21.8202 34.4001 21.0667 34.4001 20C34.4001 19.3336 34.0918 18.7884 33.7407 18.3203C33.3897 17.8522 32.9673 17.4344 32.5673 17.0344L32.5657 17.0328C32.1661 16.6332 31.7894 16.2519 31.5407 15.9203C31.2921 15.5887 31.2001 15.3333 31.2001 15.2C31.2001 14.6667 31.3487 14.6202 31.5579 14.5156C31.7671 14.411 32.0001 14.4 32.0001 14.4C32.6785 14.4 32.9313 14.8391 32.9313 14.8391L34.2688 13.9609C34.2688 13.9609 33.4721 12.8 32.0001 12.8ZM13.6001 13.6C13.3879 13.6 13.1844 13.6843 13.0344 13.8343C12.8844 13.9843 12.8001 14.1878 12.8001 14.4C12.8001 14.6122 12.8844 14.8157 13.0344 14.9657C13.1844 15.1157 13.3879 15.2 13.6001 15.2C13.8123 15.2 14.0158 15.1157 14.1658 14.9657C14.3158 14.8157 14.4001 14.6122 14.4001 14.4C14.4001 14.1878 14.3158 13.9843 14.1658 13.8343C14.0158 13.6843 13.8123 13.6 13.6001 13.6ZM25.6001 14.5484C25.9016 14.5912 26.3133 14.5688 26.4876 14.7141C26.8189 14.9902 27.2001 15.7067 27.2001 17.6C27.2001 19.4933 26.8189 20.2098 26.4876 20.4859C26.3133 20.6312 25.9016 20.6088 25.6001 20.6516V14.5484ZM19.9907 15.6219L20.8407 19.2H19.1767L19.9907 15.6219ZM13.6001 16C13.3879 16 13.1844 16.0843 13.0344 16.2343C12.8844 16.3843 12.8001 16.5878 12.8001 16.8C12.8001 17.0122 12.8844 17.2157 13.0344 17.3657C13.1844 17.5157 13.3879 17.6 13.6001 17.6C13.8123 17.6 14.0158 17.5157 14.1658 17.3657C14.3158 17.2157 14.4001 17.0122 14.4001 16.8C14.4001 16.5878 14.3158 16.3843 14.1658 16.2343C14.0158 16.0843 13.8123 16 13.6001 16ZM13.6001 18.4C13.3879 18.4 13.1844 18.4843 13.0344 18.6343C12.8844 18.7843 12.8001 18.9878 12.8001 19.2C12.8001 19.4122 12.8844 19.6157 13.0344 19.7657C13.1844 19.9157 13.3879 20 13.6001 20C13.8123 20 14.0158 19.9157 14.1658 19.7657C14.3158 19.6157 14.4001 19.4122 14.4001 19.2C14.4001 18.9878 14.3158 18.7843 14.1658 18.6343C14.0158 18.4843 13.8123 18.4 13.6001 18.4ZM13.6001 20.8C13.3879 20.8 13.1844 20.8843 13.0344 21.0343C12.8844 21.1843 12.8001 21.3878 12.8001 21.6C12.8001 21.8122 12.8844 22.0157 13.0344 22.1657C13.1844 22.3157 13.3879 22.4 13.6001 22.4C13.8123 22.4 14.0158 22.3157 14.1658 22.1657C14.3158 22.0157 14.4001 21.8122 14.4001 21.6C14.4001 21.3878 14.3158 21.1843 14.1658 21.0343C14.0158 20.8843 13.8123 20.8 13.6001 20.8ZM13.6001 23.2C13.3879 23.2 13.1844 23.2843 13.0344 23.4343C12.8844 23.5843 12.8001 23.7878 12.8001 24C12.8001 24.2122 12.8844 24.4157 13.0344 24.5657C13.1844 24.7157 13.3879 24.8 13.6001 24.8C13.8123 24.8 14.0158 24.7157 14.1658 24.5657C14.3158 24.4157 14.4001 24.2122 14.4001 24C14.4001 23.7878 14.3158 23.5843 14.1658 23.4343C14.0158 23.2843 13.8123 23.2 13.6001 23.2ZM13.6001 25.6C13.3879 25.6 13.1844 25.6843 13.0344 25.8343C12.8844 25.9843 12.8001 26.1878 12.8001 26.4C12.8001 26.6122 12.8844 26.8157 13.0344 26.9657C13.1844 27.1157 13.3879 27.2 13.6001 27.2C13.8123 27.2 14.0158 27.1157 14.1658 26.9657C14.3158 26.8157 14.4001 26.6122 14.4001 26.4C14.4001 26.1878 14.3158 25.9843 14.1658 25.8343C14.0158 25.6843 13.8123 25.6 13.6001 25.6ZM16.0001 25.6C15.7879 25.6 15.5844 25.6843 15.4344 25.8343C15.2844 25.9843 15.2001 26.1878 15.2001 26.4C15.2001 26.6122 15.2844 26.8157 15.4344 26.9657C15.5844 27.1157 15.7879 27.2 16.0001 27.2C16.2123 27.2 16.4158 27.1157 16.5658 26.9657C16.7158 26.8157 16.8001 26.6122 16.8001 26.4C16.8001 26.1878 16.7158 25.9843 16.5658 25.8343C16.4158 25.6843 16.2123 25.6 16.0001 25.6ZM18.4001 25.6C18.1879 25.6 17.9844 25.6843 17.8344 25.8343C17.6844 25.9843 17.6001 26.1878 17.6001 26.4C17.6001 26.6122 17.6844 26.8157 17.8344 26.9657C17.9844 27.1157 18.1879 27.2 18.4001 27.2C18.6123 27.2 18.8158 27.1157 18.9658 26.9657C19.1158 26.8157 19.2001 26.6122 19.2001 26.4C19.2001 26.1878 19.1158 25.9843 18.9658 25.8343C18.8158 25.6843 18.6123 25.6 18.4001 25.6ZM20.8001 25.6C20.5879 25.6 20.3844 25.6843 20.2344 25.8343C20.0844 25.9843 20.0001 26.1878 20.0001 26.4C20.0001 26.6122 20.0844 26.8157 20.2344 26.9657C20.3844 27.1157 20.5879 27.2 20.8001 27.2C21.0123 27.2 21.2158 27.1157 21.3658 26.9657C21.5158 26.8157 21.6001 26.6122 21.6001 26.4C21.6001 26.1878 21.5158 25.9843 21.3658 25.8343C21.2158 25.6843 21.0123 25.6 20.8001 25.6ZM23.2001 25.6C22.9879 25.6 22.7844 25.6843 22.6344 25.8343C22.4844 25.9843 22.4001 26.1878 22.4001 26.4C22.4001 26.6122 22.4844 26.8157 22.6344 26.9657C22.7844 27.1157 22.9879 27.2 23.2001 27.2C23.4123 27.2 23.6158 27.1157 23.7658 26.9657C23.9158 26.8157 24.0001 26.6122 24.0001 26.4C24.0001 26.1878 23.9158 25.9843 23.7658 25.8343C23.6158 25.6843 23.4123 25.6 23.2001 25.6ZM25.6001 25.6C25.3879 25.6 25.1844 25.6843 25.0344 25.8343C24.8844 25.9843 24.8001 26.1878 24.8001 26.4C24.8001 26.6122 24.8844 26.8157 25.0344 26.9657C25.1844 27.1157 25.3879 27.2 25.6001 27.2C25.8123 27.2 26.0158 27.1157 26.1658 26.9657C26.3158 26.8157 26.4001 26.6122 26.4001 26.4C26.4001 26.1878 26.3158 25.9843 26.1658 25.8343C26.0158 25.6843 25.8123 25.6 25.6001 25.6ZM28.0001 25.6C27.7879 25.6 27.5844 25.6843 27.4344 25.8343C27.2844 25.9843 27.2001 26.1878 27.2001 26.4C27.2001 26.6122 27.2844 26.8157 27.4344 26.9657C27.5844 27.1157 27.7879 27.2 28.0001 27.2C28.2123 27.2 28.4158 27.1157 28.5658 26.9657C28.7158 26.8157 28.8001 26.6122 28.8001 26.4C28.8001 26.1878 28.7158 25.9843 28.5658 25.8343C28.4158 25.6843 28.2123 25.6 28.0001 25.6ZM30.4001 25.6C30.1879 25.6 29.9844 25.6843 29.8344 25.8343C29.6844 25.9843 29.6001 26.1878 29.6001 26.4C29.6001 26.6122 29.6844 26.8157 29.8344 26.9657C29.9844 27.1157 30.1879 27.2 30.4001 27.2C30.6123 27.2 30.8158 27.1157 30.9658 26.9657C31.1158 26.8157 31.2001 26.6122 31.2001 26.4C31.2001 26.1878 31.1158 25.9843 30.9658 25.8343C30.8158 25.6843 30.6123 25.6 30.4001 25.6ZM32.8001 25.6C32.5879 25.6 32.3844 25.6843 32.2344 25.8343C32.0844 25.9843 32.0001 26.1878 32.0001 26.4C32.0001 26.6122 32.0844 26.8157 32.2344 26.9657C32.3844 27.1157 32.5879 27.2 32.8001 27.2C33.0123 27.2 33.2158 27.1157 33.3658 26.9657C33.5158 26.8157 33.6001 26.6122 33.6001 26.4C33.6001 26.1878 33.5158 25.9843 33.3658 25.8343C33.2158 25.6843 33.0123 25.6 32.8001 25.6ZM35.2001 25.6C34.9879 25.6 34.7844 25.6843 34.6344 25.8343C34.4844 25.9843 34.4001 26.1878 34.4001 26.4C34.4001 26.6122 34.4844 26.8157 34.6344 26.9657C34.7844 27.1157 34.9879 27.2 35.2001 27.2C35.4123 27.2 35.6158 27.1157 35.7658 26.9657C35.9158 26.8157 36.0001 26.6122 36.0001 26.4C36.0001 26.1878 35.9158 25.9843 35.7658 25.8343C35.6158 25.6843 35.4123 25.6 35.2001 25.6Z" fill="#D4F850"/>
</svg>
