<svg width="40" height="40" viewBox="0 0 40 40" fill="none" xmlns="http://www.w3.org/2000/svg">
<g clip-path="url(#clip0)">
<path d="M17.4 -0.00015923C17.0437 0.0654658 16.7781 0.365466 16.75 0.724841C16.2531 6.28422 13.0406 9.95297 9.77495 13.7498C6.50933 17.5467 3.19995 21.5155 3.19995 27.4748C3.19995 31.5592 5.02808 34.7248 7.42495 36.8248C9.82183 38.9248 12.7562 39.9998 15.2 39.9998C15.4875 40.003 15.7562 39.853 15.9031 39.603C16.0468 39.353 16.0468 39.0467 15.9031 38.7967C15.7562 38.5467 15.4875 38.3967 15.2 38.3998C13.2437 38.3998 10.5781 37.4686 8.47495 35.6248C6.37183 33.7811 4.79995 31.0873 4.79995 27.4748C4.79995 22.103 7.74683 18.5592 11 14.7748C14.0031 11.2811 17.1625 7.52797 18.075 2.17484C30.1906 10.6717 35.1999 19.3092 35.1999 25.7998C35.1999 31.9686 31.4343 36.9342 27.6999 38.4498C27.2843 38.6155 27.0843 39.0842 27.25 39.4998C27.4156 39.9155 27.8843 40.1155 28.2999 39.9498C32.7906 38.128 36.7999 32.6092 36.7999 25.7998C36.7999 18.3061 31.125 9.04671 18 0.149841C17.8468 0.0404658 17.6624 -0.0126592 17.475 -0.00015923C17.45 -0.00015923 17.425 -0.00015923 17.4 -0.00015923ZM20.475 12.3248C20.2562 12.3498 20.0593 12.4623 19.9249 12.6373C19.7937 12.8123 19.7406 13.0342 19.775 13.2498C20.2624 16.0686 20.3812 18.3873 20.225 20.1248C20.0687 21.8623 19.6343 23.0186 19.175 23.5498C18.7156 24.0811 18.3656 24.1467 17.675 23.8498C16.9843 23.553 16.0093 22.6936 15.025 21.1748C14.8843 20.9592 14.6468 20.8248 14.3875 20.8155C14.1312 20.8061 13.8843 20.9217 13.725 21.1248C10.7406 25.1498 10.875 28.3686 11.925 30.4498C12.975 32.5311 14.825 33.4998 14.825 33.4998C15.0781 33.678 15.4093 33.6936 15.6812 33.5436C15.95 33.3905 16.1062 33.0967 16.0843 32.7873C16.0625 32.478 15.8625 32.2123 15.575 32.0998C15.575 32.0998 14.15 31.3342 13.35 29.7498C12.625 28.3092 12.4343 26.1498 14.45 22.9998C15.2937 24.0905 16.1437 24.9342 17.05 25.3248C18.2218 25.828 19.5531 25.553 20.375 24.5998C21.1968 23.6467 21.65 22.178 21.8249 20.2498C21.9468 18.903 21.85 17.2342 21.65 15.3998C23.8156 17.5405 25.5718 19.8467 26.275 22.3498C27.1562 25.4873 26.7156 28.8123 24.15 32.3248C23.8874 32.6842 23.9656 33.1873 24.3249 33.4498C24.6843 33.7123 25.1875 33.6342 25.4499 33.2748C28.2531 29.4373 28.8312 25.4967 27.8249 21.9248C26.8187 18.353 24.2937 15.153 21.0749 12.4998C20.9062 12.3623 20.6906 12.2998 20.475 12.3248Z" fill="#D4F850"/>
</g>
<defs>
<clipPath id="clip0">
<rect width="40" height="40" fill="white"/>
</clipPath>
</defs>
</svg>
