<svg width="41" height="41" viewBox="0 0 41 41" fill="none" xmlns="http://www.w3.org/2000/svg">
<path d="M12.245 3.26562C5.94396 3.26562 0.816406 8.39318 0.816406 14.6942C0.816406 19.8887 4.30174 24.2765 9.0562 25.6604C9.00837 26.0813 8.97967 26.5054 8.97967 26.9391C8.97967 33.2401 14.1072 38.3677 20.4082 38.3677C26.7093 38.3677 31.8368 33.2401 31.8368 26.9391C31.8368 26.5054 31.8081 26.0813 31.7603 25.6604C36.5148 24.2765 40.0001 19.8887 40.0001 14.6942C40.0001 8.39318 34.8725 3.26562 28.5715 3.26562C25.3732 3.26562 22.4841 4.58897 20.4082 6.7095C18.3323 4.58897 15.4433 3.26562 12.245 3.26562ZM12.245 4.89828C15.0511 4.89828 17.5734 6.07813 19.3559 7.96269C17.972 9.85364 17.1429 12.1751 17.1429 14.6942C17.1429 15.1279 17.1716 15.552 17.2195 15.9729C13.377 17.0922 10.3764 20.1725 9.36232 24.0564C5.35403 22.8288 2.44906 19.1107 2.44906 14.6942C2.44906 9.27328 6.82406 4.89828 12.245 4.89828ZM28.5715 4.89828C33.9924 4.89828 38.3674 9.27328 38.3674 14.6942C38.3674 19.1107 35.4625 22.8288 31.4542 24.0564C30.4401 20.1725 27.4395 17.0922 23.597 15.9729C23.6449 15.552 23.6735 15.1279 23.6735 14.6942C23.6735 12.1751 22.8445 9.85364 21.4605 7.96269C23.2431 6.07813 25.7654 4.89828 28.5715 4.89828ZM20.4082 9.27647C21.4382 10.8262 22.0409 12.6885 22.0409 14.6942C22.0409 15.0099 22.0218 15.3224 21.9931 15.6349C21.4733 15.5615 20.9471 15.5105 20.4082 15.5105C19.8693 15.5105 19.3432 15.5615 18.8234 15.6349C18.7947 15.3224 18.7756 15.0099 18.7756 14.6942C18.7756 12.6885 19.3783 10.8262 20.4082 9.27647ZM20.4082 17.1432C20.8451 17.1432 21.2724 17.1814 21.6965 17.2357C21.4191 18.272 20.9854 19.2414 20.4082 20.1119C19.8311 19.2414 19.3974 18.272 19.12 17.2357C19.5441 17.1814 19.9714 17.1432 20.4082 17.1432ZM17.5256 17.5768C17.8923 18.9831 18.5205 20.2841 19.3559 21.4257C17.5734 23.3103 15.0511 24.4901 12.245 24.4901C11.8081 24.4901 11.3808 24.4519 10.9567 24.3976C11.8272 21.1419 14.3177 18.559 17.5256 17.5768ZM23.2909 17.5768C26.4988 18.559 28.9892 21.1419 29.8598 24.3976C29.4357 24.4519 29.0084 24.4901 28.5715 24.4901C25.7654 24.4901 23.2431 23.3103 21.4605 21.4257C22.296 20.2841 22.9242 18.9831 23.2909 17.5768ZM20.4082 22.6789C22.4841 24.7994 25.3732 26.1228 28.5715 26.1228C29.1104 26.1228 29.6366 26.0717 30.1563 25.9984C30.185 26.3109 30.2042 26.6234 30.2042 26.9391C30.2042 32.36 25.8292 36.735 20.4082 36.735C14.9873 36.735 10.6123 32.36 10.6123 26.9391C10.6123 26.6234 10.6315 26.3109 10.6602 25.9984C11.1799 26.0717 11.7061 26.1228 12.245 26.1228C15.4433 26.1228 18.3323 24.7994 20.4082 22.6789Z" fill="#D4F850"/>
</svg>
