<svg width="40" height="40" viewBox="0 0 40 40" fill="none" xmlns="http://www.w3.org/2000/svg">
<path d="M3.1999 4.7998V9.5998C3.1499 9.84668 2.3999 13.4717 2.3999 15.5998C2.3999 16.7029 2.61553 17.7561 3.1999 18.5998V38.3998H36.7999V18.5998C37.3843 17.7561 37.5999 16.7029 37.5999 15.5998C37.5999 13.4936 36.8655 9.97168 36.7999 9.6498C36.7999 9.63418 36.7999 9.61543 36.7999 9.5998V4.7998H3.1999ZM4.7999 6.3998H35.1999V8.7998H31.3499C31.2437 8.77793 31.1312 8.77793 31.0249 8.7998H25.7749C25.6937 8.77793 25.6093 8.76855 25.5249 8.7748C25.4999 8.78105 25.4749 8.79043 25.4499 8.7998H20.1749C20.0937 8.77793 20.0093 8.76855 19.9249 8.7748C19.8999 8.78105 19.8749 8.79043 19.8499 8.7998H14.5749C14.4937 8.77793 14.4093 8.76855 14.3249 8.7748C14.2999 8.78105 14.2749 8.79043 14.2499 8.7998H8.9749C8.89365 8.77793 8.80928 8.76855 8.7249 8.7748C8.6999 8.78105 8.6749 8.79043 8.6499 8.7998H4.7999V6.3998ZM4.6999 10.3998H7.9999V17.4998C7.4874 18.0404 6.79678 18.3998 5.9999 18.3998C5.38115 18.3998 4.99053 18.2436 4.6999 17.9498C4.6499 17.8529 4.58428 17.7686 4.4999 17.6998C4.18115 17.2404 3.9999 16.4842 3.9999 15.5998C3.9999 14.0217 4.5624 11.1342 4.6999 10.3998ZM9.5999 10.3998H13.5999V17.4998C13.0874 18.0404 12.3968 18.3998 11.5999 18.3998C10.803 18.3998 10.1124 18.0404 9.5999 17.4998V10.3998ZM15.1999 10.3998H19.1999V17.4998C18.6874 18.0404 17.9968 18.3998 17.1999 18.3998C16.403 18.3998 15.7124 18.0404 15.1999 17.4998V10.3998ZM20.7999 10.3998H24.7999V17.5248C24.2905 18.0592 23.5937 18.3998 22.7999 18.3998C22.003 18.3998 21.3124 18.0404 20.7999 17.4998V10.3998ZM26.3999 10.3998H30.3999V17.5248C29.8905 18.0592 29.1937 18.3998 28.3999 18.3998C27.6062 18.3998 26.9093 18.0592 26.3999 17.5248V10.3998ZM31.9999 10.3998H35.2999C35.4374 11.1342 35.9999 14.0217 35.9999 15.5998C35.9999 16.3873 35.8562 17.0592 35.5999 17.5248C35.4124 17.6342 35.278 17.8154 35.2249 18.0248C34.9436 18.2717 34.5655 18.3998 33.9999 18.3998C33.2062 18.3998 32.5093 18.0592 31.9999 17.5248V10.3998ZM25.5999 18.8248C26.3687 19.4967 27.2968 19.9998 28.3999 19.9998C29.503 19.9998 30.4312 19.4967 31.1999 18.8248C31.9687 19.4967 32.8968 19.9998 33.9999 19.9998C34.4249 19.9998 34.8343 19.9248 35.1999 19.7998V36.7998H32.7999V22.3998H23.9999V36.7998H4.7999V19.7998C5.16553 19.9248 5.5749 19.9998 5.9999 19.9998C7.0999 19.9998 8.03115 19.5186 8.7999 18.8498C9.56865 19.5186 10.4999 19.9998 11.5999 19.9998C12.6999 19.9998 13.6312 19.5186 14.3999 18.8498C15.1687 19.5186 16.0999 19.9998 17.1999 19.9998C18.2999 19.9998 19.2312 19.5186 19.9999 18.8498C20.7687 19.5186 21.6999 19.9998 22.7999 19.9998C23.903 19.9998 24.8312 19.4967 25.5999 18.8248ZM7.1999 22.3998V34.3998H21.5999V22.3998H7.1999ZM8.7999 23.9998H19.9999V32.7998H8.7999V23.9998ZM25.5999 23.9998H31.1999V36.7998H25.5999V23.9998Z" fill="#D4F850"/>
</svg>
