<svg width="40" height="40" viewBox="0 0 40 40" fill="none" xmlns="http://www.w3.org/2000/svg">
<path d="M20.0011 2.3999C15.1505 2.3999 11.2011 6.34927 11.2011 11.1999C11.2011 16.0505 15.1505 19.9999 20.0011 19.9999C24.8517 19.9999 28.8011 16.0505 28.8011 11.1999C28.8011 6.34927 24.8517 2.3999 20.0011 2.3999ZM20.0011 3.9999C23.987 3.9999 27.2011 7.21398 27.2011 11.1999C27.2011 15.1858 23.987 18.3999 20.0011 18.3999C16.0152 18.3999 12.8011 15.1858 12.8011 11.1999C12.8011 7.21398 16.0152 3.9999 20.0011 3.9999ZM19.2011 5.5999V7.01553C17.0827 7.37073 17.0152 9.25326 17.0152 9.47646C17.0152 11.4573 18.6186 11.815 19.9074 12.103C21.0642 12.3622 21.7183 12.5473 21.7183 13.3249C21.7183 13.7913 21.4955 14.5749 20.0027 14.5749C19.9699 14.5749 19.1938 14.5691 18.7074 14.0827C18.4202 13.7955 18.2813 13.3803 18.2949 12.8499L18.2964 12.7999H16.8105L16.812 12.8515C16.86 14.5315 17.6459 15.4914 19.2027 15.7874V16.7999H19.2792H20.7355H20.8011V15.8124C23.0779 15.4428 23.2011 13.678 23.2011 13.314C23.2019 11.4012 21.5985 11.0334 20.3105 10.7374C19.1537 10.4718 18.4995 10.285 18.4995 9.55303C18.4995 8.67703 18.9837 8.26865 20.0245 8.26865C21.1573 8.26865 21.4556 8.9655 21.4964 9.5999H22.9808C22.9816 8.9791 22.7295 8.3113 22.2855 7.8249C21.8967 7.4001 21.3859 7.12669 20.7995 7.01709V5.5999H20.7355H19.2777H19.2011ZM10.773 19.9999C8.50344 19.9999 7.47282 20.5494 6.33704 20.9983C6.33652 20.9983 6.336 20.9983 6.33548 20.9983C4.17003 21.8564 0.454226 23.6436 0.454226 23.6437C0.359397 23.6892 0.274467 23.753 0.204287 23.8313C0.134107 23.9097 0.0800519 24.0011 0.0452089 24.1004C0.010366 24.1996 -0.00458205 24.3048 0.00121859 24.4098C0.00701923 24.5148 0.0334549 24.6177 0.0790157 24.7125C0.124576 24.8073 0.18837 24.8922 0.266752 24.9624C0.345134 25.0325 0.43657 25.0866 0.535836 25.1214C0.635102 25.1562 0.740254 25.1711 0.845287 25.1653C0.950319 25.1595 1.05317 25.133 1.14798 25.0874C1.14798 25.0874 4.88648 23.2936 6.92454 22.4858C8.17276 21.9924 8.73691 21.5999 10.773 21.5999C15.2663 21.5999 15.1448 23.6171 16.9855 24.7218C16.986 24.7218 16.9865 24.7218 16.987 24.7218C17.6474 25.1178 18.6691 25.442 19.837 25.739C19.9578 25.8064 20.094 25.8414 20.2324 25.8405H20.2339C21.5471 26.1582 22.9367 26.3999 24.0011 26.3999C24.9361 26.3999 25.5967 26.5792 25.948 26.7999C26.2993 27.0206 26.4011 27.2027 26.4011 27.5999C26.4011 28.0656 26.2939 28.2246 25.9433 28.4327C25.5927 28.6408 24.9216 28.7999 24.0011 28.7999H19.3605C17.4015 28.7999 14.6214 28.0311 14.6214 28.0311C14.5194 27.9985 14.4118 27.9866 14.3051 27.9963C14.1984 28.0059 14.0947 28.0369 14.0002 28.0874C13.9057 28.138 13.8223 28.2069 13.7549 28.2903C13.6876 28.3736 13.6377 28.4697 13.6082 28.5727C13.5787 28.6757 13.5701 28.7835 13.5831 28.8899C13.5961 28.9963 13.6303 29.099 13.6837 29.1918C13.7371 29.2847 13.8086 29.366 13.894 29.4307C13.9794 29.4954 14.0769 29.5423 14.1808 29.5686C14.1808 29.5686 17.0059 30.3999 19.3605 30.3999H24.0011C25.0839 30.3999 26.0119 30.2536 26.7605 29.8093C26.9855 29.6757 27.1835 29.5028 27.3558 29.3061C27.4159 29.2834 27.4731 29.2535 27.5261 29.2171L34.7214 24.378C35.969 23.6379 36.8293 23.4276 37.3417 23.4374C37.8543 23.4472 38.0484 23.6095 38.212 23.8233C38.4493 24.1336 38.4679 24.2983 38.3136 24.664C38.1593 25.0297 37.7184 25.5574 36.9464 26.1046C35.9859 26.7861 25.4153 33.8076 24.173 34.5265C23.2537 35.0592 22.5125 35.6265 21.6652 35.8671C20.8181 36.1076 19.8161 36.1049 18.1777 35.3077H18.1761C17.0818 34.7746 12.4592 32.3605 10.9589 31.5858C10.1298 31.1573 9.43087 30.9206 8.71673 30.9608C8.00258 31.0011 7.39777 31.3126 6.76204 31.7186C6.75995 31.7202 6.75786 31.7218 6.75579 31.7233L4.59798 33.1311C4.50863 33.1879 4.43143 33.2618 4.37085 33.3486C4.31028 33.4354 4.26752 33.5334 4.24507 33.6368C4.22262 33.7402 4.22092 33.8471 4.24006 33.9512C4.2592 34.0553 4.29881 34.1546 4.35659 34.2433C4.41437 34.3319 4.48917 34.4083 4.57666 34.4678C4.66415 34.5274 4.7626 34.569 4.86629 34.5903C4.96998 34.6115 5.07685 34.612 5.18073 34.5917C5.2846 34.5713 5.3834 34.5306 5.47141 34.4718L7.63079 33.064C8.18199 32.7128 8.50807 32.5761 8.80735 32.5593C9.1086 32.5423 9.51041 32.6386 10.2245 33.0077C11.7112 33.7753 16.2734 36.1594 17.4761 36.7452C19.3654 37.6648 20.8848 37.752 22.1027 37.4061C23.3205 37.0603 24.189 36.3661 24.9745 35.9108C26.641 34.9465 36.6672 28.2637 37.8714 27.4093V27.4108C38.7891 26.7604 39.4523 26.0793 39.787 25.2858C40.1218 24.4923 40.0139 23.5468 39.4824 22.8515C39.0644 22.3053 38.3178 21.8554 37.3714 21.8374C36.7021 21.8246 35.9015 22.0776 35.0199 22.4733C34.9865 22.3133 35.0643 22.1367 34.9933 21.9827C34.7213 21.3927 34.1152 20.9771 33.4339 20.8421C33.4334 20.8421 33.4329 20.8421 33.4324 20.8421C32.5386 20.6654 31.5265 20.9407 30.5245 21.4015C30.4532 21.1843 30.3988 20.9566 30.2542 20.7843C29.8252 20.2729 29.2081 20.0913 28.6339 20.0468C27.4856 19.9577 26.291 20.3327 25.4277 20.8468C24.2294 21.5599 20.6485 23.8263 20.1277 24.1561C19.0583 23.8679 18.0945 23.5196 17.8089 23.3483V23.3499C17.0768 22.9105 15.8173 19.9999 10.773 19.9999ZM28.5105 21.6421C28.8302 21.6669 28.9831 21.7593 29.0277 21.8124C29.0616 21.8528 29.1146 21.9282 29.0902 22.164L25.1402 24.8874C24.7823 24.8346 24.4084 24.7999 24.0011 24.7999C23.5777 24.7999 22.9984 24.7363 22.3667 24.6358C23.7587 23.7578 25.4838 22.6731 26.2449 22.2202C26.7815 21.9007 27.871 21.5925 28.5105 21.6421ZM32.5902 22.3983C32.8017 22.3788 32.9843 22.3834 33.123 22.4108C33.4553 22.4767 33.4873 22.5384 33.5402 22.653C33.5794 22.7382 33.5915 22.9525 33.5636 23.228L27.9277 27.0186C27.7879 26.4417 27.4467 25.9266 26.9699 25.5686L30.2714 23.2936C30.2998 23.2746 30.3269 23.2537 30.3527 23.2311C31.1144 22.7207 31.9753 22.4551 32.5902 22.3983Z" fill="#D4F850"/>
</svg>
