<svg width="40" height="40" viewBox="0 0 40 40" fill="none" xmlns="http://www.w3.org/2000/svg">
<g clip-path="url(#clip0)">
<path d="M24.4749 0.0751953C24.3499 0.0876953 24.2312 0.131446 24.1249 0.200195C23.8562 0.372071 22.7999 0.843946 21.4999 1.3252C20.1999 1.80645 18.5999 2.35645 17.0249 2.9002C15.4499 3.44395 13.8874 3.9877 12.6499 4.4502C12.0312 4.68145 11.5062 4.8877 11.0749 5.0752C10.6437 5.2627 10.353 5.36895 10.0499 5.6252C9.64365 5.96895 9.21553 6.52207 8.6499 7.2752C8.08428 8.02832 7.44053 8.94395 6.8249 9.9002C6.20928 10.8564 5.61553 11.8502 5.1749 12.7252C4.73428 13.6002 4.3999 14.2877 4.3999 15.0502C4.3999 15.3689 4.45928 15.4471 4.5249 15.7002C4.59053 15.9533 4.68428 16.2752 4.7999 16.6502C5.03428 17.4002 5.3499 18.3814 5.7499 19.4502C6.49365 21.4346 7.45928 23.7283 8.4999 25.5252C7.1624 27.0533 6.3999 29.0314 6.3999 31.2002C6.3999 36.0377 10.3624 40.0002 15.1999 40.0002C20.0374 40.0002 23.9999 36.0377 23.9999 31.2002C23.9999 28.8314 23.0749 26.6471 21.5499 25.0752C22.2218 24.7721 23.2374 24.4064 24.4249 23.9002C26.0968 23.1877 28.0937 22.1314 29.8749 20.2252C31.6999 18.2658 32.5405 15.4408 33.4249 12.8752C34.3093 10.3096 35.2499 8.0377 36.6999 7.0502C37.028 6.81895 37.1343 6.38145 36.9499 6.0252C35.8249 3.86895 33.3749 2.48145 30.9249 1.5252C28.4749 0.568946 26.0218 0.0751953 24.5499 0.0751953C24.5249 0.0751953 24.4999 0.0751953 24.4749 0.0751953ZM24.6749 1.7002C25.803 1.72207 28.1374 2.1377 30.3499 3.0002C32.3937 3.79707 34.1812 5.00957 35.1249 6.3502C33.5405 7.83145 32.7124 10.0721 31.9249 12.3502C31.0312 14.9439 30.1562 17.5627 28.6999 19.1252C27.1187 20.8189 25.3655 21.7564 23.7999 22.4252C22.2468 23.0877 20.8968 23.4064 19.9249 24.1502C19.9155 24.1564 19.9093 24.1689 19.8999 24.1752C19.0499 24.8064 18.0249 25.8002 16.8749 26.6502C15.7124 27.5064 14.4593 28.1502 13.3499 28.1502C12.103 28.1502 10.6624 27.0189 10.5499 25.8502C10.4718 24.9721 10.8124 24.1533 11.4249 23.3502C12.0374 22.5471 12.9218 21.7939 13.8499 21.1752C15.7062 19.9377 17.6499 19.2252 17.6499 19.2252C17.7905 19.1689 17.9124 19.0721 17.9999 18.9502C17.9999 18.9502 18.8093 17.8346 19.7499 16.6252C20.2218 16.0221 20.7343 15.3939 21.1749 14.8752C21.6155 14.3564 22.0405 13.9283 22.1749 13.8252C22.4718 13.5908 22.5593 13.1783 22.3905 12.8408C22.2218 12.5033 21.8405 12.3314 21.4749 12.4252C21.4749 12.4252 20.4437 12.6939 19.1749 12.7502C17.9062 12.8064 16.4937 12.5877 15.8249 11.9752C15.6405 11.8064 15.3905 11.7346 15.1437 11.7783C14.8999 11.8221 14.6874 11.9783 14.5749 12.2002C14.5749 12.2002 12.9905 15.0002 10.8749 15.4502C10.603 15.5033 10.378 15.6971 10.2812 15.9564C10.1843 16.2158 10.2312 16.5064 10.3999 16.7252C10.3999 16.7252 11.0562 17.5408 11.1999 19.3502C11.2124 19.5252 11.2812 19.6939 11.3999 19.8252C11.3999 19.8252 11.5499 19.9877 11.7249 20.2252C11.8593 20.4096 11.9593 20.5689 12.0249 20.7002C11.3655 21.2221 10.6624 21.7033 10.1499 22.3752C9.85615 22.7596 9.6499 23.2064 9.4499 23.6502C8.66553 22.1377 7.84678 20.4939 7.2499 18.9002C6.85928 17.8596 6.54678 16.8908 6.3249 16.1752C6.2124 15.8158 6.13115 15.5158 6.0749 15.3002C6.04053 15.1689 6.03428 15.0439 6.0249 15.0002C6.04365 14.8658 6.21865 14.2064 6.5999 13.4502C7.00303 12.6533 7.58115 11.7002 8.1749 10.7752C8.76865 9.8502 9.3874 8.94082 9.9249 8.2252C10.4624 7.50957 10.9624 6.94395 11.0749 6.8502C11.0312 6.8877 11.3124 6.69395 11.6999 6.5252C12.0874 6.35645 12.6218 6.1752 13.2249 5.9502C14.4343 5.5002 15.9749 4.94395 17.5499 4.4002C19.1249 3.85645 20.7218 3.31582 22.0499 2.8252C23.228 2.3877 24.0562 2.04707 24.6749 1.7002ZM15.5749 13.5502C16.7312 14.1846 18.0499 14.4033 19.2249 14.3502C19.4312 14.3408 19.4093 14.3158 19.5999 14.3002C19.2343 14.7408 18.8624 15.1877 18.4999 15.6502C17.6155 16.7846 16.9905 17.6689 16.8749 17.8252C16.5968 17.9314 15.028 18.5658 13.2499 19.7002C13.1655 19.5721 13.1062 19.3877 13.0249 19.2752C12.8655 19.0596 12.7968 18.9846 12.7249 18.9002C12.5999 17.9189 12.3905 17.1221 12.1499 16.6002C14.1562 15.7314 15.1749 14.2658 15.5749 13.5502ZM20.1999 26.0002C21.5562 27.2908 22.3999 29.1439 22.3999 31.2002C22.3999 35.1627 19.1624 38.4002 15.1999 38.4002C11.2374 38.4002 7.9999 35.1627 7.9999 31.2002C7.9999 29.6439 8.47178 28.2283 9.2999 27.0752C9.95303 28.6783 11.6093 29.7502 13.3499 29.7502C15.0405 29.7502 16.5468 28.8939 17.8249 27.9502C18.7749 27.2502 19.5499 26.5502 20.1999 26.0002Z" fill="#D4F850"/>
</g>
<defs>
<clipPath id="clip0">
<rect width="40" height="40" fill="white"/>
</clipPath>
</defs>
</svg>
