<svg width="41" height="41" viewBox="0 0 41 41" fill="none" xmlns="http://www.w3.org/2000/svg">
<path d="M15.4082 4.08193C15.2265 4.10106 15.0543 4.18397 14.9236 4.31152L8.39294 10.8421L7.83172 11.4289L8.39294 12.0156L14.9236 18.5462C15.2488 18.8715 15.7718 18.8715 16.097 18.5462C16.4223 18.221 16.4223 17.698 16.097 17.3727L10.9695 12.2452H22.0919C22.5065 15.9059 25.6187 18.7758 29.3878 18.7758C33.4344 18.7758 36.7348 15.4754 36.7348 11.4289C36.7348 7.38231 33.4344 4.08193 29.3878 4.08193C25.6187 4.08193 22.5065 6.95182 22.0919 10.6125H10.9695L16.097 5.48499C16.3617 5.23945 16.4318 4.85042 16.2724 4.52836C16.1162 4.2031 15.7622 4.02453 15.4082 4.08193ZM29.3878 5.71458C32.5543 5.71458 35.1021 8.26241 35.1021 11.4289C35.1021 14.5953 32.5543 17.1432 29.3878 17.1432C26.2724 17.1432 23.7533 14.675 23.6736 11.5819C23.6959 11.4735 23.6959 11.3587 23.6736 11.2503C23.7692 8.16994 26.282 5.71458 29.3878 5.71458ZM23.444 22.0411C23.6257 22.0602 23.7979 22.1432 23.9287 22.2707L30.4593 28.8013L31.0205 29.388L30.4593 29.9748L23.9287 36.5054C23.6034 36.8307 23.0804 36.8307 22.7552 36.5054C22.4299 36.1801 22.4299 35.6572 22.7552 35.3319L27.8827 30.2044H16.7603C16.3457 33.8651 13.2335 36.735 9.46437 36.735C5.41781 36.735 2.11743 33.4346 2.11743 29.388C2.11743 25.3415 5.41781 22.0411 9.46437 22.0411C13.2335 22.0411 16.3457 24.911 16.7603 28.5717H27.8827L22.7552 23.4442C22.4905 23.1986 22.4204 22.8096 22.5798 22.4875C22.7361 22.1623 23.09 21.9837 23.444 22.0411ZM9.46437 23.6738C6.29792 23.6738 3.75008 26.2216 3.75008 29.388C3.75008 32.5545 6.29792 35.1023 9.46437 35.1023C12.5798 35.1023 15.0989 32.6342 15.1787 29.5411C15.1563 29.4327 15.1563 29.3179 15.1787 29.2095C15.083 26.1291 12.5702 23.6738 9.46437 23.6738Z" fill="#D4F850"/>
</svg>
