<svg xmlns="http://www.w3.org/2000/svg" xmlns:xlink="http://www.w3.org/1999/xlink" width="501.591" height="365.189" viewBox="0 0 501.591 365.189"><defs><linearGradient id="a" x1="0.722" y1="-0.183" x2="0.078" y2="1.804" gradientUnits="objectBoundingBox"><stop offset="0" stop-color="#cf5c2b"/><stop offset="1" stop-color="#59173e"/></linearGradient><linearGradient id="b" x1="0.5" y1="1.113" x2="0.5" y2="0.967" xlink:href="#a"/><linearGradient id="c" x1="0.768" y1="-0.075" x2="0.23" y2="1.071" gradientUnits="objectBoundingBox"><stop offset="0" stop-color="#ffce3b"/><stop offset="0.113" stop-color="#fbc639"/><stop offset="0.287" stop-color="#f0b034"/><stop offset="0.499" stop-color="#de8e2b"/><stop offset="0.688" stop-color="#cc6923"/><stop offset="0.69" stop-color="#cc6923"/><stop offset="0.787" stop-color="#e2952d"/><stop offset="0.875" stop-color="#f1b434"/><stop offset="0.949" stop-color="#fbc739"/><stop offset="1" stop-color="#ffce3b"/></linearGradient><linearGradient id="d" x1="0.93" y1="-0.469" x2="0.625" y2="0.215" gradientUnits="objectBoundingBox"><stop offset="0" stop-color="#ffca2b"/><stop offset="1" stop-color="#d15b24"/></linearGradient></defs><g transform="translate(-5.343 -0.003)"><g transform="translate(0 0)"><g transform="translate(5.343 0.003)"><path d="M1042.68,244.846q-236.536,18.124-479.815-.019a11.829,11.829,0,0,1-10.9-12.281c.058-1.413.077-2.828.1-4.243a23.531,23.531,0,0,1,.137-3.556c.077-.412.275-.747.333-1.16.06-.393.1-.786.137-1.2.1-.981.176-1.965.255-2.946.256-2.772.53-5.542.786-8.312.019-.256.039-.511.06-.747a2.236,2.236,0,0,1,.371-1.237,2.051,2.051,0,0,1,.984-.61,38.836,38.836,0,0,1,14.383-2.847,106.223,106.223,0,0,0,15.6-1.338l6.365-.883H589.35c-4.754-.019-9.53-.2-14.265-.571-2.731-.215-5.463-.49-8.173-.844-1.415-.157-8.134-.393-11.338-1.553-1.02-.374-1.709-.825-1.729-1.415-.077-2.2-.077-4.381.039-6.582.041-.805-.176-2.575.217-3.281.53-.943.256-.451,1.316-.885a16.1,16.1,0,0,1,3.144-1.218c1.2-.236,2.437-.354,3.674-.472q6.574-.676,13.165-1.316c-1.121-.058-2.242-.137-3.361-.215-5.128-.294-10.275-.629-15.4-.943-.825-.06-1.63-.1-2.454-.159-.335-.019-.728-.077-.885-.374a1.216,1.216,0,0,1-.06-.47q.238-5.041.473-10.08c.373-8.252.728-16.524.9-24.776.058-1.14.08-2.259.1-3.38.137-7.032-.316-14.185.569-21.179.079-.648.59-7.664.55-7.664q23.9-1.739,47.922-1.709c1.275,0,2.553,0,3.831.019l-1.258-.116-.019-.021c-6.287-.608-12.594-1.256-18.862-1.943-3.378-.374-6.738-.747-10.079-1.239-2.729-.393-5.4-1.041-8.113-1.473a10.89,10.89,0,0,0-2.536-.019c-2.515.058-5.227-.943-7.662-1.454-.2-.041-.374-.079-.571-.137a4.065,4.065,0,0,1-1.336-.571,3.854,3.854,0,0,1-1.217-2.907,10.863,10.863,0,0,1-.039-1.119c0-2.948-.3-5.778-.473-8.705-.2-3.4.039-6.779.039-10.157.041-8.213.041-16.406.021-24.619,0-1.907-.021-3.811-.021-5.718q-.029-9.431-.116-18.821c-.021-2.162.2-4.383-.434-6.466-.648-2.081-.2-4.853.06-6.994a2.815,2.815,0,0,1,.49-1.492,2.663,2.663,0,0,1,1.239-.689c3.537-1.157,7.348-1.02,11.061-1.179A67.366,67.366,0,0,0,578.6,17.269c.492-.079,1-.178,1.492-.3a104.988,104.988,0,0,1-17.172-2.534,16.441,16.441,0,0,1-5.068-2.083,6.187,6.187,0,0,1-.827-.61,6.47,6.47,0,0,1-2.377-4.6,2.029,2.029,0,0,1,.06-.608,3.141,3.141,0,0,1,.118-.571,13.912,13.912,0,0,0,.058-3.614l-.118-5.6q-.087-5.128-.2-10.256a80.579,80.579,0,0,0-.59-9.981,46.877,46.877,0,0,1-.215-5.01,35.5,35.5,0,0,1,.2-6.131,9.281,9.281,0,0,1,.825-3.242.019.019,0,0,1,.019-.019,3.042,3.042,0,0,1,2.654-1.945,37.9,37.9,0,0,0,5.559-.451c4.106-.414,8.233-.747,12.358-1,8.45-.55,16.917-.844,25.4-.983,4.127-.058,8.272-.077,12.4-.1h.608c3.715-.019,7.466-.137,11.181.039q-11.966-.618-23.893-1.63c-4.125-.374-8.271-.767-12.4-1.2-7.054-.745-14.363-.668-21.259-1.336-3.852-.393-7.722-.608-11.574-.668-.215-.019-.432-.019-.648-.019a1.075,1.075,0,0,1-.707-.2,1.128,1.128,0,0,1-.236-.61,106.717,106.717,0,0,1-1.218-12.693c-.1-3.457-.2-6.936-.335-10.393q-.293-9.138-.706-18.274a11.794,11.794,0,0,1,10.827-12.3c160.265-12.731,320.2-13.066,479.8-.041A11.792,11.792,0,0,1,1053.408-89.2q-.766,12.646-1.374,25.328c-.178,3.674-.335,7.367-.511,11.061-.1,2.22-.176,4.46-.275,6.7a12.948,12.948,0,0,1-.453,3.262c-.608,1.926-.47,4.028-.943,6.012a3.735,3.735,0,0,1-.844,1.748,3.7,3.7,0,0,1-1.75.747c-.058.019-.116.019-.176.039a136.184,136.184,0,0,1-22.025,3.32c-1.374.1-2.731.159-4.106.217q12.849,1.269,25.719,2.534a3.654,3.654,0,0,1,2.22.747,3.281,3.281,0,0,1,.747,1.632c.157.608.253,1.2.352,1.806a40.3,40.3,0,0,1,.354,6.386A84.79,84.79,0,0,1,1048.89-5.7c-.393,1.887-1.591,2.025-2.888,1.808-.824-.157-1.709-.451-2.437-.55-2.023-.275-4.067-.492-6.109-.648-4.088-.335-8.194-.412-12.3-.432-2.673,0-5.345.039-8.016.077q-16.682.238-33.344.453c.138.039.3.058.434.1,12.476,2.691,25.521,1.237,38.214,2.888,5.109.668,10.217,1.825,15.364,1.531,1.907-.118,3.891-.451,5.757.079a6.326,6.326,0,0,1,3.6,3.084,11.176,11.176,0,0,1,1.394,5.306c.1,1.08.118,2.16.178,3.163a157.292,157.292,0,0,1-.473,18c-.079,1.061-.137,2.122-.2,3.184a3.428,3.428,0,0,1-.629,2.16,2.96,2.96,0,0,1-1.434.728c-.019,0-.06.019-.079.019a11.345,11.345,0,0,1-3.537.451c-.393-.019-.726-.118-1.1-.1-1.4.137-2.83.61-4.245.807a36.526,36.526,0,0,1-4.144.352c.55.137,1.1.256,1.649.393,3.833.885,7.645,1.789,11.475,2.673a3.157,3.157,0,0,1,1.4.588c1.492,1.4,1.138,6.15,1.295,7.958.277,3.477.415,6.975.453,10.472.039,1.668.039,3.32.039,4.99,0,2.888-.039,5.776-.077,8.664-.02,2.023-.041,4.028-.06,6.051-.058,8.448-.176,16.878-.236,25.326-.039,3.754-.058,7.526-.058,11.278,0,4.028.53,10.945-1.552,14.559a4.488,4.488,0,0,1-2.789,1.984,14.75,14.75,0,0,1-3.223.511q-26.052,1.71-52.086,3.479c-.079,0-.176.019-.255.019h-.079a.432.432,0,0,1-.157.019c.374,0,.747.019,1.121.019q29.382.589,58.648,3.438c.923.1,1.2,2.1,1.355,2.751a44.094,44.094,0,0,1,.827,6.229c.039.354.077.726.1,1.08.511,6.68.648,13.38.728,20.06v.335c.019.648.039,1.275.058,1.9.021.747.041,1.473.06,2.2a100.752,100.752,0,0,1-.118,11.926,16.611,16.611,0,0,1-.767,3.5,5.635,5.635,0,0,1-.687,1.61,7.428,7.428,0,0,1-3.6,2.278,12.99,12.99,0,0,1-1.432.434,97.715,97.715,0,0,1-9.785,2.081c.333.06.648.118.981.2,3.459.629,6.936,1.3,10.414,1.965a8.218,8.218,0,0,1,3.575,1.415,4.721,4.721,0,0,1,1.258,1.591,8.813,8.813,0,0,1,.767,2.4c.039.294.077.569.116.865.335,2.809-.116,5.579.2,8.37.176,1.434.275,2.847.335,4.3.137,2.772.254,5.562.393,8.332q.174,3.743.352,7.486A11.757,11.757,0,0,1,1042.68,244.846Z" transform="translate(-551.952 111.319)" fill="url(#a)"/></g><path d="M554.591,33.855a19.5,19.5,0,0,0-.314,3.182,14.584,14.584,0,0,0,.019,1.591,5.373,5.373,0,0,0,.1.55,8.493,8.493,0,0,1,.077,1.731c.022.451.06.923.118,1.374-1.02-.374-1.709-.825-1.728-1.415-.077-2.2-.077-4.381.039-6.582.041-.805-.176-2.575.217-3.281.53-.943.256-.451,1.316-.885a16.1,16.1,0,0,1,3.144-1.218c1.2-.236,2.437-.354,3.674-.472q6.574-.676,13.165-1.316c-1.121-.058-2.242-.137-3.361-.215.943-.019,1.866-.06,2.809-.1l2.693-.118a17.568,17.568,0,0,0,2.278-.1c-6.09,1.022-12.2,2.025-18.153,3.635a22.463,22.463,0,0,0-4.638,1.671,2.843,2.843,0,0,0-1.041.825A3,3,0,0,0,554.591,33.855Z" transform="translate(-545.625 269.54)" fill="#eb924d"/><path d="M554.715-39.029l.009.129c.041.522.238,1,.3,1.518.17,1.51-.129,3.114-.069,4.64.12,2.953.782,6.021,2.856,8.244,2.506,2.682,6.386,3.466,10,4.108l-8.495.12a3.639,3.639,0,0,0-1.686.3,3.564,3.564,0,0,0-1.413,2.515A64.214,64.214,0,0,0,554.75.246a13.247,13.247,0,0,0,4.3,1.561c-2.021.077-3.258,2.545-2.787,4.512s2.077,3.438,3.687,4.662c-2.45.073-4.063,2.676-4.477,5.091-.331,1.935-.243,3.912-.58,5.847a6.912,6.912,0,0,0-.045,1.894c.073.857-.041,1.722-.054,2.579a35.788,35.788,0,0,0,1.527,10.792c.2.629.393,1.239.627,1.868a2.851,2.851,0,0,1,.137.393,4.066,4.066,0,0,1-1.336-.571c-1.159-.885-1.256-2.572-1.256-4.026,0-2.948-.3-5.778-.472-8.705-.2-3.4.039-6.779.039-10.157.041-8.214.041-16.406.021-24.619q-.032-12.291-.137-24.54c-.021-2.162.2-4.383-.434-6.466-.648-2.081-.2-4.853.06-6.994a2.815,2.815,0,0,1,.49-1.492,2.663,2.663,0,0,1,1.239-.689c3.537-1.157,7.348-1.02,11.061-1.179A67.365,67.365,0,0,0,577.2-51.288a26,26,0,0,0,2.751-.277c-5.933,1.258-11.907,2.358-17.919,3.361a16.574,16.574,0,0,0-3.655.885,5.508,5.508,0,0,0-2.847,2.358,7.809,7.809,0,0,0-.709,3.358A23.952,23.952,0,0,0,554.715-39.029Z" transform="translate(-545.207 179.878)" fill="#eb924d"/><path d="M603.066-6.208c-11.808.61-23.539,2.594-35.366,3.026-2.946.118-5.952.137-8.7,1.179-1.9.726-3.835,4.615-1.572,6.01a3.22,3.22,0,0,0,1.106.361,31.367,31.367,0,0,0,6.511.535A24.665,24.665,0,0,0,557.2,8.076a3.476,3.476,0,0,0-1.189.891,3.49,3.49,0,0,0-.507,1.353,11.158,11.158,0,0,0-.588,3.771,13.1,13.1,0,0,1,.006,2.579,95.988,95.988,0,0,0-.056,10.249,2.93,2.93,0,0,0,.217,1.16A3.4,3.4,0,0,0,556.2,29.2c.964.689,1.945,1.376,2.91,2.064a.315.315,0,0,1,.176.176c.077.178-.06.354-.176.472-1.494,1.61-3.223,3.144-3.97,5.227a10.636,10.636,0,0,0-1.044,2.9,23.508,23.508,0,0,0,.646,7.617,5.179,5.179,0,0,0,1.312,2.633,5.633,5.633,0,0,0,2.222,1.072,88.551,88.551,0,0,0,10.178,2.454l-13.384.419c-.1,0-.438,5.111-.541,5.589a2.524,2.524,0,0,0,.007,1.808,5.206,5.206,0,0,0,1.409,1.954c-.825-.06-1.63-.1-2.454-.159-.335-.019-.728-.077-.885-.374a1.216,1.216,0,0,1-.06-.47c.591-12.693,1.22-25.5,1.475-38.235.138-7.032-.315-14.185.569-21.179.079-.648.59-7.664.55-7.664Q579.047-6.238,603.066-6.208Z" transform="translate(-545.922 231.915)" fill="#eb924d"/><path d="M577.283-6.243l-.019-.021a1.178,1.178,0,0,0,.275,0A1.037,1.037,0,0,0,577.283-6.243Z" transform="translate(-517.567 231.853)" fill="#eb924d"/><path d="M612.847-79.206c-7.093.883-14.4-.1-21.454,1.1-2.338.393-4.638,1.022-7,1.258-2.179.2-4.361.077-6.521.137A56.977,56.977,0,0,0,561.8-73.685a11.167,11.167,0,0,0-4.872,2.534,7.3,7.3,0,0,0-1.179,1.709,8.707,8.707,0,0,0-1.009,3.912,6.253,6.253,0,0,1,.032,1.082c-.118,1.114-.245,2.216-.262,3.337a26.823,26.823,0,0,0,.73,6.644,3.165,3.165,0,0,0,.812,1.683,3.355,3.355,0,0,0,1.789.642l7.973,1.222-10.994.814c.238-.017.168,8.8.217,9.583.185,2.97.275,5.993.5,8.98a25.887,25.887,0,0,0,.9,5.757c.137.432.294.885.472,1.3a6.187,6.187,0,0,1-.827-.61,6.47,6.47,0,0,1-2.377-4.6,4,4,0,0,1,.178-1.179,13.912,13.912,0,0,0,.058-3.614q-.148-7.927-.313-15.856a80.591,80.591,0,0,0-.59-9.981,46.877,46.877,0,0,1-.215-5.01,35.485,35.485,0,0,1,.2-6.131,9.28,9.28,0,0,1,.825-3.242,3.085,3.085,0,0,1,2.673-1.965,37.9,37.9,0,0,0,5.559-.451c4.106-.414,8.233-.747,12.358-1,8.45-.55,16.917-.844,25.405-.983,4.127-.058,8.272-.077,12.4-.1Z" transform="translate(-545.664 148.165)" fill="#eb924d"/><path d="M756.727-61.757c12.476,2.691,25.521,1.237,38.214,2.888,5.109.668,10.217,1.825,15.364,1.531,1.907-.118,3.891-.451,5.757.079a6.326,6.326,0,0,1,3.6,3.084c1.512,2.379,1.413,5.757,1.572,8.469.393,7.073-.3,14.127-.668,21.181a3.428,3.428,0,0,1-.629,2.16,2.96,2.96,0,0,1-1.435.728c0-.159-.019-.277-.019-.414a18.225,18.225,0,0,1,.137-3.457,31.886,31.886,0,0,0,.569-4.677c0-.588,0-1.1.039-1.69a2.016,2.016,0,0,0,0-.509,16.684,16.684,0,0,0-.333-2.057,16,16,0,0,1-.142-2.834q-.135-3.021-.524-6.025a1.309,1.309,0,0,0-.4-.941,1.313,1.313,0,0,0-.788-.159,196.8,196.8,0,0,0-20.7,1.338,86.152,86.152,0,0,0,17.58-2.712,4.169,4.169,0,0,0,2.862-1.726,4.252,4.252,0,0,0,.064-2.755,4.717,4.717,0,0,0-1.411-2.991,4.592,4.592,0,0,0-1.9-.689c-.4-.082-.8-.159-1.2-.236q-6.033-1.153-12.147-1.776-3.057-.309-6.122-.487c-2.061-.12-3.951-.552-6.012-.685-1.218-.079-2.454-.157-3.672-.236q-6.278-.383-12.517-.747c-2.064-.137-4.166-.157-6.208-.393a5.517,5.517,0,0,1-1.671-.55,5.983,5.983,0,0,0-.962-.314c-1.827-.393-3.715-.61-5.562-.943-1.316-.236-2.613-.472-3.93-.728l-1.828-.354a8.756,8.756,0,0,0-1.454-.294C752.4-61.718,754.565-61.757,756.727-61.757Z" transform="translate(-319.105 168.185)" fill="#eb924d"/><path d="M797.21-.779c-.1,12.2-.275,24.4-.294,36.6,0,4.028.53,10.945-1.552,14.559a4.489,4.489,0,0,1-2.789,1.984c.137-.294.236-.608.354-.923A27.849,27.849,0,0,0,794.3,46.1a14.74,14.74,0,0,1,.393-2.476,9.427,9.427,0,0,0,.354-2.575c.215-2.575.432-5.166.648-7.76q.264-3.124.53-6.249c.1-1.041.176-2.083.275-3.124a5.375,5.375,0,0,0,.077-1.374,3.735,3.735,0,0,1-.118-.412c-.116-.511-.019-1.1-.412-1.514a1.734,1.734,0,0,0-.923-.432,41.015,41.015,0,0,0-9.764-1.218,12.785,12.785,0,0,1,4.243-.217,10.187,10.187,0,0,0,4.224-.393,4.212,4.212,0,0,0,2.182-1.847,6.057,6.057,0,0,0,.431-1.316,11.475,11.475,0,0,0,.019-2.476c-.019-1.514-.039-3.026-.039-4.559-.039-4.2-.077-8.409-.393-12.613-.219-3.2-.526-6.382-.706-9.581-.06-1.041-.694-1.583-.941-2.525-.3-1.14.333-2.478-.387-3.522-.575-.831-1.748-.925-2.759-.936l-19.77-.247c6.152.457,12.293-.741,18.345-1.933a7.752,7.752,0,0,0,2.195-.664,5.689,5.689,0,0,0,2.358-2.88c.258-.591.438-1.2.664-1.8a2.758,2.758,0,0,0,.213-.623,12.528,12.528,0,0,0-.129-2.366q-.077-1.391-.161-2.785a5.631,5.631,0,0,0-.706-3.006c-.807-1.2-2.338-1.63-3.734-1.965L779.9-41.883a21.245,21.245,0,0,1,2.789-.294c3.833.885,7.645,1.789,11.476,2.673a3.157,3.157,0,0,1,1.4.588c1.492,1.4,1.138,6.15,1.295,7.958.277,3.477.414,6.975.453,10.472C797.427-13.923,797.251-7.341,797.21-.779Z" transform="translate(-294.752 190.649)" fill="#eb924d"/><path d="M777.975-73.909c-1.374.1-2.731.159-4.106.217q12.849,1.269,25.719,2.534a3.654,3.654,0,0,1,2.22.747,3.28,3.28,0,0,1,.747,1.632,33.735,33.735,0,0,1,.707,8.192,84.781,84.781,0,0,1-1.454,11.965c-.393,1.887-1.591,2.025-2.888,1.808A2.985,2.985,0,0,0,800.236-49a132.1,132.1,0,0,0,.019-15.01,9.6,9.6,0,0,0-.53-2.789,3.581,3.581,0,0,0-1.14-1.495,4.424,4.424,0,0,0-.767-.451,1.426,1.426,0,0,0-.314-.157c-.176-.06-.313-.157-.492-.236a3.578,3.578,0,0,0-.9-.2c-1.276-.215-2.534-.451-3.811-.648-5.029-.844-10.1-1.492-15.166-1.965a63.1,63.1,0,0,1-9.824-1.336c2.416-.137,4.518-.393,6.936-.49C775.48-73.81,776.738-73.868,777.975-73.909Z" transform="translate(-299.526 154.243)" fill="#eb924d"/><path d="M814.5,56.649a24.816,24.816,0,0,0,.532-3.509c.17-1.976.159-3.96.157-5.942a17.488,17.488,0,0,0-.314-5.124,10.224,10.224,0,0,1-.625-3.711c.071-1.589.112-3.354-1.024-4.615-1.245-1.383-3.337-1.5-5.2-1.522l-9.59-.1q6.355-.76,12.626-2.057a2.7,2.7,0,0,0,1.671-.792,2.712,2.712,0,0,0,.346-1.8c-.172-4.222-.271-8.454-.515-12.671-.135-2.349-.56-4.378-3.015-5.169a53.715,53.715,0,0,0-8.42-1.452q-7.508-1.127-15.053-2.014C776.031,5,765.94,4.154,755.833,3.737q29.382.589,58.648,3.438c.923.1,1.2,2.1,1.355,2.751a53.751,53.751,0,0,1,.923,7.309c.511,6.68.648,13.38.728,20.06v.335c.039,1.374.1,2.729.118,4.106a100.778,100.778,0,0,1-.118,11.926,16.618,16.618,0,0,1-.767,3.5,5.639,5.639,0,0,1-.687,1.61,7.429,7.429,0,0,1-3.6,2.278,8.982,8.982,0,0,0,1.514-2.572A17.665,17.665,0,0,0,814.5,56.649Z" transform="translate(-312.691 243.328)" fill="#eb924d"/><path d="M553.021-60.675q-.383-14.353-1.041-28.667a11.794,11.794,0,0,1,10.827-12.3c160.265-12.731,320.2-13.066,479.8-.041A11.792,11.792,0,0,1,1053.388-89.2q-.766,12.646-1.374,25.328c-.275,5.914-.55,11.827-.786,17.76a12.948,12.948,0,0,1-.453,3.262c-.608,1.926-.47,4.028-.943,6.012a3.734,3.734,0,0,1-.844,1.748,3.7,3.7,0,0,1-1.75.747c-.058.019-.116.019-.176.039a.7.7,0,0,0,.039-.2,76.087,76.087,0,0,0,.535-7.924,16.823,16.823,0,0,1-.131-2.594,9.948,9.948,0,0,0-.178-3.771,6.655,6.655,0,0,0-7.655-4.49c2.351-2.068,6.732-1.009,8.409-3.653.9-1.417.535-3.26.137-4.892a234.836,234.836,0,0,0-29.721-1.2,78.044,78.044,0,0,0,25.362-2.809,6.807,6.807,0,0,0,3.584-1.894,7.117,7.117,0,0,0,1.2-3.616c.3-2.113.492-4.273.9-6.367.12-.625.44-1.17.577-1.784a13.606,13.606,0,0,0,.092-3.043,30.187,30.187,0,0,0-.773-7.078,15.424,15.424,0,0,0-1.591-4.026c-.981-1.731-1.572-2.83-3.635-3.6a14.965,14.965,0,0,0-3.949-.726c-4.419-.393-7.447-.453-11.847-.964q-9.157-1.063-18.338-1.915-12.4-1.172-24.83-2.04-6.213-.438-12.431-.81a11.708,11.708,0,0,0-2.7-.045,5.252,5.252,0,0,1-1.973.049,27.86,27.86,0,0,0-5.965-.756c-2.555.114-5.336,1.559-5.839,4.067a5.183,5.183,0,0,1-.878-3.361,12.9,12.9,0,0,0-2.766,3.689,10.462,10.462,0,0,1-2.721-5.428,61.4,61.4,0,0,1-15.078-.1q-1.063,2.722-2.124,5.448c-2.544-4.086-7.417-6.219-12.2-6.788s-9.6.185-14.4.595a101.682,101.682,0,0,1-18.77-.129,3.1,3.1,0,0,0-2.2.318,2.87,2.87,0,0,0-.825,1.263,23.77,23.77,0,0,0-1.353,4.621,8.988,8.988,0,0,0-5.1-5.748,18.146,18.146,0,0,0-7.769-1.374c-4.874.03-9.706,1-14.58,1.046a68.109,68.109,0,0,1-8.018-.522,79.411,79.411,0,0,0-11.727-.79c-.962.039-1.924.118-2.877.251a17.037,17.037,0,0,1-2.581.376,14.131,14.131,0,0,1-1.638-.26,27.359,27.359,0,0,0-3.331-.086q-3.669-.039-7.337-.075-12.526-.145-25.072-.294l-25.089-.294c-4.166-.039-8.351-.1-12.536-.137-.943-.019-1.827-.217-2.77-.176-5.205.234-10.432.47-15.639.706q-6.465.293-12.933.569c-1.838.082-3.3-.453-5.115-.659a12.987,12.987,0,0,0-5.912.44c-2.712.988-4.93,3.975-4.013,6.713.232-3.075-2.545-5.708-5.534-6.472s-6.131-.148-9.176.352a117.456,117.456,0,0,1-23.386,1.462q-.374,3.289-.745,6.579a24.21,24.21,0,0,0-2.766-6.691,14.574,14.574,0,0,0-.9,9.717c-2.1-2.978-1.731-7.754-4.934-9.5-3.262-1.776-7.185,1.273-10.878.876l.412,6.3a7.407,7.407,0,0,0-3.352-5.39c-2.57-1.724-4.915-1.112-7.788-.893-3.105.236-6.208.47-9.313.726-5.54.414-11.082.846-16.642,1.258a16.525,16.525,0,0,1-3.694.176,11.826,11.826,0,0,0-2.5-.374c-13.537.354-27.194,1.063-40.574,3.3a22.8,22.8,0,0,0-7.131,2.083,9.763,9.763,0,0,0-3.517,3.18,9.432,9.432,0,0,0-1.117,3.2,14.144,14.144,0,0,1-.913,2.169,15.114,15.114,0,0,0-1.28,4.819c-.165,2.545.833,5.332,3.066,6.56,2.641,1.452,6.113.359,8.8,1.733a22.462,22.462,0,0,0-9.349.8,2.285,2.285,0,0,0-1.218.691,2.278,2.278,0,0,0-.35,1.166,24.7,24.7,0,0,0,.08,5.77c.122.928.38,1.849.451,2.77.077,1.033.107,2.074.165,3.109.236,4.11.522,8.216.745,12.326.039.687.2,1.1.176,1.61-.215-.019-.432-.019-.648-.019a1.075,1.075,0,0,1-.707-.2,1.128,1.128,0,0,1-.236-.61A106.7,106.7,0,0,1,553.021-60.675Z" transform="translate(-546.588 111.322)" fill="#eb924d"/><path d="M1042.68,80.769Q806.144,98.894,562.865,80.75a11.829,11.829,0,0,1-10.9-12.281c.058-1.413.077-2.828.1-4.243a23.531,23.531,0,0,1,.137-3.556c.077-.412.275-.747.333-1.16.2-1.374.275-2.77.393-4.144.256-2.772.53-5.542.786-8.312.019-.256.039-.511.06-.747a2.236,2.236,0,0,1,.371-1.237,2.051,2.051,0,0,1,.984-.61,38.837,38.837,0,0,1,14.383-2.847,106.223,106.223,0,0,0,15.6-1.338l6.365-.883h.55c.412,0,.827.019,1.239.019a6.052,6.052,0,0,0,1.022.019c-10.631,2.3-21.417,3.713-32.165,5.383a12.736,12.736,0,0,0-4.106,1.1l-.294.178c-1.415.846-2.755,2.33-2.721,4.041.017.8-.168,1.58-.21,2.379a5.191,5.191,0,0,0,1.334,4.273,6.637,6.637,0,0,0,2.519,1.248,64.189,64.189,0,0,0,18.106,3.038l-14.864-.122c-1.512-.013-3.049-.1-4.559-.024-1.005.054-2.837.043-3.571.827a2.152,2.152,0,0,0-.485,1.157c-.359,2.265.41,4.582.344,6.837a11.817,11.817,0,0,0,.354,4.067c.844,2.536,3.361,4.185,5.952,4.952a28.748,28.748,0,0,0,3.872.728c.668.077,1.316.137,1.984.215.314.039.649.079.984.137a7.1,7.1,0,0,0,.923.118,3.7,3.7,0,0,1,.49-.077c.492-.041,1,0,1.514,0h2.2c2.671-.021,5.342-.079,8.035.039,1.336.077,2.652.176,3.988.354a4.611,4.611,0,0,0,.885.1,4.941,4.941,0,0,0,.53-.077,1.628,1.628,0,0,1,.434,0,28.481,28.481,0,0,1,3.653.608,4.069,4.069,0,0,0,2.3-.09,4.328,4.328,0,0,0,2.229-3.045,20.611,20.611,0,0,1,1.037-3.764,33.669,33.669,0,0,1-.065,4.134,4.048,4.048,0,0,0,1.7,3.567,5.094,5.094,0,0,0,2.39.44c1.357.03,2.712.064,4.069.088a19.94,19.94,0,0,0,2.62-.331,22.945,22.945,0,0,1,3.925.223q2.081.145,4.162.286,8.33.564,16.661,1.048c1.492.086,3.006.256,4.5.256q20.775,1.15,41.574,1.808c4.157.129,8.368.045,12.515.35a9.208,9.208,0,0,1,1.51.322,6.279,6.279,0,0,0,3.595-.64,13.588,13.588,0,0,0,6.343-5.093c1.346,4.486,6.313,6.94,10.973,7.4s9.352-.52,14.031-.326c1.368.056,2.676-.056,4.007-.039.9.011,1.825.361,2.731.447a8.7,8.7,0,0,0,3.584-.187c.361-.127.7-.32,1.059-.44a13.683,13.683,0,0,1,3.988-.232q4.551-.055,9.1-.043,9.106.029,18.205.339c3.006.073,6.013.232,9.014.378a4.7,4.7,0,0,0,1.617-.107c.4-.118.762-.294,1.168-.378A23.768,23.768,0,0,1,784.3,87c.331,0,.659-.009.988-.006a13.072,13.072,0,0,0,3.017-.247,17.536,17.536,0,0,1,3.768-.032q3.067,0,6.135.009,12.539.019,25.079.077,3.511.019,7.022.043c1.16,0,2.339,0,3.5.019q12.526.087,25.051.256t25.053.432c4.164.079,8.349.176,12.514.275,2.083.039,4.185.1,6.268.157a12.6,12.6,0,0,0,4.46-.432,8.377,8.377,0,0,1,1.984-.393c1.359-.116,2.727-.176,4.091-.243a4.914,4.914,0,0,0,1.312-.125,4.3,4.3,0,0,1,1.718-.449,4.4,4.4,0,0,0,1.25-.172,7.434,7.434,0,0,0,2.278-1.072,19.236,19.236,0,0,0,3.837-3.749,33.609,33.609,0,0,0,3.526,3.988,1.882,1.882,0,0,0,.767.52c1.106.3,1.72-1.282,2.729-1.821a3.43,3.43,0,0,0,2.9,1.527,12.885,12.885,0,0,0,3.375-.533,30.907,30.907,0,0,1,9.944-.64q.615-.963,1.228-1.924c.56,1.808,2.871,2.293,4.765,2.3a32.165,32.165,0,0,0,3.988-.243,13.763,13.763,0,0,1,3.38-.369,37.153,37.153,0,0,0,7.06-.146q8.317-.531,16.627-1.117t16.62-1.235q8.1-.631,16.2-1.331c1.237-.118,2.515-.1,3.771-.157,4.127-.159,8.252-.335,12.379-.629,2.062-.157,4.125-.335,6.169-.55,1.022-.118,2.064-.2,3.084-.374a7.759,7.759,0,0,0,.885-.294c1.866-.434,3.773-.511,5.285-1.849a6.715,6.715,0,0,0,1.907-3.575,18.4,18.4,0,0,0,.294-2.1,38.46,38.46,0,0,0,.275-4.007c-.039-4.932-.1-9.865-.137-14.8,0-.492,0-.983-.019-1.454a57.981,57.981,0,0,0-.314-6.111,14.511,14.511,0,0,1-.335-2.77c.019-.256.079-.53.1-.786a4.459,4.459,0,0,0-1.239-2.968c-.49-.49-1.042-.943-1.572-1.413a4.861,4.861,0,0,0-1.316-.846,15.336,15.336,0,0,0-3.1-.923c-2.5-.61-4.99-1.2-7.486-1.789a4.245,4.245,0,0,1-1.808-.764c.885-.118,1.119-.453,2-.472h.569c3.459.629,6.936,1.3,10.414,1.965a8.218,8.218,0,0,1,3.575,1.415,4.721,4.721,0,0,1,1.258,1.591,9.471,9.471,0,0,1,.883,3.262c.335,2.809-.116,5.579.2,8.37.176,1.434.275,2.847.335,4.3.137,2.772.254,5.562.393,8.332q.174,3.743.352,7.486A11.757,11.757,0,0,1,1042.68,80.769Z" transform="translate(-546.608 275.399)" fill="#eb924d"/></g><path d="M560.919-80.948q.409,34.049.818,68.1.2,17.023.408,34.048.1,8.513.206,17.024a28.5,28.5,0,0,1,.011,5.257,7.96,7.96,0,0,0-.2,1.093c-.41,9.06-.271,18.179-.406,27.247q-.087,5.859-.174,11.716c-.163,10.936-.509,21.868-.728,32.8-.114,5.564-.191,11.127-.2,16.693,0,1.561-.03,2.978.116,4.524q.631,6.729.8,13.489a18.467,18.467,0,0,1-.277,4.993,21.337,21.337,0,0,0-.294,3.232q-.271,3.385-.541,6.771-.544,6.774-1.084,13.545a21.688,21.688,0,0,0-.18,3.638,9.821,9.821,0,0,1,.1,1.2c-.045,1.3-.453,2.549-.466,3.861a14,14,0,0,0,2.134,7.612,14.205,14.205,0,0,0,10.46,6.414q67.579,6.577,135.507,8.63a13.113,13.113,0,0,1,3.408.384,6.821,6.821,0,0,0,1.868.346c2.212.028,4.475-.3,6.682-.455a11.5,11.5,0,0,1,3.747-.062,8.763,8.763,0,0,0,1.851.208q2.267.129,4.535.247c1.464.077,2.852-.163,4.323-.144q2.284.032,4.565.06,4.564.058,9.128.105,9.131.1,18.261.161t18.259.092q9.131.029,18.261.024t18.259-.045q9.131-.039,18.261-.114c2.918,0,5.806-.09,8.72-.249q9.07-.49,18.132-1.13c4.638-.329,9.272-.786,13.917-.947q13.673-.477,27.34-1.063t27.329-1.284q13.664-.7,27.318-1.507t27.3-1.731q13.651-.921,27.29-1.952,1.295-.1,2.592-.2c3.18-.243,6.867-.612,9.721-2.278a3.654,3.654,0,0,0,1.759-2.454,36.489,36.489,0,0,0,.537-5.931q.216-3.347.35-6.7a267.552,267.552,0,0,0-.277-26.826,47.468,47.468,0,0,1-.286-7.4,33.54,33.54,0,0,0-.013-3.382q-.019-3.4-.06-6.8-.084-6.8-.245-13.595-.322-13.593-.964-27.174-.184-3.862-.393-7.724a25.032,25.032,0,0,0-.258-3.539c-.118-.595-.382-1.142-.511-1.733-.423-1.93.026-4.235.105-6.2q.271-6.783.436-13.573.335-13.58.251-27.161t-.582-27.157c-.32-8.929-.7-17.9-1.449-26.788a82.524,82.524,0,0,1,.135-8.276q.087-4.745.18-9.487.177-9.148.354-18.3c.232-12.418.432-24.838.5-37.258-5.695,17.967-5.712,37.473-4.419,56.266s3.479,37.694,1.291,56.406l.236,165.019-9.833,5.338-178.378,9.392-168.457-1.636L571.98,196.2l-6.036-6,3.294-115.114-2.2-130.935Z" transform="translate(-538.72 138.029)" fill="#eb924d"/><g id="aboutHover" transform="translate(21.962 11.078)"><path d="M780.4,231.237c-70.533,0-140.776-2.751-210.3-8.256a10.714,10.714,0,0,1-9.88-11.127c3.925-101.132,3.749-199.6-.524-292.684a10.791,10.791,0,0,1,10.043-11.213q45.39-2.867,90.836-4.67c3.18-.127,6.38-.155,9.554-.359.614-.039,1.23-.238,1.857-.294a29.994,29.994,0,0,1,4.166.114c1.991.1,4.168-.064,5.66-1.387,1.694-1.5,1.984-3.994,2.162-6.249-.217,2.349-.232,5.162,1.7,6.517a5.572,5.572,0,0,0,3.425.747c1.239-.032,2.487.019,3.721-.026,1.027-.037,2.032-.268,3.069-.3l4.559-.135q9.122-.264,18.241-.487t18.244-.4q6.841-.135,13.683-.241,22.328-.351,44.66-.434,11.116-.039,22.229-.013a33.145,33.145,0,0,1,5.989.161,4.307,4.307,0,0,0,1.791-.183,9.236,9.236,0,0,0,3.554-1.909,24.351,24.351,0,0,0,3.9-4.572q-.966,3.266-1.935,6.532c5.939-.006,11.84.116,17.778.183q9.1.1,18.194.249,9.07.148,18.141.341,9.044.193,18.085.436,9.015.238,18.029.526,8.987.287,17.973.618,8.954.335,17.911.713,8.925.38,17.849.805,8.9.425,17.786.9,8.864.47,17.722.988,3.224.19,6.451.384a10.669,10.669,0,0,1,10.073,11.08c-3.088,90.379-2.6,188.659,1.447,292.109a10.73,10.73,0,0,1-9.787,11.13C939.16,227.769,859.6,231.237,780.4,231.237ZM808.45-91.08c-78.285,0-157.871,2.536-238.162,7.608a2.155,2.155,0,0,0-2,2.246q2.058,44.066,2.8,88.184.364,20.157.487,40.314a38.224,38.224,0,0,1-.058,4.548,12.9,12.9,0,0,0-.1,1.677,4.926,4.926,0,0,0,.893,2.972c1.172,1.507,3.324,1.821,5.229,1.7s3.852-.539,5.7-.049l-8.321,1.458a5.479,5.479,0,0,0-2.021.633A3.678,3.678,0,0,0,571.373,63a8.286,8.286,0,0,0,.137,2.22,10.267,10.267,0,0,1,.122,1.9q0,2.21,0,4.421,0,4.432-.019,8.86-.029,8.893-.1,17.782-.074,8.932-.193,17.864-.116,8.967-.279,17.937-.164,9.006-.372,18.012-.206,9.041-.457,18.08-.251,9.074-.548,18.147-.3,9.1-.636,18.207-.109,2.873-.219,5.748a2.146,2.146,0,0,0,1.976,2.233q44.7,3.5,89.49,5.544,3.778.171,7.552.329c1.342.056,2.684.118,4.026.167a1.377,1.377,0,0,0,.846-.163,5.2,5.2,0,0,1,2.68-.006,2.917,2.917,0,0,0,2.789-.691,3.183,3.183,0,0,0,.365-2.2q-.351-4.506-.7-9.014a26.307,26.307,0,0,0,2.248,7.915,8.9,8.9,0,0,0,6.26,4.913,35.413,35.413,0,0,0,4.269-.058c1.518.028,3.036.1,4.555.148q4.561.145,9.12.273,9.122.258,18.244.455t18.246.331q5.018.074,10.037.129,22.711.248,45.427.116c7.561-.045,15.126-.075,22.684-.228.981-.021,1.872-.307,2.837-.412a13,13,0,0,0,3.758-.741,11.252,11.252,0,0,0,3.262-2.1,25.173,25.173,0,0,0,4.982-7.219,35.772,35.772,0,0,1,4.61-7.488,140.4,140.4,0,0,0-6.523,17.49,15.057,15.057,0,0,1,2.182-.054q1.137-.023,2.274-.032,2.274-.023,4.548,0c1.422.015,2.8.09,4.226.056q2.271-.055,4.542-.112,9.083-.232,18.168-.526t18.175-.644q9.09-.354,18.177-.769t18.179-.889q9.09-.473,18.179-1.011t18.175-1.132q9.09-.6,18.175-1.254t18.166-1.374q9.083-.718,18.162-1.5,2.268-.193,4.537-.393a2.156,2.156,0,0,0,1.956-2.24c-4.056-103.655-4.546-202.149-1.452-292.738a2.129,2.129,0,0,0-2.006-2.212C948.311-89.025,878.91-91.08,808.45-91.08Z" transform="translate(-559.691 106.161)" fill="url(#b)"/></g><g transform="translate(23.565 19.182)" class="outside-ring"><path d="M1024.892,181.392q-1.224-36.107-1.847-71.313-.354-18.843-.515-37.363v-.043c-.537-55.315.064-108.633,1.8-159.46a9.075,9.075,0,0,0-8.568-9.427q-7.924-.483-15.869-.923-29.085-1.61-58.515-2.749c-79.945-3.028-161.693-3.307-244.558-.837q-33.949,1-68.156,2.641-29.762,1.417-59.674,3.307a9.182,9.182,0,0,0-7.365,4.66,8.979,8.979,0,0,0-1.181,4.874Q562.927-31.257,563.561,25c.687,59.438-.172,120.508-2.577,182.587a9.093,9.093,0,0,0,8.4,9.448q39.1,3.092,78.442,5.046Q713.4,225.3,779.539,225.3q55.755,0,111.7-2.3,63.131-2.609,126.22-8.117a8.969,8.969,0,0,0,4.767-1.847,9.089,9.089,0,0,0,3.543-7.6C1025.45,197.39,1025.171,189.38,1024.892,181.392Zm-6.936,27.915a2.9,2.9,0,0,1-.966.236q-62.777,5.476-125.64,8.052c-80.847,3.35-161.629,3.071-241.681-.816q-40.069-1.933-79.859-5.089a3.747,3.747,0,0,1-3.457-3.736v-.172c2.362-60.683,3.221-120.4,2.62-178.593q-.58-58.493-3.157-114.667a3.449,3.449,0,0,1,.086-.945,3.773,3.773,0,0,1,3.436-2.985q29.5-1.868,58.858-3.264,36.172-1.739,72.086-2.792,53.984-1.578,107.3-1.568,65.515,0,129.72,2.362,29.762,1.127,59.2,2.727c6.313.344,12.648.709,18.939,1.1a3.726,3.726,0,0,1,3.522,3.865c-1.825,53.64-2.4,110.072-1.718,168.694q.1,9.309.258,18.725.644,40.391,2.061,82.092.419,11.5.859,23.105A3.762,3.762,0,0,1,1017.956,209.307Z" transform="translate(-560.437 102.387)" fill="url(#c)"/></g><path d="M628.195-94.971q-29.343,1.385-58.858,3.264a3.783,3.783,0,0,0-3.522,3.93q2.577,56.11,3.157,114.667l-.129.515a1.769,1.769,0,0,1-3.2.429A38.285,38.285,0,0,1,563.56,22.7q-.644-56.174-3.114-110.243a9.2,9.2,0,0,1,8.546-9.534q29.923-1.868,59.674-3.307A3.993,3.993,0,0,1,628.195-94.971Z" transform="translate(-536.872 123.87)" fill="#ffdf80"/><path d="M875.636-95.226c-2.34.215-4.7.408-7.043.558q-64.13-2.351-129.72-2.362-53.275,0-107.3,1.568a49.512,49.512,0,0,1-10.78-1.954.663.663,0,0,1,0-1.267,46.1,46.1,0,0,1,7.322-2.04c82.865-2.469,164.614-2.19,244.558.837,1.16.236,2.319.515,3.479.795C878.449-98.533,877.7-95.441,875.636-95.226Z" transform="translate(-468.162 121.569)" fill="#ffdf80"/><path d="M790.5,69.868v.043a25.162,25.162,0,0,1-2.942,8.546,1.588,1.588,0,0,1-2.341.451c-.687-58.622-.107-115.053,1.718-168.694a3.725,3.725,0,0,0-3.522-3.865c-6.292-.387-12.626-.752-18.939-1.1-.3-.172-.623-.365-.945-.558a1.761,1.761,0,0,1,0-3.028,26.374,26.374,0,0,1,4.338-1.61q7.956.451,15.869.923a9.074,9.074,0,0,1,8.568,9.427C790.568-38.765,789.967,14.553,790.5,69.868Z" transform="translate(-304.847 124.374)" fill="#ffdf80"/><path d="M780.679,73.6c-1.353,1.546-3.779,2.126-5.325,1.138q-1.417-41.647-2.062-82.092a2.437,2.437,0,0,1,4.445,1.245c.365,2.77.73,5.583,1.1,8.4Q779.444,37.458,780.679,73.6Z" transform="translate(-292.66 229.364)" fill="#ffdf80"/><path d="M848.11,52.475q-55.916,2.287-111.7,2.3-66.062,0-131.717-3.221c-1.825-.472-3.65-1.052-5.454-1.7a1.726,1.726,0,0,1,.451-3.371c2.276-.086,4.574-.172,6.85-.236,80.052,3.887,160.834,4.166,241.681.816A4.33,4.33,0,0,1,848.11,52.475Z" transform="translate(-493.74 292.101)" fill="#ffdf80"/><g transform="translate(23.565 21.931)"><path d="M1022.508,182.672q-1.224-36.107-1.847-71.313-.354-18.843-.516-37.363v-.043c-.537-55.315.065-108.633,1.8-159.46a9.074,9.074,0,0,0-8.568-9.427q-7.924-.483-15.869-.923Q968.428-97.467,939-98.605c-79.945-3.028-161.693-3.307-244.558-.837q-33.949,1-68.156,2.641-29.762,1.417-59.674,3.307a8.933,8.933,0,0,0-4.982,1.911,8.979,8.979,0,0,0-1.181,4.874q2.48,53.984,3.114,110.243c.687,59.438-.172,120.508-2.577,182.587a9.093,9.093,0,0,0,8.4,9.448q39.1,3.092,78.442,5.046,65.579,3.221,131.717,3.221,55.755,0,111.7-2.3,63.131-2.609,126.22-8.117a8.969,8.969,0,0,0,4.767-1.847,9.283,9.283,0,0,0,1.159-4.853C1023.066,198.67,1022.787,190.66,1022.508,182.672Zm-4.552,25.167a3.791,3.791,0,0,1-3.35,2.985q-62.777,5.476-125.64,8.052c-80.847,3.35-161.629,3.071-241.681-.816q-40.069-1.933-79.859-5.089a3.747,3.747,0,0,1-3.457-3.736v-.172c2.362-60.683,3.221-120.4,2.62-178.593q-.58-58.493-3.157-114.667A3.762,3.762,0,0,1,565.9-87.89a3.773,3.773,0,0,1,3.436-2.985q29.5-1.868,58.858-3.264,36.172-1.739,72.086-2.792,53.984-1.578,107.3-1.568,65.515,0,129.72,2.362,29.762,1.127,59.2,2.727c6.313.344,12.648.709,18.939,1.1a3.726,3.726,0,0,1,3.522,3.865c-1.825,53.64-2.4,110.072-1.718,168.694q.1,9.309.258,18.725.644,40.391,2.061,82.092.419,11.5.859,23.105A3.762,3.762,0,0,1,1017.956,207.839Z" transform="translate(-560.437 101.107)" fill="url(#d)"/></g></g></svg>