<svg xmlns="http://www.w3.org/2000/svg" width="3895.9" height="1365.493" viewBox="0 0 3895.9 1365.493"><g transform="translate(643.784 -1050.19)"><path d="M630.547,330.3a52.44,52.44,0,0,1-22.788,6.452c-4.514.541-9.1.777-13.671.974-3.245.059-6.9.275-10.533.049a76.259,76.259,0,0,0,12.982,2.262,22.006,22.006,0,0,1-.826,3.236c-1.928,5.616-5.458,10.681-9.078,15.3a81.928,81.928,0,0,1-30.085,23.447,70.851,70.851,0,0,1-37.648,5.537,44.637,44.637,0,0,1-8-1.918,45.5,45.5,0,0,0,2.96-16.68.787.787,0,0,0-.069-.383c-.246,6.55-4.052,13.149-7.357,18.539a63.421,63.421,0,0,1-7.809,10.415,93.619,93.619,0,0,1-18.7,16.523c-17.506,12-38.75,19.208-59.757,21.283-18.706,1.869-38.239-.777-55.076-9.363a70.384,70.384,0,0,1-20.27-15.707,37.165,37.165,0,0,1-7.6-9.048c-4.121-6.924-5.183-14.546-6.393-22.237-.758,9.255,1.957,18.431,6.56,26.653a102.975,102.975,0,0,1-78.021,7.671c-14.9-4.534-26.938-12.844-32.534-27.863a35.624,35.624,0,0,1-2.311-11.526,22.876,22.876,0,0,1,1.682-16.739c3.649-6.895,9.471-10.317,15.9-13.425-6.373-.256-11.91,5-15.6,9.7a28.929,28.929,0,0,0-3.334,5.37,44.748,44.748,0,0,1-7.868-6.6c-5.862-4.1-10.15-10.2-13.444-16.562a77.041,77.041,0,0,1-5.557-13.838c-.433-1.347-.777-2.695-1.111-4.062a77.5,77.5,0,0,0,5.36,24.706c-11.153,1.751-22.483,2.272-33.518.177-17.192-3.285-31.147-17.31-30.3-35.4.964-20.742,19.66-37.658,39.674-39.311a98.6,98.6,0,0,1,30.666,2.134,36.067,36.067,0,0,1,4.7,1.436,58.11,58.11,0,0,0-7.809,10.071c-.63,1.554-1.279,3.1-1.849,4.672A51.006,51.006,0,0,1,218.774,269.2c12.5-11.015,30.075-16.9,46.175-17.034,10.858-.079,22.06,3.265,32.033,7.465a35.64,35.64,0,0,0,.826,13.582,36.448,36.448,0,0,1,5.6-22.04c.757-1.623,1.583-3.187,2.38-4.672a81.469,81.469,0,0,1,34.57-32.691c15.844-7.711,33.656-7.711,50.129-2.085a85.7,85.7,0,0,1,8.95,3.452l-.03.147c.5.148.994.4,1.5.561l.01-.03.167.108c.826.374,1.5.669,2.233.984,2.941,1.416,5.99,2.832,8.842,4.544a37.424,37.424,0,0,0-8.625-7.16c-.482-.246-.944-.521-1.416-.787,1.515-2.813,3.187-5.5,4.829-8.074a49.976,49.976,0,0,1,30.262-21.086,57.707,57.707,0,0,1,19.05-1.79c6.226.57,11.222,3.373,16.572,6.344,8.92,4.947,14.034,13.415,16.906,22.758a18.574,18.574,0,0,1,1.347,3.541,42.263,42.263,0,0,1,3.029,9.54,1.412,1.412,0,0,0,.639-1.121c-.039-1.593-.177-3.177-.295-4.77a77.449,77.449,0,0,1,9.1-3.983c13.376-4.947,28.128-4.013,41.622-.049,12.451,3.678,24.912,11.3,31.4,22.8a43.982,43.982,0,0,1,5.439,15.382c-6.5,2-14,5.547-17.693,10.966a42.868,42.868,0,0,1,29.525-9.51A88.269,88.269,0,0,1,616.01,256.8c16.936,3.875,33.252,11.133,38.514,29.21C659.943,304.695,645.791,321.611,630.547,330.3Z" transform="translate(1273.293 2483.073) rotate(180)" fill="#fff" opacity="0.5"/><path d="M161.862,330.3a52.44,52.44,0,0,0,22.788,6.452c4.514.541,9.1.777,13.671.974,3.246.059,6.9.275,10.533.049a76.26,76.26,0,0,1-12.982,2.262,22,22,0,0,0,.826,3.236c1.928,5.616,5.458,10.681,9.078,15.3a81.929,81.929,0,0,0,30.085,23.447,70.851,70.851,0,0,0,37.648,5.537,44.636,44.636,0,0,0,8-1.918,45.5,45.5,0,0,1-2.96-16.68.787.787,0,0,1,.069-.383c.246,6.55,4.052,13.149,7.357,18.539a63.421,63.421,0,0,0,7.809,10.415,93.619,93.619,0,0,0,18.7,16.523c17.506,12,38.75,19.208,59.757,21.283,18.706,1.869,38.238-.777,55.076-9.363a70.384,70.384,0,0,0,20.27-15.707,37.165,37.165,0,0,0,7.6-9.048c4.121-6.924,5.183-14.546,6.393-22.237.758,9.255-1.957,18.431-6.56,26.653a102.975,102.975,0,0,0,78.021,7.671c14.9-4.534,26.938-12.844,32.534-27.863a35.624,35.624,0,0,0,2.311-11.526,22.876,22.876,0,0,0-1.682-16.739c-3.649-6.895-9.471-10.317-15.9-13.425,6.373-.256,11.91,5,15.6,9.7a28.929,28.929,0,0,1,3.334,5.37,44.748,44.748,0,0,0,7.868-6.6c5.862-4.1,10.15-10.2,13.444-16.562a77.041,77.041,0,0,0,5.557-13.838c.433-1.347.777-2.695,1.111-4.062a77.5,77.5,0,0,1-5.36,24.706c11.153,1.751,22.483,2.272,33.518.177,17.192-3.285,31.147-17.31,30.3-35.4-.964-20.742-19.66-37.658-39.674-39.311a98.6,98.6,0,0,0-30.666,2.134,36.067,36.067,0,0,0-4.7,1.436,58.11,58.11,0,0,1,7.809,10.071c.63,1.554,1.279,3.1,1.849,4.672A51.006,51.006,0,0,0,573.634,269.2c-12.5-11.015-30.075-16.9-46.175-17.034-10.858-.079-22.06,3.265-32.033,7.465a35.64,35.64,0,0,1-.826,13.582,36.448,36.448,0,0,0-5.6-22.04c-.757-1.623-1.583-3.187-2.38-4.672a81.469,81.469,0,0,0-34.57-32.691c-15.844-7.711-33.656-7.711-50.129-2.085a85.7,85.7,0,0,0-8.95,3.452l.03.147c-.5.148-.994.4-1.5.561l-.01-.03-.167.108c-.826.374-1.5.669-2.233.984-2.941,1.416-5.99,2.832-8.842,4.544a37.424,37.424,0,0,1,8.625-7.16c.482-.246.944-.521,1.416-.787-1.515-2.813-3.187-5.5-4.829-8.074A49.976,49.976,0,0,0,355.2,184.383a57.707,57.707,0,0,0-19.05-1.79c-6.226.57-11.222,3.373-16.572,6.344-8.92,4.947-14.034,13.415-16.906,22.758a18.574,18.574,0,0,0-1.347,3.541,42.263,42.263,0,0,0-3.029,9.54,1.412,1.412,0,0,1-.639-1.121c.039-1.593.177-3.177.295-4.77a77.449,77.449,0,0,0-9.1-3.983c-13.376-4.947-28.128-4.013-41.622-.049-12.451,3.678-24.912,11.3-31.4,22.8a43.982,43.982,0,0,0-5.439,15.382c6.5,2,14,5.547,17.693,10.966a42.869,42.869,0,0,0-29.525-9.51A88.269,88.269,0,0,0,176.4,256.8c-16.936,3.875-33.252,11.133-38.514,29.21C132.465,304.695,146.617,321.611,161.862,330.3Z" transform="translate(-171.485 1979.781)" fill="#fff" opacity="0.5"/><path d="M184.683,707.2c-6.152,3.132,13.074,4.609,16.834,6.429s10.984,8.872,21.734,10.536c0,0,6.969,11.838,22.367,8.985,0,0,6.321,11,15.749,13.639S281.309,745,281.309,745s3.08,10.588,20.8,16.384,25.044,3.269,25.044,3.269,10.342,8.588,20.338,5.4c0,0,7.381,10.036,25.713,15.7s29.226-4.7,36.321-.854,23.608,6.064,18.422-.608-14.425-6.967-14.425-6.967,11.162-5.614-1.545-19.016-28.215-5.057-28.215-5.057,4.844-5.65-4.326-8.949c0,0,3.373-5.661-5.251-10.5s-12.741,1.493-12.741,1.493,4.033-7.528-2.572-12.493-14.781.354-14.781.354-.477-21.268-42.745-31.322-37.357,20.836-37.357,20.836-5.256-5.767-16.028-5.882S240.8,718.17,240.8,718.17s-8.656-9.854-16.645-10.89-10.791,3.774-10.791,3.774a10.51,10.51,0,0,0-9.415-5.13C196.245,706.45,192.393,706.7,184.683,707.2Z" transform="translate(807.376 852.57) rotate(-12)" fill="#fff"/><path d="M529.975,270.287a23.173,23.173,0,0,1-10.007,2.807c-1.971.246-3.972.375-5.989.424a39.692,39.692,0,0,1-4.616.03,32.441,32.441,0,0,0,5.7.995,12.173,12.173,0,0,1-.371,1.426,24.215,24.215,0,0,1-3.984,6.716A35.528,35.528,0,0,1,497.5,292.957,30.882,30.882,0,0,1,480.97,295.4a19.875,19.875,0,0,1-3.5-.825,20.426,20.426,0,0,0,1.294-7.347.635.635,0,0,0-.023-.155c-.121,2.875-1.793,5.777-3.231,8.123a28.635,28.635,0,0,1-3.435,4.589,40.657,40.657,0,0,1-8.225,7.241,56.334,56.334,0,0,1-26.215,9.345,43.836,43.836,0,0,1-24.168-4.1,31.193,31.193,0,0,1-8.9-6.889,15.863,15.863,0,0,1-3.337-3.98c-1.816-3.046-2.27-6.386-2.8-9.768a20.688,20.688,0,0,0,2.872,11.7,45.113,45.113,0,0,1-34.239,3.378c-6.522-2-11.808-5.645-14.29-12.224a16.287,16.287,0,0,1-1.018-5.073,10.165,10.165,0,0,1,.753-7.343c1.612-3.023,4.158-4.517,6.988-5.879-2.807-.114-5.225,2.172-6.848,4.234a12.431,12.431,0,0,0-1.472,2.365,21.106,21.106,0,0,1-3.458-2.89,19.875,19.875,0,0,1-5.887-7.275,33.23,33.23,0,0,1-2.452-6.091c-.182-.568-.344-1.169-.469-1.759a33.562,33.562,0,0,0,2.331,10.839,42.764,42.764,0,0,1-14.706.079c-7.537-1.449-13.684-7.6-13.3-15.542.42-9.1,8.638-16.526,17.419-17.248a43.068,43.068,0,0,1,13.461.946,16.23,16.23,0,0,1,2.047.605,28.142,28.142,0,0,0-3.416,4.423c-.284.685-.545,1.366-.813,2.062a22.386,22.386,0,0,1,7.313-7.483,31.834,31.834,0,0,1,20.271-7.48,36.816,36.816,0,0,1,14.055,3.292,15.62,15.62,0,0,0,.359,5.955,15.7,15.7,0,0,1,2.489-9.666,19.171,19.171,0,0,1,1.018-2.051,35.649,35.649,0,0,1,15.19-14.343c6.931-3.4,14.763-3.405,21.977-.938a39.359,39.359,0,0,1,3.938,1.525.221.221,0,0,1-.023.068c.227.083.446.163.67.242v0c.038.015.068.049.125.053.306.14.628.276.927.427a43.258,43.258,0,0,1,3.886,1.986,15.921,15.921,0,0,0-3.8-3.136c-.2-.129-.409-.235-.6-.363a39,39,0,0,1,2.126-3.515,21.883,21.883,0,0,1,13.268-9.277,25.272,25.272,0,0,1,8.376-.776c2.713.238,4.907,1.464,7.256,2.777,3.92,2.172,6.167,5.891,7.419,9.98a9.215,9.215,0,0,1,.605,1.574,18.2,18.2,0,0,1,1.32,4.177.615.615,0,0,0,.291-.484c-.03-.7-.08-1.4-.136-2.1a34.273,34.273,0,0,1,3.98-1.752c5.872-2.172,12.372-1.774,18.285-.026,5.448,1.623,10.945,4.96,13.794,10.011a20.128,20.128,0,0,1,2.38,6.749c-2.871.87-6.144,2.444-7.782,4.812a18.778,18.778,0,0,1,12.962-4.181,39.675,39.675,0,0,1,9.734,1.018c7.434,1.691,14.577,4.907,16.893,12.814C542.892,259.039,536.657,266.462,529.975,270.287Z" transform="translate(990.948 1457.824)" fill="#fff"/><g transform="translate(184.157 995.726)"><g transform="translate(0 54.464)"><path d="M860.932,1026.031c8.629-3.848.885-18-7.082-15.623,0,0,2.416-6.163-1.815-11.347s-12.421-3.438-15.413-5.582-3.983-7.748-9.5-8.228-14.607,4.925-17,1.966-6.829-11.034-11.948-9.969-10.716.894-13.535-1.06-1.738-15.659-15.319-17.924-18.039,1.5-21.567-2.894,2.553-11.513-3.279-12.923-3.067-9.142-7.838-7.877-1.236-10.194-9.259-11.984-13.067,1.247-13.067,1.247,22.538-27.753-8.14-41.509-36.182,13.179-39.129,14.1c0,0-4.789-13.432-15.837-8.293s-7.39,16.244-7.39,16.244-3.29-9.69-13.135-9.712-5.661,8.435-9.374,8.557-5.965-11.018-12.274-9.926-11.322,2.342-14.519-4.006-4.238-14.729-12.623-13.13-13.065,2.346-19.856-2.8-7.395-10.232-13.792-8.872-9.3-2.513-9.3-2.513,2.635-31.836-23.72-35.558-34.873,10.478-41.9,3.375-1.389-16.366-17.023-18.142,23.538-32.387-14.582-44.238c0,0,27.911-27.834-1.434-47.429s-48.99-2.9-48.99-2.9-10.333-17.8-22.358-10.011c0,0,2.182-19.858-13.425-30.879s-29.73-5.163-29.73-5.163,9-13.961-12.175-21.563-26.244,5.638-26.244,5.638-23.243-24.794-33.754-4.693-19.807-1.065-30.131,3.157-11.655,20.714-11.655,20.714-2.4-9.41-14.058-9.286-15.632,11.353-15.632,11.353-14.785-16.418-29.928-10.3a24.753,24.753,0,0,0-15.88,20.419s.786-2.876-11.552-6.753-9.852,10.318-9.852,10.318.516-13.657-21.793-18.494-24.362,12.2-39.084,7.848S36.588,657.7,18.653,655.051-3.8,661.964-3.8,661.964s-9.5-14.609-20.933-2.623c0,0-6.116-16.42-24.371-9.685s-13.765,21.788-13.765,21.788-11.1-12.6-20.4-2.626S-85.244,690.1-85.244,690.1s-10.743-14.306-17.032-6.247-19.264-2.245-20.115,3.563-16.809.281-18.2,8.766,28.8,13.923,26.794,20.658,15.247,14.515,15.247,14.515S-100.167,743-85.408,747.376s20.187-5.213,20.187-5.213-2.788,21.142,30.984,27.821,33.43-19.865,33.43-19.865S.828,772.8,21.38,773.821s26.778-6.859,26.778-6.859-8.431,33.027,38.857,51.451,65.349,10.847,65.349,10.847-.874,19.883,27.111,28.066,42.752.058,42.752.058,10.723,27.9,34.531,31.734,33.218-7.715,33.218-7.715,10.921,24.128,33.324,12.09c0,0-.937,12,23.385,13.069s9.2,1.691,28.269,9.62,35.015,2.518,35.015,2.518,5.747,22.07,34.907,23.743,23.659-21.905,23.659-21.905,10.849,14.715,24.513,3.213c0,0-3.283,21.939,22.97,26.819s32.369-5.873,32.369-5.873-3.177,25.044,26.535,21.923c0,0-7.83,13.031,15.017,17.55,0,0,9.878,15.776,28.526,11.126s14.024-18.935,14.024-18.935,5.161,12.342,15.132,3.628c0,0-5.641,20.18,16.19,20.633s27.118-9.89,34.229-1.626,25.6,9.027,25.6,9.027-3.916,10.7,16.078,16.839a50.494,50.494,0,0,0,35.774-2.168s3.871,11.808,18.786,6.681,17.283-9.036,17.283-9.036,2.5,11.813,21.369,10.838,18.19-7.264,18.19-7.264S853.684,1029.262,860.932,1026.031Z" transform="translate(140.635 -642.547)" fill="#fff"/><g transform="translate(0 38.843)"><path d="M-19.253,678.135s-.106-.84-.133-1.275Z" transform="translate(292.411 -638.438)" fill="#ededed"/><path d="M213.741,785.958l.032-.059Z" transform="translate(584.234 -501.944)" fill="#ededed"/><path d="M122.559,752.205s.045-.264.077-.4Z" transform="translate(470.094 -544.628)" fill="#ededed"/><path d="M-55.662,667.516a20.063,20.063,0,0,1-5.645-5.913A76.622,76.622,0,0,1-55.662,667.516Z" transform="translate(239.935 -657.536)" fill="#ededed"/><path d="M-140.588,674.584c1.387-8.485,17.343-2.959,18.2-8.766s13.826,4.5,20.115-3.562c2.9-3.711,6.726-2.673,10.025-.479-10.349-2.711-4.339,7.543-4.339,7.543s-12.614-3.837-7.838,10.482,14.8,9.223,14.8,9.223c4.452,17.706,23.049,14.925,23.049,14.925,13.911,14.193,22.943.766,22.943.766,13.63,1.3,11.11-12.482,11.11-12.482,10.793,4.693,11.333-1.419,11.333-1.419-12.952-3.79-12.5-17.26-12.5-17.26,4.506,15.916,23.36,13.927,23.36,13.927-.27,10.424,9.208,10.266,9.208,10.266s-17.125,7.879,2.092,13.943,12.446-19.962,12.446-19.962,5.551,9.924,13.056,9.3,7.127-8.769,7.127-8.769,5.542,4,15.206-2.882c6.161-4.386.05-13.531-5.159-19.6,9.548,6.7,23.569,5.85,23.569,5.85-.946,13.434,9.917,13.709,9.917,13.709-8.086,6.312,2.626,18.219,2.626,18.219s-17.023,5.2-9.615,23.268S90.617,746.2,90.617,746.2s-9.428,6.271,5.285,20.464,29.692,4.625,29.692,4.625c-4.305,12.878,16.94,22.779,23.689,20.8s4.091-7.145,3.324-14.909,9.865-7.838,9.865-7.838c3.983-8.016-8.462-14.038-8.462-14.038,3.6-28.505-30-28.751-30-28.751,10.133-2.486,8.512-27.062,8.512-27.062l30.151,25.114c4.681,21.32,32.475,16.954,32.475,16.954-13.873,8.841,1.714,26.3,1.714,26.3-19.976,36.78,23.439,42.962,23.439,42.962-3.594,23.029,26.276,29.687,26.276,29.687,15.305,14.934,27.195,3.461,27.195,3.461-6.949-6.546,2.387-13.538,2.387-13.538-11.41-9.347-5.161-25.245-5.161-25.245,1.272,17.307,23.948,22.367,23.948,22.367-7.631,23.6,14.366,18.895,14.366,18.895,11.934,16.379,17.87,4.447,17.87,4.447,22.4,7.17,23.344-8.919,23.344-8.919,16.213,6.636,22.374-5.24,22.374-5.24C366.926,864.143,397.019,856,397.019,856s-20.892,15.792,15.886,22.984c33.608,6.571,39.113-11.612,39.113-11.612l12.133,7.688c11.583-12.669-17.323-21.572-17.323-21.572,25.56,8.771,43.865-18.958,43.865-18.958-7.307,22.077,6.559,24.234,6.559,24.234-12.8,18.413,6.42,20.924,6.42,20.924,6.188,20.437,25.765,14.029,25.765,14.029s10.241,9.016,19.4.75-2.223-17.57-2.223-17.57c11.883,10.272,31.6,1.725,31.6,1.725-10.313,8.78-.155,15.654-.155,15.654s-13.2,10.8-4.594,15.621,12.452.245,12.452.245,7.663,8.161,20.631,3.655,3.74-13.042,3.74-13.042c17.667,15.251,33.993,9.113,33.993,9.113s-12.936,4.591-10.833,16.382,12.475,6.1,12.475,6.1-14.051,8.336-4.6,16.431c9.1,7.791,16.012-4.97,16.012-4.97s-6.852,14.245,14.569,20.1c22.23,6.071,25.9-10.655,25.9-10.655-4.2-4.889-6.3-7.334-10.478-12.232,12.587,13.583,34.977,4.717,34.977,4.717-3.445,14.724,11.358,15.537,11.358,15.537-1.75,13.141,12.709,13.821,12.709,13.821s-13.855,14.652,2.042,16.431,15.429-7.917,15.429-7.917,12.806,8.964,23.542,7.85,11.644-6.505,11.644-6.505a16.63,16.63,0,0,0,10.975,8.039c7.926,1.777,10.824-1.56,10.824-1.56s-3.243,6.456,10.968,9.964,14.519-8.352,14.519-8.352,8.552,9.775,12.7,6.3c1.867-1.565,2.709-4.546,3.076-7.357,3.254,3.923,4.1,10.1-1.169,12.45-7.246,3.231-9.809-2.119-9.809-2.119s.676,6.289-18.19,7.264-21.372-10.838-21.372-10.838-2.367,3.911-17.28,9.036-18.786-6.681-18.786-6.681a50.493,50.493,0,0,1-35.774,2.168c-19.994-6.134-16.078-16.839-16.078-16.839s-18.487-.761-25.6-9.028-12.4,2.079-34.229,1.626-16.19-20.633-16.19-20.633c-9.971,8.714-15.132-3.628-15.132-3.628s4.625,14.285-14.024,18.935-28.526-11.126-28.526-11.126c-22.847-4.517-15.017-17.55-15.017-17.55-29.712,3.121-26.535-21.923-26.535-21.923s-6.116,10.752-32.369,5.873-22.97-26.819-22.97-26.819c-13.664,11.5-24.513-3.213-24.513-3.213s5.5,23.578-23.659,21.905-34.907-23.743-34.907-23.743-15.949,5.413-35.015-2.518-3.947-8.546-28.269-9.62S323.3,871.9,323.3,871.9c-22.4,12.038-33.324-12.09-33.324-12.09s-9.412,11.543-33.218,7.715-34.531-31.734-34.531-31.734-14.767,8.124-42.752-.059-27.111-28.066-27.111-28.066S134.3,815.243,87.015,796.82s-38.857-51.451-38.857-51.451-6.224,7.877-26.778,6.859-22.187-23.7-22.187-23.7.345,26.546-33.43,19.865S-65.221,720.57-65.221,720.57s-5.429,9.588-20.187,5.213-13.139-16.026-13.139-16.026-17.249-7.78-15.247-14.515S-141.975,683.071-140.588,674.584Z" transform="translate(140.635 -659.797)" fill="#ededed"/></g><path d="M65.879,789.129s15.639-28.845,50.735-13.977c0,0,7.82-8.318,16.686-3.24,0,0-11.527-15.211,5.751-17.194,0,0,4.49-18.618,26.711-3.869,0,0-4.751-10.73-25.132-14.141,0,0-9.788-18.469,5.688-22.11,0,0-4.985-17.976,9.12-19.35-7.377-2.414-11.061-3.63-18.422-6.075,0,0-4.24,14.977-15.733,8.395,0,0-1.524,17.546-18.973,12.184,0,0-.043,8.2-11.1,6.622,0,0,17.69,11.3,10.408,22.858,0,0-4.576,5.224-9.935-3.355,0,0,5.8,7.375-5.51,11.124,0,0-5.28,13.488-17.737-3.389,0,0,5.438,6.791-1.849,17.985A45.039,45.039,0,0,1,65.879,789.129Z" transform="translate(399.143 -584.182)" fill="#ededed"/><g transform="translate(334.307 10.444)"><path d="M38.359,715.344c-1.007,1.414-1.725,2.223-1.725,2.223C37.213,716.787,37.787,716.053,38.359,715.344Z" transform="translate(28.228 -561.866)" fill="#ededed"/><path d="M52.915,710.557a26.676,26.676,0,0,1-3.628-1.128A13.948,13.948,0,0,1,52.915,710.557Z" transform="translate(44.067 -569.27)" fill="#ededed"/><path d="M7.829,712.074S35.6,707.766,30.772,688.12c0,0,9.286-10.383-4.8-19.647,0,0,1.331-16.494,11.655-20.714,2.9-1.187,5.7-.369,8.482.971-.011,0-12.07-1.423-10.613,10.745,0,0,12.484,4.715,10.734,12.351,0,0,13.7-1.5,18.255,8.473,0,0-11.946,9.966,7.044,19.7,0,0-15.5-5.726-19.088,8.4S67.13,720.993,67.13,720.993s-4.118,11.189,8.19,12.362,23.3-4.794,23.3-4.794.327,8.3,8.588,9.906c0,0-11.682,9.363,1.853,18,0,0-10.971,2.707-4.717,13.162,0,0-11.61-6.359-13.346,4.582C89.8,781.7,96.7,785.619,101.183,787.344c-5.265-.977-15.587-.491-26.767,13.319,4.332-6.078,13.959-23.346-4.549-35.785,0,0,5.512-24.225-23.137-38.168C46.731,726.711,44.13,708.744,7.829,712.074Z" transform="translate(-7.829 -647.185)" fill="#ededed"/></g><path d="M53.87,707.674s11.709,5.8,10.894-12.063c0,0,18.19-8.942,10.259-23.272,0,0,18.239,9.142,21.036-5.229,0,0-6.048,12.7,3.835,18.868,0,0-11.934-.3-4.06,11.741,0,0-13.123-9.5-12.308,2.295-1.545-4.371-2.315-6.555-3.851-10.926a24.959,24.959,0,0,1-9.226,9.079S69.569,719.3,53.87,707.674Z" transform="translate(384.111 -611.799)" fill="#ededed"/></g><g transform="translate(103.52 275.362)"><path d="M-88.517,762.508s-11.574-8.467-2.95-16.634,17.785,7.523,17.785,7.523,1.155-5.413,10.056-4.046,10.417,8.28,10.417,8.28,1.747-18.118,18.895-16.929,19.07,14.882,19.07,14.882.351-10.419,13.853-6.523c0,0,2.214-12,15.625-5.051s6.427,15.864,6.427,15.864a11.993,11.993,0,0,1,8.491,4.159c3.938,4.294-1.1,10.5-1.1,10.5s8.428-13.4,27.638-5.523,10.469,15.355,10.469,15.355,14.8-6.357,15.636,11.84c0,0,3.438-9.541,18.712-4.932s11.1,16.2,11.1,16.2,4.04-1.975,7.291,4.272.387,10.216.387,10.216,5.62-3.722,9.039,5.28c0,0,8.836-4.866,13.943,5.118,0,0,13.353,5.632,6.289,11.18,0,0,12.466-.511,11.031,7.464s-15.4.61-15.4.61.66,9.912-9.507,5.429-9.782-11.711-9.782-11.711-3.08,18.267-23.515,12.594S84.3,839.877,84.3,839.877s-11.371,22.982-40.016,13.891-25.731-31.851-25.731-31.851S10.1,829.15-1.835,820.1s-8-17.28-8-17.28-6.051,5.42-20.541-.469-9.64-16.093-9.64-16.093S-50.8,794.792-60.16,785.8s-7.057-15.127-7.057-15.127-4.952,4.63-12.864.91S-88.517,762.508-88.517,762.508Z" transform="translate(94.665 -740.646)" fill="#fff"/><path d="M127.965,831.975c-10.128-6.564-9.523,2.09-9.523,2.09C94.573,840.316,82.81,827.3,82.81,827.3c-13.74,9.714-18.555-3.918-18.555-3.918s-4.54,15.936-24.533,10.509S26,811.329,26,811.329C.532,808.778-3.643,791.34-3.643,791.34c-22.315-.858-19.44-12.209-19.44-12.209-13.373-2.164-14.686-11.68-14.686-11.68-9.009,3.722-15.53-4-15.53-4a6.277,6.277,0,0,1-6.037,4.76c-4.967.045-4.859-6.949-4.859-6.949-14.522,3.794-18.226-5.769-18.226-5.769-7.733-1.774-10.583-6.519-11.389-11.169-3.583,7.093,5.3,13.583,5.3,13.583s.52,5.355,8.435,9.075,12.864-.91,12.864-.91-2.3,6.138,7.057,15.127,20.149.453,20.149.453-4.853,10.205,9.64,16.093,20.541.468,20.541.468-3.938,8.224,8,17.28,20.383,1.822,20.383,1.822-2.912,22.761,25.731,31.851S84.3,835.274,84.3,835.274s-3.344,12.373,17.093,18.046,23.515-12.594,23.515-12.594-.383,7.226,9.782,11.712,9.507-5.429,9.507-5.429,13.961,7.366,15.4-.61-11.031-7.465-11.031-7.465c7.064-5.548-6.289-11.18-6.289-11.18-5.1-9.984-13.943-5.118-13.943-5.118C121.034,823.516,127.965,831.975,127.965,831.975Z" transform="translate(94.662 -736.043)" fill="#ededed"/><path d="M-22.065,797.809s6.278-11.671-9.363-17.789c0,0-1.16-10.216-9.246-12.006,0,0,13.256,2.414,17.436-4.787,0,0,9.383,2.727,13.364-2.232,0,0-5.379,9.543,3.058,11.637,0,0,2.619,11,11.835,4.555,0,0,5.661,12.6,14.168,12.117,0,0,8,8.12,16.138,6.087,0,0-10.408,5.217-17.107-.034,0,0-13.358-2.067-16.821-9.259,0,0-4.582,1.621-4.654,9.016C-3.256,795.114-14.772,789.685-22.065,797.809Z" transform="translate(162.243 -715.174)" fill="#ededed"/></g><g transform="translate(1266.811 534.502)"><path d="M436.325,934.649s-17.827-.988-13.779-12.477,23.867-3.121,23.867-3.121-2.2-5.183,8.206-8.784,16.424,1.417,16.424,1.417-9.617-16.208,9.511-24.4,29.832,2.3,29.832,2.3-6.2-8.96,10.7-12.95c0,0-5.181-11.293,13.535-12.68s16.857,9.876,16.857,9.876a18.246,18.246,0,0,1,11.689-1.1c6.911,1.479,5.452,9.419,5.452,9.419s.561-15.814,26-19.638,20.813,7.19,20.813,7.19,11.748-13.393,24.094,1.4c0,0-2.338-9.863,16.792-14.364s21.964,7.478,21.964,7.478,3.047-3.868,10.423-.432,6.843,8.327,6.843,8.327,3.609-6.194,12.9-.561c0,0,6.294-8.924,17.987-3.407,0,0,17.667-2.673,13.7,5.855,0,0,12.846-7.314,16.364.124s-15.88,9.018-15.88,9.018,6.972,7.9-6.611,9.771-17.757-4.375-17.757-4.375,8.336,16.947-16.893,23.441-29.568-5.7-29.568-5.7,2.614,25.461-33.574,33.473-47.666-12.675-47.666-12.675-4.362,10.653-22.853,9.509S546.158,926.4,546.158,926.4s-2.984,7.829-22.2,10.678-20.565-8.356-20.565-8.356-6.066,12.986-21.822,10.426-17.213-8.974-17.213-8.974-2.34,6.553-13.191,7.636S436.325,934.649,436.325,934.649Z" transform="translate(-421.948 -855.729)" fill="#fff"/><path d="M713.945,873.649c-14.864.1-8.759,6.985-8.759,6.985-21.318,18.345-42.045,13.893-42.045,13.893-8.413,15.641-22.173,6.863-22.173,6.863s5.332,15.823-19.359,22.164-28.96-11.435-28.96-11.435c-28.715,11.678-44.286-.734-44.286-.734-24.344,11.329-28.516.216-28.516.216-15.659,5.377-23.126-1.939-23.126-1.939-7.267,7.971-19.158,4.954-19.158,4.954s1.858,4.549-3.427,7.244S464.5,918.6,464.5,918.6c-13.13,10.962-23.2,4.859-23.2,4.859-9.417,2.625-15.506.133-19.338-3.366.682,7.9,14.351,8.651,14.351,8.651s3.983,4.247,14.837,3.162,13.191-7.636,13.191-7.636,1.459,6.413,17.213,8.974,21.822-10.426,21.822-10.426,1.344,11.2,20.566,8.356,22.2-10.678,22.2-10.678,1.056,9.043,19.545,10.187,22.851-9.509,22.851-9.509,11.48,20.689,47.668,12.675,33.574-33.473,33.574-33.473,4.339,12.189,29.568,5.7,16.893-23.441,16.893-23.441,4.175,6.244,17.758,4.375,6.611-9.771,6.611-9.771,19.4-1.578,15.879-9.018-16.364-.124-16.364-.124c3.966-8.527-13.7-5.855-13.7-5.855-11.691-5.517-17.987,3.407-17.987,3.407C701.268,870.4,713.945,873.649,713.945,873.649Z" transform="translate(-421.934 -849.827)" fill="#ededed"/><path d="M530.575,902.257s-.725-13.182-21.254-9.818c0,0-7.706-7.935-17.458-5.055,0,0,15.643-5.168,15.549-13.479,0,0,11.709-2.813,12.824-9.138,0,0,.3,10.932,10.6,8.093,0,0,9.737,7.793,15.463-2.637,0,0,13.977,7.46,22.707,2.4,0,0,13.619,2.418,20.969-3.749,0,0-7.739,10.07-18.172,9.343,0,0-15.492,5.575-23.72,1.443,0,0-3.848,3.86.766,10.088C548.846,889.75,533.161,891.484,530.575,902.257Z" transform="translate(-334.431 -844.415)" fill="#ededed"/></g><g transform="translate(1379.932 170.911)"><path d="M1317.506,800.915c-7.674,15.522-12.763,25.621-24.4,22.052s-11.57,18.935-25.776,17.215-8.147,18.174-25.932,20.133-28.8-24.938-34.952-17.8c0,0,5.211,27.388-24.215,37.981s-58.508,11.065-77.72-5.24c0,0-.435,15.317-14.278,13.986s-.266,21.029-27.994,28.692-50.9-1.527-50.9-1.527,6.251,20.608-20.327,30.572-37.08-7.748-53.439-3.342-20.077,17.886-38.429,15.179-26.825-8.546-26.825-8.546,6.033,12.428-2.817,15.172a15.157,15.157,0,0,1-14.56-2.7s9.728,8.422-1.54,18.208-59.692,18.487-58.078-.268c0,0-4,9.4-16.364,8.82s-6.816-10.313-6.816-10.313-8.881,13.434-17.625,8.018c0,0,.595,13.272-10.932,13.9,0,0,4.116,17.023-30.545,21.137s-41.55-19.242-41.55-19.242-4.258,9.3-14.438,1.542c0,0-6.163,12.639-19.527,14.369s-16.638-13.4-16.638-13.4-2.308,11.313-14.047,10.669c0,0,3.243,7.755-11.369,11.083s-27.931-2.515-20.759-16.177c0,0-9.615,12.155-19.6,9.59a31.128,31.128,0,0,1-15.639-9.885s1.488,15.488-19.746,14.373-11.975-13.083-11.975-13.083-12.133,5.071-16.337-.574-11.9,3.52-17.6-1.883,4.366-12.972,19.088-9.651c0,0-6.49-15.008,14.666-13.367,0,0-2.815-14.67,16.321-15.2s14.927,7.089,14.927,7.089,9.162-13.97,21.1-3.936c0,0-2.36-14.26,16.945-18.971s27.483,2,27.483,2-.151-12.9,18.44-11.176c0,0-5.519-13.565,8.289-16.895,0,0-7.016-31.813,45.2-29.775,0,0,1.315-14.592,17.375-12.2,0,0-2.758-18.611,22.378-21.333,0,0-4.019-27.58,43.358-27.4,0,0,18.019-16.208,36.981-.473,0,0-.194-18.813,19.667-9.84,0,0-9.757-15.943,8.082-22.443a31.849,31.849,0,0,1,30.446,4.166s-17.181-22.4,8.615-40.676,49.069-6.2,49.069-6.2,10.423-13.889,22.777-1.3c0,0,8.742-12.475,21.092-5.447,0,0-4.454-22.3,19.32-21.894,0,0-10.865-24.632,19.077-28.971S1036.081,724,1036.081,724s24.373-27.184,48.24.227c0,0,8.016-13.659,24.161-5.654,0,0,22.32-44.754,57.776-12.831s-6.71,60.724-6.71,60.724,23.276-.072,20.982,14.938-28.593,17.521-28.593,17.521,16.039,4.931,13.54,14.891c0,0,12.835-9.3,20.12,1.013,0,0,19.018-12.95,34.4,4.794,0,0,3.182-13.808,17.6-11.09s21.815-12.639,34.252-3.691,15.891-9.692,25.242-6.359S1321.832,792.167,1317.506,800.915Z" transform="translate(-472.185 -694.26)" fill="#fff"/><g transform="translate(0 106.035)"><path d="M779.95,751.425a12.172,12.172,0,0,1,1.239-.63S780.743,751.038,779.95,751.425Z" transform="translate(-86.932 -729.527)" fill="#ededed"/><path d="M497.987,829.564a7.523,7.523,0,0,1,0-1.606A8.227,8.227,0,0,1,497.987,829.564Z" transform="translate(-439.938 -632.935)" fill="#ededed"/><path d="M800.833,756.546a10.226,10.226,0,0,1,1.563-1.155S801.828,755.871,800.833,756.546Z" transform="translate(-60.791 -723.774)" fill="#ededed"/><path d="M904.108,741.35c-.083.2-.171.4-.281.619-7.676,15.517-12.763,25.621-24.4,22.052s-11.57,18.935-25.776,17.215-8.147,18.174-25.932,20.133c-10.629,1.171-18.863-7.967-25.055-13.984,19.487,1.959,17.084-9.052,17.084-9.052,16.819.081,20.714-14.844,20.714-14.844,13.324,8.687,28.692-4.513,28.692-4.513,8.084,2.245,12.32-6.012,12.32-6.012A28.326,28.326,0,0,0,904.108,741.35Z" transform="translate(-58.506 -741.35)" fill="#ededed"/><path d="M487.97,824.929a10.973,10.973,0,0,1-.137-1.5A10.875,10.875,0,0,1,487.97,824.929Z" transform="translate(-452.597 -638.61)" fill="#ededed"/><path d="M492.892,935.378s-6.49-15.008,14.666-13.367c-13.414,1.254-9.539,8.185-5.186,11s7.269-1.882,7.269-1.882-6.987,11.709,7.516,10.91c10.941-.6,12.815-6.744,13.076-9.719.272,2.8,2.178,8.1,12.952,5.891,14.4-2.954,12.338-11.568,12.338-11.568,5.589,10.324,16.814,4.308,16.814,4.308,1,14.18,12.27,11.423,12.27,11.423,2.31,4.947,10.376,5.181,11.561-1.342s-7.289-5.774-7.289-5.774c7.4-8.926-7.079-20.2-7.079-20.2,6.517,5.33,16.571.065,16.571.065-2.617-9.377,6.6-13.9,6.6-13.9s-7.212,11.025.552,11.583a14.2,14.2,0,0,0,11.79-4.452c5.1,13.373,17.4,8.181,17.4,8.181s-5.629,13.765,7.19,12.337,5.449-12.833,5.449-12.833,6.832,6.093,10.5-.381-5.87-12-5.87-12c10.117,3.9,13.38-.1,13.38-.1,10.518,15.515,23.718,7.269,23.718,7.269s-.538,11.574,15.112,8.455,6.839-13.243,6.839-13.243c18.816.971,17.206-9.856,17.206-9.856,17.2.959,13.184-11.725,13.184-11.725,5.424-6.667-2.065-8.545-2.065-8.545,7.174-.694,8.651-3.824,8.651-3.824-3.2-9.223,6.316-12.022,6.316-12.022-6.933,5.53,2.587,10.57,2.587,10.57s-6.857,11.25,4.211,17.138,15.028-.187,15.028-.187-3.1,9.5,9.032,7.843,13.227-12.524,13.227-12.524-.034,10,10.716,9.216,13.376-9.309,13.376-9.309,5.938,7.94,13.592,2.711,4.868-14.547,4.868-14.547,7.629,9.316,12.673-.752-7.692-12.013-7.692-12.013c18.28-15.812-6.161-22.1-6.161-22.1-5.391,1.353-4.5,8.4-4.5,8.4-4.562-10.074-19.753-8.435-19.753-8.435,25.319-5.62,18.87-20.444,18.87-20.444,9.027,19.865,25.109,8.2,25.109,8.2s-.844,12.36,4.844,10.9,1.894-9.595,1.894-9.595,14.432,6,23.4-2.13-.941-17.388-.941-17.388,16.2,5.449,19.829-1-2.547-10.277-2.547-10.277c7.866,3.071,20.144-2.083,20.144-2.083-15.906,9.2-4.168,20.322-4.168,20.322-15.886,10.685-.921,20.653-.921,20.653s-11.2-.961-6.692,9.4,13.3,3.742,13.3,3.742c4.961,8.41,13.765,2.977,13.765,2.977,6.321,18.7,18.865,7.035,18.865,7.035s-1.063,9.759,8.976,6.3,5.647-10.66,5.647-10.66c15.567-5.562,10.016-14.416,10.016-14.416,9.964-4.641-2.058-11.335-2.058-11.335,23.779-7.014,14.864-23.794,14.864-23.794-10.466.554-9.212-7.152-9.212-7.152-14.506-.144-17.118-7.985-17.118-7.985,12.826,7.688,21.91-.727,21.91-.727-3.855,9.671,9.928,12.75,9.928,12.75s-.182,10.155,7.552,14.351,16.906-1.853,16.906-1.853-.689,11.545,8.133,11.714,9.014-9.71,9.014-9.71c13.47,3.677,12.964-14.6,12.964-14.6s7.839,14.558,20.135,3.137-6.132-19.345-6.132-19.345c12.6-13.355-13.2-16.28-13.2-16.28,22.8-14.569-8.347-17.444-8.347-17.444,21.516-10.171,28.312,5.215,28.312,5.215-6.467,13.06,13.738,12.689,13.738,12.689,5.332,15.587,16.179,6.978,16.179,6.978s-11.574,25.5,8.509,20.14,5.866-17.87,5.866-17.87c13.713-2.783,10.818-15.461,10.818-15.461,11.227,5.6,27.035-1.252,31.518-3.445-8.947,5.184,4.375,15.357,4.375,15.357-14.351,7.769-1.66,18.284-1.66,18.284s-9.649,6.406,1.72,8.96,9.766-5.082,9.766-5.082c19.259-2.263,12.93-13.038,12.93-13.038,11.534-1.765,4.612-9.451,4.612-9.451,6.582.993,12.556-2.315,15.281-4.157-2.914,2.617-2.754,5.956-1.923,8.561a3.093,3.093,0,0,0-3.862.887s5.211,27.388-24.215,37.981-58.508,11.065-77.72-5.24c0,0-.435,15.317-14.278,13.986s-.266,21.029-27.994,28.692-50.9-1.527-50.9-1.527,6.251,20.608-20.327,30.572-37.08-7.748-53.439-3.342-20.077,17.886-38.429,15.179-26.825-8.546-26.825-8.546,6.033,12.428-2.817,15.172a16.267,16.267,0,0,1-14.49-2.632s9.12,8.827-1.61,18.145c-11.266,9.784-59.692,18.487-58.078-.268,0,0-4,9.4-16.364,8.82s-6.816-10.313-6.816-10.313-8.881,13.434-17.625,8.019c0,0,.595,13.272-10.932,13.9,0,0,4.116,17.023-30.545,21.137s-41.55-19.242-41.55-19.242-4.258,9.3-14.438,1.542c0,0-6.163,12.639-19.527,14.369s-16.638-13.4-16.638-13.4-2.308,11.313-14.047,10.669c0,0,3.243,7.755-11.369,11.083s-27.931-2.515-20.759-16.177c0,0-9.615,12.155-19.6,9.59a31.128,31.128,0,0,1-15.639-9.885s1.488,15.488-19.746,14.373-11.975-13.083-11.975-13.083-12.133,5.071-16.337-.574-11.9,3.519-17.6-1.883S478.17,932.057,492.892,935.378Z" transform="translate(-472.185 -735.693)" fill="#ededed"/></g><path d="M749.926,760.722s15.753,1.4,13.616-9.908c0,0,.009-7.109,9.142-8.906,0,0-8.881-5.773.392-10.622s12.792,2.256,12.792,2.256-3.468-6.931,4.317-8.055c0,0-12.216-2.9-12.245-10.016,0,0-9.73,12.891-23.817,7.622,0,0,8.482,8.181-2.353,14.222,0,0,6.841,1.954,6.65,6.134s-7.969,1.765-7.969,1.765S762.347,756.081,749.926,760.722Z" transform="translate(-124.515 -667.707)" fill="#ededed"/><path d="M715.665,770.109s10.245-9.649,18.147-5.262c0,0-6.528-8.872.342-14.234,0,0-18.6,8.755-24.18.331s4.7-11.385,4.7-11.385-13.948-.441-14.751-10.98c0,0,.144,12.225-10.977,13.524,0,0,12.849-.689,9.433,9.935C698.374,752.039,720.648,755.673,715.665,770.109Z" transform="translate(-200.855 -651.3)" fill="#ededed"/><g transform="translate(158.566 137.21)"><path d="M616.148,761.043a17.943,17.943,0,0,1,.849-5.03A19.287,19.287,0,0,1,616.148,761.043Z" transform="translate(-450.541 -754.17)" fill="#ededed"/><path d="M589.908,833.354c-35.162-6.242-46.99,19.894-46.99,19.894s-7.019-31.813,45.2-29.775c0,0,1.313-14.592,17.373-12.2,4.053,9.331,11.374,4.436,11.374,4.436-6.771-9.322,6.15-14.549,6.15-14.549-1.311-4.335,4.855-11.221,4.855-11.221s-4.019-27.58,43.358-27.4c0,0,18.019-16.208,36.981-.473-22.293-5.569-41.284,10.667-41.284,10.667-10.406-.482-15.576,8.041-15.576,8.041-14.134,1.446-16.127,10.667-16.127,10.667-7.847.691-6.836,11.437-6.836,11.437-10.836,4.278-3.425,14.677-3.425,14.677-.525,2.988-.786,4.481-1.31,7.469,4.846,7.555,12.9,4.191,12.9,4.191s-5.362,11.47,5.74,11.146,12.092-8.991,12.092-8.991c11.955,1.646,14.853-8.575,14.853-8.575-1.371,8.53,9.937,9.039,9.937,9.039,9.525-11.412-8.568-17.568-8.568-17.568,15.927,3.826,22.151-5.247,22.151-5.247-4.965,12.425,5.512,21.95,5.512,21.95-13.076-1.274-15.6,10.311-15.6,10.311-11.07-2.529-16.492,7.127-16.492,7.127-8.957-12.61-26.073,3.8-26.073,3.8-13.36,2.29-10.534,12.614-10.534,12.614-21.635.516-14.645,13.481-14.645,13.481-15-12.79-35.029-.838-35.029-.838,7.361-7.109,11.029-10.673,18.336-17.811,16.2-1.687,11.2-11.581,11.2-11.581,17.512-7.505,2.054-17.636,2.054-17.636C599.282,822.528,589.908,833.354,589.908,833.354Z" transform="translate(-542.603 -755.195)" fill="#ededed"/></g></g><g transform="translate(395.302 389.913)"><path d="M540.065,964.743s-.734-9.933-19.165-7.037c0,0,.73-10.056-14.461-11.077,0,0,2.157-10.142-17.5-19.849S454,926.12,454,926.12s6.523-12.743-12.3-27.147-52.624-18.161-52.624-18.161,5.87-7.728-9.289-12.952S363.557,875,363.557,875a14.006,14.006,0,0,0-7.507-13.972s16.292-16.546-40.293-33.463-55.482,9.1-55.482,9.1-.953-5.5-9-6.6c0,0,5.454-16.213-21.068-26.578s-44.389,2.6-39.21,13.878c0,0-1.106-18.742-33.211-23.322s-19.46,22.554-19.46,22.554-9.311-13.189-19.2-11.324-4.866,13.155-4.866,13.155S89,785.817,53.76,792.394s1.851,41.863,3.569,46.418c3.026,8.032,13.619,58.305,44.5,64.8,0,0-2.245,9.8,16.1,16.909s18.746-3.769,18.746-3.769-20,20.68,14.089,34.664,52.752.275,52.752.275,5.7,14.655,28.3,14.038,25.015-9.867,25.015-9.867,36.064,32.043,49.9,9.672c0,0,43.16,3.9,46.33,2.871,6.08-1.977,58.53,29.559,82.764,13.79,28.884-18.8,14.087-32.806,14.087-32.806s24.538,17.618,36.648,9.96c0,0-.829,7.746,11.788,8.126s13.157-6.5,13.157-6.5S532.407,974.529,540.065,964.743Z" transform="translate(-30.278 -791.518)" fill="#fff"/><g transform="translate(0 0.872)"><path d="M82.356,813.187c1.279.1,2.081.2,2.081.2C83.721,813.333,83.032,813.263,82.356,813.187Z" transform="translate(24.466 -765.265)" fill="#ededed"/><path d="M544.7,964.258c-7.658,9.786-28.55-3.774-28.55-3.774s-.54,6.881-13.157,6.5-11.788-8.124-11.788-8.124c-11.682,7.388-36.551-9.892-36.551-9.892s13.4,14.787-14.184,32.739c-24.234,15.769-58.69,1.849-82.764-13.79-8.6,22.425-46.33-2.871-46.33-2.871-13.837,22.371-49.9-9.672-49.9-9.672s-2.412,9.253-25.015,9.867-28.3-14.038-28.3-14.038-18.66,13.707-52.752-.275c-23.423-9.608-21.266-22.41-17.67-29.442-2.639,1.322-7.224,1.623-15.166-1.452-18.35-7.111-16.1-16.909-16.1-16.909-30.879-6.494-63.345-32.076-44.5-64.8-31.721-10.766-38.8-39.843-3.569-46.418l.02,0c-10.905,8.192-17.264,20.577,15.5,32.5,0,0-10.282,7.915.871,16.69,0,0,14.013,1.266,14.666-10.023,0,0,24.387,9.651,32.554-.257,0,0,5.485,7.4,19.728,9.016-6.5-.5-25.578-1.081-17.219,11.007,0,0-19.726-2.925-12.074,10.579,0,0,6.042,5.695,13.675,4.652,0,0-11.061,10.2,9.563,18.325,0,0-10.957,10.885,13.835,17.28s4.907-13.454,4.907-13.454,13.736,11.772,29.426,8.428c0,0-12.587,24.921,18.07,33.461,0,0,5.066,8.908,19.647,6.235,0,0-5.713,8.264,17.089,13.675,0,0,11.842-5.341,7.771-11.988,0,0,10.869,10.6,23.486,4.211s-15.1-15.409-23.337-12.554c0,0-10.228-9.739-25.058-11.4,0,0,33.225.738,28.661-9.66,0,0,12.594-7.886-5.37-13.263,0,0,4.513-7.956-9.147-15.242,0,0,34.141-3.112,13.261-28.233,0,0,25.56,6.271,37.708-6.246,0,0-14.682,14.605-3.348,23.439,14.369,5.091,21.568,7.609,36,12.594,0,0-36.794-5.026-24.438,17.21a16.187,16.187,0,0,0-18.251.887s-4.882,17.318,22.916,14.848c0,0,10.878,19.948,23.619,5.184,0,0,26.945,25.109,52.626,3.188,0,0-18.645,19.825,10.446,31.455s24.907-6.816,24.907-6.816,26.684,9.561,26.672-8.224c0,0,15.753,7.147,25.456-1.558,0,0,.732,8.91,14.344,14.972s16.677-5.181,16.677-5.181,13.765,12.558,31.282,9.584C543.7,954.134,544.7,964.258,544.7,964.258Z" transform="translate(-34.917 -791.905)" fill="#ededed"/></g><path d="M197.1,868.753s10.775-8.91,4.724-15.328c0,0,9.068-3.443,5.168-11.047,0,0,16.091,5.582,18.895-.775,0,0-.016,5.933,7.717,9.791,0,0-10.367-1.02-10.138,7.05,0,0-9.289-4.6-12.61.428C210.856,858.872,207.523,866.872,197.1,868.753Z" transform="translate(168.1 -728.822)" fill="#ededed"/><path d="M143.743,876.509s-19.719-13.261-10.98-25.308c0,0-10.743-12.894-2.581-15.677,0,0-8.266-14.679,7.91-14.891,0,0-11.57,2.3-23.3-7.552,0,0,.05,10.892-17.467,4.2,0,0,3.945,7.03-3.972,11.043,0,0,22.36,6.969,21.946,17.246,0,0,12.977,5.578,10.689,12.058C125.992,857.628,125.584,868.963,143.743,876.509Z" transform="translate(38.237 -764.526)" fill="#ededed"/></g><g transform="translate(1536.417 144.709)"><path d="M541.679,832.653c-.088,5.873,8.043-.128,8.043-.128s3.465,4.776,6.967-1.516c0,0,15.152,9.32,24.265-9.682,0,0,9.338,8.176,14.375,2.929s16.44,15.713,36.848-6.071c0,0,27.746,12.975,34.835-18.208,0,0,7.6,8.942,16.945-3.85,0,0,5.22,11,25.267-3.116s11.493-26.3,11.493-26.3,17.19,12.117,33.579-1.072,7.7-30.523,7.7-30.523,17.548,1.578,24.884-14.481c0,0,13.589-1.329,11.811-16.1s-17.848-14.256-17.848-14.256-4.323-8.631-13.317-7.383-10.115,8.442-10.115,8.442-5.63-8.19-20.957-8.7-16.731,14.078-16.731,14.078-1.842-8.143-7.489-7.467a9.672,9.672,0,0,0-7.6,4.7s-5.276-7.215-14.092-5.83-10.255,13.508-10.255,13.508-.511-5.44-4.2-5.544-4.841,6.584-4.841,6.584-5.726-4.116-9.667-1.335-1.524,8.1-1.524,8.1-8.347-12.509-23.7,1.027-3.9,24.668-3.9,24.668-5.253-4.071-10.574,1.847,1.779,9.714,1.779,9.714-12.166-5.585-21.626,9.039,4.3,20.156,4.3,20.156-10.658-2.977-14.99,2.682.374,10.89.374,10.89-7.908-9.32-17.983,3.123,1.288,15.965,1.288,15.965-13.335-4.8-20.14,2.961-2.376,12.374-2.376,12.374-6.771-.959-4.785,3.848C547.732,827.719,541.751,827.888,541.679,832.653Z" transform="translate(-541.679 -682.624)" fill="#fff"/><g transform="translate(0 7.651)"><path d="M590.872,708.287c-.34-.275-.694-.545-1.076-.8A13.172,13.172,0,0,0,590.872,708.287Z" transform="translate(-481.447 -659.155)" fill="#ededed"/><path d="M544.557,747.748s-.119-.455-.342-1.238A4.746,4.746,0,0,0,544.557,747.748Z" transform="translate(-538.504 -610.305)" fill="#ededed"/><path d="M604.745,702.257l-.036-.034Z" transform="translate(-462.779 -665.742)" fill="#ededed"/><path d="M640.226,689.06s.935.362,2.268.739A14.093,14.093,0,0,0,640.226,689.06Z" transform="translate(-418.319 -682.219)" fill="#ededed"/><path d="M780.845,686.024s6.641,1.022,1.835,7.429-8.021-.552-8.021-.552c-1.378,2.351-5.99,1.5-8.807.7,2.4,1,5.765,3.15,5.2,7.242-.858,6.258-8.352,5.278-8.352,5.278s6.949,5.523.369,9.241S751.763,713,751.763,713s2.322,6.323-1.684,6.724-4.835-8.282-4.835-8.282c-3.756-7.269,3.128-10.469,3.128-10.469-5.8-3.13-6.659-10.52-6.659-10.52-1.723,8.654-10.234,10.6-10.234,10.6-6.195,7.638-13.081,4.758-13.081,4.758-3.132,4.452-11.173,6.465-11.173,6.465,13.824-2.211,16.355,12.617,16.355,12.617,4.069-10.417,12.655-5.375,12.655-5.375,9.2-6.132,9.268,3.06,9.268,3.06-.333,8.2,7.965,8.5,7.965,8.5-3.047,5.267-7.679,3.52-7.679,3.52-6.65,9.176-13.292,4.454-13.292,4.454a6.485,6.485,0,0,1-6.343,6.841s6.852,5.433,3.067,10.273-10.729,1.959-10.729,1.959c-8.163,8.753-10.874.349-10.874.349-10.293,8.762-10.322-.844-10.322-.844s-5.357,7.825-11.221,3.846,3.144-10.011,3.144-10.011c-11.264-1.743-.829-8.874-.829-8.874-.349-7.379,10.025-8.681,13.585-8.917-15.188.45-8.244-9.8-8.244-9.8-6.228,2.209-10.086-1.331-10.086-1.331s4.832,5.046.153,9.863c-4.909,5.055-6.728.727-6.728.727s3.256,8.045-3.42,9.556-7.129-6.129-7.129-6.129c-6.645,3.659-12.966.268-15.416-1.4,7.222,5.857,5.037,15.5,5.037,15.5,11.462-6.818,14.63,1.811,14.63,1.811,12.045,5.837,2.272,14.616,2.272,14.616,4.562,7.985-3.846,9.059-3.846,9.059s9.487,4.339,4.125,6.7-8.237-7.163-8.237-7.163c-7.221,7.611-13.72-1.626-13.72-1.626,2.813,10.178-3.929,9.561-3.929,9.561s5.222,6.474-1.844,8.129-3.344-5.5-3.344-5.5c-8.561,3.36-11.752-4.722-11.752-4.722,3.351,10.46-3.841,12.578-3.841,12.578s8.642,6.568.241,10.61-9.926-4.175-9.926-4.175c-2.932,5-5.666,3.265-5.666,3.265-3.231-1.853,2.817-8.007,2.817-8.007-10.113,8.534-20.478,1.792-20.478,1.792s5.26,11.685-1.61,14.36-8.841-2.79-8.841-2.79c-7.489,5.9-9.757-.09-9.757-.09a16.687,16.687,0,0,1-16.055,12.162c-4.456,5.359-9.649,2.245-9.649,2.245s-5.981.169-6.053,4.934c-.088,5.873,8.043-.128,8.043-.128s3.465,4.776,6.965-1.516c0,0,15.154,9.32,24.267-9.683,0,0,9.338,8.176,14.375,2.93s16.44,15.713,36.848-6.071c0,0,27.746,12.975,34.835-18.208,0,0,7.6,8.942,16.945-3.85,0,0,5.22,11,25.267-3.117s11.493-26.3,11.493-26.3,17.19,12.117,33.579-1.072,7.7-30.523,7.7-30.523,17.548,1.578,24.884-14.481c0,0,13.589-1.329,11.811-16.1S780.845,686.024,780.845,686.024Z" transform="translate(-541.679 -686.022)" fill="#ededed"/><path d="M612.865,707.209c.383-.011.775-.029,1.187-.054C614.052,707.155,613.6,707.159,612.865,707.209Z" transform="translate(-452.569 -659.568)" fill="#ededed"/></g><path d="M592.869,742.723s-7.451-1.851-11.243,4.49c0,0-.959-4.4-6.733-5.594,0,0,9.48-3.866,4.321-10.367,0,0,4.643-7.674-3.011-10.646,0,0,4.49-.511,5.19-6.76,0,0-1.786,6.841,4.407,7.35,0,0-4.431,3.837,1.941,6.728s7.777-4.569,7.777-4.569-2.114,6.978,1.828,10.7c0,0-8.145-1.608-10,1.961S592.869,742.723,592.869,742.723Z" transform="translate(-500.102 -643.541)" fill="#ededed"/></g><path d="M184.683,707.2c-6.152,3.132,13.074,4.609,16.834,6.429s10.984,8.872,21.734,10.536c0,0,6.969,11.838,22.367,8.985,0,0,6.321,11,15.749,13.639S281.309,745,281.309,745s3.08,10.588,20.8,16.384,25.044,3.269,25.044,3.269,10.342,8.588,20.338,5.4c0,0,7.381,10.036,25.713,15.7s29.226-4.7,36.321-.854,23.608,6.064,18.422-.608-14.425-6.967-14.425-6.967,11.162-5.614-1.545-19.016-28.215-5.057-28.215-5.057,4.844-5.65-4.326-8.949c0,0,3.373-5.661-5.251-10.5s-12.741,1.493-12.741,1.493,4.033-7.528-2.572-12.493-14.781.354-14.781.354-.477-21.268-42.745-31.322-37.357,20.836-37.357,20.836-5.256-5.767-16.028-5.882S240.8,718.17,240.8,718.17s-8.656-9.854-16.645-10.89-10.791,3.774-10.791,3.774a10.51,10.51,0,0,0-9.415-5.13C196.245,706.45,192.393,706.7,184.683,707.2Z" transform="translate(544.351 -521.897)" fill="#fff"/><path d="M435.281,818.3c-9.7,5.06,20.336-4.382,20.336-4.382s11.016,6.163,18.854,3.9,18.539-10.644,18.539-10.644,14.364,5.53,43.646-7.156,26.99-22.657,26.99-22.657,16.832,7.113,31.987-2.783,14.9-21.745,14.9-21.745,17.645-3.637,14.229-9.082-19.426-.766-19.426-.766-.408-9.462-11.538-8.469-14.276,14.655-14.276,14.655-6.782-25.488-41.608-17.841-33.189,41.755-33.189,41.755-10.306-7.406-23.085,2.866-7.228,18.895-7.228,18.895-12.518-1.092-18.852,5.087S448.354,811.479,435.281,818.3Z" transform="translate(859.138 -478.736)" fill="#fff"/><path d="M153.158,686.157c-10.914,4.305,3.8,10.948,15.591,12.905s29.127,6.967,29.127,6.967S179.828,675.637,153.158,686.157Z" transform="translate(503.606 -536.263)" fill="#fff"/><path d="M297.553,738.571c16.609-2.759,22.054,11.432,33.135,14.564s19.442,16.706,19.442,16.706-33.414-.452-43.013-15.855S297.553,738.571,297.553,738.571Z" transform="translate(692.147 -466.325)" fill="#fff"/><path d="M521.189,740.9s-7.512-7.717,7.287-24.173,10.428-23.1,26.938-26.089,22.263-.462,13.589,7.778-21.93,23.281-21.93,23.281S545.292,734.63,521.189,740.9Z" transform="translate(1145.196 -604.927) rotate(11)" fill="#fff"/><path d="M633.892,710.047s10.736-24.659,30.023-30.881,5.323-19.588,30.376-32.766,20.557,11.421,20.557,11.421-19.34,25.346-38.415,33.441S633.892,710.047,633.892,710.047Z" transform="translate(990.477 -588.055)" fill="#fff"/><path d="M265.338,822.2c-3,1.991,2.117,7.859,10.266,9.244s13.761,2.006,15.481,6.123,16.066,3.157,21.671,5.409,16.832,6.967,20.435,5.317-3.049-3.878-13.484-8.6-14.706-9.136-18.8-8.962a25.9,25.9,0,0,1-16.274-3.921C277.567,822.567,268.963,819.786,265.338,822.2Z" transform="translate(647.736 -364.321)" fill="#fff"/><path d="M.98,813.976c9.2-3.18,13.7,14.2,23.112,17.782s41.293,13.9,39.442,19.09-9.908,4.119-20.088-2.718-10.408-5.22-28.663-12.461S-7.75,816.993.98,813.976Z" transform="translate(312.45 -373.976)" fill="#fff"/><path d="M50.523,843.166c12.394,5.42,24.2,8.325,25.447,12.808s-12.4.712-20.243-2.407S43.768,840.212,50.523,843.166Z" transform="translate(375.66 -337.615)" fill="#fff"/><path d="M-48.7,792.764c8.82-4.371,31.248,9.552,31.025,15.679s-5.447,4.909-11.419,3.549-1.806-6.1-9.153-6.978S-59.673,798.2-48.7,792.764Z" transform="translate(250.661 -401.089)" fill="#fff"/><path d="M693.114,828.54c-10.865,3.495-6.195,20.352,12.162,8.978s7.116-12.308,7.116-12.308C704.682,826.559,700.827,827.223,693.114,828.54Z" transform="translate(1177.066 -359.429)" fill="#fff"/><path d="M684.086,845.07c-15.837,7.041-14.607,13.747-8.482,13.168s15.148-2.468,18.638-5.5,9.6-3.646,7.636-7.413S694,840.666,684.086,845.07Z" transform="translate(1157.091 -338.264)" fill="#fff"/><path d="M640.732,854.2c-11.365.826-17.74,11.921-5.857,11.459s28.76-3.222,35.385-9.176,11.367-6.674,4.648-10.155S640.732,854.2,640.732,854.2Z" transform="translate(1103.432 -333.822)" fill="#fff"/><path d="M677.627,882.977c-4.832,2.211-1.95,5.528,13.328,1.88s18.724-7.134,18.724-7.134S700.949,872.31,677.627,882.977Z" transform="translate(1162.232 -295.414)" fill="#fff"/><path d="M359.368,817.035c-6.307,2.289-6.875,5.664-2.587,4.54s14.868-7.043,14.868-7.043,6.353,9.016,20.778-.209c0,0,9.465,5.835,22.221.727s15.051-9.841,15.051-9.841,10.917,5.551,18.3-4.983a16.268,16.268,0,0,0,15.4,5.389c9.923-1.77,11.1-9.535,11.1-9.535s8.7,5.754,15.679,3.077,2.616-9.314,2.616-9.314,4.546-5.69-1.344-9.509-9.856,5.018-9.856,5.018-6.377-4.218-11.368,2.068c0,0,9.21-12.663-1.8-18.7S451.6,783.437,451.6,783.437s-5.652-3.111-8.871-.449-2.552,8.408-2.552,8.408-2.26-6.171-13.289-3.674-9.366,9.433-9.366,9.433-7.252-6.046-20.19,1.857-13.9,8.1-19.976,7.834-11.015,6.258-11.015,6.258-3.769-2.492-6.029-1.278S359.368,817.035,359.368,817.035Z" transform="matrix(0.985, 0.174, -0.174, 0.985, 1011.698, -428.643)" fill="#fff"/></g><g transform="translate(-643.784 1203.802)"><g transform="translate(2489.072 144.439)"><path d="M554.479,1044.477c-5.745,14.823,19.955,7.161,19.955,7.161s4.009,15.35,18.608,2.673c0,0,28.3,37.807,69.035-1.615,0,0,15.066,29.574,32.531,21.143s24.817,55.294,96.367,20.359c0,0,54.706,59.888,103.528-11.372,0,0,9.492,30.013,45.38,7.352,0,0,1.455,32.688,64.927,17.854s55.341-53.983,55.341-53.983,29.292,47.975,83.228,32.322,51.238-67.895,51.238-67.895,41.225,22.575,76.566-9.4c0,0,34.737,11.383,46.454-27.169s-28.486-54.709-28.486-54.709-1.347-26.12-24.972-32.694-34.121,10.149-34.121,10.149-5.163-26.452-42.76-43.964-56.465,17.479-56.465,17.479,3.97-22.266-10.814-26.493-23.845,3.807-23.845,3.807-5.64-23.553-29.118-29.212-39.555,23.246-39.555,23.246,4.323-14.155-4.787-18.2-18.848,11.54-18.848,11.54-10.107-16.176-22.8-13.208-12.054,18.774-12.054,18.774-8.271-39.982-60.313-21.33-34.444,58.171-34.444,58.171-9.056-15.486-28.21-5.842-5.218,26.228-5.218,26.228-24.864-26.129-62.77,1.554-9.08,55.062-9.08,55.062-23.547-17.874-39.8-7.755-9.657,27.879-9.657,27.879-10.626-31.225-47.578-9.337-12.164,41.639-12.164,41.639-28.417-24.815-52.633-11.543-17.611,29.149-17.611,29.149-15.817-8.762-15.455,5.287C574.073,1037.586,559.142,1032.445,554.479,1044.477Z" transform="translate(-553.642 -822.136)" fill="#fff"/><g transform="translate(0 74.189)"><path d="M686.2,857.632c-.566-1.032-1.171-2.065-1.861-3.1A34.971,34.971,0,0,0,686.2,857.632Z" transform="translate(-323.503 -839.276)" fill="#ededed"/><path d="M561.046,902.382s.133-1.262.323-3.462A13.013,13.013,0,0,0,561.046,902.382Z" transform="translate(-540.615 -761.121)" fill="#ededed"/><path d="M718.968,856.215l-.052-.121Z" transform="translate(-262.621 -836.531)" fill="#ededed"/><path d="M801.935,859.622s1.922,1.9,4.812,4.265A37.367,37.367,0,0,0,801.935,859.622Z" transform="translate(-116.438 -830.318)" fill="#ededed"/><path d="M1289.151,879.88s15.27,9.713-3.512,20.427-19.185-10.019-19.185-10.019c-5.936,4.359-16.394-2.717-22.5-7.711,4.848,5.055,10.845,14.011,5.063,23.577-8.846,14.63-26.256,4.191-26.256,4.191s11.193,21.145-8.967,23.384-25.331-17.91-25.331-17.91-1,18.2-11.292,14.964-3.131-25.742-3.131-25.742c-1.571-22.084,18.837-22.766,18.837-22.766-11.021-13.956-5.312-33.268-5.312-33.268-13.459,19.734-36.589,15.61-36.589,15.61-23.4,12.531-37.421-1.841-37.421-1.841-12.427,7.846-34.453,4.522-34.453,4.522,36.581,8.815,27.291,48.541,27.291,48.541,20.949-21.769,36.874-.16,36.874-.16,29.162-5.635,19.613,17.385,19.613,17.385-9.5,20.08,10.582,29.577,10.582,29.577-13.073,9.9-22.592.674-22.592.674-26.026,15.88-37.351-2.83-37.351-2.83-7.093,16.764-22.752,10.472-22.752,10.472s11.118,20.7-3.214,28.845-28.348-6.22-28.348-6.22c-29.119,13.443-27.053-10.337-27.053-10.337-34.339,11.344-24.5-12.7-24.5-12.7s-21.192,14.13-31.551-1.8,18-21.9,18-21.9c-25.98-15.85,7.062-23.081,7.062-23.081,6.712-18.845,33.71-11.466,42.749-8.39-37.989-14.522-10.276-33-10.276-33-17.713-.873-23.119-12.449-23.644-13.68.613,1.494,6.789,17.578-9.74,24.872-17.344,7.653-17.415-5.036-17.415-5.036s-.16,23.476-18.221,20.5-11.424-22.6-11.424-22.6c-20.193,2.46-32.44-12.407-36.849-19.058,12.043,21.971-3.136,44.005-3.136,44.005,35.253-5.629,34.345,19.282,34.345,19.282,23.821,26.821-9.243,38.98-9.243,38.98,3.123,24.641-18.649,18.87-18.649,18.87s18.892,20.433,3.346,20.96S910.014,983.2,910.014,983.2c-25.461,11.88-32.15-17.8-32.15-17.8-3.286,28.4-19.257,20.143-19.257,20.143s6.355,21.457-12.659,18.63-2.739-17.15-2.739-17.15c-24.428-.009-24.265-23.481-24.265-23.481-2.107,29.646-21.924,27.923-21.924,27.923s14.74,25-9.892,26.985-20.292-20.209-20.292-20.209c-12.12,9.751-17.147,2.736-17.147,2.736-6.135-7.813,14.8-17.476,14.8-17.476-33.3,11.7-52.268-15.284-52.268-15.284s1.613,34.577-17.9,34.762-19.086-15.513-19.086-15.513c-24.163,7.772-23.992-9.517-23.992-9.517-21.868,28.257-51.236,15.66-51.236,15.66-16.087,9.406-25.932-3.34-25.932-3.34s-14.931-5.141-19.594,6.891c-5.745,14.823,19.955,7.161,19.955,7.161s4.009,15.348,18.608,2.673c0,0,28.3,37.807,69.035-1.615,0,0,15.066,29.574,32.531,21.142s24.817,55.294,96.367,20.359c0,0,54.706,59.888,103.526-11.372,0,0,9.495,30.013,45.383,7.352,0,0,1.455,32.689,64.927,17.854s55.341-53.983,55.341-53.983,29.292,47.975,83.228,32.321,51.238-67.895,51.238-67.895,41.225,22.575,76.566-9.4c0,0,34.737,11.383,46.454-27.169S1289.151,879.88,1289.151,879.88Z" transform="translate(-553.642 -849.008)" fill="#ededed"/><path d="M731.221,873.047c.958.364,1.944.729,2.985,1.091C734.205,874.137,733.087,873.682,731.221,873.047Z" transform="translate(-240.953 -806.679)" fill="#ededed"/></g><path d="M682.324,941.9s-16.573-12.009-32.2.254c0,0,1.985-12.04-11.121-20.7,0,0,27.285-.447,20.93-21.9,0,0,19.135-14.779,3.059-29.8,0,0,11.653,3.131,19.591-11.918,0,0-11.209,15.466,3.652,22.865,0,0-14.79,5.292-1.875,18.862s23.818-3.8,23.818-3.8-12.186,15.469-6.156,28.751c0,0-18.542-12.106-26.681-4.945S682.324,941.9,682.324,941.9Z" transform="translate(-403.338 -759.271)" fill="#ededed"/></g><g transform="translate(362.861)"><path d="M777.275,1140s57.078,1.452,51.445-46.669-73.819-19.955-73.819-19.955,10.212-20.538-20.731-38.221-53.127,1.17-53.127,1.17,40.493-63.609-15.88-102.145-96.784,1.795-96.784,1.795,25.038-35.17-26.951-55.438c0,0,23.045-45.026-36.421-54.888s-59.62,36.691-59.62,36.691-13.967-11.54-36.97-6.885-22.537,37.4-22.537,37.4,6.7-64.979-73.308-85.053-70.691,25.933-70.691,25.933-31.294-56.608-78.242,2.148c0,0,12.4-40.137-47.216-60.912S42.05,803.012,42.05,803.012s-8.059-16.156-33.409-2.819-25.83,33.4-25.83,33.4-8.871-25.7-41.3-3.4c0,0-16.388-37.048-56.451-15.259,0,0-55.785-11.974-46.633,23.119,0,0-38.337-30.557-52.735-.279s47.3,37.638,47.3,37.638-25.7,31.882,17.054,40.336,58.878-16.7,58.878-16.7-34.038,68.46,43.616,97.217,97.14-20.336,97.14-20.336-20.154,103.277,90.793,141.034,157.972-44.275,157.972-44.275,8.252,44.168,67.56,43.116,67.643-37.633,67.643-37.633,5.2,32.47,64.546,48.513,70.029-29.218,70.029-29.218,11.695,54.416,63.1,48.121,59.9-31.96,59.9-31.96,3.481,27.346,37.164,34.9S777.275,1140,777.275,1140Z" transform="translate(216.491 -769.819)" fill="#fff"/><path d="M-79.75,838.072C-32,839.6-54.706,867.334-54.706,867.334c60.239,76.8,128.39,61.026,128.39,61.026,19.5,64.932,67.61,30.86,67.61,30.86s-24.638,63.734,50.714,93.366,98.081-42.028,98.081-42.028c85.431,52.735,141.5,5.53,141.5,5.53,71.321,51.4,90.677,7.214,90.677,7.214,46.8,25.618,74.719-2.292,74.719-2.292C615.476,1055.389,655,1046.22,655,1046.22s-8.586,18.056,6.579,30.485,32.52-10.654,32.52-10.654c35.085,48.386,70.642,26.507,70.642,26.507,28.232,13.5,49.043,5.232,63.392-7.841-7.129,32-50.86,30.885-50.86,30.885s-15.22,16.079-48.9,8.526-37.164-34.9-37.164-34.9-8.49,25.662-59.9,31.96-63.1-48.122-63.1-48.122-10.682,45.261-70.029,29.218-64.546-48.513-64.546-48.513S425.3,1090.352,366,1091.406s-67.56-43.116-67.56-43.116-47.028,82.036-157.972,44.276S49.67,951.532,49.67,951.532s-19.486,49.1-97.14,20.336-43.616-97.217-43.616-97.217-16.118,25.154-58.878,16.7-17.054-40.336-17.054-40.336-61.694-7.358-47.3-37.638,52.735.279,52.735.279c-9.152-35.093,46.633-23.119,46.633-23.119C-74.882,768.75-58.494,805.8-58.494,805.8-37.509,825.806-79.75,838.072-79.75,838.072Z" transform="translate(216.491 -745.422)" fill="#ededed"/><path d="M49.462,954.433s9.022-53.93,72.9-36.664c0,0,28.79-31.12,58.463-17.54,0,0-47.365-23.92-42.763-57.873,0,0-36.134-13.473-36.5-39.51,0,0-6.5,44.6-38.127,31.393,0,0-35.079,30.386-48.339-13.064,0,0-48.475,28.558-74.087,6.814,0,0-44.842,8.255-65.6-17.736,0,0,20.146,41.976,53.955,40.261,0,0,46.959,24.732,75.374,8.992,0,0,10.411,16.311-7.413,41.131C-2.684,900.638,46.652,910.009,49.462,954.433Z" transform="translate(378.296 -711.663)" fill="#ededed"/></g><g transform="translate(2028.996 301.718)"><path d="M387.936,1253.4c-7.325,22.8,30.64,8.995,30.64,8.995s7.394,22.722,28.216,2.363c0,0,45.913,54.336,103.661-8.564,0,0,25.284,43.13,50.8,28.9s42.23,80.937,146.711,22.046c0,0,87.585,85.188,154.659-26.306,0,0,16.943,44.287,68.888,7.024,0,0,5.1,49.021,99.216,21.073s78.416-86.088,78.416-86.088,48.307,69.534,128.015,41.2,71.011-106.643,71.011-106.643,64,30.281,114.293-20.944c0,0,53.245,14.033,67.436-44.979s-47.7-79.73-47.7-79.73-4.348-39.157-40.454-46.943-50.4,18.293-50.4,18.293-10.113-39.314-68.2-62.306-83.35,31.3-83.35,31.3,3.989-33.834-18.614-38.872-35.518,7.846-35.518,7.846-10.577-34.916-46.382-41.338-57.411,38.467-57.411,38.467,5.245-21.667-8.813-26.935S1045.73,910.3,1045.73,910.3s-16.634-23.423-35.458-17.835-16.455,29.3-16.455,29.3-15.994-59.385-92.585-26.711-46.625,90.531-46.625,90.531S839.615,963.1,811.672,979.3s-5.516,39.9-5.516,39.9-39.709-37.081-94.244,7.918-8.76,83.6-8.76,83.6-37-24.784-60.537-8.122-12.046,42.777-12.046,42.777-18.754-46-72.37-9.809-14.591,63.693-14.591,63.693-44.933-34.787-80.166-12.678-23.89,45.394-23.89,45.394-24.563-11.769-22.769,9.326C416.784,1241.3,393.878,1234.9,387.936,1253.4Z" transform="translate(-386.998 -879.104)" fill="#fff"/><g transform="translate(0 95.254)"><path d="M582.2,935.2c-.941-1.5-1.944-3-3.073-4.489A52.046,52.046,0,0,0,582.2,935.2Z" transform="translate(-48.691 -883.488)" fill="#ededed"/><path d="M397.846,1013.636s.086-1.913.18-5.237A19.471,19.471,0,0,0,397.846,1013.636Z" transform="translate(-368.06 -746.691)" fill="#ededed"/><path d="M631.346,930.159l-.091-.179S631.294,930.06,631.346,930.159Z" transform="translate(43.098 -884.774)" fill="#ededed"/><path d="M756.4,927.906s3.059,2.686,7.614,5.985A56.1,56.1,0,0,0,756.4,927.906Z" transform="translate(263.46 -888.426)" fill="#ededed"/><path d="M1482.2,951s23.823,13.247-3.464,31.026-29.74-13.357-29.74-13.357c-8.537,7.079-24.892-2.628-34.522-9.6,7.739,7.173,17.553,20.1,9.707,35-12,22.785-39.1,8.636-39.1,8.636s18.707,30.8-11.405,35.96-39.682-24.679-39.682-24.679.11,27.465-15.646,23.5-7-38.428-7-38.428c-4.326-33.064,26.3-35.907,26.3-35.907-17.813-20-10.944-49.551-10.944-49.551-18.484,30.872-53.629,26.728-53.629,26.728-34.077,20.919-56.431.555-56.431.555-17.989,12.9-51.4,9.865-51.4,9.865,55.788,10,45.35,70.562,45.35,70.562,29.566-34.6,55.429-3.52,55.429-3.52,43.348-11.063,31.037,24.4,31.037,24.4-12.5,31.037,18.542,43.53,18.542,43.53-18.779,16.054-33.909,3.023-33.909,3.023-37.724,26.19-56.415-.936-56.415-.936-9.177,25.839-33.285,17.769-33.285,17.769s18.561,30.132-2.264,43.66-43.182-6.836-43.182-6.836c-42.591,22.8-41.6-13.136-41.6-13.136-50.626,20.107-37.964-16.918-37.964-16.918s-30.612,23.13-47.605.094,25.118-34.522,25.118-34.522c-40.474-21.529,8.567-35.336,8.567-35.336,8.418-28.931,49.667-20.237,63.535-16.416-58.417-18.459-18.384-48.709-18.384-48.709-26.717.262-35.874-16.665-36.771-18.47,1.057,2.192,11.77,25.828-12.435,38.265-25.4,13.05-26.634-6.024-26.634-6.024s1.847,35.311-25.577,32.437-19.188-32.97-19.188-32.97c-30.143,5.494-49.883-15.773-57.1-25.383,20.06,31.968-.8,66.448-.8,66.448,52.506-11.6,53.353,25.941,53.353,25.941,38.207,38.215-10.431,59.433-10.431,59.433,6.886,36.777-26.366,30.035-26.366,30.035s30.226,29.044,6.894,31.219-21.86-38.334-21.86-38.334c-37.227,20.129-49.927-23.9-49.927-23.9-2.413,42.994-27.164,32-27.164,32s11.466,31.7-17.377,29.141-5.643-25.546-5.643-25.546c-36.73,2.159-38.574-33.152-38.574-33.152-.533,44.767-30.479,43.939-30.479,43.939s24.383,36.286-12.477,41.451-32.31-28.586-32.31-28.586c-17.36,15.74-25.543,5.641-25.543,5.641-9.914-11.2,20.7-27.592,20.7-27.592-49.038,20.549-79.951-18.338-79.951-18.338s5.5,51.849-23.823,53.861-30.079-21.629-30.079-21.629c-35.64,13.835-36.918-12.175-36.918-12.175-30.372,44.43-75.652,28.1-75.652,28.1-23.348,15.574-39.287-2.714-39.287-2.714s-22.907-6.405-28.848,12.1c-7.325,22.8,30.64,8.995,30.64,8.995s7.394,22.721,28.216,2.363c0,0,45.913,54.336,103.661-8.564,0,0,25.284,43.13,50.8,28.9s42.23,80.937,146.711,22.045c0,0,87.585,85.188,154.659-26.305,0,0,16.943,44.287,68.888,7.024,0,0,5.1,49.021,99.216,21.073s78.416-86.088,78.416-86.088,48.307,69.534,128.018,41.2,71.008-106.643,71.008-106.643,64,30.281,114.293-20.944c0,0,53.245,14.031,67.436-44.979S1482.2,951,1482.2,951Z" transform="translate(-386.998 -913.606)" fill="#ededed"/><path d="M651.266,954.378c1.469.464,2.984.925,4.58,1.372C655.846,955.75,654.123,955.165,651.266,954.378Z" transform="translate(78.334 -841.813)" fill="#ededed"/></g><path d="M580.252,1064.73s-25.988-16.584-48.4,3.247c0,0,1.916-18.282-18.558-30.132,0,0,40.987-3.1,29.521-34.8,0,0,27.459-23.922,1.952-45.079,0,0,17.8,3.672,28.4-19.666,0,0-15.48,24.254,7.52,34.058,0,0-21.764,9.271-1.14,28.528s35.477-7.832,35.477-7.832-16.949,24.342-6.7,43.779c0,0-28.956-16.557-40.557-5.066S580.252,1064.73,580.252,1064.73Z" transform="translate(-164.608 -774.865)" fill="#ededed"/></g><g transform="translate(0 201.954)"><path d="M-343.517,1389.8c35.264,40.308,58.207,66.536,88.634,45.647s48.779,47.569,88.129,30.331,38.028,48.38,90.564,39.665,63.193-99.688,86.519-82.85c0,0,6.38,87.527,98.973,96.765s176.47-11.14,220.491-75.434c0,0,12.167,46.655,51.316,32.459s15.579,64.17,100.887,68.1,146.308-40,146.308-40-4.511,67.563,78.651,80.755,102.54-48.163,152.74-44.811,68.96,42.807,120.684,23.34,73.129-42.487,73.129-42.487-10.453,42.086,16.83,45.435a43.734,43.734,0,0,0,40.852-16.813s-23.511,31.725,14.619,55.664,183.262,24.461,168.764-33.044c0,0,16.529,27.078,52.23,18.765s14.607-35.7,14.607-35.7,32.658,37.23,55.476,15.88c0,0,4.862,41.631,38.734,37.782,0,0-3.655,54.764,98.979,50.921s112.281-79.6,112.281-79.6,16.526,27.081,42.9-1.717c0,0,23.525,36.713,63.281,36.313s43.006-49.082,43.006-49.082,11.458,34.38,45.534,27.49c0,0-6.292,25.557,37.724,30.024s80.73-19.061,54.367-59.021c0,0,32.857,34.284,61.152,22.421s42.194-36.913,42.194-36.913,1.313,48.985,63.178,37.835,30.532-45.33,30.532-45.33,37.423,11.667,47.87-7.5,36.206,7,51.219-11.861-17.239-39.35-59.532-23.84c0,0,14-49.491-47.967-36.819,0,0,3.15-47.161-53.748-41.791s-41.584,27.785-41.584,27.785-32.451-40.369-63.894-4.265c0,0,1.527-45.739-57.6-52.743s-80.63,17.537-80.63,17.537-4.931-40.559-59.308-27.131c0,0,10.635-44.883-31.857-49.248,0,0,6.908-103.445-147.962-72.53,0,0-10.748-45.029-57.6-29.822,0,0-.6-59.634-77.273-55.584,0,0-1.717-88.741-144.008-63.1,0,0-62.977-40.88-111.259,18.547,0,0-9.831-58.723-64.4-19.58,0,0,20.494-55.17-36.91-65.114s-89.15,30.72-89.15,30.72,38.955-79.912-49.985-121S823.14,966.495,823.14,966.495s-40.361-36.313-69.474,10.64c0,0-34.477-32.862-67.036-2.948,0,0-1.3-72.008-72.759-54.571,0,0,16.283-83.667-77.428-76.171s-112.686,85.688-112.686,85.688-93.4-65.832-144.524,36.189c0,0-34.276-35.9-76.47,1.008,0,0-102.013-119.887-182.248,6.168s67.425,180.227,67.425,180.227-68.46,18.349-50.007,62.368,97.259,30.943,97.259,30.943-43.108,27.683-28.2,56.183c0,0-44.621-18.26-57.809,19.061,0,0-65.617-24.245-96.047,42.484,0,0-20.281-39.554-59.836-19.276s-73.527-20.19-102.029,17.636-53.952-15.828-78.093,2.427S-363.392,1367.075-343.517,1389.8Z" transform="translate(347.923 -842.969)" fill="#fff"/><g transform="translate(3.069 370.011)"><path d="M-177.933,1019.124a35.1,35.1,0,0,0-4.089-.958S-180.534,1018.563-177.933,1019.124Z" transform="translate(636.977 -904.486)" fill="#ededed"/><path d="M531.544,1085.3a25.551,25.551,0,0,0-.585-5.039A27.007,27.007,0,0,0,531.544,1085.3Z" transform="translate(1892.42 -795.146)" fill="#ededed"/><path d="M-223.433,1045.6a29.813,29.813,0,0,0-5.428-2.25S-226.843,1044.349-223.433,1045.6Z" transform="translate(554.502 -860.146)" fill="#ededed"/><path d="M-346.811,1040.444c.411.524.834,1.057,1.336,1.632,35.264,40.308,58.207,66.536,88.634,45.648s48.779,47.569,88.129,30.331,38.028,48.38,90.564,39.665c31.4-5.21,47.834-39.789,60.959-63.184-54.623,21.821-56.387-13.622-56.387-13.622-48.392,14.116-71.633-27.984-71.633-27.984-31.355,37.641-86.307,10.626-86.307,10.626-21.385,13.758-40.424-7.65-40.424-7.65C-304.838,1064.96-330.171,1053.42-346.811,1040.444Z" transform="translate(346.811 -865.259)" fill="#ededed"/><path d="M554.166,1070.435a36.559,36.559,0,0,0-.124-4.771A36.161,36.161,0,0,0,554.166,1070.435Z" transform="translate(1933.027 -820.85)" fill="#ededed"/><path d="M1977.2,1263.393s14-49.491-47.967-36.819c40.1-.831,31.038,22.327,19.18,32.7s-22.106-3.338-22.106-3.338,24.7,34.212-18.282,36.926c-32.418,2.046-40.168-16.485-42.02-25.72.215,8.887-3.448,26.17-35.971,23.3-43.472-3.835-40.692-31.559-40.692-31.559-12.54,34.516-47.859,20.063-47.859,20.063,2.59,44.831-31.559,40.692-31.559,40.692-4.818,16.424-28.345,20.435-34.458.489s19.083-21.054,19.083-21.054c-25.314-24.95,12.791-66.136,12.791-66.136-17.109,19.329-48.847,6.974-48.847,6.974,3.9-30.444-25.19-40.758-25.19-40.758s25.808,31.5,3.147,36.5-36.62-8.959-36.62-8.959c-9.45,44.03-47.8,33.094-47.8,33.094s22.413,40.573-15.811,41.744-21.576-37.727-21.576-37.727-17.388,22.1-31.032,3.509,11.982-40.134,11.982-40.134c-28.1,16.73-39.458,5.737-39.458,5.737-24.028,53.29-66.448,33.71-66.448,33.71s6.911,35.816-40.391,33.588-26.3-38.042-26.3-38.042c-54.775,12.159-55.267-22.3-55.267-22.3-50.082,11.54-44.518-29.955-44.518-29.955-19.265-18.034,1.847-27.68,1.847-27.68-21.5,1.463-27.409-7.521-27.409-7.521,4.82-30.38-24.7-34.212-24.7-34.212,23.279,13.649-2.289,34.27-2.289,34.27s25.808,31.5-3.711,55.575-44.215,7.283-44.215,7.283,13.953,27.912-22.418,29.207S1055,1234.978,1055,1234.978s5.367,31.06-26.5,34.516-44.149-21.557-44.149-21.557-13.034,27.973-38.287,16.052-22.288-42.426-22.288-42.426-17.109,33.282-37.547,4.936,15.814-41.741,15.814-41.741c-62.549-38.6,5.751-72.188,5.751-72.188,16.673,1.115,17.967,23.531,17.967,23.531,7.844-33.9,53.665-37.354,53.665-37.354-77.93-3.343-67.18-52.867-67.18-52.867-15.632,66.876-69.661,40.007-69.661,40.007s9.569,37.857-8.031,36.68-11.112-28.655-11.112-28.655-39.03,27.167-70.272,7.4-7.529-54.466-7.529-54.466-44.587,26.8-59.22,9.072,1.3-33.409,1.3-33.409c-21.43,14.387-60.888,6.171-60.888,6.171,52.732,18.406,24.817,60.271,24.817,60.271,53.35,23.1,15.309,63.359,15.309,63.359s32.3-9.939,25.314,24.95-36.681,19.878-36.681,19.878c-9.39,29.146-38.411,17.9-38.411,17.9-6.924,61.876-50.639,33.837-50.639,33.837s9.2,29.455-22.158,25.295-23.166-29.254-23.166-29.254c-48.845-6.982-38.406-37.917-38.406-37.917-32.048-7.722-1.295-36.372-1.295-36.372-74.037-5.875-59.027-63.488-59.027-63.488,31.062-5.367,22.357-28.279,22.357-28.279,42.547-10.185,45.206-36.057,45.206-36.057-32.854,32.23-65.026,12.4-65.026,12.4,17.719,27.233-20.753,46.065-20.753,46.065s7.222,31.184-12.6,49.4-50.639,5.922-50.639,5.922,9.754,35.076-15.811,41.744-32.848-23.594-32.848-23.594C255.633,1195.562,244.523,1139,244.523,1139s-12.664,50.327-56.506,24.138,4.268-63.911,4.268-63.911c-46.25-31.929,27.238-59.587,27.238-59.587-77.187-28.415,12.355-59.651,12.355-59.651-70.578-15.878-79.661,36.548-79.661,36.548,28.34,35.388-31.189,49.091-31.189,49.091-4.39,51.807-42.241,33.464-42.241,33.464s52.111,69.537-10.135,68.173-30.129-50.393-30.129-50.393c-41.992,1.85-42.975-39.154-42.975-39.154-28.6,25.764-79.744,17.1-94.468,13.915,30,8.829-1,50.421-1,50.421,47.547,12.479,18.68,54.643,18.68,54.643s32.688,12.054,1.8,28.759-32.037-7.882-32.037-7.882c-57.3,8.269-47.335-29.6-47.335-29.6-34.679,3.813-20.648-25.185-20.648-25.185-18.266,8.318-38.108,3.065-47.431-.348,10.475,5.624,12.631,15.949,12.272,24.574,3.746-2.957,7.581-3.487,11.841-.414,0,0,6.38,87.527,98.973,96.765s176.47-11.14,220.491-75.434c0,0,12.164,46.655,51.316,32.459s15.579,64.17,100.886,68.1,146.308-40,146.308-40-4.511,67.563,78.651,80.755,102.54-48.163,152.741-44.811,68.96,42.807,120.687,23.34,73.126-42.487,73.126-42.487-10.452,42.086,16.83,45.435a43.788,43.788,0,0,0,40.686-16.579c-1.955,2.8-21.523,32.633,14.784,55.429,38.133,23.939,183.261,24.461,168.764-33.044,0,0,16.529,27.078,52.23,18.765s14.608-35.7,14.608-35.7,32.658,37.23,55.476,15.88c0,0,4.862,41.631,38.734,37.782,0,0-3.655,54.764,98.981,50.921s112.278-79.6,112.278-79.6,16.526,27.081,42.9-1.718c0,0,23.528,36.714,63.284,36.313s43.006-49.082,43.006-49.082,11.458,34.381,45.534,27.49c0,0-6.292,25.557,37.724,30.024s80.733-19.061,54.367-59.021c0,0,32.857,34.281,61.152,22.421s42.194-36.913,42.194-36.913,1.314,48.985,63.179,37.835,30.532-45.33,30.532-45.33,37.423,11.668,47.87-7.5,36.206,7,51.219-11.861S2019.49,1247.883,1977.2,1263.393Z" transform="translate(557.964 -976.99)" fill="#ededed"/></g><path d="M-25.516,1035.811s-45.413,16.17-47.508-20.115c0,0-5.32-21.816-33.66-20.32,0,0,21.968-24.514-9.144-32.241s-36.139,16.791-36.139,16.791,4.986-23.928-18.909-21.3c0,0,33.983-18.359,28.663-40.176,0,0,38.533,31.94,76.47,5.1,0,0-19.044,31.487,17.54,41.838,0,0-18.818,11.168-15.146,23.837s24.892-.6,24.892-.6S-65.573,1030.877-25.516,1035.811Z" transform="translate(659.671 -710.057)" fill="#ededed"/><path d="M50.229,1049.635s-36.885-22.793-57.354-3.829c0,0,13.423-31.86-10.643-43.635,0,0,61.177,14.251,72.2-15.511s-21.59-31.94-21.59-31.94,41.385-10.792,36.816-43.856c0,0,7.645,37.788,41.758,34.417,0,0-38.837,6.444-21.673,36.959C89.744,982.241,25.867,1008.474,50.229,1049.635Z" transform="translate(929.271 -723.415)" fill="#ededed"/><g transform="translate(1558.251 254.998)"><path d="M221.774,956.7a57.968,57.968,0,0,0-5.284-15.179A62.833,62.833,0,0,0,221.774,956.7Z" transform="translate(-216.49 -924.44)" fill="#ededed"/><path d="M607.789,1129.248c101.809-36.037,148.721,40.825,148.721,40.825s6.908-103.446-147.964-72.53c0,0-10.745-45.029-57.6-29.822-7.675,31.084-31.838,19.37-31.838,19.37,15.72-32.4-25.411-42.362-25.411-42.362,1.805-14.174-20.024-32.592-20.024-32.592s-1.717-88.741-144.008-63.1c0,0-62.977-40.88-111.259,18.547,63.8-29.649,129.478,10.925,129.478,10.925,30.963-6.968,50.83,16.949,50.83,16.949,43.108-2.769,53.676,25.046,53.676,25.046,23.842-1.8,26.087,32.241,26.087,32.241,34.488,7.951,17.391,44.085,17.391,44.085l7.523,22.658c-10.77,25.952-36.319,19.475-36.319,19.475s21.515,33.064-11.548,37.633-40.333-21.893-40.333-21.893c-34.637,11.242-48.43-19.05-48.43-19.05,8.44,25.853-24.817,33.362-24.817,33.362-34.11-30.519,16.377-59.215,16.377-59.215-45.4,20.254-68.6-4.58-68.6-4.58,21.316,36-4.76,71.285-4.76,71.285,38.011-11.016,51.5,23.771,51.5,23.771,31.416-13.716,52.39,13.586,52.39,13.586,20.08-43.922,78.96-1.427,78.96-1.427,40.634.456,37.257,34.116,37.257,34.116,64.112-9.042,49.629,34.944,49.629,34.944,38.166-47.155,102.938-19.108,102.938-19.108l-62.37-47.089c-48.734,2.393-38.607-30.819-38.607-30.819-55.479-15-14.464-54.055-14.464-54.055C574.734,1099.843,607.789,1129.248,607.789,1129.248Z" transform="translate(-213.12 -935.331)" fill="#ededed"/></g></g><g transform="translate(1621.351 363.282)"><path d="M244.747,1373.561c-15.88-12.3,6.83-39.37,22.095-30.532,0,0-2.007-14.461,9.24-23.7s27.319-1.607,34.549-4.821,12.054-14.864,23.7-13.257,27.721,17.675,34.149,12.454,19.685-20.488,29.729-15.667,21.692,7.23,28.522,4.417,11.651-32.942,40.976-30.932,36.559,12.454,46.2,4.82.8-26.112,13.658-26.112,11.25-18.078,20.491-12.857,8.034-21.291,25.709-20.888,26.515,9.641,26.515,9.641-32.139-71.909,39.773-84.766,68.295,48.21,73.919,51.824c0,0,17.675-26.112,37.763-8.838s6.027,38.969,6.027,38.969,12.454-18.885,32.942-13.258,6.828,21.292,14.461,23.7,18.881-20.088,31.335-14.061,22.095,11.651,32.539,0,17.678-28.925,34.149-20.488,25.712,12.855,42.986,6.027,21.692-17.274,34.146-10.447,20.891.4,20.891.4,14.461-69.5,71.908-60.664,65.885,44.593,85.169,34.149,13.672-33.79,47.445-27.183-27.9-84.435,60.208-83.7c0,0-40.383-77.828,35.242-99.122s105.729,27.9,105.729,27.9,34.508-30.1,54.333-5.138c0,0,9.544-43.32,50.661-55.067s66.815,11.013,66.815,11.013-8.81-35.976,41.852-35.976,51.4,31.57,51.4,31.57,68.284-33.773,74.89,16.154,42.586,13.216,60.943,30.1,8.075,52.13,8.075,52.13,12.482-17.622,36.711-8.078,23.5,35.979,23.5,35.979,44.052-22.029,70.484,2.935,16.153,55.068,16.153,55.068.735-6.607,29.37-4.4,11.748,29.367,11.748,29.367,10.279-28.633,60.206-19.823,39.648,45.521,73.424,49.193,54.333-29.37,93.247-19.088,39.648,33.773,39.648,33.773,32.3-21.292,44.789,13.216c0,0,27.167-27.9,58,2.2s8.078,56.536,8.078,56.536,33.773-15.419,43.317,13.216-15.419,44.787-15.419,44.787,34.51-19.089,39.648,2.937,40.383,13.216,36.713,25.7,33.039,16.154,27.9,34.51-69.752,1.466-71.956,16.886-43.32,15.419-43.32,15.419-7.341,24.963-40.383,20.56-35.242-28.636-35.242-28.636-13.216,45.1-85.906,29.155-49.193-69.537-49.193-69.537-22.76,44.786-64.612,29.37-47.724-36.714-47.724-36.714-11.016,74.159-120.414,73.425-139.505-30.1-139.505-30.1-13.95,41.639-76.359,36.973-85.906-32.567-85.906-32.567-42.583,49.927-93.247,40.383-61.241-40.383-61.241-40.383-39.347,42.586-76.058,1.469c0,0-6.609,25.7-56.536,11.013s-19.826-2.937-63.878.734-72.69-18.357-72.69-18.357-26.432,42.586-86.638,27.167-33.776-61.674-33.776-61.674-31.57,24.229-52.13-8.813c0,0-7.341,48.461-63.877,42.586s-62.409-32.3-62.409-32.3-8.813,55.065-67.549,30.836c0,0,8.075,32.307-41.117,28.635,0,0-29.37,27.9-64.612,7.344S739.5,1383.79,739.5,1383.79s-17.622,23.495-33.039-.734c0,0,0,46.257-44.789,35.245s-49.927-35.979-69.018-22.029-57.271,5.875-57.271,5.875,2.2,24.963-41.849,27.9-71.956-22.764-71.956-22.764-13.95,23.5-41.851,5.141-30.836-27.9-30.836-27.9-11.016,24.229-49.2,13.216-33.773-24.229-33.773-24.229S258.082,1383.889,244.747,1373.561Z" transform="translate(-239.345 -901.403)" fill="#fff"/><g transform="translate(0.004 287.795)"><path d="M856.142,1008.163c.447-.828.906-1.643,1.314-2.518C857.456,1005.645,856.951,1006.567,856.142,1008.163Z" transform="translate(846.729 -1005.645)" fill="#ededed"/><path d="M404.353,1062.675l-.03-.143Z" transform="translate(51.149 -905.476)" fill="#ededed"/><path d="M574.01,1049.2c.036-.3.086-.588.11-.905C574.12,1048.293,574.065,1048.621,574.01,1049.2Z" transform="translate(349.94 -930.549)" fill="#ededed"/><path d="M930.822,1015.99a44.387,44.387,0,0,0,16.557-7.236A165.953,165.953,0,0,0,930.822,1015.99Z" transform="translate(978.228 -1000.17)" fill="#ededed"/><path d="M2513.4,1194.227c5.138-18.357-31.573-22.029-27.9-34.51s-31.573-3.672-36.711-25.7c-2.369-10.143-10.963-11.56-19.549-10.143,23.125,3.975,1.764,19.2,1.764,19.2s28.57,3.788,6.01,28.32-37.762,5.149-37.762,5.149c-24.889,31.755-59.217,9.442-59.217,9.442-40.338,16.306-46.346-18.881-46.346-18.881-28.321-9.442-11.156-35.187-11.156-35.187-25.745,0-21.455-12.874-21.455-12.874,29.309,3.685,40.336-24.031,40.336-24.031-23.172,28.321-59.217,7.725-59.217,7.725-8.581,21.454-27.462,12.871-27.462,12.871s27.462,30.9-16.306,26.606-7.724-51.492-7.724-51.492-19.74,15.446-34.329,7.722-6.866-24.03-6.866-24.03-14.591,3.435-28.321-18.881c-8.751-14.221,11.422-27.735,27.211-35.673-25.155,5.522-52.959-8.095-52.959-8.095-9.442,28.321-31.755,19.74-31.755,19.74,11.156,19.737-20.6,35.187-20.6,35.187s30.037,24.886,0,55.783-54.068,14.591-54.068,14.591,13.73,20.6-27.465,37.76-63.507-14.589-63.507-14.589c-1.717,30.038-52.351,33.47-64.366,24.031s-2.576-18.023,5.149-33.473-13.732-24.027-13.732-24.027c-1.714-19.74,28.323-22.316,28.323-22.316,15.447-61.79,84.1-35.187,84.1-35.187-18.57-13.371-.5-52.437,4.693-62.707-21.065,39.008-81.933,27.52-81.933,27.52-26.6,40.336-79.813,9.439-79.813,9.439,21.454,29.182-24.031,53.213-24.031,53.213,12.015,91.828-80.674,71.232-80.674,71.232-10.3,50.634-75.523,42.053-75.523,42.053-42.053,19.737-57.5-12.874-57.5-12.874,18.879-8.583,5.149-30.038,5.149-30.038,30.038-11.157,29.179-48.919,29.179-48.919-15.45,35.187-65.225,29.179-65.225,29.179-1.717,54.927-42.911,29.179-42.911,29.179-36.046,25.748-39.477-3.431-39.477-3.431-50.636-.859-41.195-35.187-41.195-35.187-37.763,2.573-42.053-26.607-42.053-26.607-6.866,61.793-62.652,24.031-62.652,24.031s31.755,47.2-48.061,37.763c-72.933-8.628-72.77-44.325-72.2-50.421-2.612,22.25-29.927,8.368-29.927,8.368-15.447-34.328,49.778-34.328,49.778-34.328-58.358,1.714-78.1-68.659-78.1-68.659.859,51.492-29.179,47.2-29.179,47.2,14.591,47.2-26.606,40.335-26.606,40.335-25.745,39.48-61.79,13.732-61.79,13.732s-26.606,12.874-40.336-10.3S962.584,1083,962.584,1083c-30.9,14.588-66.371-15.45-66.371-15.45,16.021,24.889-9.152,33.473-9.152,33.473s20.6,30.9,0,36.046-25.748-6.866-25.748-6.866-20.6,12.874-44.629-4.29,0-30.038,0-30.038c-45.485,22.313-75.523,0-75.523,0s24.03,17.164,12.874,41.194-29.179,6.008-29.179,6.008,24.03,25.745,0,37.76c-23.125,11.565-29.558-17.4-30.008-19.594.456,2.314,5.919,34.215-41.225,35.044-48.919.858-47.2-36.9-47.2-36.9l28.321-20.6c-33.47,22.313-74.667-8.583-74.667-8.583-.856,33.469-31.752,27.462-31.752,27.462-3.434,29.179-33.47,23.172-33.47,23.172s20.6,38.621-12.874,34.331-27.465-24.889-27.465-24.889-30.9,12.874-52.351,5.172-20.6-19.762-20.6-19.762a35.531,35.531,0,0,1-26.606,12.015c-17.164,0-21.454-8.58-21.454-8.58s3.432,15.446-27.465,16.305-25.748-24.889-25.748-24.889-22.313,17.164-29.179,7.725c-3.087-4.246-3.39-11.088-2.8-17.339-8.581,6.993-13.26,19.977-3.575,27.482,13.335,10.328,21.176-.05,21.176-.05s-4.406,13.216,33.773,24.229,49.2-13.216,49.2-13.216,2.935,9.544,30.836,27.9,41.852-5.141,41.852-5.141,27.9,25.7,71.956,22.763,41.852-27.9,41.852-27.9,38.18,8.076,57.268-5.875,24.229,11.013,69.018,22.028,44.789-35.245,44.789-35.245c15.419,24.229,33.039.734,33.039.734s-17.62,27.9,17.622,48.461,64.612-7.344,64.612-7.344c49.193,3.671,41.117-28.635,41.117-28.635,58.737,24.232,67.549-30.836,67.549-30.836s5.872,26.432,62.409,32.3S1056.684,1170,1056.684,1170c20.56,33.042,52.13,8.813,52.13,8.813s-26.432,46.255,33.776,61.675,86.638-27.167,86.638-27.167,28.635,22.029,72.69,18.357,13.951-15.42,63.877-.735,56.536-11.013,56.536-11.013c36.711,41.117,76.058-1.469,76.058-1.469s10.58,30.836,61.241,40.383,93.247-40.383,93.247-40.383,23.5,27.9,85.906,32.567,76.359-36.973,76.359-36.973,30.1,29.37,139.505,30.1,120.413-73.424,120.413-73.424,5.873,21.295,47.724,36.714,64.612-29.37,64.612-29.37-23.494,53.6,49.193,69.537,85.906-29.155,85.906-29.155,2.2,24.229,35.242,28.636,40.383-20.56,40.383-20.56,41.117,0,43.32-15.419S2508.257,1212.581,2513.4,1194.227Z" transform="translate(-239.347 -1004.039)" fill="#ededed"/></g><path d="M793.136,1214.565s-11.477-71.991-94.1-65.106c0,0-10.328-22.951-32.133-18.36,0,0,34.428-24.1,0-40.165,0,0,3.443-42.459-52.785-26.394,0,0,17.211-19.508,61.967-12.622,0,0,33.276-32.131,3.443-50.493,0,0,22.951-34.425-5.74-47.047H716.7s-1.6,34.425,27.089,28.688c0,0-9.18,37.867,30.982,39.016,0,0-5.737,17.214,18.362,21.8,0,0-44.756,11.173-37.87,40.587,0,0,5.74,14.191,22.951,0,0,0-17.211,11.341,3.443,27.263,0,0,1.149,31.987,39.016,5.594,0,0-16.065,10.328-9.18,39.016C811.5,1156.345,793.136,1179.834,793.136,1214.565Z" transform="translate(420.573 -808.121)" fill="#ededed"/><g transform="translate(1321.578 72.972)"><path d="M737.312,1034.532c1,3.7,1.855,5.922,1.855,5.922C738.573,1038.4,737.95,1036.437,737.312,1034.532Z" transform="translate(-684.086 -739.957)" fill="#ededed"/><path d="M718.033,1017.234a57.673,57.673,0,0,0,8.291.32A29.994,29.994,0,0,0,718.033,1017.234Z" transform="translate(-718.033 -770.669)" fill="#ededed"/><path d="M970.941,1089.48s-54.14-30.75-28.688-67.706c0,0-11.261-28.878,25.45-36.954,0,0,10.278-35.245-8.075-52.13-5.155-4.74-11.7-5.256-18.583-4.652.025.005,26.449,6.535,13.832,30.623,0,0-29.836,0-32.131,17.211,0,0-27.542-13.768-44.756,3.443,0,0,17.214,29.836-29.836,35.576,0,0,36.722,0,33.279,32.13s-40.165,14.917-40.165,14.917,0,26.394-26.394,19.508-44.753-27.539-44.753-27.539-6.886,17.057-25.245,14.265c0,0,17.214,28.193-17.214,36.225,0,0,20.657,13.771,0,30.985,0,0,28.688-4.655,24.1,19.475-3.139,16.5-20.232,19.571-30.725,19.861,11.546,1.847,32.445,10.533,44.935,47.691-4.3-15.916-11.206-59.234,36.28-71.169,0,0,6.886-54.875,76.887-61.76C879.138,1089.48,898.646,1053.907,970.941,1089.48Z" transform="translate(-712.745 -927.834)" fill="#ededed"/></g><path d="M779.24,1047s-28.688,3.443-13.768-33.279c0,0-31.551-32.131-4.3-56.23,0,0-45.043,5.74-40.455-26.394,0,0,3.443,30.985-21.8,36.722,0,0,25.245,8.034,0,27.542,0,0,34.425-10.328,24.1,13.771L739.078,989.1s2.523,15.049,12.623,25.778C751.7,1014.874,737.929,1059.627,779.24,1047Z" transform="translate(569.878 -849.108)" fill="#ededed"/></g></g></g></svg>