<svg xmlns="http://www.w3.org/2000/svg" width="18.24" height="13.599" viewBox="0 0 18.24 13.599"><path d="M-1628.987,1091.307q.778-.55,1.6-1.04c.27-.163.519-.37.8-.516.141-.074.281-.146.42-.225s.285-.161.429-.24c.559-.307,1.11-.627,1.677-.92.283-.146.557-.31.837-.463s.562-.3.847-.446c.645-.327,1.287-.661,1.943-.965a1.038,1.038,0,0,0,.371-.371,1.029,1.029,0,0,0,.141-.522,1.048,1.048,0,0,0-.512-.893c-.621-.379-1.221-.8-1.819-1.211s-1.19-.841-1.775-1.276q-.5-.371-.992-.752l.2.156c-.335-.259-.673-.513-1.008-.771q-.587-.456-1.164-.923-.313-.254-.623-.512c-.253-.21-.523-.4-.788-.594q-.341-.251-.679-.508c-.021-.016-.042-.034-.063-.049a.526.526,0,0,0-.214-.084c-.034-.012-.068-.027-.1-.041l-.065-.027c-.066-.032-.123-.08-.187-.116a1.446,1.446,0,0,0-.235-.1.519.519,0,0,0-.144-.051c-.041-.014-.139-.05-.048-.008h0a.409.409,0,0,0-.41,0,.5.5,0,0,0-.119.108.134.134,0,0,1-.028.039.394.394,0,0,0-.013.386c-.008-.019-.008-.026.007.015l0,.011v0l.018.047c0,.009,0,.019,0,.028a.351.351,0,0,0,.068.145c.018.035.033.071.049.106a.968.968,0,0,0,.118.184,1.784,1.784,0,0,1,.17.3,2.339,2.339,0,0,0,.485.614l.362.388c.121.129.242.258.365.385s.268.247.4.368q.79.708,1.6,1.392c.959.807,1.955,1.571,2.969,2.309-.144-.012-.289-.024-.433-.037-.04-.011-.079-.023-.119-.032a2.493,2.493,0,0,0-.286-.035l-.338-.034c-.208-.021-.416-.046-.624-.063-.422-.034-.843-.066-1.265-.09q-1.257-.069-2.514-.141c-.838-.047-1.676-.094-2.514-.128s-1.687-.051-2.531-.064c-.472-.008-.945-.009-1.417-.011l-.692,0a2.686,2.686,0,0,0-.517.051l-.349.066-.156.066a.5.5,0,0,0-.184.169.623.623,0,0,0-.141.4.673.673,0,0,0,.481.631l.285.078a2.573,2.573,0,0,0,.5.087l.624.046c.422.031.844.065,1.266.091.832.051,1.664.108,2.5.138,1.676.061,3.352.089,5.029.126.473.011.945.022,1.417.018.236,0,.473-.008.709-.014l.338-.008a3.23,3.23,0,0,0,.4-.036c.107-.008.218,0,.324,0l.149,0q-.4.217-.791.446c-.279.163-.542.36-.805.546s-.518.377-.773.572c-.311.238-.619.485-.911.747-.057.051-.11.105-.163.161a2.133,2.133,0,0,1-.184.161q-.187.158-.371.318c-.268.233-.514.491-.76.747s-.506.53-.753.8a.562.562,0,0,0-.043.732A.552.552,0,0,0-1628.987,1091.307Z" transform="translate(1638.168 -1077.788)" fill="#ffdf80"/><path d="M-1615.748,1079.56a.262.262,0,0,0,.012.027h0C-1615.741,1079.578-1615.744,1079.569-1615.748,1079.56Z" transform="translate(1623.206 -1078.971)" fill="#ffdf80"/></svg>