<svg xmlns="http://www.w3.org/2000/svg" width="85.428" height="81.367" viewBox="0 0 85.428 81.367"><path d="M2960.245,346.345c-.373.04-.745.077-1.118.115q-7.063.726-14.145,1.26a405.892,405.892,0,0,1-50.39.894q-3.35-.168-6.7-.4-1.576-.112-3.154-.241a26.636,26.636,0,0,1-2.786-.243c-.766-5.445-1.355-10.939-1.84-16.462,26.659.281,54.649.1,81.209-.307a29.2,29.2,0,0,0-.167,3.423,2.262,2.262,0,0,1-.055.836,2.494,2.494,0,0,1-1.014,1.32,6.336,6.336,0,0,1-2.609.785l-11.071,1.65c2.851,0,5.7-.066,8.551-.1a14.947,14.947,0,0,1,3.649.063c.979.243,1.987.2,2.962.5.045.014-.264,1.925-.292,2.105a5.631,5.631,0,0,1-.43,1.4A10.126,10.126,0,0,0,2960.245,346.345Zm-81.9-45.474a27.025,27.025,0,0,0,.4,5.3c.473,1.023,1.808,1.229,2.931,1.3l9.521.6-12.375.733a29.241,29.241,0,0,1,.026,3.472,6.228,6.228,0,0,0-.058,2.69c.607,1.5,3.024,1.186,4.276,1.217q7.081.185,14.165.3,7.128.12,14.263.175,7.15.06,14.3.049,7.132,0,14.271-.08c.816-.006,1.633.006,2.446-.057a.79.79,0,0,1,.584.083c.476.378.295,1.444.256,1.953a11.153,11.153,0,0,0,.108,2.753c.028.178.105.4.283.41a.37.37,0,0,0,.292-.178c.84-1.066.235-2.612.347-3.962a1.034,1.034,0,0,1,.261-.682,1.149,1.149,0,0,1,.722-.235c2.948-.235,5.912-.238,8.881-.295q3.866-.073,7.736-.169.267-7.82.332-15.643C2935.272,299.427,2906.286,299.376,2878.345,300.871Zm42.034-15.262q7.132.017,14.265.06,7.1.043,14.2.106,6.721.065,13.443.143c-.006-.547-.015-1.094-.017-1.641a7.247,7.247,0,0,1,.143-1.046,8.478,8.478,0,0,0-.473-3.022.737.737,0,0,0-.206-.392.773.773,0,0,0-.47-.109q-5.578-.035-11.144-.47a90.093,90.093,0,0,0,10.146-1.736,1.841,1.841,0,0,0,1.366-.8c.252-.533-.009-1.137.021-1.7a5.95,5.95,0,0,1,.264-1.114,18.691,18.691,0,0,0-.015-4.048c-27.76-2.4-57.129-3.042-84.734-.768-.095.009.252,4.176.243,4.712a10.88,10.88,0,0,1-.312,1.7,2.259,2.259,0,0,0,.021,1.323c.321.722,1.246.894,2.028.971l8.722.862a15.669,15.669,0,0,0-2.5.149q-1.323.095-2.641.223t-2.636.292a18.064,18.064,0,0,0-2.614.367c-.026.653.02,1.306-.032,1.965a5.983,5.983,0,0,0,.021,1.361c.054.347.148.685.209,1.028.1.564.052,1.146.143,1.7a29.118,29.118,0,0,0,3.5-.02c1.175-.011,2.346-.02,3.521-.029q3.532-.022,7.063-.04c.96-.006,1.923-.04,2.882,0a1.326,1.326,0,0,1,1.395,1.074,3.962,3.962,0,0,1-.034,1.438,42.294,42.294,0,0,0-.529,6.434,3.521,3.521,0,0,0,.32,1.687,1.319,1.319,0,0,0,1.444.7,1.358,1.358,0,0,0,.839-1.189,5.014,5.014,0,0,0-.188-1.521c-.272-1.3-.192-2.655-.521-3.933-.092-.352-.235-.687-.3-1.045a14.192,14.192,0,0,1,.229-3.712.489.489,0,0,1,.123-.335.5.5,0,0,1,.389-.06,28.56,28.56,0,0,0,3.5.221c1.171,0,2.326-.155,3.494-.195a9.4,9.4,0,0,1,2,.3,19.459,19.459,0,0,0,3.269.083Q2915.293,285.595,2920.379,285.609Z" transform="translate(-2877.012 -267.663)" fill="#fff"/></svg>