<svg xmlns="http://www.w3.org/2000/svg" xmlns:xlink="http://www.w3.org/1999/xlink" width="387.788" height="118.123" viewBox="0 0 387.788 118.123"><defs><linearGradient id="a" x1="0.541" y1="-0.75" x2="0.405" y2="3.337" gradientUnits="objectBoundingBox"><stop offset="0" stop-color="#cf5c2b"/><stop offset="1" stop-color="#59173e"/></linearGradient><linearGradient id="c" x1="0.508" y1="-0.231" x2="0.465" y2="3.381" xlink:href="#a"/><linearGradient id="d" x1="0.5" y1="1.567" x2="0.5" y2="0.724" xlink:href="#a"/><linearGradient id="e" x1="0.5" y1="-0.049" x2="0.5" y2="0.504" gradientUnits="objectBoundingBox"><stop offset="0" stop-color="#ffca2b"/><stop offset="1" stop-color="#d15b24"/></linearGradient></defs><g transform="translate(0)"><g transform="translate(-531.32 -248.191)"><path d="M912.113,317.145c-.552,1-1.1,2.024-1.674,3.01-.217.419-.45.82-.685,1.221-1.689,3.008-3.511,5.969-5.5,8.811q-1.606,2.307-3.36,4.464c-1.1,1.321-2.024,2.693-3.662,3.429a6.087,6.087,0,0,1-.853.317,14.521,14.521,0,0,1-2.926.468c-2.826.268-5.634.537-8.443.8-.069,0-.151.018-.217.018-1.523.151-3.043.284-4.566.434a53.221,53.221,0,0,1,14.815,1.388,17.007,17.007,0,0,1-2.977,5.016c-4,4.648-7.791,10.1-12.925,13.612-2.76,1.888-5.384,2.407-8.662,2.859a187.052,187.052,0,0,1-20.182,1.219q-35.263,1-70.526,1.454-17.156.2-34.294.3c-2.826,0-5.652.018-8.478.033q-13.967.027-27.922,0-35.439-.123-70.878-.769-8.681,0-17.358-.217c-12.84-.284-25.683-.8-38.506-1.1-5.836-.133-11.621.184-16.637-3.342a55.725,55.725,0,0,1-7.926-7.426l-.751-.8q-3.312-3.511-6.4-7.224c-1.707-2.039-3.378-4.1-5.151-6.084a19.527,19.527,0,0,1-1.955-2.826,13.894,13.894,0,0,1-2.024-4.165.937.937,0,0,1,.1-.769.91.91,0,0,1,.6-.266c4.178-.736,8.527-.335,12.641-1.155a15.751,15.751,0,0,0,2.456-.652c-3.794-.018-7.589-.033-11.386-.067a27.44,27.44,0,0,1-2.859-.118c-.368-.051-.718-.1-1.086-.184a9.257,9.257,0,0,1-4.449-2.507,9.623,9.623,0,0,1-1.554-2.09c-1.689-3.161-3.393-6.322-4.9-9.582-1.17-2.558-2.911-5.517-3.094-8.361a4.074,4.074,0,0,1-.015-.434,13.7,13.7,0,0,1,1.17-5.634,63.053,63.053,0,0,1,4.814-8.494c2.726-4.482,5.785-8.762,8.928-12.958q5.017-6.723,10.518-13.06c.669-.784,1.321-1.538,1.973-2.256a59.884,59.884,0,0,1,8.644-8.427c7.308-5.719,17.322-5.668,26.018-5.8,11.169-.184,22.072-.284,33.091-.417,4.732-.066,9.447-.118,14.179-.169s9.447-.082,14.179-.133c4.714-.033,9.429-.084,14.161-.118,4.714-.033,9.429-.049,14.146-.084,4.714-.015,9.414-.049,14.128-.066s9.414-.015,14.128-.033q7.049-.023,14.113-.015,7.049,0,14.095.015,7.022,0,14.08.033l14.062.051c4.7.033,9.381.051,14.062.084s9.365.066,14.046.115c4.681.033,9.363.084,14.028.118,4.681.051,9.347.1,14.028.169q7,.073,14,.184l14,.2q7,.1,13.977.235c4.449.082,8.627.368,12.641,2.157a17.4,17.4,0,0,1,1.6.8,43.931,43.931,0,0,1,11.371,9.715c.769.869,1.554,1.738,2.307,2.624a43.449,43.449,0,0,1,3.71,4.714c1.321,1.991,2.576,4.014,3.731,6.1.3.552.6,1.3.184,1.789a1.384,1.384,0,0,1-.754.4c-.033.018-.067.018-.1.033a52.621,52.621,0,0,1-12.391,1.74c1.855.317,3.728.585,5.619.769a73.84,73.84,0,0,0,7.441.468c1.789.033,3.695.033,5.248.935.033.018.051.033.084.051,1.873,1.153,2.875,3.611,3.945,5.45,1.188,2.072,2.341,4.163,3.646,6.186a30.126,30.126,0,0,1,2.323,4.865c.169.386.319.754.47,1.122a29.621,29.621,0,0,1,1.888,5.016C916.493,308.886,914.252,313.3,912.113,317.145Z" transform="translate(3.381 0)" fill="url(#a)"/><path d="M887.473,268.886a15.176,15.176,0,0,0,3.491,5.918,1.643,1.643,0,0,1,.6,1.037,1.553,1.553,0,0,1-.217.675q-1.594,3.162-3.189,6.329l-1.617,3.212a10.627,10.627,0,0,0-.644,1.421,9.342,9.342,0,0,1-1.766,2.7,54.673,54.673,0,0,1-3.991,4.8,15.142,15.142,0,0,0-1.748,1.617c-1.469,2-2.915,4.053-4.188,6.186a9.382,9.382,0,0,0-.774,2.489,3.692,3.692,0,0,1-.659,1.25c-1.508,1.932-3.623,3.358-5.361,5.067a47.525,47.525,0,0,1-4.625,4.533c-4.4,3.273-10.185,2.246-15.633,2.844-10.87,1.193-21.842.11-32.774-.258-15.61-.524-29.963,1.768-45.578,1.543l-22.686-.33,2.146,4.058c-7.221-3.91-15.786-4.2-24-4.311-9.789-.13-19.581-.13-29.37-.13a10.07,10.07,0,0,0-4.909.828c-1.469.808-2.5,2.686-1.784,4.2-.672-3.2-4.845-3.933-8.116-3.971l-89.611-1.05c-3.5-.041-7.007-.087-10.5-.276a85.9,85.9,0,0,1-9.912-1.048c-1.63-.281-3.25-.623-4.85-1.045q-1.2-.314-2.384-.69a8.8,8.8,0,0,1-2.5-1.347,4.635,4.635,0,0,1-1.423-1.262,57.907,57.907,0,0,0-4.832-6.715c-1.257-1.559-2.581-3.061-3.935-4.538q-1.031-1.127-2.08-2.236a28.331,28.331,0,0,1-3.82-5.706,221.872,221.872,0,0,1-10.369-21.837c8.407,10.627,18.081,20.741,26.488,31.366,2.249,2.841,4.6,5.77,7.827,7.423,3.3,1.686,7.142,1.85,10.847,1.973q134.247,4.442,268.559-2.031c4.947-.238,10.1-.544,14.425-2.956,3.531-1.973,6.189-5.177,8.614-8.412C877.49,291.05,883.088,279.449,887.473,268.886Z" transform="translate(12.6 32.186)" fill="#eb924d"/><path d="M640.027,258.007a8.729,8.729,0,0,1-2.65,2.647,8.516,8.516,0,0,1-5.133.577q-1.756-.2-3.485-.565a28.457,28.457,0,0,1,6.133-1.454,4.327,4.327,0,0,0,1.543-.368,4.138,4.138,0,0,0,1.124-1.027q1.364-1.587,2.816-3.092t2.987-2.931q.425-.395.858-.782l.444-.4a1.471,1.471,0,0,1,.376-.307c-.572,1.045-1.255,2.047-1.888,3.056s-1.293,2.019-1.97,3.008C640.806,256.921,640.423,257.47,640.027,258.007Z" transform="translate(160.181 3.293)" fill="#eb924d"/><path d="M542.1,264.4a1.457,1.457,0,0,1,.526.233,1.492,1.492,0,0,1,.347,1.247c-.026.836-.054,1.674-.079,2.509q1.606-2.744,3.12-5.537a11.041,11.041,0,0,0-5.54-.856l-2.5.046-1.275.023-.585.013c-.1,0-.47-.054-.55.023-.388.37,1.278.764,1.423.807q1.2.349,2.4.7Z" transform="translate(15.161 21.448)" fill="#eb924d"/><path d="M545.338,284.212a9.124,9.124,0,0,1-1.364-4.681,1.469,1.469,0,0,1,.238-.777,1.748,1.748,0,0,1,1.145-.516q9.092-1.614,18.28-2.6a9.366,9.366,0,0,0-3.818-.388,117.817,117.817,0,0,1-12.424-.059,20.7,20.7,0,0,0-7.1.337,57.41,57.41,0,0,1,2.33,5.445,10.331,10.331,0,0,0,3.491,4.686A6.654,6.654,0,0,0,545.338,284.212Z" transform="translate(22.603 41.782)" fill="#eb924d"/><path d="M673.413,270.447a12.148,12.148,0,0,1,4.065,1.058,5.454,5.454,0,0,1,2.8,3.015,8.449,8.449,0,0,1-.015,4.027,10.132,10.132,0,0,0,2.193-3.927,1.755,1.755,0,0,0,.095-.8,1.892,1.892,0,0,0-.261-.593q-.977-1.663-2.019-3.286a3.1,3.1,0,0,0-.647-.8,3.009,3.009,0,0,0-1.464-.5c-.156-.023-.312-.043-.47-.064a34.057,34.057,0,0,0-5.256-.189,4.133,4.133,0,0,1-.925-.064,2.84,2.84,0,0,0-.994.072c-.864.143-1.733.258-2.6.345s-1.745.153-2.619.189c-.437.018-.874.028-1.313.033-.217,0-.437.005-.654,0a3.712,3.712,0,0,1-.631-.008c.7.13,1.406.261,2.108.4q1.3.249,2.6.514c.432.089.864.179,1.3.271a1.15,1.15,0,0,0,.447.028,3.227,3.227,0,0,1,.736,0c1.048.064,2.1.128,3.143.24C673.153,270.416,673.283,270.431,673.413,270.447Z" transform="translate(212.961 31.275)" fill="#eb924d"/><path d="M890.361,302.288a53.157,53.157,0,0,0-3.7-7.474c-1.84-3.077-3.912-6.22-6.153-9.347-5.568-7.758-11.854-18.091-20.4-22.806a2.393,2.393,0,0,0-.416-.2c-1.457-.652-3.764-.818-6.789-.869q-7-.126-13.962-.235c-4.648-.066-9.314-.151-13.962-.2-4.663-.066-9.314-.135-13.977-.184-1.349-.015-2.7-.038-4.043-.054-3.156-.041-6.319-.008-9.47-.2-1.4-.087-2.778.1-4.175,0a36.324,36.324,0,0,1-5.126-.647q2.357-5.025,4.717-10.047a59.32,59.32,0,0,0-4.8,5.875,16.739,16.739,0,0,1-2.328,2.877,7.967,7.967,0,0,1-2.274,1.71,7.574,7.574,0,0,1-2.494.319c-3.514.054-7.047.233-10.533-.043-6.38-.5-12.856-.25-19.256-.281-17.5-.082-35.01-.141-52.513-.079-4.715.018-9.414.018-14.11.033-9.4.036-18.812.1-28.225.151-4.715.033-9.429.084-14.128.117-4.715.051-9.432.084-14.146.133-13.175,0-26.368.319-39.543.5-6.774.1-18.845-1.84-24.63,2.675-3.11,2.44-5.251,4.916-8.512,8.693-.672.777-1.321,1.577-2,2.346a13.615,13.615,0,0,0-1.188,1.239,12.15,12.15,0,0,1-1.39,1.952,5.657,5.657,0,0,1-1.985,1.27,11.419,11.419,0,0,1-3.547.531l-4.9.22a8.828,8.828,0,0,0-3.795.736,23.873,23.873,0,0,1,10.208,1.546.479.479,0,0,1,.307.233.472.472,0,0,1-.1.4,9.241,9.241,0,0,1-1.73,2.118,14.139,14.139,0,0,0-1.638,2.205q-1.012,1.387-2,2.793c-1.461,2.088-2.877,4.209-4.2,6.391q-.629,1.027-1.306,2.105c-.7,1.1-1.671,2.642-2.208,3.713.184.4.386.82.552,1.17.319.618.6,1.237.887,1.822a106.974,106.974,0,0,0,7.19,13.109c2.458,3.83,5.1,7.543,7.842,11.054,2.793,3.544,5.767,6.989,8.877,10.231l.92.953c2.325,2.458,4.081,4.916,7.676,5.016,20.314.57,40.647,1.472,60.964,1.472h.284q24.2.448,48.4.641c1.579.01,3.194-.112,4.794-.11q2.484,0,4.965,0a.955.955,0,0,1,1.186,1.278q-.9,5.807-1.794,11.611L691.63,348.9a1.824,1.824,0,0,1,.47-.751,1.773,1.773,0,0,1,.963-.3,22.34,22.34,0,0,1,5.008.074,9.587,9.587,0,0,0,2.146.235c.8-.079,1.6-.054,2.4-.054q5.3.015,10.6.01h.529c8.491,0,17-.09,25.481-.1a9.819,9.819,0,0,1,5.387,1.784,22.916,22.916,0,0,1,4.888,4.84,54.742,54.742,0,0,1-1.679-6.312l5.857-.565c1.571-.153,3.064.146,4.648.13,3.966-.038,7.934-.133,11.9-.133,23.358-.3,47.019-.785,70.293-1.436l1.807-.051c5.284-.151,13.962.935,18.843-1.439a6.387,6.387,0,0,0,1.858-1.571c4.2-4.548,8.31-9.3,12.155-14.146,2.374-2.992,4.615-6.036,6.654-9.028,2.675-3.93,5-8.077,7.776-13.075.3-.552,1.086-1.973,1.52-2.977C891.064,303.893,890.545,302.722,890.361,302.288ZM874.912,315.4c-1.922,2.841-4.045,5.7-6.286,8.527-3.462,4.382-7.39,8.946-11.672,13.594a23.224,23.224,0,0,1-5.951.519c-1.321,0-2.642-.033-3.9-.066-1.3-.033-2.525-.066-3.662-.066-.468,0-.92,0-1.354.015l-1.8.051c-23.225.652-46.836,1.137-70.16,1.439-18.661.233-37.621.35-56.382.35q-6.972,0-13.944-.018c-23.342-.082-47.068-.332-70.51-.769h-.353c-14.746,0-29.713-.483-44.191-.953-5.4-.166-10.786-.35-16.17-.5-.368-.335-.92-.935-1.336-1.388-.319-.35-.636-.7-.971-1.037l-.92-.968c-2.926-3.061-5.734-6.288-8.343-9.631-.787-1-1.74-1.914-2.415-2.977l-2.468-3.892a1.264,1.264,0,0,1-.289-.991c.146-.48.754-.6,1.252-.639q11.112-.836,22.218-1.669-10.686-1.039-21.372-2.072a15.463,15.463,0,0,1-4.431-.871,5.793,5.793,0,0,1-2.532-1.919c-.271-.378-.478-.792-.749-1.168a14.516,14.516,0,0,1-1.007-1.755q-.586-1.115-1.142-2.244c-.069-.14-.733-1.239-.659-1.357.419-.652.82-1.288,1.188-1.906,2.44-4.012,5.366-8.041,7.658-11.1,2.959-3.963,6.153-7.909,9.48-11.754,3.043-3.529,4.865-5.634,7.339-7.574.268-.2,1.891-1.237,8.059-1.237,1.924,0,3.9.1,5.8.184,1.822.082,3.529.151,5.116.151h.618q5.945-.077,11.905-.184c9.03-.151,18.36-.319,27.523-.319,4.8-.049,9.5-.082,14.213-.133,4.714-.033,9.413-.084,14.128-.118,9.4-.051,18.794-.118,28.192-.151,4.7-.015,9.4-.015,14.077-.033,4.817-.015,9.649-.015,14.465-.015,26.92,0,54.325.133,83.752.417,4.666.051,9.314.1,13.98.169,4.648.049,9.311.115,13.959.184,4.648.048,9.3.133,13.947.2s9.3.151,13.944.235a23.99,23.99,0,0,1,3.644.217c5.435,3.161,10.367,10.231,14.716,16.469.887,1.27,1.755,2.525,2.591,3.695s2.221,2.374,2.065,3.95a35.059,35.059,0,0,1-15.255,3.2,147.678,147.678,0,0,1,16.962,1.186,3.262,3.262,0,0,1,1.147.291c.856.457,1.111,1.477,1.648,2.213.245.337.6.526.815.879a6.366,6.366,0,0,1,.777,1.679C879.394,308.206,877.253,311.952,874.912,315.4Z" transform="translate(12.724 2.852)" fill="#9b3724"/><path d="M886.817,291.875a17.005,17.005,0,0,1-2.977,5.016c-4,4.648-7.791,10.1-12.925,13.612-2.76,1.888-5.384,2.407-8.662,2.859a187.062,187.062,0,0,1-20.182,1.219q-35.263,1-70.526,1.454-17.156.2-34.294.3c-2.826,0-5.652.018-8.478.033q-13.967.027-27.922,0-35.439-.123-70.878-.769-8.682,0-17.358-.217c-12.84-.284-25.683-.8-38.506-1.1-5.836-.133-11.621.184-16.637-3.342a55.725,55.725,0,0,1-7.926-7.426l-.751-.8q-3.312-3.511-6.4-7.224c-1.707-2.039-3.378-4.1-5.152-6.084a19.528,19.528,0,0,1-1.955-2.826,13.9,13.9,0,0,1-2.024-4.165.937.937,0,0,1,.1-.769.91.91,0,0,1,.6-.266c4.178-.736,8.527-.335,12.641-1.155.718-.033,1.454-.066,2.19-.118a51.022,51.022,0,0,1-9.984,2.259,3.451,3.451,0,0,0-2.157.751c-1,1.053-.468,2.525.118,3.562a29.613,29.613,0,0,0,1.638,2.609,46.852,46.852,0,0,0,3.83,4.832c2.172,2.425,4.513,4.681,6.871,6.938q2.484,2.384,4.983,4.766a23.746,23.746,0,0,0,3.662,3.094,25.213,25.213,0,0,0,7.558,2.859c1.288.335,2.591.636,3.894.887a6.826,6.826,0,0,0,1.405.184,8.778,8.778,0,0,1,1.472.1c1.137.118,2.289.217,3.445.268a64.78,64.78,0,0,0,6.938-.018,20.866,20.866,0,0,0,5.4-.751,5.558,5.558,0,0,1,2.624.049q3.511.479,7.022.953c1.39,0,2.744.57,4.132.452.4-.033.8-.151,1.2-.151a4.231,4.231,0,0,1,.8.051c1.571.233,3.143.618,4.732.836a17.371,17.371,0,0,0,6.3.066c.151-.033.284-.1.45-.151a5.027,5.027,0,0,1,1.505-.051c2.944.069,5.888.135,8.847.184q8.827.2,17.69.368c5.9.135,11.821.253,17.723.368,2.944.069,5.885.169,8.828.184a3.659,3.659,0,0,0,1.122-.184,12.331,12.331,0,0,1,3.041-.383c1.17-.084,2.341-.169,3.529-.235,4.7-.3,9.4-.468,14.113-.534q7.071-.126,14.146-.018c4.7.051,9.413.169,14.128.268,1.038.033,2.072.051,3.11.084,2.877.066,5.734.133,8.611.217a10.708,10.708,0,0,1,2.425.166,6.632,6.632,0,0,0,2.223.319c2.358-.069,4.732-.151,7.106-.22,4.732-.133,9.48-.266,14.212-.383s9.48-.217,14.212-.3c1.3-.033,2.609-.048,3.912-.082,27.505-.486,54.174-1.707,81.679-1.873,2.709-.018,5.486-.051,7.978-1.1,2.422-1.02,4.513-3.245,4.615-5.818a1.406,1.406,0,0,0,1.505,1.119,3.981,3.981,0,0,0,2.072-1.053c4.364-3.462,8.895-7.139,11.2-12.224a43.534,43.534,0,0,0-6.536-2.808A54.47,54.47,0,0,1,886.817,291.875Z" transform="translate(11.605 49.632)" fill="#eb924d"/><path d="M691.484,297.636c-.552,1-1.1,2.024-1.674,3.01-.217.419-.45.82-.685,1.221-1.689,3.008-3.511,5.969-5.5,8.811q-1.606,2.307-3.36,4.464c-1.1,1.321-2.024,2.693-3.662,3.429a6.094,6.094,0,0,1-.854.317c5.435-6.922,10.834-14,14.095-22.172a77.648,77.648,0,0,1,3.58-8.744,2.915,2.915,0,0,0,.5-1.454,2.969,2.969,0,0,0-.4-1.17c-1.538-2.911-3.36-6.087-6.47-7.139-.57-.2-1.288-.57-1.1-1.122.1-.284.4-.417.634-.6,1.055-.838.552-2.509-.049-3.731-1.155-2.341-2.307-4.663-3.462-7a6.1,6.1,0,0,0-1.538-2.226,6.026,6.026,0,0,0-2.44-.986c-3.077-.736-6.186-1.321-9.3-1.8a73.856,73.856,0,0,0,7.441.468c1.788.033,3.695.033,5.248.935.033.018.051.033.084.051,1.873,1.152,2.875,3.611,3.945,5.451,1.188,2.072,2.341,4.162,3.646,6.186a30.13,30.13,0,0,1,2.323,4.865c.169.386.319.754.47,1.122a29.635,29.635,0,0,1,1.888,5.016C695.864,289.377,693.623,293.79,691.484,297.636Z" transform="translate(224.009 19.509)" fill="#eb924d"/><path d="M898.051,277.3a1.384,1.384,0,0,1-.754.4c-2.727-4.114-5.468-8.21-8.192-12.324-1.388-2.072-2.392-3.927-4.548-5.116-1.722-.935-3.209-2.139-5.116-2.709A4.073,4.073,0,0,1,877.2,256.4a7.224,7.224,0,0,1-.585-1.321c-.971-2.057-3.294-1.957-5.1-2.693a4.923,4.923,0,0,0-1.7-.4c-1.773-.1-3.547-.184-5.318-.284l-10.617-.6-18.61-1.053c-3.411-.184-6.84-.386-10.267-.35-3.378.033-6.738.284-10.116.148a11.455,11.455,0,0,1-3.141-.358,9.147,9.147,0,0,0-3.069-.158l-7.574.179c-7.068.166-14.156.5-21.227.5a8.856,8.856,0,0,0-3.889.685,3.3,3.3,0,0,0-1.806,2.962.977.977,0,0,1-.112.552c-.215.261-.508.174-.787.064a8.23,8.23,0,0,1-2.55-2.09c-.524-.547-1.02-1.117-1.525-1.679-.332-.368-.468-.644-.946-.654a8.579,8.579,0,0,0-1.334.2,51.6,51.6,0,0,1-10.318.376,11.55,11.55,0,0,1-2.4-.268,7.467,7.467,0,0,0-1.423-.4c-1.725-.138-3.529.033-5.261.054l-5.323.069-21.293.268-9.26.118a10.95,10.95,0,0,0-4.676.915c-2.126,1.025-.7,3.695-1.035,5.473-.2-2.238-.693-4.888-2.755-5.78a6.328,6.328,0,0,0-2.458-.355l-.319,0q-5.309-.054-10.617-.092c-5.847-.043-11.632-.307-17.481-.391-16.369-.233-32.738.169-49.107.319-7.106.049-14.23.117-21.336.184-1.771.015-3.56.033-5.333.033-8.744.084-17.708.2-25.849,3.345a22.921,22.921,0,0,0-6.577,3.984,9.683,9.683,0,0,0-2.2,2.658A28.964,28.964,0,0,0,570.7,263a16.25,16.25,0,0,1-4.783.56q-3.116.05-6.227.1a10.033,10.033,0,0,0-2.215.2,7.025,7.025,0,0,0-3.266,2.049,9.32,9.32,0,0,0-1.329,1.579c-.25.411-.342.887-.575,1.306a31.66,31.66,0,0,1-2.979,3.871q-1.591,2.028-3.179,4.06c-5.667,7.224-11.419,14.58-14.813,23.125a35.843,35.843,0,0,0-1.773,5.7c-.4,1.873,2.358,2.292,4.114,3.061,1.737.769,3.68,1.17,5.218,2.29a35.322,35.322,0,0,0-6.1-.567,1.242,1.242,0,0,0-1,.3c-.319.35-.151.9.033,1.354a21.354,21.354,0,0,0,1.454,3.077,4.972,4.972,0,0,1,.519,1.62,16.677,16.677,0,0,0,1.17,3.713,17.861,17.861,0,0,0,4.6,6.253,17.549,17.549,0,0,0,3.478,2.359c-.368-.051-.718-.1-1.086-.184a9.257,9.257,0,0,1-4.449-2.507,9.623,9.623,0,0,1-1.554-2.09c-1.689-3.161-3.393-6.322-4.9-9.582-1.17-2.558-2.911-5.517-3.094-8.361a4.074,4.074,0,0,1-.015-.434,13.7,13.7,0,0,1,1.17-5.634,63.053,63.053,0,0,1,4.814-8.494c2.726-4.482,5.785-8.762,8.928-12.958q5.017-6.723,10.518-13.06c.669-.784,1.321-1.538,1.973-2.256a59.884,59.884,0,0,1,8.644-8.427c7.308-5.719,17.322-5.668,26.018-5.8,11.169-.184,22.072-.284,33.091-.417,4.732-.066,9.447-.118,14.179-.169s9.447-.082,14.179-.133c4.714-.033,9.429-.084,14.161-.118,4.714-.033,9.429-.049,14.146-.084,4.714-.015,9.414-.049,14.128-.066s9.414-.015,14.128-.033q7.049-.023,14.113-.015,7.049,0,14.095.015,7.022,0,14.08.033l14.062.051c4.7.033,9.381.051,14.062.084s9.365.066,14.046.115c4.681.033,9.363.084,14.028.118,4.681.051,9.347.1,14.028.169q7,.073,14,.184l14,.2q7,.1,13.977.235c4.449.082,8.627.368,12.641,2.157a17.4,17.4,0,0,1,1.6.8,43.931,43.931,0,0,1,11.371,9.715c.769.869,1.554,1.738,2.307,2.624a43.449,43.449,0,0,1,3.71,4.714c1.321,1.991,2.576,4.014,3.731,6.1C898.166,276.064,898.468,276.815,898.051,277.3Z" transform="translate(3.381 0)" fill="#eb924d"/></g><g transform="translate(-2834.999 -403.263)"><path d="M3219.169,472.511c-.55,1-1.1,2.024-1.671,3.01-.217.419-.453.82-.684,1.221-1.689,3.008-3.511,5.969-5.5,8.811q-1.606,2.307-3.36,4.464c-1.1,1.321-2.024,2.693-3.662,3.429a6.087,6.087,0,0,1-.853.317,14.528,14.528,0,0,1-2.926.467c-2.826.268-5.634.537-8.445.8-.066,0-.149.018-.217.018-1.521.151-3.044.284-4.564.434a53.248,53.248,0,0,1,14.816,1.388,17,17,0,0,1-2.977,5.016c-4,4.648-7.792,10.1-12.925,13.612-2.759,1.888-5.384,2.407-8.662,2.859a187.055,187.055,0,0,1-20.181,1.219q-35.264,1-70.528,1.454-17.152.2-34.291.3c-2.827,0-5.653.018-8.479.033q-13.971.027-27.924,0-35.439-.123-70.878-.769-8.676,0-17.355-.217c-12.84-.284-25.683-.8-38.508-1.1-5.833-.133-11.618.184-16.635-3.342a55.442,55.442,0,0,1-7.926-7.425l-.752-.8q-3.311-3.511-6.406-7.224c-1.7-2.039-3.375-4.1-5.149-6.084a19.3,19.3,0,0,1-1.957-2.826,13.955,13.955,0,0,1-2.021-4.165.926.926,0,0,1,.1-.769.9.9,0,0,1,.6-.266c4.181-.736,8.53-.335,12.641-1.155a15.765,15.765,0,0,0,2.458-.652c-3.795-.018-7.592-.033-11.386-.066a27.47,27.47,0,0,1-2.86-.118c-.368-.051-.718-.1-1.086-.184a9.26,9.26,0,0,1-4.449-2.507,9.647,9.647,0,0,1-1.553-2.09c-1.688-3.161-3.4-6.322-4.9-9.582-1.171-2.558-2.908-5.517-3.092-8.361a3.476,3.476,0,0,1-.018-.434,13.786,13.786,0,0,1,1.17-5.634,63.414,63.414,0,0,1,4.817-8.494c2.726-4.482,5.785-8.762,8.928-12.958q5.017-6.723,10.517-13.06c.67-.784,1.321-1.538,1.973-2.256a59.851,59.851,0,0,1,8.644-8.427c7.308-5.719,17.322-5.668,26.018-5.8,11.169-.184,22.069-.284,33.091-.417,4.729-.066,9.446-.118,14.176-.169s9.449-.082,14.179-.133c4.718-.033,9.432-.084,14.164-.118,4.715-.033,9.43-.049,14.146-.084,4.715-.015,9.414-.049,14.129-.066s9.413-.015,14.128-.033q7.048-.023,14.113-.015,7.048,0,14.094.015,7.022,0,14.079.033l14.062.051c4.7.033,9.38.051,14.062.084s9.363.066,14.044.115c4.684.033,9.365.084,14.031.117,4.681.051,9.345.1,14.028.169q7,.073,13.992.184l14,.2q7,.1,13.979.235c4.446.082,8.626.368,12.641,2.157a17.353,17.353,0,0,1,1.6.8,43.929,43.929,0,0,1,11.371,9.715c.769.869,1.553,1.738,2.307,2.624a43.8,43.8,0,0,1,3.71,4.714c1.321,1.991,2.576,4.014,3.728,6.1.3.552.6,1.3.184,1.789a1.378,1.378,0,0,1-.751.4c-.033.018-.067.018-.1.033a52.621,52.621,0,0,1-12.39,1.74c1.855.317,3.728.585,5.619.769a73.838,73.838,0,0,0,7.438.467c1.792.033,3.7.033,5.251.935.033.018.051.033.084.051,1.874,1.152,2.875,3.611,3.946,5.45,1.188,2.072,2.341,4.163,3.646,6.186a30.311,30.311,0,0,1,2.323,4.865c.168.386.317.754.468,1.122a29.353,29.353,0,0,1,1.891,5.016C3223.552,464.252,3221.311,468.665,3219.169,472.511Z" transform="translate(0 0)" fill="url(#a)"/><path d="M3210.259,428.162c-8.209,1.855-19.146.651-25.064,1.186-6.649.593-13.27,1.472-19.888,2.333-3.485.452-6.973.9-10.463,1.3a31.819,31.819,0,0,0-8.031,1.49c-2.627,1-5.487.779-8.253.864q-5.221.165-10.439.429-20.866,1.062-41.6,3.774-10.36,1.353-20.659,3.117-5.148.882-10.28,1.865-2.563.491-5.123,1.009-1.334.268-2.663.544a7.97,7.97,0,0,1-2.248.47,24.58,24.58,0,0,1,9.746,3.945q-45.708,6.872-91.946,9.158a133.766,133.766,0,0,1-18.02.015,58.182,58.182,0,0,1-8.749-1.38c-3.987-.963-8.251-.483-12.365-.534q-11.092-.138-22.175-.726c-13.141-.718-26.25-1.6-39.376-2.44-8.678-.552-18.843-.117-27.656-2.259a13.785,13.785,0,0,1,1.17-5.634c9.649-1.071,20.549.585,29.764.736,13.124.217,26.25-.033,39.377-.368,25.7-.685,51.414-.25,77.13-1.3a538.521,538.521,0,0,0,53.706-5.318c-11.821-.084-23.677-.537-35.548-1.454-25.765-1.99-51.834-5.2-77.649-4.014-13.108.6-25.915-.4-38.957-1.538-6.355-.552-12.943-1.053-19.162-2.576-5.218-1.27-9.966-3.677-14.916-5.616q5.017-6.723,10.517-13.06c.67-.785,1.321-1.538,1.973-2.256a56.138,56.138,0,0,1,8.611-.636c7.607.084,15.166,1.321,22.724,2.226,14.028,1.7,27.187,5.131,40.914,8.259,14.146,3.227,28.959,4.346,43.355,6.1,13.962,1.722,27.906,2.944,41.968,3.411a372.85,372.85,0,0,0,77.751-5.616c24.745-4.464,49.659-8.828,74.772-10.433,7.842-.5,16.589-1.873,24.983-2.075a43.8,43.8,0,0,1,3.71,4.714c1.321,1.991,2.576,4.014,3.728,6.1.3.552.6,1.3.184,1.789a1.545,1.545,0,0,1-.851.434,52.619,52.619,0,0,1-12.39,1.74,83.47,83.47,0,0,0,13.057,1.237c1.792.033,3.7.033,5.251.935C3210.208,428.129,3210.227,428.144,3210.259,428.162Zm12.273,22.64a29.356,29.356,0,0,0-1.891-5.016c-.15-.368-.3-.736-.468-1.122-3.21-.066-6.421-.066-9.612-.1q-19.392-.176-38.792.251c-26.938.636-52.87,4.714-79.256,9.983-5.781,1.158-11.624,1.853-17.466,2.772q-9.156,1.441-18.313,2.864-21.053,3.273-42.123,6.462-10.533,1.594-21.071,3.169-5.271.786-10.538,1.566c-3.4.5-6.9,1.336-10.328,1.525,13.515-.7,27,1.592,40.266,4.262q-16.129,1.388-32.135,3.935-10.318,1.641-20.549,3.761c-3.4.7-6.772,1.587-10.181,2.226a15.26,15.26,0,0,1-3.166.118c-2.712-.049-5.41,1.165-7.957,1.9-14.478,4.165-29.143,5.185-43.991,7.242-10.3,1.421-20.6,1.722-30.88,2.205l.752.8a55.443,55.443,0,0,0,7.926,7.426c5.017,3.526,10.8,3.209,16.635,3.342,12.825.3,25.668.82,38.508,1.1,24.763-3.644,46.766-14.93,70.444-23.074,25.565-8.81,52.5-14.179,79.286-17.521,16.137-2.008,32.388-1.873,48.657-1.505-30.53,8.811-56.464,25.131-82.23,43.087,2.826-.015,5.651-.033,8.479-.033,23.96-16.67,52.569-28.575,81.06-32.973,17.3-2.675,34.979-1.771,52.434-2.19,8.427-.217,16.873-.416,25.282-.618,1.99-2.841,3.812-5.8,5.5-8.811.232-.4.467-.8.684-1.221.571-.986,1.122-2.006,1.671-3.01C3221.311,459.763,3223.552,455.35,3222.532,450.8Z" transform="translate(0 8.902)" fill="url(#c)"/><path d="M3194.531,424.252a15.153,15.153,0,0,0,3.49,5.918,1.64,1.64,0,0,1,.6,1.037,1.555,1.555,0,0,1-.217.675q-1.6,3.162-3.189,6.329l-1.617,3.212a10.515,10.515,0,0,0-.644,1.421,9.411,9.411,0,0,1-1.766,2.7,55.52,55.52,0,0,1-3.991,4.8,15.1,15.1,0,0,0-1.747,1.618c-1.47,2-2.917,4.053-4.189,6.186a9.464,9.464,0,0,0-.777,2.489,3.644,3.644,0,0,1-.657,1.249c-1.507,1.932-3.623,3.358-5.361,5.067a47.784,47.784,0,0,1-4.625,4.533c-4.4,3.273-10.185,2.246-15.633,2.844-10.873,1.193-21.845.11-32.773-.258-15.611-.524-29.964,1.768-45.581,1.543l-22.683-.33q1.073,2.028,2.147,4.058c-7.222-3.909-15.787-4.2-24-4.311-9.789-.13-19.581-.13-29.37-.13a10.072,10.072,0,0,0-4.909.828c-1.47.807-2.5,2.686-1.784,4.2-.671-3.2-4.847-3.932-8.115-3.971l-89.61-1.05c-3.5-.041-7.01-.087-10.508-.276a85.9,85.9,0,0,1-9.909-1.048c-1.63-.281-3.25-.623-4.85-1.045-.8-.21-1.6-.44-2.384-.69a8.767,8.767,0,0,1-2.5-1.347,4.635,4.635,0,0,1-1.423-1.262,58.2,58.2,0,0,0-4.833-6.715c-1.257-1.559-2.581-3.061-3.935-4.538q-1.031-1.127-2.083-2.236a28.442,28.442,0,0,1-3.817-5.706,221.91,221.91,0,0,1-10.37-21.837c8.407,10.627,18.082,20.741,26.488,31.366,2.249,2.841,4.6,5.77,7.827,7.423,3.3,1.686,7.141,1.85,10.846,1.973q134.243,4.442,268.557-2.031c4.947-.238,10.1-.544,14.422-2.956,3.532-1.973,6.192-5.177,8.616-8.412C3184.546,446.416,3190.146,434.815,3194.531,424.252Z" transform="translate(9.221 32.186)" fill="#eb924d"/><path d="M2947.086,413.373a8.717,8.717,0,0,1-2.65,2.647,8.516,8.516,0,0,1-5.134.577q-1.753-.2-3.485-.565a28.413,28.413,0,0,1,6.133-1.454,4.334,4.334,0,0,0,1.543-.368,4.117,4.117,0,0,0,1.124-1.027q1.365-1.587,2.816-3.092t2.987-2.931c.284-.263.571-.524.856-.782l.447-.4a1.462,1.462,0,0,1,.373-.307c-.57,1.045-1.252,2.047-1.888,3.056s-1.291,2.019-1.968,3.008C2947.866,412.287,2947.483,412.836,2947.086,413.373Z" transform="translate(156.8 3.292)" fill="#eb924d"/><path d="M2849.165,419.764a1.419,1.419,0,0,1,.523.233,1.486,1.486,0,0,1,.351,1.247c-.026.836-.054,1.674-.08,2.509q1.607-2.744,3.12-5.537a11.04,11.04,0,0,0-5.539-.856l-2.5.046-1.272.023-.585.013c-.1,0-.471-.054-.55.023-.391.371,1.275.764,1.423.807l2.4.7Q2847.813,419.366,2849.165,419.764Z" transform="translate(11.781 21.447)" fill="#eb924d"/><path d="M2852.4,439.578a9.129,9.129,0,0,1-1.367-4.681,1.473,1.473,0,0,1,.24-.777,1.75,1.75,0,0,1,1.145-.516q9.092-1.614,18.281-2.6a9.368,9.368,0,0,0-3.817-.388,117.835,117.835,0,0,1-12.424-.059,20.713,20.713,0,0,0-7.1.337,56.2,56.2,0,0,1,2.331,5.445,10.348,10.348,0,0,0,3.493,4.686A6.742,6.742,0,0,0,2852.4,439.578Z" transform="translate(19.221 41.781)" fill="#eb924d"/><path d="M2980.474,425.813a12.112,12.112,0,0,1,4.063,1.058,5.452,5.452,0,0,1,2.8,3.015,8.473,8.473,0,0,1-.016,4.027,10.166,10.166,0,0,0,2.193-3.927,1.757,1.757,0,0,0,.094-.8,1.894,1.894,0,0,0-.263-.593q-.977-1.663-2.016-3.286a3.137,3.137,0,0,0-.647-.8,3,3,0,0,0-1.464-.5c-.155-.023-.311-.043-.469-.064a34.076,34.076,0,0,0-5.257-.189,4.134,4.134,0,0,1-.925-.064,2.842,2.842,0,0,0-.994.072q-1.295.215-2.6.345t-2.619.189c-.437.018-.874.028-1.313.033-.217,0-.437.005-.657,0a3.692,3.692,0,0,1-.629-.008c.7.13,1.405.261,2.109.4q1.3.249,2.6.514c.432.089.864.179,1.3.271a1.152,1.152,0,0,0,.447.028,3.2,3.2,0,0,1,.733,0c1.051.064,2.1.128,3.146.24C2980.213,425.782,2980.344,425.8,2980.474,425.813Z" transform="translate(209.579 31.274)" fill="#eb924d"/><path d="M3197.419,457.654a53.689,53.689,0,0,0-3.7-7.474c-1.839-3.077-3.912-6.22-6.153-9.347-5.568-7.758-11.854-18.091-20.4-22.806a2.325,2.325,0,0,0-.419-.2c-1.455-.652-3.761-.818-6.787-.869q-7-.126-13.963-.235c-4.647-.066-9.313-.151-13.961-.2-4.666-.066-9.314-.135-13.977-.184-1.35-.015-2.7-.038-4.046-.054-3.156-.041-6.317-.008-9.467-.2-1.395-.087-2.777.1-4.176,0a36.448,36.448,0,0,1-5.129-.646q2.362-5.025,4.72-10.047a59.408,59.408,0,0,0-4.8,5.875,16.785,16.785,0,0,1-2.327,2.877,7.977,7.977,0,0,1-2.274,1.709,7.589,7.589,0,0,1-2.5.319c-3.511.054-7.048.232-10.531-.043-6.383-.5-12.855-.25-19.256-.281-17.5-.082-35.01-.141-52.513-.079-4.715.018-9.414.018-14.113.033-9.4.036-18.809.1-28.223.151-4.714.033-9.431.084-14.128.118-4.717.051-9.431.084-14.146.133-13.175,0-26.367.319-39.545.5-6.772.1-18.843-1.84-24.627,2.675-3.11,2.44-5.251,4.916-8.512,8.693-.672.777-1.321,1.577-2,2.346a13.333,13.333,0,0,0-1.189,1.239,12.054,12.054,0,0,1-1.39,1.952,5.678,5.678,0,0,1-1.985,1.27,11.428,11.428,0,0,1-3.547.531l-4.9.22a8.839,8.839,0,0,0-3.794.736,23.856,23.856,0,0,1,10.208,1.546.362.362,0,0,1,.212.631,9.239,9.239,0,0,1-1.73,2.118,14.328,14.328,0,0,0-1.641,2.205q-1.012,1.387-2,2.793c-1.464,2.088-2.877,4.208-4.2,6.391q-.625,1.027-1.3,2.105c-.7,1.1-1.671,2.642-2.208,3.713.184.4.385.82.552,1.17.319.618.6,1.237.887,1.822a106.492,106.492,0,0,0,7.19,13.108c2.458,3.83,5.1,7.543,7.842,11.054,2.791,3.544,5.768,6.989,8.877,10.231l.921.953c2.324,2.458,4.08,4.916,7.676,5.016,20.314.57,40.646,1.472,60.96,1.472h.287q24.194.448,48.394.641c1.582.01,3.2-.112,4.8-.11q2.481,0,4.963,0a.953.953,0,0,1,1.186,1.278q-.893,5.807-1.792,11.611l4.944-11.851a1.83,1.83,0,0,1,.47-.751,1.768,1.768,0,0,1,.963-.3,22.315,22.315,0,0,1,5.006.074,9.616,9.616,0,0,0,2.149.235c.8-.079,1.6-.054,2.4-.054q5.3.015,10.6.01h.529c8.491,0,17-.089,25.481-.1a9.818,9.818,0,0,1,5.386,1.784,22.913,22.913,0,0,1,4.889,4.84,54.773,54.773,0,0,1-1.679-6.311l5.854-.565c1.572-.153,3.067.146,4.651.13,3.966-.038,7.934-.133,11.9-.133,23.357-.3,47.017-.784,70.292-1.436l1.806-.051c5.282-.151,13.96.935,18.843-1.439a6.392,6.392,0,0,0,1.858-1.572c4.2-4.548,8.31-9.3,12.155-14.146,2.374-2.992,4.615-6.035,6.654-9.028,2.675-3.93,5-8.077,7.775-13.075.3-.552,1.086-1.973,1.52-2.977C3198.122,459.258,3197.6,458.088,3197.419,457.654Zm-15.449,13.108c-1.925,2.842-4.048,5.7-6.286,8.527-3.463,4.382-7.393,8.946-11.673,13.594a23.218,23.218,0,0,1-5.951.519c-1.321,0-2.642-.033-3.9-.066-1.3-.033-2.525-.066-3.662-.066-.467,0-.919,0-1.354.015l-1.806.051c-23.225.652-46.833,1.137-70.157,1.439-18.661.233-37.622.35-56.382.35q-6.973,0-13.944-.018c-23.343-.082-47.07-.332-70.512-.769H2936c-14.746,0-29.712-.483-44.193-.953-5.4-.166-10.783-.35-16.167-.5-.367-.335-.92-.935-1.339-1.388-.316-.35-.633-.7-.968-1.037l-.92-.968c-2.926-3.061-5.734-6.288-8.343-9.631-.787-1-1.74-1.914-2.415-2.977q-1.233-1.947-2.471-3.892a1.271,1.271,0,0,1-.286-.991c.143-.48.754-.6,1.252-.639q11.107-.836,22.217-1.669-10.686-1.039-21.375-2.072a15.461,15.461,0,0,1-4.428-.871,5.775,5.775,0,0,1-2.532-1.919c-.271-.378-.478-.792-.749-1.168a13.839,13.839,0,0,1-1.007-1.755q-.587-1.115-1.145-2.243c-.069-.14-.734-1.239-.657-1.357.419-.652.82-1.288,1.186-1.906,2.443-4.012,5.368-8.041,7.658-11.1,2.961-3.963,6.153-7.908,9.482-11.754,3.043-3.529,4.865-5.634,7.338-7.574.269-.2,1.891-1.237,8.06-1.237,1.924,0,3.9.1,5.8.184,1.823.082,3.527.151,5.116.151h.619q5.945-.077,11.906-.184c9.029-.151,18.359-.319,27.522-.319,4.8-.049,9.5-.082,14.213-.133,4.715-.033,9.414-.084,14.129-.118,9.4-.051,18.794-.118,28.191-.151,4.7-.015,9.4-.015,14.077-.033,4.817-.015,9.648-.015,14.462-.015,26.919,0,54.325.133,83.754.417,4.666.051,9.313.1,13.977.169,4.648.049,9.314.115,13.961.184,4.648.049,9.3.133,13.944.2s9.3.151,13.947.235a24,24,0,0,1,3.644.217c5.435,3.161,10.367,10.231,14.716,16.469.884,1.27,1.756,2.525,2.591,3.7s2.221,2.374,2.062,3.95a35.04,35.04,0,0,1-15.252,3.2,147.71,147.71,0,0,1,16.961,1.186,3.262,3.262,0,0,1,1.148.291c.855.457,1.111,1.477,1.648,2.213.245.337.595.526.813.879a6.407,6.407,0,0,1,.779,1.679C3186.452,463.572,3184.31,467.318,3181.97,470.762Z" transform="translate(9.345 2.852)" fill="url(#d)"/><path d="M3193.876,447.241a17.01,17.01,0,0,1-2.978,5.016c-4,4.648-7.791,10.1-12.925,13.612-2.759,1.888-5.383,2.407-8.662,2.859a187.055,187.055,0,0,1-20.181,1.219q-35.264,1-70.529,1.454-17.151.2-34.291.3c-2.827,0-5.652.018-8.479.033q-13.971.027-27.924,0-35.439-.123-70.878-.769-8.676,0-17.355-.217c-12.84-.284-25.683-.8-38.508-1.1-5.833-.133-11.618.184-16.635-3.342a55.42,55.42,0,0,1-7.925-7.426l-.752-.8q-3.311-3.511-6.406-7.224c-1.7-2.039-3.375-4.1-5.149-6.084a19.306,19.306,0,0,1-1.957-2.826,13.94,13.94,0,0,1-2.021-4.165.924.924,0,0,1,.1-.769.9.9,0,0,1,.6-.266c4.18-.736,8.529-.335,12.641-1.155.721-.033,1.457-.066,2.192-.118a51.043,51.043,0,0,1-9.983,2.259,3.449,3.449,0,0,0-2.157.751c-1,1.053-.467,2.525.118,3.562a29.727,29.727,0,0,0,1.638,2.609,47.248,47.248,0,0,0,3.828,4.832c2.175,2.425,4.516,4.681,6.873,6.937,1.656,1.589,3.31,3.179,4.983,4.766a23.762,23.762,0,0,0,3.661,3.094,25.233,25.233,0,0,0,7.556,2.859c1.288.335,2.594.636,3.9.887a6.812,6.812,0,0,0,1.406.184,8.749,8.749,0,0,1,1.472.1c1.137.117,2.29.217,3.445.268a64.788,64.788,0,0,0,6.938-.018,20.892,20.892,0,0,0,5.4-.751,5.556,5.556,0,0,1,2.624.049q3.511.479,7.022.953c1.387,0,2.742.57,4.131.452.4-.033.8-.151,1.2-.151a4.25,4.25,0,0,1,.8.051c1.572.232,3.143.618,4.731.835a17.373,17.373,0,0,0,6.3.066c.147-.033.284-.1.449-.151a5.029,5.029,0,0,1,1.505-.051c2.943.069,5.885.135,8.846.184q8.827.2,17.69.368c5.9.135,11.82.253,17.723.368,2.944.069,5.885.169,8.829.184a3.628,3.628,0,0,0,1.119-.184,12.366,12.366,0,0,1,3.043-.383c1.17-.084,2.341-.169,3.529-.235,4.7-.3,9.4-.467,14.113-.534q7.072-.127,14.144-.018c4.7.051,9.413.169,14.13.268,1.035.033,2.073.051,3.109.084,2.875.066,5.735.133,8.612.217a10.7,10.7,0,0,1,2.425.166,6.641,6.641,0,0,0,2.223.319c2.359-.069,4.733-.151,7.106-.22,4.732-.133,9.48-.266,14.212-.383s9.48-.217,14.212-.3c1.3-.033,2.608-.049,3.912-.082,27.506-.485,54.175-1.707,81.679-1.873,2.708-.018,5.484-.051,7.975-1.1,2.425-1.019,4.515-3.245,4.614-5.818a1.41,1.41,0,0,0,1.5,1.119,3.975,3.975,0,0,0,2.075-1.053c4.365-3.462,8.9-7.139,11.2-12.224a43.511,43.511,0,0,0-6.539-2.808A54.46,54.46,0,0,1,3193.876,447.241Z" transform="translate(8.225 49.631)" fill="#eb924d"/><path d="M2998.542,453c-.55,1-1.1,2.024-1.671,3.01-.217.419-.453.82-.685,1.221-1.689,3.008-3.511,5.969-5.5,8.811q-1.606,2.307-3.36,4.464c-1.1,1.321-2.024,2.693-3.662,3.429a6.079,6.079,0,0,1-.853.317c5.434-6.922,10.834-14,14.094-22.172a77.559,77.559,0,0,1,3.58-8.744,2.137,2.137,0,0,0,.1-2.624c-1.539-2.91-3.361-6.087-6.473-7.139-.567-.2-1.285-.57-1.1-1.122.1-.284.4-.417.634-.6,1.053-.838.552-2.509-.048-3.731-1.155-2.341-2.308-4.663-3.462-7a6.135,6.135,0,0,0-1.538-2.226,6.04,6.04,0,0,0-2.44-.986c-3.077-.736-6.187-1.321-9.3-1.8a73.82,73.82,0,0,0,7.438.468c1.792.033,3.7.033,5.251.935.033.018.052.033.083.051,1.874,1.152,2.875,3.611,3.946,5.45,1.188,2.072,2.34,4.163,3.646,6.186a30.33,30.33,0,0,1,2.323,4.865c.168.386.317.754.468,1.122a29.374,29.374,0,0,1,1.891,5.016C3002.924,444.743,3000.683,449.156,2998.542,453Z" transform="translate(220.627 19.509)" fill="#eb924d"/><path d="M3205.108,432.666a1.378,1.378,0,0,1-.751.4c-2.727-4.114-5.469-8.21-8.192-12.324-1.39-2.072-2.392-3.927-4.549-5.116-1.722-.935-3.212-2.139-5.118-2.709a4.078,4.078,0,0,1-2.24-1.152,7.151,7.151,0,0,1-.585-1.321c-.97-2.057-3.3-1.957-5.1-2.693a4.924,4.924,0,0,0-1.707-.4c-1.771-.1-3.543-.184-5.318-.284l-10.617-.6-18.609-1.053c-3.408-.184-6.838-.386-10.265-.35-3.378.033-6.738.284-10.116.148a11.46,11.46,0,0,1-3.141-.358,9.142,9.142,0,0,0-3.069-.158l-7.574.179c-7.068.166-14.156.5-21.226.5a8.852,8.852,0,0,0-3.889.685,3.3,3.3,0,0,0-1.807,2.962.981.981,0,0,1-.112.552c-.217.261-.509.174-.79.064a8.256,8.256,0,0,1-2.548-2.09c-.523-.547-1.019-1.117-1.525-1.679-.332-.368-.468-.644-.945-.654a8.608,8.608,0,0,0-1.335.2,51.593,51.593,0,0,1-10.32.376,11.544,11.544,0,0,1-2.395-.268,7.463,7.463,0,0,0-1.424-.4c-1.727-.138-3.528.033-5.261.054l-5.323.069-21.293.268-9.263.118a10.961,10.961,0,0,0-4.676.915c-2.124,1.025-.7,3.695-1.033,5.473-.2-2.238-.692-4.888-2.754-5.78a6.332,6.332,0,0,0-2.459-.355l-.319,0q-5.309-.054-10.618-.092c-5.846-.043-11.632-.307-17.48-.391-16.369-.232-32.738.169-49.107.319q-10.66.073-21.337.184c-1.77.015-3.562.033-5.332.033-8.744.084-17.708.2-25.849,3.345a22.882,22.882,0,0,0-6.577,3.984,9.622,9.622,0,0,0-2.2,2.658,28.962,28.962,0,0,0,8.8,2.448,16.258,16.258,0,0,1-4.786.56q-3.112.05-6.225.1a10.071,10.071,0,0,0-2.218.2,7.029,7.029,0,0,0-3.263,2.049,9.171,9.171,0,0,0-1.328,1.579c-.251.411-.343.887-.575,1.306a31.587,31.587,0,0,1-2.979,3.871q-1.595,2.028-3.179,4.06c-5.667,7.224-11.419,14.58-14.812,23.125a35.854,35.854,0,0,0-1.774,5.7c-.4,1.873,2.359,2.292,4.115,3.061,1.737.769,3.677,1.17,5.215,2.29a35.256,35.256,0,0,0-6.1-.567,1.251,1.251,0,0,0-1,.3c-.317.35-.15.9.034,1.354a21.656,21.656,0,0,0,1.456,3.077,5,5,0,0,1,.519,1.62,16.671,16.671,0,0,0,1.171,3.713,17.841,17.841,0,0,0,4.6,6.253,17.473,17.473,0,0,0,3.477,2.359c-.368-.051-.718-.1-1.086-.184a9.26,9.26,0,0,1-4.449-2.507,9.647,9.647,0,0,1-1.553-2.09c-1.688-3.161-3.4-6.322-4.9-9.582-1.171-2.558-2.908-5.517-3.092-8.361a3.476,3.476,0,0,1-.018-.434,13.786,13.786,0,0,1,1.17-5.634,63.414,63.414,0,0,1,4.817-8.494c2.726-4.482,5.785-8.762,8.928-12.958q5.017-6.723,10.517-13.06c.67-.784,1.321-1.538,1.973-2.256a59.851,59.851,0,0,1,8.644-8.427c7.308-5.719,17.322-5.668,26.018-5.8,11.169-.184,22.069-.284,33.091-.417,4.729-.066,9.446-.118,14.176-.169s9.449-.082,14.179-.133c4.718-.033,9.432-.084,14.164-.118,4.715-.033,9.43-.049,14.146-.084,4.715-.015,9.414-.049,14.129-.066s9.413-.015,14.128-.033q7.048-.023,14.113-.015,7.048,0,14.094.015,7.022,0,14.079.033l14.062.051c4.7.033,9.38.051,14.062.084s9.363.066,14.044.115c4.684.033,9.365.084,14.031.117,4.681.051,9.345.1,14.028.169q7,.073,13.992.184l14,.2q7,.1,13.979.235c4.446.082,8.626.368,12.641,2.157a17.353,17.353,0,0,1,1.6.8,43.929,43.929,0,0,1,11.371,9.715c.769.869,1.553,1.738,2.307,2.624a43.8,43.8,0,0,1,3.71,4.714c1.321,1.991,2.576,4.014,3.728,6.1C3205.226,431.43,3205.527,432.181,3205.108,432.666Z" transform="translate(0 0)" fill="#eb924d"/><path d="M3193.892,448.737c-5.8-10.014-15.725-23.48-25.844-35.27a5.27,5.27,0,0,0-3.869-1.855c-96.361-2.353-192.265-1.865-289.934.069a5.49,5.49,0,0,0-3.5,1.413c-9.462,8.862-17.856,19.7-24.939,29.812q-1.568,2.235-3.059,4.548a5.186,5.186,0,0,0-.339,5.047,158.295,158.295,0,0,0,26.482,38.066,5.358,5.358,0,0,0,3.659,1.648c99.16,3.189,194.841,3.087,291.307.266a5.274,5.274,0,0,0,3.764-1.7c4.811-5.279,11.452-12.894,15.609-19.09a199.744,199.744,0,0,0,10.719-17.907A5.174,5.174,0,0,0,3193.892,448.737Zm-30.145,38.513c-28,.838-54.243,1.748-82.792,2.036q-24.78.314-49.618.286c-1.856,0-3.686,0-5.543-.026-50.22-.026-101.694-.915-153.064-2.563a147.318,147.318,0,0,1-25.622-36.732c7.137-10.929,16.287-23.12,27.216-33.315.523,0,1.02-.028,1.544-.028,43.135-.861,86.715-1.306,129.615-1.306q20.939,0,41.986.156c21.67.13,43.4.368,65.041.733,4.236.051,8.471.13,12.68.21.053.026,3.582.077,5.281.1,11.5.207,21.894-.256,33.344.033h.235l.549.626c4.028,4.732,8.668,11.192,11.777,15.191a166.523,166.523,0,0,1,13,18.694A187.791,187.791,0,0,1,3163.747,487.25Z" transform="translate(10.738 10.07)" fill="url(#e)" id="ring"/><g transform="translate(2856.541 420.101)" id="ringColor"><path d="M2971.739,436.469c-.222.386-.442.772-.628,1.181.242-.437.485-.876.728-1.313Z" transform="translate(-2644.853 -369.122)" fill="#ffdf80"/><path d="M3191.519,448.737c-5.8-10.014-15.725-23.48-25.844-35.27a5.27,5.27,0,0,0-3.869-1.855c-96.361-2.353-192.264-1.865-289.934.069a5.489,5.489,0,0,0-3.5,1.413c-9.462,8.862-17.857,19.7-24.939,29.812a3.239,3.239,0,0,0,1.881,3.112,3.348,3.348,0,0,0,2.463-.22c6.634-9.391,14.739-20.056,24.178-28.862.523,0,1.02-.028,1.544-.028,43.135-.861,86.715-.943,129.615-.943q20.94,0,41.986.156c21.671.13,43.4.005,65.041.37,4.236.051,8.471.13,12.68.21.053.026,3.582.077,5.281.1,11.5.207,21.893-.256,33.344.033h.236l.549.626c4.027,4.732,8.668,11.192,11.777,15.191a166.49,166.49,0,0,1,13,18.694,191.922,191.922,0,0,1-14.036,22.53,51.014,51.014,0,0,1,6.626-5.512c3.612-2.681,7.134-5.553,9.093-9.7.333-.7.908-1.242,1.286-1.929q.812-1.472,1.6-2.954A5.174,5.174,0,0,0,3191.519,448.737Z" transform="translate(-2843.429 -410.032)" fill="#ffdf80"/></g></g></g></svg>