<svg id="Group_483" data-name="Group 483" xmlns="http://www.w3.org/2000/svg" width="54.496" height="44.326" viewBox="0 0 54.496 44.326">
  <path id="Path_5" data-name="Path 5" d="M424.389,67.682a22.1,22.1,0,0,1-6.357,1.744A11.1,11.1,0,0,0,422.9,63.3a22.111,22.111,0,0,1-7.03,2.686,11.073,11.073,0,0,0-19.146,7.574,11.192,11.192,0,0,0,.285,2.523,31.428,31.428,0,0,1-22.814-11.565A11.08,11.08,0,0,0,377.619,79.3a11.02,11.02,0,0,1-5.014-1.384v.14a11.074,11.074,0,0,0,8.879,10.852,11.017,11.017,0,0,1-2.916.388,11.239,11.239,0,0,1-2.084-.195,11.082,11.082,0,0,0,10.338,7.686,22.286,22.286,0,0,1-16.387,4.582,31.324,31.324,0,0,0,16.967,4.975c20.358,0,31.492-16.866,31.492-31.492q0-.72-.034-1.432a22.552,22.552,0,0,0,5.53-5.737Zm0,0" transform="translate(-369.893 -62.017)"/>
  <path id="Path_6" data-name="Path 6" d="M412.346,57.056a22.1,22.1,0,0,1-6.357,1.744,11.1,11.1,0,0,0,4.867-6.123,22.111,22.111,0,0,1-7.03,2.686,11.073,11.073,0,0,0-19.146,7.574,11.2,11.2,0,0,0,.285,2.523,31.428,31.428,0,0,1-22.814-11.565,11.08,11.08,0,0,0,3.425,14.777,11.02,11.02,0,0,1-5.014-1.384v.14A11.074,11.074,0,0,0,369.44,78.28a11.017,11.017,0,0,1-2.916.388,11.238,11.238,0,0,1-2.084-.195,11.082,11.082,0,0,0,10.338,7.686,22.285,22.285,0,0,1-16.387,4.582,31.323,31.323,0,0,0,16.967,4.975c20.358,0,31.492-16.866,31.492-31.492q0-.72-.034-1.432a22.551,22.551,0,0,0,5.53-5.737Zm0,0" transform="translate(-358.391 -51.868)"/>
</svg>
