<svg xmlns="http://www.w3.org/2000/svg" width="34.416" height="37.427" viewBox="0 0 34.416 37.427"><g transform="translate(-194.955 -207.168)"><path d="M211.817,244.6c-3.9,0-7.98-.092-12.126-.274a2.263,2.263,0,0,1-2.18-2.313l.318-21.328a2.272,2.272,0,0,1,2.225-2.247c3.4-.087,6.977-.132,10.329-.132,4.213,0,8.456.076,12.271.221a2.282,2.282,0,0,1,2.193,2.246l.317,21.263a2.269,2.269,0,0,1-2.172,2.312C219.348,244.51,215.59,244.6,211.817,244.6Z" fill="#4e421c" opacity="0.5"/><path d="M211.817,241.242c-3.9,0-7.98-.092-12.126-.274a2.264,2.264,0,0,1-2.18-2.314l.318-21.327a2.272,2.272,0,0,1,2.225-2.247c3.4-.087,6.977-.132,10.329-.132,4.213,0,8.456.076,12.271.22a2.284,2.284,0,0,1,2.193,2.247l.317,21.263a2.266,2.266,0,0,1-2.172,2.31C219.348,241.155,215.59,241.242,211.817,241.242Z" fill="#9f2c16"/><path d="M211.817,239.9c-3.9,0-7.946-.092-12.067-.271a.939.939,0,0,1-.9-.953l.317-21.331a.94.94,0,0,1,.915-.925c3.525-.089,7.122-.132,10.3-.132,4.118,0,8.35.074,12.22.221a.94.94,0,0,1,.9.925l.317,21.263a.938.938,0,0,1-.9.952C219.291,239.816,215.562,239.9,211.817,239.9Z" fill="#561506"/><path d="M199.17,219.023a.936.936,0,0,1,.914-.925c3.526-.09,7.122-.133,10.3-.133,4.119,0,8.35.073,12.22.221a.939.939,0,0,1,.9.926l.294,19.713a.707.707,0,0,0,.023-.127l-.317-21.263a.94.94,0,0,0-.9-.926c-3.87-.147-8.1-.22-12.22-.22-3.177,0-6.773.042-10.3.132a.938.938,0,0,0-.914.925l-.318,21.33a.819.819,0,0,0,.023.128Z" fill="#411005"/><path d="M209.65,238.6a5.293,5.293,0,0,1-3.022-1.116l-8.983-6.941a6.962,6.962,0,0,1-1.275-9.7,7.59,7.59,0,0,1,10.528-1.514l2.844,2.086,13.731-13.316.188-.1a5.482,5.482,0,0,1,2.652-.819,2.914,2.914,0,0,1,2.336,1.086,4.233,4.233,0,0,1,.542,3.763l-.542,1.143L212.3,237.386l-.1.106A3.472,3.472,0,0,1,209.65,238.6Z" fill="#5d2514"/><path d="M224.486,209.446c2.523-1.426,3.613-.156,3.072,2.194L210.99,236.329c-.811.839-1.931.807-3.4-.222l-8.919-6.893a5.265,5.265,0,0,1-.966-7.359,5.913,5.913,0,0,1,8.2-1.182l3.987,2.927Z" fill="#fcc500"/><path d="M199.5,224.547c2.662,2.36,8.21-.549,11.5,1.92-.336-2.848-4.382-5.483-6.864-6.189S196.039,221.476,199.5,224.547Z" fill="#fbe62b"/><path d="M224.243,210.192a85.5,85.5,0,0,1-7.02,7.218c-1.955,1.77-5.7,4.3-6.786,6.572a8.609,8.609,0,0,0,1.022,1.744c1.812-2.777,4.35-5.044,6.705-7.464,2.208-2.268,3.661-4.78,5.45-7.231Z" fill="#faea65"/><path d="M223.792,216.054c-1.5,2.111-2.9,4.291-4.364,6.423-1.338,1.954-2.329,4.148-3.7,6.09-1.412,1.993-2.947,3.88-4.264,5.938-.995,1.553-1.98,2.326-3.72,1.2-1.925-1.249-3.261-3.035-5.113-4.338-1.794-1.261-4.612-2.145-5.233-4.51a3.647,3.647,0,0,1,.3-2.35,9.106,9.106,0,0,0,6.12,5.8c2.9.721,5.8.738,8.277-1.224a40.152,40.152,0,0,0,6.99-7.531,48.093,48.093,0,0,0,6.382-10.975c.138-.361.285-1.192.707-1.3,1.534-.374.617,2.572.363,3.063A32.311,32.311,0,0,1,223.792,216.054Z" fill="#f39c00"/></g></svg>