<svg xmlns="http://www.w3.org/2000/svg" width="1020.66" height="426.814" viewBox="0 0 1020.66 426.814"><g transform="translate(-735.889 -146.242)"><g transform="matrix(0.999, -0.052, 0.052, 0.999, 735.889, 472.405)"><path d="M448.233,155.973s3.991-5.323,0-9.049-15.7-2.661-15.7-2.661,4.259-7.453-7.719-8.517S397.4,143.73,397.4,143.73s-4.258-11.976-19.163-13.573-33.8,8.08-33.8,8.08-21.824-12.872-59.885-9.146c-29.884,2.926-72.385,23.889-79.929,34.41-2.589,3.61-4.752,8.034-4.1,12.549a15.531,15.531,0,0,0,2.378,6.09,52.479,52.479,0,0,0-15.715,4.122c-5.951,2.791-11.295,7.672-13.889,13.8a19.1,19.1,0,0,0-1.647,10.551c.7,3.949,3.329,6.21,6.516,8.325a67.511,67.511,0,0,0,19.756,8.641c7.992,2.167,33.8,1.894,40.057.793,11.711-2.064,22.091-9.848,22.091-9.848s.8,2.394,20.76,2.129,58.82-35.132,58.82-35.132.533,5.323,11.711,8.25,20.76-5.323,20.76-5.323.8,3.194,15.7,3.459,32.47-19.428,32.47-19.428a140.333,140.333,0,0,0,20.494,2.4c11.711.532,31.406-2.4,30.874-11.978S448.233,155.973,448.233,155.973Z" transform="translate(-171.437 -128.414)" fill="#fff"/><path d="M442.256,165.994l.37.005c.476.007.959.01,1.453.005h.1c.537-.005,1.086-.019,1.641-.038.107,0,.216-.008.325-.012q.765-.029,1.544-.075c.053,0,.1,0,.158-.008.585-.035,1.177-.08,1.77-.131l.2-.019c.565-.05,1.132-.106,1.7-.171l.12-.012q.935-.108,1.868-.241h.007q.926-.133,1.842-.294l.076-.012c1.239-.219,2.461-.473,3.643-.769l.03-.008c1.19-.3,2.341-.637,3.431-1.019h0a21.421,21.421,0,0,0,5.65-2.838,78.267,78.267,0,0,1-17.555,1.6c-18.63-.267-27.147-8.784-27.147-8.784S412.527,171,400.059,175.8s-24.753-1.864-24.753-1.864-7.585,8.463-19.163,6.92-15.7-13.84-15.7-13.84-34.334,31.673-49.5,37-22.091-12.243-22.091-12.243-7.475,13.218-23.421,15.7c-56.314,8.773-71.219,4.182-72.531-15.338a18.345,18.345,0,0,0-1.252,9.556c.7,3.949,3.329,6.21,6.516,8.325a67.51,67.51,0,0,0,19.756,8.641c7.992,2.167,33.8,1.894,40.057.793,11.711-2.064,22.091-9.848,22.091-9.848h0s.343,1.031,6.221,1.665a124.984,124.984,0,0,0,14.538.464c19.962-.267,58.82-35.132,58.82-35.132a2.773,2.773,0,0,0,.124.51c.45,1.4,2.506,5.361,11.587,7.74a21.4,21.4,0,0,0,13.086-.95,28.815,28.815,0,0,0,2.84-1.262c.857-.438,1.619-.88,2.27-1.287a23.058,23.058,0,0,0,2.563-1.824s.377,1.51,5.456,2.54c.463.092.963.182,1.506.267q.406.063.845.122a69.474,69.474,0,0,0,7.9.531c4.191.075,8.593-1.428,12.757-3.629,1.388-.735,2.748-1.545,4.066-2.4.879-.57,1.737-1.16,2.572-1.762a90.091,90.091,0,0,0,13.074-11.636s1.681.356,4.553.8c.82.127,1.738.261,2.742.4.5.068,1.024.136,1.567.2,3.259.407,7.24.793,11.631.993C441.259,165.971,441.754,165.985,442.256,165.994Z" transform="translate(-171.437 -119.493)" fill="#ededed"/><path d="M237.565,155.008s12.775-11.445,29.809-9.582S283.343,161.4,283.343,161.4s16.768-11.976,29.011-10.113,13.042,5.056,13.042,5.056,3.459-9.581,10.114-8.517,6.121,5.488,6.121,5.488,2.4-8.682-5.856-9.48-12.636,6.122-12.636,6.122-6.527-4.258-17.971-4.525a40.815,40.815,0,0,0-19.695,4.525s-8.25-10.646-19.7-11.445S237.565,155.008,237.565,155.008Z" transform="translate(-147.609 -124.788)" fill="#ededed"/></g><path d="M266.4,221.245a13.771,13.771,0,0,1-5.984,1.694c-1.186.142-2.389.2-3.59.256-.852.016-1.813.072-2.766.013a20.029,20.029,0,0,0,3.409.594,5.778,5.778,0,0,1-.217.85,14.224,14.224,0,0,1-2.384,4.019,21.516,21.516,0,0,1-7.9,6.158,18.607,18.607,0,0,1-9.887,1.454,11.721,11.721,0,0,1-2.1-.5,11.948,11.948,0,0,0,.777-4.381.206.206,0,0,0-.018-.1,10.807,10.807,0,0,1-1.932,4.869,16.656,16.656,0,0,1-2.051,2.735,24.587,24.587,0,0,1-4.91,4.339,33.993,33.993,0,0,1-15.693,5.589,26.249,26.249,0,0,1-14.464-2.459,18.484,18.484,0,0,1-5.323-4.125,9.76,9.76,0,0,1-2-2.376,15.717,15.717,0,0,1-1.679-5.84,12.366,12.366,0,0,0,1.723,7,27.043,27.043,0,0,1-20.49,2.015c-3.913-1.191-7.074-3.373-8.544-7.317a9.356,9.356,0,0,1-.607-3.027,6.008,6.008,0,0,1,.442-4.4,8.316,8.316,0,0,1,4.176-3.526c-1.674-.067-3.128,1.312-4.1,2.547a7.6,7.6,0,0,0-.876,1.41,21.769,21.769,0,0,1-5.6-6.083,20.231,20.231,0,0,1-1.459-3.634c-.114-.354-.2-.708-.292-1.067a20.355,20.355,0,0,0,1.408,6.488,25.768,25.768,0,0,1-8.8.047c-4.515-.863-8.18-4.546-7.958-9.3.253-5.447,5.163-9.89,10.419-10.324a25.893,25.893,0,0,1,8.053.561,9.475,9.475,0,0,1,1.235.377,15.262,15.262,0,0,0-2.051,2.645c-.165.408-.336.814-.486,1.227a13.4,13.4,0,0,1,4.373-4.476,19.081,19.081,0,0,1,12.127-4.473,21.9,21.9,0,0,1,8.412,1.96,9.36,9.36,0,0,0,.217,3.567,9.572,9.572,0,0,1,1.47-5.788c.2-.426.416-.837.625-1.227a21.4,21.4,0,0,1,9.079-8.585,17.162,17.162,0,0,1,13.165-.548,22.5,22.5,0,0,1,2.35.907l-.008.039c.132.039.261.106.4.147l0-.008.044.028c.217.1.4.176.586.258.772.372,1.573.744,2.322,1.193a9.828,9.828,0,0,0-2.265-1.88c-.127-.065-.248-.137-.372-.207.4-.739.837-1.444,1.268-2.12a13.125,13.125,0,0,1,7.947-5.538,15.155,15.155,0,0,1,5-.47,10.918,10.918,0,0,1,4.352,1.666,9.779,9.779,0,0,1,4.44,5.977,4.879,4.879,0,0,1,.354.93,11.1,11.1,0,0,1,.8,2.505.371.371,0,0,0,.168-.294c-.01-.418-.046-.834-.077-1.253a20.346,20.346,0,0,1,2.389-1.046,17.458,17.458,0,0,1,10.931-.013c3.27.966,6.542,2.968,8.247,5.987a11.551,11.551,0,0,1,1.428,4.04,8.851,8.851,0,0,0-4.647,2.88,11.258,11.258,0,0,1,7.754-2.5,23.181,23.181,0,0,1,5.819.607c4.448,1.018,8.733,2.924,10.114,7.671C274.116,214.522,270.4,218.965,266.4,221.245Z" transform="translate(1015.791 191.998)" fill="#fff" opacity="0.5"/><path d="M205.219,155.976a15.8,15.8,0,0,0,6.8,1.922c1.341.17,2.711.235,4.082.291.954.023,2.051.094,3.128.018a22.908,22.908,0,0,1-3.871.675,6.143,6.143,0,0,0,.252.96,16.517,16.517,0,0,0,2.714,4.572,24.191,24.191,0,0,0,8.968,6.981,21.174,21.174,0,0,0,11.245,1.676,14.439,14.439,0,0,0,2.374-.581,14.146,14.146,0,0,1-.883-5,.42.42,0,0,1,.018-.1c.07,1.963,1.215,3.932,2.2,5.528a19.118,19.118,0,0,0,2.336,3.128,28.713,28.713,0,0,0,5.587,4.921A38.564,38.564,0,0,0,268,187.316a29.979,29.979,0,0,0,16.424-2.791,21.166,21.166,0,0,0,6.042-4.7,10.741,10.741,0,0,0,2.277-2.688,17.823,17.823,0,0,0,1.907-6.644,14.07,14.07,0,0,1-1.963,7.946,30.672,30.672,0,0,0,23.294,2.3c4.431-1.356,8.023-3.844,9.707-8.313a11.013,11.013,0,0,0,.687-3.436,6.867,6.867,0,0,0-.511-4.994,9.45,9.45,0,0,0-4.733-4c1.89-.067,3.53,1.479,4.645,2.879a8.357,8.357,0,0,1,.992,1.608,14.212,14.212,0,0,0,2.353-1.978,13.6,13.6,0,0,0,4-4.93,23.713,23.713,0,0,0,1.664-4.146c.126-.393.229-.789.32-1.2a23.2,23.2,0,0,1-1.585,7.374,29.457,29.457,0,0,0,10.006.05c5.109-.983,9.285-5.168,9.041-10.561-.288-6.195-5.878-11.236-11.837-11.726a29.575,29.575,0,0,0-9.155.631,14.094,14.094,0,0,0-1.411.414,17.471,17.471,0,0,1,2.33,3.017c.2.455.39.924.566,1.4a15.093,15.093,0,0,0-4.977-5.079,21.567,21.567,0,0,0-13.768-5.088,24.969,24.969,0,0,0-9.552,2.23,10.855,10.855,0,0,1-.261,4.058,10.776,10.776,0,0,0-1.676-6.582c-.223-.493-.461-.954-.707-1.391a24.079,24.079,0,0,0-10.332-9.745,19.4,19.4,0,0,0-14.945-.634,26.344,26.344,0,0,0-2.673,1.03l.023.041c-.155.056-.3.109-.449.17v0a.378.378,0,0,0-.085.047c-.208.085-.42.179-.646.285-.851.42-1.778.825-2.629,1.344a11.272,11.272,0,0,1,2.582-2.122c.138-.091.273-.167.414-.252-.455-.833-.945-1.643-1.438-2.392a14.868,14.868,0,0,0-9.038-6.306,17.376,17.376,0,0,0-5.681-.534,12.5,12.5,0,0,0-4.942,1.893,11.109,11.109,0,0,0-5.044,6.787,6.18,6.18,0,0,0-.4,1.068,12.811,12.811,0,0,0-.9,2.835.375.375,0,0,1-.188-.329c.012-.478.044-.948.082-1.426a22.673,22.673,0,0,0-2.709-1.186,19.76,19.76,0,0,0-12.421-.018c-3.715,1.1-7.43,3.372-9.376,6.814a13.184,13.184,0,0,0-1.605,4.578c1.94.581,4.158,1.649,5.273,3.272a12.812,12.812,0,0,0-8.812-2.838,27.185,27.185,0,0,0-6.614.693c-5.05,1.153-9.915,3.325-11.477,8.706C196.454,148.332,200.673,153.385,205.219,155.976Z" transform="translate(767.734 34.389)" fill="#fff" opacity="0.5"/><g transform="translate(1495.111 156.679) rotate(10)"><path d="M555.143,164.635a29.919,29.919,0,0,0-8.011-.753c.087-.233.167-.452.259-.7,1.412-4.171,1.959-9.5.542-13.718a36.657,36.657,0,0,0-6.6-12.037c-5.577-6.526-14.019-10.147-22.4-11.3a43.721,43.721,0,0,0-13.176.449,42.7,42.7,0,0,0-1.3-9.962c-2.178-8.609-8.981-16.131-16.113-21.148-7.525-5.289-16.752-6.055-25.52-4.142a28.06,28.06,0,0,0-2.743.74c-3.161-7.129-11.252-11.3-18.655-12.825a31.311,31.311,0,0,0-27.312,7.625,36.339,36.339,0,0,0-8.448,11.342c-2.321,4.536-2.7,9.864-2.545,14.881a22.143,22.143,0,0,0,3.629,11.138,15.257,15.257,0,0,0-2.934,1.988,20.011,20.011,0,0,0-6.132,9.492,31.267,31.267,0,0,0-3.513-1.287,41.1,41.1,0,0,0-13.948-1.427c-4.581.267-9.042,2.014-13.11,4.057-8.249,4.16-16.131,9.013-20.387,17.6a25.743,25.743,0,0,0-2.294,7.324,23.838,23.838,0,0,0-2.326-.563,30.785,30.785,0,0,0-17.625,1.538c-10.1,4.036-16.7,15.378-17.284,25.974-.655,12.264,8.249,23.043,19.758,26.059a31.867,31.867,0,0,0,18.137-1.16,47.008,47.008,0,0,0,10.409-4.922,33.9,33.9,0,0,0,6,6.209c7.258,5.818,16.612,8.437,25.742,9.185a35.917,35.917,0,0,0,12.745-1.245c2.122-.582,4.237-.888,6.338-1.594a55.291,55.291,0,0,0,6.415-2.738,39.723,39.723,0,0,0,9.766-6.336,38.251,38.251,0,0,0,3.441,2.939,38.838,38.838,0,0,0,22.7,7.871,58.073,58.073,0,0,0,24.711-5.331A46.855,46.855,0,0,0,487.984,207a57.606,57.606,0,0,0,23.722,10.065,72.734,72.734,0,0,0,19.768,1.332,54.732,54.732,0,0,0,18.637-4.755c9.93-4.557,20.754-13.25,22.327-24.695C574.021,177.431,566.189,167.3,555.143,164.635Z" transform="translate(-307.169 -78.667)" fill="#f8f8f8"/><path d="M565.484,193.953c-2.548,5.281-7.932,9.336-12.693,12.513-11.048,7.361-24.93,8.82-37.8,7.047a68.3,68.3,0,0,1-20.2-5.818,47.316,47.316,0,0,1-6.4-3.642c.555-.653,1.086-1.316,1.62-1.972-.693.592-1.438,1.137-2.122,1.626-2.686,1.945-5.44,3.87-8.252,5.622-.328.217-.653.426-1,.626a47.882,47.882,0,0,1-6.415,3.825,56.288,56.288,0,0,1-10.9,3.727,60.512,60.512,0,0,1-12.029,1.966,39.1,39.1,0,0,1-10.136-.962,36.339,36.339,0,0,1-13.512-4.525,24.727,24.727,0,0,1-6.756-5.588c-1.224-1.53-2.165-3.616-3.732-4.874a27.461,27.461,0,0,0,1.314,2.654,24.543,24.543,0,0,0,3.1,4.205c-2.95,2.236-6.605,3.8-9.941,5.3-7.52,3.354-15.854,5.41-24.095,4.755a55.48,55.48,0,0,1-24.24-7.742,28.358,28.358,0,0,1-6.37-5.2l.021-.013a31.76,31.76,0,0,1-5.447-7.187,34.593,34.593,0,0,0,3.407,6.587,62.744,62.744,0,0,1-9.1,3.5,32.73,32.73,0,0,1-17.006.922c-10.771-2.479-17.939-11.976-18.581-22.85-.61-10.16,5.712-20.958,14.915-25.176a29.217,29.217,0,0,1,17.189-1.861,20.281,20.281,0,0,1,2.379.547,29.52,29.52,0,0,0-.254,3.412,19.939,19.939,0,0,0,.449,3.624,34.581,34.581,0,0,0,1.657,4.694,29.381,29.381,0,0,1,1.189-13.224,19.235,19.235,0,0,1,.88-2.191,32.761,32.761,0,0,1,1.359-3.2c3.793-7.715,11.151-11.839,18.3-15.843a36.719,36.719,0,0,1,24.97-4.049,28.8,28.8,0,0,1,4.467,1.232,14.278,14.278,0,0,0,2.1,10.676c-1.382-4.628-1.176-9.875,1.224-13.906a23.849,23.849,0,0,1,5.249-6.946,10.377,10.377,0,0,1,1.723-1.287.663.663,0,0,0,.085.114.394.394,0,0,1,.074-.045q.646-.369,1.3-.7c-.018-.042-.042-.077-.061-.124a34.991,34.991,0,0,1,7.9-2.326,20.222,20.222,0,0,1,5.828-.486,9.436,9.436,0,0,1,1.306.2c.122,0,.254.005.381.005a13.219,13.219,0,0,0-4.322-.727,46.257,46.257,0,0,0-6.439.492,26.134,26.134,0,0,0-5.437,1.515,25.089,25.089,0,0,1-2.923-10.879c-.235-4.655.185-9.486,2.2-13.731a35.1,35.1,0,0,1,8.109-10.9,31.3,31.3,0,0,1,24.816-8.067c7.509.851,16.01,5.141,19.424,12.169a36.643,36.643,0,0,0-6.8,3.032,20.621,20.621,0,0,0-3.859,3.373,27.343,27.343,0,0,1,18.891-5.944,31.143,31.143,0,0,1,19.805,5.865c6.457,4.7,12.645,11.1,15.3,18.743a30.019,30.019,0,0,1,1.541,6.957,32.867,32.867,0,0,1,.507,7.557c0,.642-.029,1.277-.053,1.9a41.707,41.707,0,0,0,.526-6.1c.185-.024.373-.045.552-.071a42.187,42.187,0,0,1,12.248.328c7.776,1.361,15.563,5.231,20.788,11.218a36.28,36.28,0,0,1,5.691,10.06c1.755,4.189,1.528,9.026.367,13.374-.148.537-.315,1.081-.508,1.618l-.108,0a36.163,36.163,0,0,0-6.066,1.337,3.539,3.539,0,0,0-2.086,1.184c.056-.011.108-.021.161-.026a.772.772,0,0,1,.2-.074c1.56-1.152,4.02-1.2,5.791-1.271a31.592,31.592,0,0,1,3.872-.077l.005-.011a28.346,28.346,0,0,1,7.575,1.382,21.664,21.664,0,0,1,13.3,11.839A19.679,19.679,0,0,1,565.484,193.953Z" transform="translate(-305.52 -77.998)" fill="#fff"/><path d="M357.461,104.522a8.546,8.546,0,0,0,.563,3.729c-.1-4.573,2.736-9.944,5.646-13.062a24.14,24.14,0,0,1,4.1-3.51,23.09,23.09,0,0,1,2.722-2.194,36.646,36.646,0,0,1,6.8-3.032,17.694,17.694,0,0,0-3.05-4.337C366.477,83.377,358.087,93.307,357.461,104.522Z" transform="translate(-224.564 -73)" fill="#ededed" opacity="0.3"/><path d="M347.271,110.529a26.134,26.134,0,0,1,5.437-1.515,46.26,46.26,0,0,1,6.439-.492,12.961,12.961,0,0,1,3.523.492,41.053,41.053,0,0,1,11.418,2.844,44,44,0,0,1,11.477,6.415c-7.414-11.247-23.231-17.815-35.717-12.391a.815.815,0,0,1-1.11-.288,35.876,35.876,0,0,1-2.477-19.015,29.807,29.807,0,0,0-1.914,13.07A25.088,25.088,0,0,0,347.271,110.529Z" transform="translate(-246.164 -65.666)" fill="#ededed" opacity="0.3"/><path d="M565.889,147.272a21.664,21.664,0,0,0-13.3-11.839,28.346,28.346,0,0,0-7.565-1.382l-.016.011a31.592,31.592,0,0,0-3.872.077c-1.771.074-4.232.119-5.791,1.271a.772.772,0,0,0-.2.074c-.053.005-.106.016-.161.026a3.539,3.539,0,0,1,2.085-1.184,36.164,36.164,0,0,1,6.066-1.337l.108,0c.193-.537.36-1.081.508-1.618,1.16-4.348,1.388-9.185-.367-13.374a36.28,36.28,0,0,0-5.691-10.06,35.46,35.46,0,0,0-17.1-10.372c7.131,4.546,12.973,10.6,13.221,19.927.174,6.489-1.19,14.6-4.805,20.873,1.316-.214,2.633-.41,3.946-.56,5.606-.661,11.577-1.552,17.019.489,4.311,1.61,5.976,5.788,4.663,10.107a23.246,23.246,0,0,1-12.809,14.17c-11.966,5.6-26.172,4.932-38.537.891-8.334-2.712-16.615-7.173-22.131-13.927-5.944,12.3-17.283,21.169-32.127,21.489-16.916.349-35.989-10.213-41.492-26.73a36.936,36.936,0,0,0,3.941,15.288.824.824,0,0,1-.3,1.113c-12.1,7.7-37,15.843-51.515,9.785-7.924-3.309-11.63-10.314-14.9-18.867-.658,5.952.719,12.5,2.982,18.867.185.544-1.842.864-2.313.922-10.187,1.213-22.52.111-30.021-7.768a22.184,22.184,0,0,1-6.056-14.458,24.574,24.574,0,0,0-1.152,8.9c.642,10.874,7.811,20.371,18.581,22.85A32.73,32.73,0,0,0,343.8,180a62.748,62.748,0,0,0,9.1-3.5,34.594,34.594,0,0,1-3.407-6.587,31.54,31.54,0,0,0,5.448,7.179l-.021.021a28.359,28.359,0,0,0,6.37,5.2,55.48,55.48,0,0,0,24.24,7.742c8.241.656,16.575-1.4,24.095-4.755,3.336-1.5,6.991-3.061,9.941-5.3a24.544,24.544,0,0,1-3.1-4.205,27.466,27.466,0,0,1-1.314-2.654c1.567,1.258,2.508,3.344,3.732,4.874a24.729,24.729,0,0,0,6.756,5.588,36.339,36.339,0,0,0,13.512,4.525,39.1,39.1,0,0,0,10.136.962,60.513,60.513,0,0,0,12.029-1.967,56.286,56.286,0,0,0,10.9-3.727,47.887,47.887,0,0,0,6.415-3.825c.349-.2.674-.41,1-.626,2.812-1.752,5.566-3.677,8.252-5.622.685-.489,1.43-1.033,2.122-1.626-.534.656-1.065,1.319-1.62,1.972a47.316,47.316,0,0,0,6.4,3.642,68.3,68.3,0,0,0,20.2,5.818c12.869,1.774,26.751.315,37.8-7.047,4.76-3.177,10.144-7.232,12.692-12.513A19.679,19.679,0,0,0,565.889,147.272Z" transform="translate(-305.521 -47.62)" fill="#ededed" opacity="0.5"/><path d="M345.308,96.43a1.531,1.531,0,0,0-.19.132c.063-.037.156-.053.225-.09A.126.126,0,0,1,345.308,96.43Z" transform="translate(-244.814 -49.48)" fill="#fff"/></g><g transform="translate(817.511 281.535)"><path d="M436.325,934.649s-17.827-.988-13.779-12.477,23.867-3.121,23.867-3.121-2.2-5.183,8.206-8.784,16.424,1.417,16.424,1.417-9.617-16.208,9.511-24.4,29.832,2.3,29.832,2.3-6.2-8.96,10.7-12.95c0,0-5.181-11.293,13.535-12.68s16.857,9.876,16.857,9.876a18.246,18.246,0,0,1,11.689-1.1c6.911,1.479,5.452,9.419,5.452,9.419s.561-15.814,26-19.638,20.813,7.19,20.813,7.19,11.748-13.393,24.094,1.4c0,0-2.338-9.863,16.792-14.364s21.964,7.478,21.964,7.478,3.047-3.868,10.423-.432,6.843,8.327,6.843,8.327,3.609-6.194,12.9-.561c0,0,6.294-8.924,17.987-3.407,0,0,17.667-2.673,13.7,5.855,0,0,12.846-7.314,16.364.124s-15.88,9.018-15.88,9.018,6.972,7.9-6.611,9.771-17.757-4.375-17.757-4.375,8.336,16.947-16.893,23.441-29.568-5.7-29.568-5.7,2.614,25.461-33.574,33.473-47.666-12.675-47.666-12.675-4.362,10.653-22.853,9.509S546.158,926.4,546.158,926.4s-2.984,7.829-22.2,10.678-20.565-8.356-20.565-8.356-6.066,12.986-21.822,10.426-17.213-8.974-17.213-8.974-2.34,6.553-13.191,7.636S436.325,934.649,436.325,934.649Z" transform="translate(-421.948 -855.729)" fill="#fff"/><path d="M713.945,873.649c-14.864.1-8.759,6.985-8.759,6.985-21.318,18.345-42.045,13.893-42.045,13.893-8.413,15.641-22.173,6.863-22.173,6.863s5.332,15.823-19.359,22.164-28.96-11.435-28.96-11.435c-28.715,11.678-44.286-.734-44.286-.734-24.344,11.329-28.516.216-28.516.216-15.659,5.377-23.126-1.939-23.126-1.939-7.267,7.971-19.158,4.954-19.158,4.954s1.858,4.549-3.427,7.244S464.5,918.6,464.5,918.6c-13.13,10.962-23.2,4.859-23.2,4.859-9.417,2.625-15.506.133-19.338-3.366.682,7.9,14.351,8.651,14.351,8.651s3.983,4.247,14.837,3.162,13.191-7.636,13.191-7.636,1.459,6.413,17.213,8.974,21.822-10.426,21.822-10.426,1.344,11.2,20.566,8.356,22.2-10.678,22.2-10.678,1.056,9.043,19.545,10.187,22.851-9.509,22.851-9.509,11.48,20.689,47.668,12.675,33.574-33.473,33.574-33.473,4.339,12.189,29.568,5.7,16.893-23.441,16.893-23.441,4.175,6.244,17.758,4.375,6.611-9.771,6.611-9.771,19.4-1.578,15.879-9.018-16.364-.124-16.364-.124c3.966-8.527-13.7-5.855-13.7-5.855-11.691-5.517-17.987,3.407-17.987,3.407C701.268,870.4,713.945,873.649,713.945,873.649Z" transform="translate(-421.934 -849.827)" fill="#ededed"/><path d="M530.575,902.257s-.725-13.182-21.254-9.818c0,0-7.706-7.935-17.458-5.055,0,0,15.643-5.168,15.549-13.479,0,0,11.709-2.813,12.824-9.138,0,0,.3,10.932,10.6,8.093,0,0,9.737,7.793,15.463-2.637,0,0,13.977,7.46,22.707,2.4,0,0,13.619,2.418,20.969-3.749,0,0-7.739,10.07-18.172,9.343,0,0-15.492,5.575-23.72,1.443,0,0-3.848,3.86.766,10.088C548.846,889.75,533.161,891.484,530.575,902.257Z" transform="translate(-334.431 -844.415)" fill="#ededed"/></g><path d="M184.785,708.68c-6.677,3.4,14.19,5,18.271,6.978s11.922,9.629,23.59,11.435c0,0,7.564,12.848,24.276,9.752,0,0,6.86,11.939,17.093,14.8s21.644-1.933,21.644-1.933S293,761.207,312.235,767.5s27.182,3.549,27.182,3.549,11.225,9.322,22.074,5.866c0,0,8.011,10.893,27.908,17.037s31.721-5.106,39.422-.926,25.623,6.582,19.994-.66S433.16,784.8,433.16,784.8s12.115-6.093-1.677-20.64-30.623-5.489-30.623-5.489,5.257-6.132-4.695-9.712c0,0,3.661-6.144-5.7-11.4s-13.828,1.62-13.828,1.62,4.377-8.17-2.791-13.559-16.042.384-16.042.384-.518-23.084-46.394-34-40.546,22.614-40.546,22.614-5.7-6.259-17.4-6.384-7.774,12.347-7.774,12.347-9.395-10.7-18.066-11.819-11.712,4.1-11.712,4.1A11.407,11.407,0,0,0,205.7,707.3C197.335,707.869,193.154,708.145,184.785,708.68Z" transform="translate(1098.09 -246.085) rotate(-11)" fill="#fff"/><g transform="translate(1210.645 177.733)"><path d="M280.146,101.085c-1.788-7.615-8.89-10.746-15.9-11.971a29.8,29.8,0,0,0-11.555.418,21.334,21.334,0,0,0-.976-4.614c-1.727-5.259-6.409-8.61-11.372-10.532a25.182,25.182,0,0,0-15.552-.913,19.516,19.516,0,0,0-5.855,2.68c-.535-4.114-2.032-8.019-5.569-10.6-4.534-3.3-9.486-3.891-14.841-2.443A20.256,20.256,0,0,0,186.792,71.6a26.234,26.234,0,0,0-2.075,3.551,31.732,31.732,0,0,0-7.643-2.849c-6.491-1.615-12.909.056-18.443,3.591a28.235,28.235,0,0,0-11.117,13.571,13.7,13.7,0,0,0-.655,2.389q-.62-.282-1.244-.54A30.19,30.19,0,0,0,133.138,88.8a26.016,26.016,0,0,0-16.491,6.831c-3.544-1.767-7.726-2.236-11.631-2.236a18.17,18.17,0,0,0-18.293,13.318c-2.119,7.174,1.734,14.235,8.469,17.108,5.3,2.262,11.33,1.685,16.84.15.019.045.042.1.068.164a17.458,17.458,0,0,0,6.672,7.439,19.871,19.871,0,0,0-.4,3.008,16.324,16.324,0,0,0,8.873,15.043c6.285,3.262,13.508,4.015,20.473,3.412a28.773,28.773,0,0,0,14.965-5.463,28.321,28.321,0,0,0,6.306,6.559c6.364,4.773,14.953,5.822,22.681,5.268a45.346,45.346,0,0,0,23.573-8.756,29.545,29.545,0,0,0,9.138-10.492c.439.225.894.437,1.356.643,5.01,2.089,10.87,1.422,15.892-.272a29.2,29.2,0,0,0,13.057-9.831,26.335,26.335,0,0,0,3.776-6.606,7.836,7.836,0,0,0,.514-2.213,23.192,23.192,0,0,0,11.131-2.741C276.68,115.489,282.009,108.987,280.146,101.085Z" transform="translate(-86.142 -62.368)" fill="#ededed"/><path d="M269.043,117.238a19.213,19.213,0,0,1-8.343,2.351c-1.647.2-3.328.3-4.992.357a36.748,36.748,0,0,1-3.851.023,27.4,27.4,0,0,0,4.74.828,6.768,6.768,0,0,1-.314,1.183,19.928,19.928,0,0,1-3.323,5.606,29.685,29.685,0,0,1-11.009,8.563,25.863,25.863,0,0,1-13.785,2.051,16.47,16.47,0,0,1-2.915-.7,16.949,16.949,0,0,0,1.075-6.123.315.315,0,0,0-.023-.134c-.087,2.4-1.492,4.82-2.687,6.78a23.332,23.332,0,0,1-2.858,3.83,34.827,34.827,0,0,1-6.864,6.045,47.314,47.314,0,0,1-21.858,7.791,36.638,36.638,0,0,1-20.152-3.426,26.087,26.087,0,0,1-7.437-5.761,13.3,13.3,0,0,1-2.79-3.311c-1.5-2.539-1.882-5.32-2.34-8.146a17.272,17.272,0,0,0,2.412,9.751,37.575,37.575,0,0,1-28.567,2.825c-5.444-1.659-9.849-4.712-11.917-10.2a13.7,13.7,0,0,1-.84-4.219,8.444,8.444,0,0,1,.615-6.13c1.349-2.523,3.478-3.776,5.829-4.919-2.34-.085-4.356,1.823-5.71,3.539a10.666,10.666,0,0,0-1.223,1.978,17.589,17.589,0,0,1-2.887-2.415,16.84,16.84,0,0,1-4.909-6.059,29.192,29.192,0,0,1-2.042-5.083c-.153-.486-.284-.979-.392-1.474a28.045,28.045,0,0,0,1.943,9.04,35.54,35.54,0,0,1-12.266.063c-6.282-1.209-11.4-6.334-11.1-12.949.354-7.6,7.209-13.79,14.529-14.4a36.419,36.419,0,0,1,11.232.793,15.641,15.641,0,0,1,1.718.5,22.169,22.169,0,0,0-2.849,3.7c-.246.563-.476,1.138-.683,1.713a18.26,18.26,0,0,1,6.09-6.228,26.455,26.455,0,0,1,16.9-6.238,30.512,30.512,0,0,1,11.727,2.732,12.923,12.923,0,0,0,.3,4.97A13.14,13.14,0,0,1,149.3,88.27c.27-.6.563-1.169.866-1.7A29.44,29.44,0,0,1,162.82,74.6a23.914,23.914,0,0,1,18.349-.781c1.124.383,2.225.793,3.283,1.27l-.023.054c.19.07.373.136.549.207v0a.8.8,0,0,1,.1.045c.256.117.526.23.784.357,1.07.512,2.2,1.023,3.236,1.645a13.352,13.352,0,0,0-3.168-2.6c-.16-.106-.331-.2-.5-.305.551-1.023,1.152-2.009,1.758-2.938a18.275,18.275,0,0,1,11.081-7.723,21.055,21.055,0,0,1,6.975-.662,15.112,15.112,0,0,1,6.066,2.321,13.619,13.619,0,0,1,6.188,8.331,7.892,7.892,0,0,1,.5,1.3,16.114,16.114,0,0,1,1.1,3.492.52.52,0,0,0,.237-.406c-.026-.591-.061-1.171-.11-1.753a29.667,29.667,0,0,1,3.323-1.457c4.893-1.816,10.309-1.474,15.242-.023,4.557,1.345,9.117,4.149,11.5,8.359a16.4,16.4,0,0,1,1.983,5.623c-2.384.72-5.118,2.035-6.477,4.011a15.655,15.655,0,0,1,10.809-3.476,32.894,32.894,0,0,1,8.11.845c6.2,1.413,12.17,4.079,14.092,10.689C279.806,107.86,274.612,114.051,269.043,117.238Z" transform="translate(-83.295 -61.385)" fill="#fff"/><path d="M237.78,84.5c2.936,4.121,2.936,10,8.821,11.764-2.948,4.705-10.586,6.465-14.707,3.527-3.546-2.22-4.757-5.766-6.892-8.892.275,9.432-4.4,19.7-13.1,22.411-15.873,5.881-35.865,6.47-48.805-4.7-2.772-2.783-2.872-7.165-2.105-11.527-3.053,4.238-4.7,9.352-3.776,14.468-5.292.591-9.995,1.758-15.282,1.171-6.47-1.171-15.885-4.7-14.123-12.933a14.143,14.143,0,0,1,5.71-7.223c-5.637.645-11.734,1.988-14.524,6.641-5.581-4.471-9.03-11.046-8.378-18.72-3.2,3.537-5.456,8.476-3.975,13.423C98.291,95.666,89.62,90.853,88.47,83.657a11.952,11.952,0,0,0-.2,1.72c-.3,6.615,4.816,11.741,11.1,12.949a35.54,35.54,0,0,0,12.266-.063,28.045,28.045,0,0,1-1.943-9.04c.108.5.239.988.392,1.474a29.192,29.192,0,0,0,2.042,5.083,16.841,16.841,0,0,0,4.909,6.059,17.588,17.588,0,0,0,2.887,2.415,10.667,10.667,0,0,1,1.223-1.978c1.354-1.715,3.37-3.623,5.71-3.539-2.351,1.143-4.48,2.4-5.829,4.919a8.444,8.444,0,0,0-.615,6.13,13.7,13.7,0,0,0,.84,4.219c2.067,5.484,6.472,8.537,11.917,10.2a37.575,37.575,0,0,0,28.567-2.825,17.272,17.272,0,0,1-2.412-9.751c.458,2.825.842,5.606,2.34,8.146a13.3,13.3,0,0,0,2.79,3.311,26.087,26.087,0,0,0,7.437,5.761,36.638,36.638,0,0,0,20.152,3.426,47.313,47.313,0,0,0,21.858-7.791,34.827,34.827,0,0,0,6.864-6.045,23.331,23.331,0,0,0,2.858-3.83c1.195-1.96,2.6-4.379,2.687-6.78a.315.315,0,0,1,.023.134,16.949,16.949,0,0,1-1.075,6.123,16.47,16.47,0,0,0,2.915.7,25.863,25.863,0,0,0,13.785-2.051,29.685,29.685,0,0,0,11.009-8.563,19.928,19.928,0,0,0,3.323-5.606,6.768,6.768,0,0,0,.314-1.183,27.4,27.4,0,0,1-4.74-.828,36.748,36.748,0,0,0,3.851-.023c1.664-.056,3.344-.153,4.992-.357a19.213,19.213,0,0,0,8.343-2.351c4.33-2.464,8.42-6.761,9.1-11.769C268.907,94.063,248.627,96.5,237.78,84.5Z" transform="translate(-83.295 -37.966)" fill="#ededed" opacity="0.4"/></g></g></svg>