<svg id="Layer_1" data-name="Layer 1" xmlns="http://www.w3.org/2000/svg" viewBox="0 0 594.87 700"><defs><style>.cls-1{fill:#777e91;}</style></defs><path id="DeFi-Pulse" class="cls-1" d="M503.42,177.78c63.25,63.25,91.45,133.33,91.45,223.93C594.87,577.78,466.67,700,283.76,700H104.27L0,595.73V0H182.91C281.2,0,363.25,35,419.66,94ZM99.15,94h-.86v21.36l88.89,88V182.05Zm102.56,85.47L116.24,94h-12l85.47,85.47Zm29.91,0L146.15,94H122.22l85.47,85.47ZM183.76,94H152.14l85.47,85.47h31.62ZM300,179.49,216.24,95.73A257.94,257.94,0,0,0,189.74,94l85.47,85.47H300Zm26.5,2.56-81.2-81.2c-6.84-1.7-14.53-2.56-22.22-4.27L306,179.49C312.82,180.34,320.51,181.2,326.5,182.05Zm24.78,6-79.49-79.48c-6-1.71-12-4.28-18.8-6l81.2,81.2c6,1.7,11.11,2.55,17.09,4.23Zm8.55,3.42c5.13,2.57,11.11,5.13,16.24,7.7l-76.92-76.93c-5.13-2.56-11.12-6-17.1-8.54ZM97.44,280.34l15.38,15.39-3.42,3.42-12-12V506.84h88.88V209.4l-88.88-88v20.51L182,226.53l-3.42,2.56L97.4,147.89v21.37l70.08,70.94L165,243.59,97.44,176.07v21.37l56.41,57.26-2.57,3.42L97.44,204.27v21.37l42.73,43.59-2.56,3.42L97.44,232.48V254.7l29.06,29.06-3.42,3.42L97.44,261.54Zm272.65-94a191.36,191.36,0,0,0-55.56-55.55Zm124.78-.85-34.19-35c22.23,42.73,37.61,94.87,37.61,149.57v17.09l85.47,86.33v-1.71c-.85-88.09-29.06-154.77-88.89-216.3ZM198.29,506.84c122.22-6.84,200.86-87.18,200.86-206,0-30.76-5.13-59.82-15.39-84.61-25.64-18-54.7-24.79-100-24.79H198.29Zm282-99.15,88.89,88.89a321.4,321.4,0,0,0,14.53-88l-86.32-86.33a369.49,369.49,0,0,1-17.05,85.44Zm87.18,93.16L478.63,412a248.89,248.89,0,0,1-29.91,58.12l89.74,90.59c12-18,21.37-38.49,29.06-59.86ZM501.71,606a270.65,270.65,0,0,0,34.19-41.9l-89.75-89.74a268.26,268.26,0,0,1-35.89,41ZM370.94,546.15l91.45,91.46c12.82-8.55,24.79-18.81,36.76-29.06l-91.46-91.46A287.55,287.55,0,0,1,370.94,546.15Zm-41,22.23,91.46,91.45c12.82-6,24.78-12.82,36.75-19.66L366.7,548.72c-11.14,7.69-23.11,13.67-36.79,19.66ZM290.6,582.91l91.45,91.45A301.33,301.33,0,0,0,418,661.54l-91.5-91.45A256.43,256.43,0,0,1,290.6,582.91Zm-37.6,9.4,90.6,91.45a219.78,219.78,0,0,0,34.19-7.69l-90.6-90.6C276.07,588,264.1,590.6,253,592.31Zm-6,.85c-10.26,1.71-20.51,3.42-30.77,4.28L306,687.18c11.11,0,21.37-1.71,31.63-2.56ZM271.79,688h29.06l-89.74-89.74c-9.4,0-18.8.86-28.2.86h0ZM20.51,598.29l88.89,88.89h6L26.5,598.29Zm12,0,88.89,88.89h7.69L40.17,598.29Zm12.82,0,88.89,88.89h9.4l-88-88.89Zm16.24,0,88.89,88.89h12l-89-88.89Zm17.95,0,88.89,88.89h14.53L94,598.29Zm20.51,0,88.89,88.89h18l-89.75-88.89Zm23.93,0,88.89,88.89h21.37L145.3,598.29Zm27.35,0,88.89,88.89h25.64L176.1,598.29Z"/></svg>