<svg width="65" height="64" viewBox="0 0 65 64" fill="none" xmlns="http://www.w3.org/2000/svg">
<path d="M32.5 9.045C39.976 9.045 40.862 9.074 43.814 9.208C45.5897 9.22957 47.3486 9.55563 49.014 10.172C50.2213 10.6382 51.3178 11.3518 52.233 12.267C53.1482 13.1822 53.8618 14.2787 54.328 15.486C54.9444 17.1514 55.2704 18.9103 55.292 20.686C55.426 23.638 55.455 24.524 55.455 32C55.455 39.476 55.426 40.362 55.292 43.314C55.2704 45.0897 54.9444 46.8486 54.328 48.514C53.8618 49.7213 53.1482 50.8178 52.233 51.733C51.3178 52.6482 50.2213 53.3618 49.014 53.828C47.3486 54.4444 45.5897 54.7704 43.814 54.792C40.862 54.926 39.977 54.955 32.5 54.955C25.023 54.955 24.138 54.926 21.186 54.792C19.4103 54.7704 17.6514 54.4444 15.986 53.828C14.7787 53.3618 13.6822 52.6482 12.767 51.733C11.8518 50.8178 11.1382 49.7213 10.672 48.514C10.0556 46.8486 9.72957 45.0897 9.708 43.314C9.574 40.362 9.545 39.476 9.545 32C9.545 24.524 9.574 23.638 9.708 20.686C9.72957 18.9103 10.0556 17.1514 10.672 15.486C11.1382 14.2787 11.8518 13.1822 12.767 12.267C13.6822 11.3518 14.7787 10.6382 15.986 10.172C17.6514 9.55563 19.4103 9.22957 21.186 9.208C24.138 9.074 25.024 9.045 32.5 9.045ZM32.5 4C24.9 4 23.942 4.032 20.956 4.168C18.6321 4.21371 16.3329 4.65328 14.156 5.468C12.2965 6.1883 10.608 7.28891 9.19835 8.69938C7.78874 10.1098 6.68916 11.7991 5.97 13.659C5.15528 15.8359 4.71571 18.1351 4.67 20.459C4.532 23.442 4.5 24.4 4.5 32C4.5 39.6 4.532 40.558 4.668 43.544C4.71371 45.8679 5.15328 48.1671 5.968 50.344C6.68773 52.2038 7.78787 53.8929 9.198 55.303C10.6081 56.7131 12.2972 57.8133 14.157 58.533C16.3339 59.3477 18.6331 59.7873 20.957 59.833C23.942 59.968 24.9 60 32.5 60C40.1 60 41.058 59.968 44.044 59.832C46.3679 59.7863 48.6671 59.3467 50.844 58.532C52.7038 57.8123 54.3929 56.7121 55.803 55.302C57.2131 53.8919 58.3133 52.2028 59.033 50.343C59.8477 48.1661 60.2873 45.8669 60.333 43.543C60.468 40.558 60.5 39.6 60.5 32C60.5 24.4 60.468 23.442 60.332 20.456C60.2863 18.1321 59.8467 15.8329 59.032 13.656C58.3117 11.7965 57.2111 10.108 55.8006 8.69835C54.3902 7.28874 52.7009 6.18916 50.841 5.47C48.6641 4.65528 46.3649 4.21571 44.041 4.17C41.058 4.032 40.1 4 32.5 4Z" fill="#F9FAFB"/>
<path d="M32.5 17.6221C29.6563 17.6221 26.8765 18.4653 24.512 20.0452C22.1476 21.6251 20.3047 23.8706 19.2165 26.4978C18.1282 29.1251 17.8435 32.016 18.3983 34.8051C18.953 37.5941 20.3224 40.1561 22.3332 42.1669C24.344 44.1777 26.9059 45.547 29.695 46.1018C32.4841 46.6566 35.375 46.3718 38.0022 45.2836C40.6295 44.1954 42.875 42.3525 44.4549 39.9881C46.0347 37.6236 46.878 34.8438 46.878 32.0001C46.878 28.1868 45.3632 24.5297 42.6668 21.8333C39.9704 19.1369 36.3133 17.6221 32.5 17.6221ZM32.5 41.3331C30.6541 41.3331 28.8497 40.7857 27.3149 39.7602C25.7801 38.7347 24.5838 37.277 23.8774 35.5717C23.171 33.8663 22.9862 31.9897 23.3463 30.1793C23.7064 28.3689 24.5953 26.7059 25.9006 25.4006C27.2058 24.0954 28.8688 23.2065 30.6792 22.8464C32.4896 22.4863 34.3662 22.6711 36.0716 23.3775C37.777 24.0839 39.2346 25.2801 40.2601 26.8149C41.2856 28.3497 41.833 30.1542 41.833 32.0001C41.8331 33.2257 41.5918 34.4394 41.1228 35.5718C40.6539 36.7042 39.9664 37.7331 39.0997 38.5998C38.233 39.4665 37.2041 40.1539 36.0717 40.6229C34.9393 41.0919 33.7257 41.3332 32.5 41.3331Z" fill="#F9FAFB"/>
<path d="M47.446 20.4141C49.3017 20.4141 50.806 18.9098 50.806 17.0541C50.806 15.1984 49.3017 13.6941 47.446 13.6941C45.5903 13.6941 44.086 15.1984 44.086 17.0541C44.086 18.9098 45.5903 20.4141 47.446 20.4141Z" fill="#F9FAFB"/>
</svg>
