<svg width="25" height="25" viewBox="0 0 25 25" fill="none" xmlns="http://www.w3.org/2000/svg">
<path d="M24.2188 0H0.78125C0.57405 0 0.375336 0.08231 0.228823 0.228823C0.08231 0.375336 0 0.57405 0 0.78125L0 24.2188C0 24.426 0.08231 24.6247 0.228823 24.7712C0.375336 24.9177 0.57405 25 0.78125 25H24.2188C24.426 25 24.6247 24.9177 24.7712 24.7712C24.9177 24.6247 25 24.426 25 24.2188V0.78125C25 0.57405 24.9177 0.375336 24.7712 0.228823C24.6247 0.08231 24.426 0 24.2188 0V0ZM20.7691 5.92305L19.4285 7.20859C19.3717 7.25174 19.3278 7.3096 19.3016 7.37591C19.2754 7.44222 19.2678 7.51445 19.2797 7.58477V17.0312C19.2678 17.1016 19.2754 17.1738 19.3016 17.2401C19.3278 17.3064 19.3717 17.3643 19.4285 17.4074L20.7379 18.693V18.975H14.1516V18.693L15.5078 17.3754C15.641 17.2422 15.641 17.2031 15.641 16.9992V9.36445L11.8699 18.943H11.3621L6.96953 9.36445V15.784C6.95147 15.9172 6.96396 16.0527 7.00605 16.1804C7.04815 16.308 7.11875 16.4244 7.2125 16.5207L8.97656 18.6605V18.9426H3.97422V18.6605L5.73828 16.5207C5.83127 16.4243 5.9003 16.3074 5.93979 16.1794C5.97928 16.0515 5.98813 15.916 5.96563 15.784V8.36211C5.97562 8.26074 5.96167 8.15844 5.9249 8.06346C5.88813 7.96847 5.82955 7.88344 5.75391 7.81523L4.18594 5.92617V5.64414H9.05508L12.8188 13.898L16.1277 5.64414H20.7691V5.92305Z" fill="#777E91"/>
</svg>
