<svg width="261" height="32" viewBox="0 0 261 32" fill="none" xmlns="http://www.w3.org/2000/svg">
<path d="M16 32C24.8366 32 32 24.8366 32 16C32 7.16344 24.8366 0 16 0C7.16344 0 0 7.16344 0 16C0 24.8366 7.16344 32 16 32Z" fill="url(#paint0_linear)"/>
<path d="M15.5 18C16.3284 18 17 17.3284 17 16.5C17 15.6716 16.3284 15 15.5 15C14.6716 15 14 15.6716 14 16.5C14 17.3284 14.6716 18 15.5 18Z" fill="white"/>
<path d="M14 10C14.5523 10 15 9.55228 15 9C15 8.44771 14.5523 8 14 8C13.4477 8 13 8.44771 13 9C13 9.55228 13.4477 10 14 10Z" fill="white"/>
<path d="M23.5 17C23.2032 17 22.913 17.0587 22.6663 17.1687C22.4195 17.2787 22.2273 17.435 22.1138 17.6179C22.0004 17.8007 21.9709 18.0019 22.0291 18.196C22.0873 18.39 22.2305 18.5682 22.4406 18.708C22.6508 18.8477 22.9184 18.9428 23.2096 18.9811C23.5008 19.0194 23.8025 18.9992 24.0765 18.9232C24.3505 18.8471 24.5846 18.7186 24.749 18.5538C24.9133 18.3891 25.0007 18.1955 25 17.9976C24.999 17.7328 24.8406 17.4791 24.5594 17.292C24.2782 17.105 23.8972 17 23.5 17Z" fill="white"/>
<path d="M21.1938 13.0283C21.9366 10.7657 21.8441 8.98183 20.779 8.2869C19.5934 7.52357 17.5923 8.34436 15.507 10.2814C15.3416 10.1282 15.1763 9.98593 15.0137 9.8464C14.9289 10.0362 14.807 10.2081 14.655 10.3525C14.7895 10.4675 14.9352 10.5851 15.0586 10.711C14.523 11.2493 14.0178 11.8155 13.5451 12.4073C12.4941 12.4804 11.4509 12.6359 10.4256 12.8724C9.79215 10.9353 9.81177 9.41412 10.6358 8.87787C10.8195 8.77319 11.0234 8.70676 11.2346 8.68275C11.4459 8.65873 11.66 8.67766 11.8634 8.73833C11.9271 8.5242 12.0349 8.32498 12.1801 8.15284C11.4065 7.91755 10.7311 7.94764 10.2182 8.2869C9.15312 8.98183 9.06063 10.7657 9.80336 13.0283C7.46585 13.6822 6 14.7465 6 16.005C6 17.2636 7.46585 18.3197 9.80617 18.9763C9.7417 19.1733 9.68284 19.3675 9.62959 19.5563H9.72208C9.90522 19.5558 10.0871 19.5854 10.2602 19.6439C10.3079 19.477 10.3583 19.3073 10.4144 19.135C11.444 19.3669 12.4908 19.5188 13.5451 19.5891C14.0196 20.181 14.5267 20.7473 15.0642 21.2854C13.2564 22.9462 11.5579 23.7204 10.6358 23.1213C10.4817 23.0181 10.3534 22.8826 10.2602 22.7245C10.0253 22.8033 9.77488 22.8277 9.52869 22.7957C9.65635 23.1662 9.90307 23.4867 10.2322 23.7095C11.4065 24.4865 13.4077 23.6657 15.507 21.715C17.5923 23.6657 19.5934 24.4865 20.779 23.7095C21.8441 23.0146 21.9366 21.2307 21.1938 18.9681C21.4124 18.9079 21.6227 18.845 21.8245 18.7766C21.698 18.6121 21.6031 18.4268 21.5442 18.2294C21.3573 18.2896 21.1705 18.347 20.9836 18.4017C20.667 17.5812 20.2924 16.7831 19.8625 16.0132C20.2919 15.2422 20.6665 14.4432 20.9836 13.622C22.9848 14.1692 24.2685 15.0447 24.2685 16.0132C24.2679 16.1857 24.2277 16.3559 24.1508 16.5112C24.3515 16.6567 24.517 16.8435 24.6356 17.0584C24.8684 16.7538 24.996 16.385 25 16.005C25 14.7465 23.5341 13.6822 21.1938 13.0283ZM15.507 11.135C15.8826 11.5099 16.2638 11.9203 16.6281 12.3607C16.2581 12.3443 15.8798 12.3361 15.507 12.3361C15.1342 12.3361 14.7447 12.3361 14.3859 12.3607C14.7447 11.9203 15.123 11.5099 15.507 11.135ZM13.035 13.0502C12.8163 13.3429 12.6005 13.6439 12.3875 13.9558C12.0624 14.4264 11.7653 14.897 11.4906 15.3593C11.1639 14.738 10.8747 14.0985 10.6246 13.4442C11.4166 13.2642 12.22 13.1353 13.0294 13.0584L13.035 13.0502ZM10.0108 18.3881C8.00959 17.8409 6.72592 16.9654 6.72592 15.9996C6.72592 15.0338 8.00959 14.1692 10.0108 13.6083C10.3268 14.43 10.7014 15.229 11.1319 15.9996C10.701 16.7689 10.3263 17.5671 10.0108 18.3881ZM10.619 18.544C10.8691 17.8897 11.1583 17.2502 11.485 16.6288C11.7653 17.0912 12.0456 17.5618 12.3819 18.0324C12.5949 18.347 12.8107 18.648 13.0322 18.938C12.2197 18.8588 11.4136 18.7272 10.619 18.544ZM12.8892 17.7013C12.4996 17.1295 12.1437 16.5522 11.827 16.005C12.1465 15.4414 12.5006 14.8733 12.8892 14.3005C13.2031 13.8409 13.5245 13.4059 13.8534 12.9955C14.3859 12.9599 14.938 12.9408 15.5014 12.9408C16.0648 12.9408 16.6225 12.9599 17.1494 12.9955C17.4746 13.4086 17.7969 13.8436 18.1108 14.3005C18.4994 14.8733 18.8535 15.4414 19.173 16.005C18.8535 16.5659 18.5004 17.135 18.1108 17.7068C17.7969 18.1582 17.4689 18.5933 17.1494 19.0146C16.615 19.0492 16.0657 19.0675 15.5014 19.0693C14.9408 19.0693 14.3803 19.0502 13.8534 19.0146C13.5264 18.5951 13.205 18.1573 12.8892 17.7013ZM14.3691 19.6356C14.739 19.6521 15.1146 19.6603 15.4902 19.6603C15.8658 19.6603 16.2525 19.6603 16.6113 19.6356C16.2357 20.0789 15.8546 20.4893 15.4902 20.8614C15.123 20.4893 14.7447 20.0789 14.3691 19.6356ZM20.3754 23.1185C19.4561 23.7177 17.7548 22.9434 15.947 21.2827C16.4854 20.7455 16.9934 20.1801 17.4689 19.5891C18.5196 19.5155 19.5627 19.3609 20.5884 19.1268C21.2191 21.0638 21.1994 22.5713 20.3754 23.1185ZM20.3754 18.5413C19.5818 18.7245 18.7765 18.8561 17.965 18.9352C18.1837 18.6452 18.3995 18.3443 18.6153 18.0296C18.9376 17.5591 19.2347 17.0885 19.5094 16.6261C19.8381 17.2482 20.1292 17.8886 20.381 18.544L20.3754 18.5413ZM19.515 15.3676C19.2347 14.9052 18.9544 14.4346 18.6209 13.964C18.4051 13.6521 18.1893 13.3512 17.9706 13.0584C18.7821 13.1376 19.5874 13.2692 20.381 13.4524C20.1309 14.1067 19.8417 14.7462 19.515 15.3676ZM20.5856 12.8724C19.5612 12.636 18.5189 12.4805 17.4689 12.4073C16.9944 11.8154 16.4873 11.2491 15.9498 10.711C17.7576 9.05023 19.4589 8.27596 20.3782 8.87787C21.1994 9.41412 21.2191 10.9353 20.5856 12.8724Z" fill="white"/>
<path d="M11 21.5C11 21.2033 10.9414 20.9133 10.8315 20.6666C10.7216 20.42 10.5654 20.2277 10.3827 20.1142C10.2 20.0006 9.99889 19.9709 9.80491 20.0288C9.61093 20.0867 9.43275 20.2296 9.29289 20.4393C9.15304 20.6491 9.0578 20.9164 9.01922 21.2074C8.98063 21.4983 9.00043 21.7999 9.07612 22.074C9.15181 22.3481 9.27998 22.5824 9.44443 22.7472C9.60888 22.912 9.80222 23 10 23C10.2652 23 10.5196 22.842 10.7071 22.5607C10.8946 22.2794 11 21.8978 11 21.5Z" fill="white"/>
<path d="M50.056 25.336C48.296 25.336 46.712 24.968 45.304 24.232C43.912 23.48 42.816 22.44 42.016 21.112C41.216 19.784 40.816 18.28 40.816 16.6C40.816 14.92 41.216 13.416 42.016 12.088C42.816 10.76 43.912 9.728 45.304 8.992C46.712 8.24 48.296 7.864 50.056 7.864C51.592 7.864 52.976 8.136 54.208 8.68C55.44 9.224 56.464 10.008 57.28 11.032L54.256 13.768C53.168 12.456 51.848 11.8 50.296 11.8C49.384 11.8 48.568 12 47.848 12.4C47.144 12.8 46.592 13.368 46.192 14.104C45.808 14.824 45.616 15.656 45.616 16.6C45.616 17.544 45.808 18.384 46.192 19.12C46.592 19.84 47.144 20.4 47.848 20.8C48.568 21.2 49.384 21.4 50.296 21.4C51.848 21.4 53.168 20.744 54.256 19.432L57.28 22.168C56.464 23.192 55.44 23.976 54.208 24.52C52.976 25.064 51.592 25.336 50.056 25.336ZM67.1748 11.776C68.7908 11.776 70.0868 12.256 71.0628 13.216C72.0548 14.176 72.5508 15.624 72.5508 17.56V25H67.9908V18.304C67.9908 16.528 67.2788 15.64 65.8548 15.64C65.0708 15.64 64.4388 15.896 63.9588 16.408C63.4948 16.92 63.2628 17.688 63.2628 18.712V25H58.7028V7.192H63.2628V13.192C63.7588 12.728 64.3428 12.376 65.0148 12.136C65.6868 11.896 66.4068 11.776 67.1748 11.776ZM80.4777 11.776C82.6377 11.776 84.2857 12.272 85.4217 13.264C86.5577 14.24 87.1257 15.744 87.1257 17.776V25H82.8777V23.32C82.2217 24.584 80.9417 25.216 79.0377 25.216C78.0297 25.216 77.1577 25.04 76.4217 24.688C75.6857 24.336 75.1257 23.864 74.7417 23.272C74.3737 22.664 74.1897 21.976 74.1897 21.208C74.1897 19.976 74.6617 19.024 75.6057 18.352C76.5497 17.664 78.0057 17.32 79.9737 17.32H82.5657C82.4857 15.944 81.5657 15.256 79.8057 15.256C79.1817 15.256 78.5497 15.36 77.9097 15.568C77.2697 15.76 76.7257 16.032 76.2777 16.384L74.7417 13.288C75.4617 12.808 76.3337 12.44 77.3577 12.184C78.3977 11.912 79.4377 11.776 80.4777 11.776ZM80.3097 22.336C80.8377 22.336 81.3017 22.208 81.7017 21.952C82.1017 21.696 82.3897 21.32 82.5657 20.824V19.696H80.5977C79.2697 19.696 78.6057 20.136 78.6057 21.016C78.6057 21.416 78.7577 21.736 79.0617 21.976C79.3657 22.216 79.7817 22.336 80.3097 22.336ZM93.868 13.552C94.332 12.96 94.932 12.52 95.668 12.232C96.42 11.928 97.276 11.776 98.236 11.776V15.88C97.82 15.832 97.476 15.808 97.204 15.808C96.228 15.808 95.46 16.072 94.9 16.6C94.356 17.128 94.084 17.936 94.084 19.024V25H89.524V11.992H93.868V13.552ZM113.513 11.992V22.624C113.513 25.04 112.857 26.848 111.545 28.048C110.233 29.264 108.345 29.872 105.881 29.872C104.601 29.872 103.401 29.728 102.281 29.44C101.161 29.152 100.209 28.728 99.4246 28.168L101.081 24.976C101.609 25.408 102.273 25.744 103.073 25.984C103.889 26.24 104.689 26.368 105.473 26.368C106.673 26.368 107.553 26.104 108.113 25.576C108.673 25.048 108.953 24.264 108.953 23.224V22.792C108.073 23.816 106.785 24.328 105.089 24.328C103.937 24.328 102.873 24.072 101.897 23.56C100.921 23.032 100.145 22.296 99.5686 21.352C98.9926 20.392 98.7046 19.288 98.7046 18.04C98.7046 16.808 98.9926 15.72 99.5686 14.776C100.145 13.816 100.921 13.08 101.897 12.568C102.873 12.04 103.937 11.776 105.089 11.776C106.945 11.776 108.305 12.376 109.169 13.576V11.992H113.513ZM106.169 20.704C106.985 20.704 107.657 20.456 108.185 19.96C108.729 19.464 109.001 18.824 109.001 18.04C109.001 17.256 108.737 16.624 108.209 16.144C107.681 15.648 107.001 15.4 106.169 15.4C105.337 15.4 104.649 15.648 104.105 16.144C103.577 16.624 103.313 17.256 103.313 18.04C103.313 18.824 103.585 19.464 104.129 19.96C104.673 20.456 105.353 20.704 106.169 20.704ZM129.258 18.52C129.258 18.552 129.234 18.928 129.186 19.648H119.73C119.922 20.32 120.29 20.84 120.834 21.208C121.394 21.56 122.09 21.736 122.922 21.736C123.546 21.736 124.082 21.648 124.53 21.472C124.994 21.296 125.458 21.008 125.922 20.608L128.322 23.104C127.058 24.512 125.21 25.216 122.778 25.216C121.258 25.216 119.922 24.928 118.77 24.352C117.618 23.776 116.722 22.976 116.082 21.952C115.458 20.928 115.146 19.768 115.146 18.472C115.146 17.192 115.45 16.048 116.058 15.04C116.682 14.016 117.538 13.216 118.626 12.64C119.714 12.064 120.938 11.776 122.298 11.776C123.594 11.776 124.77 12.048 125.826 12.592C126.882 13.12 127.714 13.896 128.322 14.92C128.946 15.928 129.258 17.128 129.258 18.52ZM122.322 15.016C121.618 15.016 121.026 15.216 120.546 15.616C120.082 16.016 119.786 16.56 119.658 17.248H124.986C124.858 16.56 124.554 16.016 124.074 15.616C123.61 15.216 123.026 15.016 122.322 15.016ZM144.705 7.192V25H140.361V23.704C139.513 24.712 138.241 25.216 136.545 25.216C135.361 25.216 134.281 24.944 133.305 24.4C132.329 23.84 131.553 23.048 130.977 22.024C130.417 21 130.137 19.816 130.137 18.472C130.137 17.128 130.417 15.952 130.977 14.944C131.553 13.92 132.329 13.136 133.305 12.592C134.281 12.048 135.361 11.776 136.545 11.776C138.097 11.776 139.297 12.224 140.145 13.12V7.192H144.705ZM137.505 21.592C138.289 21.592 138.937 21.32 139.449 20.776C139.961 20.216 140.217 19.448 140.217 18.472C140.217 17.512 139.961 16.76 139.449 16.216C138.953 15.672 138.305 15.4 137.505 15.4C136.705 15.4 136.049 15.672 135.537 16.216C135.025 16.76 134.769 17.512 134.769 18.472C134.769 19.448 135.025 20.216 135.537 20.776C136.049 21.32 136.705 21.592 137.505 21.592ZM161.559 8.2C163.079 8.2 164.399 8.456 165.519 8.968C166.639 9.464 167.503 10.184 168.111 11.128C168.719 12.056 169.023 13.152 169.023 14.416C169.023 15.68 168.719 16.776 168.111 17.704C167.503 18.632 166.639 19.352 165.519 19.864C164.399 20.36 163.079 20.608 161.559 20.608H158.631V25H153.879V8.2H161.559ZM161.271 16.864C162.247 16.864 162.983 16.656 163.479 16.24C163.975 15.808 164.223 15.2 164.223 14.416C164.223 13.632 163.975 13.024 163.479 12.592C162.983 12.16 162.247 11.944 161.271 11.944H158.631V16.864H161.271ZM176.071 11.776C178.231 11.776 179.879 12.272 181.015 13.264C182.151 14.24 182.719 15.744 182.719 17.776V25H178.471V23.32C177.815 24.584 176.535 25.216 174.631 25.216C173.623 25.216 172.751 25.04 172.015 24.688C171.279 24.336 170.719 23.864 170.335 23.272C169.967 22.664 169.783 21.976 169.783 21.208C169.783 19.976 170.255 19.024 171.199 18.352C172.143 17.664 173.599 17.32 175.567 17.32H178.159C178.079 15.944 177.159 15.256 175.399 15.256C174.775 15.256 174.143 15.36 173.503 15.568C172.863 15.76 172.319 16.032 171.871 16.384L170.335 13.288C171.055 12.808 171.927 12.44 172.951 12.184C173.991 11.912 175.031 11.776 176.071 11.776ZM175.903 22.336C176.431 22.336 176.895 22.208 177.295 21.952C177.695 21.696 177.983 21.32 178.159 20.824V19.696H176.191C174.863 19.696 174.199 20.136 174.199 21.016C174.199 21.416 174.351 21.736 174.655 21.976C174.959 22.216 175.375 22.336 175.903 22.336ZM189.461 13.552C189.925 12.96 190.525 12.52 191.261 12.232C192.013 11.928 192.869 11.776 193.829 11.776V15.88C193.413 15.832 193.069 15.808 192.797 15.808C191.821 15.808 191.053 16.072 190.493 16.6C189.949 17.128 189.677 17.936 189.677 19.024V25H185.117V11.992H189.461V13.552ZM204.605 24.472C204.221 24.712 203.749 24.896 203.189 25.024C202.645 25.152 202.061 25.216 201.437 25.216C199.741 25.216 198.437 24.8 197.525 23.968C196.613 23.136 196.157 21.896 196.157 20.248V15.88H194.261V12.472H196.157V9.088H200.717V12.472H203.693V15.88H200.717V20.2C200.717 20.664 200.837 21.032 201.077 21.304C201.333 21.56 201.669 21.688 202.085 21.688C202.613 21.688 203.077 21.552 203.477 21.28L204.605 24.472ZM205.884 11.992H210.444V25H205.884V11.992ZM208.164 10.552C207.332 10.552 206.66 10.32 206.148 9.856C205.636 9.392 205.38 8.816 205.38 8.128C205.38 7.44 205.636 6.864 206.148 6.4C206.66 5.936 207.332 5.704 208.164 5.704C208.996 5.704 209.668 5.928 210.18 6.376C210.692 6.808 210.948 7.368 210.948 8.056C210.948 8.776 210.692 9.376 210.18 9.856C209.668 10.32 208.996 10.552 208.164 10.552ZM219.575 25.216C218.135 25.216 216.847 24.928 215.711 24.352C214.575 23.776 213.687 22.976 213.047 21.952C212.423 20.928 212.111 19.768 212.111 18.472C212.111 17.176 212.423 16.024 213.047 15.016C213.687 13.992 214.575 13.2 215.711 12.64C216.847 12.064 218.135 11.776 219.575 11.776C221.047 11.776 222.319 12.096 223.391 12.736C224.463 13.36 225.223 14.232 225.671 15.352L222.143 17.152C221.551 15.984 220.687 15.4 219.551 15.4C218.735 15.4 218.055 15.672 217.511 16.216C216.983 16.76 216.719 17.512 216.719 18.472C216.719 19.448 216.983 20.216 217.511 20.776C218.055 21.32 218.735 21.592 219.551 21.592C220.687 21.592 221.551 21.008 222.143 19.84L225.671 21.64C225.223 22.76 224.463 23.64 223.391 24.28C222.319 24.904 221.047 25.216 219.575 25.216ZM226.861 7.192H231.421V25H226.861V7.192ZM247.201 18.52C247.201 18.552 247.177 18.928 247.129 19.648H237.673C237.865 20.32 238.233 20.84 238.777 21.208C239.337 21.56 240.033 21.736 240.865 21.736C241.489 21.736 242.025 21.648 242.473 21.472C242.937 21.296 243.401 21.008 243.865 20.608L246.265 23.104C245.001 24.512 243.153 25.216 240.721 25.216C239.201 25.216 237.865 24.928 236.713 24.352C235.561 23.776 234.665 22.976 234.025 21.952C233.401 20.928 233.089 19.768 233.089 18.472C233.089 17.192 233.393 16.048 234.001 15.04C234.625 14.016 235.481 13.216 236.569 12.64C237.657 12.064 238.881 11.776 240.241 11.776C241.537 11.776 242.713 12.048 243.769 12.592C244.825 13.12 245.657 13.896 246.265 14.92C246.889 15.928 247.201 17.128 247.201 18.52ZM240.265 15.016C239.561 15.016 238.969 15.216 238.489 15.616C238.025 16.016 237.729 16.56 237.601 17.248H242.929C242.801 16.56 242.497 16.016 242.017 15.616C241.553 15.216 240.969 15.016 240.265 15.016ZM253.551 25.216C252.463 25.216 251.391 25.096 250.335 24.856C249.279 24.6 248.431 24.272 247.791 23.872L249.159 20.752C249.751 21.12 250.455 21.416 251.271 21.64C252.087 21.848 252.895 21.952 253.695 21.952C254.431 21.952 254.951 21.88 255.255 21.736C255.575 21.576 255.735 21.352 255.735 21.064C255.735 20.776 255.543 20.576 255.159 20.464C254.791 20.336 254.199 20.216 253.383 20.104C252.343 19.976 251.455 19.808 250.719 19.6C249.999 19.392 249.375 19.008 248.847 18.448C248.319 17.888 248.055 17.104 248.055 16.096C248.055 15.264 248.303 14.528 248.799 13.888C249.295 13.232 250.015 12.72 250.959 12.352C251.919 11.968 253.063 11.776 254.391 11.776C255.335 11.776 256.271 11.872 257.199 12.064C258.127 12.256 258.903 12.528 259.527 12.88L258.159 15.976C257.007 15.336 255.759 15.016 254.415 15.016C253.695 15.016 253.167 15.104 252.831 15.28C252.495 15.44 252.327 15.656 252.327 15.928C252.327 16.232 252.511 16.448 252.879 16.576C253.247 16.688 253.855 16.808 254.703 16.936C255.775 17.096 256.663 17.28 257.367 17.488C258.071 17.696 258.679 18.08 259.191 18.64C259.719 19.184 259.983 19.952 259.983 20.944C259.983 21.76 259.735 22.496 259.239 23.152C258.743 23.792 258.007 24.296 257.031 24.664C256.071 25.032 254.911 25.216 253.551 25.216Z" fill="white"/>
<defs>
<linearGradient id="paint0_linear" x1="7.99719" y1="29.8575" x2="24" y2="2.14251" gradientUnits="userSpaceOnUse">
<stop stop-color="#383D63"/>
<stop offset="0.23" stop-color="#693566"/>
<stop offset="0.48" stop-color="#982D6A"/>
<stop offset="0.7" stop-color="#BB276C"/>
<stop offset="0.88" stop-color="#D0236D"/>
<stop offset="1" stop-color="#D8226E"/>
</linearGradient>
</defs>
</svg>
