<svg width="25" height="25" viewBox="0 0 25 25" fill="none" xmlns="http://www.w3.org/2000/svg">
<path d="M12.5 3.5332C15.4203 3.5332 15.7664 3.54453 16.9195 3.59688C17.6132 3.6053 18.3002 3.73267 18.9508 3.97344C19.4224 4.15556 19.8507 4.43431 20.2082 4.7918C20.5657 5.14929 20.8444 5.5776 21.0266 6.04922C21.2673 6.69978 21.3947 7.38683 21.4031 8.08047C21.4555 9.23359 21.4668 9.57969 21.4668 12.5C21.4668 15.4203 21.4555 15.7664 21.4031 16.9195C21.3947 17.6132 21.2673 18.3002 21.0266 18.9508C20.8444 19.4224 20.5657 19.8507 20.2082 20.2082C19.8507 20.5657 19.4224 20.8444 18.9508 21.0266C18.3002 21.2673 17.6132 21.3947 16.9195 21.4031C15.7664 21.4555 15.4207 21.4668 12.5 21.4668C9.5793 21.4668 9.23359 21.4555 8.08047 21.4031C7.38683 21.3947 6.69978 21.2673 6.04922 21.0266C5.5776 20.8444 5.14929 20.5657 4.7918 20.2082C4.43431 19.8507 4.15556 19.4224 3.97344 18.9508C3.73267 18.3002 3.6053 17.6132 3.59688 16.9195C3.54453 15.7664 3.5332 15.4203 3.5332 12.5C3.5332 9.57969 3.54453 9.23359 3.59688 8.08047C3.6053 7.38683 3.73267 6.69978 3.97344 6.04922C4.15556 5.5776 4.43431 5.14929 4.7918 4.7918C5.14929 4.43431 5.5776 4.15556 6.04922 3.97344C6.69978 3.73267 7.38683 3.6053 8.08047 3.59688C9.23359 3.54453 9.57969 3.5332 12.5 3.5332ZM12.5 1.5625C9.53125 1.5625 9.15703 1.575 7.99062 1.62813C7.08286 1.64598 6.18471 1.81769 5.33438 2.13594C4.60802 2.4173 3.94842 2.84723 3.39779 3.39819C2.84716 3.94916 2.41764 4.60902 2.13672 5.33555C1.81847 6.18588 1.64676 7.08404 1.62891 7.9918C1.575 9.15703 1.5625 9.53125 1.5625 12.5C1.5625 15.4687 1.575 15.843 1.62813 17.0094C1.64598 17.9171 1.81769 18.8153 2.13594 19.6656C2.41708 20.3921 2.84682 21.0519 3.39766 21.6027C3.94849 22.1536 4.60827 22.5833 5.33477 22.8645C6.1851 23.1827 7.08325 23.3544 7.99102 23.3723C9.15703 23.425 9.53125 23.4375 12.5 23.4375C15.4687 23.4375 15.843 23.425 17.0094 23.3719C17.9171 23.354 18.8153 23.1823 19.6656 22.8641C20.3921 22.5829 21.0519 22.1532 21.6027 21.6023C22.1536 21.0515 22.5833 20.3917 22.8645 19.6652C23.1827 18.8149 23.3544 17.9167 23.3723 17.009C23.425 15.843 23.4375 15.4687 23.4375 12.5C23.4375 9.53125 23.425 9.15703 23.3719 7.99062C23.354 7.08286 23.1823 6.18471 22.8641 5.33438C22.5827 4.60802 22.1528 3.94842 21.6018 3.39779C21.0508 2.84716 20.391 2.41764 19.6645 2.13672C18.8141 1.81847 17.916 1.64676 17.0082 1.62891C15.843 1.575 15.4687 1.5625 12.5 1.5625Z" fill="#777E91"/>
<path d="M12.5 6.88354C11.3892 6.88354 10.3033 7.21294 9.37971 7.83008C8.45609 8.44722 7.73622 9.32438 7.31113 10.3506C6.88604 11.3769 6.77482 12.5062 6.99153 13.5957C7.20824 14.6851 7.74315 15.6859 8.52862 16.4714C9.31408 17.2568 10.3148 17.7917 11.4043 18.0084C12.4938 18.2252 13.6231 18.1139 14.6493 17.6888C15.6756 17.2637 16.5527 16.5439 17.1699 15.6203C17.787 14.6966 18.1164 13.6108 18.1164 12.5C18.1164 11.0104 17.5247 9.58183 16.4714 8.52855C15.4181 7.47527 13.9896 6.88354 12.5 6.88354ZM12.5 16.1457C11.779 16.1457 11.0741 15.9318 10.4746 15.5312C9.87504 15.1306 9.40776 14.5613 9.13182 13.8951C8.85589 13.2289 8.78369 12.4959 8.92436 11.7887C9.06503 11.0815 9.41225 10.4319 9.92211 9.92205C10.432 9.41219 11.0816 9.06497 11.7888 8.9243C12.496 8.78363 13.229 8.85583 13.8952 9.13176C14.5613 9.4077 15.1307 9.87497 15.5313 10.4745C15.9319 11.074 16.1457 11.7789 16.1457 12.5C16.1458 12.9787 16.0515 13.4528 15.8683 13.8952C15.6851 14.3375 15.4166 14.7394 15.078 15.078C14.7395 15.4165 14.3376 15.6851 13.8952 15.8682C13.4529 16.0514 12.9788 16.1457 12.5 16.1457V16.1457Z" fill="#777E91"/>
<path d="M18.3383 7.9743C19.0631 7.9743 19.6508 7.38668 19.6508 6.6618C19.6508 5.93693 19.0631 5.3493 18.3383 5.3493C17.6134 5.3493 17.0258 5.93693 17.0258 6.6618C17.0258 7.38668 17.6134 7.9743 18.3383 7.9743Z" fill="#777E91"/>
</svg>
