<svg width="25" height="25" viewBox="0 0 25 25" fill="none" xmlns="http://www.w3.org/2000/svg">
<path d="M10.3789 10.6132C10.053 10.6409 9.74932 10.7899 9.52804 11.0308C9.30675 11.2717 9.18396 11.5868 9.18396 11.9139C9.18396 12.241 9.30675 12.5562 9.52804 12.7971C9.74932 13.038 10.053 13.187 10.3789 13.2147C10.7048 13.187 11.0085 13.038 11.2298 12.7971C11.451 12.5562 11.5738 12.241 11.5738 11.9139C11.5738 11.5868 11.451 11.2717 11.2298 11.0308C11.0085 10.7899 10.7048 10.6409 10.3789 10.6132ZM14.6562 10.6132C14.3943 10.591 14.1317 10.6484 13.9029 10.7779C13.6742 10.9074 13.4898 11.103 13.374 11.339C13.2583 11.5751 13.2164 11.8405 13.254 12.1007C13.2917 12.3609 13.407 12.6037 13.5848 12.7973C13.7627 12.9909 13.9949 13.1262 14.251 13.1857C14.5071 13.2451 14.7752 13.2258 15.0201 13.1303C15.2651 13.0349 15.4755 12.8677 15.6238 12.6507C15.7722 12.4336 15.8516 12.1768 15.8516 11.9139C15.8653 11.583 15.7472 11.2601 15.523 11.0162C15.2989 10.7723 14.9872 10.6274 14.6562 10.6132V10.6132Z" fill="#777E91"/>
<path d="M20.3516 0.781244H4.64845C4.34097 0.775758 4.03558 0.832929 3.7509 0.949276C3.46623 1.06562 3.20821 1.23871 2.99259 1.45799C2.77696 1.67727 2.60824 1.93815 2.49669 2.22475C2.38514 2.51134 2.33311 2.81764 2.34377 3.12499V19.1406C2.33777 19.4501 2.39429 19.7575 2.50995 20.0446C2.62561 20.3316 2.79803 20.5924 3.01688 20.8113C3.23572 21.0301 3.49649 21.2025 3.78355 21.3182C4.07062 21.4338 4.37808 21.4904 4.68752 21.4844H17.9688L17.3164 19.2851L18.8164 20.6797L20.2344 21.9922L22.6563 24.2187V3.12499C22.6669 2.81764 22.6149 2.51134 22.5033 2.22475C22.3918 1.93815 22.2231 1.67727 22.0074 1.45799C21.7918 1.23871 21.5338 1.06562 21.2491 0.949276C20.9645 0.832929 20.6591 0.775758 20.3516 0.781244V0.781244ZM15.8281 16.0859C15.8281 16.0859 15.4063 15.582 15.0547 15.1367C15.9041 14.9367 16.6555 14.4428 17.1758 13.7422C16.7541 14.0228 16.302 14.2548 15.8281 14.4336C15.283 14.6663 14.7128 14.8354 14.1289 14.9375C13.1253 15.1223 12.096 15.1183 11.0938 14.9258C10.5054 14.8107 9.92877 14.642 9.37111 14.4219C8.90229 14.24 8.4544 14.0082 8.03517 13.7305C8.53667 14.4164 9.26207 14.9055 10.086 15.1133C9.73439 15.5586 9.3008 16.0859 9.3008 16.0859C6.71095 16.0039 5.72658 14.3047 5.72658 14.3047C5.76463 11.929 6.34164 9.59288 7.41408 7.47265C8.35785 6.73142 9.50846 6.30148 10.707 6.24218L10.8242 6.38281C8.71486 6.99218 7.7422 7.91796 7.7422 7.91796C7.7422 7.91796 8.00002 7.77734 8.43361 7.57812C9.27597 7.19361 10.1737 6.94445 11.0938 6.83984C11.1594 6.82626 11.226 6.81842 11.293 6.8164C12.0783 6.71409 12.873 6.70622 13.6602 6.79296C14.8981 6.93434 16.0964 7.31652 17.1875 7.91796C16.3312 7.22091 15.3366 6.71363 14.2695 6.42968L14.4336 6.24218C15.6322 6.30148 16.7828 6.73142 17.7266 7.47265C18.799 9.59288 19.376 11.929 19.4141 14.3047C19.4141 14.3047 18.418 16.0039 15.8281 16.0859Z" fill="#777E91"/>
</svg>
