<svg width="25" height="25" viewBox="0 0 25 25" fill="none" xmlns="http://www.w3.org/2000/svg">
<g clip-path="url(#clip0)">
<path d="M25 4.76562C24.0625 5.15625 23.0859 5.46875 22.0703 5.58594C23.125 4.96094 23.9453 3.94531 24.3359 2.73438C23.3594 3.32031 22.2656 3.75 21.0938 3.98437C20.1172 2.96875 18.7891 2.34375 17.3047 2.34375C14.4531 2.34375 12.1875 4.64844 12.1875 7.46094C12.1875 7.85156 12.2266 8.24219 12.3047 8.63281C8.04688 8.4375 4.25781 6.36719 1.75781 3.28125C1.32812 4.02344 1.05469 4.92187 1.05469 5.85938C1.05469 7.65625 1.95312 9.21875 3.32031 10.1172C2.46094 10.0781 1.67969 9.84375 1.01562 9.49219C1.01562 9.53125 1.01562 9.53125 1.01562 9.57031C1.01562 12.0703 2.77344 14.1406 5.11719 14.6094C4.6875 14.7266 4.21875 14.8047 3.75 14.8047C3.4375 14.8047 3.08594 14.7656 2.77344 14.7266C3.4375 16.7578 5.3125 18.2422 7.57812 18.2812C5.82031 19.6484 3.59375 20.4688 1.21094 20.4688C0.78125 20.4688 0.390625 20.4297 0 20.3906C2.26563 21.7969 4.96094 22.6562 7.85156 22.6562C17.3047 22.6562 22.4609 14.8438 22.4609 8.04688C22.4609 7.8125 22.4609 7.61719 22.4609 7.38281C23.4375 6.67969 24.2969 5.78125 25 4.76562Z" fill="#777E91"/>
</g>
<defs>
<clipPath id="clip0">
<rect width="25" height="25" fill="white"/>
</clipPath>
</defs>
</svg>
