<svg width="64" height="64" viewBox="0 0 64 64" fill="none" xmlns="http://www.w3.org/2000/svg">
<g clip-path="url(#clip0)">
<path d="M64 12.2C61.6 13.2 59.1 14 56.5 14.3C59.2 12.7 61.3 10.1 62.3 7C59.8 8.5 57 9.6 54 10.2C51.5 7.6 48.1 6 44.3 6C37 6 31.2 11.9 31.2 19.1C31.2 20.1 31.3 21.1 31.5 22.1C20.6 21.6 10.9 16.3 4.5 8.4C3.4 10.3 2.7 12.6 2.7 15C2.7 19.6 5 23.6 8.5 25.9C6.3 25.8 4.3 25.2 2.6 24.3C2.6 24.4 2.6 24.4 2.6 24.5C2.6 30.9 7.1 36.2 13.1 37.4C12 37.7 10.8 37.9 9.6 37.9C8.8 37.9 7.9 37.8 7.1 37.7C8.8 42.9 13.6 46.7 19.4 46.8C14.9 50.3 9.2 52.4 3.1 52.4C2 52.4 1 52.3 0 52.2C5.8 55.8 12.7 58 20.1 58C44.3 58 57.5 38 57.5 20.6C57.5 20 57.5 19.5 57.5 18.9C60 17.1 62.2 14.8 64 12.2Z" fill="#F9FAFB"/>
</g>
<defs>
<clipPath id="clip0">
<rect width="64" height="64" fill="white"/>
</clipPath>
</defs>
</svg>
