<svg width="65" height="64" viewBox="0 0 65 64" fill="none" xmlns="http://www.w3.org/2000/svg">
<g clip-path="url(#clip0)">
<path d="M62.5 0H2.5C1.96957 0 1.46086 0.210714 1.08579 0.585786C0.710714 0.960859 0.5 1.46957 0.5 2L0.5 62C0.5 62.5304 0.710714 63.0391 1.08579 63.4142C1.46086 63.7893 1.96957 64 2.5 64H62.5C63.0304 64 63.5391 63.7893 63.9142 63.4142C64.2893 63.0391 64.5 62.5304 64.5 62V2C64.5 1.46957 64.2893 0.960859 63.9142 0.585786C63.5391 0.210714 63.0304 0 62.5 0V0ZM53.669 15.163L50.237 18.454C50.0916 18.5644 49.9793 18.7126 49.9121 18.8823C49.845 19.0521 49.8256 19.237 49.856 19.417V43.6C49.8256 43.78 49.845 43.9649 49.9121 44.1347C49.9793 44.3044 50.0916 44.4526 50.237 44.563L53.589 47.854V48.576H36.728V47.854L40.2 44.481C40.541 44.14 40.541 44.04 40.541 43.518V23.973L30.887 48.494H29.587L18.342 23.973V40.407C18.2958 40.748 18.3277 41.095 18.4355 41.4217C18.5433 41.7485 18.724 42.0464 18.964 42.293L23.48 47.771V48.493H10.674V47.771L15.19 42.293C15.4281 42.0463 15.6048 41.747 15.7059 41.4194C15.807 41.0918 15.8296 40.745 15.772 40.407V21.407C15.7976 21.1475 15.7619 20.8856 15.6677 20.6424C15.5736 20.3993 15.4237 20.1816 15.23 20.007L11.216 15.171V14.449H23.681L33.316 35.579L41.787 14.449H53.669V15.163Z" fill="#F9FAFB"/>
</g>
<defs>
<clipPath id="clip0">
<rect width="64" height="64" fill="white" transform="translate(0.5)"/>
</clipPath>
</defs>
</svg>
