<svg width="64" height="64" viewBox="0 0 64 64" fill="none" xmlns="http://www.w3.org/2000/svg">
<path d="M26.57 27.1699C25.7356 27.2408 24.9583 27.6223 24.3918 28.239C23.8253 28.8556 23.511 29.6625 23.511 30.4999C23.511 31.3373 23.8253 32.1441 24.3918 32.7608C24.9583 33.3774 25.7356 33.759 26.57 33.8299C27.4044 33.759 28.1817 33.3774 28.7482 32.7608C29.3147 32.1441 29.629 31.3373 29.629 30.4999C29.629 29.6625 29.3147 28.8556 28.7482 28.239C28.1817 27.6223 27.4044 27.2408 26.57 27.1699ZM37.52 27.1699C36.8494 27.1131 36.1772 27.2601 35.5916 27.5917C35.0059 27.9232 34.534 28.4239 34.2376 29.0281C33.9412 29.6323 33.8341 30.312 33.9304 30.9781C34.0267 31.6442 34.3218 32.2657 34.7772 32.7612C35.2326 33.2568 35.827 33.6033 36.4826 33.7555C37.1382 33.9076 37.8244 33.8582 38.4515 33.6139C39.0786 33.3695 39.6173 32.9415 39.9971 32.3859C40.3768 31.8302 40.58 31.1729 40.58 30.4999C40.6152 29.6527 40.3128 28.8261 39.739 28.2017C39.1653 27.5774 38.3672 27.2062 37.52 27.1699Z" fill="#F9FAFB"/>
<path d="M52.1 1.99995H11.9C11.1128 1.9859 10.331 2.13226 9.60227 2.43011C8.8735 2.72795 8.21299 3.17105 7.66098 3.73241C7.10898 4.29377 6.67704 4.96163 6.39149 5.69531C6.10593 6.42899 5.97273 7.21313 6 7.99995V48.9999C5.98465 49.7921 6.12935 50.5792 6.42544 51.3141C6.72153 52.049 7.16292 52.7165 7.72316 53.2768C8.2834 53.837 8.95096 54.2784 9.68586 54.5745C10.4208 54.8706 11.2079 55.0153 12 54.9999H46L44.33 49.3699L48.17 52.9399L51.8 56.2999L58 61.9999V7.99995C58.0273 7.21313 57.8941 6.42899 57.6085 5.69531C57.323 4.96163 56.891 4.29377 56.339 3.73241C55.787 3.17105 55.1265 2.72795 54.3977 2.43011C53.669 2.13226 52.8872 1.9859 52.1 1.99995ZM40.52 41.1799C40.52 41.1799 39.44 39.8899 38.54 38.7499C40.7146 38.238 42.638 36.9734 43.97 35.1799C42.8905 35.8983 41.7332 36.4921 40.52 36.9499C39.1244 37.5457 37.6648 37.9785 36.17 38.2399C33.6006 38.713 30.9656 38.7028 28.4 38.2099C26.8938 37.9152 25.4176 37.4834 23.99 36.9199C22.7898 36.4543 21.6432 35.8609 20.57 35.1499C21.8538 36.9059 23.7108 38.158 25.82 38.6899C24.92 39.8299 23.81 41.1799 23.81 41.1799C17.18 40.9699 14.66 36.6199 14.66 36.6199C14.7574 30.5381 16.2345 24.5577 18.98 19.1299C21.3961 17.2324 24.3416 16.1317 27.41 15.9799L27.71 16.3399C22.31 17.8999 19.82 20.2699 19.82 20.2699C19.82 20.2699 20.48 19.9099 21.59 19.3999C23.7464 18.4156 26.0447 17.7778 28.4 17.5099C28.5679 17.4752 28.7386 17.4551 28.91 17.4499C30.9204 17.188 32.9549 17.1679 34.97 17.3899C38.139 17.7519 41.2066 18.7303 44 20.2699C41.8078 18.4855 39.2616 17.1868 36.53 16.4599L36.95 15.9799C40.0184 16.1317 42.964 17.2324 45.38 19.1299C48.1255 24.5577 49.6026 30.5381 49.7 36.6199C49.7 36.6199 47.15 40.9699 40.52 41.1799Z" fill="#F9FAFB"/>
</svg>
