<svg width="22" height="22" viewBox="0 0 22 22" fill="none" xmlns="http://www.w3.org/2000/svg">
<g opacity="0.4">
<path fill-rule="evenodd" clip-rule="evenodd" d="M16.7055 3.39424C17.2298 2.86859 18.081 2.86859 18.6067 3.39424C19.1324 3.91864 19.1324 4.77113 18.6068 5.29546L12.8737 11.0285L18.5267 16.6814C19.0484 17.2018 19.0484 18.0463 18.5267 18.568C18.0063 19.0897 17.1618 19.0897 16.6401 18.568L10.9872 12.915L5.29546 18.6067C4.77113 19.1311 3.9199 19.1311 3.39424 18.6067C2.86859 18.0823 2.86859 17.2311 3.39424 16.7055L9.08589 11.0138L3.43289 5.36082C2.91121 4.84054 2.91121 3.99601 3.43289 3.47433C3.95317 2.95265 4.79771 2.95265 5.31939 3.47433L10.9724 9.12726L16.7055 3.39424Z" fill="white"/>
</g>
</svg>
