<svg xmlns="http://www.w3.org/2000/svg" width="101" height="102" viewBox="0 0 101 102">
  <defs>
    <style>
      .cls-1 {
        fill: #7289da;
      }

      .cls-2 {
        fill: #fff;
      }
    </style>
  </defs>
  <g id="组_13879" data-name="组 13879" transform="translate(-578.676 -4211.997)">
    <g id="telegram.805e47d0" transform="translate(579 4211.998)">
      <rect id="矩形_2878" data-name="矩形 2878" class="cls-1" width="101" height="102" rx="10" transform="translate(-0.324 0)"/>
    </g>
    <g id="组_13878" data-name="组 13878" transform="translate(605.321 4236.677)">
      <path id="路径_12794" data-name="路径 12794" class="cls-2" d="M443.733,480.858a2.7,2.7,0,1,1,2.681,2.991A2.843,2.843,0,0,1,443.733,480.858Zm9.595,0a2.7,2.7,0,1,1,2.681,2.991A2.842,2.842,0,0,1,453.328,480.858Z" transform="translate(-427.28 -455.431)"/>
      <path id="路径_12795" data-name="路径 12795" class="cls-2" d="M261.431,221.867h35.5a5.412,5.412,0,0,1,5.431,5.392v46.958l-5.7-4.973-3.206-2.932-3.392-3.115,1.406,4.842H261.431A5.412,5.412,0,0,1,256,262.647V227.259A5.412,5.412,0,0,1,261.431,221.867Zm23.528,32.064c.8.995,1.75,2.12,1.75,2.12,5.856-.183,8.107-3.979,8.107-3.979A34.726,34.726,0,0,0,291,236.813a13.207,13.207,0,0,0-7.445-2.748l-.37.419a17.706,17.706,0,0,1,6.6,3.324,21.8,21.8,0,0,0-7.976-2.513,22.7,22.7,0,0,0-5.353.052,2.275,2.275,0,0,0-.391.043l-.06.009a20.081,20.081,0,0,0-6.013,1.649c-.982.445-1.565.759-1.565.759a17.958,17.958,0,0,1,6.968-3.429l-.264-.314a13.207,13.207,0,0,0-7.445,2.748,34.726,34.726,0,0,0-3.816,15.26s2.225,3.8,8.081,3.979c0,0,.982-1.178,1.776-2.172a8.23,8.23,0,0,1-4.637-3.089s.264.183.74.445a.4.4,0,0,0,.107.079,1.265,1.265,0,0,0,.12.065,15.57,15.57,0,0,0,2.053.955A22.48,22.48,0,0,0,276,253.46a18.79,18.79,0,0,0,6.863.026,17.617,17.617,0,0,0,3.842-1.126,15.223,15.223,0,0,0,3.046-1.544,8.35,8.35,0,0,1-4.8,3.115Z" transform="translate(-255 -222.867)"/>
    </g>
  </g>
</svg>
