<svg id="组_13882" data-name="组 13882" xmlns="http://www.w3.org/2000/svg" width="36.362" height="36.958" viewBox="0 0 36.362 36.958">
  <defs>
    <style>
      .cls-1 {
        fill: #09bb07;
      }

      .cls-2 {
        fill: #fff;
      }
    </style>
  </defs>
  <g id="telegram.805e47d0" transform="translate(0 0)">
    <rect id="矩形_2878" data-name="矩形 2878" class="cls-1" width="36.362" height="36.958" rx="10" transform="translate(0 0)"/>
  </g>
  <path id="路径_12796" data-name="路径 12796" class="cls-2" d="M42.171,132.963c.231,0,.461.021.691.041-.617-2.865-3.714-5-7.241-5-3.944.014-7.176,2.68-7.176,6.065a5.849,5.849,0,0,0,2.867,4.807l-.722,2.138,2.512-1.245a12.436,12.436,0,0,0,2.511.352c.231,0,.45-.01.669-.03a5.435,5.435,0,0,1-.219-1.5,5.869,5.869,0,0,1,6.11-5.626h0Zm-3.861-1.929a.893.893,0,1,1,0,1.786.909.909,0,1,1,0-1.786Zm-5.023,1.786a.909.909,0,1,1,0-1.786.893.893,0,1,1,0,1.786Zm15.436,5.7c0-2.844-2.867-5.169-6.1-5.169-3.411,0-6.1,2.325-6.1,5.169s2.69,5.171,6.1,5.171a9.2,9.2,0,0,0,2.156-.353l1.967,1.069-.544-1.776A5.445,5.445,0,0,0,48.723,138.516Zm-8.079-.893a.774.774,0,0,1-.722-.717.784.784,0,0,1,.722-.717.735.735,0,1,1,0,1.433Zm3.946,0a.763.763,0,0,1-.712-.717.773.773,0,0,1,.712-.717.735.735,0,1,1,0,1.433Z" transform="translate(-20.403 -118.214)"/>
</svg>
