<svg width="207" height="53" viewBox="0 0 207 53" fill="none" xmlns="http://www.w3.org/2000/svg">
<path d="M66.3066 7.30054H75.2818C77.563 7.30054 79.2359 7.90886 80.3004 8.97341C80.7845 9.38533 81.1718 9.89897 81.4347 10.4777C81.6976 11.0564 81.8295 11.686 81.8212 12.3216C81.8461 12.8333 81.7949 13.3458 81.6691 13.8424C81.3573 14.641 80.8876 15.3684 80.2882 15.9813C80.0214 16.2353 79.7127 16.4411 79.3757 16.5897C80.4158 16.9049 81.3581 17.4808 82.1131 18.2625C82.7214 19.0229 83.0256 19.9354 83.0256 21.3041C83.0362 22.0882 82.8807 22.8657 82.5694 23.5853C82.1896 24.2466 81.6707 24.8174 81.0486 25.2582C80.3192 25.6767 79.5561 26.0336 78.7674 26.3252C77.8549 26.6294 76.7903 26.6294 75.7258 26.6294H66.4563V7.30054H66.3066ZM74.5214 15.2111C75.304 15.2067 76.0785 15.0518 76.8026 14.7549C77.0819 14.6124 77.3156 14.3943 77.477 14.1254C77.6383 13.8565 77.7208 13.5476 77.7151 13.2341C77.7174 12.9386 77.6497 12.6467 77.5175 12.3824C77.3854 12.118 77.1925 11.8888 76.9547 11.7133C76.6527 11.4902 76.3065 11.3341 75.9394 11.2554C75.5722 11.1767 75.1925 11.1773 74.8256 11.2571H70.5649V15.373H74.5189L74.5214 15.2111ZM75.586 22.9672C76.3686 22.9628 77.143 22.8079 77.8672 22.511C78.1686 22.364 78.4095 22.1166 78.5483 21.8113C78.687 21.506 78.7151 21.1618 78.6276 20.8381C78.6299 20.5426 78.5622 20.2507 78.43 19.9864C78.2979 19.722 78.105 19.4927 77.8672 19.3173C77.1259 18.8984 76.285 18.6882 75.4339 18.709H70.4128V22.977L75.586 22.9672Z" fill="white"/>
<path d="M88.3608 7.31055H92.6191V26.7817H88.3608V7.31055Z" fill="white"/>
<path d="M99.1584 7.31055H103.115L112.24 19.3273V7.31055H116.498V26.7817H112.848L103.267 14.4607V26.7817H99.1584V7.31055Z" fill="white"/>
<path d="M129.427 7.1582H133.381L141.748 26.7814H137.333L135.508 22.3662H127.298L125.473 26.7814H121.058L129.427 7.1582ZM133.992 18.7187L131.404 12.3412L128.819 18.7187H133.992Z" fill="white"/>
<path d="M146.31 7.31055H150.264L159.392 19.3273V7.31055H163.65V26.7817H160L150.569 14.4607V26.7817H146.31V7.31055Z" fill="white"/>
<path d="M179.165 27.0857C177.812 27.0683 176.473 26.8109 175.211 26.3253C172.818 25.2997 170.912 23.3929 169.888 21C169.402 19.7374 169.145 18.3986 169.127 17.046C169.169 14.3853 170.203 11.8363 172.027 9.89821C172.925 8.96758 174.012 8.24066 175.216 7.76664C176.514 7.22191 177.914 6.96259 179.322 7.00625C180.136 6.98108 180.95 7.032 181.755 7.15833C182.44 7.26882 183.106 7.47353 183.734 7.76664C184.309 8.0385 184.868 8.34316 185.407 8.67912C185.951 9.04062 186.46 9.45115 186.928 9.90557L184.343 13.0943C183.619 12.4872 182.856 11.9284 182.059 11.4215C181.268 10.9893 180.375 10.7791 179.474 10.8131C178.691 10.8175 177.917 10.9724 177.193 11.2694C176.468 11.5463 175.836 12.0205 175.368 12.6381C174.871 13.2387 174.459 13.9037 174.141 14.6151C173.844 15.3392 173.689 16.1137 173.685 16.8963C173.692 17.7253 173.848 18.5463 174.146 19.3198C174.405 20.0606 174.824 20.7354 175.373 21.2968C175.887 21.8764 176.52 22.3391 177.228 22.6539C177.936 22.9687 178.704 23.1282 179.479 23.1218C180.476 23.1399 181.465 22.932 182.371 22.5135C183.191 22.0433 183.957 21.4822 184.652 20.8406L187.389 23.578L185.868 25.0988C185.295 25.5113 184.684 25.8686 184.044 26.1658C183.369 26.5102 182.652 26.7658 181.912 26.9262C181.005 27.0447 180.09 27.0956 179.175 27.0783L179.165 27.0857Z" fill="white"/>
<path d="M192.246 7.31055H206.848V11.115H196.352V15.0691H205.631V18.8711H196.352V22.9772H207V26.7817H192.246V7.31055Z" fill="white"/>
<path d="M71.7815 45.946C70.7343 45.9799 69.6935 45.7717 68.7399 45.3377C67.825 45.0335 66.9125 44.4252 66 43.6648L67.5208 41.9919C68.1291 42.6002 68.7472 42.9044 69.5003 43.3606C70.2244 43.6576 70.9989 43.8125 71.7815 43.8169C72.4172 43.8101 73.0424 43.6538 73.6064 43.3606C73.8055 43.2265 73.9663 43.043 74.0729 42.8279C74.1796 42.6129 74.2285 42.3738 74.2148 42.1342C74.2373 41.9198 74.1834 41.7044 74.0627 41.5259C73.9106 41.3713 73.7585 41.0672 73.6064 40.9151L72.6841 40.4687C72.2279 40.3166 71.6196 40.1645 71.1634 40.0124C70.4848 39.8797 69.8221 39.6758 69.1863 39.4041C68.6836 39.2436 68.2175 38.9852 67.8151 38.6437C67.4742 38.3221 67.1683 37.9653 66.9027 37.5791C66.6679 37.0542 66.5635 36.4803 66.5985 35.9063C66.6258 35.3377 66.7281 34.7752 66.9027 34.2334C67.0547 33.7772 67.511 33.3209 67.8151 33.0069C68.2732 32.6642 68.7892 32.4066 69.3384 32.2465C69.9321 32.0715 70.545 31.9694 71.1634 31.9424C72.0983 31.9476 73.0262 32.105 73.9106 32.4084C74.7017 32.7573 75.4645 33.1674 76.1918 33.6349L74.9653 35.4598C74.3915 35.049 73.7805 34.6926 73.1404 34.3953C72.5321 34.0911 71.9139 34.0911 71.3154 34.0911C70.7255 34.0791 70.1447 34.2375 69.6426 34.5474C69.2926 34.865 69.0753 35.303 69.0342 35.7738C69.0107 36.0366 69.0635 36.3007 69.1863 36.5342C69.3384 36.6863 69.4905 36.9904 69.6426 37.1425C69.985 37.3221 70.3409 37.4747 70.7071 37.5988C71.2533 37.7899 71.8124 37.9423 72.38 38.055C73.053 38.2092 73.7138 38.4125 74.357 38.6633C74.8437 38.8576 75.3037 39.1131 75.7257 39.4237C76.0284 39.7407 76.2844 40.0992 76.4861 40.4883C76.675 40.9746 76.778 41.49 76.7903 42.0115C76.7768 42.5816 76.6741 43.1461 76.4861 43.6844C76.1797 44.1763 75.8229 44.635 75.4216 45.0531C74.9644 45.3959 74.4493 45.6535 73.9008 45.8135C73.1502 45.7939 72.3898 45.946 71.7815 45.946Z" fill="white"/>
<path d="M79.3853 32.1042H81.9706L86.0792 38.4916L90.3374 32.1042H92.9228V45.7939H90.4895V35.9062L86.2313 42.2936H86.0792L81.8185 35.9062V45.7939H79.3853V32.1042Z" fill="white"/>
<path d="M101.138 31.9524H103.419L109.35 45.642H106.765L105.396 42.2963H99.0061L97.6374 45.642H95.2041L101.138 31.9524ZM104.636 40.3168L102.202 34.8419L99.9112 40.3168H104.636Z" fill="white"/>
<path d="M111.783 32.1042H117.869C118.637 32.1307 119.401 32.2326 120.15 32.4084C120.789 32.6147 121.365 32.9812 121.823 33.473C122.196 33.879 122.504 34.3408 122.735 34.8417C122.923 35.38 123.026 35.9445 123.04 36.5146C123.012 37.0335 122.909 37.5457 122.735 38.0354C122.583 38.4916 122.279 38.7958 122.127 39.2618C121.805 39.6028 121.449 39.9087 121.063 40.1743C120.637 40.4397 120.176 40.6444 119.694 40.7826L123.344 45.9558H120.454L117.106 41.229H114.064V45.946H111.631L111.783 32.1042ZM117.717 38.7958C118.477 38.7958 119.238 38.6437 119.694 38.1874C120.154 37.7494 120.427 37.1497 120.454 36.5146C120.427 35.8795 120.154 35.2797 119.694 34.8417C119.071 34.4147 118.326 34.2013 117.572 34.2334H114.064V38.7958H117.717Z" fill="white"/>
<path d="M129.275 34.2334H124.865V32.1042H135.969V34.2334H131.556V45.7939H129.123L129.275 34.2334Z" fill="white"/>
<path d="M150.723 45.946C149.776 45.9628 148.839 45.7543 147.988 45.3376C146.315 44.5772 144.947 43.3606 144.338 41.6877C144.034 40.7728 143.73 39.8603 143.882 38.9478C143.885 38.0167 144.039 37.0922 144.338 36.2104C144.666 35.3676 145.158 34.5978 145.784 33.9454C146.41 33.2929 147.159 32.7706 147.988 32.4084C148.901 32.1042 149.813 31.8001 150.88 31.8001C151.442 31.7679 152.006 31.8192 152.553 31.9522L153.922 32.4084C154.378 32.5605 154.682 32.8646 155.148 33.0167C155.452 33.3209 155.909 33.625 156.213 33.9292L154.692 35.7542C154.201 35.2616 153.637 34.8479 153.019 34.5277C152.353 34.2164 151.625 34.0604 150.89 34.0715C150.271 34.0985 149.657 34.2006 149.063 34.3756C148.499 34.6411 147.984 35.0012 147.542 35.4402C147.098 35.8494 146.782 36.3772 146.629 36.961C146.454 37.5547 146.352 38.1675 146.325 38.7859C146.352 39.4043 146.454 40.0172 146.629 40.6109C146.782 41.1954 147.098 41.724 147.542 42.1341C147.984 42.5732 148.499 42.9332 149.063 43.1987C149.614 43.5188 150.264 43.627 150.89 43.5029C151.625 43.5139 152.353 43.3579 153.019 43.0466C153.697 42.691 154.313 42.2289 154.844 41.6779L156.365 43.1987L155.3 44.2633C154.844 44.5674 154.54 44.8716 154.074 45.0237C153.608 45.1757 153.161 45.4799 152.553 45.4799C151.945 45.9361 151.327 45.9361 150.728 45.9361L150.723 45.946Z" fill="white"/>
<path d="M158.783 32.1042H161.065V37.7312H167.607V32.1042H170.04V45.7939H167.607V40.0124H161.065V45.7939H158.783V32.1042Z" fill="white"/>
<path d="M178.404 31.9524H180.685L186.619 45.642H184.046L182.677 42.2963H176.3L174.931 45.642H172.498L178.404 31.9524ZM181.75 40.3168L179.469 34.8419L177.178 40.3168H181.75Z" fill="white"/>
<path d="M189.052 32.1042H191.485V45.7939H189.052V32.1042Z" fill="white"/>
<path d="M195.135 32.1042H197.264L204.566 41.5332V32.1042H207V45.7939H205.023L197.568 36.0583V45.7939H195.135V32.1042Z" fill="white"/>
<path d="M0 26.481L5.96631 20.5063L11.941 26.481L5.96631 32.4557L0 26.481Z" fill="#FFC531"/>
<path d="M36.6964 22.211L26.4516 11.9704L16.2195 22.211L10.2448 16.2363L20.4895 5.9957L26.4642 0L32.4263 5.9957L42.6711 16.2363L36.6964 22.211Z" fill="#FFC531"/>
<path d="M40.9622 26.481L46.9369 20.5063L52.9158 26.481L46.9369 32.4557L40.9622 26.481Z" fill="#FFC531"/>
<path d="M16.2069 30.7511L26.4516 40.9916L36.709 30.7511L42.6837 36.7258L32.4389 46.9663L26.4642 52.9452L20.4895 46.9663L10.2448 36.7258L16.2069 30.7511Z" fill="#FFC531"/>
<path d="M32.4263 26.481L26.4516 32.4557L20.4895 26.481L26.4516 20.5063L32.4263 26.481Z" fill="#FFC531"/>
</svg>
