<svg width="206" height="63" viewBox="0 0 206 63" fill="none" xmlns="http://www.w3.org/2000/svg">
<path d="M70.4373 31.0949C70.3779 29.6299 70.6093 28.1677 71.1182 26.7926C71.6271 25.4175 72.4034 24.1567 73.4024 23.0829C74.4013 22.0092 75.6031 21.1438 76.9384 20.5366C78.2737 19.9295 79.7161 19.5926 81.1824 19.5454H81.638C87.305 19.5454 90.6496 22.877 91.6385 26.7749L88.1161 27.9521C87.7997 26.4995 86.9712 25.2091 85.782 24.3162C84.5928 23.4232 83.122 22.9873 81.638 23.088C77.9711 23.088 74.2931 25.7643 74.2931 31.1615C74.2931 36.5586 77.8822 39.135 81.6824 39.135C83.1738 39.1758 84.6358 38.7154 85.8345 37.8275C87.0331 36.9396 87.8991 35.6756 88.2939 34.2376L91.7497 35.3482C91.1532 37.5417 89.8263 39.4664 87.9881 40.8049C86.1498 42.1435 83.91 42.8158 81.638 42.7109C78.7192 42.7645 75.8987 41.6575 73.7963 39.6334C71.6939 37.6093 70.4817 34.8336 70.4262 31.9166C70.4151 31.6501 70.4262 31.3725 70.4373 31.0949Z" fill="white"/>
<path d="M98.6056 42.2003H94.9609V19.479H98.6056V28.3632C99.1347 27.736 99.8001 27.2379 100.551 26.9068C101.302 26.5758 102.119 26.4206 102.939 26.4531C106.706 26.4531 108.495 29.1517 108.495 32.5165V42.2003H104.984V33.1607C105.089 32.3901 104.887 31.609 104.421 30.9858C103.956 30.3626 103.264 29.9472 102.495 29.8291C102.277 29.8067 102.057 29.8067 101.839 29.8291C100.996 29.8291 100.188 30.1637 99.592 30.7593C98.996 31.355 98.6611 32.1628 98.6611 33.0052C98.6556 33.0976 98.6556 33.1903 98.6611 33.2828L98.6056 42.2003Z" fill="white"/>
<path d="M116.673 33.4486L120.585 32.8378C121.474 32.7267 121.696 32.2714 121.696 31.7273C121.696 30.4391 120.829 29.4063 118.807 29.4063C118.043 29.3445 117.286 29.5863 116.699 30.079C116.113 30.5717 115.744 31.2757 115.673 32.0382V32.2048L112.34 31.4607C112.618 28.8177 115.018 26.4634 118.774 26.4634C123.485 26.4634 125.274 29.1286 125.274 32.2381V39.823C125.27 40.6448 125.333 41.4656 125.463 42.2772H122.129C122.009 41.633 121.961 40.9776 121.985 40.3227C121.479 41.101 120.778 41.733 119.951 42.1559C119.124 42.5787 118.201 42.7776 117.273 42.7325C116.007 42.8371 114.75 42.4351 113.779 41.6149C112.808 40.7946 112.203 39.623 112.095 38.3571C112.095 38.2793 112.095 38.2016 112.095 38.135C112.04 35.3254 114.051 33.815 116.673 33.4486ZM121.718 35.9028V35.2032L117.729 35.8029C117.187 35.82 116.674 36.0457 116.295 36.4327C115.916 36.8197 115.701 37.3381 115.696 37.8796C115.7 38.1479 115.758 38.4126 115.865 38.6584C115.973 38.9042 116.129 39.1261 116.323 39.3111C116.518 39.4962 116.747 39.6407 116.998 39.7362C117.249 39.8317 117.516 39.8763 117.785 39.8674H117.951C118.406 39.915 118.866 39.8721 119.304 39.7414C119.742 39.6106 120.15 39.3945 120.504 39.1055C120.859 38.8164 121.152 38.4602 121.368 38.0573C121.584 37.6544 121.718 37.2128 121.763 36.7579C121.778 36.4717 121.76 36.1846 121.707 35.9028H121.718Z" fill="white"/>
<path d="M131.474 19.1677C131.787 19.1633 132.098 19.2208 132.389 19.3369C132.68 19.4529 132.945 19.6253 133.169 19.8441C133.393 20.0628 133.572 20.3237 133.695 20.6117C133.818 20.8996 133.883 21.209 133.885 21.522C133.885 21.9906 133.747 22.4488 133.487 22.8388C133.227 23.2289 132.858 23.5335 132.425 23.7143C131.993 23.8951 131.516 23.9441 131.056 23.855C130.595 23.766 130.172 23.5429 129.838 23.2139C129.504 22.8849 129.275 22.4645 129.179 22.0058C129.084 21.547 129.126 21.0702 129.301 20.6354C129.476 20.2006 129.776 19.8272 130.162 19.5621C130.549 19.297 131.005 19.1521 131.474 19.1455V19.1677ZM129.696 42.2666V26.9192H133.341V42.2L129.696 42.2666Z" fill="white"/>
<path d="M141.641 42.2001H138.008V26.9193H141.552V28.9515C142.015 28.1712 142.678 27.5295 143.474 27.0937C144.27 26.658 145.168 26.4443 146.075 26.4751C149.808 26.4751 151.631 29.1736 151.631 32.5385V42.2001H147.997V33.1604C147.997 31.2836 147.142 29.7622 144.853 29.7622C144.429 29.7651 144.011 29.8513 143.621 30.0159C143.231 30.1804 142.878 30.4201 142.581 30.7212C142.283 31.0223 142.048 31.379 141.889 31.7708C141.73 32.1627 141.65 32.582 141.652 33.005C141.652 33.1271 141.652 33.2493 141.652 33.3714L141.641 42.2001Z" fill="white"/>
<path d="M156.031 42.2003V19.479H159.676V42.2003H156.031Z" fill="white"/>
<path d="M166.176 19.1675C166.645 19.1653 167.104 19.3025 167.495 19.5615C167.886 19.8206 168.191 20.1899 168.372 20.6226C168.552 21.0552 168.6 21.5318 168.509 21.9916C168.418 22.4515 168.192 22.874 167.861 23.2055C167.529 23.537 167.106 23.7625 166.646 23.8534C166.186 23.9443 165.709 23.8965 165.276 23.7161C164.843 23.5357 164.474 23.2308 164.215 22.8401C163.955 22.4494 163.818 21.9906 163.82 21.5218C163.826 20.8992 164.076 20.3037 164.517 19.8635C164.957 19.4232 165.553 19.1733 166.176 19.1675ZM164.387 42.2664V26.919H167.998V42.1998L164.387 42.2664Z" fill="white"/>
<path d="M176.354 42.2004H172.71V26.9196H176.254V28.9518C176.717 28.1723 177.381 27.5312 178.177 27.0956C178.972 26.66 179.87 26.4458 180.777 26.4754C184.51 26.4754 186.333 29.1739 186.333 32.5388V42.2004H182.688V33.1607C182.793 32.3901 182.591 31.609 182.126 30.9859C181.66 30.3627 180.968 29.9472 180.199 29.8291C179.977 29.8069 179.754 29.8069 179.532 29.8291C178.683 29.8379 177.872 30.1811 177.275 30.7841C176.678 31.3871 176.343 32.2013 176.343 33.0497C176.332 33.179 176.332 33.309 176.343 33.4383L176.354 42.2004Z" fill="white"/>
<path d="M198.767 33.3717L205.178 42.2558H200.734L196.289 35.9592L194.411 37.9359V42.2003H190.8V19.479H194.411V33.094L200.278 26.9195H205.112L198.767 33.3717Z" fill="white"/>
<path d="M27.2904 13.3263L43.0469 22.3659V40.5341L27.3349 49.6293L11.5895 40.6118V22.4548L27.2904 13.3263ZM27.2904 0L21.5123 3.33157L5.7781 12.4601L0 15.7916V47.2972L5.7781 50.6288L21.5346 59.6684L27.3127 63L33.0908 59.6684L48.7916 50.5621L54.5698 47.2306V15.6806L48.7916 12.349L33.0463 3.33157L27.2682 0H27.2904Z" fill="#3662F4"/>
</svg>
