<svg width="17" height="18" viewBox="0 0 17 18" fill="none" xmlns="http://www.w3.org/2000/svg">
<g clip-path="url(#clip0)">
<path d="M4.49613 2.57792C5.27719 2.11303 6.81501 1.44788 8.45281 2.12962C10.6922 3.06132 11.4892 4.90593 14.8855 2.46595C15.1767 2.25657 15.4046 2.36598 15.4046 2.72469V9.08207C15.4046 9.44079 15.2072 9.94525 14.9358 10.1796C14.3443 10.6906 13.2639 11.4509 12.105 11.4149C10.3675 11.3604 8.68427 9.5145 7.10944 9.5145C6.10403 9.5145 5.09897 10.0011 4.5036 10.3534C4.19484 10.5359 3.96045 10.418 3.96045 10.0596V3.59307C3.96081 3.23465 4.18803 2.76134 4.49613 2.57792Z" fill="white"/>
<path d="M2.54884 0.877533C2.02258 0.877533 1.5957 1.30441 1.5957 1.83067C1.5957 1.96574 1.62429 2.09394 1.67527 2.20949C1.76193 2.40658 1.89957 2.81591 1.89957 3.17433V17.2283C1.89957 17.5867 2.19042 17.8775 2.54884 17.8775C2.90725 17.8775 3.1981 17.5867 3.1981 17.2283V3.17433C3.1981 2.81591 3.33574 2.40688 3.42211 2.20949C3.47308 2.09394 3.50167 1.96568 3.50167 1.83067C3.50197 1.30477 3.07539 0.877533 2.54884 0.877533Z" fill="white"/>
</g>
<defs>
<clipPath id="clip0">
<rect width="17" height="17" fill="white" transform="translate(0 0.877533)"/>
</clipPath>
</defs>
</svg>
