<svg width="32" height="32" viewBox="0 0 32 32" fill="none" xmlns="http://www.w3.org/2000/svg">
<g clip-path="url(#clip0)">
<g filter="url(#filter0_d)">
<ellipse cx="16" cy="16" rx="16" ry="16" fill="white"/>
</g>
<g clip-path="url(#clip1)">
<path d="M9.57156 15.4741C9.57158 15.3513 9.59585 15.2297 9.64299 15.1162C9.69013 15.0028 9.7592 14.8998 9.84624 14.8132C9.93327 14.7265 10.0366 14.6579 10.1502 14.6113C10.2638 14.5647 10.3855 14.541 10.5083 14.5416L12.0612 14.5467C12.3088 14.5467 12.5463 14.6451 12.7214 14.8202C12.8965 14.9954 12.9949 15.2329 12.9949 15.4806V21.3554C13.1698 21.3035 13.3936 21.2482 13.6399 21.1902C13.8106 21.15 13.9627 21.0534 14.0715 20.9159C14.1804 20.7784 14.2397 20.6082 14.2397 20.4328V13.1462C14.2397 12.8984 14.3381 12.6609 14.5131 12.4857C14.6882 12.3105 14.9257 12.212 15.1733 12.212H16.731C16.9786 12.212 17.2161 12.3105 17.3912 12.4857C17.5663 12.6609 17.6646 12.8984 17.6646 13.1462V19.9094C17.6646 19.9094 18.0543 19.7516 18.4337 19.5913C18.5747 19.5317 18.695 19.4318 18.7796 19.3042C18.8642 19.1767 18.9094 19.027 18.9095 18.8738V10.8111C18.9095 10.5635 19.0078 10.3259 19.1829 10.1508C19.3579 9.97562 19.5953 9.8772 19.8429 9.87715H21.399C21.6464 9.87739 21.8837 9.9759 22.0586 10.151C22.2335 10.3262 22.3317 10.5636 22.3317 10.8111V17.4505C23.6808 16.4725 25.0479 15.2961 26.1329 13.8816C26.2903 13.6763 26.3945 13.4352 26.4361 13.1798C26.4777 12.9244 26.4555 12.6627 26.3714 12.418C25.8692 10.9725 25.0709 9.64787 24.0275 8.52878C22.9841 7.40969 21.7187 6.52081 20.3123 5.91903C18.9058 5.31724 17.3893 5.01579 15.8596 5.03398C14.33 5.05217 12.8211 5.38959 11.4293 6.02465C10.0375 6.65971 8.79361 7.57843 7.77714 8.72201C6.76066 9.86559 5.99402 11.2089 5.52628 12.6658C5.05853 14.1228 4.89997 15.6615 5.06076 17.1833C5.22154 18.7051 5.69812 20.1765 6.46 21.5035C6.59274 21.7324 6.78802 21.9187 7.02292 22.0404C7.25781 22.1622 7.52255 22.2143 7.78604 22.1907C8.08039 22.1648 8.44688 22.1282 8.88261 22.077C9.07225 22.0554 9.24733 21.9648 9.37451 21.8225C9.50169 21.6801 9.57208 21.4959 9.57228 21.305V15.4741" fill="#12161C"/>
<path d="M9.53833 24.8959C11.1785 26.0895 13.1168 26.806 15.1388 26.966C17.1608 27.1261 19.1876 26.7234 20.995 25.8027C22.8024 24.8819 24.32 23.4789 25.3798 21.7488C26.4396 20.0188 27.0003 18.0292 27 16.0002C27 15.7463 26.9882 15.4964 26.9713 15.2473C22.9542 21.2408 15.537 24.0427 9.53833 24.8959" fill="#F0B90B"/>
</g>
</g>
<defs>
<filter id="filter0_d" x="-8" y="-6" width="48" height="48" filterUnits="userSpaceOnUse" color-interpolation-filters="sRGB">
<feFlood flood-opacity="0" result="BackgroundImageFix"/>
<feColorMatrix in="SourceAlpha" type="matrix" values="0 0 0 0 0 0 0 0 0 0 0 0 0 0 0 0 0 0 127 0" result="hardAlpha"/>
<feOffset dy="2"/>
<feGaussianBlur stdDeviation="4"/>
<feColorMatrix type="matrix" values="0 0 0 0 0 0 0 0 0 0 0 0 0 0 0 0 0 0 0.25 0"/>
<feBlend mode="normal" in2="BackgroundImageFix" result="effect1_dropShadow"/>
<feBlend mode="normal" in="SourceGraphic" in2="effect1_dropShadow" result="shape"/>
</filter>
<clipPath id="clip0">
<rect width="32" height="32" fill="white"/>
</clipPath>
<clipPath id="clip1">
<rect width="22" height="22" fill="white" transform="translate(5 5)"/>
</clipPath>
</defs>
</svg>
