<svg width="212" height="37" viewBox="0 0 212 37" fill="none" xmlns="http://www.w3.org/2000/svg">
<rect y="1" width="156" height="36" rx="12" fill="#31333E"/>
<path d="M54.5242 24.1689C56.8758 24.1689 58.2529 22.2499 58.2529 18.914C58.2529 15.6029 56.8559 13.6789 54.5242 13.6789C52.1875 13.6789 50.7955 15.5979 50.7905 18.914C50.7905 22.2449 52.1677 24.164 54.5242 24.1689ZM54.5242 22.8415C53.1471 22.8415 52.3168 21.4594 52.3168 18.914C52.3218 16.3785 53.152 14.9814 54.5242 14.9814C55.8914 14.9814 56.7266 16.3785 56.7266 18.914C56.7266 21.4594 55.8964 22.8415 54.5242 22.8415Z" fill="white"/>
<path d="M61.2097 16.3635H59.5791L61.9256 20.1817L59.5492 23.9999H61.1799L62.8951 21.1462L64.6153 23.9999H66.241L63.8397 20.1817L66.2211 16.3635H64.5954L62.8951 19.3366L61.2097 16.3635Z" fill="white"/>
<path d="M67.8667 23.9999H69.4029V19.5603H73.7282V18.2428H69.4029V15.1405H74.1806V13.8181H67.8667V23.9999Z" fill="white"/>
<path d="M79.3163 13.6789C77.1785 13.659 75.7815 15.1952 75.7815 17.1242C75.7864 19.0681 77.1934 20.4701 78.9583 20.4701C80.0372 20.4701 80.9619 19.9431 81.4839 19.088H81.5634C81.5585 21.4296 80.6785 22.7968 79.187 22.7968C78.2126 22.7968 77.5862 22.2002 77.3873 21.3302H75.871C76.0947 22.9758 77.3674 24.1391 79.187 24.1391C81.5535 24.1391 83.035 22.1057 83.035 18.5411C83.0301 14.8224 81.1309 13.6938 79.3163 13.6789ZM79.3212 14.9715C80.4995 14.9715 81.3695 15.9708 81.3695 17.0894C81.3745 18.2229 80.4548 19.2172 79.2914 19.2172C78.1231 19.2172 77.2779 18.2826 77.2729 17.1043C77.2729 15.9211 78.1529 14.9715 79.3212 14.9715Z" fill="white"/>
<path d="M84.9702 23.9999H88.8729C91.2394 23.9999 92.3083 22.8216 92.3083 21.2606C92.3083 19.6846 91.2046 18.7947 90.1954 18.74V18.6405C91.13 18.4019 91.9106 17.7655 91.9106 16.4928C91.9106 14.9864 90.8665 13.8181 88.6989 13.8181H84.9702V23.9999ZM86.5064 22.6824V19.4211H88.7785C90.0114 19.4211 90.782 20.2165 90.782 21.186C90.782 22.0411 90.2003 22.6824 88.7238 22.6824H86.5064ZM86.5064 18.2229V15.1256H88.6045C89.8225 15.1256 90.4042 15.767 90.4042 16.6121C90.4042 17.5965 89.5988 18.2229 88.5647 18.2229H86.5064Z" fill="white"/>
<path d="M97.6453 16.3635H95.9997V15.6775C95.9997 15.0013 96.2781 14.6334 97.004 14.6334C97.3122 14.6334 97.5309 14.703 97.6701 14.7478L98.0182 13.5447C97.8094 13.4651 97.3768 13.3408 96.7753 13.3408C95.5672 13.3408 94.5082 14.0468 94.5082 15.4786V16.3635H93.3299V17.5567H94.5082V23.9999H95.9997V17.5567H97.6453V16.3635Z" fill="white"/>
<path d="M99.3655 24.0944C99.9074 24.0944 100.36 23.6519 100.36 23.1001C100.36 22.5582 99.9074 22.1107 99.3655 22.1107C98.8186 22.1107 98.3711 22.5582 98.3711 23.1001C98.3711 23.6519 98.8186 24.0944 99.3655 24.0944Z" fill="white"/>
<path d="M103.33 24.0944C103.872 24.0944 104.325 23.6519 104.325 23.1001C104.325 22.5582 103.872 22.1107 103.33 22.1107C102.783 22.1107 102.336 22.5582 102.336 23.1001C102.336 23.6519 102.783 24.0944 103.33 24.0944Z" fill="white"/>
<path d="M107.295 24.0944C107.837 24.0944 108.289 23.6519 108.289 23.1001C108.289 22.5582 107.837 22.1107 107.295 22.1107C106.748 22.1107 106.301 22.5582 106.301 23.1001C106.301 23.6519 106.748 24.0944 107.295 24.0944Z" fill="white"/>
<path d="M110.4 23.9999H116.843V22.6775H111.936V19.5603H116.45V18.2428H111.936V15.1405H116.783V13.8181H110.4V23.9999Z" fill="white"/>
<path d="M119.039 23.9999H120.645L125.075 15.1803V13.8181H118.343V15.1356H123.484V15.2101L119.039 23.9999Z" fill="white"/>
<path d="M130.667 13.8181H129.17L126.63 15.4786V16.9502L129.066 15.3593H129.125V23.9999H130.667V13.8181Z" fill="white"/>
<path d="M133.421 23.9999H140.123V22.6824H135.539V22.6079L137.562 20.49C139.427 18.6057 139.958 17.7059 139.958 16.5674C139.958 14.9317 138.626 13.6789 136.707 13.6789C134.803 13.6789 133.411 14.9118 133.411 16.7712H134.878C134.873 15.6775 135.579 14.9616 136.677 14.9616C137.711 14.9616 138.497 15.5979 138.497 16.6121C138.497 17.512 137.96 18.1583 136.866 19.3167L133.421 22.8863V23.9999Z" fill="white"/>
<path d="M0 12.9766C0 6.34915 5.37258 0.976562 12 0.976562H23.1C29.7274 0.976562 35.1 6.34915 35.1 12.9766V24.7648C35.1 31.3922 29.7274 36.7648 23.1 36.7648H12C5.37259 36.7648 0 31.3922 0 24.7648V12.9766Z" fill="#F5F5F5"/>
<path d="M27.4379 8.98877L18.8982 15.4908L20.4912 11.6605L27.4379 8.98877Z" fill="#E17726"/>
<path d="M18.8985 15.5978C18.8817 15.6045 18.863 15.6045 18.8463 15.5978C18.8367 15.5841 18.8315 15.5677 18.8315 15.5509C18.8315 15.5341 18.8367 15.5177 18.8463 15.504L20.4458 11.6671C20.4356 11.6555 20.4289 11.641 20.4266 11.6256C20.4243 11.6101 20.4264 11.5943 20.4327 11.5801L27.3859 8.90158C27.4042 8.89457 27.4243 8.8948 27.4425 8.90223C27.4606 8.90966 27.4753 8.92376 27.4838 8.94175C27.4967 8.95649 27.5038 8.97556 27.5038 8.99532C27.5038 9.01509 27.4967 9.03416 27.4838 9.04889L18.8985 15.5576C18.903 15.5706 18.903 15.5848 18.8985 15.5978V15.5978ZM20.5568 11.7408L19.0552 15.2429L26.9289 9.26987L20.5568 11.7408Z" fill="#E17726"/>
<path d="M7.66211 8.98877L16.1495 15.551L14.6414 11.6605L7.66211 8.98877Z" fill="#E27625"/>
<path d="M16.1635 15.6381C16.1467 15.6448 16.128 15.6448 16.1113 15.6381L7.61077 9.0557C7.59792 9.04097 7.59082 9.0219 7.59082 9.00213C7.59082 8.98236 7.59792 8.96329 7.61077 8.94856C7.61748 8.93338 7.62862 8.92071 7.64266 8.91231C7.65669 8.90392 7.67293 8.9002 7.68912 8.90169L14.6684 11.5802C14.6911 11.5881 14.7099 11.605 14.7206 11.627L16.2353 15.5242C16.2459 15.5374 16.2517 15.554 16.2517 15.5711C16.2517 15.5882 16.2459 15.6048 16.2353 15.618C16.2263 15.6277 16.2148 15.6348 16.2021 15.6383C16.1895 15.6418 16.1761 15.6418 16.1635 15.6381ZM8.15919 9.26328L15.9937 15.2899L14.577 11.7208L8.15919 9.26328Z" fill="#E27625"/>
<path d="M24.3503 24.0754L22.0718 27.6512L26.9553 29.0306L28.359 24.1558L24.3503 24.0754Z" fill="#E27625"/>
<path d="M26.9548 29.1108L22.0712 27.7314C22.0582 27.7275 22.0461 27.7207 22.036 27.7114C22.0258 27.7021 22.0178 27.6907 22.0125 27.6778C22.0076 27.6662 22.0051 27.6536 22.0051 27.641C22.0051 27.6283 22.0076 27.6158 22.0125 27.6042L24.2976 24.0284C24.3041 24.015 24.3145 24.004 24.3273 23.9968C24.3402 23.9896 24.3548 23.9866 24.3694 23.9882L28.3715 24.0686C28.3844 24.0678 28.3973 24.0703 28.409 24.0759C28.4208 24.0815 28.431 24.09 28.4387 24.1006C28.4465 24.1112 28.4516 24.1236 28.4535 24.1367C28.4554 24.1498 28.4542 24.1632 28.4499 24.1757L27.0462 29.0505C27.0447 29.061 27.0411 29.071 27.0355 29.0799C27.0299 29.0888 27.0226 29.0964 27.0139 29.1021C27.0052 29.1078 26.9955 29.1116 26.9853 29.1131C26.9751 29.1146 26.9647 29.1138 26.9548 29.1108V29.1108ZM22.2018 27.5975L26.9025 28.9367L28.2475 24.2494L24.3955 24.1757L22.2018 27.5975Z" fill="#E27625"/>
<path d="M6.75562 24.1558L8.14625 29.0306L13.0233 27.6512L10.7512 24.0754L6.75562 24.1558Z" fill="#E27625"/>
<path d="M8.14632 29.1106C8.12825 29.1126 8.11012 29.1075 8.09558 29.0963C8.08104 29.0851 8.07118 29.0687 8.06798 29.0504L6.67735 24.1755C6.67104 24.1643 6.66772 24.1516 6.66772 24.1387C6.66772 24.1258 6.67104 24.1131 6.67735 24.1019C6.68476 24.0913 6.69458 24.0827 6.70596 24.0769C6.71733 24.071 6.72992 24.0681 6.74263 24.0684L10.7317 23.988C10.7449 23.9891 10.7577 23.9932 10.769 24.0002C10.7803 24.0072 10.7899 24.0168 10.797 24.0282L13.069 27.604C13.0753 27.6152 13.0787 27.6279 13.0787 27.6408C13.0787 27.6537 13.0753 27.6664 13.069 27.6776C13.0659 27.6906 13.0593 27.7024 13.0501 27.7118C13.0409 27.7213 13.0294 27.728 13.0168 27.7312L8.16591 29.1106H8.14632ZM6.84057 24.2358L8.17897 28.9231L12.8732 27.5839L10.7056 24.1621L6.84057 24.2358Z" fill="#E27625"/>
<path d="M12.7616 18.0356L11.4036 20.1382L16.2349 20.3592L16.0782 15.0022L12.7616 18.0356Z" fill="#E27625"/>
<path d="M16.2355 20.4461L11.3976 20.2184C11.3836 20.2173 11.3702 20.2124 11.3587 20.2041C11.3472 20.1959 11.3381 20.1846 11.3323 20.1715C11.326 20.1591 11.3228 20.1453 11.3228 20.1314C11.3228 20.1174 11.326 20.1036 11.3323 20.0912L12.6903 17.9886L16.0069 14.9753C16.0198 14.9676 16.0345 14.9636 16.0494 14.9636C16.0643 14.9636 16.0789 14.9676 16.0918 14.9753C16.1068 14.9807 16.1198 14.9906 16.1291 15.0038C16.1384 15.0169 16.1436 15.0327 16.1441 15.0489L16.3073 20.4059C16.3133 20.4255 16.3133 20.4466 16.3073 20.4662C16.2947 20.4699 16.2813 20.47 16.2686 20.4664C16.256 20.4629 16.2445 20.4558 16.2355 20.4461V20.4461ZM11.5478 20.0577L16.1179 20.272L15.9678 15.203L12.8209 18.089L11.5478 20.0577Z" fill="#E27625"/>
<path d="M22.3454 18.0352L18.9765 14.9617L18.8982 20.3588L23.7295 20.1378L22.3454 18.0352Z" fill="#E27625"/>
<path d="M18.8992 20.446C18.8804 20.4538 18.8593 20.4538 18.8405 20.446C18.8335 20.4265 18.8335 20.4051 18.8405 20.3857L18.8992 14.9618C18.8996 14.9455 18.9048 14.9298 18.9142 14.9166C18.9235 14.9035 18.9365 14.8935 18.9514 14.8881C18.9643 14.8805 18.979 14.8765 18.9939 14.8765C19.0088 14.8765 19.0234 14.8805 19.0363 14.8881L22.4052 17.9617L23.7632 20.0643C23.7695 20.0767 23.7727 20.0905 23.7727 20.1045C23.7727 20.1184 23.7695 20.1322 23.7632 20.1446C23.7554 20.1575 23.7449 20.1684 23.7325 20.1765C23.72 20.1846 23.706 20.1897 23.6913 20.1915L18.86 20.4192L18.8992 20.446ZM19.0885 15.1493L18.9514 20.2853L23.5542 20.071L22.2811 18.1023L19.0885 15.1493Z" fill="#E27625"/>
<path d="M13.0222 27.6509L15.9471 26.1978L13.427 24.189L13.0222 27.6509Z" fill="#E27625"/>
<path d="M13.0232 27.7312C13.016 27.7347 13.0082 27.7366 13.0003 27.7366C12.9924 27.7366 12.9846 27.7347 12.9775 27.7312C12.9649 27.7222 12.9547 27.7102 12.9479 27.6961C12.941 27.6821 12.9377 27.6665 12.9383 27.6508L13.3496 24.1889C13.3507 24.1746 13.3555 24.1608 13.3635 24.149C13.3716 24.1372 13.3825 24.1279 13.3953 24.1219C13.408 24.1136 13.4227 24.1091 13.4377 24.1091C13.4528 24.1091 13.4675 24.1136 13.4802 24.1219L16.0003 26.1308C16.0073 26.1417 16.0111 26.1545 16.0111 26.1676C16.0111 26.1807 16.0073 26.1935 16.0003 26.2045C15.9992 26.2188 15.9944 26.2326 15.9864 26.2443C15.9783 26.2561 15.9674 26.2655 15.9546 26.2714L13.0297 27.7178L13.0232 27.7312ZM13.4932 24.3429L13.1211 27.5102L15.7914 26.171L13.4932 24.3429Z" fill="#E27625"/>
<path d="M19.1533 26.1978L22.0717 27.6509L21.6734 24.189L19.1533 26.1978Z" fill="#E27625"/>
<path d="M22.0722 27.7316H22.0395L19.1212 26.312C19.1084 26.3061 19.0974 26.2967 19.0894 26.2849C19.0813 26.2732 19.0765 26.2594 19.0755 26.2451C19.0684 26.2341 19.0647 26.2213 19.0647 26.2082C19.0647 26.1951 19.0684 26.1823 19.0755 26.1714L21.5956 24.1625C21.6085 24.1549 21.6231 24.1509 21.638 24.1509C21.6529 24.1509 21.6675 24.1549 21.6804 24.1625C21.6932 24.1685 21.7042 24.1778 21.7122 24.1896C21.7203 24.2014 21.7251 24.2152 21.7261 24.2295L22.1636 27.6513C22.1672 27.6665 22.1659 27.6825 22.1601 27.6969C22.1542 27.7114 22.144 27.7235 22.1309 27.7316C22.1223 27.7377 22.112 27.7409 22.1016 27.7409C22.0911 27.7409 22.0808 27.7377 22.0722 27.7316V27.7316ZM19.3105 26.1848L21.9742 27.524L21.6086 24.3567L19.3105 26.1848Z" fill="#E27625"/>
<path d="M22.0717 27.6508L19.1533 26.1978L19.3884 28.1463V28.97L22.0717 27.6508Z" fill="#D5BFB2"/>
<path d="M19.3686 29.0508C19.3614 29.0543 19.3536 29.0562 19.3457 29.0562C19.3378 29.0562 19.33 29.0543 19.3229 29.0508C19.3098 29.0441 19.299 29.0334 19.292 29.0202C19.285 29.0071 19.2821 28.992 19.2837 28.9771V28.1535L19.0486 26.225C19.0451 26.2098 19.0463 26.1938 19.0522 26.1793C19.058 26.1649 19.0682 26.1527 19.0813 26.1446C19.0939 26.1363 19.1087 26.1318 19.1237 26.1318C19.1388 26.1318 19.1535 26.1363 19.1662 26.1446L22.078 27.5977C22.092 27.604 22.1039 27.6143 22.1122 27.6274C22.1206 27.6404 22.125 27.6557 22.125 27.6714C22.125 27.687 22.1206 27.7023 22.1122 27.7154C22.1039 27.7285 22.092 27.7388 22.078 27.745L19.3751 29.0843L19.3686 29.0508ZM19.251 26.3723L19.473 28.1602V28.8633L21.8821 27.6513L19.251 26.3723Z" fill="#D5BFB2"/>
<path d="M13.0222 27.6512L15.7382 28.9905V28.1669L15.9667 26.2183L13.0222 27.6512Z" fill="#D5BFB2"/>
<path d="M15.7394 29.0507H15.7003L12.9843 27.7114C12.9703 27.7052 12.9584 27.6949 12.9501 27.6818C12.9417 27.6687 12.9373 27.6534 12.9373 27.6378C12.9373 27.6221 12.9417 27.6068 12.9501 27.5938C12.9584 27.5807 12.9703 27.5704 12.9843 27.5641L15.9157 26.111C15.927 26.1024 15.9408 26.0977 15.9549 26.0977C15.969 26.0977 15.9828 26.1024 15.9941 26.111C16.0016 26.123 16.0057 26.137 16.0057 26.1512C16.0057 26.1655 16.0016 26.1794 15.9941 26.1914L15.7656 28.1333V28.9435C15.7671 28.9584 15.7642 28.9735 15.7572 28.9866C15.7502 28.9998 15.7394 29.0105 15.7264 29.0172C15.7306 29.0216 15.7339 29.0268 15.7362 29.0326C15.7384 29.0383 15.7395 29.0445 15.7394 29.0507V29.0507ZM13.2128 27.6512L15.635 28.8364V28.1668L15.8504 26.3655L13.2128 27.6512Z" fill="#D5BFB2"/>
<path d="M15.7847 22.9035L13.3625 22.1737L15.0731 21.3701L15.7847 22.9035Z" fill="#161616"/>
<path d="M15.7847 22.9638L13.356 22.2339C13.3398 22.229 13.3257 22.2188 13.3156 22.2049C13.3055 22.191 13.3 22.1742 13.3 22.1569C13.3 22.1396 13.3055 22.1227 13.3156 22.1089C13.3257 22.095 13.3398 22.0848 13.356 22.0799L15.0666 21.2696C15.076 21.2652 15.0862 21.2627 15.0965 21.2623C15.1069 21.2619 15.1173 21.2636 15.127 21.2673C15.1367 21.2711 15.1456 21.2767 15.1532 21.284C15.1607 21.2913 15.1668 21.3001 15.171 21.3098L15.8892 22.8499C15.8966 22.8632 15.9006 22.8782 15.9006 22.8935C15.9006 22.9088 15.8966 22.9238 15.8892 22.937C15.8768 22.9522 15.86 22.963 15.8412 22.9678C15.8224 22.9727 15.8027 22.9712 15.7847 22.9638ZM13.5911 22.1268L15.6346 22.7428L15.0339 21.4504L13.5911 22.1268Z" fill="#161616"/>
<path d="M19.3164 22.9035L20.028 21.3701L21.7516 22.1737L19.3164 22.9035Z" fill="#161616"/>
<path d="M19.3164 22.9637C19.3039 22.963 19.2916 22.9597 19.2804 22.9539C19.2691 22.9482 19.2592 22.9401 19.2511 22.9302C19.2437 22.917 19.2397 22.902 19.2397 22.8867C19.2397 22.8714 19.2437 22.8564 19.2511 22.8432L19.9693 21.303C19.979 21.2845 19.995 21.2703 20.0142 21.2629C20.0334 21.2555 20.0545 21.2555 20.0737 21.2629L21.7973 22.0731C21.8121 22.08 21.8245 22.0914 21.8327 22.1058C21.8409 22.1202 21.8445 22.1368 21.843 22.1534C21.8422 22.1705 21.836 22.1869 21.8254 22.2002C21.8149 22.2134 21.8004 22.2228 21.7843 22.2271L19.336 22.9637H19.3164ZM20.0672 21.4503L19.4666 22.7427L21.5101 22.1601L20.0672 21.4503Z" fill="#161616"/>
<path d="M13.0228 27.6512L13.4471 24.0754L10.7507 24.1558L13.0228 27.6512Z" fill="#CC6228"/>
<path d="M13.0226 27.7312C12.9953 27.7301 12.9695 27.7181 12.9508 27.6977L10.6787 24.2023C10.6706 24.1893 10.6663 24.1742 10.6663 24.1588C10.6663 24.1434 10.6706 24.1282 10.6787 24.1153C10.6845 24.1022 10.6937 24.0909 10.7051 24.0827C10.7166 24.0744 10.7301 24.0695 10.744 24.0684L13.4404 23.988C13.4404 23.988 13.4927 23.988 13.5057 23.988C13.5103 23.9974 13.5127 24.0077 13.5127 24.0182C13.5127 24.0286 13.5103 24.039 13.5057 24.0483L13.1009 27.6509C13.1012 27.6683 13.0955 27.6852 13.0847 27.6987C13.0739 27.7122 13.0589 27.7213 13.0422 27.7245L13.0226 27.7312ZM10.9007 24.2291L12.9638 27.4165L13.3556 24.1621L10.9007 24.2291Z" fill="#CC6228"/>
<path d="M21.6536 24.0754L22.0714 27.6512L24.35 24.1558L21.6536 24.0754Z" fill="#CC6228"/>
<path d="M22.0712 27.7314C22.0551 27.7271 22.0406 27.7177 22.0301 27.7045C22.0195 27.6912 22.0133 27.6748 22.0125 27.6577L21.5946 24.082C21.59 24.0726 21.5876 24.0623 21.5876 24.0518C21.5876 24.0414 21.59 24.0311 21.5946 24.0217C21.6049 24.0169 21.616 24.0144 21.6273 24.0144C21.6385 24.0144 21.6497 24.0169 21.6599 24.0217L24.3563 24.1021C24.3709 24.1038 24.385 24.109 24.3974 24.1171C24.4099 24.1252 24.4204 24.1361 24.4281 24.1489C24.4345 24.1625 24.4378 24.1774 24.4378 24.1925C24.4378 24.2075 24.4345 24.2224 24.4281 24.236L22.1626 27.6979C22.1533 27.7132 22.1392 27.7249 22.1226 27.7309C22.106 27.737 22.0879 27.7372 22.0712 27.7314V27.7314ZM21.7448 24.1623L22.1235 27.4167L24.2061 24.2293L21.7448 24.1623Z" fill="#CC6228"/>
<path d="M23.6978 20.1379L18.8665 20.3589L19.3169 22.9035L20.0286 21.37L21.7522 22.1736L23.6978 20.1379Z" fill="#CC6228"/>
<path d="M19.3161 22.9637C19.2985 22.9624 19.2819 22.9551 19.2689 22.943C19.2558 22.9308 19.2472 22.9145 19.2443 22.8967L18.8003 20.3589C18.7952 20.3485 18.7925 20.337 18.7925 20.3254C18.7925 20.3138 18.7952 20.3023 18.8003 20.2919C18.8071 20.2822 18.8159 20.2742 18.826 20.2684C18.8362 20.2626 18.8475 20.2592 18.8591 20.2584L23.6969 20.0308C23.7133 20.0322 23.7291 20.0379 23.7428 20.0473C23.7565 20.0566 23.7676 20.0694 23.7753 20.0843C23.7843 20.097 23.7891 20.1122 23.7891 20.1279C23.7891 20.1435 23.7843 20.1588 23.7753 20.1714L21.8166 22.2137C21.8027 22.2251 21.7855 22.2313 21.7677 22.2313C21.7499 22.2313 21.7326 22.2251 21.7187 22.2137L20.0734 21.4437L19.4206 22.9034C19.4184 22.9149 19.4139 22.9258 19.4072 22.9353C19.4006 22.9448 19.392 22.9527 19.382 22.9585C19.372 22.9642 19.361 22.9677 19.3496 22.9686C19.3382 22.9695 19.3268 22.9678 19.3161 22.9637ZM18.9635 20.4124L19.3487 22.6088L19.9559 21.2696C19.9657 21.251 19.9816 21.2368 20.0008 21.2294C20.02 21.222 20.0412 21.222 20.0604 21.2294L21.7318 22.0128L23.4684 20.2316L18.9635 20.4124Z" fill="#CC6228"/>
<path d="M13.3622 22.1736L15.0727 21.37L15.7844 22.9035L16.2349 20.3589L11.4036 20.1379L13.3622 22.1736Z" fill="#CC6228"/>
<path d="M15.7845 22.9638C15.7689 22.9626 15.7539 22.9569 15.7412 22.9475C15.7286 22.938 15.7187 22.9251 15.7127 22.9103L15.0598 21.4505L13.4211 22.2206C13.4082 22.2314 13.3921 22.2374 13.3754 22.2374C13.3587 22.2374 13.3426 22.2314 13.3297 22.2206L11.3711 20.1782C11.362 20.1656 11.3572 20.1503 11.3572 20.1347C11.3572 20.119 11.362 20.1038 11.3711 20.0912C11.3791 20.0766 11.3904 20.0641 11.404 20.0548C11.4176 20.0455 11.4332 20.0396 11.4494 20.0376L16.2872 20.2653C16.2881 20.2719 16.2881 20.2787 16.2872 20.2854C16.2924 20.2957 16.2951 20.3072 16.2951 20.3188C16.2951 20.3305 16.2924 20.342 16.2872 20.3523L15.8433 22.8902C15.8404 22.908 15.8317 22.9243 15.8187 22.9364C15.8057 22.9486 15.789 22.9559 15.7715 22.9571L15.7845 22.9638ZM15.0729 21.2563C15.088 21.2562 15.1028 21.2605 15.1155 21.2689C15.1283 21.2772 15.1384 21.2891 15.1447 21.3032L15.7519 22.6424L16.1371 20.4461L11.6061 20.2385L13.3754 22.0799L15.0402 21.2965L15.0729 21.2563Z" fill="#CC6228"/>
<path d="M11.4036 20.1379L13.4275 24.1557L13.3622 22.1468L11.4036 20.1379Z" fill="#E27525"/>
<path d="M13.428 24.303C13.4129 24.3031 13.3981 24.2987 13.3854 24.2904C13.3726 24.2821 13.3625 24.2702 13.3562 24.2561L11.3323 20.2049C11.3199 20.1913 11.313 20.1733 11.313 20.1547C11.313 20.136 11.3199 20.1181 11.3323 20.1044C11.3395 20.097 11.3482 20.091 11.3577 20.087C11.3672 20.0829 11.3775 20.0808 11.3878 20.0808C11.3981 20.0808 11.4083 20.0829 11.4178 20.087C11.4273 20.091 11.436 20.097 11.4433 20.1044L13.4019 22.1133C13.4075 22.133 13.4075 22.1539 13.4019 22.1736L13.4737 24.1824C13.4731 24.2021 13.4665 24.2212 13.4548 24.2368C13.4431 24.2524 13.4268 24.2639 13.4084 24.2695L13.428 24.303ZM11.7175 20.5866L13.3366 23.8141L13.2844 22.207L11.7175 20.5866Z" fill="#E27525"/>
<path d="M21.7517 22.1734L21.6733 24.1823L23.6973 20.1646L21.7517 22.1734Z" fill="#E27525"/>
<path d="M21.6737 24.3028C21.6553 24.2972 21.639 24.2858 21.6273 24.2701C21.6156 24.2545 21.609 24.2355 21.6084 24.2158L21.6867 22.2069C21.6818 22.1872 21.6818 22.1664 21.6867 22.1467L23.6454 20.1378C23.6617 20.1263 23.6811 20.1201 23.7009 20.1201C23.7207 20.1201 23.74 20.1263 23.7564 20.1378C23.767 20.1535 23.7728 20.1722 23.7728 20.1914C23.7728 20.2105 23.767 20.2292 23.7564 20.2449L21.7259 24.2961C21.71 24.3051 21.6913 24.3075 21.6737 24.3028V24.3028ZM21.8304 22.2404L21.7716 23.8475L23.3842 20.6199L21.8304 22.2404Z" fill="#E27525"/>
<path d="M16.2352 20.3591L15.7847 22.9037L16.3527 25.9036L16.4833 21.9461L16.2352 20.3591Z" fill="#E27525"/>
<path d="M16.3529 25.9903C16.3342 25.9905 16.316 25.9839 16.3016 25.9716C16.2873 25.9594 16.2777 25.9422 16.2745 25.9233L15.7065 22.9167L16.157 20.3721C16.1601 20.3532 16.1698 20.3361 16.1841 20.3238C16.1985 20.3115 16.2167 20.3049 16.2354 20.3052C16.2546 20.3058 16.2731 20.3126 16.2884 20.3246C16.3036 20.3366 16.3148 20.3532 16.3202 20.3721L16.5618 21.9591L16.4378 25.9367C16.4363 25.9575 16.4275 25.977 16.4131 25.9918C16.3988 26.0065 16.3797 26.0155 16.3594 26.017L16.3529 25.9903ZM15.8698 22.9033L16.2876 25.1599L16.3855 21.9457L16.2158 20.861L15.8698 22.9033Z" fill="#E27525"/>
<path d="M18.8989 20.3591L18.6638 21.9394L18.7813 25.9036L19.3493 22.9037L18.8989 20.3591Z" fill="#E27525"/>
<path d="M18.7484 25.9903C18.7281 25.9887 18.709 25.9798 18.6946 25.965C18.6803 25.9503 18.6715 25.9307 18.67 25.9099L18.5525 21.9458L18.7941 20.3454C18.7962 20.3339 18.8007 20.323 18.8074 20.3135C18.8141 20.304 18.8227 20.2961 18.8326 20.2903C18.8426 20.2846 18.8536 20.2812 18.865 20.2803C18.8764 20.2794 18.8878 20.281 18.8985 20.2851V20.2851C18.9172 20.2849 18.9354 20.2915 18.9498 20.3038C18.9641 20.316 18.9737 20.3332 18.9769 20.3521L19.4273 22.8967L18.8593 25.9032C18.862 25.9178 18.8606 25.9329 18.8554 25.9467C18.8502 25.9606 18.8414 25.9727 18.8299 25.9817C18.8184 25.9907 18.8047 25.9963 18.7903 25.9978C18.7759 25.9993 18.7614 25.9967 18.7484 25.9903ZM18.8985 20.8677L18.7353 21.9525L18.8332 25.1533L19.2576 22.9033L18.8985 20.8677Z" fill="#E27525"/>
<path d="M19.3168 22.9034L18.7488 25.9033L19.1536 26.1979L21.6737 24.189L21.752 22.1802L19.3168 22.9034Z" fill="#F5841F"/>
<path d="M19.1539 26.3117H19.1082L18.6969 26.0171C18.684 26.0072 18.674 25.9938 18.6683 25.9784C18.6625 25.963 18.6611 25.9462 18.6643 25.93L19.2388 22.9301C19.2396 22.9148 19.2451 22.9 19.2544 22.888C19.2638 22.876 19.2766 22.8673 19.291 22.8632L21.7263 22.1333C21.7376 22.1283 21.7498 22.1257 21.7622 22.1257C21.7745 22.1257 21.7867 22.1283 21.7981 22.1333C21.8066 22.1571 21.8066 22.1831 21.7981 22.2069L21.7197 24.2158C21.724 24.2264 21.7263 24.2378 21.7263 24.2493C21.7263 24.2608 21.724 24.2721 21.7197 24.2827L19.1996 26.2916C19.1872 26.3037 19.171 26.3108 19.1539 26.3117V26.3117ZM18.8405 25.8965L19.1539 26.1242L21.5957 24.1756L21.661 22.3141L19.389 22.9837L18.8405 25.8965Z" fill="#F5841F"/>
<path d="M13.3625 22.1733L13.4278 24.1822L15.9479 26.1911L16.3527 25.8964L15.7847 22.8965L13.3625 22.1733Z" fill="#F5841F"/>
<path d="M15.9476 26.3116C15.9307 26.3173 15.9124 26.3173 15.8954 26.3116L13.3753 24.3028C13.3691 24.2809 13.3691 24.2577 13.3753 24.2358L13.3035 22.2269C13.295 22.2032 13.295 22.1771 13.3035 22.1533C13.3148 22.1483 13.327 22.1458 13.3394 22.1458C13.3517 22.1458 13.364 22.1483 13.3753 22.1533L15.804 22.8832C15.8188 22.8878 15.8321 22.8964 15.8425 22.9083C15.8528 22.9201 15.8599 22.9345 15.8628 22.9501L16.4308 25.95C16.4339 25.9662 16.4326 25.983 16.4268 25.9984C16.421 26.0138 16.4111 26.0272 16.3981 26.0371L15.9868 26.3317L15.9476 26.3116ZM13.5059 24.1755L15.9476 26.1241L16.2676 25.8965L15.7191 22.9635L13.4471 22.2939L13.5059 24.1755Z" fill="#F5841F"/>
<path d="M19.3682 28.9904V28.1667L19.1527 27.9725H15.8884L15.6794 28.1667V28.9904L13.0222 27.6511L13.9689 28.448L15.9275 29.7872H19.2311L21.1897 28.448L22.0711 27.6511L19.3682 28.9904Z" fill="#C0AC9D"/>
<path d="M19.1996 29.8944H15.896H15.8503L13.9243 28.5552L12.9711 27.7517C12.9583 27.7369 12.9512 27.7179 12.9512 27.6981C12.9512 27.6783 12.9583 27.6593 12.9711 27.6445C12.9827 27.6281 12.9991 27.616 13.0179 27.61C13.0368 27.6039 13.057 27.6043 13.0756 27.611L15.6871 28.8766V28.207C15.6878 28.1941 15.691 28.1816 15.6966 28.17C15.7022 28.1585 15.7101 28.1483 15.7197 28.14L15.9287 27.9526C15.9455 27.9458 15.9641 27.9458 15.9809 27.9526H19.2453C19.2621 27.9458 19.2807 27.9458 19.2975 27.9526L19.5195 28.14C19.527 28.1617 19.527 28.1853 19.5195 28.207V28.8766L22.131 27.611C22.1497 27.6053 22.1696 27.6055 22.1882 27.6114C22.2068 27.6174 22.2233 27.6289 22.2355 27.6445C22.2483 27.6593 22.2554 27.6783 22.2554 27.6981C22.2554 27.7179 22.2483 27.7369 22.2355 27.7517L21.2953 28.5552L19.3367 29.8944H19.1996ZM15.9352 29.727H19.1996L21.1125 28.3878L21.5434 28.0195L19.4281 29.0507C19.4168 29.0594 19.4031 29.0641 19.3889 29.0641C19.3748 29.0641 19.3611 29.0594 19.3498 29.0507C19.3367 29.044 19.3259 29.0333 19.3189 29.0202C19.3119 29.007 19.309 28.992 19.3106 28.9771V28.1936L19.1408 28.053H15.9613L15.8046 28.1936V28.9771C15.8062 28.992 15.8033 29.007 15.7963 29.0202C15.7893 29.0333 15.7785 29.044 15.7654 29.0507C15.7541 29.0594 15.7404 29.0641 15.7263 29.0641C15.7121 29.0641 15.6984 29.0594 15.6871 29.0507L13.5783 28.0262L14.0092 28.3878L15.9352 29.727Z" fill="#C0AC9D"/>
<path d="M19.1531 26.1982L18.7484 25.9036H16.3523L15.9475 26.1982L15.719 28.1468L15.9279 27.9526H19.1923L19.4078 28.1468L19.1531 26.1982Z" fill="#161616"/>
<path d="M15.7195 28.2269H15.6803C15.6667 28.2173 15.6559 28.2042 15.649 28.1889C15.6421 28.1735 15.6394 28.1566 15.6411 28.1398L15.8696 26.1979C15.8699 26.1859 15.873 26.1741 15.8787 26.1636C15.8843 26.1531 15.8925 26.1442 15.9023 26.1376L16.3071 25.843H16.3528H18.7488H18.7945L19.1993 26.1376C19.2091 26.1442 19.2172 26.1531 19.2229 26.1636C19.2286 26.1741 19.2317 26.1859 19.232 26.1979L19.4735 28.1398C19.4739 28.1571 19.4698 28.1742 19.4618 28.1895C19.4538 28.2048 19.4421 28.2176 19.4278 28.2269C19.4145 28.2367 19.3985 28.2419 19.3821 28.2419C19.3657 28.2419 19.3497 28.2367 19.3364 28.2269L19.1406 28.0595H15.961L15.7717 28.2269C15.7549 28.2336 15.7363 28.2336 15.7195 28.2269V28.2269ZM15.9284 27.872H19.1928C19.2096 27.8652 19.2282 27.8652 19.245 27.872L19.3038 27.9188L19.0949 26.2247L18.7423 25.9702H16.3789L16.0263 26.2247L15.8239 27.9188L15.8762 27.872C15.893 27.8652 15.9116 27.8652 15.9284 27.872V27.872Z" fill="#161616"/>
<path d="M27.804 15.9195L28.5287 12.3237L27.4384 8.97559L19.1533 15.2767L22.3459 18.0355L26.8442 19.3748L27.8366 18.1828L27.3861 17.8681L28.039 17.1985L27.5167 16.7766L28.1696 16.241L27.804 15.9195Z" fill="#763E1A"/>
<path d="M26.8437 19.4616L22.3388 18.1224L19.1005 15.3435C19.0925 15.3219 19.0925 15.2981 19.1005 15.2765C19.1002 15.2635 19.1031 15.2505 19.1088 15.2389C19.1145 15.2272 19.1228 15.2171 19.1332 15.2095L27.3855 8.90172C27.3958 8.89358 27.4085 8.88916 27.4215 8.88916C27.4344 8.88916 27.4471 8.89358 27.4574 8.90172C27.47 8.90496 27.4815 8.91166 27.4907 8.92109C27.4999 8.93053 27.5064 8.94235 27.5096 8.95529L28.5934 12.3034C28.5964 12.3166 28.5964 12.3304 28.5934 12.3436L27.8817 15.8859L28.293 16.2073C28.3038 16.2146 28.3127 16.2245 28.3188 16.2362C28.3249 16.2479 28.3281 16.261 28.3281 16.2742C28.3281 16.2875 28.3249 16.3005 28.3188 16.3122C28.3127 16.3239 28.3038 16.3339 28.293 16.3412L27.6859 16.8099L28.1298 17.1648C28.1396 17.1714 28.1478 17.1803 28.1534 17.1908C28.1591 17.2013 28.1622 17.2131 28.1625 17.2251C28.1686 17.247 28.1686 17.2702 28.1625 17.2921L27.5488 17.8612L27.9013 18.1224C27.9083 18.1418 27.9083 18.1632 27.9013 18.1826C27.9078 18.2022 27.9078 18.2234 27.9013 18.2429L26.9089 19.4348C26.9006 19.4438 26.8904 19.4509 26.8791 19.4555C26.8679 19.4601 26.8558 19.4622 26.8437 19.4616V19.4616ZM22.3845 17.9617L26.8175 19.3009L27.7185 18.2228L27.3855 17.9416C27.3759 17.9333 27.368 17.9231 27.3624 17.9116C27.3568 17.9001 27.3536 17.8875 27.3529 17.8746C27.3472 17.8644 27.3442 17.8529 27.3442 17.8411C27.3442 17.8294 27.3472 17.8178 27.3529 17.8077L27.9666 17.2318L27.5161 16.8769C27.5058 16.8693 27.4974 16.8592 27.4917 16.8475C27.486 16.8359 27.4832 16.823 27.4835 16.8099C27.4841 16.7971 27.4874 16.7845 27.493 16.773C27.4986 16.7614 27.5065 16.7512 27.5161 16.743L28.1233 16.2742L27.7577 15.9863C27.7502 15.9731 27.7463 15.9581 27.7463 15.9428C27.7463 15.9275 27.7502 15.9125 27.7577 15.8992L28.4758 12.3302L27.3855 9.1227L19.2833 15.2832L22.3845 17.9617Z" fill="#763E1A"/>
<path d="M6.57837 12.3235L7.30306 15.9193L6.83952 16.2675L7.53157 16.8032L7.00927 17.2251L7.69479 17.8947L7.26389 18.2161L8.25627 19.3813L12.7611 18.042L15.9472 15.2832L7.66215 8.98877L6.57837 12.3235Z" fill="#763E1A"/>
<path d="M8.25701 19.4628C8.24666 19.4673 8.23557 19.4695 8.22436 19.4695C8.21316 19.4695 8.20206 19.4673 8.19172 19.4628L7.19934 18.2776C7.19288 18.2581 7.19288 18.2369 7.19934 18.2173C7.20461 18.1946 7.21591 18.1737 7.23199 18.1571L7.58454 17.8959L6.95125 17.2933C6.94508 17.2714 6.94508 17.2482 6.95125 17.2263C6.94711 17.2168 6.94496 17.2066 6.94496 17.1962C6.94496 17.1858 6.94711 17.1755 6.95125 17.166L7.39521 16.8111L6.7815 16.3424C6.77073 16.3351 6.76189 16.3251 6.75578 16.3134C6.74966 16.3018 6.74646 16.2887 6.74646 16.2755C6.74646 16.2622 6.74966 16.2491 6.75578 16.2375C6.76189 16.2258 6.77073 16.2158 6.7815 16.2085L7.20587 15.8871L6.49423 12.3448C6.49118 12.3316 6.49118 12.3178 6.49423 12.3046L7.57801 8.95651C7.58167 8.94269 7.58917 8.93026 7.59961 8.92075C7.61005 8.91124 7.62296 8.90505 7.63677 8.90294C7.64706 8.8948 7.65969 8.89038 7.67268 8.89038C7.68567 8.89038 7.6983 8.8948 7.70859 8.90294L15.9936 15.2108C16.0048 15.218 16.0141 15.2279 16.0209 15.2395C16.0277 15.2511 16.0318 15.2642 16.0328 15.2777C16.0398 15.2995 16.0398 15.3229 16.0328 15.3447L12.8141 18.1035L8.30924 19.4427L8.25701 19.4628ZM7.38215 18.2107L8.28312 19.2887L12.7227 17.9495L15.8173 15.271L7.70206 9.12392L6.65745 12.3314L7.38215 15.9005C7.3903 15.9134 7.39464 15.9286 7.39464 15.944C7.39464 15.9594 7.3903 15.9745 7.38215 15.9875L6.97736 16.2688L7.58454 16.7375C7.59418 16.7458 7.60205 16.756 7.60766 16.7675C7.61328 16.779 7.61652 16.7916 7.61719 16.8045C7.61745 16.8175 7.61462 16.8304 7.60893 16.8421C7.60324 16.8537 7.59487 16.8638 7.58454 16.8714L7.14711 17.233L7.76082 17.8089C7.76655 17.8191 7.76957 17.8306 7.76957 17.8424C7.76957 17.8541 7.76655 17.8657 7.76082 17.8758C7.76015 17.8887 7.75691 17.9013 7.7513 17.9128C7.74568 17.9243 7.73781 17.9345 7.72817 17.9428L7.38215 18.2107Z" fill="#763E1A"/>
<path d="M26.8441 19.3815L22.3458 18.0422L23.6973 20.1448L21.6733 24.1626H24.3501H28.3588L26.8441 19.3815Z" fill="#F5841F"/>
<path d="M21.6737 24.303C21.6595 24.3025 21.6456 24.2986 21.6331 24.2916C21.6207 24.2847 21.61 24.2748 21.6019 24.2628C21.5956 24.2504 21.5923 24.2366 21.5923 24.2227C21.5923 24.2087 21.5956 24.1949 21.6019 24.1825L23.6062 20.1648L22.3004 18.109C22.2909 18.0954 22.2857 18.079 22.2857 18.0622C22.2857 18.0453 22.2909 18.029 22.3004 18.0153C22.3105 18.0008 22.3247 17.9898 22.341 17.9838C22.3574 17.9778 22.3751 17.9771 22.3918 17.9818L26.8967 19.3211C26.9093 19.3243 26.9209 19.331 26.9301 19.3404C26.9393 19.3499 26.9458 19.3617 26.9489 19.3746L28.4636 24.149C28.4679 24.1615 28.4692 24.1749 28.4673 24.188C28.4653 24.2011 28.4602 24.2135 28.4525 24.2241C28.4447 24.2347 28.4345 24.2432 28.4228 24.2488C28.4111 24.2544 28.3982 24.2569 28.3853 24.2561H24.3505L21.6737 24.2896V24.303ZM22.5355 18.2162L23.7694 20.1246C23.7757 20.137 23.779 20.1508 23.779 20.1648C23.779 20.1788 23.7757 20.1925 23.7694 20.2049L21.8108 24.1356L24.3505 24.1021H28.2678L26.8118 19.4818L22.5355 18.2162Z" fill="#F5841F"/>
<path d="M12.7621 18.0354L8.25724 19.3746L6.75562 24.1557H10.7512H13.428L11.4041 20.138L12.7621 18.0354Z" fill="#F5841F"/>
<path d="M13.4275 24.303L10.7507 24.2695H6.75509C6.74484 24.2743 6.73371 24.2768 6.72244 24.2768C6.71117 24.2768 6.70004 24.2743 6.6898 24.2695C6.68349 24.2583 6.68018 24.2456 6.68018 24.2326C6.68018 24.2197 6.68349 24.207 6.6898 24.1958L8.19142 19.4214C8.19458 19.4085 8.20111 19.3967 8.2103 19.3872C8.2195 19.3778 8.23103 19.3711 8.24365 19.3679L12.7485 18.0286C12.7652 18.0229 12.7833 18.023 12.7999 18.0291C12.8165 18.0352 12.8306 18.0468 12.8399 18.0621C12.8495 18.0758 12.8546 18.0922 12.8546 18.109C12.8546 18.1258 12.8495 18.1422 12.8399 18.1558L11.5342 20.2116L13.5385 24.2293C13.5448 24.2417 13.5481 24.2555 13.5481 24.2695C13.5481 24.2835 13.5448 24.2972 13.5385 24.3096C13.5313 24.3177 13.5224 24.324 13.5126 24.328C13.5027 24.3321 13.4921 24.3339 13.4815 24.3333C13.4708 24.3326 13.4605 24.3296 13.4512 24.3243C13.4418 24.3191 13.4337 24.3118 13.4275 24.303V24.303ZM6.89872 24.1021H10.7507L13.2969 24.1355L11.3383 20.2049C11.332 20.1925 11.3287 20.1787 11.3287 20.1647C11.3287 20.1507 11.332 20.1369 11.3383 20.1245L12.5657 18.1826L8.32199 19.4482L6.89872 24.1021Z" fill="#F5841F"/>
<path d="M18.8991 20.359L19.1864 15.2766L20.4921 11.6606H14.6423L15.9481 15.2766L16.2354 20.359L16.3463 21.9594V25.9034H18.7424V21.9594L18.8991 20.359Z" fill="#F5841F"/>
<path d="M18.748 25.9903H16.3519C16.3411 25.9903 16.3303 25.988 16.3204 25.9836C16.3104 25.9791 16.3015 25.9726 16.2941 25.9644C16.2867 25.9562 16.2811 25.9466 16.2776 25.936C16.274 25.9255 16.2727 25.9143 16.2736 25.9032V21.9592L16.1626 20.3655L15.8753 15.2965L14.5696 11.6872C14.5657 11.6633 14.5711 11.6388 14.5844 11.6188C14.5978 11.5988 14.6182 11.5849 14.6414 11.5801H20.4586C20.4713 11.5816 20.4835 11.5859 20.4945 11.5926C20.5055 11.5994 20.515 11.6084 20.5224 11.6191C20.5298 11.6298 20.5349 11.642 20.5374 11.6549C20.5399 11.6678 20.5397 11.6811 20.5369 11.6939L19.2311 15.3032L18.9439 20.3722L18.8329 21.9726V25.9099C18.8329 25.9211 18.8307 25.9321 18.8264 25.9423C18.822 25.9525 18.8157 25.9617 18.8077 25.9693C18.7997 25.9768 18.7903 25.9826 18.78 25.9862C18.7697 25.9898 18.7588 25.9912 18.748 25.9903V25.9903ZM16.4368 25.8229H18.6631V21.9592L18.7676 20.3588L19.0614 15.2697L20.328 11.7609H14.7589L16.0255 15.2496L16.3128 20.3387L16.4238 21.9324L16.4368 25.8229Z" fill="#F5841F"/>
<rect x="0.5" y="1.5" width="155" height="35" rx="11.5" stroke="white" stroke-opacity="0.08"/>
<rect x="176" y="1" width="36" height="36" rx="12" fill="#31333E"/>
<path fill-rule="evenodd" clip-rule="evenodd" d="M193.978 11.3702C194.119 11.6199 194.1 11.9291 193.93 12.1596C193.226 13.1113 192.888 14.284 192.976 15.4642C193.064 16.6444 193.572 17.7539 194.409 18.5908C195.246 19.4276 196.356 19.9364 197.536 20.0244C198.716 20.1124 199.889 19.7739 200.84 19.0704C201.071 18.9 201.38 18.8809 201.63 19.0216C201.88 19.1624 202.023 19.4367 201.997 19.7221C201.857 21.2381 201.288 22.6829 200.357 23.8873C199.425 25.0917 198.17 26.0061 196.739 26.5233C195.307 27.0405 193.757 27.1392 192.271 26.8079C190.785 26.4765 189.424 25.7289 188.348 24.6523C187.271 23.5758 186.523 22.2149 186.192 20.729C185.861 19.243 185.96 17.6934 186.477 16.2615C186.994 14.8296 187.908 13.5746 189.113 12.6434C190.317 11.7121 191.762 11.1432 193.278 11.0031C193.563 10.9767 193.838 11.1205 193.978 11.3702ZM191.951 12.757C191.251 12.9891 190.591 13.3386 190.002 13.7941C189.017 14.5563 188.268 15.5836 187.845 16.7556C187.421 17.9277 187.341 19.1961 187.612 20.4124C187.883 21.6287 188.495 22.7426 189.376 23.6238C190.257 24.505 191.371 25.117 192.588 25.3882C193.804 25.6594 195.072 25.5786 196.244 25.1552C197.416 24.7319 198.444 23.9835 199.206 22.9976C199.661 22.4085 200.011 21.7493 200.243 21.0493C199.355 21.3983 198.393 21.5469 197.428 21.4749C195.9 21.361 194.464 20.7025 193.381 19.6193C192.297 18.5361 191.639 17.1 191.525 15.5724C191.453 14.6067 191.602 13.645 191.951 12.757Z" fill="white"/>
<rect x="176.5" y="1.5" width="35" height="35" rx="11.5" stroke="white" stroke-opacity="0.08"/>
</svg>
