<svg width="348" height="63" viewBox="0 0 348 63" fill="none" xmlns="http://www.w3.org/2000/svg">
<path d="M97.2166 45.047C93.3726 45.047 90.1486 43.683 87.4206 40.955C84.8166 38.227 83.4526 35.003 83.4526 31.159C83.4526 27.315 84.8166 23.967 87.4206 21.363C90.0246 18.635 93.2486 17.271 97.0926 17.271C99.9446 17.271 102.425 18.015 104.657 19.627C106.889 21.239 108.377 23.347 109.493 25.951L107.385 26.323C106.517 24.215 105.277 22.479 103.417 21.239C101.681 19.999 99.5726 19.255 97.2166 19.255C93.9926 19.255 91.2646 20.371 89.0326 22.727C86.8006 24.959 85.8086 27.811 85.8086 31.159C85.8086 34.383 86.9246 37.235 89.0326 39.467C91.2646 41.699 93.9926 42.939 97.2166 42.939C100.193 42.939 102.549 41.947 104.533 40.087C106.517 38.227 107.633 35.747 107.881 32.647H97.0926V30.663H110.113V31.283C110.113 35.127 108.873 38.475 106.517 41.079C104.161 43.683 101.061 45.047 97.2166 45.047Z" fill="white"/>
<path d="M114.203 44.6755V17.3955H125.611C128.091 17.3955 130.075 18.1395 131.563 19.7515C133.051 21.3635 133.795 23.2235 133.795 25.5795C133.795 27.6875 133.175 29.5475 131.811 31.0355C130.571 32.5235 128.835 33.2675 126.975 33.6395L134.043 44.6755H131.563L124.619 33.7635H116.311V44.6755H114.203ZM116.435 31.9035H125.115C127.099 31.9035 128.711 31.2835 129.951 30.1675C131.191 29.0515 131.811 27.5635 131.811 25.5795C131.811 23.8435 131.315 22.3555 130.199 21.2395C129.083 19.9995 127.595 19.5035 125.735 19.5035H116.559V31.9035H116.435Z" fill="white"/>
<path d="M150.66 45.047C146.816 45.047 143.592 43.683 140.864 40.955C138.26 38.227 136.896 35.003 136.896 31.159C136.896 27.315 138.26 23.967 140.864 21.363C143.468 18.635 146.692 17.271 150.536 17.271C154.256 17.271 157.48 18.635 160.208 21.363C162.812 24.091 164.176 27.315 164.176 31.159C164.176 35.003 162.812 38.351 160.208 41.079C157.604 43.683 154.38 45.047 150.66 45.047ZM150.66 42.815C153.884 42.815 156.612 41.699 158.844 39.343C161.076 36.987 162.068 34.259 162.068 30.911C162.068 27.563 160.952 24.835 158.72 22.479C156.488 20.123 153.884 19.007 150.66 19.007C147.436 19.007 144.708 20.123 142.476 22.479C140.244 24.711 139.252 27.563 139.252 30.911C139.252 34.135 140.368 36.987 142.476 39.343C144.584 41.699 147.312 42.815 150.66 42.815Z" fill="white"/>
<path d="M178.932 45.0485C176.948 45.0485 175.212 44.6765 173.6 43.9325C171.988 43.1885 170.624 41.8245 169.508 40.0885C168.392 38.3525 167.896 36.1205 167.896 33.6405V17.5205H170.128V33.6405C170.128 36.6165 170.996 38.9725 172.732 40.5845C174.468 42.1965 176.576 42.9405 178.932 42.9405C181.288 42.9405 183.396 42.1965 185.132 40.5845C186.868 38.9725 187.86 36.6165 187.86 33.6405V17.5205H190.092V33.6405C190.092 37.3605 188.976 40.0885 186.868 42.0725C184.636 44.0565 182.032 45.0485 178.932 45.0485Z" fill="white"/>
<path d="M194.803 44.6755V17.3955H199.143L214.767 43.8075V17.3955H216.999V44.6755H212.783L197.159 18.0155V44.6755H194.803Z" fill="white"/>
<path d="M221.836 44.7995V17.3955H230.268C234.236 17.3955 237.46 18.6355 240.188 21.2395C242.916 23.8435 244.156 27.0675 244.156 31.0355C244.156 34.8795 242.792 38.2275 240.188 40.8315C237.584 43.4355 234.236 44.6755 230.268 44.6755H221.836V44.7995ZM223.944 42.6915H230.268C233.616 42.6915 236.468 41.5755 238.7 39.4675C240.932 37.2355 242.048 34.5075 242.048 31.1595C242.048 27.8115 240.932 24.9595 238.7 22.8515C236.468 20.6195 233.74 19.6275 230.268 19.6275H223.944V42.6915Z" fill="white"/>
<path d="M247.629 44.6755V38.5995L260.773 22.8515H247.629V17.3955H268.089V22.4795L253.953 39.3435H267.717V44.6755H247.629Z" fill="white"/>
<path d="M271.932 44.6755V17.3955H291.648V22.8515H277.76V28.4315H290.16V33.7635H277.76V39.3435H291.648V44.7995H271.932V44.6755Z" fill="white"/>
<path d="M295.615 44.6755V17.3955H307.643C310.371 17.3955 312.603 18.3875 314.463 20.2475C316.323 22.1075 317.315 24.3395 317.315 26.8195C317.315 28.5555 316.819 30.1675 315.827 31.7795C314.835 33.2675 313.471 34.3835 311.859 35.0035L317.687 44.6755H311.487L306.031 35.7475H301.443V44.6755H295.615ZM301.443 30.6635H307.643C308.759 30.6635 309.751 30.2915 310.495 29.5475C311.239 28.8035 311.611 27.8115 311.611 26.6955C311.611 25.5795 311.239 24.5875 310.495 23.8435C309.751 23.0995 308.759 22.7275 307.643 22.7275H301.443V30.6635Z" fill="white"/>
<path d="M343.481 40.955C340.753 43.683 337.529 45.047 333.685 45.047C329.841 45.047 326.617 43.683 323.889 40.955C321.161 38.227 319.797 35.003 319.797 31.159C319.797 27.315 321.161 24.091 323.889 21.363C326.617 18.635 329.841 17.271 333.685 17.271C337.529 17.271 340.753 18.635 343.481 21.363C346.209 24.091 347.573 27.315 347.573 31.159C347.573 34.879 346.209 38.227 343.481 40.955ZM327.857 37.111C329.469 38.723 331.329 39.591 333.685 39.591C336.041 39.591 337.901 38.723 339.389 37.111C341.001 35.499 341.745 33.515 341.745 31.159C341.745 28.803 341.001 26.819 339.389 25.207C337.901 23.595 335.917 22.727 333.685 22.727C331.453 22.727 329.469 23.595 327.981 25.207C326.369 26.819 325.625 28.803 325.625 31.159C325.501 33.515 326.245 35.499 327.857 37.111Z" fill="white"/>
<path d="M38.564 20.2457V19.0057L38.44 16.7737L38.316 12.4337C38.192 9.70574 38.192 6.85374 38.192 4.12574H40.052C40.052 5.36574 40.052 6.72974 40.052 8.09374V8.83774C40.052 9.20974 40.052 9.70574 40.052 10.3257L40.176 12.4337C40.176 13.5497 40.3 14.5417 40.424 15.7817L40.548 16.7737C40.672 17.8897 40.796 19.2537 40.92 20.3697H38.44V20.2457H38.564ZM53.196 62.1577L52.948 61.5377C52.576 60.5457 52.08 59.6777 51.708 58.6857L50.096 54.7177C49.724 53.7257 49.228 52.6097 48.98 51.6177L47.492 47.6497L47.244 46.6577H41.416C41.788 49.6337 42.408 52.9817 43.152 56.0817L44.02 60.4217C44.144 60.7937 44.268 61.2897 44.268 61.6617C44.268 61.7857 44.392 61.9097 44.392 62.2817H53.196V62.1577ZM46.5 44.4257L45.756 42.0697C45.508 40.9537 45.136 39.7137 44.764 38.5977L44.392 37.1097C44.268 36.7377 44.144 36.2417 44.144 35.6217L43.4 32.3977C43.152 31.4057 43.028 30.4137 42.78 29.4217L42.532 27.9337C42.408 27.0657 42.284 26.0737 41.912 25.2057C41.788 24.2137 41.664 23.2217 41.54 22.1057H38.936V22.4777C38.936 23.4697 39.06 24.3377 39.06 25.3297C39.06 26.1977 39.184 27.1897 39.184 28.0577L39.308 29.6697C39.308 30.6617 39.432 31.6537 39.556 32.7697L39.804 36.2417C39.804 36.6137 39.928 37.2337 39.928 37.7297L40.052 38.4737C40.176 40.4577 40.424 42.4417 40.796 44.5497H46.5V44.4257ZM50.716 32.1497C49.6 29.1737 48.732 26.5697 48.112 24.0897C47.74 22.6017 47.244 21.1137 46.996 19.6257C46.748 18.1377 46.376 16.6497 46.128 15.1617C45.88 13.5497 45.756 12.1857 45.508 10.6977C45.384 9.95374 45.384 9.08574 45.384 8.34174C45.384 7.72174 45.384 7.10174 45.384 6.48174H43.4C43.4 6.85374 43.4 7.47374 43.524 7.96974L43.648 9.70574L43.772 10.8217C43.896 12.4337 44.02 13.7977 44.144 15.4097L44.268 16.0297C44.392 17.2697 44.516 18.6337 44.888 19.8737C45.012 20.6177 45.136 21.4857 45.26 22.2297C45.384 22.9737 45.508 23.8417 45.632 24.5857C46.252 27.4377 46.748 30.0417 47.368 32.3977H50.468V32.1497H50.716ZM67.828 62.1577C66.712 60.5457 65.348 59.1817 64.356 57.5697C64.108 57.1977 63.736 56.7017 63.488 56.4537C62.868 55.5857 62.248 54.5937 61.628 53.7257L61.256 52.9817C61.008 52.6097 60.636 52.1137 60.388 51.7417L59.148 49.7577C58.9 49.3857 58.528 48.7657 58.28 48.2697L57.536 47.1537C57.288 46.7817 56.916 46.1617 56.668 45.6657L55.552 43.6817C55.304 43.3097 55.18 42.6897 54.808 42.1937L54.56 41.4497C53.32 38.8457 52.204 36.3657 51.212 34.1337H47.492C48.236 36.8617 49.104 39.7137 50.096 42.5657C52.08 48.3937 54.56 54.3457 57.536 60.1737C57.784 60.9177 58.28 61.4137 58.528 62.1577H67.828ZM38.068 62.1577C37.82 59.4297 37.448 56.4537 37.2 53.1057L36.704 48.6417L36.456 44.1777C36.208 41.2017 36.084 38.3497 35.836 35.2497L35.712 34.0097H31.992L31.868 35.2497C31.744 38.2257 31.496 41.0777 31.248 44.1777L31 48.6417L30.628 53.1057C30.38 56.5777 30.008 59.5537 29.76 62.1577H38.068ZM35.588 32.1497C35.34 26.8177 35.216 22.1057 34.968 17.6417L34.844 13.1777V8.71374C34.844 6.10974 34.844 3.13374 34.968 0.281738H32.488C32.612 3.13374 32.612 6.10974 32.612 8.71374V13.1777V17.6417C32.488 22.1057 32.364 26.6937 31.992 32.1497H35.588ZM29.388 20.2457V19.0057L29.512 16.8977L29.76 12.4337C29.884 9.70574 29.884 6.85374 29.884 4.12574H28.024C28.024 5.36574 28.024 6.72974 28.024 8.09374V8.83774C28.024 9.20974 28.024 9.70574 28.024 10.3257L27.9 12.4337C27.9 13.4257 27.776 14.5417 27.652 15.5337L27.528 16.6497C27.404 17.7657 27.28 19.1297 27.156 20.2457H29.636H29.388ZM23.932 62.1577C23.932 62.0337 24.056 61.9097 24.056 61.5377C24.18 61.1657 24.304 60.6697 24.304 60.2977L25.172 55.9577C25.916 52.6097 26.412 49.5097 26.908 46.5337H21.08L20.832 47.5257L19.344 51.4937C18.972 52.4857 18.6 53.6017 18.228 54.5937L16.492 58.5617C16.12 59.5537 15.624 60.4217 15.252 61.4137L14.88 62.1577H23.932ZM27.28 44.4257C27.528 42.4417 27.9 40.4577 28.024 38.3497L28.148 37.6057C28.148 37.2337 28.272 36.6137 28.272 36.1177L28.52 32.6457C28.644 31.6537 28.644 30.6617 28.768 29.5457L28.892 27.9337C28.892 27.0657 29.016 26.0737 29.016 25.2057C29.016 24.2137 29.14 23.3457 29.14 22.3537V21.9817H26.536C26.412 22.9737 26.288 23.9657 26.164 25.0817C26.04 25.9497 25.916 26.9417 25.544 27.8097L25.296 29.2977C25.172 30.2897 24.924 31.2817 24.676 32.2737L23.932 35.7457C23.808 36.1177 23.684 36.6137 23.684 37.2337L23.436 38.7217C23.188 39.8377 22.816 41.0777 22.444 42.1937L21.7 44.5497H27.28V44.4257ZM20.832 32.1497C21.452 29.7937 21.948 27.3137 22.568 24.4617C22.692 23.7177 22.816 22.8497 22.94 22.1057C23.064 21.3617 23.188 20.4937 23.312 19.7497C23.436 18.5097 23.684 17.1457 23.932 15.9057L24.056 15.2857C24.18 13.6737 24.304 12.3097 24.428 10.6977L24.552 9.58174L24.8 7.84574C24.8 7.47374 24.8 6.85374 24.924 6.35774H22.94C22.94 6.97774 22.94 7.59774 22.94 8.21774C22.94 8.96174 22.816 9.82974 22.816 10.5737C22.692 12.0617 22.568 13.5497 22.196 15.0377C21.948 16.6497 21.576 18.0137 21.328 19.5017C21.08 20.9897 20.584 22.4777 20.212 23.9657C19.468 26.4457 18.6 29.0497 17.608 32.0257H20.708V32.1497H20.832ZM9.3 62.1577C9.672 61.4137 10.044 60.9177 10.292 60.1737C13.268 54.3457 15.748 48.3937 17.732 42.5657C18.724 39.7137 19.592 36.8617 20.336 34.1337H16.616C15.624 36.6137 14.632 38.8457 13.268 41.4497L13.02 42.1937C12.772 42.5657 12.648 43.0617 12.276 43.6817L11.16 45.5417C10.912 45.9137 10.54 46.5337 10.292 47.0297L9.548 48.1457C9.3 48.5177 8.928 49.1377 8.68 49.6337L7.44 51.6177C7.192 51.9897 6.82 52.4857 6.572 52.8577L6.2 53.4777C5.58 54.3457 5.084 55.3377 4.34 56.2057C4.092 56.5777 3.72 57.0737 3.472 57.4457C2.356 58.9337 1.116 60.4217 0 62.0337H9.3V62.1577Z" fill="url(#paint0_linear)"/>
<defs>
<linearGradient id="paint0_linear" x1="33.9421" y1="62.1478" x2="33.9421" y2="0.353532" gradientUnits="userSpaceOnUse">
<stop stop-color="#548D1D"/>
<stop offset="0.042077" stop-color="#57911F"/>
<stop offset="0.4219" stop-color="#70AD32"/>
<stop offset="0.754" stop-color="#80BE3D"/>
<stop offset="1" stop-color="#85C441"/>
</linearGradient>
</defs>
</svg>
