<svg width="526" height="311" viewBox="0 0 526 311" fill="none" xmlns="http://www.w3.org/2000/svg">
<line x1="51.5529" y1="7.2735" x2="525.176" y2="7.2735" stroke="#38393E" stroke-width="1.00771"/>
<line x1="51.5529" y1="97.6854" x2="525.176" y2="97.6854" stroke="#38393E" stroke-width="1.00771"/>
<line x1="51.5529" y1="188.097" x2="525.176" y2="188.097" stroke="#38393E" stroke-width="1.00771"/>
<line x1="51.5529" y1="278.509" x2="525.176" y2="278.509" stroke="#38393E" stroke-width="1.00771"/>
<path d="M113.842 207.642C89.0253 213.045 71.9219 245.187 51.1228 250.458V263.458H524.001V185.026C500.847 185.026 497.757 208.981 486.86 202.386C475.964 195.792 464.518 150.453 451.806 152.851C439.094 155.249 432.117 91.621 405.33 97.6158C378.544 103.611 358.829 172.081 337.49 142.706C316.152 113.332 311.616 128.831 288.916 122.836C266.215 116.841 256.27 188.656 234.769 186.361C213.268 184.066 207.529 243.797 185.586 238.257C158.997 231.544 161.311 227.783 149.489 219.075C137.666 210.367 127.07 204.762 113.842 207.642Z" fill="url(#paint0_linear)"/>
<path d="M51.1228 251.441C71.9219 246.136 89.0253 213.788 113.842 208.35C127.07 205.452 137.666 211.093 149.489 219.857C161.311 228.621 158.997 232.405 185.586 239.162C207.529 244.738 213.268 184.624 234.769 186.933C256.27 189.243 266.215 116.967 288.916 123.001C311.616 129.034 316.152 113.435 337.49 142.998C358.829 172.561 378.544 103.652 405.33 97.6183C432.117 91.5851 439.094 155.621 451.806 153.208C464.518 150.795 475.964 196.425 486.86 203.061C497.757 209.698 500.847 185.589 524.001 185.589" stroke="#4F46E5" stroke-width="3.02313" stroke-linecap="round" stroke-linejoin="round"/>
<g opacity="0.7">
<path d="M2.85989 11V6.12269C2.85989 6.00848 2.85989 5.88755 2.85989 5.75991C2.86661 5.62555 2.87333 5.48783 2.88004 5.34675C2.65163 5.56845 2.38627 5.76327 2.08395 5.93122C1.78164 6.09246 1.47261 6.21002 1.15686 6.28392L0.945243 5.54829C1.06617 5.53486 1.21732 5.49119 1.39871 5.41729C1.58682 5.33667 1.78164 5.23926 1.98318 5.12505C2.19144 5.00413 2.38291 4.87649 2.55758 4.74212C2.73225 4.60776 2.86661 4.47676 2.96066 4.34912H3.66606V11H2.85989ZM7.82435 11.1008C7.07193 11.1008 6.47067 10.8085 6.02055 10.2241C5.57044 9.63959 5.34539 8.78976 5.34539 7.67456C5.34539 6.55936 5.57044 5.70953 6.02055 5.12505C6.47067 4.54058 7.07193 4.24835 7.82435 4.24835C8.5835 4.24835 9.18476 4.54058 9.62815 5.12505C10.0783 5.70953 10.3033 6.55936 10.3033 7.67456C10.3033 8.78976 10.0783 9.63959 9.62815 10.2241C9.18476 10.8085 8.5835 11.1008 7.82435 11.1008ZM7.82435 10.3752C8.3618 10.3752 8.76824 10.1434 9.04368 9.6799C9.32584 9.21635 9.46692 8.54791 9.46692 7.67456C9.46692 6.79449 9.32584 6.12605 9.04368 5.66922C8.76824 5.20567 8.3618 4.9739 7.82435 4.9739C7.29363 4.9739 6.88719 5.20567 6.60503 5.66922C6.32287 6.12605 6.18179 6.79449 6.18179 7.67456C6.18179 8.54791 6.32287 9.21635 6.60503 9.6799C6.88719 10.1434 7.29363 10.3752 7.82435 10.3752ZM12.0533 9.79075C12.2884 9.79075 12.4731 9.88144 12.6075 10.0628C12.7419 10.2442 12.8091 10.4794 12.8091 10.7682C12.8091 11.1041 12.7217 11.4266 12.547 11.7356C12.3724 12.0447 12.0936 12.2899 11.7106 12.4713L11.2874 12.0782C11.5629 11.9842 11.7845 11.8398 11.9525 11.6449C12.1205 11.4568 12.2279 11.2586 12.275 11.0504L12.2347 11.0302C12.2078 11.0504 12.1742 11.0672 12.1339 11.0806C12.0936 11.0941 12.0331 11.1008 11.9525 11.1008C11.8316 11.1008 11.7073 11.0504 11.5796 10.9496C11.4587 10.8421 11.3983 10.6809 11.3983 10.4659C11.3983 10.2845 11.4621 10.1267 11.5897 9.99229C11.7174 9.85793 11.8719 9.79075 12.0533 9.79075ZM16.2777 11.1008C15.5253 11.1008 14.924 10.8085 14.4739 10.2241C14.0238 9.63959 13.7987 8.78976 13.7987 7.67456C13.7987 6.55936 14.0238 5.70953 14.4739 5.12505C14.924 4.54058 15.5253 4.24835 16.2777 4.24835C17.0368 4.24835 17.6381 4.54058 18.0815 5.12505C18.5316 5.70953 18.7567 6.55936 18.7567 7.67456C18.7567 8.78976 18.5316 9.63959 18.0815 10.2241C17.6381 10.8085 17.0368 11.1008 16.2777 11.1008ZM16.2777 10.3752C16.8151 10.3752 17.2216 10.1434 17.497 9.6799C17.7792 9.21635 17.9203 8.54791 17.9203 7.67456C17.9203 6.79449 17.7792 6.12605 17.497 5.66922C17.2216 5.20567 16.8151 4.9739 16.2777 4.9739C15.747 4.9739 15.3405 5.20567 15.0584 5.66922C14.7762 6.12605 14.6351 6.79449 14.6351 7.67456C14.6351 8.54791 14.7762 9.21635 15.0584 9.6799C15.3405 10.1434 15.747 10.3752 16.2777 10.3752ZM22.5464 11.1008C21.7939 11.1008 21.1927 10.8085 20.7426 10.2241C20.2924 9.63959 20.0674 8.78976 20.0674 7.67456C20.0674 6.55936 20.2924 5.70953 20.7426 5.12505C21.1927 4.54058 21.7939 4.24835 22.5464 4.24835C23.3055 4.24835 23.9068 4.54058 24.3502 5.12505C24.8003 5.70953 25.0253 6.55936 25.0253 7.67456C25.0253 8.78976 24.8003 9.63959 24.3502 10.2241C23.9068 10.8085 23.3055 11.1008 22.5464 11.1008ZM22.5464 10.3752C23.0838 10.3752 23.4902 10.1434 23.7657 9.6799C24.0478 9.21635 24.1889 8.54791 24.1889 7.67456C24.1889 6.79449 24.0478 6.12605 23.7657 5.66922C23.4902 5.20567 23.0838 4.9739 22.5464 4.9739C22.0156 4.9739 21.6092 5.20567 21.327 5.66922C21.0449 6.12605 20.9038 6.79449 20.9038 7.67456C20.9038 8.54791 21.0449 9.21635 21.327 9.6799C21.6092 10.1434 22.0156 10.3752 22.5464 10.3752ZM28.815 11.1008C28.0626 11.1008 27.4613 10.8085 27.0112 10.2241C26.5611 9.63959 26.3361 8.78976 26.3361 7.67456C26.3361 6.55936 26.5611 5.70953 27.0112 5.12505C27.4613 4.54058 28.0626 4.24835 28.815 4.24835C29.5742 4.24835 30.1754 4.54058 30.6188 5.12505C31.0689 5.70953 31.294 6.55936 31.294 7.67456C31.294 8.78976 31.0689 9.63959 30.6188 10.2241C30.1754 10.8085 29.5742 11.1008 28.815 11.1008ZM28.815 10.3752C29.3525 10.3752 29.7589 10.1434 30.0343 9.6799C30.3165 9.21635 30.4576 8.54791 30.4576 7.67456C30.4576 6.79449 30.3165 6.12605 30.0343 5.66922C29.7589 5.20567 29.3525 4.9739 28.815 4.9739C28.2843 4.9739 27.8778 5.20567 27.5957 5.66922C27.3135 6.12605 27.1725 6.79449 27.1725 7.67456C27.1725 8.54791 27.3135 9.21635 27.5957 9.6799C27.8778 10.1434 28.2843 10.3752 28.815 10.3752Z" fill="#999999"/>
<path d="M7.78761 94.2567C8.3452 94.2567 8.81547 94.4045 9.1984 94.7001C9.58133 94.9889 9.8702 95.392 10.065 95.9093C10.2599 96.4199 10.3573 97.0111 10.3573 97.6829C10.3573 98.7981 10.1389 99.6479 9.70225 100.232C9.2723 100.817 8.63744 101.109 7.79768 101.109C7.2468 101.109 6.77318 100.981 6.37681 100.726C5.98045 100.471 5.68485 100.098 5.49003 99.6076L6.28612 99.1844C6.39361 99.5337 6.56828 99.8159 6.81013 100.031C7.0587 100.246 7.39796 100.353 7.82791 100.353C8.29146 100.353 8.65423 100.232 8.91624 99.9905C9.17824 99.7487 9.35963 99.4061 9.4604 98.9627C9.56789 98.5193 9.62164 98.002 9.62164 97.4108V97.3201H9.58133C9.50071 97.6224 9.35963 97.8676 9.15809 98.0557C8.95655 98.2371 8.72813 98.3681 8.47285 98.4487C8.22428 98.5294 7.97571 98.5697 7.72714 98.5697C7.29047 98.5697 6.90418 98.4857 6.56828 98.3177C6.23237 98.1431 5.97037 97.9012 5.78226 97.5922C5.59416 97.2832 5.5001 96.917 5.5001 96.4938C5.5001 95.8153 5.70165 95.2744 6.10473 94.8714C6.51453 94.4616 7.07549 94.2567 7.78761 94.2567ZM7.79768 95.0326C7.32742 95.0326 6.968 95.1636 6.71943 95.4256C6.47086 95.6809 6.34658 96.0403 6.34658 96.5039C6.34658 96.9002 6.47758 97.216 6.73959 97.4511C7.00159 97.6795 7.35429 97.7937 7.79768 97.7937C8.23436 97.7937 8.5837 97.6661 8.8457 97.4108C9.11442 97.1555 9.24878 96.8263 9.24878 96.4232C9.24878 96.0067 9.11442 95.6708 8.8457 95.4155C8.5837 95.1602 8.23436 95.0326 7.79768 95.0326ZM12.2166 99.7991C12.4518 99.7991 12.6365 99.8898 12.7709 100.071C12.9052 100.253 12.9724 100.488 12.9724 100.777C12.9724 101.112 12.8851 101.435 12.7104 101.744C12.5358 102.053 12.257 102.298 11.874 102.48L11.4508 102.087C11.7262 101.993 11.9479 101.848 12.1159 101.653C12.2838 101.465 12.3913 101.267 12.4383 101.059L12.398 101.039C12.3712 101.059 12.3376 101.075 12.2973 101.089C12.257 101.102 12.1965 101.109 12.1159 101.109C11.9949 101.109 11.8707 101.059 11.743 100.958C11.6221 100.85 11.5616 100.689 11.5616 100.474C11.5616 100.293 11.6255 100.135 11.7531 100.001C11.8807 99.8662 12.0353 99.7991 12.2166 99.7991ZM16.4411 101.109C15.6886 101.109 15.0874 100.817 14.6373 100.232C14.1872 99.6479 13.9621 98.7981 13.9621 97.6829C13.9621 96.5677 14.1872 95.7178 14.6373 95.1334C15.0874 94.5489 15.6886 94.2567 16.4411 94.2567C17.2002 94.2567 17.8015 94.5489 18.2449 95.1334C18.695 95.7178 18.92 96.5677 18.92 97.6829C18.92 98.7981 18.695 99.6479 18.2449 100.232C17.8015 100.817 17.2002 101.109 16.4411 101.109ZM16.4411 100.384C16.9785 100.384 17.385 100.152 17.6604 99.6882C17.9426 99.2247 18.0836 98.5562 18.0836 97.6829C18.0836 96.8028 17.9426 96.1344 17.6604 95.6775C17.385 95.214 16.9785 94.9822 16.4411 94.9822C15.9103 94.9822 15.5039 95.214 15.2217 95.6775C14.9396 96.1344 14.7985 96.8028 14.7985 97.6829C14.7985 98.5562 14.9396 99.2247 15.2217 99.6882C15.5039 100.152 15.9103 100.384 16.4411 100.384ZM22.7097 101.109C21.9573 101.109 21.356 100.817 20.9059 100.232C20.4558 99.6479 20.2308 98.7981 20.2308 97.6829C20.2308 96.5677 20.4558 95.7178 20.9059 95.1334C21.356 94.5489 21.9573 94.2567 22.7097 94.2567C23.4689 94.2567 24.0701 94.5489 24.5135 95.1334C24.9636 95.7178 25.1887 96.5677 25.1887 97.6829C25.1887 98.7981 24.9636 99.6479 24.5135 100.232C24.0701 100.817 23.4689 101.109 22.7097 101.109ZM22.7097 100.384C23.2472 100.384 23.6536 100.152 23.9291 99.6882C24.2112 99.2247 24.3523 98.5562 24.3523 97.6829C24.3523 96.8028 24.2112 96.1344 23.9291 95.6775C23.6536 95.214 23.2472 94.9822 22.7097 94.9822C22.179 94.9822 21.7726 95.214 21.4904 95.6775C21.2082 96.1344 21.0672 96.8028 21.0672 97.6829C21.0672 98.5562 21.2082 99.2247 21.4904 99.6882C21.7726 100.152 22.179 100.384 22.7097 100.384ZM28.9784 101.109C28.226 101.109 27.6247 100.817 27.1746 100.232C26.7245 99.6479 26.4994 98.7981 26.4994 97.6829C26.4994 96.5677 26.7245 95.7178 27.1746 95.1334C27.6247 94.5489 28.226 94.2567 28.9784 94.2567C29.7375 94.2567 30.3388 94.5489 30.7822 95.1334C31.2323 95.7178 31.4574 96.5677 31.4574 97.6829C31.4574 98.7981 31.2323 99.6479 30.7822 100.232C30.3388 100.817 29.7375 101.109 28.9784 101.109ZM28.9784 100.384C29.5158 100.384 29.9223 100.152 30.1977 99.6882C30.4799 99.2247 30.621 98.5562 30.621 97.6829C30.621 96.8028 30.4799 96.1344 30.1977 95.6775C29.9223 95.214 29.5158 94.9822 28.9784 94.9822C28.4477 94.9822 28.0412 95.214 27.7591 95.6775C27.4769 96.1344 27.3358 96.8028 27.3358 97.6829C27.3358 98.5562 27.4769 99.2247 27.7591 99.6882C28.0412 100.152 28.4477 100.384 28.9784 100.384Z" fill="#999999"/>
<path d="M7.89845 185.283C8.53667 185.283 9.04724 185.441 9.43017 185.756C9.81982 186.065 10.0146 186.489 10.0146 187.026C10.0146 187.369 9.93067 187.671 9.76272 187.933C9.60148 188.188 9.37307 188.383 9.07747 188.518V188.528C9.45368 188.669 9.75264 188.884 9.97433 189.173C10.2027 189.461 10.317 189.814 10.317 190.231C10.317 190.62 10.2162 190.956 10.0146 191.238C9.8131 191.52 9.53094 191.739 9.16817 191.893C8.81211 192.048 8.38887 192.125 7.89845 192.125C7.41475 192.125 6.99151 192.048 6.62874 191.893C6.26596 191.739 5.98381 191.52 5.78226 191.238C5.58072 190.956 5.47995 190.62 5.47995 190.231C5.47995 189.821 5.5908 189.471 5.81249 189.183C6.03419 188.887 6.33986 188.669 6.72951 188.528V188.518C6.44063 188.39 6.20886 188.198 6.03419 187.943C5.86624 187.681 5.78226 187.375 5.78226 187.026C5.78226 186.489 5.97373 186.065 6.35666 185.756C6.74631 185.441 7.26024 185.283 7.89845 185.283ZM7.89845 186.039C7.50881 186.039 7.19642 186.133 6.96128 186.321C6.73287 186.509 6.61866 186.771 6.61866 187.107C6.61866 187.436 6.73623 187.695 6.97136 187.883C7.20649 188.071 7.51552 188.165 7.89845 188.165C8.28138 188.165 8.59041 188.071 8.82555 187.883C9.06068 187.695 9.17824 187.436 9.17824 187.107C9.17824 186.771 9.06404 186.509 8.83562 186.321C8.60721 186.133 8.29482 186.039 7.89845 186.039ZM7.89845 191.369C8.38887 191.369 8.77516 191.262 9.05732 191.047C9.33948 190.825 9.48056 190.526 9.48056 190.15C9.48056 189.767 9.33612 189.468 9.04724 189.253C8.75837 189.031 8.37544 188.921 7.89845 188.921C7.42819 188.921 7.04526 189.031 6.74966 189.253C6.46079 189.468 6.31635 189.767 6.31635 190.15C6.31635 190.526 6.45743 190.825 6.73959 191.047C7.02846 191.262 7.41475 191.369 7.89845 191.369ZM12.3446 190.815C12.5797 190.815 12.7645 190.906 12.8988 191.087C13.0332 191.269 13.1004 191.504 13.1004 191.793C13.1004 192.128 13.013 192.451 12.8384 192.76C12.6637 193.069 12.3849 193.314 12.002 193.496L11.5787 193.103C11.8542 193.009 12.0759 192.864 12.2438 192.669C12.4118 192.481 12.5192 192.283 12.5663 192.075L12.526 192.055C12.4991 192.075 12.4655 192.092 12.4252 192.105C12.3849 192.118 12.3244 192.125 12.2438 192.125C12.1229 192.125 11.9986 192.075 11.871 191.974C11.75 191.866 11.6896 191.705 11.6896 191.49C11.6896 191.309 11.7534 191.151 11.881 191.017C12.0087 190.882 12.1632 190.815 12.3446 190.815ZM16.569 192.125C15.8166 192.125 15.2153 191.833 14.7652 191.248C14.3151 190.664 14.09 189.814 14.09 188.699C14.09 187.584 14.3151 186.734 14.7652 186.149C15.2153 185.565 15.8166 185.273 16.569 185.273C17.3281 185.273 17.9294 185.565 18.3728 186.149C18.8229 186.734 19.048 187.584 19.048 188.699C19.048 189.814 18.8229 190.664 18.3728 191.248C17.9294 191.833 17.3281 192.125 16.569 192.125ZM16.569 191.4C17.1064 191.4 17.5129 191.168 17.7883 190.704C18.0705 190.241 18.2116 189.572 18.2116 188.699C18.2116 187.819 18.0705 187.15 17.7883 186.694C17.5129 186.23 17.1064 185.998 16.569 185.998C16.0383 185.998 15.6318 186.23 15.3497 186.694C15.0675 187.15 14.9264 187.819 14.9264 188.699C14.9264 189.572 15.0675 190.241 15.3497 190.704C15.6318 191.168 16.0383 191.4 16.569 191.4ZM22.8377 192.125C22.0852 192.125 21.484 191.833 21.0339 191.248C20.5838 190.664 20.3587 189.814 20.3587 188.699C20.3587 187.584 20.5838 186.734 21.0339 186.149C21.484 185.565 22.0852 185.273 22.8377 185.273C23.5968 185.273 24.1981 185.565 24.6415 186.149C25.0916 186.734 25.3166 187.584 25.3166 188.699C25.3166 189.814 25.0916 190.664 24.6415 191.248C24.1981 191.833 23.5968 192.125 22.8377 192.125ZM22.8377 191.4C23.3751 191.4 23.7816 191.168 24.057 190.704C24.3392 190.241 24.4802 189.572 24.4802 188.699C24.4802 187.819 24.3392 187.15 24.057 186.694C23.7816 186.23 23.3751 185.998 22.8377 185.998C22.3069 185.998 21.9005 186.23 21.6183 186.694C21.3362 187.15 21.1951 187.819 21.1951 188.699C21.1951 189.572 21.3362 190.241 21.6183 190.704C21.9005 191.168 22.3069 191.4 22.8377 191.4ZM29.1063 192.125C28.3539 192.125 27.7526 191.833 27.3025 191.248C26.8524 190.664 26.6274 189.814 26.6274 188.699C26.6274 187.584 26.8524 186.734 27.3025 186.149C27.7526 185.565 28.3539 185.273 29.1063 185.273C29.8655 185.273 30.4667 185.565 30.9101 186.149C31.3602 186.734 31.5853 187.584 31.5853 188.699C31.5853 189.814 31.3602 190.664 30.9101 191.248C30.4667 191.833 29.8655 192.125 29.1063 192.125ZM29.1063 191.4C29.6438 191.4 30.0502 191.168 30.3257 190.704C30.6078 190.241 30.7489 189.572 30.7489 188.699C30.7489 187.819 30.6078 187.15 30.3257 186.694C30.0502 186.23 29.6438 185.998 29.1063 185.998C28.5756 185.998 28.1692 186.23 27.887 186.694C27.6048 187.15 27.4638 187.819 27.4638 188.699C27.4638 189.572 27.6048 190.241 27.887 190.704C28.1692 191.168 28.5756 191.4 29.1063 191.4Z" fill="#999999"/>
<path d="M6.20548 275.382H11.1029V276.138C10.2632 277.018 9.65521 277.941 9.279 278.909C8.9095 279.869 8.72476 280.911 8.72476 282.033H7.89843C7.89843 280.958 8.0899 279.92 8.47283 278.919C8.86248 277.911 9.44695 276.984 10.2262 276.138H6.20548V275.382ZM11.8269 280.823C12.0621 280.823 12.2468 280.914 12.3812 281.095C12.5155 281.277 12.5827 281.512 12.5827 281.801C12.5827 282.137 12.4954 282.459 12.3207 282.768C12.146 283.077 11.8672 283.323 11.4843 283.504L11.0611 283.111C11.3365 283.017 11.5582 282.872 11.7262 282.678C11.8941 282.489 12.0016 282.291 12.0486 282.083L12.0083 282.063C11.9814 282.083 11.9479 282.1 11.9075 282.113C11.8672 282.127 11.8068 282.133 11.7262 282.133C11.6052 282.133 11.4809 282.083 11.3533 281.982C11.2324 281.875 11.1719 281.714 11.1719 281.499C11.1719 281.317 11.2357 281.159 11.3634 281.025C11.491 280.891 11.6455 280.823 11.8269 280.823ZM16.0514 282.133C15.2989 282.133 14.6977 281.841 14.2476 281.257C13.7974 280.672 13.5724 279.822 13.5724 278.707C13.5724 277.592 13.7974 276.742 14.2476 276.158C14.6977 275.573 15.2989 275.281 16.0514 275.281C16.8105 275.281 17.4118 275.573 17.8552 276.158C18.3053 276.742 18.5303 277.592 18.5303 278.707C18.5303 279.822 18.3053 280.672 17.8552 281.257C17.4118 281.841 16.8105 282.133 16.0514 282.133ZM16.0514 281.408C16.5888 281.408 16.9952 281.176 17.2707 280.713C17.5528 280.249 17.6939 279.581 17.6939 278.707C17.6939 277.827 17.5528 277.159 17.2707 276.702C16.9952 276.238 16.5888 276.007 16.0514 276.007C15.5206 276.007 15.1142 276.238 14.832 276.702C14.5499 277.159 14.4088 277.827 14.4088 278.707C14.4088 279.581 14.5499 280.249 14.832 280.713C15.1142 281.176 15.5206 281.408 16.0514 281.408ZM22.32 282.133C21.5676 282.133 20.9663 281.841 20.5162 281.257C20.0661 280.672 19.841 279.822 19.841 278.707C19.841 277.592 20.0661 276.742 20.5162 276.158C20.9663 275.573 21.5676 275.281 22.32 275.281C23.0792 275.281 23.6804 275.573 24.1238 276.158C24.5739 276.742 24.799 277.592 24.799 278.707C24.799 279.822 24.5739 280.672 24.1238 281.257C23.6804 281.841 23.0792 282.133 22.32 282.133ZM22.32 281.408C22.8575 281.408 23.2639 281.176 23.5393 280.713C23.8215 280.249 23.9626 279.581 23.9626 278.707C23.9626 277.827 23.8215 277.159 23.5393 276.702C23.2639 276.238 22.8575 276.007 22.32 276.007C21.7893 276.007 21.3828 276.238 21.1007 276.702C20.8185 277.159 20.6774 277.827 20.6774 278.707C20.6774 279.581 20.8185 280.249 21.1007 280.713C21.3828 281.176 21.7893 281.408 22.32 281.408ZM28.5887 282.133C27.8363 282.133 27.235 281.841 26.7849 281.257C26.3348 280.672 26.1097 279.822 26.1097 278.707C26.1097 277.592 26.3348 276.742 26.7849 276.158C27.235 275.573 27.8363 275.281 28.5887 275.281C29.3478 275.281 29.9491 275.573 30.3925 276.158C30.8426 276.742 31.0676 277.592 31.0676 278.707C31.0676 279.822 30.8426 280.672 30.3925 281.257C29.9491 281.841 29.3478 282.133 28.5887 282.133ZM28.5887 281.408C29.1261 281.408 29.5326 281.176 29.808 280.713C30.0902 280.249 30.2312 279.581 30.2312 278.707C30.2312 277.827 30.0902 277.159 29.808 276.702C29.5326 276.238 29.1261 276.007 28.5887 276.007C28.0579 276.007 27.6515 276.238 27.3693 276.702C27.0872 277.159 26.9461 277.827 26.9461 278.707C26.9461 279.581 27.0872 280.249 27.3693 280.713C27.6515 281.176 28.0579 281.408 28.5887 281.408Z" fill="#999999"/>
</g>
<g opacity="0.7">
<path d="M39.374 305.568V300.69C39.374 300.576 39.374 300.455 39.374 300.328C39.3807 300.193 39.3874 300.056 39.3941 299.914C39.1657 300.136 38.9003 300.331 38.598 300.499C38.2957 300.66 37.9867 300.778 37.6709 300.852L37.4593 300.116C37.5802 300.103 37.7314 300.059 37.9128 299.985C38.1009 299.904 38.2957 299.807 38.4973 299.693C38.7055 299.572 38.897 299.444 39.0716 299.31C39.2463 299.175 39.3807 299.044 39.4747 298.917H40.1801V305.568H39.374ZM44.1268 305.668C43.5356 305.668 43.0116 305.531 42.5548 305.255C42.1047 304.973 41.799 304.587 41.6378 304.096L42.4439 303.683C42.5649 304.053 42.7563 304.352 43.0183 304.58C43.287 304.802 43.6834 304.913 44.2074 304.913C44.6441 304.913 44.98 304.799 45.2151 304.57C45.457 304.335 45.5779 304.036 45.5779 303.673C45.5779 303.31 45.4738 303.042 45.2655 302.867C45.064 302.686 44.7247 302.595 44.2477 302.595C44.0999 302.595 43.9286 302.605 43.7338 302.625V301.819C43.7943 301.826 43.8514 301.829 43.9051 301.829C43.9656 301.829 44.0193 301.829 44.0663 301.829C44.5568 301.829 44.9061 301.735 45.1144 301.547C45.3226 301.352 45.4267 301.05 45.4267 300.64C45.4267 300.291 45.3193 300.025 45.1043 299.844C44.8893 299.663 44.5836 299.572 44.1873 299.572C43.764 299.572 43.4416 299.666 43.2199 299.854C42.9982 300.035 42.8235 300.284 42.6959 300.6L41.93 300.237C42.0912 299.82 42.37 299.478 42.7664 299.209C43.1695 298.94 43.6498 298.806 44.2074 298.806C44.671 298.806 45.0539 298.887 45.3562 299.048C45.6585 299.202 45.8836 299.411 46.0314 299.673C46.1859 299.935 46.2631 300.224 46.2631 300.539C46.2631 301.016 46.1389 301.399 45.8903 301.688C45.6417 301.97 45.3495 302.138 45.0136 302.192V302.212C45.3092 302.219 45.5611 302.293 45.7694 302.434C45.9776 302.568 46.1355 302.746 46.243 302.968C46.3572 303.183 46.4143 303.415 46.4143 303.663C46.4143 304.053 46.3169 304.399 46.1221 304.701C45.934 305.003 45.6686 305.242 45.326 305.417C44.9834 305.585 44.5836 305.668 44.1268 305.668ZM48.5709 300.428C48.7657 300.428 48.9236 300.489 49.0445 300.61C49.1654 300.731 49.2259 300.889 49.2259 301.083C49.2259 301.278 49.1654 301.436 49.0445 301.557C48.9236 301.678 48.7657 301.738 48.5709 301.738C48.3761 301.738 48.2182 301.678 48.0973 301.557C47.9763 301.436 47.9159 301.278 47.9159 301.083C47.9159 300.889 47.9763 300.731 48.0973 300.61C48.2182 300.489 48.3761 300.428 48.5709 300.428ZM48.5709 304.358C48.7657 304.358 48.9236 304.419 49.0445 304.54C49.1654 304.661 49.2259 304.819 49.2259 305.013C49.2259 305.208 49.1654 305.366 49.0445 305.487C48.9236 305.608 48.7657 305.668 48.5709 305.668C48.3761 305.668 48.2182 305.608 48.0973 305.487C47.9763 305.366 47.9159 305.208 47.9159 305.013C47.9159 304.819 47.9763 304.661 48.0973 304.54C48.2182 304.419 48.3761 304.358 48.5709 304.358ZM53.1952 305.668C52.4428 305.668 51.8416 305.376 51.3914 304.792C50.9413 304.207 50.7163 303.357 50.7163 302.242C50.7163 301.127 50.9413 300.277 51.3914 299.693C51.8416 299.108 52.4428 298.816 53.1952 298.816C53.9544 298.816 54.5557 299.108 54.999 299.693C55.4492 300.277 55.6742 301.127 55.6742 302.242C55.6742 303.357 55.4492 304.207 54.999 304.792C54.5557 305.376 53.9544 305.668 53.1952 305.668ZM53.1952 304.943C53.7327 304.943 54.1391 304.711 54.4146 304.248C54.6967 303.784 54.8378 303.116 54.8378 302.242C54.8378 301.362 54.6967 300.694 54.4146 300.237C54.1391 299.773 53.7327 299.542 53.1952 299.542C52.6645 299.542 52.2581 299.773 51.9759 300.237C51.6938 300.694 51.5527 301.362 51.5527 302.242C51.5527 303.116 51.6938 303.784 51.9759 304.248C52.2581 304.711 52.6645 304.943 53.1952 304.943ZM59.4639 305.668C58.7115 305.668 58.1102 305.376 57.6601 304.792C57.21 304.207 56.9849 303.357 56.9849 302.242C56.9849 301.127 57.21 300.277 57.6601 299.693C58.1102 299.108 58.7115 298.816 59.4639 298.816C60.223 298.816 60.8243 299.108 61.2677 299.693C61.7178 300.277 61.9429 301.127 61.9429 302.242C61.9429 303.357 61.7178 304.207 61.2677 304.792C60.8243 305.376 60.223 305.668 59.4639 305.668ZM59.4639 304.943C60.0013 304.943 60.4078 304.711 60.6832 304.248C60.9654 303.784 61.1065 303.116 61.1065 302.242C61.1065 301.362 60.9654 300.694 60.6832 300.237C60.4078 299.773 60.0013 299.542 59.4639 299.542C58.9332 299.542 58.5267 299.773 58.2446 300.237C57.9624 300.694 57.8213 301.362 57.8213 302.242C57.8213 303.116 57.9624 303.784 58.2446 304.248C58.5267 304.711 58.9332 304.943 59.4639 304.943Z" fill="#999999"/>
<path d="M121.467 305.568V300.69C121.467 300.576 121.467 300.455 121.467 300.328C121.474 300.193 121.481 300.056 121.487 299.914C121.259 300.136 120.994 300.331 120.691 300.499C120.389 300.66 120.08 300.778 119.764 300.852L119.553 300.116C119.673 300.103 119.825 300.059 120.006 299.985C120.194 299.904 120.389 299.807 120.59 299.693C120.799 299.572 120.99 299.444 121.165 299.31C121.34 299.175 121.474 299.044 121.568 298.917H122.273V305.568H121.467ZM126.22 305.668C125.629 305.668 125.105 305.531 124.648 305.255C124.198 304.973 123.892 304.587 123.731 304.096L124.537 303.683C124.658 304.053 124.85 304.352 125.112 304.58C125.38 304.802 125.777 304.913 126.301 304.913C126.737 304.913 127.073 304.799 127.308 304.57C127.55 304.335 127.671 304.036 127.671 303.673C127.671 303.31 127.567 303.042 127.359 302.867C127.157 302.686 126.818 302.595 126.341 302.595C126.193 302.595 126.022 302.605 125.827 302.625V301.819C125.887 301.826 125.945 301.829 125.998 301.829C126.059 301.829 126.113 301.829 126.16 301.829C126.65 301.829 126.999 301.735 127.208 301.547C127.416 301.352 127.52 301.05 127.52 300.64C127.52 300.291 127.412 300.025 127.197 299.844C126.983 299.663 126.677 299.572 126.28 299.572C125.857 299.572 125.535 299.666 125.313 299.854C125.091 300.035 124.917 300.284 124.789 300.6L124.023 300.237C124.184 299.82 124.463 299.478 124.86 299.209C125.263 298.94 125.743 298.806 126.301 298.806C126.764 298.806 127.147 298.887 127.449 299.048C127.752 299.202 127.977 299.411 128.125 299.673C128.279 299.935 128.356 300.224 128.356 300.539C128.356 301.016 128.232 301.399 127.983 301.688C127.735 301.97 127.443 302.138 127.107 302.192V302.212C127.402 302.219 127.654 302.293 127.863 302.434C128.071 302.568 128.229 302.746 128.336 302.968C128.45 303.183 128.508 303.415 128.508 303.663C128.508 304.053 128.41 304.399 128.215 304.701C128.027 305.003 127.762 305.242 127.419 305.417C127.077 305.585 126.677 305.668 126.22 305.668ZM130.664 300.428C130.859 300.428 131.017 300.489 131.138 300.61C131.259 300.731 131.319 300.889 131.319 301.083C131.319 301.278 131.259 301.436 131.138 301.557C131.017 301.678 130.859 301.738 130.664 301.738C130.469 301.738 130.311 301.678 130.19 301.557C130.07 301.436 130.009 301.278 130.009 301.083C130.009 300.889 130.07 300.731 130.19 300.61C130.311 300.489 130.469 300.428 130.664 300.428ZM130.664 304.358C130.859 304.358 131.017 304.419 131.138 304.54C131.259 304.661 131.319 304.819 131.319 305.013C131.319 305.208 131.259 305.366 131.138 305.487C131.017 305.608 130.859 305.668 130.664 305.668C130.469 305.668 130.311 305.608 130.19 305.487C130.07 305.366 130.009 305.208 130.009 305.013C130.009 304.819 130.07 304.661 130.19 304.54C130.311 304.419 130.469 304.358 130.664 304.358ZM135.077 305.668C134.486 305.668 133.962 305.531 133.505 305.255C133.055 304.973 132.749 304.587 132.588 304.096L133.394 303.683C133.515 304.053 133.706 304.352 133.968 304.58C134.237 304.802 134.633 304.913 135.157 304.913C135.594 304.913 135.93 304.799 136.165 304.57C136.407 304.335 136.528 304.036 136.528 303.673C136.528 303.31 136.424 303.042 136.216 302.867C136.014 302.686 135.675 302.595 135.198 302.595C135.05 302.595 134.879 302.605 134.684 302.625V301.819C134.744 301.826 134.801 301.829 134.855 301.829C134.916 301.829 134.969 301.829 135.016 301.829C135.507 301.829 135.856 301.735 136.064 301.547C136.273 301.352 136.377 301.05 136.377 300.64C136.377 300.291 136.269 300.025 136.054 299.844C135.839 299.663 135.534 299.572 135.137 299.572C134.714 299.572 134.392 299.666 134.17 299.854C133.948 300.035 133.774 300.284 133.646 300.6L132.88 300.237C133.041 299.82 133.32 299.478 133.716 299.209C134.119 298.94 134.6 298.806 135.157 298.806C135.621 298.806 136.004 298.887 136.306 299.048C136.609 299.202 136.834 299.411 136.981 299.673C137.136 299.935 137.213 300.224 137.213 300.539C137.213 301.016 137.089 301.399 136.84 301.688C136.592 301.97 136.3 302.138 135.964 302.192V302.212C136.259 302.219 136.511 302.293 136.719 302.434C136.928 302.568 137.086 302.746 137.193 302.968C137.307 303.183 137.364 303.415 137.364 303.663C137.364 304.053 137.267 304.399 137.072 304.701C136.884 305.003 136.619 305.242 136.276 305.417C135.933 305.585 135.534 305.668 135.077 305.668ZM141.163 305.668C140.411 305.668 139.81 305.376 139.36 304.792C138.91 304.207 138.684 303.357 138.684 302.242C138.684 301.127 138.91 300.277 139.36 299.693C139.81 299.108 140.411 298.816 141.163 298.816C141.923 298.816 142.524 299.108 142.967 299.693C143.417 300.277 143.642 301.127 143.642 302.242C143.642 303.357 143.417 304.207 142.967 304.792C142.524 305.376 141.923 305.668 141.163 305.668ZM141.163 304.943C141.701 304.943 142.107 304.711 142.383 304.248C142.665 303.784 142.806 303.116 142.806 302.242C142.806 301.362 142.665 300.694 142.383 300.237C142.107 299.773 141.701 299.542 141.163 299.542C140.633 299.542 140.226 299.773 139.944 300.237C139.662 300.694 139.521 301.362 139.521 302.242C139.521 303.116 139.662 303.784 139.944 304.248C140.226 304.711 140.633 304.943 141.163 304.943Z" fill="#999999"/>
<path d="M195.53 305.568V300.69C195.53 300.576 195.53 300.455 195.53 300.328C195.537 300.193 195.544 300.056 195.55 299.914C195.322 300.136 195.057 300.331 194.754 300.499C194.452 300.66 194.143 300.778 193.827 300.852L193.616 300.116C193.736 300.103 193.888 300.059 194.069 299.985C194.257 299.904 194.452 299.807 194.653 299.693C194.862 299.572 195.053 299.444 195.228 299.31C195.403 299.175 195.537 299.044 195.631 298.917H196.336V305.568H195.53ZM201.049 305.568V303.824H197.804V303.23L200.837 298.917H201.855V303.129H203.034V303.824H201.855V305.568H201.049ZM198.661 303.129H201.049V300.64C201.049 300.465 201.052 300.287 201.059 300.106C201.072 299.925 201.082 299.747 201.089 299.572H201.069C200.988 299.74 200.884 299.928 200.757 300.136C200.629 300.344 200.511 300.526 200.404 300.68L198.661 303.129ZM205.012 300.428C205.207 300.428 205.365 300.489 205.486 300.61C205.607 300.731 205.668 300.889 205.668 301.083C205.668 301.278 205.607 301.436 205.486 301.557C205.365 301.678 205.207 301.738 205.012 301.738C204.818 301.738 204.66 301.678 204.539 301.557C204.418 301.436 204.357 301.278 204.357 301.083C204.357 300.889 204.418 300.731 204.539 300.61C204.66 300.489 204.818 300.428 205.012 300.428ZM205.012 304.358C205.207 304.358 205.365 304.419 205.486 304.54C205.607 304.661 205.668 304.819 205.668 305.013C205.668 305.208 205.607 305.366 205.486 305.487C205.365 305.608 205.207 305.668 205.012 305.668C204.818 305.668 204.66 305.608 204.539 305.487C204.418 305.366 204.357 305.208 204.357 305.013C204.357 304.819 204.418 304.661 204.539 304.54C204.66 304.419 204.818 304.358 205.012 304.358ZM209.637 305.668C208.884 305.668 208.283 305.376 207.833 304.792C207.383 304.207 207.158 303.357 207.158 302.242C207.158 301.127 207.383 300.277 207.833 299.693C208.283 299.108 208.884 298.816 209.637 298.816C210.396 298.816 210.997 299.108 211.441 299.693C211.891 300.277 212.116 301.127 212.116 302.242C212.116 303.357 211.891 304.207 211.441 304.792C210.997 305.376 210.396 305.668 209.637 305.668ZM209.637 304.943C210.174 304.943 210.581 304.711 210.856 304.248C211.138 303.784 211.279 303.116 211.279 302.242C211.279 301.362 211.138 300.694 210.856 300.237C210.581 299.773 210.174 299.542 209.637 299.542C209.106 299.542 208.7 299.773 208.418 300.237C208.135 300.694 207.994 301.362 207.994 302.242C207.994 303.116 208.135 303.784 208.418 304.248C208.7 304.711 209.106 304.943 209.637 304.943ZM215.906 305.668C215.153 305.668 214.552 305.376 214.102 304.792C213.652 304.207 213.427 303.357 213.427 302.242C213.427 301.127 213.652 300.277 214.102 299.693C214.552 299.108 215.153 298.816 215.906 298.816C216.665 298.816 217.266 299.108 217.709 299.693C218.159 300.277 218.384 301.127 218.384 302.242C218.384 303.357 218.159 304.207 217.709 304.792C217.266 305.376 216.665 305.668 215.906 305.668ZM215.906 304.943C216.443 304.943 216.849 304.711 217.125 304.248C217.407 303.784 217.548 303.116 217.548 302.242C217.548 301.362 217.407 300.694 217.125 300.237C216.849 299.773 216.443 299.542 215.906 299.542C215.375 299.542 214.968 299.773 214.686 300.237C214.404 300.694 214.263 301.362 214.263 302.242C214.263 303.116 214.404 303.784 214.686 304.248C214.968 304.711 215.375 304.943 215.906 304.943Z" fill="#999999"/>
<path d="M270.13 305.568V300.69C270.13 300.576 270.13 300.455 270.13 300.328C270.136 300.193 270.143 300.056 270.15 299.914C269.921 300.136 269.656 300.331 269.354 300.499C269.051 300.66 268.742 300.778 268.427 300.852L268.215 300.116C268.336 300.103 268.487 300.059 268.668 299.985C268.856 299.904 269.051 299.807 269.253 299.693C269.461 299.572 269.653 299.444 269.827 299.31C270.002 299.175 270.136 299.044 270.23 298.917H270.936V305.568H270.13ZM275.648 305.568V303.824H272.403V303.23L275.437 298.917H276.454V303.129H277.633V303.824H276.454V305.568H275.648ZM273.26 303.129H275.648V300.64C275.648 300.465 275.652 300.287 275.658 300.106C275.672 299.925 275.682 299.747 275.689 299.572H275.668C275.588 299.74 275.484 299.928 275.356 300.136C275.228 300.344 275.111 300.526 275.003 300.68L273.26 303.129ZM279.612 300.428C279.807 300.428 279.965 300.489 280.085 300.61C280.206 300.731 280.267 300.889 280.267 301.083C280.267 301.278 280.206 301.436 280.085 301.557C279.965 301.678 279.807 301.738 279.612 301.738C279.417 301.738 279.259 301.678 279.138 301.557C279.017 301.436 278.957 301.278 278.957 301.083C278.957 300.889 279.017 300.731 279.138 300.61C279.259 300.489 279.417 300.428 279.612 300.428ZM279.612 304.358C279.807 304.358 279.965 304.419 280.085 304.54C280.206 304.661 280.267 304.819 280.267 305.013C280.267 305.208 280.206 305.366 280.085 305.487C279.965 305.608 279.807 305.668 279.612 305.668C279.417 305.668 279.259 305.608 279.138 305.487C279.017 305.366 278.957 305.208 278.957 305.013C278.957 304.819 279.017 304.661 279.138 304.54C279.259 304.419 279.417 304.358 279.612 304.358ZM284.025 305.668C283.433 305.668 282.909 305.531 282.453 305.255C282.002 304.973 281.697 304.587 281.536 304.096L282.342 303.683C282.463 304.053 282.654 304.352 282.916 304.58C283.185 304.802 283.581 304.913 284.105 304.913C284.542 304.913 284.878 304.799 285.113 304.57C285.355 304.335 285.476 304.036 285.476 303.673C285.476 303.31 285.372 303.042 285.163 302.867C284.962 302.686 284.623 302.595 284.146 302.595C283.998 302.595 283.826 302.605 283.632 302.625V301.819C283.692 301.826 283.749 301.829 283.803 301.829C283.863 301.829 283.917 301.829 283.964 301.829C284.455 301.829 284.804 301.735 285.012 301.547C285.22 301.352 285.325 301.05 285.325 300.64C285.325 300.291 285.217 300.025 285.002 299.844C284.787 299.663 284.481 299.572 284.085 299.572C283.662 299.572 283.339 299.666 283.118 299.854C282.896 300.035 282.721 300.284 282.594 300.6L281.828 300.237C281.989 299.82 282.268 299.478 282.664 299.209C283.067 298.94 283.548 298.806 284.105 298.806C284.569 298.806 284.952 298.887 285.254 299.048C285.556 299.202 285.781 299.411 285.929 299.673C286.084 299.935 286.161 300.224 286.161 300.539C286.161 301.016 286.037 301.399 285.788 301.688C285.54 301.97 285.247 302.138 284.911 302.192V302.212C285.207 302.219 285.459 302.293 285.667 302.434C285.875 302.568 286.033 302.746 286.141 302.968C286.255 303.183 286.312 303.415 286.312 303.663C286.312 304.053 286.215 304.399 286.02 304.701C285.832 305.003 285.566 305.242 285.224 305.417C284.881 305.585 284.481 305.668 284.025 305.668ZM290.111 305.668C289.359 305.668 288.758 305.376 288.307 304.792C287.857 304.207 287.632 303.357 287.632 302.242C287.632 301.127 287.857 300.277 288.307 299.693C288.758 299.108 289.359 298.816 290.111 298.816C290.87 298.816 291.472 299.108 291.915 299.693C292.365 300.277 292.59 301.127 292.59 302.242C292.59 303.357 292.365 304.207 291.915 304.792C291.472 305.376 290.87 305.668 290.111 305.668ZM290.111 304.943C290.649 304.943 291.055 304.711 291.331 304.248C291.613 303.784 291.754 303.116 291.754 302.242C291.754 301.362 291.613 300.694 291.331 300.237C291.055 299.773 290.649 299.542 290.111 299.542C289.581 299.542 289.174 299.773 288.892 300.237C288.61 300.694 288.469 301.362 288.469 302.242C288.469 303.116 288.61 303.784 288.892 304.248C289.174 304.711 289.581 304.943 290.111 304.943Z" fill="#999999"/>
<path d="M344.483 305.568V300.69C344.483 300.576 344.483 300.455 344.483 300.328C344.49 300.193 344.496 300.056 344.503 299.914C344.275 300.136 344.009 300.331 343.707 300.499C343.405 300.66 343.096 300.778 342.78 300.852L342.568 300.116C342.689 300.103 342.84 300.059 343.022 299.985C343.21 299.904 343.405 299.807 343.606 299.693C343.814 299.572 344.006 299.444 344.181 299.31C344.355 299.175 344.49 299.044 344.584 298.917H345.289V305.568H344.483ZM349.205 305.668C348.614 305.668 348.137 305.534 347.775 305.265C347.418 304.997 347.143 304.624 346.948 304.147L347.734 303.734C347.842 304.083 348.006 304.369 348.228 304.59C348.456 304.805 348.789 304.913 349.226 304.913C349.682 304.913 350.042 304.788 350.304 304.54C350.573 304.285 350.707 303.935 350.707 303.492C350.707 303.022 350.583 302.666 350.334 302.424C350.092 302.182 349.746 302.061 349.296 302.061C348.974 302.061 348.685 302.111 348.43 302.212C348.174 302.313 347.969 302.477 347.815 302.706L347.109 302.575L347.502 298.917H351.241V299.673H348.188L347.926 301.769L347.906 301.859H347.926C348.087 301.691 348.292 301.557 348.54 301.456C348.796 301.355 349.098 301.305 349.447 301.305C349.871 301.305 350.237 301.396 350.546 301.577C350.861 301.752 351.107 302 351.281 302.323C351.456 302.645 351.543 303.022 351.543 303.452C351.543 303.908 351.443 304.305 351.241 304.641C351.046 304.97 350.774 305.225 350.425 305.406C350.075 305.581 349.669 305.668 349.205 305.668ZM353.67 300.428C353.865 300.428 354.023 300.489 354.144 300.61C354.264 300.731 354.325 300.889 354.325 301.083C354.325 301.278 354.264 301.436 354.144 301.557C354.023 301.678 353.865 301.738 353.67 301.738C353.475 301.738 353.317 301.678 353.196 301.557C353.075 301.436 353.015 301.278 353.015 301.083C353.015 300.889 353.075 300.731 353.196 300.61C353.317 300.489 353.475 300.428 353.67 300.428ZM353.67 304.358C353.865 304.358 354.023 304.419 354.144 304.54C354.264 304.661 354.325 304.819 354.325 305.013C354.325 305.208 354.264 305.366 354.144 305.487C354.023 305.608 353.865 305.668 353.67 305.668C353.475 305.668 353.317 305.608 353.196 305.487C353.075 305.366 353.015 305.208 353.015 305.013C353.015 304.819 353.075 304.661 353.196 304.54C353.317 304.419 353.475 304.358 353.67 304.358ZM358.294 305.668C357.542 305.668 356.941 305.376 356.491 304.792C356.04 304.207 355.815 303.357 355.815 302.242C355.815 301.127 356.04 300.277 356.491 299.693C356.941 299.108 357.542 298.816 358.294 298.816C359.053 298.816 359.655 299.108 360.098 299.693C360.548 300.277 360.773 301.127 360.773 302.242C360.773 303.357 360.548 304.207 360.098 304.792C359.655 305.376 359.053 305.668 358.294 305.668ZM358.294 304.943C358.832 304.943 359.238 304.711 359.514 304.248C359.796 303.784 359.937 303.116 359.937 302.242C359.937 301.362 359.796 300.694 359.514 300.237C359.238 299.773 358.832 299.542 358.294 299.542C357.764 299.542 357.357 299.773 357.075 300.237C356.793 300.694 356.652 301.362 356.652 302.242C356.652 303.116 356.793 303.784 357.075 304.248C357.357 304.711 357.764 304.943 358.294 304.943ZM364.563 305.668C363.811 305.668 363.209 305.376 362.759 304.792C362.309 304.207 362.084 303.357 362.084 302.242C362.084 301.127 362.309 300.277 362.759 299.693C363.209 299.108 363.811 298.816 364.563 298.816C365.322 298.816 365.923 299.108 366.367 299.693C366.817 300.277 367.042 301.127 367.042 302.242C367.042 303.357 366.817 304.207 366.367 304.792C365.923 305.376 365.322 305.668 364.563 305.668ZM364.563 304.943C365.1 304.943 365.507 304.711 365.782 304.248C366.064 303.784 366.206 303.116 366.206 302.242C366.206 301.362 366.064 300.694 365.782 300.237C365.507 299.773 365.1 299.542 364.563 299.542C364.032 299.542 363.626 299.773 363.344 300.237C363.061 300.694 362.92 301.362 362.92 302.242C362.92 303.116 363.061 303.784 363.344 304.248C363.626 304.711 364.032 304.943 364.563 304.943Z" fill="#999999"/>
<path d="M419.082 305.568V300.69C419.082 300.576 419.082 300.455 419.082 300.328C419.089 300.193 419.096 300.056 419.102 299.914C418.874 300.136 418.609 300.331 418.306 300.499C418.004 300.66 417.695 300.778 417.379 300.852L417.168 300.116C417.288 300.103 417.44 300.059 417.621 299.985C417.809 299.904 418.004 299.807 418.206 299.693C418.414 299.572 418.605 299.444 418.78 299.31C418.955 299.175 419.089 299.044 419.183 298.917H419.888V305.568H419.082ZM423.805 305.668C423.214 305.668 422.737 305.534 422.374 305.265C422.018 304.997 421.742 304.624 421.548 304.147L422.334 303.734C422.441 304.083 422.606 304.369 422.827 304.59C423.056 304.805 423.388 304.913 423.825 304.913C424.282 304.913 424.641 304.788 424.903 304.54C425.172 304.285 425.306 303.935 425.306 303.492C425.306 303.022 425.182 302.666 424.933 302.424C424.692 302.182 424.346 302.061 423.896 302.061C423.573 302.061 423.284 302.111 423.029 302.212C422.774 302.313 422.569 302.477 422.414 302.706L421.709 302.575L422.102 298.917H425.84V299.673H422.787L422.525 301.769L422.505 301.859H422.525C422.686 301.691 422.891 301.557 423.14 301.456C423.395 301.355 423.697 301.305 424.047 301.305C424.47 301.305 424.836 301.396 425.145 301.577C425.461 301.752 425.706 302 425.881 302.323C426.055 302.645 426.143 303.022 426.143 303.452C426.143 303.908 426.042 304.305 425.84 304.641C425.646 304.97 425.373 305.225 425.024 305.406C424.675 305.581 424.268 305.668 423.805 305.668ZM428.269 300.428C428.464 300.428 428.622 300.489 428.743 300.61C428.864 300.731 428.924 300.889 428.924 301.083C428.924 301.278 428.864 301.436 428.743 301.557C428.622 301.678 428.464 301.738 428.269 301.738C428.074 301.738 427.917 301.678 427.796 301.557C427.675 301.436 427.614 301.278 427.614 301.083C427.614 300.889 427.675 300.731 427.796 300.61C427.917 300.489 428.074 300.428 428.269 300.428ZM428.269 304.358C428.464 304.358 428.622 304.419 428.743 304.54C428.864 304.661 428.924 304.819 428.924 305.013C428.924 305.208 428.864 305.366 428.743 305.487C428.622 305.608 428.464 305.668 428.269 305.668C428.074 305.668 427.917 305.608 427.796 305.487C427.675 305.366 427.614 305.208 427.614 305.013C427.614 304.819 427.675 304.661 427.796 304.54C427.917 304.419 428.074 304.358 428.269 304.358ZM432.682 305.668C432.091 305.668 431.567 305.531 431.11 305.255C430.66 304.973 430.354 304.587 430.193 304.096L430.999 303.683C431.12 304.053 431.312 304.352 431.574 304.58C431.842 304.802 432.239 304.913 432.763 304.913C433.199 304.913 433.535 304.799 433.77 304.57C434.012 304.335 434.133 304.036 434.133 303.673C434.133 303.31 434.029 303.042 433.821 302.867C433.619 302.686 433.28 302.595 432.803 302.595C432.655 302.595 432.484 302.605 432.289 302.625V301.819C432.349 301.826 432.407 301.829 432.46 301.829C432.521 301.829 432.575 301.829 432.622 301.829C433.112 301.829 433.461 301.735 433.67 301.547C433.878 301.352 433.982 301.05 433.982 300.64C433.982 300.291 433.874 300.025 433.66 299.844C433.445 299.663 433.139 299.572 432.743 299.572C432.319 299.572 431.997 299.666 431.775 299.854C431.553 300.035 431.379 300.284 431.251 300.6L430.485 300.237C430.646 299.82 430.925 299.478 431.322 299.209C431.725 298.94 432.205 298.806 432.763 298.806C433.226 298.806 433.609 298.887 433.911 299.048C434.214 299.202 434.439 299.411 434.587 299.673C434.741 299.935 434.818 300.224 434.818 300.539C434.818 301.016 434.694 301.399 434.446 301.688C434.197 301.97 433.905 302.138 433.569 302.192V302.212C433.864 302.219 434.116 302.293 434.325 302.434C434.533 302.568 434.691 302.746 434.798 302.968C434.912 303.183 434.97 303.415 434.97 303.663C434.97 304.053 434.872 304.399 434.677 304.701C434.489 305.003 434.224 305.242 433.881 305.417C433.539 305.585 433.139 305.668 432.682 305.668ZM438.769 305.668C438.016 305.668 437.415 305.376 436.965 304.792C436.515 304.207 436.29 303.357 436.29 302.242C436.29 301.127 436.515 300.277 436.965 299.693C437.415 299.108 438.016 298.816 438.769 298.816C439.528 298.816 440.129 299.108 440.572 299.693C441.023 300.277 441.248 301.127 441.248 302.242C441.248 303.357 441.023 304.207 440.572 304.792C440.129 305.376 439.528 305.668 438.769 305.668ZM438.769 304.943C439.306 304.943 439.713 304.711 439.988 304.248C440.27 303.784 440.411 303.116 440.411 302.242C440.411 301.362 440.27 300.694 439.988 300.237C439.713 299.773 439.306 299.542 438.769 299.542C438.238 299.542 437.832 299.773 437.549 300.237C437.267 300.694 437.126 301.362 437.126 302.242C437.126 303.116 437.267 303.784 437.549 304.248C437.832 304.711 438.238 304.943 438.769 304.943Z" fill="#999999"/>
<path d="M500.521 305.568V300.69C500.521 300.576 500.521 300.455 500.521 300.328C500.528 300.193 500.534 300.056 500.541 299.914C500.313 300.136 500.047 300.331 499.745 300.499C499.443 300.66 499.134 300.778 498.818 300.852L498.606 300.116C498.727 300.103 498.878 300.059 499.06 299.985C499.248 299.904 499.443 299.807 499.644 299.693C499.853 299.572 500.044 299.444 500.219 299.31C500.393 299.175 500.528 299.044 500.622 298.917H501.327V305.568H500.521ZM505.606 298.816C506.137 298.816 506.57 298.927 506.906 299.149C507.242 299.364 507.514 299.72 507.723 300.217L506.977 300.569C506.876 300.26 506.712 300.019 506.483 299.844C506.261 299.663 505.952 299.572 505.556 299.572C505.173 299.572 504.847 299.699 504.579 299.955C504.31 300.203 504.105 300.539 503.964 300.962C503.829 301.386 503.762 301.863 503.762 302.393V302.575H503.803C503.876 302.286 504.011 302.054 504.206 301.88C504.407 301.698 504.632 301.567 504.881 301.486C505.136 301.399 505.385 301.355 505.627 301.355C506.077 301.355 506.47 301.443 506.806 301.617C507.141 301.792 507.4 302.041 507.581 302.363C507.77 302.686 507.864 303.069 507.864 303.512C507.864 304.17 507.655 304.694 507.239 305.084C506.829 305.474 506.275 305.668 505.576 305.668C505.019 305.668 504.548 305.521 504.165 305.225C503.782 304.93 503.494 304.526 503.299 304.016C503.104 303.499 503.006 302.907 503.006 302.242C503.006 301.497 503.121 300.872 503.349 300.368C503.578 299.857 503.887 299.471 504.276 299.209C504.673 298.947 505.116 298.816 505.606 298.816ZM505.566 302.131C505.136 302.131 504.787 302.259 504.518 302.514C504.249 302.77 504.115 303.099 504.115 303.502C504.115 303.757 504.179 303.992 504.306 304.207C504.434 304.416 504.605 304.584 504.82 304.711C505.042 304.832 505.291 304.893 505.566 304.893C506.023 304.893 506.379 304.772 506.634 304.53C506.89 304.281 507.017 303.939 507.017 303.502C507.017 303.079 506.89 302.746 506.634 302.504C506.379 302.256 506.023 302.131 505.566 302.131ZM509.974 300.428C510.169 300.428 510.326 300.489 510.447 300.61C510.568 300.731 510.629 300.889 510.629 301.083C510.629 301.278 510.568 301.436 510.447 301.557C510.326 301.678 510.169 301.738 509.974 301.738C509.779 301.738 509.621 301.678 509.5 301.557C509.379 301.436 509.319 301.278 509.319 301.083C509.319 300.889 509.379 300.731 509.5 300.61C509.621 300.489 509.779 300.428 509.974 300.428ZM509.974 304.358C510.169 304.358 510.326 304.419 510.447 304.54C510.568 304.661 510.629 304.819 510.629 305.013C510.629 305.208 510.568 305.366 510.447 305.487C510.326 305.608 510.169 305.668 509.974 305.668C509.779 305.668 509.621 305.608 509.5 305.487C509.379 305.366 509.319 305.208 509.319 305.013C509.319 304.819 509.379 304.661 509.5 304.54C509.621 304.419 509.779 304.358 509.974 304.358ZM514.598 305.668C513.846 305.668 513.244 305.376 512.794 304.792C512.344 304.207 512.119 303.357 512.119 302.242C512.119 301.127 512.344 300.277 512.794 299.693C513.244 299.108 513.846 298.816 514.598 298.816C515.357 298.816 515.959 299.108 516.402 299.693C516.852 300.277 517.077 301.127 517.077 302.242C517.077 303.357 516.852 304.207 516.402 304.792C515.959 305.376 515.357 305.668 514.598 305.668ZM514.598 304.943C515.136 304.943 515.542 304.711 515.817 304.248C516.1 303.784 516.241 303.116 516.241 302.242C516.241 301.362 516.1 300.694 515.817 300.237C515.542 299.773 515.136 299.542 514.598 299.542C514.067 299.542 513.661 299.773 513.379 300.237C513.097 300.694 512.956 301.362 512.956 302.242C512.956 303.116 513.097 303.784 513.379 304.248C513.661 304.711 514.067 304.943 514.598 304.943ZM520.867 305.668C520.114 305.668 519.513 305.376 519.063 304.792C518.613 304.207 518.388 303.357 518.388 302.242C518.388 301.127 518.613 300.277 519.063 299.693C519.513 299.108 520.114 298.816 520.867 298.816C521.626 298.816 522.227 299.108 522.671 299.693C523.121 300.277 523.346 301.127 523.346 302.242C523.346 303.357 523.121 304.207 522.671 304.792C522.227 305.376 521.626 305.668 520.867 305.668ZM520.867 304.943C521.404 304.943 521.811 304.711 522.086 304.248C522.368 303.784 522.509 303.116 522.509 302.242C522.509 301.362 522.368 300.694 522.086 300.237C521.811 299.773 521.404 299.542 520.867 299.542C520.336 299.542 519.93 299.773 519.647 300.237C519.365 300.694 519.224 301.362 519.224 302.242C519.224 303.116 519.365 303.784 519.647 304.248C519.93 304.711 520.336 304.943 520.867 304.943Z" fill="#999999"/>
</g>
<line x1="410.641" y1="99.1614" x2="410.641" y2="278.041" stroke="#4F46E5" stroke-width="0.71385" stroke-dasharray="3.14 3.14"/>
<g filter="url(#filter0_dd)">
<rect x="403.479" y="90.4119" width="13.6563" height="13.6563" rx="6.82813" fill="#4F46E5"/>
<rect x="404.906" y="91.8396" width="10.8009" height="10.8009" rx="5.40043" stroke="white" stroke-width="2.8554"/>
</g>
<g filter="url(#filter1_dd)">
<path fill-rule="evenodd" clip-rule="evenodd" d="M412.54 80.111C411.186 81.8592 408.99 81.8592 407.636 80.111L404.634 76.4263C404.01 75.6592 403.697 75.2756 403.312 74.9997C402.97 74.7552 402.587 74.5735 402.182 74.463C401.725 74.3382 401.23 74.3382 400.241 74.3382H365.622C360.885 74.3382 359.168 73.8451 357.436 72.919C355.704 71.9929 354.345 70.6339 353.419 68.9023C352.493 67.1707 352 65.4531 352 60.7165V25.6217C352 20.8851 352.493 19.1676 353.419 17.4359C354.345 15.7043 355.704 14.3453 357.436 13.4193C359.168 12.4932 360.885 12 365.622 12H455.262C459.999 12 461.717 12.4932 463.448 13.4193C465.18 14.3453 466.539 15.7043 467.465 17.4359C468.391 19.1676 468.884 20.8851 468.884 25.6217V60.7165C468.884 65.4531 468.391 67.1707 467.465 68.9023C466.539 70.6339 465.18 71.9929 463.448 72.919C461.717 73.8451 459.999 74.3382 455.262 74.3382H422.628C420.65 74.3382 419.66 74.3382 418.745 74.5877C417.935 74.8087 417.17 75.1722 416.486 75.6611C415.715 76.213 415.09 76.9802 413.841 78.5144L412.54 80.111Z" fill="#38393E"/>
<path fill-rule="evenodd" clip-rule="evenodd" d="M412.54 80.111C411.186 81.8592 408.99 81.8592 407.636 80.111L404.634 76.4263C404.01 75.6592 403.697 75.2756 403.312 74.9997C402.97 74.7552 402.587 74.5735 402.182 74.463C401.725 74.3382 401.23 74.3382 400.241 74.3382H365.622C360.885 74.3382 359.168 73.8451 357.436 72.919C355.704 71.9929 354.345 70.6339 353.419 68.9023C352.493 67.1707 352 65.4531 352 60.7165V25.6217C352 20.8851 352.493 19.1676 353.419 17.4359C354.345 15.7043 355.704 14.3453 357.436 13.4193C359.168 12.4932 360.885 12 365.622 12H455.262C459.999 12 461.717 12.4932 463.448 13.4193C465.18 14.3453 466.539 15.7043 467.465 17.4359C468.391 19.1676 468.884 20.8851 468.884 25.6217V60.7165C468.884 65.4531 468.391 67.1707 467.465 68.9023C466.539 70.6339 465.18 71.9929 463.448 72.919C461.717 73.8451 459.999 74.3382 455.262 74.3382H422.628C420.65 74.3382 419.66 74.3382 418.745 74.5877C417.935 74.8087 417.17 75.1722 416.486 75.6611C415.715 76.213 415.09 76.9802 413.841 78.5144L412.54 80.111Z" fill="#1F2025"/>
<path fill-rule="evenodd" clip-rule="evenodd" d="M412.54 80.111C411.186 81.8592 408.99 81.8592 407.636 80.111L404.634 76.4263C404.01 75.6592 403.697 75.2756 403.312 74.9997C402.97 74.7552 402.587 74.5735 402.182 74.463C401.725 74.3382 401.23 74.3382 400.241 74.3382H365.622C360.885 74.3382 359.168 73.8451 357.436 72.919C355.704 71.9929 354.345 70.6339 353.419 68.9023C352.493 67.1707 352 65.4531 352 60.7165V25.6217C352 20.8851 352.493 19.1676 353.419 17.4359C354.345 15.7043 355.704 14.3453 357.436 13.4193C359.168 12.4932 360.885 12 365.622 12H455.262C459.999 12 461.717 12.4932 463.448 13.4193C465.18 14.3453 466.539 15.7043 467.465 17.4359C468.391 19.1676 468.884 20.8851 468.884 25.6217V60.7165C468.884 65.4531 468.391 67.1707 467.465 68.9023C466.539 70.6339 465.18 71.9929 463.448 72.919C461.717 73.8451 459.999 74.3382 455.262 74.3382H422.628C420.65 74.3382 419.66 74.3382 418.745 74.5877C417.935 74.8087 417.17 75.1722 416.486 75.6611C415.715 76.213 415.09 76.9802 413.841 78.5144L412.54 80.111Z" stroke="url(#paint1_linear)" stroke-opacity="0.08"/>
</g>
<path opacity="0.6" d="M380.941 35.747V31.217C380.941 31.0903 380.941 30.9537 380.941 30.807C380.948 30.6603 380.954 30.507 380.961 30.347C380.734 30.567 380.474 30.757 380.181 30.917C379.888 31.0703 379.591 31.1803 379.291 31.247L379.091 30.317C379.224 30.297 379.384 30.2503 379.571 30.177C379.764 30.1037 379.961 30.0103 380.161 29.897C380.361 29.7837 380.544 29.6637 380.711 29.537C380.878 29.4037 381.008 29.2737 381.101 29.147H382.001V35.747H380.941ZM386.075 35.847C385.281 35.847 384.658 35.5603 384.205 34.987C383.758 34.407 383.535 33.5603 383.535 32.447C383.535 31.3337 383.758 30.4903 384.205 29.917C384.658 29.337 385.281 29.047 386.075 29.047C386.868 29.047 387.491 29.337 387.945 29.917C388.398 30.4903 388.625 31.3337 388.625 32.447C388.625 33.5603 388.398 34.407 387.945 34.987C387.491 35.5603 386.868 35.847 386.075 35.847ZM386.075 34.937C387.048 34.937 387.535 34.107 387.535 32.447C387.535 30.787 387.048 29.957 386.075 29.957C385.108 29.957 384.625 30.787 384.625 32.447C384.625 34.107 385.108 34.937 386.075 34.937ZM392.314 35.747L394.804 29.147H396.084L398.574 35.747H397.444L396.824 34.017H394.044L393.414 35.747H392.314ZM395.134 31.007L394.354 33.147H396.504L395.744 31.027L395.444 30.077H395.414L395.134 31.007ZM399.595 37.847V30.747H400.545L400.595 31.687C400.741 31.3737 400.965 31.1237 401.265 30.937C401.565 30.7437 401.911 30.647 402.305 30.647C402.711 30.647 403.078 30.7503 403.405 30.957C403.738 31.1637 404.001 31.4603 404.195 31.847C404.395 32.2337 404.495 32.697 404.495 33.237C404.495 33.7837 404.395 34.2537 404.195 34.647C403.995 35.0337 403.725 35.3303 403.385 35.537C403.051 35.7437 402.681 35.847 402.275 35.847C401.901 35.847 401.578 35.7637 401.305 35.597C401.031 35.4237 400.818 35.2003 400.665 34.927V37.847H399.595ZM402.045 34.977C402.471 34.977 402.808 34.8237 403.055 34.517C403.301 34.2103 403.425 33.787 403.425 33.247C403.425 32.707 403.305 32.2837 403.065 31.977C402.825 31.6637 402.491 31.507 402.065 31.507C401.645 31.507 401.305 31.6637 401.045 31.977C400.791 32.2903 400.665 32.7137 400.665 33.247C400.665 33.7737 400.788 34.1937 401.035 34.507C401.288 34.8203 401.625 34.977 402.045 34.977ZM405.864 35.747V30.747H406.774L406.874 31.647C407.148 30.9803 407.671 30.647 408.444 30.647C408.544 30.647 408.644 30.657 408.744 30.677C408.844 30.6903 408.928 30.7137 408.994 30.747L408.844 31.687C408.771 31.6603 408.688 31.6403 408.594 31.627C408.508 31.607 408.388 31.597 408.234 31.597C408.021 31.597 407.814 31.6537 407.614 31.767C407.421 31.8737 407.258 32.0403 407.124 32.267C406.998 32.487 406.934 32.7637 406.934 33.097V35.747H405.864ZM410.545 29.907C410.311 29.907 410.131 29.8503 410.005 29.737C409.885 29.617 409.825 29.4503 409.825 29.237C409.825 29.0237 409.885 28.8603 410.005 28.747C410.131 28.6337 410.311 28.577 410.545 28.577C410.771 28.577 410.945 28.6337 411.065 28.747C411.191 28.8603 411.255 29.0237 411.255 29.237C411.255 29.4503 411.191 29.617 411.065 29.737C410.945 29.8503 410.771 29.907 410.545 29.907ZM411.075 30.747V35.747H410.005V30.747H411.075ZM413.789 28.497V34.347C413.789 34.5937 413.832 34.7637 413.919 34.857C414.006 34.9503 414.149 34.997 414.349 34.997C414.469 34.997 414.569 34.9903 414.649 34.977C414.736 34.957 414.842 34.9237 414.969 34.877L414.849 35.677C414.616 35.7903 414.339 35.847 414.019 35.847C413.572 35.847 413.242 35.7337 413.029 35.507C412.822 35.2803 412.719 34.9237 412.719 34.437V28.497H413.789ZM419.867 35.747V31.217C419.867 31.0903 419.867 30.9537 419.867 30.807C419.874 30.6603 419.88 30.507 419.887 30.347C419.66 30.567 419.4 30.757 419.107 30.917C418.814 31.0703 418.517 31.1803 418.217 31.247L418.017 30.317C418.15 30.297 418.31 30.2503 418.497 30.177C418.69 30.1037 418.887 30.0103 419.087 29.897C419.287 29.7837 419.47 29.6637 419.637 29.537C419.804 29.4037 419.934 29.2737 420.027 29.147H420.927V35.747H419.867ZM425.52 35.747V34.097H422.3V33.367C422.327 33.307 422.384 33.2137 422.47 33.087L425.22 29.147H426.53V33.267H427.65V34.097H426.53V35.747H425.52ZM423.3 33.267H425.52V30.937C425.52 30.777 425.524 30.6137 425.53 30.447C425.544 30.2737 425.554 30.1037 425.56 29.937H425.54C425.467 30.097 425.37 30.2737 425.25 30.467C425.137 30.6537 425.03 30.817 424.93 30.957L423.37 33.177C423.35 33.2103 423.327 33.2403 423.3 33.267ZM429.571 30.647C429.798 30.647 429.978 30.7137 430.111 30.847C430.251 30.9737 430.321 31.147 430.321 31.367C430.321 31.587 430.251 31.7637 430.111 31.897C429.978 32.0303 429.798 32.097 429.571 32.097C429.338 32.097 429.151 32.0303 429.011 31.897C428.878 31.7637 428.811 31.587 428.811 31.367C428.811 31.147 428.878 30.9737 429.011 30.847C429.151 30.7137 429.338 30.647 429.571 30.647ZM429.571 34.397C429.798 34.397 429.978 34.4637 430.111 34.597C430.251 34.7237 430.321 34.897 430.321 35.117C430.321 35.337 430.251 35.5137 430.111 35.647C429.978 35.7803 429.798 35.847 429.571 35.847C429.338 35.847 429.151 35.7803 429.011 35.647C428.878 35.5137 428.811 35.337 428.811 35.117C428.811 34.897 428.878 34.7237 429.011 34.597C429.151 34.4637 429.338 34.397 429.571 34.397ZM433.99 35.847C433.37 35.847 432.83 35.7103 432.37 35.437C431.916 35.157 431.606 34.767 431.44 34.267L432.48 33.777C432.573 34.1437 432.74 34.427 432.98 34.627C433.22 34.827 433.57 34.927 434.03 34.927C434.416 34.927 434.716 34.827 434.93 34.627C435.143 34.4203 435.25 34.1503 435.25 33.817C435.25 33.4903 435.153 33.2503 434.96 33.097C434.773 32.937 434.473 32.857 434.06 32.857C433.906 32.857 433.736 32.867 433.55 32.887V31.987C433.61 31.9937 433.666 32.0003 433.72 32.007C433.78 32.007 433.836 32.007 433.89 32.007C434.323 32.007 434.633 31.9203 434.82 31.747C435.006 31.5737 435.1 31.3037 435.1 30.937C435.1 30.6237 435.003 30.3837 434.81 30.217C434.616 30.0503 434.346 29.967 434 29.967C433.633 29.967 433.346 30.0537 433.14 30.227C432.933 30.4003 432.78 30.6437 432.68 30.957L431.7 30.547C431.84 30.0937 432.12 29.7303 432.54 29.457C432.96 29.177 433.463 29.037 434.05 29.037C434.523 29.037 434.916 29.117 435.23 29.277C435.55 29.4303 435.786 29.6403 435.94 29.907C436.1 30.167 436.18 30.4603 436.18 30.787C436.18 31.1203 436.116 31.4037 435.99 31.637C435.863 31.8637 435.703 32.0403 435.51 32.167C435.323 32.2937 435.133 32.3737 434.94 32.407V32.427C435.193 32.4337 435.423 32.497 435.63 32.617C435.843 32.737 436.013 32.9037 436.14 33.117C436.266 33.3303 436.33 33.5737 436.33 33.847C436.33 34.247 436.23 34.597 436.03 34.897C435.83 35.197 435.553 35.4303 435.2 35.597C434.853 35.7637 434.45 35.847 433.99 35.847ZM440.059 35.847C439.266 35.847 438.642 35.5603 438.189 34.987C437.742 34.407 437.519 33.5603 437.519 32.447C437.519 31.3337 437.742 30.4903 438.189 29.917C438.642 29.337 439.266 29.047 440.059 29.047C440.852 29.047 441.476 29.337 441.929 29.917C442.382 30.4903 442.609 31.3337 442.609 32.447C442.609 33.5603 442.382 34.407 441.929 34.987C441.476 35.5603 440.852 35.847 440.059 35.847ZM440.059 34.937C441.032 34.937 441.519 34.107 441.519 32.447C441.519 30.787 441.032 29.957 440.059 29.957C439.092 29.957 438.609 30.787 438.609 32.447C438.609 34.107 439.092 34.937 440.059 34.937Z" fill="white"/>
<path d="M371.053 46.731C371.949 46.731 372.665 46.927 373.201 47.319C373.737 47.703 374.005 48.231 374.005 48.903C374.005 49.327 373.901 49.695 373.693 50.007C373.485 50.311 373.177 50.539 372.769 50.691V50.703C373.249 50.863 373.621 51.099 373.885 51.411C374.149 51.715 374.281 52.107 374.281 52.587C374.281 53.275 373.993 53.827 373.417 54.243C372.849 54.659 372.061 54.867 371.053 54.867C370.053 54.867 369.265 54.659 368.689 54.243C368.121 53.827 367.837 53.275 367.837 52.587C367.837 52.107 367.969 51.715 368.233 51.411C368.497 51.099 368.869 50.863 369.349 50.703V50.691C368.941 50.539 368.629 50.311 368.413 50.007C368.205 49.695 368.101 49.327 368.101 48.903C368.101 48.231 368.369 47.703 368.905 47.319C369.449 46.927 370.165 46.731 371.053 46.731ZM371.053 48.231C370.733 48.231 370.477 48.311 370.285 48.471C370.101 48.631 370.009 48.855 370.009 49.143C370.009 49.423 370.101 49.647 370.285 49.815C370.477 49.975 370.733 50.055 371.053 50.055C371.373 50.055 371.629 49.975 371.821 49.815C372.013 49.647 372.109 49.423 372.109 49.143C372.109 48.855 372.013 48.631 371.821 48.471C371.637 48.311 371.381 48.231 371.053 48.231ZM371.053 53.367C371.437 53.367 371.737 53.279 371.953 53.103C372.169 52.927 372.277 52.687 372.277 52.383C372.277 52.071 372.165 51.831 371.941 51.663C371.725 51.487 371.429 51.399 371.053 51.399C370.685 51.399 370.389 51.487 370.165 51.663C369.949 51.831 369.841 52.071 369.841 52.383C369.841 52.687 369.949 52.927 370.165 53.103C370.381 53.279 370.677 53.367 371.053 53.367ZM376.524 52.683C376.964 52.683 377.288 52.831 377.496 53.127C377.712 53.423 377.82 53.767 377.82 54.159C377.82 54.519 377.74 54.863 377.58 55.191C377.428 55.527 377.224 55.819 376.968 56.067C376.72 56.323 376.448 56.515 376.152 56.643L375.324 56.031C375.652 55.895 375.944 55.711 376.2 55.479C376.464 55.255 376.648 55.015 376.752 54.759L376.692 54.723C376.644 54.755 376.588 54.779 376.524 54.795C376.468 54.811 376.388 54.819 376.284 54.819C376.068 54.819 375.852 54.739 375.636 54.579C375.428 54.419 375.324 54.171 375.324 53.835C375.324 53.459 375.444 53.175 375.684 52.983C375.932 52.783 376.212 52.683 376.524 52.683ZM381.817 46.707C382.905 46.707 383.729 47.055 384.289 47.751C384.849 48.439 385.129 49.443 385.129 50.763C385.129 51.715 384.985 52.495 384.697 53.103C384.417 53.711 384.029 54.159 383.533 54.447C383.037 54.727 382.465 54.867 381.817 54.867C381.129 54.867 380.529 54.731 380.017 54.459C379.513 54.179 379.137 53.739 378.889 53.139L380.737 52.407C380.801 52.687 380.921 52.907 381.097 53.067C381.281 53.227 381.533 53.307 381.853 53.307C382.357 53.307 382.721 53.115 382.945 52.731C383.177 52.339 383.293 51.783 383.293 51.063V50.871H383.257C383.121 51.231 382.869 51.495 382.501 51.663C382.141 51.831 381.757 51.915 381.349 51.915C380.845 51.915 380.401 51.815 380.017 51.615C379.633 51.407 379.333 51.119 379.117 50.751C378.901 50.383 378.793 49.947 378.793 49.443C378.793 48.875 378.917 48.387 379.165 47.979C379.421 47.571 379.773 47.259 380.221 47.043C380.677 46.819 381.209 46.707 381.817 46.707ZM381.817 48.291C381.465 48.291 381.189 48.387 380.989 48.579C380.789 48.771 380.689 49.043 380.689 49.395C380.689 49.715 380.793 49.967 381.001 50.151C381.209 50.327 381.481 50.415 381.817 50.415C382.137 50.415 382.405 50.319 382.621 50.127C382.837 49.935 382.945 49.679 382.945 49.359C382.945 49.031 382.837 48.771 382.621 48.579C382.405 48.387 382.137 48.291 381.817 48.291ZM386.415 54.747V53.427C387.319 52.859 388.047 52.343 388.599 51.879C389.159 51.407 389.567 50.967 389.823 50.559C390.079 50.151 390.207 49.763 390.207 49.395C390.207 49.091 390.115 48.839 389.931 48.639C389.755 48.431 389.491 48.327 389.139 48.327C388.763 48.327 388.467 48.467 388.251 48.747C388.043 49.019 387.935 49.419 387.927 49.947L386.163 49.407C386.179 48.823 386.319 48.331 386.583 47.931C386.855 47.523 387.223 47.219 387.687 47.019C388.151 46.811 388.679 46.707 389.271 46.707C389.967 46.707 390.535 46.835 390.975 47.091C391.415 47.339 391.739 47.659 391.947 48.051C392.155 48.435 392.259 48.835 392.259 49.251C392.259 50.019 391.967 50.719 391.383 51.351C390.799 51.975 389.971 52.595 388.899 53.211V53.223C389.099 53.207 389.351 53.195 389.655 53.187C389.967 53.179 390.247 53.175 390.495 53.175H392.355V54.747H386.415ZM397.083 54.747V53.007H393.219V51.711C393.291 51.591 393.383 51.439 393.495 51.255C393.615 51.063 393.755 50.847 393.915 50.607L396.495 46.827H398.907V51.591H400.119V53.007H398.907V54.747H397.083ZM394.875 51.591H397.107V49.191C397.107 49.031 397.111 48.867 397.119 48.699C397.127 48.531 397.135 48.355 397.143 48.171H397.119C397.039 48.339 396.943 48.515 396.831 48.699C396.727 48.875 396.627 49.035 396.531 49.179L395.127 51.231C395.039 51.367 394.955 51.487 394.875 51.591ZM402.154 52.683C402.53 52.683 402.822 52.779 403.03 52.971C403.246 53.163 403.354 53.431 403.354 53.775C403.354 54.111 403.246 54.375 403.03 54.567C402.822 54.759 402.53 54.855 402.154 54.855C401.778 54.855 401.482 54.759 401.266 54.567C401.058 54.375 400.954 54.111 400.954 53.775C400.954 53.431 401.058 53.163 401.266 52.971C401.482 52.779 401.778 52.683 402.154 52.683ZM407.411 46.707C408.499 46.707 409.323 47.055 409.883 47.751C410.443 48.439 410.723 49.443 410.723 50.763C410.723 51.715 410.579 52.495 410.291 53.103C410.011 53.711 409.623 54.159 409.127 54.447C408.631 54.727 408.059 54.867 407.411 54.867C406.723 54.867 406.123 54.731 405.611 54.459C405.107 54.179 404.731 53.739 404.483 53.139L406.331 52.407C406.395 52.687 406.515 52.907 406.691 53.067C406.875 53.227 407.127 53.307 407.447 53.307C407.951 53.307 408.315 53.115 408.539 52.731C408.771 52.339 408.887 51.783 408.887 51.063V50.871H408.851C408.715 51.231 408.463 51.495 408.095 51.663C407.735 51.831 407.351 51.915 406.943 51.915C406.439 51.915 405.995 51.815 405.611 51.615C405.227 51.407 404.927 51.119 404.711 50.751C404.495 50.383 404.387 49.947 404.387 49.443C404.387 48.875 404.511 48.387 404.759 47.979C405.015 47.571 405.367 47.259 405.815 47.043C406.271 46.819 406.803 46.707 407.411 46.707ZM407.411 48.291C407.059 48.291 406.783 48.387 406.583 48.579C406.383 48.771 406.283 49.043 406.283 49.395C406.283 49.715 406.387 49.967 406.595 50.151C406.803 50.327 407.075 50.415 407.411 50.415C407.731 50.415 407.999 50.319 408.215 50.127C408.431 49.935 408.539 49.679 408.539 49.359C408.539 49.031 408.431 48.771 408.215 48.579C407.999 48.387 407.731 48.291 407.411 48.291ZM414.807 54.867C413.959 54.867 413.255 54.703 412.695 54.375C412.135 54.039 411.743 53.551 411.519 52.911L413.415 52.095C413.463 52.527 413.599 52.831 413.823 53.007C414.055 53.183 414.355 53.271 414.723 53.271C415.051 53.271 415.311 53.187 415.503 53.019C415.695 52.843 415.791 52.607 415.791 52.311C415.791 52.007 415.699 51.787 415.515 51.651C415.331 51.515 415.071 51.447 414.735 51.447C414.543 51.447 414.347 51.459 414.147 51.483V50.139C414.211 50.147 414.275 50.155 414.339 50.163C414.403 50.163 414.479 50.163 414.567 50.163C414.935 50.163 415.203 50.087 415.371 49.935C415.539 49.775 415.623 49.527 415.623 49.191C415.623 48.903 415.539 48.683 415.371 48.531C415.211 48.379 414.983 48.303 414.687 48.303C414.367 48.303 414.107 48.387 413.907 48.555C413.715 48.723 413.591 48.999 413.535 49.383L411.723 48.759C411.811 48.319 411.999 47.947 412.287 47.643C412.575 47.339 412.935 47.107 413.367 46.947C413.807 46.787 414.291 46.707 414.819 46.707C415.723 46.707 416.415 46.903 416.895 47.295C417.383 47.687 417.627 48.215 417.627 48.879C417.627 49.223 417.571 49.511 417.459 49.743C417.355 49.975 417.219 50.163 417.051 50.307C416.891 50.451 416.727 50.559 416.559 50.631C416.391 50.695 416.251 50.735 416.139 50.751V50.787C416.283 50.787 416.447 50.815 416.631 50.871C416.815 50.927 416.995 51.019 417.171 51.147C417.347 51.275 417.491 51.447 417.603 51.663C417.723 51.871 417.783 52.135 417.783 52.455C417.783 52.951 417.651 53.379 417.387 53.739C417.131 54.099 416.779 54.379 416.331 54.579C415.883 54.771 415.375 54.867 414.807 54.867ZM422.618 54.747V46.827H426.47C427.446 46.827 428.166 47.011 428.63 47.379C429.094 47.747 429.326 48.275 429.326 48.963C429.326 49.411 429.194 49.799 428.93 50.127C428.666 50.455 428.262 50.659 427.718 50.739V50.751C428.326 50.831 428.778 51.043 429.074 51.387C429.378 51.723 429.53 52.131 429.53 52.611C429.53 53.291 429.286 53.819 428.798 54.195C428.318 54.563 427.602 54.747 426.65 54.747H422.618ZM424.61 50.067H426.11C426.846 50.067 427.214 49.779 427.214 49.203C427.214 48.627 426.846 48.339 426.11 48.339H424.61V50.067ZM424.61 53.295H426.302C427.046 53.295 427.418 52.999 427.418 52.407C427.418 51.831 427.046 51.543 426.302 51.543H424.61V53.295ZM437.745 46.827V51.519C437.745 53.751 436.565 54.867 434.205 54.867C433.045 54.867 432.165 54.591 431.565 54.039C430.965 53.479 430.665 52.639 430.665 51.519V46.827H432.741V51.555C432.741 52.683 433.229 53.247 434.205 53.247C435.189 53.247 435.681 52.683 435.681 51.555V46.827H437.745ZM442.437 46.707C443.173 46.707 443.821 46.823 444.381 47.055C444.949 47.279 445.441 47.611 445.857 48.051L444.861 49.383C444.517 49.023 444.145 48.755 443.745 48.579C443.353 48.395 442.905 48.303 442.401 48.303C441.961 48.303 441.645 48.375 441.453 48.519C441.261 48.663 441.165 48.839 441.165 49.047C441.165 49.215 441.241 49.359 441.393 49.479C441.553 49.591 441.809 49.687 442.161 49.767L443.493 50.067C444.285 50.251 444.865 50.519 445.233 50.871C445.601 51.223 445.785 51.691 445.785 52.275C445.785 52.835 445.641 53.311 445.353 53.703C445.065 54.087 444.669 54.379 444.165 54.579C443.661 54.771 443.085 54.867 442.437 54.867C441.637 54.867 440.905 54.739 440.241 54.483C439.577 54.219 439.049 53.875 438.657 53.451L439.653 52.071C439.949 52.415 440.349 52.703 440.853 52.935C441.357 53.159 441.877 53.271 442.413 53.271C443.245 53.271 443.661 53.027 443.661 52.539C443.661 52.371 443.597 52.231 443.469 52.119C443.349 51.999 443.125 51.899 442.797 51.819L441.333 51.495C440.885 51.399 440.485 51.263 440.133 51.087C439.789 50.911 439.517 50.679 439.317 50.391C439.117 50.095 439.017 49.727 439.017 49.287C439.017 48.791 439.153 48.351 439.425 47.967C439.697 47.575 440.089 47.267 440.601 47.043C441.113 46.819 441.725 46.707 442.437 46.707ZM450.435 46.827C451.675 46.827 452.623 47.171 453.279 47.859C453.943 48.547 454.275 49.523 454.275 50.787C454.275 52.051 453.943 53.027 453.279 53.715C452.623 54.403 451.675 54.747 450.435 54.747H447.075V46.827H450.435ZM450.231 53.187C450.903 53.187 451.391 52.987 451.695 52.587C452.007 52.179 452.163 51.579 452.163 50.787C452.163 49.995 452.007 49.399 451.695 48.999C451.391 48.591 450.903 48.387 450.231 48.387H449.139V53.187H450.231Z" fill="white"/>
<defs>
<filter id="filter0_dd" x="392.057" y="84.7011" width="36.4995" height="36.4995" filterUnits="userSpaceOnUse" color-interpolation-filters="sRGB">
<feFlood flood-opacity="0" result="BackgroundImageFix"/>
<feColorMatrix in="SourceAlpha" type="matrix" values="0 0 0 0 0 0 0 0 0 0 0 0 0 0 0 0 0 0 127 0" result="hardAlpha"/>
<feOffset dy="5.7108"/>
<feGaussianBlur stdDeviation="5.7108"/>
<feColorMatrix type="matrix" values="0 0 0 0 0.196487 0 0 0 0 0.196487 0 0 0 0 0.279476 0 0 0 0.06 0"/>
<feBlend mode="multiply" in2="BackgroundImageFix" result="effect1_dropShadow"/>
<feColorMatrix in="SourceAlpha" type="matrix" values="0 0 0 0 0 0 0 0 0 0 0 0 0 0 0 0 0 0 127 0" result="hardAlpha"/>
<feOffset dy="5.7108"/>
<feGaussianBlur stdDeviation="2.8554"/>
<feColorMatrix type="matrix" values="0 0 0 0 0.196487 0 0 0 0 0.196487 0 0 0 0 0.279476 0 0 0 0.08 0"/>
<feBlend mode="multiply" in2="effect1_dropShadow" result="effect2_dropShadow"/>
<feBlend mode="normal" in="SourceGraphic" in2="effect2_dropShadow" result="shape"/>
</filter>
<filter id="filter1_dd" x="340.166" y="5.83289" width="140.553" height="93.0906" filterUnits="userSpaceOnUse" color-interpolation-filters="sRGB">
<feFlood flood-opacity="0" result="BackgroundImageFix"/>
<feColorMatrix in="SourceAlpha" type="matrix" values="0 0 0 0 0 0 0 0 0 0 0 0 0 0 0 0 0 0 127 0" result="hardAlpha"/>
<feOffset dy="5.66711"/>
<feGaussianBlur stdDeviation="5.66711"/>
<feColorMatrix type="matrix" values="0 0 0 0 0.196487 0 0 0 0 0.196487 0 0 0 0 0.279476 0 0 0 0.06 0"/>
<feBlend mode="multiply" in2="BackgroundImageFix" result="effect1_dropShadow"/>
<feColorMatrix in="SourceAlpha" type="matrix" values="0 0 0 0 0 0 0 0 0 0 0 0 0 0 0 0 0 0 127 0" result="hardAlpha"/>
<feOffset dy="5.66711"/>
<feGaussianBlur stdDeviation="2.83356"/>
<feColorMatrix type="matrix" values="0 0 0 0 0.196487 0 0 0 0 0.196487 0 0 0 0 0.279476 0 0 0 0.08 0"/>
<feBlend mode="multiply" in2="effect1_dropShadow" result="effect2_dropShadow"/>
<feBlend mode="normal" in="SourceGraphic" in2="effect2_dropShadow" result="shape"/>
</filter>
<linearGradient id="paint0_linear" x1="287.562" y1="97.2171" x2="287.562" y2="332.997" gradientUnits="userSpaceOnUse">
<stop stop-color="#5E5CE6" stop-opacity="0.2"/>
<stop offset="0.998978" stop-opacity="0"/>
</linearGradient>
<linearGradient id="paint1_linear" x1="410.442" y1="12" x2="410.442" y2="81.4221" gradientUnits="userSpaceOnUse">
<stop stop-color="white"/>
<stop offset="1" stop-color="white" stop-opacity="0"/>
</linearGradient>
</defs>
</svg>
