<svg viewBox="0 0 678 144" fill="none" xmlns="http://www.w3.org/2000/svg">
<g clip-path="url(#clip0_107_61)">
<path d="M13.696 43.0337C14.5024 43.5233 15.4528 43.8257 16.4032 44.0561C14.9056 43.6673 13.3792 43.0625 12.7888 42.2129C12.8032 42.3713 13.5664 42.9617 13.696 43.0337Z" fill="#F2B80C"/>
<path d="M12.76 22.168C12.76 22.5136 12.7744 22.8592 12.8176 23.2048C12.7744 22.8736 12.76 22.528 12.76 22.168Z" fill="white"/>
<path d="M15.3519 28.965C14.8191 28.3746 14.3583 27.7266 13.9839 27.021C14.3727 27.7266 14.8335 28.3746 15.3519 28.965Z" fill="white"/>
<path d="M31.0046 16.0336C30.5294 15.4144 29.9822 14.8528 29.3918 14.3489C29.9966 14.8528 30.5294 15.4144 31.0046 16.0336Z" fill="white"/>
<path d="M12.76 22.168C12.76 21.6352 12.8032 21.1312 12.8752 20.6272C12.8032 21.1312 12.76 21.6496 12.76 22.168Z" fill="white"/>
<path d="M32.5312 18.8706C32.5024 18.7698 32.4592 18.6834 32.4304 18.5825C32.4592 18.6834 32.5024 18.7842 32.5312 18.8706Z" fill="white"/>
<path d="M31.9839 17.5745C32.0415 17.6896 32.0991 17.8192 32.1567 17.9344C32.0991 17.8192 32.0415 17.6896 31.9839 17.5745Z" fill="white"/>
<path d="M33.1936 45.1504V52.0335L33.208 45.1504H33.1936Z" fill="#A98108"/>
<path d="M45.7792 45.1504H33.208V52.0335H45.7936C45.7792 49.8447 45.7792 47.512 45.7792 45.1504Z" fill="#A98108"/>
<path d="M16.4031 44.0559C18.2031 44.5311 19.9599 44.7183 19.9599 44.7183C19.5135 44.6607 19.0671 44.5887 18.6207 44.5023C17.9007 44.3583 17.1519 44.2287 16.4031 44.0559Z" fill="#A98108"/>
<path d="M16.4032 44.0558C17.152 44.2286 17.9008 44.3727 18.6208 44.5023C19.0672 44.5887 19.5136 44.6607 19.96 44.7183C19.96 44.6751 19.96 35.7615 19.96 31.9311C19.96 31.9311 19.96 31.9311 19.9456 31.9311C18.4048 31.4559 17.0224 30.6206 15.8848 29.5262C15.8704 29.5118 15.856 29.4975 15.8416 29.4831C15.7984 29.4543 15.7696 29.411 15.7264 29.3678C13.0048 26.7038 12.76 23.4062 12.7312 22.5854C12.7312 24.4574 12.7888 40.0958 12.7888 42.2126C13.3792 43.0622 14.9056 43.6526 16.4032 44.0558Z" fill="#A98108"/>
<path d="M19.96 31.9167C18.2176 31.2975 16.9072 30.4479 15.8992 29.512C17.0224 30.6063 18.4048 31.4415 19.96 31.9167Z" fill="#A98108"/>
<path d="M16.4032 100.259C15.4528 100.49 14.5024 100.792 13.696 101.282C13.5808 101.354 12.8032 101.93 12.8032 102.102C13.3792 101.238 14.9056 100.648 16.4032 100.259Z" fill="#F2B80C"/>
<path d="M12.76 122.133C12.76 120.463 13.1632 118.893 13.8832 117.496C13.1632 118.893 12.76 120.463 12.76 122.133Z" fill="white"/>
<path d="M15.741 114.947C15.1074 115.595 14.5458 116.315 14.0994 117.107C14.5458 116.315 15.093 115.581 15.741 114.947Z" fill="white"/>
<path d="M15.7272 129.305L15.7119 129.29C15.7272 129.305 15.7272 129.305 15.7272 129.305Z" fill="white"/>
<path d="M45.7792 52.0334H33.1936L33.1792 72.1503L33.208 92.2671H45.7936C45.7936 84.5631 45.7936 78.4431 45.7936 78.4431V72.1503V65.8575C45.7936 65.8575 45.7792 59.7519 45.7792 52.0334Z" fill="#F2B80C"/>
<path d="M90.6784 72.1504C90.7216 72.1504 90.7648 72.1504 90.808 72.1504C107.21 61.2208 108.779 47.44 108.909 38.9152C106.461 1.96476 72.2464 0.00634766 72.2464 0.00634766C72.2464 0.00634766 44.8864 0.00634766 22.8112 0.00634766C0.735953 0.00634766 0.303955 22.0816 0.303955 22.0816V72.1504V122.219C0.303955 122.219 0.735955 144.309 22.8256 144.309C44.9152 144.309 72.2608 144.309 72.2608 144.309C72.2608 144.309 106.461 142.336 108.923 105.386C108.794 96.9184 106.778 83.0512 90.6784 72.1504ZM12.7456 22.3984C12.7456 22.3984 12.7456 22.456 12.7456 22.5568C12.7456 22.456 12.7456 22.3984 12.7456 22.3984ZM12.7456 121.902C12.7456 121.902 12.7456 121.845 12.7456 121.744C12.7456 121.845 12.7456 121.902 12.7456 121.902ZM93.3568 117.582C93.0544 118.144 92.752 118.706 92.4208 119.238C91.1536 121.398 89.6272 123.4 87.8416 125.142C82.24 130.629 75.1984 132.054 67.6384 132.054C61.3888 132.054 55.1392 132.054 48.904 132.054C47.1328 132.054 45.3616 132.054 43.5904 132.054C43.5904 132.054 45.7792 127.245 45.7792 122.867C45.7792 121.6 45.7792 117.338 45.7792 111.938H57.4C59.5888 115.61 63.6064 118.058 68.2 118.058C75.1408 118.058 80.7712 112.427 80.7712 105.486C80.7712 98.5456 75.1408 92.9152 68.2 92.9152C63.52 92.9152 59.4448 95.464 57.2848 99.2512H45.7936C45.7936 99.208 45.7936 99.1792 45.7936 99.136H33.2224C32.2432 99.1504 31.264 99.1648 30.2848 99.1936C28.3408 99.2224 26.3968 99.2656 24.4528 99.28C22.9264 99.2944 21.4576 99.3808 19.9744 99.5824C19.9744 99.6256 19.9744 108.539 19.9744 112.384C19.9744 112.384 19.9744 112.384 19.96 112.384C20.9104 112.096 21.9184 111.938 22.9552 111.938H32.6608H33.0928V122.075C33.0928 123.314 32.8768 124.494 32.4736 125.574C32.3584 125.891 32.2288 126.194 32.0848 126.496C31.7248 127.245 31.2784 127.936 30.76 128.555C30.6592 128.685 30.544 128.8 30.4432 128.93C30.2272 129.174 29.9968 129.405 29.752 129.621C27.9376 131.262 25.5328 132.27 22.8976 132.27C20.0896 132.27 17.5552 131.133 15.7264 129.304L15.712 129.29C13.8832 127.461 12.76 124.926 12.76 122.133C12.76 120.462 13.1632 118.893 13.8832 117.496C13.9552 117.366 14.0272 117.222 14.0992 117.093C14.5456 116.301 15.1072 115.566 15.7408 114.933C13.0192 117.597 12.7744 120.894 12.7456 121.715C12.7456 119.843 12.7888 104.205 12.7888 102.088C12.7888 100.994 12.7888 72.1504 12.7888 72.1504C12.7888 71.9056 12.7888 43.2928 12.7888 42.2128C12.7888 40.1104 12.7456 24.472 12.7312 22.5856C12.7456 23.392 13.0048 26.704 15.7264 29.368C15.5968 29.2384 15.4672 29.0944 15.352 28.9648C14.8192 28.3744 14.3584 27.7264 13.984 27.0208C13.8256 26.7328 13.6816 26.4304 13.552 26.128C13.2352 25.3648 13.0048 24.5584 12.8752 23.7232C12.8464 23.5504 12.832 23.3776 12.8032 23.2192C12.7744 22.8736 12.7456 22.528 12.7456 22.1824C12.7456 21.664 12.7888 21.1456 12.8608 20.6416C12.9184 20.3104 12.976 19.9792 13.0624 19.648C13.5232 17.8624 14.4448 16.2784 15.712 15.0256C15.712 15.0256 15.712 15.0256 15.7264 15.0112C17.5696 13.168 20.0896 12.0447 22.8976 12.0447C23.4304 12.0447 23.9488 12.088 24.4528 12.16C25.1296 12.2608 25.7776 12.4336 26.4112 12.664C27.5056 13.0672 28.5136 13.6432 29.392 14.3776C29.9968 14.8672 30.544 15.4432 31.0048 16.0624C31.3648 16.5376 31.696 17.056 31.9696 17.6032C32.0272 17.7184 32.0848 17.848 32.1424 17.9632C32.2432 18.1792 32.3296 18.3808 32.416 18.6112C32.4592 18.712 32.488 18.7984 32.5168 18.8992C32.8768 19.9504 33.0784 21.0736 33.0784 22.24L33.1504 32.392H33.0784H32.6464H22.9408C21.8896 32.392 20.8816 32.2336 19.9312 31.9456C19.9312 31.9456 19.9312 31.9456 19.9456 31.9456C19.9456 35.7904 19.9456 44.6896 19.9456 44.7472C21.4288 44.9488 22.912 45.0207 24.4384 45.0495C26.3824 45.0639 28.3264 45.1072 30.2704 45.136C31.2496 45.1504 32.2288 45.1647 33.208 45.1935H45.7792C45.7792 45.1935 45.808 45.1792 45.8512 45.1792H57.2704C59.4304 48.9808 63.52 51.5584 68.1856 51.5584C75.1264 51.5584 80.7568 45.8992 80.7568 38.9152C80.7568 31.9312 75.1264 26.272 68.1856 26.272C63.6064 26.272 59.5888 28.7344 57.4 32.4208H47.0896H45.7792C45.7792 27.352 45.7792 22.6576 45.7792 21.448C45.7792 17.0704 43.5904 12.2607 43.5904 12.2607C45.3616 12.2607 47.1328 12.2607 48.904 12.2607C55.1536 12.2607 61.4032 12.2607 67.6384 12.2607C75.1984 12.2607 82.24 13.6863 87.8416 19.1727C89.6272 20.9151 91.1536 22.9168 92.4208 25.0768C92.7376 25.624 93.0544 26.1856 93.3568 26.7328C97.0288 33.6304 97.144 41.6368 94.5088 48.8944C92.8096 53.56 89.944 57.7648 85.9552 60.76C83.1472 62.8768 79.8784 64.36 76.4656 65.1952C75.0256 65.5408 73.4992 65.8576 72.016 65.8576C72.016 65.8576 60.4384 65.8576 52.6768 65.8576V71.7616V78.4432C60.4528 78.4432 72.016 78.4432 72.016 78.4432C73.4992 78.4432 75.04 78.76 76.4656 79.1056C79.8784 79.9408 83.1472 81.424 85.9552 83.5408C89.944 86.536 92.8096 90.7408 94.5088 95.4064C97.144 102.678 97.0288 110.685 93.3568 117.582Z" fill="#F2B80C"/>
<path d="M33.1936 92.2671V99.1503H33.208L33.1936 92.2671Z" fill="#A98108"/>
<path d="M33.208 99.1503H45.7792C45.7792 96.7887 45.7792 94.4703 45.7792 92.2671H33.1936L33.208 99.1503Z" fill="#A98108"/>
<path d="M16.4031 100.259C17.1519 100.086 17.9007 99.9423 18.6207 99.8127C19.0671 99.7263 19.5135 99.6543 19.9599 99.5967C19.9599 99.5967 18.2031 99.7839 16.4031 100.259Z" fill="#A98108"/>
<path d="M15.8848 114.789C17.0224 113.694 18.4048 112.859 19.9456 112.398C19.9456 112.398 19.9456 112.398 19.96 112.398C19.96 108.568 19.96 99.6543 19.96 99.5967C19.5136 99.6543 19.0672 99.7263 18.6208 99.8127C17.9008 99.9423 17.152 100.086 16.4032 100.259C14.9056 100.648 13.3792 101.253 12.7888 102.102C12.7888 104.205 12.7456 119.843 12.7312 121.729C12.7456 120.923 13.0048 117.611 15.7264 114.947C15.7696 114.904 15.7984 114.875 15.8416 114.832C15.8704 114.817 15.8848 114.803 15.8848 114.789Z" fill="#A98108"/>
<path d="M19.96 112.398C18.4192 112.874 17.0368 113.709 15.8992 114.789C16.8928 113.853 18.2176 113.018 19.96 112.398Z" fill="#A98108"/>
<path d="M45.7791 65.8574V72.1503V78.4431C45.9375 78.4431 48.8463 78.4431 52.6623 78.4431V72.1503V65.8574C48.8463 65.8574 45.9375 65.8574 45.7791 65.8574Z" fill="#A98108"/>
<path d="M170.642 23.7233H214.533C230.704 23.2769 248.445 28.3169 248.445 50.2625C248.445 59.7522 243.448 67.4705 236.09 71.6178C246.083 75.0306 252.261 84.6642 252.261 96.6738C252.261 121.888 235.83 129.592 215.728 129.592H170.656V23.7233H170.642ZM195.093 65.3969H214.014C218.219 65.3969 224.008 62.8769 224.008 55.3169C224.008 47.5985 219.141 45.0785 214.014 45.0785H195.093V65.3969ZM195.093 107.503H214.677C222.424 107.503 227.824 104.392 227.824 95.637C227.824 86.2914 222.035 83.181 214.677 83.181H195.093V107.503Z" fill="#F2B80C"/>
<path d="M282.616 94.0096C283.134 106.466 289.845 110.469 300.357 110.469C307.715 110.469 315.347 107.502 315.347 99.64C315.347 90.1504 301.941 88.5232 288.405 84.2176C275.128 79.912 260.93 73.2448 260.93 53.6752C260.93 30.5344 281.565 21.4912 299.176 21.4912C317.709 21.4912 336.76 31.8736 336.76 55.6048H312.309C312.698 46.1152 304.547 42.8464 297.189 42.8464C291.933 42.8464 285.366 44.92 285.366 51.8896C285.366 60.1984 298.902 61.5232 312.568 65.8288C326.104 70.1344 339.77 77.248 339.77 96.3712C339.77 123.213 319.523 131.81 298.888 131.81C277.461 131.81 258.15 121.139 258.15 93.9952L282.616 94.0096Z" fill="#F2B80C"/>
<path d="M411.539 61.5376C410.099 50.8672 403 45.2224 392.618 45.2224C376.85 45.2224 370.802 60.7888 370.802 76.6576C370.802 92.5264 376.85 108.093 392.618 108.093C404.181 108.093 410.618 100.821 411.539 88.5232H435.99C434.55 115.955 416.939 131.824 393.15 131.824C364.624 131.824 346.365 107.358 346.365 76.6576C346.365 45.9568 364.639 21.4912 393.15 21.4912C413.526 21.4912 435.342 36.0208 435.99 61.5232L411.539 61.5376Z" fill="#F2B80C"/>
<path d="M447.021 23.7231H491.574C509.056 23.7231 525.486 32.7663 525.486 57.8368C525.486 84.0881 512.21 94.3121 491.574 94.3121H471.472V129.607H447.021V23.7231ZM471.472 72.9568H487.902C495.664 72.9568 501.05 69.4 501.05 59.7664C501.05 49.6864 495.405 45.8272 487.902 45.8272H471.472V72.9568Z" fill="#F2B80C"/>
<path d="M533.248 76.3697C533.637 66.2897 537.712 59.7665 543.89 55.7633C550.067 51.7601 557.685 50.4209 565.576 50.4209C581.747 50.4209 597.385 54.4241 597.385 76.2257V109.893C597.385 116.416 597.385 123.53 600.006 129.621H577.528C576.606 127.245 576.606 124.883 576.218 122.349C570.429 129.319 562.019 131.839 553.739 131.839C540.592 131.839 530.469 124.423 530.469 108.554C530.469 83.6417 554.646 85.4273 570.155 81.8561C573.971 80.8193 576.074 79.4801 576.074 74.7425C576.074 68.9537 569.896 66.7361 565.302 66.7361C558.866 66.7361 555.179 69.9905 554.128 76.3697H533.248ZM562.163 116.258C572.805 116.258 576.362 109.591 575.829 93.5633C572.675 95.7809 566.886 96.0833 562.034 97.7105C556.907 99.0497 552.832 101.426 552.832 107.503C552.832 113.882 557.037 116.258 562.163 116.258Z" fill="#F2B80C"/>
<path d="M677.68 129.606H656.382V120.707H656.123C651.659 128.123 645.352 131.824 637.331 131.824C615.904 131.824 606.846 111.218 606.846 89.4159C606.846 69.3999 616.307 50.4207 635.632 50.4207C643.912 50.4207 650.478 53.9775 655.086 60.9471H655.346V23.7231H677.68V129.606ZM629.181 90.3087C629.181 100.835 632.723 112.557 642.846 112.557C653.762 112.557 656.123 100.835 656.123 91.0575C656.123 79.9407 652.581 69.7024 642.846 69.7024C632.737 69.688 629.181 80.5167 629.181 90.3087Z" fill="#F2B80C"/>
</g>
<defs>
<clipPath id="clip0_107_61">
<rect width="678" height="144" fill="white"/>
</clipPath>
</defs>
</svg>
