<svg width="135" height="69" viewBox="0 0 135 69" fill="none" xmlns="http://www.w3.org/2000/svg">
    <path d="M130.78 39.4634L67.5081 65.9235L4.23633 39.4634L67.6296 55.1442L130.78 39.4634Z" fill="#00E7FF"/>
    <path d="M113.017 39.4634L67.508 50.4549L21.9995 39.4634L67.6295 44.8327L113.017 39.4634Z" fill="#00E7FF"/>
    <path d="M4.31464 18.8868C4.26064 18.8324 4.23364 18.7671 4.23364 18.691V3.10264C4.23364 3.02648 4.26064 2.9612 4.31464 2.9068C4.36864 2.8524 4.43344 2.8252 4.50904 2.8252H10.3464C11.5371 2.8252 12.5901 3.03192 13.5054 3.44808C14.4207 3.86424 15.1308 4.45448 15.6357 5.22424C16.1406 5.994 16.3917 6.878 16.3917 7.87624V13.9174C16.3917 14.9183 16.1406 15.8023 15.6357 16.5694C15.1335 17.3391 14.4234 17.9294 13.5054 18.3455C12.5901 18.7617 11.5371 18.9684 10.3464 18.9684H4.50904C4.43344 18.9684 4.36864 18.9412 4.31464 18.8868ZM8.14864 15.6935H10.5057C11.1159 15.6935 11.6127 15.4732 11.9934 15.0353C12.3741 14.5974 12.5739 14.0098 12.5874 13.27V8.52088C12.5874 7.78376 12.393 7.19352 12.0042 6.7556C11.6154 6.31768 11.1078 6.09736 10.4814 6.09736H8.14594C8.07034 6.09736 8.03254 6.13544 8.03254 6.2116V15.5738C8.03524 15.6554 8.07304 15.6935 8.14864 15.6935Z" fill="white"/>
    <path d="M29.6784 6.01848C29.6244 6.07288 29.5596 6.10007 29.484 6.10007H22.2966C22.221 6.10007 22.1832 6.13815 22.1832 6.21431V9.05128C22.1832 9.12744 22.221 9.16551 22.2966 9.16551H26.8974C26.973 9.16551 27.0378 9.19271 27.0918 9.24711C27.1458 9.30151 27.1728 9.3668 27.1728 9.44296V12.1412C27.1728 12.2174 27.1458 12.2826 27.0918 12.337C27.0378 12.3914 26.973 12.4186 26.8974 12.4186H22.2966C22.221 12.4186 22.1832 12.4567 22.1832 12.5329V15.5766C22.1832 15.6527 22.221 15.6908 22.2966 15.6908H29.484C29.5596 15.6908 29.6244 15.718 29.6784 15.7724C29.7324 15.8268 29.7594 15.8921 29.7594 15.9682V18.6882C29.7594 18.7644 29.7324 18.8297 29.6784 18.8841C29.6244 18.9385 29.5596 18.9657 29.484 18.9657H18.657C18.5814 18.9657 18.5166 18.9385 18.4626 18.8841C18.4086 18.8297 18.3816 18.7644 18.3816 18.6882V3.10264C18.3816 3.02648 18.4086 2.9612 18.4626 2.9068C18.5166 2.8524 18.5814 2.8252 18.657 2.8252H29.484C29.5596 2.8252 29.6244 2.8524 29.6784 2.9068C29.7324 2.9612 29.7594 3.02648 29.7594 3.10264V5.82535C29.7594 5.90151 29.7324 5.96679 29.6784 6.01848Z" fill="white"/>
    <path d="M31.1093 18.8759C31.0634 18.8134 31.0715 18.7372 31.1309 18.6447L35.4563 10.9662C35.486 10.9199 35.486 10.8737 35.4563 10.8274L31.1309 3.14888L31.085 3.01016C31.085 2.88776 31.1687 2.8252 31.3361 2.8252H34.8623C35.0297 2.8252 35.1458 2.88776 35.2052 3.01016L37.7918 7.85448C37.8377 7.91704 37.8836 7.91704 37.9295 7.85448L40.5404 3.01016C40.6025 2.88776 40.7159 2.8252 40.8833 2.8252H44.4095C44.5175 2.8252 44.585 2.85512 44.6147 2.91768C44.6444 2.98024 44.6363 3.0564 44.5931 3.14888L40.2893 10.8274C40.2731 10.8737 40.2731 10.9199 40.2893 10.9662L44.5931 18.6447C44.6228 18.7073 44.639 18.7535 44.639 18.7834C44.639 18.9058 44.5634 18.9684 44.4095 18.9684H40.9076C40.7537 18.9684 40.6403 18.9058 40.5647 18.7834L37.9322 13.9636C37.8863 13.8874 37.8404 13.8874 37.7945 13.9636L35.1836 18.7834C35.108 18.9058 34.9919 18.9684 34.8407 18.9684H31.3388C31.2308 18.9684 31.1552 18.9385 31.1093 18.8759Z" fill="white"/>
    <path d="M58.2361 5.84712C58.2361 5.92328 58.2091 5.98856 58.1551 6.04296C58.1011 6.09736 58.0363 6.12456 57.9607 6.12456H53.9539C53.8783 6.12456 53.8405 6.16264 53.8405 6.2388V18.691C53.8405 18.7671 53.8135 18.8324 53.7595 18.8868C53.7055 18.9412 53.6407 18.9684 53.5651 18.9684H50.3143C50.2387 18.9684 50.1739 18.9412 50.1199 18.8868C50.0659 18.8324 50.0389 18.7671 50.0389 18.691V6.2388C50.0389 6.16264 50.0011 6.12456 49.9255 6.12456H46.0564C45.9808 6.12456 45.916 6.09736 45.862 6.04296C45.808 5.98856 45.781 5.92328 45.781 5.84712V3.10264C45.781 3.02648 45.808 2.9612 45.862 2.9068C45.916 2.8524 45.9808 2.8252 46.0564 2.8252H56.0572C56.1355 2.8252 58.2361 5.84712 58.2361 5.84712Z" fill="white"/>
    <path d="M75.7376 6.01848C75.6836 6.07288 75.6188 6.10008 75.5432 6.10008H68.3774C68.3018 6.10008 68.264 6.13816 68.264 6.21432V9.05128C68.264 9.12744 68.3018 9.16552 68.3774 9.16552H72.9782C73.0538 9.16552 73.1186 9.19272 73.1726 9.24712C73.2266 9.30152 73.2536 9.3668 73.2536 9.44296V12.1412C73.2536 12.2174 73.2266 12.2826 73.1726 12.337C73.1186 12.3914 73.0538 12.4186 72.9782 12.4186H68.3774C68.3018 12.4186 68.264 12.4567 68.264 12.5329V18.691C68.264 18.7671 68.237 18.8324 68.183 18.8868C68.129 18.9412 68.0642 18.9684 67.9886 18.9684H64.7378C64.6622 18.9684 64.5974 18.9412 64.5434 18.8868C64.4894 18.8324 64.4624 18.7671 64.4624 18.691V3.10264C64.4624 3.02648 64.4894 2.9612 64.5434 2.9068C64.5974 2.8524 64.6622 2.8252 64.7378 2.8252H75.5432C75.6188 2.8252 75.6836 2.8524 75.7376 2.9068C75.7916 2.9612 75.8186 3.02648 75.8186 3.10264V5.82536C75.8186 5.90152 75.7916 5.9668 75.7376 6.01848Z" fill="white"/>
    <path d="M79.9038 18.4733C78.9669 17.9728 78.2379 17.271 77.7168 16.3625C77.1984 15.4568 76.9392 14.4014 76.9392 13.2019V8.5915C76.9392 7.42462 77.1984 6.3883 77.7168 5.4907C78.2352 4.5931 78.9642 3.89134 79.9038 3.39086C80.8434 2.89038 81.9288 2.64014 83.1654 2.64014C84.402 2.64014 85.4928 2.89038 86.4378 3.39086C87.3828 3.89134 88.1172 4.59038 88.6356 5.4907C89.154 6.39102 89.4132 7.42462 89.4132 8.5915V13.2019C89.4132 14.4014 89.154 15.4541 88.6356 16.3625C88.1172 17.271 87.3828 17.9728 86.4378 18.4733C85.4901 18.9737 84.3993 19.224 83.1654 19.224C81.9288 19.2213 80.8434 18.971 79.9038 18.4733ZM84.9393 15.2337C85.3902 14.7577 85.6143 14.1185 85.6143 13.3189V8.54526C85.6143 7.7619 85.3902 7.12814 84.9393 6.64398C84.4884 6.15982 83.8971 5.91774 83.1654 5.91774C82.4472 5.91774 81.864 6.15982 81.4131 6.64398C80.9622 7.12814 80.7381 7.7619 80.7381 8.54526V13.3189C80.7381 14.1185 80.9622 14.7577 81.4131 15.2337C81.864 15.7097 82.4472 15.9491 83.1654 15.9491C83.8971 15.9464 84.4884 15.7097 84.9393 15.2337Z" fill="white"/>
    <path d="M99.6705 18.7617L96.9705 12.6281C96.9381 12.5655 96.8949 12.5356 96.8328 12.5356H95.3208C95.2452 12.5356 95.2074 12.5737 95.2074 12.6498V18.691C95.2074 18.7671 95.1804 18.8324 95.1264 18.8868C95.0724 18.9412 95.0076 18.9684 94.932 18.9684H91.6812C91.6056 18.9684 91.5408 18.9412 91.4868 18.8868C91.4328 18.8324 91.4058 18.7671 91.4058 18.691V3.10264C91.4058 3.02648 91.4328 2.9612 91.4868 2.9068C91.5408 2.8524 91.6056 2.8252 91.6812 2.8252H98.4798C99.4868 2.8252 100.372 3.03192 101.137 3.44808C101.901 3.86424 102.489 4.45176 102.91 5.21336C103.329 5.97496 103.54 6.84808 103.54 7.83C103.54 8.86088 103.288 9.75304 102.784 10.5038C102.279 11.2572 101.577 11.8039 100.678 12.1412C100.602 12.1711 100.578 12.2255 100.61 12.3017L103.631 18.6447C103.661 18.7073 103.677 18.7535 103.677 18.7834C103.677 18.9058 103.594 18.9684 103.426 18.9684H99.9918C99.8379 18.9684 99.7299 18.9004 99.6705 18.7617ZM95.2074 6.21432V9.4892C95.2074 9.56536 95.2452 9.60344 95.3208 9.60344H97.8615C98.4258 9.60344 98.8848 9.44568 99.2358 9.13016C99.5868 8.81464 99.7622 8.39576 99.7622 7.87352C99.7622 7.33496 99.5868 6.9052 99.2358 6.58152C98.8848 6.25784 98.4258 6.09736 97.8615 6.09736H95.3208C95.2452 6.10008 95.2074 6.13816 95.2074 6.21432Z" fill="white"/>
    <path d="M108.129 18.4379C107.206 17.9619 106.488 17.2846 105.977 16.4088C105.467 15.5329 105.211 14.5184 105.211 13.3651V8.38206C105.211 7.2451 105.467 6.24142 105.977 5.37374C106.488 4.50606 107.206 3.8315 108.129 3.3555C109.053 2.8795 110.125 2.64014 111.345 2.64014C112.565 2.64014 113.637 2.8659 114.561 3.32014C115.484 3.77438 116.202 4.41086 116.713 5.23502C117.223 6.05646 117.479 7.00846 117.479 8.08286C117.479 8.15902 117.452 8.22158 117.398 8.26782C117.344 8.31406 117.28 8.33582 117.204 8.33582L113.953 8.54254C113.77 8.54254 113.678 8.45822 113.678 8.28958C113.678 7.56606 113.465 6.98942 113.038 6.55966C112.611 6.1299 112.047 5.91502 111.345 5.91502C110.643 5.91502 110.079 6.13534 109.652 6.57326C109.226 7.01118 109.012 7.5851 109.012 8.2923V13.5283C109.012 14.2355 109.226 14.804 109.652 15.2337C110.079 15.6635 110.643 15.8784 111.345 15.8784C112.047 15.8784 112.611 15.6635 113.038 15.2337C113.465 14.804 113.678 14.2355 113.678 13.5283C113.678 13.3597 113.77 13.2753 113.953 13.2753L117.204 13.4358C117.28 13.4358 117.344 13.4576 117.398 13.5038C117.452 13.5501 117.479 13.6045 117.479 13.6643C117.479 14.755 117.223 15.7179 116.713 16.5475C116.202 17.3771 115.484 18.019 114.561 18.4733C113.637 18.9275 112.565 19.1533 111.345 19.1533C110.125 19.1533 109.05 18.9139 108.129 18.4379Z" fill="white"/>
    <path d="M130.699 6.01848C130.645 6.07288 130.58 6.10007 130.504 6.10007H123.317C123.241 6.10007 123.204 6.13815 123.204 6.21431V9.05128C123.204 9.12744 123.241 9.16551 123.317 9.16551H127.918C127.993 9.16551 128.058 9.19271 128.112 9.24711C128.166 9.30151 128.193 9.3668 128.193 9.44296V12.1412C128.193 12.2174 128.166 12.2826 128.112 12.337C128.058 12.3914 127.993 12.4186 127.918 12.4186H123.317C123.241 12.4186 123.204 12.4567 123.204 12.5329V15.5766C123.204 15.6527 123.241 15.6908 123.317 15.6908H130.504C130.58 15.6908 130.645 15.718 130.699 15.7724C130.753 15.8268 130.78 15.8921 130.78 15.9682V18.6882C130.78 18.7644 130.753 18.8297 130.699 18.8841C130.645 18.9385 130.58 18.9657 130.504 18.9657H119.677C119.602 18.9657 119.537 18.9385 119.483 18.8841C119.429 18.8297 119.402 18.7644 119.402 18.6882V3.10264C119.402 3.02648 119.429 2.9612 119.483 2.9068C119.537 2.8524 119.602 2.8252 119.677 2.8252H130.504C130.58 2.8252 130.645 2.8524 130.699 2.9068C130.753 2.9612 130.78 3.02648 130.78 3.10264V5.82535C130.78 5.90151 130.753 5.96679 130.699 6.01848Z" fill="white"/>
    <path d="M5.85892 35.7154L4.22272 28.0314C4.21192 27.9525 4.24432 27.9062 4.32262 27.9062H4.73842C4.80592 27.9062 4.84912 27.9389 4.86262 28.0069L6.18562 34.6518C6.19642 34.6981 6.22072 34.6981 6.23152 34.6518L7.53292 28.0069C7.54372 27.9389 7.58962 27.9062 7.65712 27.9062H8.04862C8.12692 27.9062 8.16202 27.9525 8.14852 28.0314L6.52312 35.7154C6.51232 35.7834 6.46642 35.816 6.39892 35.816H5.98312C5.91562 35.816 5.87242 35.7834 5.85892 35.7154Z" fill="white"/>
    <path d="M25.3531 28.4369H22.6936C22.672 28.4369 22.6477 28.4586 22.6477 28.4831V31.5458C22.6477 31.5676 22.6693 31.5921 22.6936 31.5921H24.3973C24.4648 31.5921 24.5107 31.6383 24.5107 31.7036V32.0082C24.5107 32.0762 24.4648 32.1225 24.3973 32.1225H22.6936C22.672 32.1225 22.6477 32.1442 22.6477 32.1687V35.2423C22.6477 35.2641 22.6693 35.2885 22.6936 35.2885H25.3531C25.4206 35.2885 25.4638 35.3348 25.4638 35.4001V35.7047C25.4638 35.7727 25.4179 35.8189 25.3531 35.8189H22.1671C22.0996 35.8189 22.0564 35.7727 22.0564 35.7047V28.0207C22.0564 27.9527 22.1023 27.9092 22.1671 27.9092H25.3531C25.4206 27.9092 25.4638 27.9554 25.4638 28.0207V28.3253C25.4665 28.3906 25.4206 28.4369 25.3531 28.4369Z" fill="white"/>
    <path d="M39.4307 35.7018V28.0178C39.4307 27.9498 39.4766 27.9062 39.5414 27.9062H39.9356C39.9923 27.9062 40.0355 27.928 40.0598 27.996L42.4952 34.2003C42.506 34.2466 42.5519 34.233 42.5519 34.1895V28.0205C42.5519 27.9525 42.5978 27.909 42.6653 27.909H43.0244C43.0919 27.909 43.1351 27.9552 43.1351 28.0205V35.7045C43.1351 35.7725 43.0892 35.8187 43.0244 35.8187H42.6302C42.5735 35.8187 42.5303 35.797 42.506 35.729L40.0733 29.5138C40.0625 29.4675 40.0166 29.4784 40.0166 29.5247L40.0274 35.7045C40.0274 35.7725 39.9815 35.8187 39.9167 35.8187H39.5468C39.4739 35.816 39.4307 35.7698 39.4307 35.7018Z" fill="white"/>
    <path d="M60.8092 28.0178V28.3224C60.8092 28.3904 60.7633 28.4367 60.6958 28.4367H59.2027C59.1811 28.4367 59.1568 28.4584 59.1568 28.4829V35.7045C59.1568 35.7725 59.1109 35.8187 59.0434 35.8187H58.6735C58.606 35.8187 58.5601 35.7725 58.5601 35.7045V28.4829C58.5601 28.4611 58.5385 28.4367 58.5142 28.4367H57.1129C57.0454 28.4367 56.9995 28.3904 56.9995 28.3224V28.0178C56.9995 27.9498 57.0454 27.9062 57.1129 27.9062H60.6904C60.7633 27.9062 60.8092 27.9498 60.8092 28.0178Z" fill="white"/>
    <path d="M74.6145 33.7706V28.0178C74.6145 27.9498 74.6604 27.9062 74.7279 27.9062H75.0978C75.1653 27.9062 75.2112 27.9525 75.2112 28.0178V33.8386C75.2112 34.7525 75.7053 35.3754 76.4559 35.3754C77.2065 35.3754 77.7222 34.7525 77.7222 33.8386V28.0178C77.7222 27.9498 77.7681 27.9062 77.8356 27.9062H78.2055C78.273 27.9062 78.3189 27.9525 78.3189 28.0178V33.7706C78.3189 35.0599 77.5683 35.9058 76.4559 35.9058C75.3435 35.9058 74.6145 35.0599 74.6145 33.7706Z" fill="white"/>
    <path d="M95.6231 35.726L94.3892 32.122C94.3784 32.0867 94.3676 32.0867 94.3433 32.0867H93.2336C93.212 32.0867 93.1877 32.1084 93.1877 32.1329V35.7043C93.1877 35.7723 93.1418 35.8185 93.077 35.8185H92.7071C92.6396 35.8185 92.5964 35.7723 92.5964 35.7043V27.9985C92.5964 27.9305 92.6423 27.8843 92.7071 27.8843H94.4459C95.4989 27.8843 96.1955 28.7438 96.1955 30.0086C96.1955 31.0476 95.7257 31.782 94.9724 32.0214C94.9373 32.0323 94.9265 32.054 94.9373 32.0785L96.2171 35.6934C96.2387 35.7723 96.2063 35.8185 96.128 35.8185H95.7581C95.7014 35.8158 95.6474 35.7832 95.6231 35.726ZM93.1904 28.4691V31.5427C93.1904 31.5644 93.212 31.5889 93.2363 31.5889H94.3811C95.1101 31.5889 95.6042 30.966 95.6042 30.0168C95.6042 29.0457 95.1101 28.4228 94.3811 28.4228H93.2363C93.212 28.4256 93.1904 28.4473 93.1904 28.4691Z" fill="white"/>
    <path d="M113.367 28.4369H110.708C110.686 28.4369 110.662 28.4586 110.662 28.4831V31.5458C110.662 31.5676 110.684 31.5921 110.708 31.5921H112.414C112.482 31.5921 112.525 31.6383 112.525 31.7036V32.0082C112.525 32.0762 112.479 32.1225 112.414 32.1225H110.708C110.686 32.1225 110.662 32.1442 110.662 32.1687V35.2423C110.662 35.2641 110.684 35.2885 110.708 35.2885H113.367C113.435 35.2885 113.478 35.3348 113.478 35.4001V35.7047C113.478 35.7727 113.432 35.8189 113.367 35.8189H110.181C110.114 35.8189 110.071 35.7727 110.071 35.7047V28.0207C110.071 27.9527 110.117 27.9092 110.181 27.9092H113.367C113.435 27.9092 113.478 27.9554 113.478 28.0207V28.3253C113.481 28.3906 113.435 28.4369 113.367 28.4369Z" fill="white"/>
    <path d="M127.175 33.9282V33.6807C127.175 33.6127 127.221 33.5692 127.289 33.5692H127.648C127.715 33.5692 127.761 33.6154 127.761 33.6807V33.9065C127.761 34.7986 128.266 35.3862 128.963 35.3862C129.659 35.3862 130.186 34.8204 130.186 33.9636C130.186 33.0823 129.624 32.6988 128.774 32.0542C127.877 31.3769 127.181 30.8438 127.181 29.6823C127.181 28.4964 127.91 27.8164 128.909 27.8164C129.997 27.8164 130.704 28.6188 130.704 29.8292V30.1121C130.704 30.1801 130.658 30.2263 130.593 30.2263H130.234C130.167 30.2263 130.121 30.1801 130.121 30.1121V29.8292C130.121 28.937 129.627 28.3386 128.909 28.3386C128.258 28.3386 127.764 28.8119 127.764 29.6932C127.764 30.4847 128.169 30.8465 129.098 31.5455C130.232 32.3942 130.769 32.8348 130.769 33.8847C130.769 35.1278 130.018 35.9084 128.973 35.9084C127.915 35.9057 127.175 35.1142 127.175 33.9282Z" fill="white"/>
    <path d="M65.2239 25.1998C65.2239 24.9142 65.2239 24.6286 65.2266 24.343C65.4723 24.2315 65.7207 24.1227 65.9664 24.0111C66.933 23.5814 67.8996 23.1543 68.8662 22.7246C68.8824 22.7191 68.9067 22.7164 68.9067 22.6974C68.9067 22.6756 68.8824 22.6756 68.8689 22.6675C68.7015 22.575 68.5314 22.4798 68.3532 22.3819C68.4207 22.3519 68.4774 22.3247 68.5368 22.3003C68.7393 22.2105 68.9445 22.1207 69.147 22.0283C69.174 22.0174 69.1956 22.0147 69.2199 22.0283C69.3954 22.118 69.5709 22.2051 69.7464 22.2921C69.7761 22.3057 69.7869 22.322 69.7869 22.3574C69.7842 22.6131 69.7842 22.866 69.7869 23.1217C69.7869 23.1598 69.7734 23.1788 69.741 23.1924C69.1011 23.4753 68.4612 23.7609 67.8213 24.0438C67.2408 24.3022 66.663 24.5606 66.0717 24.8217C66.2553 24.9251 66.4308 25.023 66.6144 25.1291C66.528 25.1671 66.447 25.2052 66.366 25.2406C66.1905 25.3195 66.015 25.3983 65.8368 25.4745C65.8179 25.4827 65.8017 25.4935 65.7774 25.4827C65.5938 25.3875 65.4075 25.2923 65.2239 25.1998Z" fill="white"/>
    <path d="M65.2266 23.7633C65.2266 23.2791 65.2266 22.795 65.2266 22.3108C65.4453 22.1993 65.6613 22.0905 65.88 21.979C65.8989 21.9708 65.9124 21.9708 65.9286 21.9817C66.4389 22.2401 66.9519 22.4985 67.4622 22.7596C67.4649 22.7623 67.4676 22.765 67.4757 22.7705C67.3812 22.814 67.2867 22.8575 67.1949 22.8983C67.0464 22.9663 66.8979 23.0316 66.7494 23.0996C66.7224 23.1105 66.7062 23.1105 66.6819 23.0969C66.4497 22.9718 66.2148 22.8466 65.9799 22.7215C65.9637 22.7134 65.9448 22.7052 65.9286 22.6943C65.9124 22.7106 65.9205 22.7297 65.9205 22.746C65.9232 22.9663 65.9232 23.1866 65.9286 23.4097C65.9286 23.445 65.9205 23.4668 65.8854 23.4831C65.664 23.5702 65.4453 23.6681 65.2266 23.7633Z" fill="white"/>
    <path d="M69.7869 23.7256C69.7869 23.7718 69.7896 23.8181 69.7896 23.8643C69.7896 24.3022 69.7896 24.7401 69.7896 25.1781C69.5709 25.2896 69.3522 25.4011 69.1335 25.5126C69.1146 25.5208 69.1011 25.5208 69.0849 25.5099C68.5746 25.2515 68.0616 24.9931 67.5513 24.7347C67.5486 24.732 67.5459 24.7293 67.5405 24.7211C67.6296 24.6803 67.716 24.6422 67.8051 24.6041C67.9563 24.5389 68.1048 24.4709 68.256 24.4056C68.2803 24.3947 68.3019 24.3947 68.3262 24.4083C68.5665 24.5334 68.8068 24.6585 69.0444 24.7837C69.0606 24.7918 69.0768 24.8 69.093 24.8081C69.1092 24.7918 69.1011 24.7728 69.1011 24.7565C69.0984 24.5307 69.0957 24.3049 69.0903 24.0792C69.0903 24.0493 69.093 24.0302 69.1254 24.0166C69.3441 23.9214 69.5655 23.8208 69.7869 23.7256Z" fill="white"/>
    <path d="M66.3445 21.7398C66.7252 21.5467 67.1005 21.3563 67.4785 21.1659C67.4974 21.155 67.5136 21.155 67.5325 21.1659C67.9159 21.3672 68.302 21.5657 68.6854 21.767C68.6908 21.7697 68.6935 21.7724 68.6989 21.7779C68.6881 21.7969 68.6692 21.7996 68.6557 21.8051C68.4127 21.9139 68.167 22.0227 67.924 22.1315C67.897 22.1451 67.8727 22.1451 67.8457 22.1288C67.7485 22.0771 67.6459 22.0281 67.5487 21.9764C67.519 21.9601 67.4947 21.9574 67.465 21.9737C67.3624 22.0281 67.2598 22.0771 67.1572 22.1288C67.1383 22.1396 67.1221 22.1396 67.1032 22.1315C66.8548 22.0064 66.6064 21.8812 66.3607 21.7561C66.3526 21.7507 66.3499 21.748 66.3445 21.7398Z" fill="white"/>
    <path d="M66.3308 25.7466C66.5765 25.6378 66.8195 25.5317 67.0571 25.4229C67.1057 25.4011 67.1435 25.4011 67.1894 25.4256C67.2812 25.4746 67.3757 25.5181 67.4675 25.567C67.4918 25.5806 67.5107 25.5806 67.5377 25.5698C67.67 25.5099 67.805 25.4555 67.9373 25.3957C67.9589 25.3875 67.9751 25.3766 68.0021 25.3902C68.237 25.5072 68.4692 25.6242 68.7041 25.7384C68.7041 25.7547 68.6879 25.7574 68.6798 25.7629C68.2991 25.9478 67.9184 26.1301 67.5377 26.315C67.5161 26.3259 67.4972 26.3314 67.4729 26.3178C67.0976 26.1301 66.7223 25.9451 66.347 25.7602C66.3416 25.7574 66.3389 25.752 66.3308 25.7466Z" fill="white"/>
    <path d="M63.3231 23.2715H4.23633V24.2099H63.3231V23.2715Z" fill="white"/>
    <path d="M130.78 23.2715H71.6931V24.2099H130.78V23.2715Z" fill="white"/>
</svg>
