<svg width="382" height="78" viewBox="0 0 382 78" fill="none" xmlns="http://www.w3.org/2000/svg">
<path d="M85.9999 49.3637H80.0999L79.5999 36.5637L72.1999 46.9637H71.3999L63.9999 36.5637L63.2999 49.3637H57.3999L58.7999 24.2637H60.4999L71.6999 39.2637L82.7999 24.2637H84.4999L85.9999 49.3637Z" fill="#FEFEFE"/>
<path d="M105.1 32.9638C106.4 34.1638 107.1 36.0638 107.1 38.6638V48.5638C103.9 49.4638 100.9 49.9638 98.1998 49.9638C92.2998 49.9638 89.2998 48.0638 89.2998 44.1638C89.2998 40.3638 92.2998 38.5638 97.2998 38.5638C98.2998 38.5638 99.6998 38.6638 101.7 38.9638V38.5638C101.7 37.3638 101.4 36.5638 100.7 36.1638C99.9998 35.7638 98.8998 35.5638 97.3998 35.5638C95.5998 35.5638 93.6998 35.8638 91.6998 36.3638L91.0998 32.4638C93.7998 31.7638 96.1998 31.3638 98.4998 31.3638C101.6 31.2638 103.8 31.8638 105.1 32.9638ZM98.3998 45.9638C99.4998 45.9638 100.6 45.8638 101.7 45.7638V42.2638C100.3 42.0638 99.0998 41.9638 98.0998 41.9638C95.7998 41.9638 94.5998 42.6638 94.5998 43.9638C94.5998 45.3638 95.6998 45.9638 98.3998 45.9638Z" fill="#FEFEFE"/>
<path d="M123.6 31.7638L122.7 35.9638C121.2 35.6638 119.9 35.5638 118.7 35.6638C118.2 35.6638 117.4 35.8638 116.4 36.0638V49.3638H111V33.3638C114.1 31.9638 117.1 31.2638 119.9 31.2638C121.5 31.1638 122.7 31.3638 123.6 31.7638Z" fill="#FEFEFE"/>
<path d="M139 49.3637L134 41.3637H132V49.3637H126.6V22.0637L132 21.7637V37.1637H134.1L138.9 31.7637H144.9L138.2 39.0637L145.2 49.4637H139V49.3637Z" fill="#FEFEFE"/>
<path d="M151.3 41.9638C151.7 44.4638 153.5 45.6638 156.7 45.6638C158.3 45.6638 160.3 45.3638 162.7 44.8638L163.3 48.3638C162.6 48.7638 161.5 49.0638 160.2 49.3638C158.9 49.6638 157.5 49.8638 156.1 49.8638C153 49.8638 150.5 48.9638 148.6 47.2638C146.8 45.5638 145.8 43.3638 145.8 40.6638C145.8 37.9638 146.7 35.6638 148.5 33.9638C150.3 32.1638 152.6 31.3638 155.5 31.3638C158.2 31.3638 160.3 32.1638 162 33.6638C163.7 35.2638 164.5 37.2638 164.5 39.6638C164.5 40.4638 164.4 41.2638 164.3 41.9638H151.3ZM159.2 38.4638C159.2 37.6638 158.9 36.8638 158.3 36.2638C157.7 35.6638 156.7 35.3638 155.3 35.3638C153.2 35.3638 151.8 36.3638 151.3 38.4638H159.2Z" fill="#FEFEFE"/>
<path d="M179.7 44.9639L180.1 48.7639C178.3 49.3639 176.5 49.6639 174.7 49.6639C173.1 49.6639 171.8 49.1639 170.8 48.2639C169.8 47.3639 169.4 45.8639 169.4 43.8639V35.6639H166.6L166.9 31.6639H169.4V27.1639L174.8 26.4639V31.6639H180.2L179.9 35.6639H174.8V43.2639C174.8 44.5639 175.3 45.0639 176.7 45.0639C177.6 45.1639 178.6 45.1639 179.7 44.9639Z" fill="#FEFEFE"/>
<path d="M220.5 49.3637H214.6L214.1 36.5637L206.7 46.9637H205.9L198.6 36.5637L197.9 49.3637H192L193.4 24.2637H195.1L206.3 39.2637L217.4 24.2637H219.1L220.5 49.3637Z" fill="#FEFEFE"/>
<path d="M239.6 32.9638C240.9 34.1638 241.6 36.0638 241.6 38.6638V48.5638C238.4 49.4638 235.4 49.9638 232.7 49.9638C226.8 49.9638 223.8 48.0638 223.8 44.1638C223.8 40.3638 226.8 38.5638 231.8 38.5638C232.8 38.5638 234.2 38.6638 236.2 38.9638V38.5638C236.2 37.3638 235.9 36.5638 235.2 36.1638C234.5 35.7638 233.4 35.5638 231.9 35.5638C230.1 35.5638 228.2 35.8638 226.2 36.3638L225.6 32.4638C228.3 31.7638 230.7 31.3638 233 31.3638C236.1 31.2638 238.3 31.8638 239.6 32.9638ZM232.9 45.9638C234 45.9638 235.1 45.8638 236.2 45.7638V42.2638C234.8 42.0638 233.6 41.9638 232.6 41.9638C230.3 41.9638 229.1 42.6638 229.1 43.9638C229.2 45.3638 230.3 45.9638 232.9 45.9638Z" fill="#FEFEFE"/>
<path d="M258.1 49.3637L253.1 41.3637H251.1V49.3637H245.7V22.0637L251.1 21.7637V37.1637H253.2L258 31.7637H264L257.3 39.0637L264.3 49.4637H258.1V49.3637Z" fill="#FEFEFE"/>
<path d="M272.3 28.6637H266.8V23.2637H272.3V28.6637ZM272.2 49.3637H266.8V31.7637H272.2V49.3637Z" fill="#FEFEFE"/>
<path d="M294.2 37.8635V49.3635H288.8V39.0635C288.8 37.7635 288.6 36.8635 288.3 36.3635C287.9 35.8635 287.2 35.5635 286 35.5635C284.7 35.5635 283.4 35.7635 281.9 36.0635V49.4635H276.5V33.4635C279.8 32.0635 283.1 31.3635 286.6 31.3635C291.4 31.2635 294.2 33.5635 294.2 37.8635Z" fill="#FEFEFE"/>
<path d="M316 51.4639C316 53.3639 315.1 54.9639 313.2 56.1639C311.3 57.3639 308.8 57.9639 305.6 57.9639C302.8 57.9639 300.5 57.4639 298.9 56.5639C297.2 55.5639 296.4 54.3639 296.4 52.8639C296.4 51.2639 297.3 49.9639 299 48.8639C298.4 48.2639 298 47.3639 298 46.3639C298 45.0639 298.7 43.9639 300.2 43.0639C298.7 41.8639 297.9 40.1639 297.9 38.0639C297.9 35.9639 298.7 34.2639 300.2 33.0639C301.7 31.8639 303.7 31.2639 306.2 31.2639C307.3 31.2639 308.4 31.3639 309.4 31.6639C310.1 28.8639 311.8 27.4639 314.4 27.4639H315.6L315.7 31.6639H314.6C313.5 31.6639 312.7 32.1639 312.3 33.1639C313.6 34.3639 314.3 35.9639 314.3 37.9639C314.3 40.0639 313.6 41.6639 312.1 42.8639C310.6 44.0639 308.6 44.7639 306.1 44.7639C305 44.7639 303.9 44.6639 303 44.3639C302.7 44.5639 302.6 44.8639 302.6 45.2639C302.6 45.7639 302.9 46.0639 303.6 46.1639C303.7 46.1639 304.6 46.2639 306.1 46.3639C307.6 46.5639 309.2 46.6639 310.7 46.8639C314.2 47.2639 316 48.7639 316 51.4639ZM310.6 52.1639C310.6 51.2639 310 50.8639 308.6 50.6639L302.6 50.0639C302 50.6639 301.6 51.2639 301.6 51.8639C301.6 53.1639 303 54.0639 305.9 54.0639C309 54.0639 310.6 53.3639 310.6 52.1639ZM303.3 38.0639C303.3 39.8639 304.4 40.9639 306 40.9639C307.8 40.9639 308.7 39.8639 308.7 38.0639C308.7 36.2639 307.8 35.3639 306 35.3639C304.2 35.2639 303.3 36.3639 303.3 38.0639Z" fill="#FEFEFE"/>
<path d="M345.6 31.5636C345.6 34.2636 344.7 36.4636 342.8 38.1636C340.9 39.8636 338.2 40.7636 334.7 40.7636C333.8 40.7636 332.8 40.7636 331.6 40.6636V49.3636H328.2V24.3636C328.7 24.3636 330 24.2636 332.1 24.2636C334.2 24.1636 335.6 24.1636 336.3 24.1636C342.5 24.1636 345.7 26.5636 345.6 31.5636ZM342.1 31.7636C342.1 30.0636 341.6 28.8636 340.7 28.1636C339.8 27.4636 338.2 27.0636 335.9 27.0636C335.6 27.0636 334.1 27.1636 331.6 27.2636V37.5636C332.9 37.6636 334 37.6636 334.9 37.6636C339.7 37.6636 342.1 35.6636 342.1 31.7636Z" fill="#FEFEFE"/>
<path d="M360.4 31.6638L360.3 34.6638C358.8 34.4638 357.4 34.4638 356.2 34.5638C355.4 34.6638 354.3 34.8638 353 35.3638V49.4638H349.7V33.6638C351.3 32.8638 352.8 32.2638 354 31.8638C355.2 31.5638 356.6 31.3638 358 31.3638C358.4 31.3638 359.2 31.4638 360.4 31.6638Z" fill="#FEFEFE"/>
<path d="M365.2 47.1639C363.4 45.4639 362.5 43.2639 362.5 40.5639C362.5 37.9639 363.4 35.7639 365.3 34.0639C367.1 32.2639 369.4 31.4639 372.1 31.4639C374.9 31.4639 377.3 32.3639 379 34.0639C380.8 35.7639 381.7 37.9639 381.7 40.6639C381.7 43.2639 380.8 45.4639 378.9 47.1639C377 48.9639 374.8 49.7639 372.1 49.7639C369.2 49.7639 366.9 48.8639 365.2 47.1639ZM372.1 46.9639C373.9 46.9639 375.4 46.3639 376.6 45.1639C377.7 43.9639 378.3 42.4639 378.3 40.6639C378.3 38.8639 377.7 37.3639 376.6 36.1639C375.5 34.9639 374 34.3639 372.1 34.3639C370.2 34.3639 368.7 34.9639 367.6 36.1639C366.5 37.3639 365.9 38.8639 365.9 40.6639C365.9 42.4639 366.5 43.9639 367.6 45.1639C368.8 46.3639 370.3 46.9639 372.1 46.9639Z" fill="#FEFEFE"/>
<path d="M37 22.6635V12.2635H36.4V22.6635H32L25.3 29.3635V9.36348H21V0.281738H20.4V9.36348H16V29.3635L9.3 22.6635H4.9V12.2635H4.3V22.6635H0V49.5635H4.3V64.1635H4.9V49.5635H9.3V33.7635L16 40.4635V57.4635H20.4V77.6635H21V57.4635H25.3V40.4635L32 33.7635V49.5635H36.4V64.1635H37V49.5635H41.3V22.6635H37Z" fill="#33CC66"/>
</svg>
