<svg width="295" height="80" viewBox="0 0 295 80" fill="none" xmlns="http://www.w3.org/2000/svg">
<g clip-path="url(#clip0_2685:11099)">
<path d="M109.334 6.20557H120.099C122.671 6.20557 124.939 6.70104 126.903 7.69196C128.889 8.66038 130.423 10.0342 131.507 11.8133C132.613 13.5925 133.165 15.6644 133.165 18.0292C133.165 20.3939 132.613 22.4658 131.507 24.245C130.423 26.0242 128.889 27.4092 126.903 28.4001C124.939 29.3686 122.671 29.8528 120.099 29.8528H109.334V6.20557ZM119.828 25.3598C122.197 25.3598 124.082 24.7067 125.481 23.4004C126.903 22.0717 127.614 20.2813 127.614 18.0292C127.614 15.7771 126.903 13.9979 125.481 12.6917C124.082 11.3629 122.197 10.6985 119.828 10.6985H114.818V25.3598H119.828Z" fill="white"/>
<path d="M147.829 30.2581C144.444 30.2581 141.804 29.3235 139.908 27.4542C138.035 25.585 137.098 22.9163 137.098 19.448V6.20557H142.582V19.2453C142.582 23.4793 144.342 25.5963 147.863 25.5963C149.578 25.5963 150.887 25.0895 151.79 24.0761C152.693 23.0401 153.144 21.4299 153.144 19.2453V6.20557H158.56V19.448C158.56 22.9163 157.612 25.585 155.717 27.4542C153.844 29.3235 151.214 30.2581 147.829 30.2581Z" fill="white"/>
<path d="M171.765 30.2582C169.892 30.2582 168.075 30.0105 166.315 29.515C164.577 28.9971 163.178 28.3327 162.117 27.5219L163.979 23.4006C164.995 24.1437 166.202 24.7406 167.601 25.191C169.001 25.6414 170.4 25.8666 171.799 25.8666C173.356 25.8666 174.507 25.6414 175.252 25.191C175.996 24.718 176.369 24.0987 176.369 23.333C176.369 22.77 176.143 22.3083 175.692 21.9479C175.263 21.5651 174.699 21.2611 173.999 21.0358C173.322 20.8106 172.397 20.5629 171.223 20.2926C169.418 19.8648 167.94 19.4368 166.789 19.0089C165.638 18.5811 164.645 17.8941 163.81 16.9483C162.997 16.0024 162.591 14.7412 162.591 13.1647C162.591 11.7909 162.963 10.5523 163.708 9.44872C164.453 8.32267 165.57 7.4331 167.06 6.77996C168.572 6.12686 170.411 5.80029 172.577 5.80029C174.09 5.80029 175.568 5.98048 177.012 6.3408C178.456 6.70115 179.72 7.21912 180.803 7.89476L179.111 12.0499C176.922 10.8113 174.733 10.1919 172.544 10.1919C171.009 10.1919 169.869 10.4397 169.124 10.9351C168.402 11.4306 168.041 12.0837 168.041 12.8944C168.041 13.7052 168.459 14.3133 169.294 14.7187C170.152 15.1015 171.449 15.4844 173.187 15.8672C174.992 16.2951 176.47 16.7231 177.621 17.1509C178.772 17.5789 179.754 18.2545 180.566 19.1778C181.401 20.1012 181.819 21.3512 181.819 22.9276C181.819 24.2789 181.435 25.5175 180.668 26.6436C179.923 27.7471 178.795 28.6255 177.283 29.2786C175.771 29.9317 173.931 30.2582 171.765 30.2582Z" fill="white"/>
<path d="M190.144 10.6648H182.562V6.20557H203.211V10.6648H195.628V29.8528H190.144V10.6648Z" fill="white"/>
<path d="M127.655 44.8008L119.801 62.7051H116.484L108.63 44.8008H112.016L118.177 59.158L124.473 44.8008H127.655Z" fill="white"/>
<path d="M146.407 53.8537C146.407 54.1014 146.385 54.428 146.339 54.8334H131.783C131.986 56.4097 132.675 57.6822 133.848 58.6507C135.044 59.5966 136.522 60.0696 138.282 60.0696C140.427 60.0696 142.153 59.3487 143.462 57.9075L145.256 60.002C144.443 60.9479 143.428 61.6685 142.209 62.164C141.013 62.6593 139.67 62.9072 138.181 62.9072C136.285 62.9072 134.604 62.5242 133.137 61.7587C131.67 60.9702 130.53 59.878 129.718 58.4818C128.928 57.0853 128.533 55.509 128.533 53.7524C128.533 52.0181 128.917 50.453 129.684 49.0567C130.474 47.6602 131.546 46.5792 132.9 45.8137C134.277 45.0253 135.823 44.6313 137.538 44.6313C139.253 44.6313 140.776 45.0253 142.108 45.8137C143.462 46.5792 144.511 47.6602 145.256 49.0567C146.023 50.453 146.407 52.0518 146.407 53.8537ZM137.538 47.3677C135.981 47.3677 134.672 47.8406 133.611 48.7865C132.573 49.7324 131.964 50.9708 131.783 52.5025H143.293C143.112 50.9935 142.492 49.7662 141.431 48.8203C140.393 47.8518 139.095 47.3677 137.538 47.3677Z" fill="white"/>
<path d="M160.499 44.6313C162.779 44.6313 164.584 45.2955 165.916 46.6245C167.27 47.9305 167.947 49.856 167.947 52.4011V62.7045H164.697V52.7727C164.697 51.0384 164.28 49.7324 163.445 48.8541C162.61 47.9757 161.413 47.5366 159.856 47.5366C158.096 47.5366 156.708 48.0545 155.693 49.0905C154.677 50.104 154.169 51.5678 154.169 53.4821V62.7045H150.919V44.8003H154.034V47.5028C154.688 46.5792 155.569 45.8698 156.674 45.3745C157.803 44.879 159.078 44.6313 160.499 44.6313Z" fill="white"/>
<path d="M184.049 61.6581C183.575 62.0634 182.988 62.3786 182.289 62.604C181.589 62.8066 180.867 62.908 180.122 62.908C178.317 62.908 176.918 62.4236 175.925 61.4554C174.932 60.4869 174.435 59.1018 174.435 57.3002V47.4698H171.389V44.801H174.435V40.8823H177.685V44.801H182.831V47.4698H177.685V57.1651C177.685 58.1333 177.922 58.8765 178.396 59.3947C178.893 59.9126 179.592 60.1717 180.495 60.1717C181.488 60.1717 182.334 59.8899 183.034 59.3271L184.049 61.6581Z" fill="white"/>
<path d="M204.701 44.8008V62.7051H201.62V60.0025C200.966 60.9258 200.097 61.6464 199.014 62.1646C197.953 62.6598 196.791 62.9078 195.527 62.9078C193.135 62.9078 191.25 62.2544 189.874 60.9484C188.497 59.6195 187.809 57.6716 187.809 55.1042V44.8008H191.059V54.7326C191.059 56.4666 191.476 57.7841 192.311 58.6851C193.146 59.5634 194.342 60.0025 195.899 60.0025C197.614 60.0025 198.968 59.4843 199.962 58.4486C200.954 57.4125 201.451 55.9487 201.451 54.057V44.8008H204.701Z" fill="white"/>
<path d="M214.002 47.8068C214.566 46.7707 215.401 45.9826 216.507 45.4421C217.613 44.9016 218.955 44.6313 220.535 44.6313V47.773C220.354 47.7504 220.106 47.7393 219.79 47.7393C218.03 47.7393 216.642 48.2683 215.626 49.327C214.634 50.3628 214.137 51.8492 214.137 53.7862V62.7045H210.887V44.8003H214.002V47.8068Z" fill="white"/>
<path d="M240.59 53.8537C240.59 54.1014 240.567 54.428 240.522 54.8334H225.966C226.169 56.4097 226.857 57.6822 228.031 58.6507C229.227 59.5966 230.705 60.0696 232.466 60.0696C234.609 60.0696 236.336 59.3487 237.645 57.9075L239.439 60.002C238.627 60.9479 237.611 61.6685 236.392 62.164C235.196 62.6593 233.854 62.9072 232.364 62.9072C230.468 62.9072 228.787 62.5242 227.32 61.7587C225.853 60.9702 224.714 59.878 223.901 58.4818C223.111 57.0853 222.716 55.509 222.716 53.7524C222.716 52.0181 223.1 50.453 223.867 49.0567C224.657 47.6602 225.729 46.5792 227.083 45.8137C228.46 45.0253 230.006 44.6313 231.721 44.6313C233.436 44.6313 234.959 45.0253 236.291 45.8137C237.645 46.5792 238.694 47.6602 239.439 49.0567C240.206 50.453 240.59 52.0518 240.59 53.8537ZM231.721 47.3677C230.164 47.3677 228.855 47.8406 227.794 48.7865C226.756 49.7324 226.147 50.9708 225.966 52.5025H237.476C237.295 50.9935 236.674 49.7662 235.614 48.8203C234.576 47.8518 233.278 47.3677 231.721 47.3677Z" fill="white"/>
<path d="M250.248 62.9072C248.781 62.9072 247.371 62.7157 246.017 62.333C244.662 61.9276 243.602 61.4208 242.834 60.8128L244.189 58.2454C244.978 58.8082 245.938 59.2588 247.066 59.5966C248.194 59.9344 249.334 60.1034 250.485 60.1034C253.329 60.1034 254.75 59.2926 254.75 57.6711C254.75 57.1306 254.559 56.7026 254.175 56.3874C253.791 56.0719 253.306 55.8469 252.719 55.7117C252.155 55.554 251.342 55.3851 250.282 55.205C248.837 54.9797 247.653 54.7206 246.727 54.428C245.825 54.1352 245.046 53.6396 244.392 52.9416C243.737 52.2434 243.41 51.2637 243.41 50.0026C243.41 48.3811 244.087 47.0859 245.441 46.1177C246.795 45.1266 248.612 44.6313 250.891 44.6313C252.087 44.6313 253.283 44.7776 254.479 45.0705C255.675 45.3631 256.657 45.7573 257.425 46.2529L256.037 48.8203C254.57 47.8744 252.843 47.4014 250.857 47.4014C249.481 47.4014 248.432 47.6264 247.709 48.0771C246.987 48.5274 246.626 49.1243 246.626 49.8675C246.626 50.453 246.829 50.9147 247.235 51.2526C247.641 51.5904 248.138 51.838 248.725 51.9958C249.334 52.1532 250.18 52.3336 251.264 52.5363C252.708 52.7839 253.87 53.0541 254.75 53.347C255.653 53.6173 256.42 54.0902 257.052 54.7659C257.684 55.4415 258 56.3874 258 57.6035C258 59.225 257.3 60.5199 255.901 61.4884C254.524 62.4343 252.64 62.9072 250.248 62.9072Z" fill="white"/>
<path d="M3.92484 37.8407C2.26849 36.7823 1.3683 36.3159 0 35.3291C2.90472 33.0183 5.60888 30.4677 8.08375 27.7043C10.6043 25.1388 12.9628 22.4297 15.2853 19.7566C20.6865 13.5311 25.9256 7.62864 32.479 3.8252C42.0817 13.6084 31.5224 12.3687 32.1293 21.9514C29.9176 24.723 28.4951 28.0366 28.0109 31.5446C27.5267 35.0526 27.9986 38.6257 29.377 41.8895C30.7556 45.1533 32.9899 47.9873 35.8458 50.0945C24.2153 48.2284 11.5765 42.0749 3.92484 37.8407Z" fill="white"/>
<path d="M48.4865 49.2949C45.5042 49.4917 42.5308 48.8021 39.9429 47.3136C37.3552 45.825 35.2691 43.6044 33.9489 40.9328C32.6287 38.2613 32.134 35.2588 32.5268 32.3055C32.9197 29.3522 34.1828 26.5809 36.1564 24.3423C51.8645 26.9351 39.9429 39.9519 48.4865 49.2949Z" fill="white"/>
<path d="M62.5634 64.6804C55.466 68.8008 47.0826 70.1375 39.0495 68.4289C31.0164 66.7206 23.9108 62.0897 19.12 55.4409C17.0136 52.5168 14.619 49.3233 11.9185 46.1655C26.1776 52.4269 43.7673 57.6835 54.3896 52.6959C65.8398 53.8987 51.2432 61.027 62.5634 64.6804Z" fill="white"/>
<path d="M39.4419 5.08544C39.4419 6.02686 38.6773 6.79002 37.7338 6.79002C36.7902 6.79002 36.0256 6.02686 36.0256 5.08544C36.0256 4.14402 36.7902 3.38086 37.7338 3.38086C38.6773 3.38086 39.4419 4.14402 39.4419 5.08544Z" fill="white"/>
<path d="M42.5475 2.76131C42.5475 3.27481 42.1304 3.69109 41.6158 3.69109C41.1012 3.69109 40.6841 3.27481 40.6841 2.76131C40.6841 2.24782 41.1012 1.83154 41.6158 1.83154C42.1304 1.83154 42.5475 2.24782 42.5475 2.76131Z" fill="white"/>
<path d="M38.8208 15.3135C38.8208 16.2549 38.0562 17.018 37.1127 17.018C36.1692 17.018 35.4045 16.2549 35.4045 15.3135C35.4045 14.372 36.1692 13.6089 37.1127 13.6089C38.0562 13.6089 38.8208 14.372 38.8208 15.3135Z" fill="white"/>
<path d="M34.7832 17.1729C34.7832 17.4296 34.5746 17.6378 34.3174 17.6378C34.0603 17.6378 33.8516 17.4296 33.8516 17.1729C33.8516 16.9162 34.0603 16.708 34.3174 16.708C34.5746 16.708 34.7832 16.9162 34.7832 17.1729Z" fill="white"/>
<path d="M38.1998 12.2138C38.1998 12.6417 37.8523 12.9886 37.4234 12.9886C36.9945 12.9886 36.647 12.6417 36.647 12.2138C36.647 11.7859 36.9945 11.439 37.4234 11.439C37.8523 11.439 38.1998 11.7859 38.1998 12.2138Z" fill="white"/>
<path d="M37.8892 8.34006C37.8892 8.6824 37.6113 8.95991 37.2681 8.95991C36.9249 8.95991 36.647 8.6824 36.647 8.34006C36.647 7.99772 36.9249 7.72021 37.2681 7.72021C37.6113 7.72021 37.8892 7.99772 37.8892 8.34006Z" fill="white"/>
<path d="M45.9637 12.3684C45.9637 12.7107 45.6857 12.9882 45.3426 12.9882C44.9994 12.9882 44.7214 12.7107 44.7214 12.3684C44.7214 12.026 44.9994 11.7485 45.3426 11.7485C45.6857 11.7485 45.9637 12.026 45.9637 12.3684Z" fill="white"/>
<path d="M46.5848 8.18497C46.5848 8.61288 46.2373 8.95978 45.8084 8.95978C45.3795 8.95978 45.032 8.61288 45.032 8.18497C45.032 7.75705 45.3795 7.41016 45.8084 7.41016C46.2373 7.41016 46.5848 7.75705 46.5848 8.18497Z" fill="white"/>
<path d="M48.7589 4.1558C48.7589 4.41254 48.5501 4.62069 48.293 4.62069C48.0358 4.62069 47.8271 4.41254 47.8271 4.1558C47.8271 3.89906 48.0358 3.69092 48.293 3.69092C48.5501 3.69092 48.7589 3.89906 48.7589 4.1558Z" fill="white"/>
<path d="M50.0011 0.901586C50.0011 1.24392 49.7231 1.52143 49.3799 1.52143C49.0367 1.52143 48.7588 1.24392 48.7588 0.901586C48.7588 0.559253 49.0367 0.281738 49.3799 0.281738C49.7231 0.281738 50.0011 0.559253 50.0011 0.901586Z" fill="white"/>
<path d="M51.8646 8.80473C51.8646 9.06147 51.6559 9.26961 51.3987 9.26961C51.1416 9.26961 50.9329 9.06147 50.9329 8.80473C50.9329 8.54799 51.1416 8.33984 51.3987 8.33984C51.6559 8.33984 51.8646 8.54799 51.8646 8.80473Z" fill="white"/>
<path d="M51.554 12.8335C51.554 13.0903 51.3453 13.2984 51.0882 13.2984C50.831 13.2984 50.6223 13.0903 50.6223 12.8335C50.6223 12.5768 50.831 12.3687 51.0882 12.3687C51.3453 12.3687 51.554 12.5768 51.554 12.8335Z" fill="white"/>
<path d="M45.032 1.6768C45.032 1.93355 44.8233 2.14169 44.5662 2.14169C44.309 2.14169 44.1003 1.93355 44.1003 1.6768C44.1003 1.42005 44.309 1.21191 44.5662 1.21191C44.8233 1.21191 45.032 1.42005 45.032 1.6768Z" fill="white"/>
<path d="M56.2125 6.6353C56.2125 6.89204 56.0038 7.10018 55.7466 7.10018C55.4895 7.10018 55.2808 6.89204 55.2808 6.6353C55.2808 6.37855 55.4895 6.17041 55.7466 6.17041C56.0038 6.17041 56.2125 6.37855 56.2125 6.6353Z" fill="white"/>
<path d="M59.9393 9.73442C59.9393 9.99116 59.7306 10.1993 59.4734 10.1993C59.2163 10.1993 59.0076 9.99116 59.0076 9.73442C59.0076 9.47768 59.2163 9.26953 59.4734 9.26953C59.7306 9.26953 59.9393 9.47768 59.9393 9.73442Z" fill="white"/>
<path d="M59.6287 12.0585C59.6287 12.2296 59.4896 12.3684 59.3181 12.3684C59.1467 12.3684 59.0076 12.2296 59.0076 12.0585C59.0076 11.8873 59.1467 11.7485 59.3181 11.7485C59.4896 11.7485 59.6287 11.8873 59.6287 12.0585Z" fill="white"/>
<path d="M65.8401 12.0585C65.8401 12.2296 65.701 12.3684 65.5296 12.3684C65.3581 12.3684 65.219 12.2296 65.219 12.0585C65.219 11.8873 65.3581 11.7485 65.5296 11.7485C65.701 11.7485 65.8401 11.8873 65.8401 12.0585Z" fill="white"/>
<path d="M76.0884 15.1581C76.0884 15.3292 75.9493 15.468 75.7778 15.468C75.6064 15.468 75.4673 15.3292 75.4673 15.1581C75.4673 14.9869 75.6064 14.8481 75.7778 14.8481C75.9493 14.8481 76.0884 14.9869 76.0884 15.1581Z" fill="white"/>
<path d="M79.8155 19.807C79.8155 19.9782 79.6763 20.1169 79.5049 20.1169C79.3335 20.1169 79.1943 19.9782 79.1943 19.807C79.1943 19.6358 79.3335 19.4971 79.5049 19.4971C79.6763 19.4971 79.8155 19.6358 79.8155 19.807Z" fill="white"/>
<path d="M60.2498 13.7632C60.2498 14.02 60.0411 14.2281 59.784 14.2281C59.5268 14.2281 59.3181 14.02 59.3181 13.7632C59.3181 13.5065 59.5268 13.2983 59.784 13.2983C60.0411 13.2983 60.2498 13.5065 60.2498 13.7632Z" fill="white"/>
<path d="M62.4236 8.80473C62.4236 9.06147 62.2149 9.26961 61.9578 9.26961C61.7006 9.26961 61.4919 9.06147 61.4919 8.80473C61.4919 8.54799 61.7006 8.33984 61.9578 8.33984C62.2149 8.33984 62.4236 8.54799 62.4236 8.80473Z" fill="white"/>
<path d="M64.5977 8.49467C64.5977 8.75141 64.389 8.95956 64.1319 8.95956C63.8747 8.95956 63.666 8.75141 63.666 8.49467C63.666 8.23793 63.8747 8.02979 64.1319 8.02979C64.389 8.02979 64.5977 8.23793 64.5977 8.49467Z" fill="white"/>
<path d="M76.7096 17.1723C76.7096 17.6002 76.362 17.9471 75.9332 17.9471C75.5043 17.9471 75.1567 17.6002 75.1567 17.1723C75.1567 16.7444 75.5043 16.3975 75.9332 16.3975C76.362 16.3975 76.7096 16.7444 76.7096 17.1723Z" fill="white"/>
<path d="M72.6724 10.9742C72.6724 11.2309 72.4637 11.439 72.2066 11.439C71.9494 11.439 71.7407 11.2309 71.7407 10.9742C71.7407 10.7174 71.9494 10.5093 72.2066 10.5093C72.4637 10.5093 72.6724 10.7174 72.6724 10.9742Z" fill="white"/>
<path d="M78.2628 18.4122C78.2628 18.6689 78.0541 18.877 77.7969 18.877C77.5398 18.877 77.3311 18.6689 77.3311 18.4122C77.3311 18.1554 77.5398 17.9473 77.7969 17.9473C78.0541 17.9473 78.2628 18.1554 78.2628 18.4122Z" fill="white"/>
<path d="M60.8709 3.84574C60.8709 4.10249 60.6622 4.31063 60.4051 4.31063C60.1479 4.31063 59.9392 4.10249 59.9392 3.84574C59.9392 3.589 60.1479 3.38086 60.4051 3.38086C60.6622 3.38086 60.8709 3.589 60.8709 3.84574Z" fill="white"/>
<path d="M42.2369 5.39542C42.2369 5.82333 41.8894 6.17022 41.4605 6.17022C41.0316 6.17022 40.6841 5.82333 40.6841 5.39542C40.6841 4.9675 41.0316 4.62061 41.4605 4.62061C41.8894 4.62061 42.2369 4.9675 42.2369 5.39542Z" fill="white"/>
<path d="M44.411 10.0444C44.411 11.6705 43.0902 12.9886 41.4606 12.9886C39.8311 12.9886 38.5103 11.6705 38.5103 10.0444C38.5103 8.4183 39.8311 7.1001 41.4606 7.1001C43.0902 7.1001 44.411 8.4183 44.411 10.0444Z" fill="white"/>
<path d="M46.5849 4.77587C46.5849 5.71729 45.8203 6.48045 44.8768 6.48045C43.9333 6.48045 43.1687 5.71729 43.1687 4.77587C43.1687 3.83445 43.9333 3.07129 44.8768 3.07129C45.8203 3.07129 46.5849 3.83445 46.5849 4.77587Z" fill="white"/>
<path d="M50.6221 10.6639C50.6221 11.7765 49.7183 12.6784 48.6034 12.6784C47.4885 12.6784 46.5847 11.7765 46.5847 10.6639C46.5847 9.55132 47.4885 8.64941 48.6034 8.64941C49.7183 8.64941 50.6221 9.55132 50.6221 10.6639Z" fill="white"/>
<path d="M55.2808 3.53572C55.2808 4.99063 54.0988 6.17007 52.641 6.17007C51.1832 6.17007 50.0012 4.99063 50.0012 3.53572C50.0012 2.08081 51.1832 0.901367 52.641 0.901367C54.0988 0.901367 55.2808 2.08081 55.2808 3.53572Z" fill="white"/>
<path d="M47.827 1.98672C47.827 2.41464 47.4795 2.76153 47.0506 2.76153C46.6217 2.76153 46.2742 2.41464 46.2742 1.98672C46.2742 1.55881 46.6217 1.21191 47.0506 1.21191C47.4795 1.21191 47.827 1.55881 47.827 1.98672Z" fill="white"/>
<path d="M48.7586 6.63516C48.7586 7.06307 48.4111 7.40997 47.9822 7.40997C47.5533 7.40997 47.2058 7.06307 47.2058 6.63516C47.2058 6.20725 47.5533 5.86035 47.9822 5.86035C48.4111 5.86035 48.7586 6.20725 48.7586 6.63516Z" fill="white"/>
<path d="M58.6969 3.07124C58.6969 3.75589 58.1407 4.31093 57.4547 4.31093C56.7686 4.31093 56.2124 3.75589 56.2124 3.07124C56.2124 2.38657 56.7686 1.83154 57.4547 1.83154C58.1407 1.83154 58.6969 2.38657 58.6969 3.07124Z" fill="white"/>
<path d="M58.0758 10.9741C58.0758 12.6001 56.755 13.9183 55.1254 13.9183C53.4959 13.9183 52.175 12.6001 52.175 10.9741C52.175 9.34798 53.4959 8.02979 55.1254 8.02979C56.755 8.02979 58.0758 9.34798 58.0758 10.9741Z" fill="white"/>
<path d="M40.3736 23.526C40.3736 24.0395 39.9566 24.4557 39.4419 24.4557C38.9273 24.4557 38.5103 24.0395 38.5103 23.526C38.5103 23.0125 38.9273 22.5962 39.4419 22.5962C39.9566 22.5962 40.3736 23.0125 40.3736 23.526Z" fill="white"/>
<path d="M56.5228 41.1913C56.5228 43.7587 54.437 45.8402 51.8643 45.8402C49.2916 45.8402 47.2058 43.7587 47.2058 41.1913C47.2058 38.6239 49.2916 36.5425 51.8643 36.5425C54.437 36.5425 56.5228 38.6239 56.5228 41.1913Z" fill="white"/>
<path d="M66.1506 59.7871C66.1506 61.6699 64.621 63.1962 62.7343 63.1962C60.8477 63.1962 59.3181 61.6699 59.3181 59.7871C59.3181 57.9043 60.8477 56.3779 62.7343 56.3779C64.621 56.3779 66.1506 57.9043 66.1506 59.7871Z" fill="white"/>
<path d="M65.2188 52.504C65.2188 53.9588 64.0368 55.1383 62.579 55.1383C61.1212 55.1383 59.9392 53.9588 59.9392 52.504C59.9392 51.0492 61.1212 49.8696 62.579 49.8696C64.0368 49.8696 65.2188 51.0492 65.2188 52.504Z" fill="white"/>
<path d="M70.4985 55.4479C70.4985 56.475 69.6643 57.3075 68.6351 57.3075C67.6059 57.3075 66.7717 56.475 66.7717 55.4479C66.7717 54.4208 67.6059 53.5884 68.6351 53.5884C69.6643 53.5884 70.4985 54.4208 70.4985 55.4479Z" fill="white"/>
<path d="M67.7035 52.3489C67.7035 52.6913 67.4255 52.9687 67.0823 52.9687C66.7391 52.9687 66.4612 52.6913 66.4612 52.3489C66.4612 52.0064 66.7391 51.729 67.0823 51.729C67.4255 51.729 67.7035 52.0064 67.7035 52.3489Z" fill="white"/>
<path d="M68.3246 58.7025C68.3246 59.1305 67.977 59.4774 67.5481 59.4774C67.1193 59.4774 66.7717 59.1305 66.7717 58.7025C66.7717 58.2745 67.1193 57.9277 67.5481 57.9277C67.977 57.9277 68.3246 58.2745 68.3246 58.7025Z" fill="white"/>
<path d="M73.2936 54.0535C73.2936 54.6526 72.8069 55.1382 72.2066 55.1382C71.6063 55.1382 71.1196 54.6526 71.1196 54.0535C71.1196 53.4544 71.6063 52.9688 72.2066 52.9688C72.8069 52.9688 73.2936 53.4544 73.2936 54.0535Z" fill="white"/>
<path d="M65.8399 55.758C65.8399 56.1005 65.562 56.3779 65.2188 56.3779C64.8756 56.3779 64.5977 56.1005 64.5977 55.758C64.5977 55.4156 64.8756 55.1382 65.2188 55.1382C65.562 55.1382 65.8399 55.4156 65.8399 55.758Z" fill="white"/>
<path d="M60.8709 55.9131C60.8709 56.1697 60.6622 56.378 60.4051 56.378C60.1479 56.378 59.9392 56.1697 59.9392 55.9131C59.9392 55.6565 60.1479 55.4482 60.4051 55.4482C60.6622 55.4482 60.8709 55.6565 60.8709 55.9131Z" fill="white"/>
<path d="M59.0074 52.1942C59.0074 52.6222 58.6599 52.9691 58.231 52.9691C57.8021 52.9691 57.4546 52.6222 57.4546 52.1942C57.4546 51.7662 57.8021 51.4194 58.231 51.4194C58.6599 51.4194 59.0074 51.7662 59.0074 52.1942Z" fill="white"/>
<path d="M65.2189 48.0102C65.2189 48.6948 64.6627 49.2499 63.9766 49.2499C63.2906 49.2499 62.7344 48.6948 62.7344 48.0102C62.7344 47.3256 63.2906 46.7705 63.9766 46.7705C64.6627 46.7705 65.2189 47.3256 65.2189 48.0102Z" fill="white"/>
<path d="M66.1507 50.3345C66.1507 50.5911 65.942 50.7994 65.6848 50.7994C65.4277 50.7994 65.219 50.5911 65.219 50.3345C65.219 50.0779 65.4277 49.8696 65.6848 49.8696C65.942 49.8696 66.1507 50.0779 66.1507 50.3345Z" fill="white"/>
<path d="M62.1131 48.7847C62.1131 49.0413 61.9044 49.2496 61.6472 49.2496C61.3901 49.2496 61.1814 49.0413 61.1814 48.7847C61.1814 48.5281 61.3901 48.3198 61.6472 48.3198C61.9044 48.3198 62.1131 48.5281 62.1131 48.7847Z" fill="white"/>
<path d="M66.1507 45.9956C66.1507 46.2523 65.942 46.4605 65.6848 46.4605C65.4277 46.4605 65.219 46.2523 65.219 45.9956C65.219 45.739 65.4277 45.5308 65.6848 45.5308C65.942 45.5308 66.1507 45.739 66.1507 45.9956Z" fill="white"/>
<path d="M70.4985 41.3467C70.4985 42.2882 69.7339 43.0512 68.7904 43.0512C67.8469 43.0512 67.0823 42.2882 67.0823 41.3467C67.0823 40.4051 67.8469 39.6421 68.7904 39.6421C69.7339 39.6421 70.4985 40.4051 70.4985 41.3467Z" fill="white"/>
<path d="M79.5049 45.6855C79.5049 46.6271 78.7402 47.3901 77.7967 47.3901C76.8532 47.3901 76.0886 46.6271 76.0886 45.6855C76.0886 44.744 76.8532 43.981 77.7967 43.981C78.7402 43.981 79.5049 44.744 79.5049 45.6855Z" fill="white"/>
<path d="M81.6788 43.5159C81.6788 44.115 81.1922 44.6006 80.5919 44.6006C79.9915 44.6006 79.5049 44.115 79.5049 43.5159C79.5049 42.9168 79.9915 42.4312 80.5919 42.4312C81.1922 42.4312 81.6788 42.9168 81.6788 43.5159Z" fill="white"/>
<path d="M83.5422 36.0777C83.5422 39.4156 80.831 42.1212 77.4862 42.1212C74.1414 42.1212 71.4302 39.4156 71.4302 36.0777C71.4302 32.7398 74.1414 30.0342 77.4862 30.0342C80.831 30.0342 83.5422 32.7398 83.5422 36.0777Z" fill="white"/>
<path d="M73.9147 26.7802C73.9147 28.4063 72.5938 29.7245 70.9643 29.7245C69.3348 29.7245 68.0139 28.4063 68.0139 26.7802C68.0139 25.1541 69.3348 23.8359 70.9643 23.8359C72.5938 23.8359 73.9147 25.1541 73.9147 26.7802Z" fill="white"/>
<path d="M90.3745 33.7534C90.3745 34.9516 89.4012 35.9229 88.2006 35.9229C86.9999 35.9229 86.0266 34.9516 86.0266 33.7534C86.0266 32.5553 86.9999 31.584 88.2006 31.584C89.4012 31.584 90.3745 32.5553 90.3745 33.7534Z" fill="white"/>
<path d="M74.8464 48.01C74.8464 50.2352 73.0389 52.039 70.8091 52.039C68.5792 52.039 66.7717 50.2352 66.7717 48.01C66.7717 45.7847 68.5792 43.981 70.8091 43.981C73.0389 43.981 74.8464 45.7847 74.8464 48.01Z" fill="white"/>
<path d="M52.4855 31.8937C52.4855 33.6054 51.0951 34.9929 49.3798 34.9929C47.6646 34.9929 46.2742 33.6054 46.2742 31.8937C46.2742 30.182 47.6646 28.7944 49.3798 28.7944C51.0951 28.7944 52.4855 30.182 52.4855 31.8937Z" fill="white"/>
<path d="M59.3181 33.4434C59.3181 34.6416 58.3448 35.6129 57.1442 35.6129C55.9435 35.6129 54.9702 34.6416 54.9702 33.4434C54.9702 32.2452 55.9435 31.2739 57.1442 31.2739C58.3448 31.2739 59.3181 32.2452 59.3181 33.4434Z" fill="white"/>
<path d="M58.697 28.6396C58.697 29.5811 57.9324 30.3442 56.9889 30.3442C56.0454 30.3442 55.2808 29.5811 55.2808 28.6396C55.2808 27.6982 56.0454 26.9351 56.9889 26.9351C57.9324 26.9351 58.697 27.6982 58.697 28.6396Z" fill="white"/>
<path d="M54.3492 24.456C54.3492 25.8253 53.2367 26.9353 51.8647 26.9353C50.4926 26.9353 49.3801 25.8253 49.3801 24.456C49.3801 23.0866 50.4926 21.9766 51.8647 21.9766C53.2367 21.9766 54.3492 23.0866 54.3492 24.456Z" fill="white"/>
<path d="M48.4482 26.3156C48.4482 27.3426 47.614 28.1751 46.5848 28.1751C45.5556 28.1751 44.7214 27.3426 44.7214 26.3156C44.7214 25.2886 45.5556 24.4561 46.5848 24.4561C47.614 24.4561 48.4482 25.2886 48.4482 26.3156Z" fill="white"/>
<path d="M44.1003 24.1459C44.1003 24.8306 43.544 25.3856 42.858 25.3856C42.1719 25.3856 41.6157 24.8306 41.6157 24.1459C41.6157 23.4613 42.1719 22.9062 42.858 22.9062C43.544 22.9062 44.1003 23.4613 44.1003 24.1459Z" fill="white"/>
<path d="M45.0321 21.3567C45.0321 21.699 44.7541 21.9765 44.4109 21.9765C44.0678 21.9765 43.7898 21.699 43.7898 21.3567C43.7898 21.0143 44.0678 20.7368 44.4109 20.7368C44.7541 20.7368 45.0321 21.0143 45.0321 21.3567Z" fill="white"/>
<path d="M47.827 20.5821C47.827 20.8388 47.6183 21.047 47.3611 21.047C47.104 21.047 46.8953 20.8388 46.8953 20.5821C46.8953 20.3253 47.104 20.1172 47.3611 20.1172C47.6183 20.1172 47.827 20.3253 47.827 20.5821Z" fill="white"/>
<path d="M45.9637 23.0611C45.9637 23.3178 45.755 23.526 45.4978 23.526C45.2407 23.526 45.032 23.3178 45.032 23.0611C45.032 22.8043 45.2407 22.5962 45.4978 22.5962C45.755 22.5962 45.9637 22.8043 45.9637 23.0611Z" fill="white"/>
<path d="M46.2742 29.5699C46.2742 29.8266 46.0655 30.0348 45.8084 30.0348C45.5512 30.0348 45.3425 29.8266 45.3425 29.5699C45.3425 29.3131 45.5512 29.105 45.8084 29.105C46.0655 29.105 46.2742 29.3131 46.2742 29.5699Z" fill="white"/>
<path d="M50.001 27.3999C50.001 27.6567 49.7923 27.8648 49.5352 27.8648C49.278 27.8648 49.0693 27.6567 49.0693 27.3999C49.0693 27.1432 49.278 26.9351 49.5352 26.9351C49.7923 26.9351 50.001 27.1432 50.001 27.3999Z" fill="white"/>
<path d="M54.349 28.6399C54.349 29.239 53.8624 29.7246 53.262 29.7246C52.6617 29.7246 52.175 29.239 52.175 28.6399C52.175 28.0408 52.6617 27.5552 53.262 27.5552C53.8624 27.5552 54.349 28.0408 54.349 28.6399Z" fill="white"/>
<path d="M54.9703 31.119C54.9703 31.5471 54.6228 31.8939 54.1939 31.8939C53.765 31.8939 53.4175 31.5471 53.4175 31.119C53.4175 30.6911 53.765 30.3442 54.1939 30.3442C54.6228 30.3442 54.9703 30.6911 54.9703 31.119Z" fill="white"/>
<path d="M54.0384 35.1483C54.0384 35.5763 53.6909 35.9231 53.262 35.9231C52.8331 35.9231 52.4856 35.5763 52.4856 35.1483C52.4856 34.7203 52.8331 34.3735 53.262 34.3735C53.6909 34.3735 54.0384 34.7203 54.0384 35.1483Z" fill="white"/>
<path d="M54.0384 33.2886C54.0384 33.5452 53.8297 33.7535 53.5725 33.7535C53.3154 33.7535 53.1067 33.5452 53.1067 33.2886C53.1067 33.032 53.3154 32.8237 53.5725 32.8237C53.8297 32.8237 54.0384 33.032 54.0384 33.2886Z" fill="white"/>
<path d="M47.5165 36.3881C47.5165 36.8161 47.1689 37.1629 46.74 37.1629C46.3111 37.1629 45.9636 36.8161 45.9636 36.3881C45.9636 35.9601 46.3111 35.6133 46.74 35.6133C47.1689 35.6133 47.5165 35.9601 47.5165 36.3881Z" fill="white"/>
<path d="M46.5848 38.5572C46.5848 38.8138 46.3761 39.0221 46.1189 39.0221C45.8618 39.0221 45.6531 38.8138 45.6531 38.5572C45.6531 38.3006 45.8618 38.0923 46.1189 38.0923C46.3761 38.0923 46.5848 38.3006 46.5848 38.5572Z" fill="white"/>
<path d="M46.2742 40.5721C46.2742 40.7432 46.1351 40.8821 45.9636 40.8821C45.7922 40.8821 45.6531 40.7432 45.6531 40.5721C45.6531 40.4011 45.7922 40.2622 45.9636 40.2622C46.1351 40.2622 46.2742 40.4011 46.2742 40.5721Z" fill="white"/>
<path d="M46.5848 42.4315C46.5848 42.6026 46.4456 42.7414 46.2742 42.7414C46.1028 42.7414 45.9636 42.6026 45.9636 42.4315C45.9636 42.2604 46.1028 42.1216 46.2742 42.1216C46.4456 42.1216 46.5848 42.2604 46.5848 42.4315Z" fill="white"/>
<path d="M49.3799 36.2328C49.3799 36.4039 49.2408 36.5427 49.0694 36.5427C48.8979 36.5427 48.7588 36.4039 48.7588 36.2328C48.7588 36.0617 48.8979 35.9229 49.0694 35.9229C49.2408 35.9229 49.3799 36.0617 49.3799 36.2328Z" fill="white"/>
<path d="M46.2742 34.3734C46.2742 34.5445 46.1351 34.6833 45.9636 34.6833C45.7922 34.6833 45.6531 34.5445 45.6531 34.3734C45.6531 34.2023 45.7922 34.0635 45.9636 34.0635C46.1351 34.0635 46.2742 34.2023 46.2742 34.3734Z" fill="white"/>
<path d="M43.7898 26.3153C43.7898 26.4865 43.6507 26.6252 43.4793 26.6252C43.3078 26.6252 43.1687 26.4865 43.1687 26.3153C43.1687 26.1441 43.3078 26.0054 43.4793 26.0054C43.6507 26.0054 43.7898 26.1441 43.7898 26.3153Z" fill="white"/>
<path d="M41.3052 22.5961C41.3052 22.7672 41.1661 22.906 40.9946 22.906C40.8232 22.906 40.6841 22.7672 40.6841 22.5961C40.6841 22.4249 40.8232 22.2861 40.9946 22.2861C41.1661 22.2861 41.3052 22.4249 41.3052 22.5961Z" fill="white"/>
<path d="M40.6842 14.2287C40.6842 14.5711 40.4062 14.8486 40.063 14.8486C39.7199 14.8486 39.4419 14.5711 39.4419 14.2287C39.4419 13.8864 39.7199 13.6089 40.063 13.6089C40.4062 13.6089 40.6842 13.8864 40.6842 14.2287Z" fill="white"/>
<path d="M35.0938 4.31077C35.0938 4.65311 34.8159 4.93061 34.4727 4.93061C34.1295 4.93061 33.8516 4.65311 33.8516 4.31077C33.8516 3.96842 34.1295 3.69092 34.4727 3.69092C34.8159 3.69092 35.0938 3.96842 35.0938 4.31077Z" fill="white"/>
<path d="M39.7525 2.14133C39.7525 2.48366 39.4746 2.76118 39.1314 2.76118C38.7882 2.76118 38.5103 2.48366 38.5103 2.14133C38.5103 1.799 38.7882 1.52148 39.1314 1.52148C39.4746 1.52148 39.7525 1.799 39.7525 2.14133Z" fill="white"/>
<path d="M50.6223 7.09996C50.6223 7.27113 50.4832 7.40989 50.3118 7.40989C50.1404 7.40989 50.0012 7.27113 50.0012 7.09996C50.0012 6.92879 50.1404 6.79004 50.3118 6.79004C50.4832 6.79004 50.6223 6.92879 50.6223 7.09996Z" fill="white"/>
<path d="M53.1067 7.41002C53.1067 7.58119 52.9676 7.71995 52.7962 7.71995C52.6247 7.71995 52.4856 7.58119 52.4856 7.41002C52.4856 7.23885 52.6247 7.1001 52.7962 7.1001C52.9676 7.1001 53.1067 7.23885 53.1067 7.41002Z" fill="white"/>
<path d="M33.8516 18.8773C33.8516 19.0485 33.7125 19.1872 33.541 19.1872C33.3696 19.1872 33.2305 19.0485 33.2305 18.8773C33.2305 18.7061 33.3696 18.5674 33.541 18.5674C33.7125 18.5674 33.8516 18.7061 33.8516 18.8773Z" fill="white"/>
<path d="M46.5848 21.6669C46.5848 21.838 46.4456 21.9768 46.2742 21.9768C46.1028 21.9768 45.9636 21.838 45.9636 21.6669C45.9636 21.4957 46.1028 21.3569 46.2742 21.3569C46.4456 21.3569 46.5848 21.4957 46.5848 21.6669Z" fill="white"/>
<path d="M52.1751 21.0467C52.1751 21.2179 52.036 21.3567 51.8645 21.3567C51.6931 21.3567 51.554 21.2179 51.554 21.0467C51.554 20.8756 51.6931 20.7368 51.8645 20.7368C52.036 20.7368 52.1751 20.8756 52.1751 21.0467Z" fill="white"/>
<path d="M59.0074 30.6542C59.0074 30.8253 58.8682 30.9641 58.6968 30.9641C58.5254 30.9641 58.3862 30.8253 58.3862 30.6542C58.3862 30.483 58.5254 30.3442 58.6968 30.3442C58.8682 30.3442 59.0074 30.483 59.0074 30.6542Z" fill="white"/>
<path d="M60.8709 34.993C60.8709 35.1641 60.7318 35.3029 60.5603 35.3029C60.3889 35.3029 60.2498 35.1641 60.2498 34.993C60.2498 34.822 60.3889 34.6831 60.5603 34.6831C60.7318 34.6831 60.8709 34.822 60.8709 34.993Z" fill="white"/>
<path d="M57.4546 38.4022C57.4546 38.5733 57.3155 38.7121 57.1441 38.7121C56.9726 38.7121 56.8335 38.5733 56.8335 38.4022C56.8335 38.2311 56.9726 38.0923 57.1441 38.0923C57.3155 38.0923 57.4546 38.2311 57.4546 38.4022Z" fill="white"/>
<path d="M47.2059 43.9808C47.2059 44.1519 47.0667 44.2907 46.8953 44.2907C46.7239 44.2907 46.5847 44.1519 46.5847 43.9808C46.5847 43.8097 46.7239 43.6709 46.8953 43.6709C47.0667 43.6709 47.2059 43.8097 47.2059 43.9808Z" fill="white"/>
<path d="M51.554 47.0804C51.554 47.2515 51.4149 47.3904 51.2434 47.3904C51.072 47.3904 50.9329 47.2515 50.9329 47.0804C50.9329 46.9094 51.072 46.7705 51.2434 46.7705C51.4149 46.7705 51.554 46.9094 51.554 47.0804Z" fill="white"/>
<path d="M56.8335 44.2909C56.8335 44.462 56.6944 44.6008 56.523 44.6008C56.3515 44.6008 56.2124 44.462 56.2124 44.2909C56.2124 44.1198 56.3515 43.981 56.523 43.981C56.6944 43.981 56.8335 44.1198 56.8335 44.2909Z" fill="white"/>
<path d="M55.5913 45.8407C55.5913 46.0118 55.4522 46.1506 55.2808 46.1506C55.1093 46.1506 54.9702 46.0118 54.9702 45.8407C54.9702 45.6696 55.1093 45.5308 55.2808 45.5308C55.4522 45.5308 55.5913 45.6696 55.5913 45.8407Z" fill="white"/>
<path d="M67.0823 43.9808C67.0823 44.1519 66.9432 44.2907 66.7717 44.2907C66.6003 44.2907 66.4612 44.1519 66.4612 43.9808C66.4612 43.8097 66.6003 43.6709 66.7717 43.6709C66.9432 43.6709 67.0823 43.8097 67.0823 43.9808Z" fill="white"/>
<path d="M74.2252 43.2061C74.2252 43.4627 74.0165 43.671 73.7593 43.671C73.5022 43.671 73.2935 43.4627 73.2935 43.2061C73.2935 42.9495 73.5022 42.7412 73.7593 42.7412C74.0165 42.7412 74.2252 42.9495 74.2252 43.2061Z" fill="white"/>
<path d="M84.7845 32.669C84.7845 32.9256 84.5758 33.1339 84.3186 33.1339C84.0615 33.1339 83.8528 32.9256 83.8528 32.669C83.8528 32.4124 84.0615 32.2041 84.3186 32.2041C84.5758 32.2041 84.7845 32.4124 84.7845 32.669Z" fill="white"/>
<path d="M85.095 34.5284C85.095 34.785 84.8863 34.9932 84.6292 34.9932C84.372 34.9932 84.1633 34.785 84.1633 34.5284C84.1633 34.2717 84.372 34.0635 84.6292 34.0635C84.8863 34.0635 85.095 34.2717 85.095 34.5284Z" fill="white"/>
<path d="M89.1324 36.8524C89.1324 37.0235 88.9932 37.1623 88.8218 37.1623C88.6504 37.1623 88.5112 37.0235 88.5112 36.8524C88.5112 36.6813 88.6504 36.5425 88.8218 36.5425C88.9932 36.5425 89.1324 36.6813 89.1324 36.8524Z" fill="white"/>
<path d="M89.4429 30.9642C89.4429 31.1354 89.3038 31.2741 89.1323 31.2741C88.9609 31.2741 88.8218 31.1354 88.8218 30.9642C88.8218 30.793 88.9609 30.6543 89.1323 30.6543C89.3038 30.6543 89.4429 30.793 89.4429 30.9642Z" fill="white"/>
<path d="M92.8592 33.1339C92.8592 33.6474 92.4422 34.0636 91.9275 34.0636C91.4129 34.0636 90.9958 33.6474 90.9958 33.1339C90.9958 32.6203 91.4129 32.2041 91.9275 32.2041C92.4422 32.2041 92.8592 32.6203 92.8592 33.1339Z" fill="white"/>
<path d="M87.89 30.3445C87.89 30.6868 87.612 30.9643 87.2688 30.9643C86.9257 30.9643 86.6477 30.6868 86.6477 30.3445C86.6477 30.0021 86.9257 29.7246 87.2688 29.7246C87.612 29.7246 87.89 30.0021 87.89 30.3445Z" fill="white"/>
<path d="M84.7845 39.6423C84.7845 39.9848 84.5065 40.2622 84.1634 40.2622C83.8202 40.2622 83.5422 39.9848 83.5422 39.6423C83.5422 39.2998 83.8202 39.0225 84.1634 39.0225C84.5065 39.0225 84.7845 39.2998 84.7845 39.6423Z" fill="white"/>
<path d="M83.8529 41.6566C83.8529 42.0847 83.5054 42.4315 83.0765 42.4315C82.6476 42.4315 82.3 42.0847 82.3 41.6566C82.3 41.2286 82.6476 40.8818 83.0765 40.8818C83.5054 40.8818 83.8529 41.2286 83.8529 41.6566Z" fill="white"/>
<path d="M75.4673 44.2909C75.4673 44.462 75.3282 44.6008 75.1568 44.6008C74.9853 44.6008 74.8462 44.462 74.8462 44.2909C74.8462 44.1198 74.9853 43.981 75.1568 43.981C75.3282 43.981 75.4673 44.1198 75.4673 44.2909Z" fill="white"/>
<path d="M76.0884 50.6441C76.0884 50.9007 75.8797 51.109 75.6226 51.109C75.3654 51.109 75.1567 50.9007 75.1567 50.6441C75.1567 50.3875 75.3654 50.1792 75.6226 50.1792C75.8797 50.1792 76.0884 50.3875 76.0884 50.6441Z" fill="white"/>
<path d="M74.8462 52.1939C74.8462 52.4505 74.6375 52.6588 74.3804 52.6588C74.1233 52.6588 73.9146 52.4505 73.9146 52.1939C73.9146 51.9373 74.1233 51.729 74.3804 51.729C74.6375 51.729 74.8462 51.9373 74.8462 52.1939Z" fill="white"/>
<path d="M72.983 42.2763C72.983 42.7043 72.6355 43.0511 72.2066 43.0511C71.7777 43.0511 71.4302 42.7043 71.4302 42.2763C71.4302 41.8483 71.7777 41.5015 72.2066 41.5015C72.6355 41.5015 72.983 41.8483 72.983 42.2763Z" fill="white"/>
<path d="M69.8773 35.458C69.8773 35.7147 69.6686 35.9229 69.4114 35.9229C69.1543 35.9229 68.9456 35.7147 68.9456 35.458C68.9456 35.2014 69.1543 34.9932 69.4114 34.9932C69.6686 34.9932 69.8773 35.2014 69.8773 35.458Z" fill="white"/>
<path d="M70.4984 37.7823C70.4984 38.2959 70.0813 38.7121 69.5667 38.7121C69.0521 38.7121 68.635 38.2959 68.635 37.7823C68.635 37.2688 69.0521 36.8525 69.5667 36.8525C70.0813 36.8525 70.4984 37.2688 70.4984 37.7823Z" fill="white"/>
<path d="M71.4301 32.2041C71.4301 32.8887 70.8739 33.4437 70.1878 33.4437C69.5018 33.4437 68.9456 32.8887 68.9456 32.2041C68.9456 31.5194 69.5018 30.9644 70.1878 30.9644C70.8739 30.9644 71.4301 31.5194 71.4301 32.2041Z" fill="white"/>
<path d="M77.6413 27.555C77.6413 28.4108 76.946 29.1046 76.0885 29.1046C75.231 29.1046 74.5356 28.4108 74.5356 27.555C74.5356 26.6992 75.231 26.0054 76.0885 26.0054C76.946 26.0054 77.6413 26.6992 77.6413 27.555Z" fill="white"/>
<path d="M68.6352 22.9066C68.6352 23.7624 67.9398 24.4562 67.0824 24.4562C66.2249 24.4562 65.5295 23.7624 65.5295 22.9066C65.5295 22.0507 66.2249 21.3569 67.0824 21.3569C67.9398 21.3569 68.6352 22.0507 68.6352 22.9066Z" fill="white"/>
<path d="M65.2189 21.047C65.2189 21.5605 64.8018 21.9767 64.2872 21.9767C63.7726 21.9767 63.3555 21.5605 63.3555 21.047C63.3555 20.5334 63.7726 20.1172 64.2872 20.1172C64.8018 20.1172 65.2189 20.5334 65.2189 21.047Z" fill="white"/>
<path d="M63.0448 20.1169C63.0448 20.4593 62.7668 20.7368 62.4236 20.7368C62.0804 20.7368 61.8025 20.4593 61.8025 20.1169C61.8025 19.7746 62.0804 19.4971 62.4236 19.4971C62.7668 19.4971 63.0448 19.7746 63.0448 20.1169Z" fill="white"/>
<path d="M70.8089 22.5964C70.8089 22.9388 70.531 23.2163 70.1878 23.2163C69.8446 23.2163 69.5667 22.9388 69.5667 22.5964C69.5667 22.2541 69.8446 21.9766 70.1878 21.9766C70.531 21.9766 70.8089 22.2541 70.8089 22.5964Z" fill="white"/>
<path d="M67.0823 26.0051C67.0823 26.3474 66.8044 26.6249 66.4612 26.6249C66.118 26.6249 65.8401 26.3474 65.8401 26.0051C65.8401 25.6628 66.118 25.3853 66.4612 25.3853C66.8044 25.3853 67.0823 25.6628 67.0823 26.0051Z" fill="white"/>
<path d="M68.9456 30.1895C68.9456 30.4462 68.7369 30.6544 68.4798 30.6544C68.2226 30.6544 68.0139 30.4462 68.0139 30.1895C68.0139 29.9328 68.2226 29.7246 68.4798 29.7246C68.7369 29.7246 68.9456 29.9328 68.9456 30.1895Z" fill="white"/>
<path d="M74.8462 24.6104C74.8462 24.8671 74.6375 25.0753 74.3804 25.0753C74.1233 25.0753 73.9146 24.8671 73.9146 24.6104C73.9146 24.3537 74.1233 24.1455 74.3804 24.1455C74.6375 24.1455 74.8462 24.3537 74.8462 24.6104Z" fill="white"/>
<path d="M72.983 23.2162C72.983 23.3873 72.8438 23.5261 72.6724 23.5261C72.501 23.5261 72.3618 23.3873 72.3618 23.2162C72.3618 23.045 72.501 22.9062 72.6724 22.9062C72.8438 22.9062 72.983 23.045 72.983 23.2162Z" fill="white"/>
<path d="M67.7034 28.1752C67.7034 28.3463 67.5643 28.4851 67.3929 28.4851C67.2214 28.4851 67.0823 28.3463 67.0823 28.1752C67.0823 28.004 67.2214 27.8652 67.3929 27.8652C67.5643 27.8652 67.7034 28.004 67.7034 28.1752Z" fill="white"/>
<path d="M69.2562 34.0633C69.2562 34.2344 69.117 34.3733 68.9456 34.3733C68.7741 34.3733 68.635 34.2344 68.635 34.0633C68.635 33.8923 68.7741 33.7534 68.9456 33.7534C69.117 33.7534 69.2562 33.8923 69.2562 34.0633Z" fill="white"/>
<path d="M72.983 30.4991C72.983 30.7558 72.7743 30.9639 72.5171 30.9639C72.26 30.9639 72.0513 30.7558 72.0513 30.4991C72.0513 30.2423 72.26 30.0342 72.5171 30.0342C72.7743 30.0342 72.983 30.2423 72.983 30.4991Z" fill="white"/>
<path d="M81.9893 29.8794C81.9893 30.1362 81.7806 30.3443 81.5235 30.3443C81.2663 30.3443 81.0576 30.1362 81.0576 29.8794C81.0576 29.6227 81.2663 29.4146 81.5235 29.4146C81.7806 29.4146 81.9893 29.6227 81.9893 29.8794Z" fill="white"/>
<path d="M78.8838 26.3153C78.8838 26.4865 78.7447 26.6252 78.5733 26.6252C78.4018 26.6252 78.2627 26.4865 78.2627 26.3153C78.2627 26.1441 78.4018 26.0054 78.5733 26.0054C78.7447 26.0054 78.8838 26.1441 78.8838 26.3153Z" fill="white"/>
<path d="M86.0268 29.8795C86.0268 30.6498 85.401 31.2742 84.6292 31.2742C83.8575 31.2742 83.2317 30.6498 83.2317 29.8795C83.2317 29.1093 83.8575 28.4849 84.6292 28.4849C85.401 28.4849 86.0268 29.1093 86.0268 29.8795Z" fill="white"/>
<path d="M80.1261 28.33C80.1261 28.7579 79.7785 29.1048 79.3497 29.1048C78.9208 29.1048 78.5732 28.7579 78.5732 28.33C78.5732 27.9021 78.9208 27.5552 79.3497 27.5552C79.7785 27.5552 80.1261 27.9021 80.1261 28.33Z" fill="white"/>
<path d="M82.2999 27.5549C82.2999 27.8972 82.0219 28.1748 81.6787 28.1748C81.3356 28.1748 81.0576 27.8972 81.0576 27.5549C81.0576 27.2126 81.3356 26.9351 81.6787 26.9351C82.0219 26.9351 82.2999 27.2126 82.2999 27.5549Z" fill="white"/>
<path d="M86.9584 37.3176C86.9584 37.9167 86.4717 38.4024 85.8714 38.4024C85.2711 38.4024 84.7844 37.9167 84.7844 37.3176C84.7844 36.7186 85.2711 36.2329 85.8714 36.2329C86.4717 36.2329 86.9584 36.7186 86.9584 37.3176Z" fill="white"/>
<path d="M77.3309 48.6301C77.3309 48.9726 77.0529 49.25 76.7098 49.25C76.3666 49.25 76.0886 48.9726 76.0886 48.6301C76.0886 48.2876 76.3666 48.0103 76.7098 48.0103C77.0529 48.0103 77.3309 48.2876 77.3309 48.6301Z" fill="white"/>
<path d="M53.7278 46.4603C53.7278 46.6314 53.5887 46.7702 53.4173 46.7702C53.2458 46.7702 53.1067 46.6314 53.1067 46.4603C53.1067 46.2892 53.2458 46.1504 53.4173 46.1504C53.5887 46.1504 53.7278 46.2892 53.7278 46.4603Z" fill="white"/>
<path d="M58.0757 42.5865C58.0757 42.8431 57.867 43.0514 57.6099 43.0514C57.3527 43.0514 57.144 42.8431 57.144 42.5865C57.144 42.3299 57.3527 42.1216 57.6099 42.1216C57.867 42.1216 58.0757 42.3299 58.0757 42.5865Z" fill="white"/>
<path d="M55.5914 23.0611C55.5914 23.3178 55.3827 23.526 55.1255 23.526C54.8684 23.526 54.6597 23.3178 54.6597 23.0611C54.6597 22.8043 54.8684 22.5962 55.1255 22.5962C55.3827 22.5962 55.5914 22.8043 55.5914 23.0611Z" fill="white"/>
<path d="M58.6968 26.1602C58.6968 26.4169 58.4881 26.6251 58.231 26.6251C57.9738 26.6251 57.7651 26.4169 57.7651 26.1602C57.7651 25.9035 57.9738 25.6953 58.231 25.6953C58.4881 25.6953 58.6968 25.9035 58.6968 26.1602Z" fill="white"/>
<path d="M60.2498 28.9497C60.2498 29.2065 60.0411 29.4146 59.784 29.4146C59.5268 29.4146 59.3181 29.2065 59.3181 28.9497C59.3181 28.693 59.5268 28.4849 59.784 28.4849C60.0411 28.4849 60.2498 28.693 60.2498 28.9497Z" fill="white"/>
<path d="M61.492 33.4436C61.492 33.786 61.2141 34.0634 60.8709 34.0634C60.5277 34.0634 60.2498 33.786 60.2498 33.4436C60.2498 33.1011 60.5277 32.8237 60.8709 32.8237C61.2141 32.8237 61.492 33.1011 61.492 33.4436Z" fill="white"/>
<path d="M56.8336 36.6977C56.8336 37.1257 56.4861 37.4725 56.0572 37.4725C55.6283 37.4725 55.2808 37.1257 55.2808 36.6977C55.2808 36.2697 55.6283 35.9229 56.0572 35.9229C56.4861 35.9229 56.8336 36.2697 56.8336 36.6977Z" fill="white"/>
<path d="M50.0011 47.2353C50.0011 47.6633 49.6535 48.0101 49.2247 48.0101C48.7958 48.0101 48.4482 47.6633 48.4482 47.2353C48.4482 46.8073 48.7958 46.4604 49.2247 46.4604C49.6535 46.4604 50.0011 46.8073 50.0011 47.2353Z" fill="white"/>
<path d="M48.1375 45.6856C48.1375 45.9422 47.9288 46.1505 47.6717 46.1505C47.4145 46.1505 47.2058 45.9422 47.2058 45.6856C47.2058 45.429 47.4145 45.2207 47.6717 45.2207C47.9288 45.2207 48.1375 45.429 48.1375 45.6856Z" fill="white"/>
<path d="M60.8708 37.3175C60.8708 38.0877 60.245 38.7122 59.4732 38.7122C58.7015 38.7122 58.0757 38.0877 58.0757 37.3175C58.0757 36.5473 58.7015 35.9229 59.4732 35.9229C60.245 35.9229 60.8708 36.5473 60.8708 37.3175Z" fill="white"/>
<path d="M59.6285 40.4168C59.6285 41.0158 59.1419 41.5015 58.5416 41.5015C57.9412 41.5015 57.4546 41.0158 57.4546 40.4168C57.4546 39.8177 57.9412 39.332 58.5416 39.332C59.1419 39.332 59.6285 39.8177 59.6285 40.4168Z" fill="white"/>
<path d="M55.5914 26.4703C55.5914 26.727 55.3827 26.9351 55.1255 26.9351C54.8684 26.9351 54.6597 26.727 54.6597 26.4703C54.6597 26.2135 54.8684 26.0054 55.1255 26.0054C55.3827 26.0054 55.5914 26.2135 55.5914 26.4703Z" fill="white"/>
<path d="M61.1815 31.119C61.1815 31.5471 60.834 31.8939 60.4051 31.8939C59.9762 31.8939 59.6287 31.5471 59.6287 31.119C59.6287 30.6911 59.9762 30.3442 60.4051 30.3442C60.834 30.3442 61.1815 30.6911 61.1815 31.119Z" fill="white"/>
<path d="M57.1441 24.9203C57.1441 25.3482 56.7966 25.6951 56.3677 25.6951C55.9388 25.6951 55.5913 25.3482 55.5913 24.9203C55.5913 24.4924 55.9388 24.1455 56.3677 24.1455C56.7966 24.1455 57.1441 24.4924 57.1441 24.9203Z" fill="white"/>
<path d="M42.858 21.8218C42.858 22.0786 42.6493 22.2867 42.3921 22.2867C42.135 22.2867 41.9263 22.0786 41.9263 21.8218C41.9263 21.5651 42.135 21.3569 42.3921 21.3569C42.6493 21.3569 42.858 21.5651 42.858 21.8218Z" fill="white"/>
<path d="M50.3116 21.0466C50.3116 21.3889 50.0336 21.6665 49.6905 21.6665C49.3473 21.6665 49.0693 21.3889 49.0693 21.0466C49.0693 20.7043 49.3473 20.4268 49.6905 20.4268C50.0336 20.4268 50.3116 20.7043 50.3116 21.0466Z" fill="white"/>
<path d="M48.7587 22.9063C48.7587 23.4198 48.3416 23.8361 47.827 23.8361C47.3124 23.8361 46.8953 23.4198 46.8953 22.9063C46.8953 22.3928 47.3124 21.9766 47.827 21.9766C48.3416 21.9766 48.7587 22.3928 48.7587 22.9063Z" fill="white"/>
<path d="M60.8708 6.63524C60.8708 7.57667 60.1062 8.33982 59.1627 8.33982C58.2192 8.33982 57.4546 7.57667 57.4546 6.63524C57.4546 5.69382 58.2192 4.93066 59.1627 4.93066C60.1062 4.93066 60.8708 5.69382 60.8708 6.63524Z" fill="white"/>
<path d="M64.9081 6.01526C64.9081 6.78552 64.2823 7.40992 63.5106 7.40992C62.7388 7.40992 62.113 6.78552 62.113 6.01526C62.113 5.24501 62.7388 4.62061 63.5106 4.62061C64.2823 4.62061 64.9081 5.24501 64.9081 6.01526Z" fill="white"/>
<path d="M64.5977 11.9037C64.5977 13.0163 63.6939 13.9182 62.579 13.9182C61.464 13.9182 60.5603 13.0163 60.5603 11.9037C60.5603 10.7911 61.464 9.88916 62.579 9.88916C63.6939 9.88916 64.5977 10.7911 64.5977 11.9037Z" fill="white"/>
<path d="M70.8091 9.57949C70.8091 10.9488 69.6967 12.0589 68.3246 12.0589C66.9525 12.0589 65.8401 10.9488 65.8401 9.57949C65.8401 8.21015 66.9525 7.1001 68.3246 7.1001C69.6967 7.1001 70.8091 8.21015 70.8091 9.57949Z" fill="white"/>
<path d="M74.5357 14.6931C74.5357 15.9768 73.4928 17.0175 72.2064 17.0175C70.9201 17.0175 69.8772 15.9768 69.8772 14.6931C69.8772 13.4093 70.9201 12.3687 72.2064 12.3687C73.4928 12.3687 74.5357 13.4093 74.5357 14.6931Z" fill="white"/>
<path d="M68.6352 14.2283C68.6352 15.0842 67.9398 15.7779 67.0824 15.7779C66.2249 15.7779 65.5295 15.0842 65.5295 14.2283C65.5295 13.3725 66.2249 12.6787 67.0824 12.6787C67.9398 12.6787 68.6352 13.3725 68.6352 14.2283Z" fill="white"/>
</g>
<defs>
<clipPath id="clip0_2685:11099">
<rect width="295" height="79" fill="white" transform="translate(0 0.281738)"/>
</clipPath>
</defs>
</svg>
