<svg width="26" height="26" viewBox="0 0 26 26" fill="none" xmlns="http://www.w3.org/2000/svg">
<path d="M23.4636 2.6897L14.4269 9.39811L16.1126 5.4463L23.4636 2.6897Z" fill="#E17726"/>
<path d="M14.4273 9.50851C14.4095 9.51544 14.3898 9.51544 14.372 9.50851C14.3619 9.49441 14.3564 9.4775 14.3564 9.46015C14.3564 9.44279 14.3619 9.42588 14.372 9.41178L16.0647 5.45306C16.0539 5.44106 16.0468 5.42617 16.0444 5.41021C16.0419 5.39426 16.0442 5.37794 16.0508 5.36325L23.4087 2.59974C23.428 2.59251 23.4494 2.59275 23.4685 2.60041C23.4877 2.60808 23.5033 2.62262 23.5123 2.64119C23.5259 2.65639 23.5334 2.67607 23.5334 2.69646C23.5334 2.71685 23.5259 2.73653 23.5123 2.75173L14.4273 9.46705C14.432 9.48046 14.432 9.4951 14.4273 9.50851ZM16.1821 5.52906L14.5931 9.14234L22.9251 2.97972L16.1821 5.52906Z" fill="#E17726"/>
<path d="M2.53687 2.6897L11.5183 9.46029L9.92234 5.4463L2.53687 2.6897Z" fill="#E27625"/>
<path d="M11.5333 9.55016C11.5155 9.5571 11.4958 9.5571 11.478 9.55016L2.48278 2.75884C2.46919 2.74364 2.46167 2.72396 2.46167 2.70357C2.46167 2.68318 2.46919 2.6635 2.48278 2.6483C2.48988 2.63264 2.50167 2.61957 2.51652 2.6109C2.53138 2.60224 2.54856 2.59841 2.56569 2.59994L9.95116 5.36345C9.97523 5.37167 9.99508 5.38905 10.0064 5.41181L11.6093 9.43271C11.6205 9.44633 11.6266 9.46343 11.6266 9.48107C11.6266 9.49872 11.6205 9.51582 11.6093 9.52944C11.5997 9.5395 11.5876 9.54676 11.5742 9.55041C11.5608 9.55407 11.5466 9.55398 11.5333 9.55016ZM3.06312 2.97301L11.3536 9.19091L9.85444 5.50853L3.06312 2.97301Z" fill="#E27625"/>
<path d="M20.1966 18.2551L17.7854 21.9444L22.9532 23.3676L24.4385 18.338L20.1966 18.2551Z" fill="#E27625"/>
<path d="M22.9526 23.4504L17.7848 22.0272C17.771 22.0232 17.7582 22.0162 17.7475 22.0066C17.7367 21.9971 17.7282 21.9852 17.7226 21.972C17.7175 21.9599 17.7148 21.947 17.7148 21.934C17.7148 21.9209 17.7175 21.908 17.7226 21.896L20.1407 18.2067C20.1476 18.1929 20.1586 18.1815 20.1722 18.1741C20.1858 18.1667 20.2013 18.1636 20.2167 18.1652L24.4518 18.2481C24.4654 18.2473 24.4791 18.2499 24.4915 18.2557C24.5039 18.2615 24.5147 18.2702 24.5229 18.2812C24.5311 18.2921 24.5365 18.3049 24.5385 18.3184C24.5406 18.332 24.5393 18.3458 24.5347 18.3587L23.0493 23.3883C23.0477 23.3991 23.0439 23.4094 23.038 23.4186C23.0321 23.4278 23.0243 23.4356 23.0151 23.4415C23.006 23.4474 22.9956 23.4512 22.9848 23.4528C22.974 23.4543 22.963 23.4535 22.9526 23.4504ZM17.923 21.8891L22.8973 23.2708L24.3205 18.4347L20.2443 18.3587L17.923 21.8891Z" fill="#E27625"/>
<path d="M1.57788 18.338L3.04945 23.3676L8.2103 21.9444L5.80605 18.2551L1.57788 18.338Z" fill="#E27625"/>
<path d="M3.0494 23.4505C3.03027 23.4525 3.01109 23.4473 2.9957 23.4357C2.98032 23.4242 2.96988 23.4072 2.96649 23.3883L1.49492 18.3587C1.48825 18.3472 1.48474 18.3341 1.48474 18.3207C1.48474 18.3074 1.48825 18.2943 1.49492 18.2827C1.50277 18.2718 1.51316 18.2629 1.5252 18.2569C1.53723 18.2509 1.55056 18.2479 1.56401 18.2482L5.78527 18.1653C5.79922 18.1663 5.81273 18.1706 5.82472 18.1778C5.83672 18.185 5.84686 18.1949 5.85436 18.2067L8.25861 21.896C8.26528 21.9076 8.26879 21.9207 8.26879 21.934C8.26879 21.9474 8.26528 21.9605 8.25861 21.972C8.25527 21.9854 8.24836 21.9976 8.23862 22.0073C8.22889 22.017 8.21669 22.0239 8.20334 22.0273L3.07012 23.4505H3.0494ZM1.66764 18.4209L3.08394 23.257L8.05135 21.8753L5.75763 18.3449L1.66764 18.4209Z" fill="#E27625"/>
<path d="M7.93336 12.0235L6.49634 14.1928L11.6088 14.4208L11.443 8.8938L7.93336 12.0235Z" fill="#E27625"/>
<path d="M11.6093 14.5107L6.48987 14.2758C6.47508 14.2747 6.46087 14.2696 6.44872 14.2611C6.43657 14.2526 6.42692 14.241 6.42078 14.2275C6.41412 14.2147 6.41064 14.2005 6.41064 14.186C6.41064 14.1716 6.41412 14.1574 6.42078 14.1446L7.85781 11.9752L11.3675 8.86628C11.3811 8.8584 11.3966 8.85425 11.4124 8.85425C11.4281 8.85425 11.4436 8.8584 11.4573 8.86628C11.4731 8.87187 11.4868 8.88212 11.4967 8.89569C11.5066 8.90926 11.5121 8.92551 11.5125 8.94228L11.6853 14.4693C11.6916 14.4895 11.6916 14.5112 11.6853 14.5315C11.6719 14.5353 11.6578 14.5354 11.6444 14.5317C11.631 14.5281 11.6188 14.5208 11.6093 14.5107ZM6.64877 14.11L11.4849 14.3311L11.326 9.10118L7.99598 12.0789L6.64877 14.11Z" fill="#E27625"/>
<path d="M18.0747 12.0234L14.5098 8.85229L14.4269 14.4208L19.5394 14.1928L18.0747 12.0234Z" fill="#E27625"/>
<path d="M14.428 14.5105C14.408 14.5185 14.3857 14.5185 14.3658 14.5105C14.3584 14.4904 14.3584 14.4684 14.3658 14.4483L14.428 8.85219C14.4284 8.83542 14.4339 8.81917 14.4438 8.8056C14.4537 8.79203 14.4674 8.78178 14.4832 8.77619C14.4969 8.76831 14.5124 8.76416 14.5281 8.76416C14.5439 8.76416 14.5594 8.76831 14.573 8.77619L18.138 11.9473L19.575 14.1167C19.5817 14.1295 19.5851 14.1437 19.5851 14.1581C19.5851 14.1726 19.5817 14.1868 19.575 14.1996C19.5668 14.2128 19.5557 14.2241 19.5425 14.2324C19.5294 14.2408 19.5145 14.2461 19.499 14.2479L14.3865 14.4828L14.428 14.5105ZM14.6283 9.04563L14.4832 14.3447L19.3539 14.1236L18.0067 12.0924L14.6283 9.04563Z" fill="#E27625"/>
<path d="M8.20923 21.9441L11.3044 20.4449L8.63757 18.3723L8.20923 21.9441Z" fill="#E27625"/>
<path d="M8.20999 22.0271C8.20246 22.0308 8.19419 22.0327 8.18581 22.0327C8.17744 22.0327 8.16917 22.0308 8.16163 22.0271C8.14834 22.0178 8.13757 22.0054 8.13033 21.9909C8.12309 21.9764 8.1196 21.9604 8.12018 21.9442L8.55543 18.3723C8.55658 18.3576 8.56167 18.3433 8.57017 18.3312C8.57868 18.319 8.59029 18.3094 8.60379 18.3033C8.61718 18.2946 8.63277 18.29 8.6487 18.29C8.66463 18.29 8.68022 18.2946 8.69361 18.3033L11.3604 20.3759C11.3678 20.3872 11.3718 20.4004 11.3718 20.4139C11.3718 20.4274 11.3678 20.4406 11.3604 20.4519C11.3593 20.4667 11.3542 20.4809 11.3457 20.493C11.3371 20.5052 11.3255 20.5148 11.312 20.521L8.2169 22.0133L8.20999 22.0271ZM8.70743 18.5312L8.31363 21.7991L11.1393 20.4173L8.70743 18.5312Z" fill="#E27625"/>
<path d="M14.697 20.4449L17.7852 21.9441L17.3638 18.3723L14.697 20.4449Z" fill="#E27625"/>
<path d="M17.7858 22.0274H17.7512L14.663 20.5628C14.6495 20.5566 14.6379 20.547 14.6294 20.5348C14.6209 20.5227 14.6158 20.5085 14.6147 20.4937C14.6072 20.4824 14.6033 20.4692 14.6033 20.4557C14.6033 20.4422 14.6072 20.429 14.6147 20.4177L17.2814 18.345C17.2951 18.3372 17.3106 18.333 17.3264 18.333C17.3421 18.333 17.3576 18.3372 17.3713 18.345C17.3848 18.3512 17.3964 18.3608 17.4049 18.373C17.4134 18.3851 17.4185 18.3993 17.4196 18.4141L17.8825 21.9445C17.8863 21.9602 17.885 21.9767 17.8788 21.9916C17.8726 22.0065 17.8618 22.0191 17.848 22.0274C17.8388 22.0337 17.828 22.037 17.8169 22.037C17.8058 22.037 17.795 22.0337 17.7858 22.0274ZM14.8634 20.4315L17.6822 21.8132L17.2953 18.5454L14.8634 20.4315Z" fill="#E27625"/>
<path d="M17.7852 21.9443L14.697 20.4451L14.9457 22.4555V23.3053L17.7852 21.9443Z" fill="#D5BFB2"/>
<path d="M14.9248 23.3886C14.9172 23.3922 14.909 23.3941 14.9006 23.3941C14.8922 23.3941 14.8839 23.3922 14.8764 23.3886C14.8626 23.3816 14.8512 23.3706 14.8438 23.3571C14.8364 23.3435 14.8333 23.328 14.835 23.3126V22.4628L14.5862 20.4731C14.5824 20.4574 14.5837 20.4409 14.59 20.426C14.5962 20.4111 14.607 20.3985 14.6208 20.3902C14.6342 20.3815 14.6498 20.377 14.6657 20.377C14.6816 20.377 14.6972 20.3815 14.7106 20.3902L17.7919 21.8894C17.8067 21.8958 17.8193 21.9064 17.8281 21.9199C17.837 21.9334 17.8417 21.9492 17.8417 21.9654C17.8417 21.9815 17.837 21.9973 17.8281 22.0108C17.8193 22.0243 17.8067 22.0349 17.7919 22.0414L14.9317 23.4231L14.9248 23.3886ZM14.8004 20.6251L15.0353 22.4697V23.1951L17.5846 21.9446L14.8004 20.6251Z" fill="#D5BFB2"/>
<path d="M8.20923 21.9445L11.0833 23.3263V22.4765L11.3251 20.4661L8.20923 21.9445Z" fill="#D5BFB2"/>
<path d="M11.0844 23.3883H11.043L8.16891 22.0066C8.15412 22.0001 8.14153 21.9895 8.13269 21.976C8.12385 21.9625 8.11914 21.9467 8.11914 21.9306C8.11914 21.9144 8.12385 21.8986 8.13269 21.8851C8.14153 21.8716 8.15412 21.861 8.16891 21.8546L11.271 20.3554C11.2829 20.3464 11.2975 20.3416 11.3124 20.3416C11.3274 20.3416 11.3419 20.3464 11.3539 20.3554C11.3619 20.3677 11.3662 20.3821 11.3662 20.3968C11.3662 20.4115 11.3619 20.4259 11.3539 20.4383L11.1121 22.4418V23.2778C11.1137 23.2932 11.1106 23.3087 11.1032 23.3223C11.0958 23.3358 11.0844 23.3468 11.0706 23.3538C11.0751 23.3583 11.0786 23.3637 11.081 23.3697C11.0833 23.3756 11.0845 23.3819 11.0844 23.3883ZM8.41072 21.9444L10.9739 23.1672V22.4764L11.2019 20.6179L8.41072 21.9444Z" fill="#D5BFB2"/>
<path d="M11.1322 17.0462L8.56909 16.2932L10.3792 15.4641L11.1322 17.0462Z" fill="#161616"/>
<path d="M11.1323 17.1084L8.56228 16.3553C8.54516 16.3502 8.53016 16.3397 8.51949 16.3254C8.50882 16.3111 8.50305 16.2937 8.50305 16.2759C8.50305 16.258 8.50882 16.2406 8.51949 16.2263C8.53016 16.212 8.54516 16.2015 8.56228 16.1964L10.3724 15.3605C10.3823 15.3558 10.3931 15.3533 10.4041 15.3528C10.4151 15.3524 10.426 15.3542 10.4363 15.3581C10.4466 15.3619 10.456 15.3678 10.464 15.3753C10.472 15.3828 10.4784 15.3919 10.4829 15.4019L11.2429 16.9909C11.2508 17.0046 11.2549 17.0201 11.2549 17.0358C11.2549 17.0516 11.2508 17.0671 11.2429 17.0807C11.2297 17.0965 11.212 17.1076 11.1921 17.1126C11.1722 17.1175 11.1513 17.1161 11.1323 17.1084ZM8.81099 16.2448L10.9734 16.8804L10.3378 15.547L8.81099 16.2448Z" fill="#161616"/>
<path d="M14.8695 17.0462L15.6226 15.4641L17.4465 16.2932L14.8695 17.0462Z" fill="#161616"/>
<path d="M14.8696 17.1084C14.8563 17.1077 14.8433 17.1043 14.8314 17.0984C14.8195 17.0924 14.809 17.0841 14.8005 17.0739C14.7926 17.0602 14.7885 17.0447 14.7885 17.029C14.7885 17.0132 14.7926 16.9977 14.8005 16.9841L15.5604 15.3951C15.5708 15.376 15.5876 15.3612 15.608 15.3536C15.6283 15.346 15.6507 15.346 15.671 15.3536L17.4949 16.1896C17.5106 16.1967 17.5236 16.2085 17.5323 16.2233C17.541 16.2382 17.5448 16.2553 17.5433 16.2725C17.5423 16.2901 17.5358 16.307 17.5246 16.3207C17.5134 16.3343 17.4982 16.3441 17.4811 16.3485L14.8903 17.1084H14.8696ZM15.6641 15.5471L15.0285 16.8804L17.1909 16.2794L15.6641 15.5471Z" fill="#161616"/>
<path d="M8.20967 21.9444L8.65874 18.2551L5.80542 18.338L8.20967 21.9444Z" fill="#CC6228"/>
<path d="M8.20928 22.0273C8.18041 22.0261 8.15313 22.0137 8.13329 21.9927L5.72904 18.3864C5.72041 18.373 5.71582 18.3574 5.71582 18.3415C5.71582 18.3255 5.72041 18.3099 5.72904 18.2965C5.73517 18.283 5.74482 18.2714 5.75697 18.2629C5.76912 18.2544 5.78333 18.2493 5.79812 18.2482L8.65145 18.1653C8.65145 18.1653 8.70672 18.1653 8.72053 18.1653C8.72539 18.1749 8.72792 18.1856 8.72792 18.1964C8.72792 18.2072 8.72539 18.2178 8.72053 18.2275L8.29219 21.9444C8.29249 21.9624 8.28641 21.9799 8.27502 21.9938C8.26364 22.0077 8.24769 22.0171 8.23001 22.0204L8.20928 22.0273ZM5.96393 18.414L8.14711 21.7026L8.56163 18.3449L5.96393 18.414Z" fill="#CC6228"/>
<path d="M17.3428 18.2551L17.7849 21.9444L20.1961 18.338L17.3428 18.2551Z" fill="#CC6228"/>
<path d="M17.7848 22.0271C17.7677 22.0227 17.7524 22.013 17.7413 21.9993C17.7301 21.9857 17.7235 21.9688 17.7226 21.9511L17.2805 18.2619C17.2756 18.2522 17.2731 18.2416 17.2731 18.2308C17.2731 18.22 17.2756 18.2093 17.2805 18.1997C17.2913 18.1947 17.3031 18.1921 17.315 18.1921C17.3269 18.1921 17.3387 18.1947 17.3495 18.1997L20.2029 18.2826C20.2184 18.2844 20.2332 18.2897 20.2464 18.2981C20.2596 18.3064 20.2707 18.3177 20.2789 18.3309C20.2856 18.345 20.2891 18.3603 20.2891 18.3759C20.2891 18.3914 20.2856 18.4067 20.2789 18.4208L17.8815 21.9926C17.8716 22.0084 17.8567 22.0204 17.8392 22.0266C17.8216 22.0329 17.8025 22.0331 17.7848 22.0271ZM17.4394 18.3448L17.8401 21.7024L20.044 18.4138L17.4394 18.3448Z" fill="#CC6228"/>
<path d="M19.5062 14.1926L14.3937 14.4206L14.8704 17.0459L15.6234 15.4638L17.4474 16.2929L19.5062 14.1926Z" fill="#CC6228"/>
<path d="M14.8693 17.1083C14.8507 17.107 14.8331 17.0995 14.8193 17.087C14.8055 17.0744 14.7963 17.0576 14.7933 17.0392L14.3235 14.4208C14.318 14.4101 14.3152 14.3983 14.3152 14.3863C14.3152 14.3743 14.318 14.3624 14.3235 14.3517C14.3306 14.3417 14.3399 14.3334 14.3507 14.3274C14.3614 14.3215 14.3734 14.318 14.3857 14.3172L19.5051 14.0823C19.5224 14.0838 19.5391 14.0896 19.5536 14.0993C19.5681 14.109 19.5799 14.1221 19.588 14.1375C19.5975 14.1506 19.6027 14.1663 19.6027 14.1825C19.6027 14.1986 19.5975 14.2143 19.588 14.2274L17.5153 16.3345C17.5006 16.3463 17.4824 16.3527 17.4635 16.3527C17.4447 16.3527 17.4264 16.3463 17.4117 16.3345L15.6707 15.54L14.9798 17.0461C14.9776 17.058 14.9728 17.0692 14.9657 17.0791C14.9587 17.0889 14.9495 17.097 14.939 17.1029C14.9285 17.1089 14.9168 17.1124 14.9047 17.1133C14.8927 17.1143 14.8806 17.1126 14.8693 17.1083ZM14.4962 14.4761L14.9038 16.7422L15.5463 15.3604C15.5566 15.3413 15.5735 15.3266 15.5938 15.319C15.6142 15.3113 15.6366 15.3113 15.6569 15.3189L17.4255 16.1273L19.2633 14.2895L14.4962 14.4761Z" fill="#CC6228"/>
<path d="M8.56897 16.2929L10.3791 15.4638L11.1321 17.0459L11.6088 14.4206L6.49634 14.1926L8.56897 16.2929Z" fill="#CC6228"/>
<path d="M11.1322 17.1085C11.1156 17.1072 11.0998 17.1013 11.0864 17.0916C11.0729 17.0818 11.0625 17.0685 11.0562 17.0532L10.3653 15.5471L8.63118 16.3416C8.61757 16.3528 8.60047 16.359 8.58282 16.359C8.56517 16.359 8.54808 16.3528 8.53446 16.3416L6.46183 14.2344C6.45229 14.2214 6.44714 14.2057 6.44714 14.1895C6.44714 14.1734 6.45229 14.1577 6.46183 14.1446C6.47036 14.1296 6.4823 14.1167 6.4967 14.1071C6.5111 14.0975 6.52756 14.0914 6.54474 14.0894L11.6641 14.3243C11.665 14.3311 11.665 14.3381 11.6641 14.345C11.6696 14.3557 11.6724 14.3675 11.6724 14.3795C11.6724 14.3915 11.6696 14.4034 11.6641 14.4141L11.1943 17.0325C11.1913 17.0509 11.1821 17.0677 11.1683 17.0802C11.1545 17.0928 11.1369 17.1003 11.1183 17.1016L11.1322 17.1085ZM10.3791 15.3468C10.3951 15.3466 10.4108 15.3511 10.4242 15.3597C10.4377 15.3683 10.4484 15.3806 10.4551 15.3951L11.0976 16.7769L11.5052 14.5108L6.71055 14.2966L8.58282 16.1965L10.3446 15.3882L10.3791 15.3468Z" fill="#CC6228"/>
<path d="M6.49634 14.1926L8.63805 18.3379L8.56897 16.2653L6.49634 14.1926Z" fill="#E27525"/>
<path d="M8.63851 18.4902C8.62253 18.4903 8.60685 18.4858 8.59337 18.4773C8.57989 18.4687 8.56917 18.4564 8.56251 18.4419L6.42079 14.262C6.40768 14.248 6.40039 14.2295 6.40039 14.2102C6.40039 14.191 6.40768 14.1725 6.42079 14.1584C6.4285 14.1507 6.43765 14.1446 6.44773 14.1404C6.4578 14.1362 6.46861 14.134 6.47952 14.134C6.49043 14.134 6.50123 14.1362 6.51131 14.1404C6.52139 14.1446 6.53054 14.1507 6.53824 14.1584L8.61087 16.231C8.61682 16.2513 8.61682 16.2729 8.61087 16.2932L8.68687 18.3659C8.68626 18.3862 8.67926 18.4058 8.66686 18.4219C8.65445 18.4381 8.63728 18.4499 8.61778 18.4557L8.63851 18.4902ZM6.82841 14.6558L8.54179 17.9859L8.48652 16.3278L6.82841 14.6558Z" fill="#E27525"/>
<path d="M17.4466 16.2928L17.3636 18.3655L19.5054 14.2202L17.4466 16.2928Z" fill="#E27525"/>
<path d="M17.364 18.4901C17.3445 18.4843 17.3273 18.4725 17.3149 18.4563C17.3025 18.4402 17.2955 18.4206 17.2949 18.4002L17.3778 16.3276C17.3726 16.3072 17.3726 16.2858 17.3778 16.2654L19.4505 14.1928C19.4677 14.1809 19.4882 14.1746 19.5092 14.1746C19.5302 14.1746 19.5506 14.1809 19.5679 14.1928C19.5792 14.209 19.5853 14.2283 19.5853 14.2481C19.5853 14.2678 19.5792 14.2871 19.5679 14.3033L17.4193 18.4831C17.4024 18.4924 17.3826 18.4948 17.364 18.4901ZM17.5298 16.3622L17.4676 18.0203L19.1741 14.6902L17.5298 16.3622Z" fill="#E27525"/>
<path d="M11.609 14.4209L11.1323 17.0462L11.7334 20.1414L11.8716 16.0583L11.609 14.4209Z" fill="#E27525"/>
<path d="M11.7337 20.231C11.7139 20.2313 11.6946 20.2245 11.6794 20.2118C11.6642 20.1992 11.654 20.1815 11.6507 20.1619L11.0497 17.0599L11.5264 14.4346C11.5297 14.4151 11.5399 14.3974 11.5551 14.3847C11.5703 14.372 11.5895 14.3652 11.6093 14.3655C11.6296 14.3661 11.6493 14.3731 11.6654 14.3855C11.6815 14.3979 11.6933 14.4151 11.6991 14.4346L11.9547 16.072L11.8235 20.1758C11.8219 20.1972 11.8126 20.2174 11.7974 20.2326C11.7822 20.2478 11.762 20.2571 11.7406 20.2587L11.7337 20.231ZM11.2224 17.0461L11.6646 19.3743L11.7682 16.0581L11.5886 14.9389L11.2224 17.0461Z" fill="#E27525"/>
<path d="M14.4278 14.4209L14.1791 16.0514L14.3034 20.1414L14.9045 17.0462L14.4278 14.4209Z" fill="#E27525"/>
<path d="M14.2684 20.2309C14.247 20.2293 14.2268 20.2201 14.2116 20.2048C14.1964 20.1896 14.1871 20.1694 14.1855 20.148L14.0612 16.058L14.3168 14.4068C14.319 14.3949 14.3239 14.3837 14.3309 14.3739C14.338 14.3641 14.3471 14.3559 14.3576 14.35C14.3681 14.3441 14.3798 14.3405 14.3919 14.3396C14.4039 14.3387 14.416 14.3404 14.4273 14.3446C14.4471 14.3444 14.4664 14.3512 14.4816 14.3638C14.4968 14.3765 14.5069 14.3942 14.5102 14.4137L14.9869 17.039L14.3859 20.1411C14.3887 20.1561 14.3872 20.1717 14.3817 20.186C14.3762 20.2002 14.3669 20.2127 14.3547 20.222C14.3426 20.2313 14.328 20.2371 14.3128 20.2387C14.2976 20.2402 14.2822 20.2375 14.2684 20.2309ZM14.4273 14.9457L14.2546 16.0649L14.3582 19.3673L14.8073 17.046L14.4273 14.9457Z" fill="#E27525"/>
<path d="M14.87 17.046L14.2689 20.1411L14.6973 20.4451L17.364 18.3724L17.447 16.2998L14.87 17.046Z" fill="#F5841F"/>
<path d="M14.6975 20.5627H14.6492L14.2139 20.2588C14.2002 20.2486 14.1897 20.2348 14.1836 20.2189C14.1775 20.203 14.176 20.1857 14.1794 20.1689L14.7873 17.0738C14.7882 17.058 14.794 17.0428 14.8039 17.0304C14.8138 17.018 14.8273 17.009 14.8426 17.0047L17.4196 16.2517C17.4316 16.2465 17.4445 16.2439 17.4576 16.2439C17.4706 16.2439 17.4836 16.2465 17.4956 16.2517C17.5046 16.2762 17.5046 16.3031 17.4956 16.3277L17.4127 18.4003C17.4172 18.4112 17.4196 18.423 17.4196 18.4348C17.4196 18.4467 17.4172 18.4584 17.4127 18.4694L14.7459 20.542C14.7328 20.5545 14.7156 20.5618 14.6975 20.5627ZM14.3659 20.1344L14.6975 20.3693L17.2814 18.3588L17.3505 16.4382L14.9462 17.1291L14.3659 20.1344Z" fill="#F5841F"/>
<path d="M8.56909 16.293L8.63818 18.3656L11.305 20.4382L11.7333 20.1342L11.1322 17.0391L8.56909 16.293Z" fill="#F5841F"/>
<path d="M11.3047 20.5625C11.2867 20.5683 11.2674 20.5683 11.2494 20.5625L8.58261 18.4899C8.57608 18.4673 8.57608 18.4434 8.58261 18.4208L8.50661 16.3482C8.49763 16.3236 8.49763 16.2967 8.50661 16.2722C8.51863 16.2671 8.53155 16.2644 8.54461 16.2644C8.55767 16.2644 8.5706 16.2671 8.58261 16.2722L11.1527 17.0252C11.1684 17.03 11.1824 17.0389 11.1934 17.0511C11.2044 17.0633 11.2118 17.0782 11.2149 17.0943L11.8159 20.1895C11.8193 20.2062 11.8178 20.2235 11.8117 20.2394C11.8056 20.2553 11.7951 20.2691 11.7814 20.2793L11.3461 20.5833L11.3047 20.5625ZM8.72079 18.3586L11.3047 20.3691L11.6432 20.1342L11.0629 17.1081L8.65861 16.4173L8.72079 18.3586Z" fill="#F5841F"/>
<path d="M14.9246 23.3261V22.4763L14.6966 22.276H11.2422L11.0211 22.4763V23.3261L8.20923 21.9443L9.211 22.7665L11.2836 24.1482H14.7795L16.8521 22.7665L17.7848 21.9443L14.9246 23.3261Z" fill="#C0AC9D"/>
<path d="M14.746 24.2589H11.2502H11.2018L9.1637 22.8771L8.15502 22.048C8.14143 22.0328 8.13391 22.0132 8.13391 21.9928C8.13391 21.9724 8.14143 21.9527 8.15502 21.9375C8.16725 21.9206 8.18463 21.9081 8.20455 21.9019C8.22447 21.8956 8.24588 21.896 8.26556 21.903L11.0291 23.2087V22.5178C11.0298 22.5046 11.0332 22.4916 11.0391 22.4797C11.0451 22.4678 11.0534 22.4573 11.0636 22.4488L11.2847 22.2553C11.3025 22.2484 11.3222 22.2484 11.34 22.2553H14.7944C14.8121 22.2484 14.8319 22.2484 14.8496 22.2553L15.0845 22.4488C15.0924 22.4711 15.0924 22.4955 15.0845 22.5178V23.2087L17.848 21.903C17.8678 21.8971 17.8889 21.8972 17.9086 21.9034C17.9283 21.9095 17.9457 21.9214 17.9586 21.9375C17.9722 21.9527 17.9797 21.9724 17.9797 21.9928C17.9797 22.0132 17.9722 22.0328 17.9586 22.048L16.9637 22.8771L14.8911 24.2589H14.746ZM11.2916 24.0861H14.746L16.7703 22.7044L17.2262 22.3244L14.9878 23.3883C14.9758 23.3973 14.9613 23.4022 14.9463 23.4022C14.9314 23.4022 14.9169 23.3973 14.9049 23.3883C14.8911 23.3814 14.8797 23.3704 14.8723 23.3568C14.8649 23.3433 14.8618 23.3277 14.8634 23.3124V22.504L14.6838 22.3589H11.3192L11.1534 22.504V23.3124C11.1551 23.3277 11.152 23.3433 11.1446 23.3568C11.1372 23.3704 11.1258 23.3814 11.112 23.3883C11.1 23.3973 11.0855 23.4022 11.0705 23.4022C11.0556 23.4022 11.041 23.3973 11.0291 23.3883L8.79754 22.3313L9.25352 22.7044L11.2916 24.0861Z" fill="#C0AC9D"/>
<path d="M14.6968 20.4453L14.2684 20.1414H11.7329L11.3046 20.4453L11.0627 22.4558L11.2838 22.2554H14.7382L14.9662 22.4558L14.6968 20.4453Z" fill="#161616"/>
<path d="M11.0634 22.5384H11.022C11.0076 22.5285 10.9962 22.515 10.9889 22.4992C10.9816 22.4834 10.9787 22.4659 10.9805 22.4486L11.2223 20.445C11.2226 20.4326 11.2258 20.4205 11.2319 20.4096C11.2379 20.3988 11.2465 20.3896 11.2569 20.3828L11.6852 20.0789H11.7336H14.2691H14.3174L14.7458 20.3828C14.7562 20.3896 14.7648 20.3988 14.7708 20.4096C14.7768 20.4205 14.7801 20.4326 14.7803 20.445L15.036 22.4486C15.0363 22.4664 15.0321 22.4841 15.0236 22.4998C15.0151 22.5156 15.0027 22.5289 14.9876 22.5384C14.9735 22.5485 14.9566 22.5539 14.9392 22.5539C14.9219 22.5539 14.905 22.5485 14.8909 22.5384L14.6836 22.3657H11.319L11.1187 22.5384C11.1009 22.5453 11.0812 22.5453 11.0634 22.5384ZM11.2845 22.1722H14.7389C14.7566 22.1653 14.7764 22.1653 14.7941 22.1722L14.8563 22.2206L14.6352 20.4727L14.2622 20.2101H11.7612L11.3881 20.4727L11.174 22.2206L11.2292 22.1722C11.247 22.1653 11.2667 22.1653 11.2845 22.1722Z" fill="#161616"/>
<path d="M23.8511 9.84042L24.618 6.13041L23.4642 2.67603L14.697 9.17718L18.0754 12.0236L22.8355 13.4053L23.8857 12.1756L23.409 11.8509L24.0998 11.16L23.5471 10.7247L24.238 10.172L23.8511 9.84042Z" fill="#763E1A"/>
<path d="M22.8349 13.495L18.0679 12.1132L14.6411 9.24611C14.6326 9.22387 14.6326 9.19927 14.6411 9.17702C14.6409 9.16357 14.6439 9.15025 14.6499 9.13821C14.6559 9.12617 14.6648 9.11578 14.6757 9.10794L23.4084 2.59988C23.4193 2.59147 23.4326 2.58691 23.4464 2.58691C23.4601 2.58691 23.4735 2.59147 23.4844 2.59988C23.4977 2.60322 23.5099 2.61013 23.5197 2.61986C23.5294 2.62959 23.5363 2.64179 23.5396 2.65515L24.6865 6.10953C24.6897 6.12316 24.6897 6.13735 24.6865 6.15098L23.9334 9.80572L24.3687 10.1373C24.3801 10.1449 24.3894 10.1552 24.3959 10.1672C24.4024 10.1793 24.4058 10.1927 24.4058 10.2064C24.4058 10.2201 24.4024 10.2336 24.3959 10.2456C24.3894 10.2577 24.3801 10.268 24.3687 10.2755L23.7262 10.7591L24.196 11.1253C24.2064 11.1321 24.2149 11.1413 24.221 11.1521C24.227 11.1629 24.2303 11.1751 24.2305 11.1875C24.237 11.21 24.237 11.234 24.2305 11.2566L23.5811 11.8438L23.9542 12.1132C23.9616 12.1333 23.9616 12.1554 23.9542 12.1754C23.961 12.1956 23.961 12.2174 23.9542 12.2376L22.904 13.4674C22.8952 13.4766 22.8844 13.4839 22.8725 13.4887C22.8606 13.4934 22.8478 13.4956 22.8349 13.495ZM18.1163 11.9474L22.8073 13.3292L23.7607 12.2169L23.4084 11.9267C23.3982 11.9182 23.3898 11.9077 23.3839 11.8958C23.378 11.8839 23.3745 11.8709 23.3738 11.8576C23.3678 11.8471 23.3646 11.8352 23.3646 11.8231C23.3646 11.811 23.3678 11.799 23.3738 11.7885L24.0233 11.1944L23.5465 10.8282C23.5356 10.8204 23.5268 10.81 23.5207 10.7979C23.5147 10.7859 23.5117 10.7726 23.512 10.7591C23.5127 10.7459 23.5161 10.7329 23.5221 10.721C23.528 10.7091 23.5364 10.6986 23.5465 10.69L24.1891 10.2064L23.8022 9.90935C23.7943 9.8957 23.7901 9.88021 23.7901 9.86445C23.7901 9.84868 23.7943 9.83319 23.8022 9.81954L24.5621 6.13717L23.4084 2.82786L14.8346 9.18393L18.1163 11.9474Z" fill="#763E1A"/>
<path d="M1.39026 6.13026L2.15713 9.84027L1.66661 10.1995L2.39894 10.7522L1.84624 11.1875L2.57166 11.8784L2.11568 12.21L3.16581 13.4121L7.93286 12.0304L11.3043 9.18394L2.53711 2.6897L1.39026 6.13026Z" fill="#763E1A"/>
<path d="M3.1665 13.4957C3.15555 13.5003 3.14381 13.5026 3.13195 13.5026C3.1201 13.5026 3.10836 13.5003 3.09741 13.4957L2.04728 12.2729C2.04043 12.2527 2.04043 12.2309 2.04728 12.2107C2.05285 12.1872 2.0648 12.1657 2.08182 12.1485L2.45489 11.8791L1.78474 11.2573C1.77822 11.2347 1.77822 11.2108 1.78474 11.1882C1.78036 11.1784 1.77809 11.1678 1.77809 11.1571C1.77809 11.1464 1.78036 11.1358 1.78474 11.126L2.25454 10.7599L1.60512 10.2763C1.59372 10.2687 1.58436 10.2584 1.57789 10.2464C1.57142 10.2343 1.56804 10.2208 1.56804 10.2072C1.56804 10.1935 1.57142 10.18 1.57789 10.168C1.58436 10.1559 1.59372 10.1456 1.60512 10.1381L2.05419 9.80646L1.30113 6.15172C1.2979 6.13809 1.2979 6.12389 1.30113 6.11026L2.44799 2.65588C2.45186 2.64162 2.4598 2.6288 2.47084 2.61898C2.48188 2.60916 2.49555 2.60278 2.51016 2.60061C2.52105 2.5922 2.53441 2.58765 2.54816 2.58765C2.56191 2.58765 2.57528 2.5922 2.58616 2.60061L11.3534 9.10867C11.3652 9.11616 11.3751 9.12631 11.3823 9.1383C11.3895 9.1503 11.3938 9.16381 11.3948 9.17776C11.4022 9.2002 11.4022 9.22441 11.3948 9.24684L7.98882 12.0933L3.22177 13.475L3.1665 13.4957ZM2.24072 12.2038L3.19413 13.3161L7.89209 11.9344L11.1669 9.17085L2.57925 2.8286L1.47385 6.1379L2.24072 9.82027C2.24935 9.83366 2.25394 9.84925 2.25394 9.86518C2.25394 9.88111 2.24935 9.8967 2.24072 9.91009L1.81238 10.2003L2.45489 10.6839C2.46509 10.6924 2.47342 10.7029 2.47936 10.7148C2.48531 10.7267 2.48874 10.7397 2.48944 10.753C2.48972 10.7664 2.48672 10.7797 2.4807 10.7918C2.47469 10.8038 2.46583 10.8142 2.45489 10.822L1.99201 11.1951L2.64143 11.7893C2.6475 11.7998 2.65069 11.8117 2.65069 11.8238C2.65069 11.8359 2.6475 11.8479 2.64143 11.8584C2.64073 11.8716 2.6373 11.8846 2.63136 11.8965C2.62541 11.9084 2.61708 11.9189 2.60689 11.9274L2.24072 12.2038Z" fill="#763E1A"/>
<path d="M22.8354 13.4123L18.0753 12.0305L19.5054 14.1999L17.3636 18.3451H20.1962H24.4382L22.8354 13.4123Z" fill="#F5841F"/>
<path d="M17.364 18.4901C17.3489 18.4896 17.3343 18.4856 17.3211 18.4784C17.3079 18.4712 17.2965 18.461 17.288 18.4487C17.2813 18.4359 17.2778 18.4216 17.2778 18.4072C17.2778 18.3928 17.2813 18.3786 17.288 18.3658L19.409 14.2205L18.0272 12.0995C18.0171 12.0854 18.0116 12.0685 18.0116 12.0511C18.0116 12.0338 18.0171 12.0169 18.0272 12.0028C18.0379 11.9878 18.0529 11.9765 18.0701 11.9703C18.0874 11.9641 18.1062 11.9634 18.1239 11.9682L22.891 13.35C22.9043 13.3533 22.9165 13.3602 22.9263 13.37C22.936 13.3797 22.9429 13.3919 22.9463 13.4053L24.5491 18.3312C24.5537 18.3441 24.555 18.3579 24.5529 18.3715C24.5509 18.385 24.5455 18.3978 24.5373 18.4087C24.5291 18.4197 24.5183 18.4284 24.5059 18.4342C24.4935 18.4399 24.4798 18.4425 24.4662 18.4418H20.1966L17.364 18.4763V18.4901ZM18.2759 12.21L19.5817 14.179C19.5883 14.1918 19.5918 14.2061 19.5918 14.2205C19.5918 14.2349 19.5883 14.2491 19.5817 14.2619L17.509 18.3174L20.1966 18.2829H24.3418L22.8012 13.5158L18.2759 12.21Z" fill="#F5841F"/>
<path d="M7.93395 12.0237L3.1669 13.4054L1.57788 18.3383H5.80605H8.63864L6.49692 14.193L7.93395 12.0237Z" fill="#F5841F"/>
<path d="M8.63771 18.4901L5.80512 18.4555H1.57695C1.56611 18.4605 1.55433 18.4631 1.54241 18.4631C1.53048 18.4631 1.5187 18.4605 1.50786 18.4555C1.50119 18.444 1.49768 18.4309 1.49768 18.4175C1.49768 18.4042 1.50119 18.3911 1.50786 18.3795L3.09688 13.4536C3.10022 13.4402 3.10713 13.428 3.11686 13.4183C3.1266 13.4086 3.13879 13.4016 3.15215 13.3983L7.9192 12.0165C7.93686 12.0106 7.95601 12.0108 7.97356 12.017C7.9911 12.0233 8.00603 12.0353 8.01592 12.0511C8.02605 12.0652 8.03149 12.0821 8.03149 12.0995C8.03149 12.1168 8.02605 12.1337 8.01592 12.1478L6.63417 14.2688L8.75516 18.4141C8.76182 18.4269 8.7653 18.4411 8.7653 18.4555C8.7653 18.47 8.76182 18.4842 8.75516 18.497C8.74753 18.5053 8.73816 18.5117 8.72772 18.516C8.71728 18.5202 8.70604 18.522 8.6948 18.5214C8.68356 18.5207 8.67261 18.5175 8.66274 18.5121C8.65286 18.5067 8.64432 18.4992 8.63771 18.4901ZM1.72894 18.2828H5.80512L8.49954 18.3173L6.42691 14.2619C6.42025 14.2491 6.41677 14.2349 6.41677 14.2204C6.41677 14.206 6.42025 14.1918 6.42691 14.179L7.72576 12.1754L3.23505 13.4812L1.72894 18.2828Z" fill="#F5841F"/>
<path d="M14.4279 14.421L14.7318 9.17727L16.1136 5.44653H9.92334L11.3051 9.17727L11.6091 14.421L11.7265 16.0722V20.1415H14.262V16.0722L14.4279 14.421Z" fill="#F5841F"/>
<path d="M14.2681 20.231H11.7326C11.7211 20.231 11.7097 20.2286 11.6992 20.2241C11.6887 20.2195 11.6792 20.2127 11.6714 20.2043C11.6636 20.1958 11.6576 20.1859 11.6539 20.175C11.6502 20.1641 11.6487 20.1526 11.6497 20.1411V16.0719L11.5323 14.4276L11.2283 9.19765L9.84651 5.47382C9.84243 5.44915 9.84806 5.42385 9.86223 5.40324C9.8764 5.38263 9.89801 5.36831 9.92251 5.36328H16.0782C16.0917 5.36488 16.1047 5.36929 16.1163 5.37623C16.1279 5.38317 16.138 5.39248 16.1458 5.40355C16.1536 5.41462 16.159 5.42722 16.1617 5.44051C16.1643 5.45381 16.1641 5.46751 16.1611 5.48073L14.7794 9.20456L14.4754 14.4345L14.3579 16.0857V20.148C14.358 20.1595 14.3556 20.1709 14.351 20.1815C14.3464 20.192 14.3397 20.2015 14.3313 20.2093C14.3228 20.2171 14.3128 20.223 14.302 20.2267C14.2911 20.2305 14.2796 20.2319 14.2681 20.231ZM11.8224 20.0582H14.1783V16.0719L14.2888 14.4207L14.5997 9.17001L15.94 5.54982H10.0469L11.3872 9.14929L11.6912 14.4L11.8086 16.0442L11.8224 20.0582Z" fill="#F5841F"/>
</svg>
