<svg width="240" height="58" viewBox="0 0 240 58" fill="none" xmlns="http://www.w3.org/2000/svg">
<path d="M52.3772 14.9814C51.8002 33.4336 44.244 47.0787 28.5328 55.9065C25.66 57.5215 26.6482 57.5036 23.7415 55.8925C11.7634 49.2307 4.07351 39.3069 1.12291 25.8675C-0.138787 20.116 -0.400309 14.3026 0.661749 8.47726C0.741603 8.03806 1.27862 7.4192 1.65992 7.37128C2.04123 7.32337 2.71399 7.77055 2.92561 8.18579C6.17034 14.4224 9.37648 20.6776 12.544 26.9515C12.8714 27.5983 13.2308 27.8498 13.9754 27.8478C22.3175 27.8199 30.6609 27.8199 39.0056 27.8478C39.7283 27.8478 40.0437 27.5923 40.3372 26.9754C43.3137 20.7189 46.3262 14.4783 49.3207 8.22971C49.6022 7.64478 49.9775 7.18363 50.6823 7.3094C51.387 7.43517 51.6225 7.9083 51.6804 8.59904C51.918 10.9447 52.1915 13.2805 52.3772 14.9814ZM26.1771 53.4829L38.6303 30.2095H14.2369L26.1771 53.4829ZM23.3822 52.9898L2.49639 12.3043C0.434165 27.5823 10.0346 46.2781 23.3722 52.9898H23.3822ZM49.9396 12.8892C43.0655 26.1982 36.2027 39.4806 29.3513 52.7363C34.5038 50.5583 42.0301 42.533 45.5536 35.3222C49.0273 28.2132 50.3489 20.6869 49.9396 12.8892Z" fill="white"/>
<path d="M149.188 31.1703L155.836 39.0719C154.736 39.0719 153.88 39.1258 153.041 39.0439C152.744 39.014 152.426 38.6985 152.207 38.445C150.354 36.273 148.506 34.097 146.697 31.889C146.513 31.643 146.271 31.4473 145.992 31.32C145.713 31.1926 145.406 31.1377 145.1 31.1603C142.504 31.2003 139.921 31.1763 137.178 31.1763V39.02H134.866V17.9665C135.212 17.9485 135.563 17.9146 135.917 17.9146C141.199 17.9146 146.481 17.9146 151.764 17.9146C154.71 17.9146 155.982 19.2142 155.984 22.1907C155.984 23.9176 155.998 25.6424 155.984 27.3673C155.962 29.7349 154.546 31.1444 152.191 31.1603C151.276 31.1763 150.358 31.1703 149.188 31.1703ZM145.349 28.7867C147.575 28.7867 149.799 28.7867 152.023 28.7867C153.205 28.7867 153.574 28.4273 153.584 27.2495C153.598 25.4594 153.598 23.6687 153.584 21.8773C153.574 20.6795 153.209 20.3002 152.049 20.2962C147.601 20.2855 143.153 20.2855 138.703 20.2962C137.522 20.2962 137.146 20.6755 137.132 21.8494C137.112 23.6394 137.112 25.4301 137.132 27.2215C137.144 28.4473 137.512 28.7847 138.777 28.7887C140.967 28.7907 143.159 28.7867 145.349 28.7867Z" fill="white"/>
<path d="M117.656 29.6827H104.139V36.7039H120.842C120.944 36.8616 121.006 36.9035 121.012 36.9714C121.191 39.0776 121.191 39.0776 119.083 39.0776H101.789V17.8823H119.62C121.066 17.8823 121.066 17.8823 121.046 19.3317C121.046 19.5912 121.018 19.8487 120.998 20.2141H104.162V27.2632H117.656V29.6827Z" fill="white"/>
<path d="M87.9123 36.7321V39.0319C87.6049 39.0498 87.2895 39.0858 86.974 39.0858C81.5892 39.0858 76.2037 39.0858 70.8176 39.0858C68.1884 39.0858 66.8409 37.7222 66.8389 35.0931C66.8389 30.6771 66.8389 26.2619 66.8389 21.8473C66.8389 19.278 68.2024 17.9065 70.7717 17.9025C76.1924 17.8932 81.6112 17.8932 87.0279 17.9025C87.2895 17.9025 87.551 17.9304 87.8864 17.9484V20.2582H86.7405C81.5207 20.2582 76.3009 20.2582 71.0811 20.2582C69.5 20.2582 69.2125 20.5457 69.2125 22.1008C69.2125 26.385 69.2125 30.6678 69.2125 34.9493C69.2125 36.4266 69.5259 36.746 71.0352 36.746C76.2563 36.746 81.4761 36.746 86.6945 36.746L87.9123 36.7321Z" fill="white"/>
<path d="M240 39.0762C238.916 39.0762 238.119 39.1381 237.343 39.0462C237.007 39.0083 236.644 38.7088 236.409 38.4293C234.101 35.7263 231.817 32.9973 229.521 30.2902C229.304 30.0327 228.964 29.7173 228.673 29.7113C226.557 29.6614 224.436 29.6833 222.195 29.6833V34.3368C222.195 35.5985 222.157 36.8622 222.209 38.1299C222.24 38.8626 222.025 39.178 221.262 39.0881C220.807 39.0629 220.35 39.0629 219.895 39.0881V17.8829C220.308 17.9079 220.723 17.9079 221.136 17.8829C221.935 17.7871 222.234 18.0626 222.215 18.917C222.159 21.3127 222.195 23.6963 222.195 26.0879V27.2857C224.45 27.2857 226.601 27.3037 228.747 27.2598C229.006 27.2598 229.306 26.9424 229.507 26.7068C231.657 24.1734 233.831 21.66 235.907 19.0688C236.624 18.1724 237.367 17.7053 238.503 17.8869C238.884 17.9468 239.283 17.8869 239.964 17.8869L231.106 28.4835L240 39.0762Z" fill="white"/>
<path d="M168.706 17.8823H169.904C176.046 17.8823 182.19 17.8823 188.336 17.8823C189.971 17.8823 189.846 17.5809 189.85 19.4395C189.85 19.6651 189.81 19.8887 189.78 20.2061H180.469V39.0037H178.129V20.262H168.706V17.8823Z" fill="white"/>
<path d="M26.1733 2.23919C25.8439 2.32703 25.4905 2.41087 25.1432 2.51668L9.92299 7.16817C9.6994 7.23605 9.4798 7.30792 9.25621 7.36781C8.58144 7.55147 8.03444 7.36781 7.80886 6.68905C7.57329 5.98434 7.85278 5.44532 8.58544 5.21574C10.5498 4.60686 12.5162 4.01793 14.4827 3.41903C18.096 2.30706 21.7074 1.19709 25.3328 0.117068C25.8315 -0.0304225 26.361 -0.0387069 26.864 0.0931115C32.4857 1.77404 38.0975 3.4869 43.7112 5.20776C43.9627 5.28561 44.336 5.32953 44.4239 5.50322C44.6435 5.93243 44.917 6.47145 44.8232 6.88669C44.6774 7.51953 44.0466 7.64729 43.4377 7.46762C41.7821 6.98318 40.1304 6.49008 38.4828 5.98833C34.6751 4.82779 30.87 3.66458 27.0676 2.49871C26.7822 2.3949 26.4947 2.32902 26.1733 2.23919Z" fill="white"/>
<path d="M202.762 17.9263H205.01V38.9977H202.762V17.9263Z" fill="white"/>
</svg>
