<svg width="166" height="64" viewBox="0 0 166 64" fill="none" xmlns="http://www.w3.org/2000/svg">
    <path d="M148.948 26.3106C148.948 24.3143 148.977 22.3109 148.934 20.3146C148.913 19.2706 149.322 18.8333 150.38 18.8545C152.426 18.8968 154.479 18.8968 156.524 18.8545C159.402 18.798 160.602 17.5565 160.623 14.6785C160.63 13.4511 160.665 12.2166 160.595 10.9892C160.482 9.06345 159.283 7.85721 157.357 7.77961C155.565 7.70907 153.773 7.77961 151.982 7.72318C150.112 7.65969 148.956 6.62275 148.97 5.13435C148.991 3.61773 150.134 2.64427 152.017 2.609C153.759 2.58078 155.502 2.55962 157.244 2.61605C162.309 2.7924 165.645 6.22772 165.681 11.2643C165.695 12.6963 165.666 14.1353 165.681 15.5673C165.702 17.8457 164.912 19.7997 163.275 21.3516C162.527 22.064 162.436 22.7483 162.697 23.6794C163.607 26.9384 164.411 30.2185 165.335 33.4704C165.681 34.6978 165.398 35.1705 164.093 35.1493C159.72 35.0858 160.623 35.5232 159.593 31.8339C159 29.7106 158.344 27.6015 157.942 25.4359C157.597 23.6018 156.348 23.9122 155.149 23.9193C153.738 23.9263 154.049 24.9985 154.034 25.8097C154.006 27.9118 154.049 30.014 154.013 32.109C153.985 33.9854 152.983 35.0858 151.417 35.0576C149.915 35.0294 148.97 33.9501 148.941 32.1513C148.927 30.2044 148.948 28.2575 148.948 26.3106Z" fill="white"/>
    <path d="M154.782 54.9075C154.782 53.5673 154.803 52.234 154.775 50.8938C154.761 50.1954 155.036 49.8991 155.741 49.9133C157.117 49.9415 158.485 49.9415 159.861 49.9133C161.787 49.878 162.591 49.0456 162.605 47.1128C162.612 46.2875 162.633 45.4622 162.591 44.6439C162.52 43.353 161.709 42.5488 160.425 42.4924C159.226 42.443 158.02 42.4924 156.821 42.4501C155.565 42.4078 154.789 41.7165 154.803 40.7148C154.817 39.699 155.586 39.043 156.849 39.0218C158.013 39.0007 159.184 38.9865 160.348 39.0289C163.741 39.1488 165.97 41.4484 165.998 44.8202C166.005 45.7796 165.991 46.7389 165.998 47.7053C166.012 49.229 165.483 50.5411 164.39 51.578C163.889 52.0577 163.825 52.5091 164.002 53.137C164.608 55.3167 165.151 57.5175 165.772 59.6972C166.005 60.5225 165.814 60.8329 164.94 60.8259C162.012 60.7835 162.619 61.0728 161.928 58.6038C161.533 57.186 161.095 55.7681 160.82 54.322C160.587 53.0876 159.755 53.2992 158.951 53.3063C158.006 53.3133 158.21 54.0258 158.203 54.5689C158.182 55.9727 158.21 57.3835 158.189 58.7872C158.168 60.0429 157.498 60.7835 156.447 60.7624C155.438 60.7412 154.803 60.0217 154.789 58.8155C154.768 57.5175 154.782 56.2125 154.782 54.9075Z" fill="white"/>
    <path d="M104.692 15.6729C104.692 19.1576 104.713 22.6423 104.685 26.1269C104.642 31.2341 100.854 35.0644 95.8884 35.0785C90.8871 35.0926 87.0568 31.3399 86.9792 26.2539C86.9157 21.697 86.9298 17.133 86.9369 12.5761C86.9369 10.5516 87.8751 9.3736 89.4269 9.33833C91.007 9.296 92.044 10.5446 92.0581 12.6185C92.0863 17.0766 92.051 21.5348 92.0863 25.9929C92.1074 28.4266 93.7722 30.0631 96.0083 29.9573C98.1668 29.8515 99.5494 28.3419 99.5565 25.9506C99.5776 20.0111 99.5565 14.0645 99.5494 8.12503C99.5494 6.69306 99.5494 5.25403 99.5423 3.82206C99.5423 3.0179 99.8739 2.55234 100.734 2.60172C100.833 2.60877 100.939 2.60172 101.038 2.60172C105.2 2.6652 104.649 2.08677 104.678 6.1499C104.713 9.31716 104.699 12.4915 104.692 15.6729Z" fill="white"/>
    <path d="M67.9053 26.0918C69.0833 25.8802 70.0285 26.2117 70.5152 27.8342C70.9596 29.3226 72.4903 30.0068 74.1128 29.8939C75.714 29.7881 76.8144 28.9417 77.3435 27.4674C77.8796 25.9719 77.5481 24.554 76.2642 23.6088C74.5783 22.3673 72.7443 21.3374 71.0231 20.1382C69.7252 19.2353 68.3708 18.3606 67.2775 17.239C64.3148 14.2128 64.2442 9.11273 66.9812 5.86082C69.8945 2.39023 75.0933 1.49436 78.592 4.0832C79.9394 5.07782 81.0539 6.50979 81.9639 7.94176C82.8103 9.27498 82.3589 10.4389 81.2091 11.1161C80.0099 11.8215 78.5145 11.5393 77.6257 10.4177C77.28 9.98038 77.0261 9.45838 76.6593 9.03514C75.2344 7.41976 72.8501 7.29984 71.3123 8.73887C69.6899 10.2625 69.6053 12.4916 71.3758 13.98C72.8924 15.2568 74.6841 16.195 76.2995 17.3519C77.7879 18.417 79.3609 19.4399 80.6236 20.7378C83.1419 23.3337 83.4029 27.3968 81.5054 30.7263C79.629 34.0135 75.9256 35.6218 71.8837 34.8882C68.7024 34.3168 65.6127 31.1072 65.1401 27.8906C64.8862 26.2329 65.0978 26.0848 67.9053 26.0918Z" fill="white"/>
    <path d="M108.981 27.016C108.981 24.8646 109.03 22.7131 108.967 20.5616C108.924 19.3201 109.333 18.791 110.631 18.8404C112.628 18.918 114.624 18.8898 116.62 18.8475C119.421 18.784 120.599 17.5636 120.641 14.7632C120.662 13.6345 120.669 12.5059 120.634 11.3843C120.549 8.96475 119.414 7.81494 117.022 7.75146C115.386 7.70913 113.742 7.76556 112.106 7.71619C110.145 7.65975 108.945 6.60165 109.009 5.06387C109.065 3.56136 110.215 2.63022 112.127 2.60201C113.763 2.57379 115.407 2.56674 117.043 2.60201C122.369 2.73603 125.713 6.15724 125.741 11.476C125.748 12.7034 125.748 13.9308 125.741 15.1653C125.699 20.2865 122.355 23.7006 117.206 23.8911C114.052 24.011 114.052 24.011 114.052 27.1571C114.052 29.3086 114.017 31.4601 114.067 33.6116C114.095 34.7543 113.622 35.1494 112.522 35.1423C108.353 35.1141 109.037 35.3962 108.988 31.7775C108.959 30.1904 108.974 28.6032 108.981 27.016Z" fill="white"/>
    <path d="M136.611 35.1282C134.869 35.1282 133.126 35.1071 131.384 35.1353C130.411 35.1494 129.994 34.7544 130.002 33.7668C130.023 28.8995 129.987 24.0322 130.037 19.1649C130.058 17.2603 130.996 16.3927 132.95 16.3574C135.2 16.3151 137.458 16.3151 139.715 16.3574C141.478 16.3856 142.586 17.4014 142.572 18.8828C142.558 20.35 141.443 21.3235 139.658 21.3799C138.586 21.4152 137.507 21.4152 136.428 21.394C135.511 21.3799 135.144 21.8031 135.151 22.699C135.172 24.6953 135.179 26.6987 135.151 28.6949C135.13 29.7319 135.652 30.0141 136.583 29.9999C138.276 29.9717 139.962 29.9647 141.655 30.007C143.418 30.0493 144.589 31.0369 144.646 32.4548C144.709 33.9361 143.545 35.0154 141.69 35.0789C140.004 35.1353 138.311 35.093 136.618 35.093L136.611 35.1282Z" fill="white"/>
    <path d="M109.453 49.1515C109.453 46.3934 109.489 43.6353 109.439 40.8771C109.418 39.6568 109.82 39.1136 111.118 39.1207C112.36 39.1277 112.846 39.5369 112.832 40.8207C112.783 46.6615 112.783 52.5022 112.832 58.3429C112.846 59.6127 112.395 60.0571 111.132 60.05C108.6 60.0359 108.586 60.0994 107.901 57.6587C107.196 55.1545 106.526 52.6433 105.835 50.1391L105.362 50.1603C105.362 51.169 105.376 52.1777 105.362 53.1864C105.341 54.823 104.748 55.6624 103.634 55.5566C102.23 55.4226 101.99 54.4068 101.997 53.2288C102.011 49.5395 101.99 45.8502 102.011 42.161C102.018 40.4398 102.787 39.424 104.128 39.2547C105.433 39.0854 106.385 39.7908 106.857 41.3991C107.506 43.6141 108.078 45.8432 108.699 48.0652C108.811 48.4743 108.981 48.8764 109.129 49.2785L109.453 49.1515Z" fill="white"/>
    <path d="M80.3768 46.6404C80.1158 48.0724 79.8548 49.4973 79.6009 50.9292C79.2059 53.2006 78.8249 55.472 78.437 57.7434C78.4017 57.941 78.3523 58.1455 78.303 58.343C78.042 59.3588 77.4424 60.0501 76.3419 59.8385C75.2486 59.6269 74.8959 58.7804 75.0793 57.7293C76.0668 51.9239 77.0403 46.1184 78.1125 40.327C78.1971 39.8685 78.9237 39.2548 79.4175 39.1913C82.7046 38.761 82.9092 38.9303 83.4806 42.1893C84.3623 47.1835 85.2088 52.1849 86.0694 57.1791C86.0835 57.2779 86.0976 57.3837 86.1188 57.4824C86.3374 58.6252 86.1117 59.6339 84.8279 59.8456C83.6428 60.0431 83.0785 59.2318 82.881 58.1385C82.2743 54.7102 81.6748 51.2819 81.0681 47.8466C80.9976 47.4587 80.9129 47.0777 80.8353 46.6968L80.3768 46.6404Z" fill="white"/>
    <path d="M115.449 49.497C115.449 47.8604 115.386 46.2168 115.463 44.5803C115.611 41.5823 117.989 39.2968 120.944 39.184C123.808 39.0781 126.347 41.2085 126.75 44.0653C126.905 45.1799 126.75 46.2309 125.466 46.4708C124.196 46.7106 123.674 45.8994 123.462 44.7073C123.194 43.2048 122.249 42.4711 120.93 42.5769C119.632 42.6828 118.856 43.5645 118.835 45.1305C118.8 48.1003 118.793 51.0771 118.835 54.0468C118.856 55.6763 119.724 56.5369 121.142 56.5298C122.531 56.5228 123.469 55.6551 123.455 54.0468C123.441 52.5231 124.281 52.4597 125.423 52.4456C126.792 52.4385 126.862 53.2638 126.827 54.2725C126.707 57.4821 124.231 59.9581 121.128 59.9581C118.108 59.9581 115.59 57.5315 115.456 54.4136C115.386 52.7771 115.449 51.1335 115.449 49.497Z" fill="white"/>
    <path d="M99.4295 47.6775C99.4295 49.7797 99.4577 51.8747 99.4224 53.9768C99.366 57.3839 96.8618 59.9868 93.7017 59.9727C90.4568 59.9586 88.0937 57.4827 88.0585 53.9909C88.0303 51.2257 88.0585 48.4605 88.0514 45.6954C88.0514 44.5597 88.3124 43.5509 89.6738 43.5791C90.9859 43.6003 91.3245 44.5526 91.3174 45.7095C91.3033 48.3195 91.3033 50.9295 91.3174 53.5395C91.3315 55.5287 92.0933 56.5022 93.617 56.5304C95.1971 56.5656 96.0224 55.5781 96.0295 53.5042C96.0506 49.3564 96.0718 45.2086 96.0224 41.0609C96.0083 39.7488 96.3187 39.0857 97.8141 39.0998C99.3096 39.1139 99.4577 39.8969 99.4365 41.0679C99.4013 43.2758 99.4295 45.4767 99.4295 47.6775Z" fill="white"/>
    <path d="M136.922 49.4336C136.922 46.5696 136.964 43.6986 136.907 40.8347C136.879 39.5791 137.345 39.1064 138.607 39.1064C139.87 39.1064 140.336 39.565 140.329 40.8206C140.293 46.6613 140.293 52.495 140.329 58.3287C140.336 59.5773 139.87 60.0499 138.607 60.0499C137.345 60.0499 136.879 59.5984 136.9 58.3358C136.964 55.366 136.922 52.4033 136.922 49.4336Z" fill="white"/>
    <path d="M137.338 2.60216C138.819 2.60216 140.3 2.56689 141.782 2.60921C143.425 2.65859 144.561 3.66732 144.631 5.02875C144.702 6.43956 143.545 7.65285 141.859 7.69518C138.847 7.76572 135.835 7.76572 132.816 7.69518C131.116 7.65285 129.994 6.46777 130.051 5.02875C130.114 3.65321 131.236 2.67975 132.887 2.60921C133.648 2.57394 134.417 2.5951 135.186 2.5951C135.906 2.5951 136.625 2.5951 137.338 2.60216Z" fill="white"/>
    <path d="M147.517 39.0219C148.49 39.0219 149.464 39.0008 150.437 39.029C151.516 39.0642 152.264 39.7203 152.313 40.6161C152.356 41.5473 151.601 42.3444 150.486 42.3655C148.504 42.4149 146.522 42.4149 144.54 42.3655C143.418 42.3373 142.685 41.5614 142.72 40.6161C142.762 39.7132 143.496 39.0713 144.589 39.0219C145.09 39.0008 145.598 39.0149 146.099 39.0149L147.517 39.0219Z" fill="white"/>
    <path d="M132.802 49.6806C132.802 52.34 132.795 54.9994 132.809 57.6658C132.809 58.8015 132.534 59.8032 131.215 59.8526C129.783 59.902 129.465 58.8368 129.465 57.6588C129.458 52.2342 129.458 46.8097 129.465 41.3851C129.465 40.2706 129.797 39.2477 131.137 39.2689C132.442 39.283 132.802 40.2423 132.802 41.3921C132.795 44.1503 132.802 46.9155 132.802 49.6806Z" fill="white"/>
    <path d="M76.4123 26.3527C76.4053 27.7142 75.199 28.8499 73.8023 28.8146C72.4057 28.7793 71.2841 27.6013 71.3123 26.2117C71.3405 24.8502 72.582 23.651 73.9082 23.7075C75.2272 23.7569 76.4264 25.0266 76.4123 26.3527Z" fill="white"/>
    <path d="M89.5045 7.7024C88.1501 7.69535 86.9862 6.475 87.0144 5.09946C87.0426 3.78036 88.1713 2.65171 89.4762 2.64466C90.8447 2.63055 92.058 3.80857 92.058 5.1559C92.058 6.51733 90.8588 7.70946 89.5045 7.7024Z" fill="white"/>
    <path d="M135.094 12.0896C135.059 13.4228 133.804 14.5585 132.442 14.495C131.123 14.4315 130.037 13.2958 130.058 11.9908C130.072 10.6082 131.243 9.46546 132.619 9.49368C133.994 9.52189 135.137 10.7211 135.094 12.0896Z" fill="white"/>
    <path d="M114.01 13.2887C113.989 14.6713 112.811 15.8 111.435 15.7577C110.06 15.7153 108.952 14.5232 109.002 13.1406C109.058 11.8356 110.18 10.7563 111.499 10.7563C112.882 10.7563 114.003 11.8779 114.003 13.2605C114.01 13.2746 114.01 13.2817 114.01 13.2887Z" fill="white"/>
    <path d="M154.006 13.1199C154.027 14.5025 152.892 15.6241 151.481 15.617C150.112 15.61 149.026 14.5871 148.977 13.2539C148.927 11.8713 150.007 10.7145 151.389 10.6651C151.403 10.6651 151.41 10.6651 151.424 10.6651C152.814 10.6369 153.985 11.7443 154.006 13.1199Z" fill="white"/>
    <path d="M73.6047 58.0679C73.5977 58.8862 72.8781 59.5634 72.0387 59.5422C71.1993 59.514 70.5362 58.8227 70.5433 57.9832C70.5574 57.165 71.3051 56.4455 72.1022 56.4807C72.8993 56.516 73.6118 57.2708 73.6047 58.0679Z" fill="white"/>
    <path d="M82.1401 58.2158C82.1331 59.0341 81.4136 59.7113 80.5741 59.6902C79.7347 59.6619 79.0716 58.9706 79.0787 58.1312C79.0928 57.3129 79.8405 56.5934 80.6376 56.6287C81.4347 56.664 82.1472 57.4187 82.1401 58.2158Z" fill="white"/>
    <path d="M105.291 58.2158C105.284 59.0341 104.565 59.7113 103.725 59.6902C102.886 59.6619 102.223 58.9706 102.23 58.1312C102.244 57.3129 102.992 56.5934 103.789 56.6287C104.579 56.6569 105.298 57.4187 105.291 58.2158Z" fill="white"/>
    <path d="M91.3034 40.7642C91.2964 41.5825 90.5769 42.2596 89.7374 42.2385C88.898 42.2103 88.2349 41.519 88.242 40.6795C88.2561 39.8613 89.0038 39.1418 89.8009 39.177C90.591 39.2123 91.3105 39.9671 91.3034 40.7642Z" fill="white"/>
    <path d="M122.665 49.5044C122.658 50.3227 121.939 50.9999 121.099 50.9787C120.26 50.9505 119.597 50.2592 119.604 49.4198C119.618 48.6015 120.366 47.882 121.163 47.9173C121.946 47.9455 122.665 48.7073 122.665 49.5044Z" fill="white"/>
    <path d="M136.385 49.5962C136.378 50.4145 135.659 51.0917 134.819 51.0705C133.98 51.0423 133.317 50.351 133.324 49.5116C133.338 48.6933 134.086 47.9738 134.883 48.0091C135.68 48.0443 136.393 48.7991 136.385 49.5962Z" fill="white"/>
    <path d="M146.169 45.2364C146.162 46.0546 145.443 46.7318 144.603 46.7107C143.764 46.6824 143.101 45.9911 143.108 45.1517C143.122 44.3334 143.87 43.6139 144.667 43.6492C145.457 43.6774 146.176 44.4392 146.169 45.2364Z" fill="white"/>
    <path d="M158.21 45.8501C158.203 46.6684 157.484 47.3456 156.644 47.3244C155.805 47.2962 155.142 46.6049 155.149 45.7655C155.163 44.9472 155.911 44.2277 156.708 44.263C157.505 44.2982 158.21 45.053 158.21 45.8501Z" fill="white"/>
    <path d="M68.1025 40.0591C68.0955 40.8774 67.376 41.5546 66.5365 41.5334C65.6971 41.5052 65.034 40.8139 65.0411 39.9745C65.0552 39.1562 65.8029 38.4367 66.6 38.4719C67.3901 38.5002 68.1096 39.262 68.1025 40.0591Z" fill="white"/>
    <path d="M68.1592 40.0024H64.9849V59.9724H68.1592V40.0024Z" fill="white"/>
    <path d="M69.2878 56.3472H66.1135V59.973H69.2878V56.3472Z" fill="white"/>
    <path d="M147.58 59.867C146.43 59.867 145.28 59.8529 144.124 59.8741C143.482 59.8882 143.207 59.6201 143.207 58.9711C143.221 55.7545 143.192 52.5378 143.228 49.3212C143.242 48.0585 143.863 47.4871 145.153 47.466C146.642 47.4378 148.13 47.4378 149.619 47.466C150.783 47.4871 151.516 48.1573 151.509 49.1378C151.502 50.1042 150.761 50.7532 149.583 50.7884C148.871 50.8096 148.165 50.8096 147.453 50.7955C146.846 50.7814 146.607 51.0636 146.614 51.6631C146.628 52.9823 146.635 54.3014 146.614 55.6275C146.6 56.3118 146.945 56.4952 147.559 56.4881C148.673 56.4669 149.795 56.467 150.909 56.4952C152.073 56.5234 152.849 57.1794 152.885 58.1176C152.927 59.0981 152.158 59.8106 150.931 59.8529C149.816 59.8882 148.695 59.8599 147.58 59.8599V59.867Z" fill="white"/>
    <path d="M29.6656 63.1257C23.4299 63.1892 17.7796 61.4257 12.602 58.075C9.42772 56.0223 9.13851 53.6521 11.7767 50.9293C13.9634 48.6649 16.1713 46.4147 18.4427 44.242C19.2892 43.4238 19.3456 42.9088 18.478 42.0553C12.9688 36.6096 7.50904 31.1215 2.02809 25.6476C-0.257401 23.3691 -0.532506 22.2616 0.807752 19.3483C5.68911 8.6967 13.9634 2.33396 25.5108 0.619825C32.6847 -0.445335 39.5482 1.01485 45.7769 4.88047C48.5844 6.62987 48.8242 9.1129 46.4964 11.4972C43.9217 14.1424 41.3329 16.7665 38.6877 19.3342C37.8482 20.1525 37.7918 20.6604 38.6665 21.521C44.7611 27.5522 50.8135 33.6328 56.8728 39.6992C58.8691 41.6955 59.1231 42.8665 57.8463 45.3425C51.928 56.7982 42.4333 62.5755 29.6656 63.1257ZM29.6021 61.5386C31.0905 61.4257 32.593 61.4257 34.0532 61.1788C44.091 59.4929 51.4624 54.0895 56.2168 45.1026C57.423 42.8242 57.3455 42.3868 55.5185 40.5598C49.2827 34.317 43.04 28.0742 36.8042 21.8313C35.5204 20.5475 35.5204 20.357 36.8325 19.0379C39.6329 16.2163 42.4404 13.3876 45.2408 10.566C46.9902 8.79546 46.8209 7.36349 44.7188 6.03028C44.3379 5.79044 43.9288 5.57882 43.5267 5.3672C37.7354 2.28458 31.5208 1.19826 25.1017 2.27047C14.302 4.09042 6.60613 10.1428 2.1339 20.1877C1.22394 22.2193 1.37912 22.7836 2.95922 24.3637C8.78581 30.2045 14.6124 36.0382 20.439 41.8648C21.6241 43.0499 21.61 43.198 20.4531 44.362C17.9137 46.9155 15.3742 49.4761 12.8348 52.0297C11.0219 53.8638 11.1418 55.204 13.2651 56.6924C13.9141 57.1368 14.5842 57.546 15.2825 57.9057C19.7618 60.2688 24.495 61.6161 29.6021 61.5386Z" fill="#FBBF24"/>
    <path d="M28.0643 40.4121C28.2336 41.2445 28.3324 42.098 28.5793 42.9022C29.1506 44.7997 29.8208 46.662 30.371 48.5666C30.4979 48.9969 30.4909 49.7234 30.2228 49.9562C29.0307 51.0284 28.8403 52.2911 29.0378 53.7866C29.1083 54.3438 29.3199 55.1974 28.6004 55.5501C27.761 55.804 27.1402 55.1974 26.851 54.7459C24.9465 51.7621 23.8037 48.489 24.1 44.9055C24.2975 42.5001 25.8353 40.8706 28.0643 40.4121Z" fill="#FBBF24"/>
    <path d="M42.1652 53.1866C42.1723 52.0226 42.0947 50.9363 41.0366 50.0122C40.7897 49.8006 40.7192 49.1869 40.8179 48.8272C41.5304 46.2454 42.3134 43.6848 43.047 41.11C43.2304 40.4681 43.5055 40.3129 44.1192 40.6021C45.8827 41.4275 46.9196 42.8242 47.1171 44.7147C47.4839 48.2628 46.313 51.4724 44.6412 54.5268C44.4719 54.809 44.2462 55.0488 43.9711 55.2322C43.5972 55.4791 43.2868 55.6907 42.6308 55.4862C42.3487 55.4015 42.0242 55.0065 42.1088 54.3575C42.1441 54.0542 42.13 53.7086 42.1652 53.1866Z" fill="#FBBF24"/>
    <path d="M42.5744 33.9009C41.9184 30.0565 40.0914 26.9174 36.7337 24.7589C35.9718 24.2651 35.3511 24.251 34.5752 24.7518C31.4643 26.7552 29.6515 29.6332 28.8755 33.1673C27.7187 38.486 28.7979 43.5085 30.9 48.4252C31.8382 50.619 32.861 52.3261 35.6474 51.4725C36.0635 51.4725 36.4868 51.4161 36.8889 51.4866C38.3561 51.7476 39.132 51.0563 39.774 49.7796C42.2781 44.743 43.5337 39.5089 42.5744 33.9009ZM36.1059 38.2674C35.9789 38.352 35.8308 38.3943 35.6826 38.3873C35.6474 38.3802 35.6121 38.3732 35.5768 38.3591C34.9137 38.3309 34.3847 37.8018 34.3494 37.1387C34.3071 36.4474 34.8362 35.8478 35.5274 35.8055C35.5486 35.8055 35.5627 35.8055 35.5839 35.8055C36.2822 35.7632 36.8889 36.2922 36.9312 36.9976C36.9594 37.5549 36.6279 38.0699 36.1059 38.2674ZM35.6333 33.1532C34.427 33.1602 33.4254 32.2079 33.3689 31.0017C33.2913 29.7743 34.2295 28.7232 35.4499 28.6527C35.4851 28.6527 35.5133 28.6527 35.5486 28.6457C36.7972 28.6033 37.8482 29.5768 37.8905 30.8254C37.8905 30.8324 37.8905 30.8395 37.8905 30.8465C37.9188 32.088 36.8889 33.132 35.6333 33.1532Z" fill="#FBBF24"/>
    <path d="M34.5963 52.2061H36.8748C36.8748 52.2061 36.9594 53.8849 36.5644 54.548C36.1694 55.2111 35.7814 55.3592 35.7814 55.3592C35.7814 55.3592 35.3229 55.2181 34.8644 54.4069C34.4059 53.5957 34.5963 52.2061 34.5963 52.2061Z" fill="#FBBF24"/>
</svg>
