<svg width="70" height="83" viewBox="0 0 70 83" fill="none" xmlns="http://www.w3.org/2000/svg">
<path d="M21.0365 55.2664C18.0306 53.9911 15.4353 52.8867 15.4353 51.4658C15.4353 49.4957 16.5792 48.5371 18.9216 48.5371C21.0226 48.5371 22.4397 49.2419 24.3144 51.2873C24.4314 51.4157 24.5907 51.4988 24.7639 51.5218C24.9371 51.5448 25.1129 51.5062 25.26 51.413L31.4129 47.4579C31.5759 47.3525 31.6901 47.1877 31.7306 46.9994C31.7711 46.811 31.7346 46.6145 31.6289 46.4527C29.6589 43.5831 26.9428 41.544 23.8047 40.5125V27.4008C23.8047 27.3041 23.7855 27.2085 23.748 27.1192C23.7106 27.0299 23.6557 26.9489 23.5865 26.8806C23.5173 26.8123 23.4352 26.7582 23.3449 26.7214C23.2545 26.6845 23.1577 26.6656 23.0599 26.6658H15.4785C15.3808 26.6656 15.2839 26.6845 15.1936 26.7214C15.1032 26.7582 15.0211 26.8123 14.9519 26.8806C14.8827 26.9489 14.8279 27.0299 14.7904 27.1192C14.753 27.2085 14.7337 27.3041 14.7337 27.4008V40.216C9.03078 41.598 5.31949 45.8384 5.31949 51.4607C5.31949 58.1133 11.6045 61.0093 16.6554 63.3437C20.3032 65.026 23.4527 66.4847 23.4527 68.7223C23.4527 71.9525 20.6095 72.6297 18.2238 72.6297C15.3844 72.6297 12.9988 71.1359 11.1266 68.1846C11.0333 68.0319 10.8834 67.921 10.7088 67.8755C10.5343 67.83 10.3486 67.8535 10.1912 67.9409L3.54138 71.7314C3.38577 71.8191 3.27013 71.9625 3.21834 72.132C3.16655 72.3014 3.18255 72.4841 3.26304 72.6423C5.56352 76.997 9.82261 80.0764 14.7337 81.079V81.8404C14.7344 82.1479 14.8584 82.4427 15.0785 82.6601C15.2986 82.8775 15.597 82.9997 15.9081 83H22.6304C22.9415 82.9997 23.2398 82.8775 23.46 82.6601C23.6801 82.4427 23.8041 82.1479 23.8047 81.8404V80.7197C29.814 79.0675 33.5697 74.6563 33.5697 68.7274C33.5697 60.5922 26.3251 57.5153 21.0365 55.2664Z" fill="white"/>
<path d="M9.83844 17.2126C9.63956 17.2126 9.44882 17.2907 9.30819 17.4297C9.16756 17.5687 9.08856 17.7573 9.08856 17.9539V22.7621C9.08856 22.8595 9.10795 22.9559 9.14564 23.0458C9.18332 23.1357 9.23856 23.2174 9.30819 23.2863C9.37782 23.3551 9.46049 23.4097 9.55147 23.447C9.64245 23.4842 9.73996 23.5034 9.83844 23.5034H29.3875C29.5862 23.5031 29.7766 23.4248 29.9169 23.2858C30.0573 23.1469 30.1361 22.9585 30.1361 22.7621V17.9551C30.1361 17.7588 30.0573 17.5704 29.9169 17.4314C29.7766 17.2925 29.5862 17.2142 29.3875 17.2139H26.7057L38.3988 1.10689C38.4762 1.00389 38.5231 0.881717 38.5344 0.753939C38.5457 0.626161 38.5209 0.497788 38.4628 0.38309C38.4048 0.268391 38.3156 0.171862 38.2054 0.104233C38.0951 0.036603 37.9681 0.000522738 37.8383 2.68057e-06H29.704C29.552 -0.000346337 29.4018 0.0333913 29.2649 0.0986773C29.128 0.163963 29.0078 0.259097 28.9134 0.376921L19.2679 12.5087L10.3354 0.408331C10.2421 0.281856 10.1199 0.17895 9.9788 0.107993C9.83766 0.0370354 9.68157 3.42649e-05 9.52323 2.68057e-06H0.705117C0.574675 3.26843e-07 0.446795 0.0358166 0.33574 0.103457C0.224686 0.171098 0.134822 0.267904 0.0761697 0.383079C0.0175178 0.498254 -0.007616 0.627271 0.00357122 0.755741C0.0147585 0.884211 0.0618269 1.00708 0.139527 1.11066L11.8313 17.2126H9.83844Z" fill="white"/>
<path d="M69.3084 40.7134H61.2071C61.0234 40.7134 60.8472 40.7855 60.7173 40.9139C60.5874 41.0423 60.5144 41.2165 60.5144 41.3981V64.2645C60.5144 68.1933 57.6864 71.5152 53.937 71.9901C53.604 72.0325 53.2687 72.0539 52.933 72.0542C50.9237 72.0518 48.9975 71.2617 47.5769 69.8572C46.1563 68.4527 45.3573 66.5484 45.3553 64.5623V41.3981C45.355 41.2164 45.2817 41.0422 45.1516 40.9139C45.0215 40.7855 44.8452 40.7134 44.6614 40.7134H36.5613C36.3776 40.7134 36.2014 40.7855 36.0715 40.9139C35.9416 41.0423 35.8687 41.2165 35.8687 41.3981V64.1389C35.8687 72.9098 42.3113 80.2898 50.8562 81.3038C51.5457 81.3862 52.2396 81.4282 52.9342 81.4294C62.3395 81.4294 70.0011 73.8609 70.0011 64.5598V41.3981C70.0011 41.3082 69.9831 41.2192 69.9483 41.1361C69.9135 41.053 69.8625 40.9775 69.7982 40.9139C69.7339 40.8504 69.6575 40.7999 69.5735 40.7655C69.4894 40.7311 69.3993 40.7134 69.3084 40.7134Z" fill="white"/>
<path d="M52.9342 0C43.5289 0 35.8687 7.56853 35.8687 16.8709V23.8263C35.8687 33.1236 43.5238 40.6972 52.9342 40.6972C62.3446 40.6972 70.0011 33.1286 70.0011 23.8263V16.8709C70.0011 7.56853 62.3446 0 52.9342 0ZM60.5144 23.8263C60.5274 24.8184 60.3409 25.8032 59.9659 26.7234C59.5908 27.6437 59.0346 28.4812 58.3294 29.1874C57.6243 29.8935 56.7844 30.4541 55.8583 30.8368C54.9323 31.2194 53.9386 31.4165 52.9349 31.4165C51.9312 31.4165 50.9374 31.2194 50.0114 30.8368C49.0853 30.4541 48.2454 29.8935 47.5403 29.1874C46.8352 28.4812 46.2789 27.6437 45.9038 26.7234C45.5288 25.8032 45.3423 24.8184 45.3553 23.8263V16.8709C45.3423 15.8788 45.5288 14.894 45.9038 13.9737C46.2789 13.0534 46.8352 12.2159 47.5403 11.5098C48.2454 10.8037 49.0853 10.2431 50.0114 9.86041C50.9374 9.47776 51.9312 9.28071 52.9349 9.28071C53.9386 9.28071 54.9323 9.47776 55.8583 9.86041C56.7844 10.2431 57.6243 10.8037 58.3294 11.5098C59.0346 12.2159 59.5908 13.0534 59.9659 13.9737C60.3409 14.894 60.5274 15.8788 60.5144 16.8709V23.8263Z" fill="white"/>
</svg>
