<svg width="153" height="62" viewBox="0 0 153 62" fill="none" xmlns="http://www.w3.org/2000/svg">
<g clip-path="url(#clip0)">
<path d="M0 9.63525C2.72195 9.63525 5.26394 9.63525 7.9184 9.63525C10.8653 15.7812 13.8122 21.9272 17.0291 28.636C20.5609 22.0623 23.0578 15.7137 26.3197 9.65777C28.8392 9.65777 31.3587 9.65777 34.0356 9.65777C34.0356 21.0042 34.0356 32.2155 34.0356 43.6069C31.8086 43.6519 29.5815 43.7195 27.377 43.7645C27.377 35.795 27.377 27.9156 27.377 19.5183C24.6775 24.8313 21.9556 30.1668 19.2561 35.4798C17.6589 35.4798 16.1292 35.4798 14.5096 35.4798C11.7651 30.0543 9.02068 24.6287 6.25374 19.2032C6.23124 27.3753 6.23124 35.5474 6.20875 43.742C4.02669 43.742 2.09208 43.742 0.0224955 43.742C0 32.3731 0 21.1392 0 9.63525Z" fill="#048EE9"/>
<path d="M79.0266 53.445C79.409 51.7565 79.769 50.2932 80.1064 48.8524C80.3314 48.9424 84.6505 50.5183 86.6301 48.7398C86.9 48.4922 87.4849 47.9519 87.5974 47.0964C87.7099 46.1509 87.125 45.4079 86.945 45.2053C86.3601 44.5525 85.6178 44.3498 85.2804 44.2598C83.6832 43.8546 82.131 43.2918 80.5563 42.864C78.2843 42.2562 76.5746 41.1756 75.3599 39.8023C71.9855 36.0427 72.9303 30.2344 73.1553 28.9962C73.7852 25.4617 75.4948 23.0979 76.7546 21.3644C79.409 17.7173 82.5584 15.6236 84.4705 14.543C81.3661 14.543 78.2618 14.5655 75.1574 14.5655C75.1574 12.9221 75.1574 11.3462 75.1574 9.63525C80.8038 9.63525 86.3601 9.63525 92.029 9.63525C92.0515 11.1661 92.074 12.6745 92.119 14.2053C90.7018 15.1734 88.6772 16.6142 86.4501 18.5953C83.7057 21.0492 81.7036 22.8277 80.0839 25.8219C78.1943 29.3114 78.0593 32.1029 78.4417 33.6338C78.5767 34.1516 78.9141 35.1872 79.814 36.1327C80.3763 36.718 81.0962 37.1908 85.1454 38.4965C87.5524 39.262 87.6874 39.2845 88.5197 39.6222C91.849 41.0855 93.2663 43.652 92.8388 47.3215C92.4564 50.6759 90.3194 53.0172 86.8775 53.5801C84.3581 54.0528 81.8161 53.8727 79.0266 53.445Z" fill="#048EE9"/>
<path d="M61.5926 22.3774C61.5701 21.4319 61.5476 20.4864 61.5251 19.5408C63.2122 19.5408 64.9219 19.5408 66.699 19.5408C66.699 27.5554 66.699 35.5699 66.699 43.7645C65.0569 43.7645 63.3922 43.7645 61.6151 43.7645C61.5926 42.9991 61.5926 42.2336 61.5701 41.4907C61.2776 41.8284 60.8052 42.2787 60.1979 42.7514C57.9708 44.3949 55.5863 44.5975 54.349 44.665C51.1547 44.8676 48.7926 43.8095 48.2528 43.5619C44.0911 41.5808 41.864 38.0013 41.5041 33.3411C41.2792 30.3244 41.5941 27.4653 42.9438 24.8989C43.2812 24.246 43.7762 23.323 44.6985 22.3774C48.2528 18.6854 54.709 18.2576 59.1181 20.6214C60.2203 21.1617 61.0527 21.8371 61.5926 22.3774ZM54.1016 23.9533C50.0524 23.5931 46.7681 27.5103 46.813 31.7877C46.8805 36.1327 50.2324 39.7122 54.2141 39.6897C58.3082 39.6672 61.6376 36.1327 61.6826 31.8328C61.705 27.2177 58.5332 23.9308 54.1016 23.9533Z" fill="#048EE9"/>
<path d="M131.891 33.3188C132.026 36.2905 133.668 38.069 135.827 39.0595C139.247 40.6129 142.599 39.96 145.703 37.4836C147.21 38.204 148.74 38.947 150.292 39.6899C146.153 46.106 134.028 46.2186 129.416 40.4103C127.774 38.3391 126.717 36.1104 126.582 33.4539C126.379 29.8068 126.807 26.3623 129.236 23.3907C132.678 19.1808 138.279 17.6499 143.881 19.4735C148.695 21.0493 152.002 25.5744 152.204 30.8874C152.227 31.5178 152.204 32.1706 152.204 33.1387C145.456 33.4539 138.774 33.1612 131.891 33.3188ZM146.333 28.5911C145.523 24.9215 142.599 23.0755 138.437 23.4357C135.175 23.7284 132.768 25.9346 132.678 28.7037C137.222 28.6812 141.766 28.6361 146.333 28.5911Z" fill="#048EE9"/>
<path d="M121.476 33.2735C114.682 33.2735 108.113 33.2735 101.387 33.2735C101.297 36.0651 102.759 37.8436 104.784 38.8792C108.361 40.7027 111.847 40.0498 115.042 37.5284C116.549 38.2263 118.034 38.9017 119.676 39.6446C118.371 41.6257 116.706 42.954 114.614 43.6744C111.263 44.8676 107.843 45.0702 104.424 44.0346C100.15 42.7288 97.3604 39.8472 96.3256 35.5248C95.1558 30.617 95.8307 26.0694 99.5874 22.3548C103.704 18.235 108.653 17.9424 113.805 19.6983C119.113 21.4994 121.61 26.9474 121.476 30.9772C121.453 31.6076 121.476 32.2379 121.476 33.2735ZM115.784 28.816C114.907 25.1014 112.342 23.3229 108.451 23.4129C104.874 23.503 102.467 25.3941 101.769 28.9961C106.449 28.9511 111.128 28.8835 115.784 28.816Z" fill="#048EE9"/>
<path d="M59.4782 14.6781C58.5783 14.6781 57.9485 14.7006 57.2961 14.6781C57.0261 14.6781 56.7787 14.5655 56.2163 14.4529C62.1326 5.85309 70.0285 0.900299 80.3089 0.134867C92.7714 -0.788154 102.669 3.917 110.183 14.5205C108.878 14.588 107.956 14.6556 106.876 14.7231C100.78 7.09129 92.9964 2.65629 83.0984 2.6788C73.3129 2.70132 65.5744 7.02376 59.4782 14.6781Z" fill="#048EE9"/>
<path d="M105.841 48.5147C107.123 48.5147 108.091 48.5147 109.553 48.5147C102.917 57.092 94.6834 61.6846 84.1331 61.9773C72.8179 62.2924 63.9097 57.6773 56.7561 48.5372C57.7009 48.4696 58.1958 48.4246 58.7132 48.4021C59.1631 48.3796 59.613 48.4021 60.2879 48.4021C66.2492 55.2685 73.7852 59.3208 83.0983 59.3208C92.2989 59.3208 99.8574 55.5161 105.841 48.5147Z" fill="#048EE9"/>
</g>
<defs>
<clipPath id="clip0">
<rect width="152.182" height="62" fill="white"/>
</clipPath>
</defs>
</svg>
