<svg width="244" height="46" viewBox="0 0 244 46" fill="none" xmlns="http://www.w3.org/2000/svg">
<path d="M214.822 23.2566C213.565 22.4269 212.178 21.8369 210.866 21.0993C210.015 20.6199 209.109 20.1957 208.37 19.5872C207.112 18.5546 207.371 16.5263 208.685 15.6412C210.57 14.3873 213.694 15.0879 214.027 17.6511C214.027 17.7063 214.082 17.7433 214.138 17.7433H216.986C217.06 17.7433 217.115 17.6879 217.097 17.6142C216.949 15.8439 216.264 14.3688 215.007 13.4284C213.805 12.5248 212.437 12.0454 210.976 12.0454C203.452 12.0454 202.768 19.9929 206.816 22.5007C207.279 22.7957 211.253 24.7871 212.659 25.6538C214.064 26.5204 214.508 28.1063 213.898 29.3601C213.343 30.5034 211.901 31.2964 210.459 31.2041C208.887 31.1119 207.667 30.2638 207.242 28.9361C207.168 28.6964 207.131 28.2354 207.131 28.0326C207.131 27.9772 207.075 27.9219 207.02 27.9219H203.933C203.878 27.9219 203.822 27.9772 203.822 28.0326C203.822 30.2638 204.377 31.4991 205.893 32.6241C207.316 33.6935 208.868 34.1361 210.478 34.1361C214.693 34.1361 216.875 31.7573 217.317 29.2864C217.706 26.8708 216.986 24.6949 214.822 23.2566Z" fill="white"/>
<path d="M80.7721 12.4512H79.4041H77.9066C77.8511 12.4512 77.8141 12.488 77.7956 12.5249L75.263 20.8596C75.226 20.9703 75.0782 20.9703 75.0412 20.8596L72.5084 12.5249C72.4899 12.4696 72.4529 12.4512 72.3974 12.4512H70.9001H69.532H67.6833C67.6278 12.4512 67.5723 12.5065 67.5723 12.5618V33.8412C67.5723 33.8964 67.6278 33.9517 67.6833 33.9517H70.7706C70.8261 33.9517 70.8816 33.8964 70.8816 33.8412V17.6695C70.8816 17.5405 71.0664 17.5221 71.1034 17.6327L73.6546 26.0227L73.8394 26.6127C73.8579 26.6681 73.8949 26.6866 73.9504 26.6866H76.3168C76.3722 26.6866 76.4092 26.6496 76.4277 26.6127L76.6125 26.0227L79.1638 17.6327C79.2008 17.5036 79.3856 17.5405 79.3856 17.6695V33.8412C79.3856 33.8964 79.4411 33.9517 79.4965 33.9517H82.5839C82.6393 33.9517 82.6948 33.8964 82.6948 33.8412V12.5618C82.6948 12.5065 82.6393 12.4512 82.5839 12.4512H80.7721Z" fill="white"/>
<path d="M167.55 12.4512C167.495 12.4512 167.458 12.488 167.439 12.5249L164.908 20.8596C164.871 20.9703 164.723 20.9703 164.686 20.8596L162.153 12.5249C162.134 12.4696 162.097 12.4512 162.042 12.4512H157.346C157.29 12.4512 157.235 12.5065 157.235 12.5618V33.8412C157.235 33.8964 157.29 33.9517 157.346 33.9517H160.434C160.489 33.9517 160.545 33.8964 160.545 33.8412V17.6695C160.545 17.5405 160.73 17.5221 160.767 17.6327L163.317 26.0227L163.502 26.6127C163.52 26.6681 163.557 26.6866 163.613 26.6866H165.979C166.035 26.6866 166.072 26.6496 166.09 26.6127L166.275 26.0227L168.827 17.6327C168.864 17.5036 169.049 17.5405 169.049 17.6695V33.8412C169.049 33.8964 169.104 33.9517 169.16 33.9517H172.246C172.302 33.9517 172.357 33.8964 172.357 33.8412V12.5618C172.357 12.5065 172.302 12.4512 172.246 12.4512H167.55Z" fill="white"/>
<path d="M127.729 12.4512H121.98H118.892H113.143C113.087 12.4512 113.032 12.5065 113.032 12.5618V15.2171C113.032 15.2724 113.087 15.3278 113.143 15.3278H118.782V33.8412C118.782 33.8964 118.837 33.9517 118.892 33.9517H121.98C122.035 33.9517 122.091 33.8964 122.091 33.8412V15.3278H127.729C127.785 15.3278 127.84 15.2724 127.84 15.2171V12.5618C127.84 12.5065 127.803 12.4512 127.729 12.4512Z" fill="white"/>
<path d="M145.94 33.9515H148.749C148.823 33.9515 148.878 33.8778 148.86 33.8041L143.055 12.451C143.037 12.3956 143 12.3772 142.944 12.3772H141.872H139.986H138.914C138.859 12.3772 138.822 12.4141 138.803 12.451L132.998 33.8041C132.98 33.8778 133.035 33.9515 133.109 33.9515H135.919C135.975 33.9515 136.012 33.9146 136.03 33.8778L137.713 27.6636C137.731 27.6084 137.768 27.5899 137.823 27.5899H144.036C144.091 27.5899 144.128 27.6267 144.147 27.6636L145.829 33.8778C145.847 33.9146 145.903 33.9515 145.94 33.9515ZM138.563 24.5474L140.818 16.231C140.855 16.1204 141.003 16.1204 141.04 16.231L143.296 24.5474C143.314 24.6211 143.259 24.6948 143.185 24.6948H138.674C138.6 24.6948 138.544 24.6211 138.563 24.5474Z" fill="white"/>
<path d="M193.858 33.9515H196.667C196.741 33.9515 196.797 33.8778 196.778 33.8041L190.974 12.451C190.955 12.3956 190.918 12.3772 190.863 12.3772H189.791H187.906H186.833C186.777 12.3772 186.74 12.4141 186.722 12.451L180.917 33.8041C180.898 33.8778 180.954 33.9515 181.028 33.9515H183.838C183.894 33.9515 183.931 33.9146 183.949 33.8778L185.631 27.6636C185.65 27.6084 185.687 27.5899 185.742 27.5899H191.954C192.01 27.5899 192.047 27.6267 192.065 27.6636L193.747 33.8778C193.766 33.9146 193.803 33.9515 193.858 33.9515ZM186.481 24.5474L188.737 16.231C188.774 16.1204 188.922 16.1204 188.959 16.231L191.214 24.5474C191.233 24.6211 191.177 24.6948 191.103 24.6948H186.592C186.518 24.6948 186.463 24.6211 186.481 24.5474Z" fill="white"/>
<path d="M95.2291 30.7984V24.197C95.2291 24.1418 95.2846 24.0864 95.3401 24.0864H103.567C103.622 24.0864 103.678 24.0311 103.678 23.9757V21.3205C103.678 21.2652 103.622 21.2099 103.567 21.2099H95.3401C95.2846 21.2099 95.2291 21.1545 95.2291 21.0992V15.4567C95.2291 15.4014 95.2846 15.346 95.3401 15.346H104.695C104.75 15.346 104.806 15.2907 104.806 15.2355V12.5801C104.806 12.5248 104.75 12.4695 104.695 12.4695H95.2291H92.0309C91.9754 12.4695 91.9199 12.5248 91.9199 12.5801V15.346V21.2282V24.1049V30.9275V33.8409C91.9199 33.8963 91.9754 33.9516 92.0309 33.9516H95.2291H105.083C105.138 33.9516 105.194 33.8963 105.194 33.8409V31.0382C105.194 30.9829 105.138 30.9275 105.083 30.9275H95.3216C95.2661 30.9092 95.2291 30.8722 95.2291 30.7984Z" fill="white"/>
<path d="M243.033 33.7672L232.348 22.7587C232.311 22.7219 232.311 22.6482 232.348 22.6113L241.962 12.6539C242.036 12.5801 241.98 12.4695 241.888 12.4695H237.95C237.913 12.4695 237.895 12.4879 237.876 12.5064L229.724 20.9517C229.65 21.0255 229.539 20.9701 229.539 20.8779V12.5801C229.539 12.5248 229.483 12.4695 229.428 12.4695H226.34C226.284 12.4695 226.229 12.5248 226.229 12.5801V33.8594C226.229 33.9148 226.284 33.9701 226.34 33.9701H229.428C229.483 33.9701 229.539 33.9148 229.539 33.8594V24.4922C229.539 24.3999 229.668 24.3446 229.724 24.4183L238.966 33.9331C238.985 33.9516 239.022 33.9701 239.04 33.9701H242.978C243.052 33.9516 243.107 33.8226 243.033 33.7672Z" fill="white"/>
<path d="M46.4784 1L27.7878 14.8297L31.2635 6.6794L46.4784 1Z" fill="#E17726" stroke="#E17726" stroke-width="0.25" stroke-linecap="round" stroke-linejoin="round"/>
<path d="M3.36621 1L21.8904 14.9588L18.5812 6.67939L3.36621 1Z" fill="#E27625" stroke="#E27625" stroke-width="0.25" stroke-linecap="round" stroke-linejoin="round"/>
<path d="M39.7486 33.0664L34.7756 40.6635L45.4242 43.5955L48.4747 33.2325L39.7486 33.0664Z" fill="#E27625" stroke="#E27625" stroke-width="0.25" stroke-linecap="round" stroke-linejoin="round"/>
<path d="M1.38818 33.2325L4.42006 43.5955L15.0502 40.6635L10.0956 33.0664L1.38818 33.2325Z" fill="#E27625" stroke="#E27625" stroke-width="0.25" stroke-linecap="round" stroke-linejoin="round"/>
<path d="M14.4769 20.2325L11.519 24.6949L22.0567 25.1743L21.7055 13.834L14.4769 20.2325Z" fill="#E27625" stroke="#E27625" stroke-width="0.25" stroke-linecap="round" stroke-linejoin="round"/>
<path d="M35.3672 20.2327L28.028 13.7051L27.7876 25.1745L38.3252 24.6951L35.3672 20.2327Z" fill="#E27625" stroke="#E27625" stroke-width="0.25" stroke-linecap="round" stroke-linejoin="round"/>
<path d="M15.0503 40.6635L21.4283 37.5841L15.9377 33.3062L15.0503 40.6635Z" fill="#E27625" stroke="#E27625" stroke-width="0.25" stroke-linecap="round" stroke-linejoin="round"/>
<path d="M28.4165 37.5841L34.776 40.6635L33.9071 33.3062L28.4165 37.5841Z" fill="#E27625" stroke="#E27625" stroke-width="0.25" stroke-linecap="round" stroke-linejoin="round"/>
<path d="M34.776 40.6636L28.4165 37.5842L28.9341 41.7147L28.8786 43.4664L34.776 40.6636Z" fill="#D5BFB2" stroke="#D5BFB2" stroke-width="0.25" stroke-linecap="round" stroke-linejoin="round"/>
<path d="M15.0503 40.6636L20.9662 43.4664L20.9292 41.7147L21.4283 37.5842L15.0503 40.6636Z" fill="#D5BFB2" stroke="#D5BFB2" stroke-width="0.25" stroke-linecap="round" stroke-linejoin="round"/>
<path d="M21.0769 30.577L15.7896 29.0282L19.5239 27.3132L21.0769 30.577Z" fill="#233447" stroke="#233447" stroke-width="0.25" stroke-linecap="round" stroke-linejoin="round"/>
<path d="M28.7676 30.577L30.3206 27.3132L34.0734 29.0282L28.7676 30.577Z" fill="#233447" stroke="#233447" stroke-width="0.25" stroke-linecap="round" stroke-linejoin="round"/>
<path d="M15.0502 40.6635L15.9746 33.0664L10.0957 33.2325L15.0502 40.6635Z" fill="#CC6228" stroke="#CC6228" stroke-width="0.25" stroke-linecap="round" stroke-linejoin="round"/>
<path d="M33.8699 33.0664L34.7758 40.6635L39.7488 33.2325L33.8699 33.0664Z" fill="#CC6228" stroke="#CC6228" stroke-width="0.25" stroke-linecap="round" stroke-linejoin="round"/>
<path d="M38.3252 24.6948L27.7876 25.1743L28.7674 30.5772L30.3204 27.3132L34.0732 29.0282L38.3252 24.6948Z" fill="#CC6228" stroke="#CC6228" stroke-width="0.25" stroke-linecap="round" stroke-linejoin="round"/>
<path d="M15.7896 29.0282L19.5239 27.3132L21.0769 30.5772L22.0567 25.1743L11.519 24.6948L15.7896 29.0282Z" fill="#CC6228" stroke="#CC6228" stroke-width="0.25" stroke-linecap="round" stroke-linejoin="round"/>
<path d="M11.5193 24.6948L15.9377 33.3062L15.7898 29.0282L11.5193 24.6948Z" fill="#E27525" stroke="#E27525" stroke-width="0.25" stroke-linecap="round" stroke-linejoin="round"/>
<path d="M34.0736 29.0282L33.9072 33.3062L38.3257 24.6948L34.0736 29.0282Z" fill="#E27525" stroke="#E27525" stroke-width="0.25" stroke-linecap="round" stroke-linejoin="round"/>
<path d="M22.0573 25.1743L21.0774 30.5772L22.316 36.9572L22.5934 28.5488L22.0573 25.1743Z" fill="#E27525" stroke="#E27525" stroke-width="0.25" stroke-linecap="round" stroke-linejoin="round"/>
<path d="M27.788 25.1743L27.2703 28.5305L27.5291 36.9572L28.7677 30.5772L27.788 25.1743Z" fill="#E27525" stroke="#E27525" stroke-width="0.25" stroke-linecap="round" stroke-linejoin="round"/>
<path d="M28.7677 30.5773L27.5291 36.9573L28.4165 37.5843L33.9072 33.3063L34.0735 29.0283L28.7677 30.5773Z" fill="#F5841F" stroke="#F5841F" stroke-width="0.25" stroke-linecap="round" stroke-linejoin="round"/>
<path d="M15.7896 29.0283L15.9375 33.3063L21.4281 37.5843L22.3155 36.9573L21.0769 30.5773L15.7896 29.0283Z" fill="#F5841F" stroke="#F5841F" stroke-width="0.25" stroke-linecap="round" stroke-linejoin="round"/>
<path d="M28.8787 43.4664L28.9341 41.7146L28.4535 41.3089H21.3914L20.9292 41.7146L20.9662 43.4664L15.0503 40.6636L17.1208 42.36L21.3174 45.2551H28.5089L32.7239 42.36L34.776 40.6636L28.8787 43.4664Z" fill="#C0AC9D" stroke="#C0AC9D" stroke-width="0.25" stroke-linecap="round" stroke-linejoin="round"/>
<path d="M28.4162 37.5841L27.5288 36.9573H22.3154L21.4282 37.5841L20.929 41.7147L21.3912 41.309H28.4532L28.9339 41.7147L28.4162 37.5841Z" fill="#161616" stroke="#161616" stroke-width="0.25" stroke-linecap="round" stroke-linejoin="round"/>
<path d="M47.2733 15.7332L48.8448 8.09925L46.4784 1L28.4165 14.3688L35.3676 20.2325L45.1842 23.0907L47.3473 20.5645L46.4045 19.8821L47.9018 18.5177L46.7557 17.6325L48.2532 16.4893L47.2733 15.7332Z" fill="#763E1A" stroke="#763E1A" stroke-width="0.25" stroke-linecap="round" stroke-linejoin="round"/>
<path d="M1 8.09925L2.5899 15.7332L1.57311 16.4893L3.08905 17.6325L1.94285 18.5177L3.4403 19.8821L2.49745 20.5645L4.66046 23.0907L14.4772 20.2325L21.4283 14.3688L3.36636 1L1 8.09925Z" fill="#763E1A" stroke="#763E1A" stroke-width="0.25" stroke-linecap="round" stroke-linejoin="round"/>
<path d="M45.1844 23.0905L35.3677 20.2324L38.3257 24.6948L33.9072 33.306L39.7492 33.2323H48.4751L45.1844 23.0905Z" fill="#F5841F" stroke="#F5841F" stroke-width="0.25" stroke-linecap="round" stroke-linejoin="round"/>
<path d="M14.477 20.2324L4.6604 23.0905L1.38818 33.2323H10.0956L15.9375 33.306L11.5191 24.6948L14.477 20.2324Z" fill="#F5841F" stroke="#F5841F" stroke-width="0.25" stroke-linecap="round" stroke-linejoin="round"/>
<path d="M27.7877 25.1744L28.4162 14.3687L31.2632 6.67944H18.5811L21.428 14.3687L22.0566 25.1744L22.2969 28.5672L22.3154 36.9573H27.5288L27.5473 28.5672L27.7877 25.1744Z" fill="#F5841F" stroke="#F5841F" stroke-width="0.25" stroke-linecap="round" stroke-linejoin="round"/>
</svg>
