<svg width="26" height="19" viewBox="0 0 26 19" fill="none" xmlns="http://www.w3.org/2000/svg">
<path d="M8.3912 0C9.91687 0 11.1035 0.508557 11.9511 1.52567C12.7987 2.54279 13.2225 3.85656 13.2225 5.46699C13.2225 7.24695 12.7563 9.0269 11.824 10.8068C10.934 12.5444 9.6414 14.0913 7.94621 15.4474C6.25102 16.8036 4.21679 17.7359 1.84352 18.2445L0 14.8753C2.45803 14.4515 4.38631 13.6675 5.78484 12.5232C7.22575 11.379 8.20049 10.0864 8.70905 8.64548L8.58191 8.51834C8.37001 8.68786 8.13692 8.815 7.88264 8.89975C7.62836 8.94214 7.28932 8.96333 6.86553 8.96333C5.76365 8.96333 4.89487 8.56072 4.25917 7.7555C3.62347 6.95029 3.30562 6.03912 3.30562 5.022C3.30562 3.53871 3.79299 2.33089 4.76773 1.39853C5.74246 0.466178 6.95028 0 8.3912 0ZM21.1687 0C22.6944 0 23.881 0.508557 24.7286 1.52567C25.5762 2.54279 26 3.85656 26 5.46699C26 7.24695 25.5338 9.0269 24.6015 10.8068C23.7115 12.5444 22.4189 14.0913 20.7237 15.4474C19.0285 16.8036 16.9943 17.7359 14.621 18.2445L12.7775 14.8753C15.2355 14.4515 17.1638 13.6675 18.5623 12.5232C20.0033 11.379 20.978 10.0864 21.4866 8.64548L21.3594 8.51834C21.1475 8.68786 20.9144 8.815 20.6601 8.89975C20.4059 8.94214 20.0668 8.96333 19.643 8.96333C18.5412 8.96333 17.6724 8.56072 17.0367 7.7555C16.401 6.95029 16.0831 6.03912 16.0831 5.022C16.0831 3.53871 16.5705 2.33089 17.5452 1.39853C18.52 0.466178 19.7278 0 21.1687 0Z" fill="white"/>
</svg>
