<svg width="26" height="19" viewBox="0 0 26 19" fill="none" xmlns="http://www.w3.org/2000/svg">
<path d="M4.95844 18.1809C3.47514 18.1809 2.26732 17.6936 1.33496 16.7188C0.444988 15.7441 0 14.4727 0 12.9046C0 10.9552 0.529747 9.06927 1.58924 7.24694C2.64874 5.42461 4.04727 3.85656 5.78484 2.54279C7.56479 1.22901 9.49307 0.381418 11.5697 0L13.2225 3.36919C11.5697 3.53871 10.15 3.9837 8.96333 4.70416C7.81907 5.38223 6.88672 6.14507 6.16626 6.99267C5.4458 7.84026 4.95844 8.62429 4.70416 9.34474L4.8313 9.47188C4.95844 9.4295 5.14914 9.38712 5.40342 9.34474C5.6577 9.25998 5.95436 9.2176 6.2934 9.2176C7.48003 9.2176 8.3912 9.59902 9.02689 10.3619C9.66259 11.0823 9.98044 11.9511 9.98044 12.9682C9.98044 14.4939 9.51426 15.7441 8.58191 16.7188C7.64955 17.6936 6.44173 18.1809 4.95844 18.1809ZM17.7359 18.1809C16.2526 18.1809 15.0448 17.6936 14.1125 16.7188C13.2225 15.7441 12.7775 14.4727 12.7775 12.9046C12.7775 10.9552 13.3073 9.06927 14.3667 7.24694C15.4262 5.42461 16.8248 3.85656 18.5623 2.54279C20.3423 1.22901 22.2706 0.381418 24.3472 0L26 3.36919C24.3472 3.53871 22.9275 3.9837 21.7408 4.70416C20.5966 5.38223 19.6642 6.14507 18.9438 6.99267C18.2233 7.84026 17.7359 8.62429 17.4817 9.34474L17.6088 9.47188C17.7359 9.4295 17.9267 9.38712 18.1809 9.34474C18.4352 9.25998 18.7319 9.2176 19.0709 9.2176C20.2575 9.2176 21.1687 9.59902 21.8044 10.3619C22.4401 11.0823 22.7579 11.9511 22.7579 12.9682C22.7579 14.4939 22.2918 15.7441 21.3594 16.7188C20.4271 17.6936 19.2192 18.1809 17.7359 18.1809Z" fill="white"/>
</svg>
