<svg width="156" height="35" viewBox="0 0 156 35" fill="none" xmlns="http://www.w3.org/2000/svg">
<path d="M23.1152 14.9929H24.5968C24.552 13.3622 23.1103 12.179 21.0421 12.179C18.9988 12.179 17.4327 13.3473 17.4327 15.1023C17.4327 16.5192 18.4469 17.3494 20.0826 17.7919L21.2857 18.12C22.3745 18.4084 23.2147 18.7663 23.2147 19.6712C23.2147 20.6655 22.2651 21.3217 20.9576 21.3217C19.7743 21.3217 18.79 20.7947 18.7005 19.6861H17.1593C17.2587 21.5305 18.6855 22.669 20.9675 22.669C23.3588 22.669 24.736 21.4112 24.736 19.6861C24.736 17.8516 23.1003 17.1406 21.8077 16.8224L20.8134 16.5639C20.0179 16.3601 18.959 15.9872 18.964 15.0128C18.964 14.1477 19.7544 13.5064 21.0073 13.5064C22.1756 13.5064 23.0059 14.0533 23.1152 14.9929ZM29.7436 22.6541C31.4091 22.6541 32.5874 21.8338 32.9254 20.5909L31.5185 20.3374C31.25 21.0582 30.6037 21.4261 29.7585 21.4261C28.4858 21.4261 27.6307 20.6009 27.5909 19.1293H33.0199V18.6023C33.0199 15.843 31.3693 14.7642 29.6392 14.7642C27.5114 14.7642 26.1094 16.3849 26.1094 18.7315C26.1094 21.103 27.4915 22.6541 29.7436 22.6541ZM27.5959 18.0156C27.6555 16.9318 28.4411 15.9922 29.6491 15.9922C30.8026 15.9922 31.5582 16.8473 31.5632 18.0156H27.5959ZM36.8915 22.669C38.1543 22.669 38.8652 22.0277 39.1486 21.456H39.2083V22.5H40.66V17.429C40.66 15.2067 38.91 14.7642 37.6969 14.7642C36.3148 14.7642 35.0421 15.321 34.5449 16.7131L35.9419 17.0312C36.1607 16.4893 36.7175 15.9673 37.7168 15.9673C38.6763 15.9673 39.1685 16.4695 39.1685 17.3345V17.3693C39.1685 17.9112 38.6117 17.9013 37.2395 18.0604C35.7928 18.2294 34.3113 18.6072 34.3113 20.3423C34.3113 21.8438 35.4398 22.669 36.8915 22.669ZM37.2147 21.4759C36.3745 21.4759 35.7679 21.098 35.7679 20.3622C35.7679 19.5668 36.4739 19.2834 37.334 19.169C37.8162 19.1044 38.9597 18.9751 39.1735 18.7614V19.7457C39.1735 20.6506 38.4526 21.4759 37.2147 21.4759ZM42.6399 22.5H44.1264V17.8366C44.1264 16.8374 44.897 16.1165 45.951 16.1165C46.2592 16.1165 46.6072 16.1712 46.7266 16.206V14.7841C46.5774 14.7642 46.2841 14.7493 46.0952 14.7493C45.2003 14.7493 44.4347 15.2564 44.1562 16.0767H44.0767V14.8636H42.6399V22.5ZM50.9561 22.6541C52.7608 22.6541 53.9292 21.5703 54.0932 20.0838H52.6465C52.4576 20.9091 51.8162 21.3963 50.9661 21.3963C49.7083 21.3963 48.8979 20.3473 48.8979 18.6818C48.8979 17.0462 49.7232 16.017 50.9661 16.017C51.9107 16.017 52.4874 16.6136 52.6465 17.3295H54.0932C53.9341 15.7884 52.6763 14.7642 50.9412 14.7642C48.7885 14.7642 47.3965 16.3849 47.3965 18.7166C47.3965 21.0185 48.7388 22.6541 50.9561 22.6541ZM57.1694 17.9659C57.1694 16.7479 57.94 16.0518 58.9989 16.0518C60.0231 16.0518 60.6346 16.7031 60.6346 17.8217V22.5H62.1211V17.6428C62.1211 15.7386 61.0771 14.7642 59.506 14.7642C58.3178 14.7642 57.6019 15.2812 57.244 16.1065H57.1495V12.3182H55.6829V22.5H57.1694V17.9659ZM65.0842 22.5945C65.6261 22.5945 66.0785 22.152 66.0785 21.6001C66.0785 21.0582 65.6261 20.6108 65.0842 20.6108C64.5373 20.6108 64.0898 21.0582 64.0898 21.6001C64.0898 22.152 64.5373 22.5945 65.0842 22.5945ZM69.049 22.5945C69.5909 22.5945 70.0433 22.152 70.0433 21.6001C70.0433 21.0582 69.5909 20.6108 69.049 20.6108C68.5021 20.6108 68.0547 21.0582 68.0547 21.6001C68.0547 22.152 68.5021 22.5945 69.049 22.5945ZM73.0138 22.5945C73.5558 22.5945 74.0082 22.152 74.0082 21.6001C74.0082 21.0582 73.5558 20.6108 73.0138 20.6108C72.467 20.6108 72.0195 21.0582 72.0195 21.6001C72.0195 22.152 72.467 22.5945 73.0138 22.5945Z" fill="#999999"/>
<path d="M128.944 21.3889C131.399 21.3889 133.389 19.3991 133.389 16.9445C133.389 14.4899 131.399 12.5 128.944 12.5C126.49 12.5 124.5 14.4899 124.5 16.9445C124.5 19.3991 126.49 21.3889 128.944 21.3889Z" stroke="#999999" stroke-linecap="round" stroke-linejoin="round"/>
<path d="M134.5 22.4999L132.083 20.0833" stroke="#999999" stroke-linecap="round" stroke-linejoin="round"/>
<rect x="0.5" y="0.5" width="155" height="34" rx="11.5" stroke="white" stroke-opacity="0.15"/>
</svg>
