<svg width="583" height="234" viewBox="0 0 583 234" fill="none" xmlns="http://www.w3.org/2000/svg">
<g clip-path="url(#clip0)">
<rect x="13.3721" y="-0.398071" width="556.19" height="233.712" rx="11.7093" fill="#1F2025"/>
<rect x="13.8889" y="0.118773" width="555.157" height="232.679" rx="11.1924" stroke="white" stroke-opacity="0.08" stroke-width="1.03369"/>
<path d="M458.166 191.565C460.526 196.003 458.854 201.561 454.203 203.465C444.173 207.573 433.467 209.865 422.586 210.209C408.665 210.649 394.829 207.888 382.143 202.139C369.457 196.389 358.26 187.805 349.414 177.047C340.567 166.289 334.308 153.645 331.119 140.087C327.929 126.529 327.893 112.42 331.014 98.8466C334.135 85.2729 340.33 72.5967 349.122 61.7941C357.913 50.9915 369.067 42.3508 381.724 36.5374C391.617 31.9934 402.222 29.2716 413.031 28.476C418.043 28.1071 422.017 32.3358 421.884 37.3605C421.751 42.3852 417.555 46.2914 412.553 46.7856C404.535 47.5778 396.682 49.6977 389.321 53.0784C379.196 57.7292 370.273 64.6417 363.24 73.2838C356.207 81.9258 351.251 92.0668 348.754 102.926C346.257 113.785 346.285 125.072 348.837 135.918C351.389 146.764 356.396 156.88 363.473 165.486C370.55 174.093 379.508 180.96 389.656 185.559C399.805 190.159 410.874 192.368 422.011 192.016C430.107 191.76 438.081 190.156 445.612 187.29C450.309 185.502 455.806 187.127 458.166 191.565Z" fill="url(#paint0_linear)"/>
<g opacity="0.5" filter="url(#filter0_dd)">
<path d="M427.167 37.9765C427.605 32.9692 432.033 29.219 436.972 30.1548C452.758 33.146 467.529 40.2761 479.737 50.888C494.242 63.4974 504.383 80.3751 508.707 99.1024C513.031 117.83 511.314 137.445 503.805 155.137C497.484 170.026 487.334 182.91 474.457 192.519C470.428 195.525 464.804 194.095 462.215 189.787C459.626 185.478 461.064 179.929 465.016 176.823C474.633 169.266 482.232 159.373 487.049 148.025C493.057 133.871 494.43 118.179 490.971 103.197C487.512 88.2152 479.399 74.713 467.795 64.6255C458.49 56.5371 447.324 50.977 435.367 48.4001C430.454 47.3412 426.729 42.9838 427.167 37.9765Z" fill="#CE41FF"/>
</g>
<path d="M393.145 108.455V110.975H389.365V115.189H386.576V110.975H382.775V108.455H386.576V104.261H389.365V108.455H393.145ZM401.728 116.428V113.433H395.077V111.202C395.201 110.996 395.359 110.734 395.552 110.417C395.758 110.087 395.999 109.715 396.275 109.302L400.716 102.795H404.868V110.996H406.955V113.433H404.868V116.428H401.728ZM397.927 110.996H401.77V106.864C401.77 106.589 401.777 106.307 401.79 106.017C401.804 105.728 401.818 105.425 401.832 105.108H401.79C401.653 105.398 401.487 105.701 401.295 106.017C401.115 106.32 400.943 106.596 400.778 106.844L398.361 110.376C398.21 110.61 398.065 110.817 397.927 110.996ZM410.458 112.875C411.105 112.875 411.607 113.041 411.965 113.371C412.337 113.702 412.523 114.163 412.523 114.755C412.523 115.334 412.337 115.788 411.965 116.119C411.607 116.449 411.105 116.614 410.458 116.614C409.81 116.614 409.301 116.449 408.929 116.119C408.571 115.788 408.392 115.334 408.392 114.755C408.392 114.163 408.571 113.702 408.929 113.371C409.301 113.041 409.81 112.875 410.458 112.875ZM414.693 116.428V114.156C416.249 113.178 417.502 112.29 418.453 111.491C419.417 110.679 420.119 109.922 420.56 109.219C421 108.517 421.221 107.849 421.221 107.215C421.221 106.692 421.062 106.258 420.746 105.914C420.443 105.556 419.988 105.377 419.382 105.377C418.735 105.377 418.225 105.618 417.854 106.1C417.495 106.568 417.31 107.257 417.296 108.166L414.259 107.236C414.287 106.231 414.528 105.384 414.982 104.695C415.45 103.993 416.084 103.47 416.883 103.125C417.681 102.767 418.59 102.588 419.609 102.588C420.807 102.588 421.785 102.809 422.543 103.249C423.3 103.676 423.858 104.227 424.216 104.902C424.574 105.563 424.753 106.251 424.753 106.968C424.753 108.29 424.25 109.495 423.245 110.583C422.24 111.657 420.814 112.724 418.969 113.784V113.805C419.313 113.777 419.747 113.757 420.27 113.743C420.807 113.729 421.289 113.722 421.716 113.722H424.918V116.428H414.693ZM431.812 102.588C433.684 102.588 435.103 103.187 436.067 104.385C437.031 105.57 437.513 107.298 437.513 109.57C437.513 111.209 437.265 112.552 436.769 113.598C436.287 114.645 435.619 115.416 434.765 115.912C433.912 116.394 432.927 116.635 431.812 116.635C430.627 116.635 429.594 116.401 428.713 115.933C427.845 115.451 427.198 114.693 426.771 113.66L429.952 112.4C430.063 112.882 430.269 113.261 430.572 113.536C430.889 113.812 431.323 113.95 431.874 113.95C432.741 113.95 433.368 113.619 433.753 112.958C434.153 112.283 434.352 111.326 434.352 110.087V109.756H434.29C434.056 110.376 433.622 110.83 432.989 111.12C432.369 111.409 431.708 111.553 431.006 111.553C430.138 111.553 429.374 111.381 428.713 111.037C428.052 110.679 427.536 110.183 427.164 109.55C426.792 108.916 426.606 108.166 426.606 107.298C426.606 106.32 426.819 105.48 427.246 104.778C427.687 104.076 428.293 103.538 429.064 103.167C429.849 102.781 430.765 102.588 431.812 102.588ZM431.812 105.315C431.206 105.315 430.73 105.48 430.386 105.811C430.042 106.141 429.87 106.609 429.87 107.215C429.87 107.766 430.049 108.2 430.407 108.517C430.765 108.82 431.233 108.971 431.812 108.971C432.362 108.971 432.824 108.806 433.196 108.476C433.567 108.145 433.753 107.704 433.753 107.153C433.753 106.589 433.567 106.141 433.196 105.811C432.824 105.48 432.362 105.315 431.812 105.315ZM442.95 102.588C444.107 102.588 445.036 102.946 445.739 103.662C446.441 104.365 446.792 105.301 446.792 106.472C446.792 107.642 446.441 108.586 445.739 109.302C445.036 110.004 444.107 110.355 442.95 110.355C441.793 110.355 440.864 110.004 440.161 109.302C439.459 108.586 439.108 107.642 439.108 106.472C439.108 105.301 439.459 104.365 440.161 103.662C440.864 102.946 441.793 102.588 442.95 102.588ZM442.103 116.428L451.585 102.774H454.27L444.789 116.428H442.103ZM442.95 104.943C442.564 104.943 442.261 105.081 442.041 105.356C441.835 105.618 441.731 105.99 441.731 106.472C441.731 106.954 441.835 107.332 442.041 107.608C442.261 107.87 442.564 108 442.95 108C443.349 108 443.652 107.87 443.859 107.608C444.079 107.332 444.189 106.954 444.189 106.472C444.189 105.99 444.079 105.618 443.859 105.356C443.652 105.081 443.349 104.943 442.95 104.943ZM453.382 108.868C454.539 108.868 455.468 109.226 456.171 109.942C456.873 110.645 457.224 111.581 457.224 112.752C457.224 113.922 456.873 114.865 456.171 115.582C455.468 116.284 454.539 116.635 453.382 116.635C452.225 116.635 451.295 116.284 450.593 115.582C449.891 114.865 449.54 113.922 449.54 112.752C449.54 111.581 449.891 110.645 450.593 109.942C451.295 109.226 452.225 108.868 453.382 108.868ZM453.382 111.223C452.982 111.223 452.673 111.361 452.452 111.636C452.246 111.898 452.142 112.27 452.142 112.752C452.142 113.234 452.246 113.612 452.452 113.888C452.673 114.149 452.982 114.28 453.382 114.28C453.781 114.28 454.084 114.149 454.291 113.888C454.511 113.612 454.621 113.234 454.621 112.752C454.621 112.27 454.511 111.898 454.291 111.636C454.084 111.361 453.781 111.223 453.382 111.223Z" fill="white"/>
<path d="M405.486 143.609V142.249C406.577 141.492 407.489 140.815 408.223 140.218C408.969 139.61 409.566 139.059 410.014 138.566C410.461 138.061 410.783 137.579 410.978 137.12C411.184 136.661 411.288 136.196 411.288 135.725C411.288 135.129 411.092 134.641 410.702 134.262C410.324 133.872 409.801 133.677 409.136 133.677C408.424 133.677 407.856 133.918 407.432 134.4C407.018 134.87 406.783 135.519 406.726 136.345L405.125 135.605C405.228 134.526 405.641 133.671 406.364 133.04C407.087 132.397 408.046 132.076 409.239 132.076C410.077 132.076 410.788 132.237 411.374 132.558C411.959 132.879 412.406 133.31 412.716 133.849C413.026 134.388 413.181 134.991 413.181 135.656C413.181 136.379 413.003 137.079 412.647 137.757C412.292 138.422 411.729 139.105 410.96 139.805C410.192 140.505 409.182 141.257 407.931 142.06V142.095C408.068 142.083 408.258 142.072 408.499 142.06C408.74 142.049 408.981 142.043 409.222 142.043C409.463 142.031 409.658 142.026 409.807 142.026H413.388V143.609H405.486ZM420.248 143.609V140.769H414.705V139.512C414.751 139.409 414.848 139.248 414.998 139.03L419.731 132.248H421.987V139.34H423.915V140.769H421.987V143.609H420.248ZM416.426 139.34H420.248V135.329C420.248 135.054 420.254 134.773 420.265 134.486C420.288 134.187 420.305 133.895 420.317 133.608H420.282C420.156 133.883 419.99 134.187 419.783 134.52C419.588 134.842 419.404 135.123 419.232 135.364L416.547 139.185C416.512 139.243 416.472 139.294 416.426 139.34ZM426.085 143.609V131.129H427.927V136.379C428.214 135.84 428.598 135.45 429.08 135.209C429.573 134.956 430.119 134.83 430.715 134.83C431.324 134.83 431.869 134.951 432.351 135.192C432.844 135.421 433.234 135.777 433.521 136.259C433.808 136.729 433.952 137.32 433.952 138.032V143.609H432.11V138.617C432.11 137.757 431.932 137.166 431.576 136.844C431.232 136.511 430.796 136.345 430.268 136.345C429.889 136.345 429.522 136.437 429.166 136.62C428.81 136.793 428.512 137.079 428.271 137.481C428.041 137.871 427.927 138.399 427.927 139.065V143.609H426.085Z" fill="white"/>
<path d="M50.5872 34.976V36.2164H47.54V43.875H46.0973V36.2164H43.05V34.976H50.5872ZM53.6166 36.9985C54.2728 36.9985 54.8525 37.1378 55.3559 37.4165C55.8593 37.6951 56.2503 38.0996 56.529 38.63C56.8166 39.1513 56.9605 39.776 56.9605 40.5042C56.9605 41.2323 56.8166 41.8615 56.529 42.3918C56.2503 42.9132 55.8593 43.3132 55.3559 43.5918C54.8525 43.8705 54.2728 44.0098 53.6166 44.0098C52.9604 44.0098 52.3806 43.8705 51.8772 43.5918C51.3738 43.3132 50.9783 42.9132 50.6907 42.3918C50.403 41.8615 50.2592 41.2323 50.2592 40.5042C50.2592 39.776 50.403 39.1513 50.6907 38.63C50.9783 38.0996 51.3738 37.6951 51.8772 37.4165C52.3806 37.1378 52.9604 36.9985 53.6166 36.9985ZM53.6166 38.1311C53.0233 38.1311 52.5559 38.3378 52.2143 38.7513C51.8727 39.1558 51.7019 39.7401 51.7019 40.5042C51.7019 41.2682 51.8727 41.857 52.2143 42.2705C52.5559 42.675 53.0233 42.8772 53.6166 42.8772C54.2098 42.8772 54.6728 42.675 55.0054 42.2705C55.3469 41.857 55.5177 41.2682 55.5177 40.5042C55.5177 39.7401 55.3469 39.1558 55.0054 38.7513C54.6728 38.3378 54.2098 38.1311 53.6166 38.1311ZM62.971 37.1333V38.2659H60.6518V41.8525C60.6518 42.1761 60.7417 42.4188 60.9215 42.5806C61.1013 42.7334 61.335 42.8098 61.6227 42.8098C61.8743 42.8098 62.0856 42.7739 62.2564 42.7019C62.4362 42.621 62.6024 42.5132 62.7553 42.3783L63.0789 43.43C62.8721 43.6098 62.6159 43.7536 62.3103 43.8615C62.0137 43.9604 61.6811 44.0098 61.3125 44.0098C60.7193 44.0098 60.2204 43.866 59.8159 43.5784C59.4114 43.2817 59.2091 42.7873 59.2091 42.0952V38.2659H57.9147V37.1333H59.2091V35.5557L60.6518 35.1512V37.1333H62.971ZM68.3341 39.5468C68.3341 39.0974 68.2083 38.7513 67.9566 38.5086C67.7139 38.2569 67.3768 38.1311 66.9453 38.1311C66.5408 38.1311 66.1903 38.2255 65.8936 38.4142C65.606 38.603 65.3992 38.9086 65.2734 39.3311L64.0599 38.8187C64.2307 38.2704 64.5633 37.8299 65.0577 37.4974C65.561 37.1648 66.2082 36.9985 66.9993 36.9985C67.5296 36.9985 68.0015 37.0884 68.415 37.2681C68.8375 37.4389 69.1656 37.7041 69.3993 38.0637C69.642 38.4142 69.7634 38.8592 69.7634 39.3985V42.4053C69.7634 42.7379 69.9297 42.9042 70.2622 42.9042C70.424 42.9042 70.5814 42.8817 70.7342 42.8368L70.6533 43.8345C70.4465 43.9334 70.1858 43.9829 69.8712 43.9829C69.5117 43.9829 69.2016 43.902 68.9409 43.7402C68.6802 43.5784 68.5049 43.3357 68.415 43.0121C68.1993 43.3447 67.8892 43.5963 67.4847 43.7671C67.0802 43.9289 66.6757 44.0098 66.2712 44.0098C65.6329 44.0098 65.1026 43.857 64.6801 43.5514C64.2576 43.2458 64.0464 42.7873 64.0464 42.1761C64.0464 41.6817 64.2082 41.2727 64.5318 40.9491C64.8644 40.6255 65.3318 40.4008 65.9341 40.2749L68.3341 39.803V39.5468ZM65.5026 42.0682C65.5026 42.3199 65.597 42.5222 65.7858 42.675C65.9835 42.8188 66.2442 42.8907 66.5678 42.8907C66.8734 42.8907 67.1611 42.8413 67.4307 42.7424C67.7004 42.6435 67.9161 42.4817 68.0779 42.257C68.2487 42.0323 68.3341 41.7401 68.3341 41.3806V40.8143L66.6352 41.1648C66.2487 41.2367 65.961 41.3401 65.7723 41.475C65.5925 41.6098 65.5026 41.8075 65.5026 42.0682ZM73.5294 34.0995V41.9873C73.5294 42.3199 73.5879 42.5491 73.7047 42.675C73.8216 42.8008 74.0148 42.8637 74.2845 42.8637C74.4463 42.8637 74.5811 42.8548 74.689 42.8368C74.8059 42.8098 74.9497 42.7649 75.1205 42.7019L74.9587 43.7806C74.6441 43.9334 74.271 44.0098 73.8396 44.0098C73.2373 44.0098 72.7924 43.857 72.5047 43.5514C72.226 43.2458 72.0867 42.7649 72.0867 42.1087V34.0995H73.5294ZM80.3173 46.7065V37.1333H81.5982L81.6656 38.4007C81.8634 37.9783 82.1645 37.6412 82.569 37.3895C82.9735 37.1288 83.4409 36.9985 83.9713 36.9985C84.5196 36.9985 85.014 37.1378 85.4545 37.4165C85.9039 37.6951 86.259 38.0951 86.5196 38.6165C86.7893 39.1378 86.9241 39.7626 86.9241 40.4907C86.9241 41.2278 86.7893 41.8615 86.5196 42.3918C86.25 42.9132 85.8859 43.3132 85.4275 43.5918C84.978 43.8705 84.4792 44.0098 83.9308 44.0098C83.4275 44.0098 82.9915 43.8975 82.6229 43.6727C82.2544 43.439 81.9667 43.1379 81.76 42.7694V46.7065H80.3173ZM83.6207 42.8368C84.196 42.8368 84.6499 42.63 84.9825 42.2165C85.3151 41.8031 85.4814 41.2323 85.4814 40.5042C85.4814 39.776 85.3196 39.2052 84.996 38.7918C84.6724 38.3693 84.223 38.158 83.6477 38.158C83.0814 38.158 82.6229 38.3693 82.2724 38.7918C81.9308 39.2142 81.76 39.785 81.76 40.5042C81.76 41.2143 81.9263 41.7806 82.2589 42.2031C82.6005 42.6255 83.0544 42.8368 83.6207 42.8368ZM91.6966 36.9985C92.3528 36.9985 92.9326 37.1378 93.436 37.4165C93.9394 37.6951 94.3304 38.0996 94.6091 38.63C94.8967 39.1513 95.0405 39.776 95.0405 40.5042C95.0405 41.2323 94.8967 41.8615 94.6091 42.3918C94.3304 42.9132 93.9394 43.3132 93.436 43.5918C92.9326 43.8705 92.3528 44.0098 91.6966 44.0098C91.0404 44.0098 90.4607 43.8705 89.9573 43.5918C89.4539 43.3132 89.0584 42.9132 88.7707 42.3918C88.4831 41.8615 88.3393 41.2323 88.3393 40.5042C88.3393 39.776 88.4831 39.1513 88.7707 38.63C89.0584 38.0996 89.4539 37.6951 89.9573 37.4165C90.4607 37.1378 91.0404 36.9985 91.6966 36.9985ZM91.6966 38.1311C91.1034 38.1311 90.6359 38.3378 90.2944 38.7513C89.9528 39.1558 89.782 39.7401 89.782 40.5042C89.782 41.2682 89.9528 41.857 90.2944 42.2705C90.6359 42.675 91.1034 42.8772 91.6966 42.8772C92.2899 42.8772 92.7528 42.675 93.0854 42.2705C93.427 41.857 93.5978 41.2682 93.5978 40.5042C93.5978 39.7401 93.427 39.1558 93.0854 38.7513C92.7528 38.3378 92.2899 38.1311 91.6966 38.1311ZM99.7814 36.9985C100.438 36.9985 101.017 37.1378 101.521 37.4165C102.024 37.6951 102.415 38.0996 102.694 38.63C102.981 39.1513 103.125 39.776 103.125 40.5042C103.125 41.2323 102.981 41.8615 102.694 42.3918C102.415 42.9132 102.024 43.3132 101.521 43.5918C101.017 43.8705 100.438 44.0098 99.7814 44.0098C99.1252 44.0098 98.5454 43.8705 98.0421 43.5918C97.5387 43.3132 97.1432 42.9132 96.8555 42.3918C96.5679 41.8615 96.424 41.2323 96.424 40.5042C96.424 39.776 96.5679 39.1513 96.8555 38.63C97.1432 38.0996 97.5387 37.6951 98.0421 37.4165C98.5454 37.1378 99.1252 36.9985 99.7814 36.9985ZM99.7814 38.1311C99.1881 38.1311 98.7207 38.3378 98.3791 38.7513C98.0376 39.1558 97.8668 39.7401 97.8668 40.5042C97.8668 41.2682 98.0376 41.857 98.3791 42.2705C98.7207 42.675 99.1881 42.8772 99.7814 42.8772C100.375 42.8772 100.838 42.675 101.17 42.2705C101.512 41.857 101.683 41.2682 101.683 40.5042C101.683 39.7401 101.512 39.1558 101.17 38.7513C100.838 38.3378 100.375 38.1311 99.7814 38.1311ZM106.343 34.0995V41.9873C106.343 42.3199 106.401 42.5491 106.518 42.675C106.635 42.8008 106.828 42.8637 107.098 42.8637C107.259 42.8637 107.394 42.8548 107.502 42.8368C107.619 42.8098 107.763 42.7649 107.934 42.7019L107.772 43.7806C107.457 43.9334 107.084 44.0098 106.653 44.0098C106.05 44.0098 105.605 43.857 105.318 43.5514C105.039 43.2458 104.9 42.7649 104.9 42.1087V34.0995H106.343Z" fill="white"/>
<path d="M47.7962 77.342V67.0947C47.7962 66.6272 47.7962 66.1508 47.7962 65.6654C47.8141 65.162 47.8231 64.6497 47.8231 64.1283C47.2299 64.6856 46.5647 65.162 45.8276 65.5576C45.1085 65.9531 44.3624 66.2227 43.5893 66.3666L43.1579 62.5373C43.7691 62.4654 44.4343 62.2766 45.1534 61.971C45.8905 61.6653 46.5737 61.2968 47.2029 60.8653C47.8321 60.4159 48.2906 59.9754 48.5782 59.544H52.2727V77.342H47.7962ZM62.9424 77.6117C60.5154 77.6117 58.6727 76.8387 57.4143 75.2926C56.1738 73.7465 55.5535 71.4633 55.5535 68.443C55.5535 65.4227 56.1738 63.1395 57.4143 61.5934C58.6727 60.0473 60.5154 59.2743 62.9424 59.2743C65.3695 59.2743 67.2032 60.0473 68.4437 61.5934C69.7021 63.1395 70.3313 65.4227 70.3313 68.443C70.3313 71.4633 69.7021 73.7465 68.4437 75.2926C67.2032 76.8387 65.3695 77.6117 62.9424 77.6117ZM62.9424 73.9982C63.9312 73.9982 64.6414 73.5757 65.0728 72.7307C65.5223 71.8678 65.747 70.4385 65.747 68.443C65.747 66.4475 65.5223 65.0272 65.0728 64.1822C64.6414 63.3193 63.9312 62.8878 62.9424 62.8878C61.9537 62.8878 61.2346 63.3193 60.7851 64.1822C60.3536 65.0272 60.1379 66.4475 60.1379 68.443C60.1379 70.4385 60.3536 71.8678 60.7851 72.7307C61.2346 73.5757 61.9537 73.9982 62.9424 73.9982ZM75.1797 72.7038C76.1685 72.7038 76.8966 73.0363 77.364 73.7015C77.8494 74.3667 78.0921 75.1398 78.0921 76.0207C78.0921 76.8297 77.9123 77.6027 77.5528 78.3398C77.2112 79.0949 76.7527 79.7511 76.1775 80.3084C75.6201 80.8837 75.0089 81.3151 74.3437 81.6028L72.483 80.2275C73.2201 79.9219 73.8763 79.5084 74.4516 78.987C75.0449 78.4836 75.4583 77.9443 75.6921 77.369L75.5572 77.2881C75.4494 77.36 75.3235 77.414 75.1797 77.4499C75.0538 77.4859 74.8741 77.5038 74.6403 77.5038C74.1549 77.5038 73.6695 77.3241 73.1841 76.9645C72.7167 76.6049 72.483 76.0476 72.483 75.2926C72.483 74.4476 72.7527 73.8094 73.292 73.3779C73.8493 72.9285 74.4785 72.7038 75.1797 72.7038ZM88.9094 77.342V73.4319H80.2261V70.5194C80.3879 70.2498 80.5946 69.9082 80.8463 69.4947C81.116 69.0632 81.4306 68.5778 81.7901 68.0385L87.588 59.544H93.0083V70.2498H95.732V73.4319H93.0083V77.342H88.9094ZM83.9475 70.2498H88.9633V64.8564C88.9633 64.4969 88.9723 64.1283 88.9903 63.7508C89.0082 63.3732 89.0262 62.9777 89.0442 62.5642H88.9903C88.8105 62.9418 88.5948 63.3373 88.3431 63.7508C88.1093 64.1463 87.8846 64.5058 87.6689 64.8294L84.5138 69.4408C84.316 69.7464 84.1273 70.0161 83.9475 70.2498ZM104.213 77.6117C102.667 77.6117 101.318 77.3151 100.168 76.7218C99.035 76.1106 98.0822 75.1218 97.3091 73.7555L101.381 71.7329C101.579 72.4521 101.893 73.0274 102.325 73.4588C102.774 73.8903 103.44 74.106 104.32 74.106C105.147 74.106 105.804 73.8903 106.289 73.4588C106.774 73.0094 107.017 72.3622 107.017 71.5172C107.017 69.8812 106.118 69.0632 104.32 69.0632C103.08 69.0632 102.127 69.4138 101.462 70.1149L97.9563 69.4677L99.0889 59.544H110.307V63.1305H102.46L102.001 66.6902L101.92 67.1216H101.947C102.307 66.7081 102.81 66.3935 103.458 66.1778C104.105 65.9621 104.824 65.8542 105.615 65.8542C106.783 65.8542 107.781 66.0879 108.608 66.5553C109.453 67.0227 110.091 67.661 110.523 68.47C110.972 69.279 111.197 70.2048 111.197 71.2475C111.197 72.7038 110.873 73.9083 110.226 74.8611C109.579 75.7959 108.725 76.4881 107.664 76.9375C106.604 77.387 105.453 77.6117 104.213 77.6117ZM120.663 59.3282C122.676 59.3282 124.285 59.7687 125.49 60.6496C126.694 61.5125 127.296 62.6991 127.296 64.2092C127.296 65.162 127.063 65.989 126.595 66.6902C126.128 67.3733 125.436 67.8857 124.519 68.2273V68.2542C125.597 68.6138 126.433 69.1441 127.027 69.8453C127.62 70.5284 127.917 71.4093 127.917 72.488C127.917 74.0341 127.269 75.2746 125.975 76.2094C124.699 77.1443 122.928 77.6117 120.663 77.6117C118.415 77.6117 116.645 77.1443 115.35 76.2094C114.074 75.2746 113.435 74.0341 113.435 72.488C113.435 71.4093 113.732 70.5284 114.325 69.8453C114.919 69.1441 115.755 68.6138 116.833 68.2542V68.2273C115.916 67.8857 115.215 67.3733 114.73 66.6902C114.262 65.989 114.029 65.162 114.029 64.2092C114.029 62.6991 114.631 61.5125 115.836 60.6496C117.058 59.7687 118.667 59.3282 120.663 59.3282ZM120.663 62.6991C119.943 62.6991 119.368 62.8788 118.937 63.2384C118.523 63.598 118.316 64.1013 118.316 64.7485C118.316 65.3778 118.523 65.8812 118.937 66.2587C119.368 66.6182 119.943 66.798 120.663 66.798C121.382 66.798 121.957 66.6182 122.388 66.2587C122.82 65.8812 123.036 65.3778 123.036 64.7485C123.036 64.1013 122.82 63.598 122.388 63.2384C121.975 62.8788 121.4 62.6991 120.663 62.6991ZM120.663 74.2409C121.526 74.2409 122.2 74.0431 122.685 73.6476C123.17 73.2521 123.413 72.7127 123.413 72.0296C123.413 71.3284 123.161 70.7891 122.658 70.4116C122.173 70.0161 121.508 69.8183 120.663 69.8183C119.836 69.8183 119.17 70.0161 118.667 70.4116C118.182 70.7891 117.939 71.3284 117.939 72.0296C117.939 72.7127 118.182 73.2521 118.667 73.6476C119.152 74.0431 119.818 74.2409 120.663 74.2409ZM133.039 72.7038C133.884 72.7038 134.54 72.9195 135.008 73.351C135.493 73.7824 135.736 74.3847 135.736 75.1577C135.736 75.9128 135.493 76.5061 135.008 76.9375C134.54 77.369 133.884 77.5847 133.039 77.5847C132.194 77.5847 131.529 77.369 131.044 76.9375C130.576 76.5061 130.342 75.9128 130.342 75.1577C130.342 74.3847 130.576 73.7824 131.044 73.351C131.529 72.9195 132.194 72.7038 133.039 72.7038ZM145.37 77.6117C142.943 77.6117 141.101 76.8387 139.842 75.2926C138.602 73.7465 137.981 71.4633 137.981 68.443C137.981 65.4227 138.602 63.1395 139.842 61.5934C141.101 60.0473 142.943 59.2743 145.37 59.2743C147.797 59.2743 149.631 60.0473 150.871 61.5934C152.13 63.1395 152.759 65.4227 152.759 68.443C152.759 71.4633 152.13 73.7465 150.871 75.2926C149.631 76.8387 147.797 77.6117 145.37 77.6117ZM145.37 73.9982C146.359 73.9982 147.069 73.5757 147.501 72.7307C147.95 71.8678 148.175 70.4385 148.175 68.443C148.175 66.4475 147.95 65.0272 147.501 64.1822C147.069 63.3193 146.359 62.8878 145.37 62.8878C144.381 62.8878 143.662 63.3193 143.213 64.1822C142.781 65.0272 142.566 66.4475 142.566 68.443C142.566 70.4385 142.781 71.8678 143.213 72.7307C143.662 73.5757 144.381 73.9982 145.37 73.9982ZM162.725 77.6117C160.298 77.6117 158.455 76.8387 157.197 75.2926C155.956 73.7465 155.336 71.4633 155.336 68.443C155.336 65.4227 155.956 63.1395 157.197 61.5934C158.455 60.0473 160.298 59.2743 162.725 59.2743C165.152 59.2743 166.986 60.0473 168.226 61.5934C169.485 63.1395 170.114 65.4227 170.114 68.443C170.114 71.4633 169.485 73.7465 168.226 75.2926C166.986 76.8387 165.152 77.6117 162.725 77.6117ZM162.725 73.9982C163.714 73.9982 164.424 73.5757 164.855 72.7307C165.305 71.8678 165.529 70.4385 165.529 68.443C165.529 66.4475 165.305 65.0272 164.855 64.1822C164.424 63.3193 163.714 62.8878 162.725 62.8878C161.736 62.8878 161.017 63.3193 160.568 64.1822C160.136 65.0272 159.92 66.4475 159.92 68.443C159.92 70.4385 160.136 71.8678 160.568 72.7307C161.017 73.5757 161.736 73.9982 162.725 73.9982ZM181.081 77.342V59.544H189.737C191.93 59.544 193.548 59.9574 194.591 60.7844C195.634 61.6114 196.155 62.7979 196.155 64.344C196.155 65.3508 195.859 66.2227 195.265 66.9598C194.672 67.6969 193.764 68.1554 192.542 68.3351V68.3621C193.908 68.5419 194.924 69.0183 195.589 69.7913C196.272 70.5464 196.614 71.4633 196.614 72.542C196.614 74.0701 196.065 75.2566 194.969 76.1016C193.89 76.9286 192.281 77.342 190.142 77.342H181.081ZM185.557 66.825H188.928C190.582 66.825 191.409 66.1778 191.409 64.8834C191.409 63.589 190.582 62.9418 188.928 62.9418H185.557V66.825ZM185.557 74.0791H189.36C191.032 74.0791 191.868 73.4139 191.868 72.0835C191.868 70.7891 191.032 70.1419 189.36 70.1419H185.557V74.0791ZM215.075 59.544V70.088C215.075 75.1038 212.423 77.6117 207.12 77.6117C204.513 77.6117 202.535 76.9915 201.187 75.751C199.839 74.4925 199.165 72.6049 199.165 70.088V59.544H203.83V70.1689C203.83 72.7038 204.926 73.9712 207.12 73.9712C209.331 73.9712 210.437 72.7038 210.437 70.1689V59.544H215.075ZM225.618 59.2743C227.272 59.2743 228.728 59.535 229.987 60.0563C231.263 60.5597 232.369 61.3058 233.304 62.2946L231.065 65.2879C230.292 64.4789 229.456 63.8766 228.557 63.4811C227.676 63.0676 226.67 62.8609 225.537 62.8609C224.548 62.8609 223.838 63.0227 223.407 63.3463C222.975 63.6699 222.759 64.0654 222.759 64.5328C222.759 64.9103 222.93 65.2339 223.272 65.5036C223.631 65.7553 224.207 65.971 224.998 66.1508L227.991 66.825C229.771 67.2385 231.074 67.8407 231.901 68.6318C232.728 69.4228 233.142 70.4745 233.142 71.7869C233.142 73.0453 232.818 74.115 232.171 74.9959C231.524 75.8589 230.634 76.5151 229.501 76.9645C228.369 77.396 227.074 77.6117 225.618 77.6117C223.82 77.6117 222.175 77.3241 220.683 76.7488C219.191 76.1555 218.004 75.3825 217.123 74.4296L219.362 71.3284C220.027 72.1015 220.926 72.7487 222.058 73.2701C223.191 73.7734 224.36 74.0251 225.564 74.0251C227.434 74.0251 228.369 73.4768 228.369 72.3801C228.369 72.0026 228.225 71.688 227.937 71.4363C227.667 71.1666 227.164 70.9419 226.427 70.7621L223.137 70.034C222.13 69.8183 221.231 69.5127 220.44 69.1172C219.667 68.7217 219.056 68.2003 218.607 67.5531C218.157 66.8879 217.932 66.0609 217.932 65.0721C217.932 63.9575 218.238 62.9687 218.849 62.1058C219.461 61.2249 220.341 60.5327 221.492 60.0294C222.643 59.526 224.018 59.2743 225.618 59.2743ZM243.592 59.544C246.379 59.544 248.509 60.317 249.983 61.8631C251.475 63.4092 252.222 65.6025 252.222 68.443C252.222 71.2835 251.475 73.4768 249.983 75.0229C248.509 76.569 246.379 77.342 243.592 77.342H236.041V59.544H243.592ZM243.134 73.8364C244.644 73.8364 245.741 73.3869 246.424 72.488C247.125 71.5711 247.475 70.2228 247.475 68.443C247.475 66.6632 247.125 65.3238 246.424 64.4249C245.741 63.5081 244.644 63.0496 243.134 63.0496H240.68V73.8364H243.134Z" fill="white"/>
<path d="M46.3939 104.189V102.854C45.6298 102.782 44.9736 102.584 44.4253 102.261C43.877 101.937 43.4455 101.542 43.1309 101.074L44.0882 100.103C44.3219 100.508 44.6321 100.845 45.0186 101.115C45.4141 101.384 45.8725 101.56 46.3939 101.64V98.9977L45.8141 98.8629C45.0321 98.6921 44.4568 98.4179 44.0882 98.0404C43.7197 97.6539 43.5354 97.1819 43.5354 96.6246C43.5354 96.1752 43.6478 95.7662 43.8725 95.3976C44.0972 95.0201 44.4208 94.71 44.8433 94.4673C45.2748 94.2246 45.7916 94.0718 46.3939 94.0088V92.701H47.4726V94.0088C48.704 94.1347 49.6659 94.701 50.358 95.7078L49.4277 96.5977C48.9153 95.8156 48.2636 95.3527 47.4726 95.2089V97.8921L48.0793 98.0269C48.9153 98.2157 49.5086 98.4943 49.8591 98.8629C50.2097 99.2314 50.385 99.7033 50.385 100.279C50.385 101.007 50.1198 101.6 49.5895 102.058C49.0591 102.517 48.3535 102.787 47.4726 102.867V104.189H46.3939ZM46.3265 97.6359L46.3939 97.6494V95.1684C45.8815 95.2224 45.504 95.3662 45.2613 95.5999C45.0276 95.8336 44.9107 96.1078 44.9107 96.4224C44.9107 96.701 45.0051 96.9437 45.1939 97.1505C45.3826 97.3482 45.7602 97.51 46.3265 97.6359ZM47.7827 99.3213L47.4726 99.2404V101.681C47.958 101.627 48.3355 101.497 48.6052 101.29C48.8838 101.083 49.0232 100.795 49.0232 100.427C49.0232 100.184 48.9333 99.9685 48.7535 99.7797C48.5737 99.582 48.2501 99.4292 47.7827 99.3213ZM53.8493 102.894V96.7864C53.8493 96.6156 53.8493 96.4314 53.8493 96.2336C53.8583 96.0359 53.8672 95.8291 53.8762 95.6134C53.5706 95.91 53.22 96.1662 52.8245 96.3819C52.429 96.5887 52.029 96.737 51.6245 96.8269L51.3548 95.5729C51.5346 95.546 51.7503 95.483 52.002 95.3842C52.2627 95.2853 52.5279 95.1594 52.7976 95.0066C53.0672 94.8538 53.3144 94.692 53.5391 94.5212C53.7639 94.3414 53.9392 94.1662 54.065 93.9954H55.2785V102.894H53.8493ZM60.7709 103.029C59.7012 103.029 58.8607 102.643 58.2495 101.87C57.6472 101.088 57.3461 99.946 57.3461 98.4449C57.3461 96.9437 57.6472 95.8066 58.2495 95.0336C58.8607 94.2516 59.7012 93.8605 60.7709 93.8605C61.8406 93.8605 62.681 94.2516 63.2923 95.0336C63.9035 95.8066 64.2091 96.9437 64.2091 98.4449C64.2091 99.946 63.9035 101.088 63.2923 101.87C62.681 102.643 61.8406 103.029 60.7709 103.029ZM60.7709 101.802C62.0833 101.802 62.7395 100.683 62.7395 98.4449C62.7395 96.2066 62.0833 95.0875 60.7709 95.0875C59.4675 95.0875 58.8158 96.2066 58.8158 98.4449C58.8158 100.683 59.4675 101.802 60.7709 101.802ZM66.5741 101.074C66.9427 101.074 67.2258 101.209 67.4236 101.479C67.6213 101.739 67.7202 102.072 67.7202 102.476C67.7202 102.98 67.5809 103.452 67.3022 103.892C67.0236 104.333 66.6325 104.674 66.1292 104.917L65.455 104.337C65.8146 104.202 66.1157 104.005 66.3584 103.744C66.6101 103.492 66.7764 103.227 66.8573 102.948L66.8033 102.921C66.7584 102.948 66.7045 102.971 66.6415 102.989C66.5876 103.007 66.5067 103.016 66.3988 103.016C66.2101 103.016 66.0213 102.939 65.8325 102.787C65.6438 102.634 65.5494 102.4 65.5494 102.085C65.5494 101.789 65.6483 101.546 65.846 101.357C66.0528 101.169 66.2955 101.074 66.5741 101.074ZM73.2568 102.894V100.67H68.9152V99.6854C68.9511 99.6045 69.0275 99.4786 69.1444 99.3078L72.8523 93.9954H74.6186V99.5505H76.1288V100.67H74.6186V102.894H73.2568ZM70.2635 99.5505H73.2568V96.4089C73.2568 96.1932 73.2613 95.9729 73.2703 95.7482C73.2883 95.5145 73.3018 95.2853 73.3108 95.0606H73.2838C73.1849 95.2763 73.0546 95.5145 72.8928 95.7752C72.74 96.0269 72.5961 96.2471 72.4613 96.4359L70.3579 99.4292C70.3309 99.4741 70.2995 99.5146 70.2635 99.5505ZM80.5793 103.029C79.7882 103.029 79.1365 102.858 78.6242 102.517C78.1208 102.175 77.7208 101.681 77.4241 101.034L78.7725 100.333C78.8983 100.773 79.1006 101.128 79.3792 101.398C79.6579 101.667 80.0669 101.802 80.6062 101.802C81.1635 101.802 81.5995 101.649 81.9141 101.344C82.2377 101.038 82.3995 100.616 82.3995 100.076C82.3995 99.5191 82.2512 99.0966 81.9546 98.8089C81.6579 98.5123 81.231 98.364 80.6736 98.364C80.2781 98.364 79.9231 98.4269 79.6085 98.5528C79.3028 98.6696 79.0556 98.8629 78.8669 99.1325L77.6803 98.9033L78.2197 93.9954H83.3973V95.2358H79.3658L79.0422 97.7438L79.0152 97.8921H79.0422C79.2489 97.6763 79.5141 97.5055 79.8377 97.3797C80.1703 97.2449 80.5613 97.1774 81.0107 97.1774C81.586 97.1774 82.0804 97.2988 82.4939 97.5415C82.9164 97.7752 83.24 98.1033 83.4647 98.5258C83.6984 98.9483 83.8153 99.4382 83.8153 99.9955C83.8153 100.652 83.6715 101.204 83.3838 101.654C83.1051 102.103 82.7186 102.445 82.2242 102.679C81.7388 102.912 81.1905 103.029 80.5793 103.029ZM88.7371 93.874C89.636 93.874 90.3551 94.0853 90.8945 94.5077C91.4338 94.9302 91.7035 95.51 91.7035 96.2471C91.7035 96.7055 91.5911 97.11 91.3664 97.4606C91.1417 97.8112 90.8226 98.0718 90.4091 98.2426V98.2561C90.9304 98.4449 91.3394 98.728 91.6361 99.1056C91.9327 99.4741 92.081 99.9326 92.081 100.481C92.081 101.263 91.7754 101.883 91.1641 102.342C90.5619 102.8 89.7529 103.029 88.7371 103.029C88.054 103.029 87.4607 102.926 86.9573 102.719C86.4629 102.512 86.0764 102.22 85.7978 101.843C85.5191 101.456 85.3798 101.002 85.3798 100.481C85.3798 99.9415 85.5281 99.4831 85.8247 99.1056C86.1214 98.728 86.5348 98.4449 87.0652 98.2561V98.2426C86.6517 98.0718 86.3281 97.8157 86.0944 97.4741C85.8697 97.1235 85.7573 96.7145 85.7573 96.2471C85.7573 95.51 86.027 94.9302 86.5663 94.5077C87.1146 94.0853 87.8382 93.874 88.7371 93.874ZM88.7371 95.0875C88.2607 95.0875 87.8832 95.2044 87.6045 95.4381C87.3259 95.6628 87.1865 95.9819 87.1865 96.3954C87.1865 96.7999 87.3259 97.119 87.6045 97.3527C87.8922 97.5775 88.2697 97.6898 88.7371 97.6898C89.1956 97.6898 89.5686 97.5775 89.8563 97.3527C90.1439 97.119 90.2877 96.7999 90.2877 96.3954C90.2877 95.9819 90.1484 95.6628 89.8697 95.4381C89.5911 95.2044 89.2135 95.0875 88.7371 95.0875ZM88.7371 101.816C89.3214 101.816 89.7799 101.685 90.1124 101.425C90.454 101.164 90.6248 100.804 90.6248 100.346C90.6248 99.8786 90.454 99.5146 90.1124 99.2539C89.7709 98.9932 89.3124 98.8629 88.7371 98.8629C88.1618 98.8629 87.6989 98.9932 87.3483 99.2539C87.0068 99.5146 86.836 99.8786 86.836 100.346C86.836 100.804 87.0068 101.164 87.3483 101.425C87.6899 101.685 88.1529 101.816 88.7371 101.816ZM94.7526 101.074C95.0583 101.074 95.301 101.164 95.4807 101.344C95.6695 101.515 95.7639 101.748 95.7639 102.045C95.7639 102.342 95.6695 102.58 95.4807 102.76C95.301 102.939 95.0583 103.029 94.7526 103.029C94.438 103.029 94.1863 102.939 93.9976 102.76C93.8178 102.58 93.7279 102.342 93.7279 102.045C93.7279 101.748 93.8178 101.515 93.9976 101.344C94.1863 101.164 94.438 101.074 94.7526 101.074ZM100.563 103.029C99.493 103.029 98.6526 102.643 98.0413 101.87C97.4391 101.088 97.1379 99.946 97.1379 98.4449C97.1379 96.9437 97.4391 95.8066 98.0413 95.0336C98.6526 94.2516 99.493 93.8605 100.563 93.8605C101.632 93.8605 102.473 94.2516 103.084 95.0336C103.695 95.8066 104.001 96.9437 104.001 98.4449C104.001 99.946 103.695 101.088 103.084 101.87C102.473 102.643 101.632 103.029 100.563 103.029ZM100.563 101.802C101.875 101.802 102.531 100.683 102.531 98.4449C102.531 96.2066 101.875 95.0875 100.563 95.0875C99.2593 95.0875 98.6076 96.2066 98.6076 98.4449C98.6076 100.683 99.2593 101.802 100.563 101.802ZM109.029 103.029C107.96 103.029 107.119 102.643 106.508 101.87C105.906 101.088 105.605 99.946 105.605 98.4449C105.605 96.9437 105.906 95.8066 106.508 95.0336C107.119 94.2516 107.96 93.8605 109.029 93.8605C110.099 93.8605 110.939 94.2516 111.551 95.0336C112.162 95.8066 112.468 96.9437 112.468 98.4449C112.468 99.946 112.162 101.088 111.551 101.87C110.939 102.643 110.099 103.029 109.029 103.029ZM109.029 101.802C110.342 101.802 110.998 100.683 110.998 98.4449C110.998 96.2066 110.342 95.0875 109.029 95.0875C107.726 95.0875 107.074 96.2066 107.074 98.4449C107.074 100.683 107.726 101.802 109.029 101.802Z" fill="white" fill-opacity="0.3"/>
<rect x="125.143" y="86.2977" width="64.401" height="23.4185" rx="3.90309" fill="#1CC760" fill-opacity="0.1"/>
<path d="M137.601 97.5907V98.9802H134.495V102.243H133.043V98.9802H129.92V97.5907H133.043V94.3433H134.495V97.5907H137.601ZM144.182 103.274V100.698H139.155V99.5578C139.197 99.4641 139.285 99.3184 139.421 99.1207L143.714 92.9694H145.759V99.4017H147.508V100.698H145.759V103.274H144.182ZM140.716 99.4017H144.182V95.764C144.182 95.5142 144.188 95.2592 144.198 94.999C144.219 94.7284 144.234 94.463 144.245 94.2028H144.214C144.099 94.4526 143.948 94.7284 143.761 95.0302C143.584 95.3217 143.417 95.5767 143.261 95.7952L140.826 99.2612C140.794 99.3132 140.758 99.3601 140.716 99.4017ZM150.182 101.166C150.536 101.166 150.817 101.27 151.025 101.478C151.243 101.676 151.353 101.947 151.353 102.29C151.353 102.633 151.243 102.909 151.025 103.117C150.817 103.326 150.536 103.43 150.182 103.43C149.818 103.43 149.526 103.326 149.308 103.117C149.099 102.909 148.995 102.633 148.995 102.29C148.995 101.947 149.099 101.676 149.308 101.478C149.526 101.27 149.818 101.166 150.182 101.166ZM153.405 103.274V102.04C154.394 101.353 155.221 100.739 155.887 100.198C156.564 99.6463 157.105 99.1467 157.511 98.6991C157.917 98.2412 158.208 97.804 158.385 97.3877C158.573 96.9714 158.666 96.5498 158.666 96.1231C158.666 95.5819 158.489 95.1395 158.135 94.796C157.792 94.4422 157.318 94.2652 156.715 94.2652C156.069 94.2652 155.554 94.4838 155.169 94.9209C154.794 95.3477 154.581 95.9358 154.529 96.6851L153.077 96.0138C153.171 95.0354 153.545 94.26 154.201 93.6876C154.857 93.1047 155.726 92.8133 156.808 92.8133C157.568 92.8133 158.213 92.959 158.744 93.2504C159.275 93.5419 159.681 93.9322 159.962 94.4214C160.243 94.9105 160.384 95.457 160.384 96.0607C160.384 96.7164 160.222 97.3513 159.9 97.9654C159.577 98.569 159.067 99.1883 158.37 99.8232C157.672 100.458 156.756 101.14 155.622 101.868V101.9C155.747 101.889 155.918 101.879 156.137 101.868C156.356 101.858 156.574 101.853 156.793 101.853C157.011 101.842 157.188 101.837 157.324 101.837H160.571V103.274H153.405ZM166.096 92.8133C166.981 92.8133 167.725 93.0319 168.329 93.469C168.933 93.9061 169.391 94.5202 169.703 95.3113C170.015 96.1023 170.171 97.0338 170.171 98.1059C170.171 99.8753 169.812 101.208 169.094 102.103C168.386 102.987 167.392 103.43 166.112 103.43C165.238 103.43 164.483 103.237 163.848 102.852C163.224 102.467 162.76 101.889 162.459 101.119L164.036 100.385C164.181 100.864 164.421 101.254 164.754 101.556C165.087 101.848 165.55 101.993 166.143 101.993C166.778 101.993 167.278 101.832 167.642 101.509C168.006 101.176 168.266 100.708 168.423 100.104C168.579 99.4902 168.657 98.7668 168.657 97.9341V97.7624H168.594C168.469 98.1891 168.261 98.5326 167.97 98.7928C167.678 99.0426 167.345 99.23 166.971 99.3549C166.596 99.4693 166.221 99.5266 165.847 99.5266C165.18 99.5266 164.587 99.3965 164.067 99.1363C163.557 98.8657 163.156 98.491 162.865 98.0122C162.573 97.5334 162.427 96.9662 162.427 96.3104C162.427 95.2384 162.755 94.3901 163.411 93.7656C164.067 93.1307 164.962 92.8133 166.096 92.8133ZM166.112 94.2808C165.456 94.2808 164.957 94.4578 164.613 94.8117C164.27 95.1655 164.098 95.6599 164.098 96.2948C164.098 96.8569 164.28 97.2992 164.644 97.6219C165.009 97.9341 165.498 98.0903 166.112 98.0903C166.705 98.0903 167.189 97.9185 167.564 97.575C167.939 97.2212 168.126 96.7632 168.126 96.2012C168.126 95.6183 167.939 95.1551 167.564 94.8117C167.189 94.4578 166.705 94.2808 166.112 94.2808ZM174.296 92.8133C175.087 92.8133 175.716 93.0735 176.185 93.5939C176.664 94.1143 176.903 94.8117 176.903 95.686C176.903 96.5498 176.664 97.2472 176.185 97.778C175.716 98.2984 175.087 98.5586 174.296 98.5586C173.505 98.5586 172.87 98.2984 172.391 97.778C171.923 97.2472 171.688 96.5498 171.688 95.686C171.688 94.8117 171.923 94.1143 172.391 93.5939C172.87 93.0735 173.505 92.8133 174.296 92.8133ZM173.89 103.274L180.634 92.9694H182.071L175.342 103.274H173.89ZM174.296 94.031C173.9 94.031 173.593 94.1768 173.375 94.4682C173.166 94.7596 173.062 95.1655 173.062 95.686C173.062 96.2064 173.166 96.6123 173.375 96.9037C173.593 97.1847 173.9 97.3253 174.296 97.3253C174.702 97.3253 175.009 97.1847 175.217 96.9037C175.435 96.6123 175.545 96.2064 175.545 95.686C175.545 95.1655 175.435 94.7596 175.217 94.4682C175.009 94.1768 174.702 94.031 174.296 94.031ZM181.665 97.6843C182.456 97.6843 183.086 97.9497 183.554 98.4806C184.033 99.001 184.272 99.6931 184.272 100.557C184.272 101.431 184.033 102.129 183.554 102.649C183.086 103.169 182.456 103.43 181.665 103.43C180.874 103.43 180.239 103.169 179.76 102.649C179.292 102.129 179.058 101.431 179.058 100.557C179.058 99.6931 179.292 99.001 179.76 98.4806C180.239 97.9497 180.874 97.6843 181.665 97.6843ZM181.665 98.9177C181.269 98.9177 180.962 99.0634 180.744 99.3549C180.535 99.6359 180.431 100.037 180.431 100.557C180.431 101.077 180.535 101.483 180.744 101.775C180.962 102.066 181.269 102.212 181.665 102.212C182.071 102.212 182.378 102.066 182.586 101.775C182.804 101.483 182.914 101.077 182.914 100.557C182.914 100.037 182.804 99.6359 182.586 99.3549C182.378 99.0634 182.071 98.9177 181.665 98.9177Z" fill="url(#paint1_linear)"/>
<path d="M43.9669 157.031V148.132H47.4726C48.5422 148.132 49.3243 148.348 49.8187 148.78C50.3131 149.211 50.5603 149.809 50.5603 150.573C50.5603 151.04 50.4254 151.458 50.1558 151.827C49.8861 152.186 49.4906 152.416 48.9692 152.515V152.528C49.5445 152.627 49.9895 152.865 50.3041 153.243C50.6277 153.62 50.7895 154.061 50.7895 154.564C50.7895 155.328 50.5108 155.93 49.9535 156.371C49.3962 156.811 48.5872 157.031 47.5265 157.031H43.9669ZM45.3826 151.962H47.3647C48.4973 151.962 49.0636 151.526 49.0636 150.654C49.0636 149.782 48.4973 149.346 47.3647 149.346H45.3826V151.962ZM45.3826 155.831H47.5939C48.1602 155.831 48.5827 155.715 48.8614 155.481C49.149 155.247 49.2928 154.919 49.2928 154.497C49.2928 154.074 49.149 153.746 48.8614 153.512C48.5827 153.279 48.1602 153.162 47.5939 153.162H45.3826V155.831ZM55.6585 157.166C54.9843 157.166 54.391 157.027 53.8787 156.748C53.3753 156.47 52.9798 156.07 52.6921 155.548C52.4045 155.018 52.2606 154.389 52.2606 153.661C52.2606 152.933 52.4 152.308 52.6786 151.786C52.9663 151.256 53.3573 150.852 53.8517 150.573C54.3551 150.294 54.9304 150.155 55.5776 150.155C56.2338 150.155 56.7911 150.29 57.2495 150.559C57.7079 150.829 58.0585 151.198 58.3012 151.665C58.5439 152.133 58.6653 152.663 58.6653 153.256C58.6653 153.427 58.6608 153.584 58.6518 153.728C58.6428 153.872 58.6293 153.993 58.6113 154.092H53.6764C53.7393 154.721 53.9416 155.202 54.2832 155.535C54.6337 155.858 55.0832 156.02 55.6315 156.02C56.0809 156.02 56.445 155.935 56.7237 155.764C57.0023 155.593 57.2225 155.355 57.3843 155.049L58.5304 155.589C58.2967 156.083 57.9237 156.47 57.4113 156.748C56.9079 157.027 56.3236 157.166 55.6585 157.166ZM55.5506 151.301C55.0562 151.301 54.6472 151.445 54.3236 151.733C54.009 152.02 53.8067 152.438 53.7169 152.986H57.263C57.227 152.447 57.0562 152.034 56.7506 151.746C56.445 151.449 56.045 151.301 55.5506 151.301ZM64.6169 150.29V151.422H62.2978V155.009C62.2978 155.333 62.3877 155.575 62.5674 155.737C62.7472 155.89 62.9809 155.966 63.2686 155.966C63.5203 155.966 63.7315 155.93 63.9023 155.858C64.0821 155.778 64.2484 155.67 64.4012 155.535L64.7248 156.587C64.518 156.766 64.2619 156.91 63.9562 157.018C63.6596 157.117 63.327 157.166 62.9585 157.166C62.3652 157.166 61.8663 157.023 61.4618 156.735C61.0573 156.438 60.855 155.944 60.855 155.252V151.422H59.5606V150.29H60.855V148.712L62.2978 148.308V150.29H64.6169ZM68.6057 157.166C67.9315 157.166 67.3158 157.036 66.7585 156.775C66.2011 156.515 65.7607 156.146 65.4371 155.67L66.4349 154.807C66.6326 155.175 66.9158 155.472 67.2843 155.697C67.6618 155.912 68.1113 156.02 68.6327 156.02C69.0461 156.02 69.3742 155.948 69.6169 155.805C69.8596 155.661 69.981 155.458 69.981 155.198C69.981 155.027 69.9226 154.879 69.8057 154.753C69.6978 154.618 69.4866 154.515 69.172 154.443L67.7562 154.146C67.0371 154.002 66.5247 153.769 66.2191 153.445C65.9135 153.121 65.7607 152.717 65.7607 152.231C65.7607 151.863 65.8686 151.521 66.0843 151.207C66.309 150.892 66.6281 150.64 67.0416 150.452C67.4551 150.254 67.954 150.155 68.5383 150.155C69.2034 150.155 69.7742 150.276 70.2507 150.519C70.7361 150.753 71.1046 151.09 71.3563 151.53L70.3585 152.366C70.1787 152.007 69.9226 151.742 69.59 151.571C69.2664 151.391 68.9248 151.301 68.5652 151.301C68.1248 151.301 67.7832 151.382 67.5405 151.544C67.3068 151.697 67.1899 151.899 67.1899 152.151C67.1899 152.321 67.2573 152.479 67.3922 152.622C67.527 152.757 67.7697 152.861 68.1203 152.933L69.6574 153.256C70.3046 153.382 70.7585 153.598 71.0192 153.903C71.2889 154.2 71.4237 154.564 71.4237 154.996C71.4237 155.643 71.172 156.169 70.6686 156.573C70.1653 156.969 69.4776 157.166 68.6057 157.166ZM77.5653 159.863V150.29H78.8462L78.9136 151.557C79.1114 151.135 79.4125 150.798 79.817 150.546C80.2215 150.285 80.689 150.155 81.2193 150.155C81.7676 150.155 82.262 150.294 82.7025 150.573C83.1519 150.852 83.507 151.252 83.7677 151.773C84.0373 152.294 84.1722 152.919 84.1722 153.647C84.1722 154.384 84.0373 155.018 83.7677 155.548C83.498 156.07 83.1339 156.47 82.6755 156.748C82.2261 157.027 81.7272 157.166 81.1788 157.166C80.6755 157.166 80.2395 157.054 79.871 156.829C79.5024 156.596 79.2148 156.294 79.008 155.926V159.863H77.5653ZM80.8687 155.993C81.444 155.993 81.898 155.787 82.2306 155.373C82.5631 154.96 82.7294 154.389 82.7294 153.661C82.7294 152.933 82.5676 152.362 82.244 151.948C81.9204 151.526 81.471 151.315 80.8957 151.315C80.3294 151.315 79.871 151.526 79.5204 151.948C79.1788 152.371 79.008 152.942 79.008 153.661C79.008 154.371 79.1743 154.937 79.5069 155.36C79.8485 155.782 80.3024 155.993 80.8687 155.993ZM87.421 147.256V155.144C87.421 155.476 87.4795 155.706 87.5963 155.831C87.7132 155.957 87.9064 156.02 88.1761 156.02C88.3379 156.02 88.4727 156.011 88.5806 155.993C88.6975 155.966 88.8413 155.921 89.0121 155.858L88.8503 156.937C88.5357 157.09 88.1626 157.166 87.7311 157.166C87.1289 157.166 86.6839 157.014 86.3963 156.708C86.1176 156.402 85.9783 155.921 85.9783 155.265V147.256H87.421ZM94.1422 152.703C94.1422 152.254 94.0163 151.908 93.7647 151.665C93.522 151.413 93.1849 151.288 92.7534 151.288C92.3489 151.288 91.9983 151.382 91.7017 151.571C91.414 151.759 91.2073 152.065 91.0815 152.488L89.868 151.975C90.0387 151.427 90.3713 150.986 90.8657 150.654C91.3691 150.321 92.0163 150.155 92.8073 150.155C93.3377 150.155 93.8096 150.245 94.2231 150.425C94.6456 150.595 94.9737 150.861 95.2074 151.22C95.4501 151.571 95.5714 152.016 95.5714 152.555V155.562C95.5714 155.894 95.7377 156.061 96.0703 156.061C96.2321 156.061 96.3894 156.038 96.5422 155.993L96.4613 156.991C96.2546 157.09 95.9939 157.139 95.6793 157.139C95.3197 157.139 95.0096 157.058 94.7489 156.897C94.4883 156.735 94.313 156.492 94.2231 156.169C94.0074 156.501 93.6972 156.753 93.2927 156.924C92.8882 157.085 92.4837 157.166 92.0792 157.166C91.441 157.166 90.9107 157.014 90.4882 156.708C90.0657 156.402 89.8545 155.944 89.8545 155.333C89.8545 154.838 90.0163 154.429 90.3399 154.106C90.6725 153.782 91.1399 153.557 91.7421 153.431L94.1422 152.96V152.703ZM91.3107 155.225C91.3107 155.476 91.4051 155.679 91.5938 155.831C91.7916 155.975 92.0523 156.047 92.3759 156.047C92.6815 156.047 92.9691 155.998 93.2388 155.899C93.5085 155.8 93.7242 155.638 93.886 155.413C94.0568 155.189 94.1422 154.897 94.1422 154.537V153.971L92.4433 154.321C92.0568 154.393 91.7691 154.497 91.5803 154.631C91.4006 154.766 91.3107 154.964 91.3107 155.225ZM100.834 150.155C101.634 150.155 102.273 150.33 102.749 150.681C103.226 151.031 103.567 151.485 103.774 152.043L102.412 152.582C102.295 152.168 102.106 151.854 101.846 151.638C101.594 151.413 101.261 151.301 100.848 151.301C100.246 151.301 99.7738 151.508 99.4322 151.921C99.0996 152.326 98.9333 152.91 98.9333 153.674C98.9333 154.429 99.1041 155.009 99.4457 155.413C99.7873 155.818 100.255 156.02 100.848 156.02C101.315 156.02 101.684 155.908 101.954 155.683C102.232 155.458 102.417 155.135 102.506 154.712L103.814 155.157C103.626 155.769 103.279 156.258 102.776 156.627C102.273 156.987 101.639 157.166 100.875 157.166C100.21 157.166 99.621 157.027 99.1086 156.748C98.6052 156.47 98.2097 156.07 97.9221 155.548C97.6344 155.018 97.4906 154.389 97.4906 153.661C97.4906 152.933 97.6344 152.308 97.9221 151.786C98.2097 151.256 98.6052 150.852 99.1086 150.573C99.612 150.294 100.187 150.155 100.834 150.155ZM108.46 157.166C107.785 157.166 107.192 157.027 106.68 156.748C106.176 156.47 105.781 156.07 105.493 155.548C105.206 155.018 105.062 154.389 105.062 153.661C105.062 152.933 105.201 152.308 105.48 151.786C105.767 151.256 106.158 150.852 106.653 150.573C107.156 150.294 107.732 150.155 108.379 150.155C109.035 150.155 109.592 150.29 110.051 150.559C110.509 150.829 110.86 151.198 111.102 151.665C111.345 152.133 111.466 152.663 111.466 153.256C111.466 153.427 111.462 153.584 111.453 153.728C111.444 153.872 111.431 153.993 111.413 154.092H106.478C106.541 154.721 106.743 155.202 107.084 155.535C107.435 155.858 107.884 156.02 108.433 156.02C108.882 156.02 109.246 155.935 109.525 155.764C109.804 155.593 110.024 155.355 110.186 155.049L111.332 155.589C111.098 156.083 110.725 156.47 110.213 156.748C109.709 157.027 109.125 157.166 108.46 157.166ZM108.352 151.301C107.857 151.301 107.448 151.445 107.125 151.733C106.81 152.02 106.608 152.438 106.518 152.986H110.064C110.028 152.447 109.857 152.034 109.552 151.746C109.246 151.449 108.846 151.301 108.352 151.301ZM115.877 157.166C115.32 157.166 114.817 157.027 114.367 156.748C113.918 156.47 113.558 156.07 113.288 155.548C113.028 155.027 112.897 154.402 112.897 153.674C112.897 152.919 113.037 152.281 113.315 151.759C113.594 151.238 113.967 150.843 114.434 150.573C114.902 150.294 115.414 150.155 115.972 150.155C116.457 150.155 116.879 150.272 117.239 150.506C117.608 150.73 117.882 151.031 118.062 151.409V147.256H119.504V157.031H118.223L118.142 155.751C117.963 156.2 117.666 156.551 117.253 156.802C116.839 157.045 116.381 157.166 115.877 157.166ZM116.187 156.007C116.754 156.007 117.208 155.791 117.549 155.36C117.891 154.928 118.062 154.335 118.062 153.58C118.062 152.879 117.891 152.33 117.549 151.935C117.217 151.53 116.781 151.328 116.241 151.328C115.639 151.328 115.172 151.535 114.839 151.948C114.506 152.362 114.34 152.933 114.34 153.661C114.34 154.389 114.502 154.964 114.826 155.387C115.149 155.8 115.603 156.007 116.187 156.007Z" fill="white"/>
<path d="M44.2635 190.499V187.532C46.295 186.256 47.931 185.096 49.1715 184.053C50.4299 182.993 51.3468 182.004 51.9221 181.087C52.4974 180.17 52.785 179.298 52.785 178.471C52.785 177.788 52.5783 177.222 52.1648 176.772C51.7693 176.305 51.176 176.071 50.385 176.071C49.54 176.071 48.8748 176.386 48.3894 177.015C47.922 177.626 47.6793 178.525 47.6613 179.712L43.6972 178.498C43.7332 177.186 44.0478 176.08 44.6411 175.181C45.2523 174.265 46.0793 173.581 47.122 173.132C48.1647 172.664 49.3513 172.431 50.6816 172.431C52.2457 172.431 53.5221 172.718 54.5109 173.294C55.4997 173.851 56.2278 174.57 56.6952 175.451C57.1626 176.314 57.3963 177.213 57.3963 178.148C57.3963 179.874 56.7402 181.447 55.4278 182.867C54.1154 184.269 52.2547 185.662 49.8456 187.047V187.074C50.2951 187.038 50.8614 187.011 51.5446 186.993C52.2457 186.975 52.8749 186.966 53.4322 186.966H57.6121V190.499H44.2635ZM66.8267 190.768C64.9211 190.768 63.339 190.4 62.0806 189.663C60.8221 188.907 59.9412 187.811 59.4378 186.373L63.6986 184.539C63.8064 185.51 64.1121 186.193 64.6154 186.588C65.1368 186.984 65.811 187.182 66.638 187.182C67.375 187.182 67.9593 186.993 68.3908 186.615C68.8223 186.22 69.038 185.689 69.038 185.024C69.038 184.341 68.8313 183.847 68.4178 183.541C68.0043 183.235 67.42 183.083 66.6649 183.083C66.2334 183.083 65.793 183.11 65.3435 183.164V180.143C65.4874 180.161 65.6312 180.179 65.775 180.197C65.9188 180.197 66.0896 180.197 66.2874 180.197C67.1144 180.197 67.7166 180.026 68.0942 179.685C68.4717 179.325 68.6605 178.768 68.6605 178.013C68.6605 177.366 68.4717 176.871 68.0942 176.53C67.7346 176.188 67.2222 176.017 66.5571 176.017C65.8379 176.017 65.2537 176.206 64.8042 176.584C64.3727 176.961 64.0941 177.581 63.9682 178.444L59.8963 177.042C60.094 176.053 60.5165 175.217 61.1637 174.534C61.8109 173.851 62.6199 173.33 63.5907 172.97C64.5795 172.611 65.6671 172.431 66.8537 172.431C68.8852 172.431 70.4403 172.871 71.5189 173.752C72.6156 174.633 73.1639 175.82 73.1639 177.312C73.1639 178.085 73.0381 178.732 72.7864 179.253C72.5527 179.775 72.247 180.197 71.8695 180.521C71.51 180.844 71.1414 181.087 70.7639 181.249C70.3863 181.393 70.0717 181.483 69.82 181.519V181.599C70.1436 181.599 70.5122 181.662 70.9257 181.788C71.3392 181.914 71.7437 182.121 72.1392 182.408C72.5347 182.696 72.8583 183.083 73.11 183.568C73.3797 184.035 73.5145 184.629 73.5145 185.348C73.5145 186.463 73.2179 187.424 72.6246 188.233C72.0493 189.042 71.2583 189.672 70.2515 190.121C69.2447 190.552 68.1031 190.768 66.8267 190.768ZM84.3796 190.499V172.7H93.0359C95.2292 172.7 96.8472 173.114 97.8899 173.941C98.9327 174.768 99.454 175.954 99.454 177.501C99.454 178.507 99.1574 179.379 98.5641 180.116C97.9708 180.853 97.063 181.312 95.8405 181.492V181.519C97.2068 181.698 98.2225 182.175 98.8877 182.948C99.5709 183.703 99.9125 184.62 99.9125 185.698C99.9125 187.227 99.3641 188.413 98.2675 189.258C97.1888 190.085 95.5798 190.499 93.4404 190.499H84.3796ZM88.8561 179.981H92.2269C93.8809 179.981 94.7079 179.334 94.7079 178.04C94.7079 176.745 93.8809 176.098 92.2269 176.098H88.8561V179.981ZM88.8561 187.236H92.6584C94.3303 187.236 95.1663 186.57 95.1663 185.24C95.1663 183.946 94.3303 183.298 92.6584 183.298H88.8561V187.236ZM109.07 190.768C106.823 190.768 105.043 190.157 103.731 188.934C102.436 187.712 101.789 185.986 101.789 183.757C101.789 182.283 102.086 181.024 102.679 179.981C103.29 178.921 104.117 178.121 105.16 177.581C106.221 177.024 107.452 176.745 108.854 176.745C110.275 176.745 111.479 177.024 112.468 177.581C113.475 178.121 114.239 178.876 114.76 179.847C115.282 180.799 115.542 181.896 115.542 183.137C115.542 183.478 115.524 183.811 115.488 184.134C115.47 184.44 115.452 184.701 115.434 184.916H106.239C106.365 185.851 106.67 186.525 107.156 186.939C107.641 187.334 108.279 187.532 109.07 187.532C109.753 187.532 110.293 187.397 110.688 187.128C111.102 186.858 111.407 186.48 111.605 185.995L115.273 187.209C115.021 187.982 114.58 188.638 113.951 189.177C113.34 189.699 112.603 190.094 111.74 190.364C110.895 190.633 110.005 190.768 109.07 190.768ZM108.854 179.955C107.398 179.955 106.535 180.79 106.266 182.462H111.201C111.003 180.79 110.221 179.955 108.854 179.955ZM127.603 177.015V180.278H123.585V185.698C123.585 186.346 123.738 186.813 124.043 187.101C124.367 187.37 124.807 187.505 125.365 187.505C125.796 187.505 126.165 187.46 126.47 187.37C126.776 187.263 127.064 187.11 127.333 186.912L127.819 189.743C127.369 190.049 126.794 190.301 126.093 190.499C125.41 190.678 124.717 190.768 124.016 190.768C122.47 190.768 121.248 190.445 120.349 189.797C119.468 189.132 119.018 188.018 119.001 186.454V180.278H116.681V177.015H119.001V173.995L123.585 172.727V177.015H127.603ZM135.383 190.768C134.035 190.768 132.786 190.552 131.635 190.121C130.485 189.672 129.523 189.033 128.75 188.206L130.907 185.671C131.356 186.247 131.95 186.732 132.687 187.128C133.442 187.505 134.278 187.694 135.195 187.694C135.752 187.694 136.21 187.613 136.57 187.451C136.93 187.289 137.109 187.038 137.109 186.696C137.109 186.463 137.019 186.265 136.84 186.103C136.66 185.941 136.3 185.806 135.761 185.698L133.873 185.321C132.183 184.979 130.979 184.476 130.26 183.811C129.559 183.128 129.208 182.238 129.208 181.141C129.208 180.404 129.433 179.703 129.882 179.038C130.332 178.372 131.024 177.824 131.959 177.393C132.894 176.961 134.089 176.745 135.545 176.745C138.332 176.745 140.363 177.519 141.64 179.065L139.455 181.546C139.024 181.006 138.467 180.584 137.784 180.278C137.1 179.972 136.417 179.82 135.734 179.82C134.422 179.82 133.765 180.152 133.765 180.817C133.765 181.051 133.873 181.258 134.089 181.438C134.323 181.617 134.745 181.761 135.357 181.869L137.81 182.355C139.195 182.624 140.193 183.092 140.804 183.757C141.415 184.404 141.721 185.195 141.721 186.13C141.721 187.442 141.19 188.548 140.13 189.447C139.087 190.328 137.505 190.768 135.383 190.768Z" fill="white"/>
<rect x="155.333" y="169.767" width="54.6432" height="23.4185" rx="3.90309" fill="#1CC760" fill-opacity="0.1"/>
<path d="M167.791 181.06V182.45H164.685V185.713H163.233V182.45H160.11V181.06H163.233V177.813H164.685V181.06H167.791ZM171.705 186.743V179.671C171.705 179.473 171.705 179.259 171.705 179.03C171.716 178.801 171.726 178.562 171.737 178.312C171.383 178.656 170.977 178.952 170.519 179.202C170.061 179.442 169.598 179.613 169.129 179.717L168.817 178.265C169.025 178.234 169.275 178.161 169.567 178.047C169.868 177.932 170.175 177.787 170.488 177.61C170.8 177.433 171.086 177.245 171.346 177.048C171.607 176.839 171.81 176.637 171.955 176.439H173.36V186.743H171.705ZM181.425 186.743V176.439H185.484C186.723 176.439 187.628 176.689 188.201 177.188C188.773 177.688 189.059 178.38 189.059 179.265C189.059 179.806 188.903 180.29 188.591 180.717C188.279 181.133 187.821 181.398 187.217 181.513V181.528C187.883 181.643 188.398 181.919 188.763 182.356C189.137 182.793 189.325 183.303 189.325 183.886C189.325 184.771 189.002 185.468 188.357 185.978C187.711 186.488 186.775 186.743 185.546 186.743H181.425ZM183.064 180.873H185.359C186.671 180.873 187.326 180.368 187.326 179.358C187.326 178.349 186.671 177.844 185.359 177.844H183.064V180.873ZM183.064 185.353H185.625C186.28 185.353 186.769 185.218 187.092 184.947C187.425 184.677 187.592 184.297 187.592 183.808C187.592 183.319 187.425 182.939 187.092 182.668C186.769 182.397 186.28 182.262 185.625 182.262H183.064V185.353ZM194.962 186.899C194.182 186.899 193.495 186.738 192.902 186.415C192.319 186.092 191.861 185.629 191.528 185.026C191.195 184.411 191.028 183.683 191.028 182.84C191.028 181.997 191.189 181.273 191.512 180.67C191.845 180.056 192.298 179.587 192.87 179.265C193.453 178.942 194.119 178.781 194.869 178.781C195.629 178.781 196.274 178.937 196.805 179.249C197.335 179.561 197.741 179.988 198.022 180.529C198.303 181.07 198.444 181.685 198.444 182.371C198.444 182.569 198.439 182.751 198.428 182.918C198.418 183.084 198.402 183.225 198.382 183.339H192.667C192.74 184.068 192.974 184.625 193.37 185.01C193.776 185.385 194.296 185.572 194.931 185.572C195.452 185.572 195.873 185.473 196.196 185.275C196.518 185.078 196.773 184.802 196.961 184.448L198.288 185.072C198.017 185.645 197.585 186.092 196.992 186.415C196.409 186.738 195.733 186.899 194.962 186.899ZM194.838 180.108C194.265 180.108 193.791 180.274 193.417 180.607C193.052 180.94 192.818 181.424 192.714 182.059H196.82C196.779 181.435 196.581 180.956 196.227 180.623C195.873 180.279 195.41 180.108 194.838 180.108ZM205.335 178.937V180.248H202.65V184.401C202.65 184.776 202.754 185.057 202.962 185.244C203.17 185.421 203.441 185.51 203.774 185.51C204.066 185.51 204.31 185.468 204.508 185.385C204.716 185.291 204.909 185.166 205.086 185.01L205.46 186.228C205.221 186.436 204.924 186.602 204.57 186.727C204.227 186.842 203.842 186.899 203.415 186.899C202.728 186.899 202.15 186.733 201.682 186.399C201.214 186.056 200.979 185.484 200.979 184.682V180.248H199.481V178.937H200.979V177.11L202.65 176.642V178.937H205.335Z" fill="url(#paint2_linear)"/>
</g>
<circle cx="13.438" cy="116.807" r="13.4379" transform="rotate(90 13.438 116.807)" fill="#23252D"/>
<path d="M14.5576 112.327L10.0783 116.807L14.5576 121.286" stroke="white" stroke-width="2.06738" stroke-linecap="round" stroke-linejoin="round"/>
<circle r="13.4379" transform="matrix(4.37114e-08 1 1 -4.37114e-08 569.562 116.807)" fill="#23252D"/>
<path d="M568.442 112.327L572.922 116.807L568.442 121.286" stroke="white" stroke-width="2.06738" stroke-linecap="round" stroke-linejoin="round"/>
<defs>
<filter id="filter0_dd" x="345.581" y="-5.02151" width="224.674" height="224.674" filterUnits="userSpaceOnUse" color-interpolation-filters="sRGB">
<feFlood flood-opacity="0" result="BackgroundImageFix"/>
<feColorMatrix in="SourceAlpha" type="matrix" values="0 0 0 0 0 0 0 0 0 0 0 0 0 0 0 0 0 0 127 0" result="hardAlpha"/>
<feOffset/>
<feGaussianBlur stdDeviation="10.7589"/>
<feColorMatrix type="matrix" values="0 0 0 0 0.813334 0 0 0 0 0.0666667 0 0 0 0 1 0 0 0 1 0"/>
<feBlend mode="normal" in2="BackgroundImageFix" result="effect1_dropShadow"/>
<feColorMatrix in="SourceAlpha" type="matrix" values="0 0 0 0 0 0 0 0 0 0 0 0 0 0 0 0 0 0 127 0" result="hardAlpha"/>
<feOffset dy="3.44284"/>
<feGaussianBlur stdDeviation="6.88567"/>
<feColorMatrix type="matrix" values="0 0 0 0 0 0 0 0 0 0 0 0 0 0 0 0 0 0 0.8 0"/>
<feBlend mode="normal" in2="effect1_dropShadow" result="effect2_dropShadow"/>
<feBlend mode="normal" in="SourceGraphic" in2="effect2_dropShadow" result="shape"/>
</filter>
<linearGradient id="paint0_linear" x1="548.422" y1="119.242" x2="291.001" y2="119.241" gradientUnits="userSpaceOnUse">
<stop stop-color="#3C43DF"/>
<stop offset="0.346407" stop-color="#4932CF"/>
<stop offset="1" stop-color="#6112B0"/>
</linearGradient>
<linearGradient id="paint1_linear" x1="182.615" y1="91.1496" x2="127.604" y2="93.6017" gradientUnits="userSpaceOnUse">
<stop stop-color="#4AD681"/>
<stop offset="1" stop-color="#28CD39"/>
</linearGradient>
<linearGradient id="paint2_linear" x1="203.569" y1="174.619" x2="158.014" y2="176.299" gradientUnits="userSpaceOnUse">
<stop stop-color="#4AD681"/>
<stop offset="1" stop-color="#28CD39"/>
</linearGradient>
<clipPath id="clip0">
<rect width="556.124" height="233.613" fill="white" transform="translate(13.438)"/>
</clipPath>
</defs>
</svg>
