<svg width="27" height="27" viewBox="0 0 27 27" fill="none" xmlns="http://www.w3.org/2000/svg">
<path fill-rule="evenodd" clip-rule="evenodd" d="M3.68784 13.0002H9.30484C9.48998 13.0018 9.66821 12.93 9.80053 12.8004C9.93284 12.6709 10.0085 12.4943 10.0108 12.3091V8.00916H10.9939V8.00015H12.0278V8.00916C12.2098 8.01903 12.3906 7.97488 12.5475 7.88226C12.7044 7.78965 12.8305 7.6527 12.9098 7.48865C12.9891 7.32459 13.0181 7.14074 12.9932 6.96024C12.9683 6.77973 12.8906 6.61061 12.7698 6.47415L7.36184 0.383148C7.25235 0.262485 7.11884 0.166083 6.96986 0.100098C6.82089 0.0341125 6.65977 0 6.49683 0C6.3339 0 6.17278 0.0341125 6.02381 0.100098C5.87484 0.166083 5.74132 0.262485 5.63184 0.383148L0.223836 6.47415C0.106082 6.61089 0.0309451 6.77912 0.00769922 6.95807C-0.0155467 7.13702 0.0141161 7.31885 0.0930264 7.48114C0.171937 7.64343 0.29664 7.77908 0.451745 7.87131C0.60685 7.96354 0.785567 8.00832 0.965837 8.00015H2.99384V12.3091C2.99618 12.4922 3.07015 12.6671 3.19988 12.7962C3.3296 12.9254 3.50478 12.9986 3.68784 13.0002ZM2.9939 6.70001C2.99386 6.70306 2.99384 6.70611 2.99384 6.70917V8.00015H2.9939V6.70001ZM14.6828 12.0002H20.2988V12.0092C20.4836 12.0105 20.6604 12.0848 20.7906 12.2159C20.9208 12.3471 20.9938 12.5244 20.9938 12.7092V16.0092H20.9939V16.9951H23.0218C23.2036 16.9855 23.3842 17.0297 23.5409 17.1223C23.6976 17.2149 23.8235 17.3516 23.9028 17.5155C23.982 17.6794 24.0111 17.863 23.9864 18.0433C23.9617 18.2236 23.8843 18.3927 23.7638 18.5291L23.7628 18.5211L18.3548 24.6122C18.2451 24.7324 18.1115 24.8284 17.9626 24.8942C17.8136 24.9599 17.6526 24.9938 17.4898 24.9938C17.327 24.9938 17.166 24.9599 17.0171 24.8942C16.8682 24.8284 16.7346 24.7324 16.6248 24.6122L11.2168 18.5211C11.0991 18.3844 11.0239 18.2162 11.0007 18.0372C10.9775 17.8583 11.0071 17.6764 11.086 17.5142C11.1649 17.3519 11.2896 17.2163 11.4447 17.124C11.5998 17.0318 11.7786 16.987 11.9588 16.9951H13.9828V17.0092H13.9939V16.9951H13.9828V12.6942C13.9844 12.5095 14.0589 12.333 14.19 12.2031C14.3211 12.0731 14.4982 12.0001 14.6828 12.0002Z" fill="url(#paint0_linear)"/>
<defs>
<linearGradient id="paint0_linear" x1="11.9975" y1="0" x2="11.9975" y2="24.9939" gradientUnits="userSpaceOnUse">
<stop stop-color="#A23BB8"/>
<stop offset="1" stop-color="#774BBD"/>
</linearGradient>
</defs>
</svg>
