<svg width="25" height="24" viewBox="0 0 25 24" fill="none" xmlns="http://www.w3.org/2000/svg">
<g clip-path="url(#clip0)">
<path d="M12.5 0C5.8736 0 0.5 5.3736 0.5 12C0.5 18.6264 5.8736 24 12.5 24C19.1264 24 24.5 18.6264 24.5 12C24.5 5.3736 19.1264 0 12.5 0Z" fill="black"/>
<path d="M9.01256 7C11.5048 7 13.525 9.03428 13.525 11.5435C13.525 14.0528 11.5046 16.0869 9.01256 16.0869C6.52049 16.0869 4.5 14.0528 4.5 11.5435C4.5 9.03428 6.52033 7 9.01256 7ZM16.2188 7.26615C17.4649 7.26615 18.4751 9.181 18.4751 11.5435H18.4752C18.4752 13.9054 17.4651 15.8209 16.2189 15.8209C14.9728 15.8209 13.9627 13.9054 13.9627 11.5435C13.9627 9.18162 14.9727 7.26615 16.2188 7.26615ZM19.7065 7.71167C20.1446 7.71167 20.5 9.42722 20.5 11.5435C20.5 13.6592 20.1448 15.3754 19.7065 15.3754C19.2681 15.3754 18.9131 13.6597 18.9131 11.5435C18.9131 9.42737 19.2683 7.71167 19.7065 7.71167Z" fill="white"/>
</g>
<defs>
<clipPath id="clip0">
<rect width="24" height="24" fill="white" transform="translate(0.5)"/>
</clipPath>
</defs>
</svg>
