<svg width="25" height="24" viewBox="0 0 25 24" fill="none" xmlns="http://www.w3.org/2000/svg">
<g clip-path="url(#clip0)">
<path d="M12.5 24C19.129 24 24.5 18.629 24.5 12C24.5 5.371 19.129 0 12.5 0C5.871 0 0.5 5.371 0.5 12C0.5 18.629 5.871 24 12.5 24Z" fill="url(#paint0_linear)"/>
<path d="M4.58133 12.6018C6.10125 11.8242 7.7979 11.1752 9.38317 10.5228C12.1104 9.45439 14.8486 8.40446 17.6143 7.42699C18.1524 7.26044 19.1193 7.09756 19.2141 7.83824C19.1622 8.88666 18.9486 9.92894 18.8021 10.9712C18.4303 13.2633 18.0006 15.5475 17.5816 17.832C17.4372 18.593 16.4108 18.9869 15.7541 18.4999C14.1759 17.5098 12.5856 16.5293 11.0275 15.5162C10.5171 15.0345 10.9904 14.3428 11.4462 13.9988C12.7461 12.809 14.1246 11.7981 15.3566 10.5468C15.6889 9.80148 14.707 10.4296 14.3831 10.6221C12.6036 11.7611 10.8676 12.9696 8.99143 13.9707C8.03307 14.4606 6.91609 14.0419 5.95817 13.7685C5.09927 13.4382 3.84076 13.1054 4.58133 12.6018Z" fill="white"/>
</g>
<defs>
<linearGradient id="paint0_linear" x1="9.5014" y1="1.0008" x2="3.5014" y2="15" gradientUnits="userSpaceOnUse">
<stop stop-color="#37AEE2"/>
<stop offset="1" stop-color="#1E96C8"/>
</linearGradient>
<clipPath id="clip0">
<rect width="24" height="24" fill="white" transform="translate(0.5)"/>
</clipPath>
</defs>
</svg>
