<svg width="16" height="16" viewBox="0 0 16 16" fill="none" xmlns="http://www.w3.org/2000/svg">
<g clip-path="url(#clip0_3002:3068)">
<path d="M10.812 0.5C10.0123 0.555312 9.07764 1.06719 8.53295 1.73375C8.03608 2.33844 7.62732 3.23656 7.7867 4.10938C8.66045 4.13656 9.56327 3.6125 10.0864 2.93469C10.5758 2.30375 10.9461 1.41125 10.812 0.5Z" fill="white"/>
<path d="M13.9723 5.53229C13.2045 4.56949 12.1255 4.01074 11.1064 4.01074C9.7611 4.01074 9.19204 4.6548 8.25735 4.6548C7.29361 4.6548 6.56143 4.01262 5.39799 4.01262C4.25519 4.01262 3.03832 4.71105 2.26676 5.90541C1.18208 7.58727 1.36771 10.7494 3.12551 13.4429C3.75457 14.4066 4.59456 15.4903 5.69331 15.4997C6.67111 15.5091 6.94674 14.8725 8.27142 14.866C9.5961 14.8585 9.84734 15.5081 10.8233 15.4978C11.923 15.4894 12.8089 14.2885 13.4379 13.3247C13.8889 12.6338 14.0567 12.286 14.4064 11.506C11.863 10.5376 11.4551 6.92072 13.9723 5.53229Z" fill="white"/>
</g>
<defs>
<clipPath id="clip0_3002:3068">
<rect width="15" height="15" fill="white" transform="translate(0.5 0.5)"/>
</clipPath>
</defs>
</svg>
