<svg width="18" height="18" viewBox="0 0 18 18" fill="none" xmlns="http://www.w3.org/2000/svg">
<path fill-rule="evenodd" clip-rule="evenodd" d="M9 1.75C4.99594 1.75 1.75 4.99594 1.75 9C1.75 13.0041 4.99594 16.25 9 16.25C13.0041 16.25 16.25 13.0041 16.25 9C16.25 4.99594 13.0041 1.75 9 1.75ZM0.25 9C0.25 4.16751 4.16751 0.25 9 0.25C13.8325 0.25 17.75 4.16751 17.75 9C17.75 13.8325 13.8325 17.75 9 17.75C4.16751 17.75 0.25 13.8325 0.25 9Z" fill="white"/>
<path fill-rule="evenodd" clip-rule="evenodd" d="M8.46967 5.26968C8.76256 4.97679 9.23744 4.97679 9.53033 5.26968L12.7303 8.46968C13.0232 8.76258 13.0232 9.23745 12.7303 9.53034L9.53033 12.7303C9.23744 13.0232 8.76256 13.0232 8.46967 12.7303C8.17678 12.4375 8.17678 11.9626 8.46967 11.6697L11.1393 9.00001L8.46967 6.33034C8.17678 6.03745 8.17678 5.56258 8.46967 5.26968Z" fill="white"/>
<path fill-rule="evenodd" clip-rule="evenodd" d="M5.05022 9C5.05022 8.58579 5.38601 8.25 5.80022 8.25H12.2002C12.6144 8.25 12.9502 8.58579 12.9502 9C12.9502 9.41421 12.6144 9.75 12.2002 9.75H5.80022C5.38601 9.75 5.05022 9.41421 5.05022 9Z" fill="white"/>
</svg>
