<svg width="24" height="24" viewBox="0 0 24 24" fill="none" xmlns="http://www.w3.org/2000/svg">
<path fill-rule="evenodd" clip-rule="evenodd" d="M3.29289 21.6777C2.90237 21.2872 2.90237 20.654 3.29289 20.2635L20.2635 3.29291C20.654 2.90239 21.2871 2.90239 21.6777 3.29291C22.0682 3.68344 22.0682 4.3166 21.6777 4.70713L4.70711 21.6777C4.31658 22.0682 3.68342 22.0682 3.29289 21.6777Z" fill="white"/>
<path fill-rule="evenodd" clip-rule="evenodd" d="M3.29289 3.29289C3.68342 2.90237 4.31658 2.90237 4.70711 3.29289L21.6777 20.2635C22.0682 20.654 22.0682 21.2871 21.6777 21.6777C21.2871 22.0682 20.654 22.0682 20.2635 21.6777L3.29289 4.70711C2.90237 4.31658 2.90237 3.68342 3.29289 3.29289Z" fill="white"/>
</svg>
