<svg width="14" height="14" viewBox="0 0 14 14" fill="none" xmlns="http://www.w3.org/2000/svg">
<path fill-rule="evenodd" clip-rule="evenodd" d="M9 1H2C1.44772 1 1 1.44772 1 2V9C1 9.55228 1.44772 10 2 10H9C9.55228 10 10 9.55228 10 9V2C10 1.44772 9.55228 1 9 1ZM2 0C0.895431 0 0 0.895431 0 2V9C0 10.1046 0.895431 11 2 11H9C10.1046 11 11 10.1046 11 9V2C11 0.895431 10.1046 0 9 0H2Z" fill="white"/>
<path fill-rule="evenodd" clip-rule="evenodd" d="M13 2.5C13.2761 2.5 13.5 2.72386 13.5 3V10C13.5 11.933 11.933 13.5 10 13.5H2C1.72386 13.5 1.5 13.2761 1.5 13C1.5 12.7239 1.72386 12.5 2 12.5H10C11.3807 12.5 12.5 11.3807 12.5 10V3C12.5 2.72386 12.7239 2.5 13 2.5Z" fill="white"/>
</svg>
