<svg width="20" height="21" viewBox="0 0 20 21" fill="none" xmlns="http://www.w3.org/2000/svg">
<path d="M6.26601 8.4613H3.4493C3.32429 8.4613 3.223 8.56264 3.223 8.6876V17.7365C3.223 17.8615 3.32429 17.9628 3.4493 17.9628H6.26601C6.39102 17.9628 6.49232 17.8615 6.49232 17.7365V8.6876C6.49232 8.56264 6.39102 8.4613 6.26601 8.4613Z" fill="white"/>
<path d="M4.85868 3.96289C3.83379 3.96289 3 4.79578 3 5.81953C3 6.84374 3.83379 7.67694 4.85868 7.67694C5.88275 7.67694 6.71586 6.84369 6.71586 5.81953C6.71591 4.79578 5.88275 3.96289 4.85868 3.96289Z" fill="white"/>
<path d="M13.4305 8.23643C12.2992 8.23643 11.463 8.72276 10.9557 9.27535V8.68763C10.9557 8.56267 10.8544 8.46133 10.7294 8.46133H8.03192C7.90691 8.46133 7.80561 8.56267 7.80561 8.68763V17.7365C7.80561 17.8616 7.90691 17.9628 8.03192 17.9628H10.8425C10.9675 17.9628 11.0688 17.8616 11.0688 17.7365V13.2594C11.0688 11.7508 11.4786 11.163 12.5302 11.163C13.6756 11.163 13.7666 12.1052 13.7666 13.3371V17.7366C13.7666 17.8616 13.8679 17.9629 13.9929 17.9629H16.8045C16.9295 17.9629 17.0308 17.8616 17.0308 17.7366V12.7731C17.0308 10.5297 16.6031 8.23643 13.4305 8.23643Z" fill="white"/>
</svg>
