<svg width="11" height="12" viewBox="0 0 11 12" fill="none" xmlns="http://www.w3.org/2000/svg">
<path d="M10.1703 5.69319C10.0111 5.53409 9.81804 5.45459 9.59066 5.45459H9.31809V3.81814C9.31809 2.7727 8.9432 1.87505 8.19316 1.12505C7.44319 0.375017 6.54563 0 5.50004 0C4.45449 0 3.55675 0.375017 2.80684 1.12502C2.0568 1.87505 1.68191 2.77267 1.68191 3.81814V5.45459H1.40922C1.18202 5.45459 0.988798 5.53409 0.829692 5.69319C0.670587 5.85218 0.591064 6.0454 0.591064 6.27281V11.1818C0.591064 11.409 0.670617 11.6023 0.829692 11.7615C0.988798 11.9204 1.18202 12 1.40922 12H9.59087C9.81824 12 10.0113 11.9205 10.1705 11.7615C10.3294 11.6023 10.4091 11.409 10.4091 11.1818V6.27272C10.4092 6.04549 10.3294 5.8523 10.1703 5.69319ZM7.68182 5.45459H3.31827V3.81814C3.31827 3.2159 3.53138 2.70166 3.9575 2.27559C4.38368 1.84947 4.89783 1.63646 5.50013 1.63646C6.10249 1.63646 6.61653 1.84944 7.04274 2.27559C7.46874 2.70163 7.68182 3.2159 7.68182 3.81814V5.45459Z" fill="white"/>
</svg>
