<svg width="20" height="21" viewBox="0 0 20 21" fill="none" xmlns="http://www.w3.org/2000/svg">
<path d="M1.2885 10.6758L5.05203 12.0587L6.50874 16.6707C6.60195 16.9661 6.96886 17.0753 7.21239 16.8793L9.31024 15.1956C9.53014 15.0192 9.84336 15.0104 10.0732 15.1747L13.857 17.8791C14.1175 18.0655 14.4866 17.925 14.5519 17.6151L17.3237 4.4892C17.395 4.15067 17.0571 3.86826 16.7297 3.99293L1.28409 9.85883C0.902919 10.0036 0.90624 10.5348 1.2885 10.6758ZM6.27398 11.3226L13.6293 6.86277C13.7615 6.78285 13.8975 6.95882 13.784 7.06248L7.71371 12.6175C7.50034 12.813 7.36271 13.0747 7.32372 13.3587L7.11694 14.8673C7.08956 15.0687 6.80215 15.0887 6.74569 14.8937L5.95042 12.1428C5.85933 11.829 5.99207 11.4939 6.27398 11.3226Z" fill="white"/>
</svg>
