<svg width="20" height="21" viewBox="0 0 20 21" fill="none" xmlns="http://www.w3.org/2000/svg">
<path d="M18.2308 5.62028C17.59 5.90135 16.9072 6.08766 16.1954 6.17812C16.9277 5.74089 17.4866 5.05381 17.7494 4.22566C17.0666 4.63274 16.3128 4.92028 15.5094 5.08074C14.8611 4.39043 13.9371 3.96289 12.9291 3.96289C10.9734 3.96289 9.39892 5.55028 9.39892 7.49628C9.39892 7.77628 9.42262 8.04551 9.48077 8.30181C6.544 8.15858 3.94538 6.75104 2.19969 4.60689C1.89492 5.13566 1.71615 5.74089 1.71615 6.39243C1.71615 7.61581 2.34615 8.70028 3.28523 9.32812C2.71769 9.31735 2.16092 9.15258 1.68923 8.89304C1.68923 8.90381 1.68923 8.91781 1.68923 8.93181C1.68923 10.6484 2.91369 12.0743 4.51938 12.4027C4.23185 12.4814 3.91846 12.519 3.59323 12.519C3.36708 12.519 3.13877 12.5061 2.92446 12.4587C3.38215 13.8577 4.68092 14.8861 6.22523 14.9195C5.02339 15.8597 3.49738 16.4261 1.84538 16.4261C1.55569 16.4261 1.27785 16.4132 1 16.3777C2.56477 17.3867 4.41923 17.9629 6.41908 17.9629C12.9194 17.9629 16.4732 12.5783 16.4732 7.91089C16.4732 7.75474 16.4678 7.60397 16.4603 7.45428C17.1614 6.95674 17.7505 6.33535 18.2308 5.62028Z" fill="white"/>
</svg>
