<svg width="16" height="16" viewBox="0 0 16 16" fill="none" xmlns="http://www.w3.org/2000/svg">
<path fill-rule="evenodd" clip-rule="evenodd" d="M7.96594 1.33347C4.29886 1.35182 1.33337 4.32865 1.33337 8.00005C1.33337 11.6828 4.31726 14.6667 8.00004 14.6667C11.6828 14.6667 14.6667 11.6828 14.6667 8.00005C14.6667 4.32865 11.7012 1.35182 8.03414 1.33347C8.02279 1.33324 8.01142 1.33313 8.00004 1.33313C7.98866 1.33313 7.97729 1.33324 7.96594 1.33347ZM10.3334 7.9998C10.3334 8.52176 10.3011 9.02413 10.2416 9.4998H5.7585C5.69899 9.02413 5.66671 8.52176 5.66671 7.9998C5.66671 7.47783 5.69899 6.97546 5.7585 6.4998H10.2416C10.3011 6.97546 10.3334 7.47783 10.3334 7.9998ZM11.2487 6.4998C11.3041 6.9819 11.3334 7.48399 11.3334 7.9998C11.3334 8.5156 11.3041 9.01769 11.2487 9.4998H13.4663C13.5969 9.02214 13.6667 8.51927 13.6667 8.00005C13.6667 7.48065 13.5969 6.97761 13.4661 6.4998H11.2487ZM13.0871 5.4998H11.0912C10.8663 4.3881 10.4959 3.42551 10.0271 2.70646C11.3651 3.21888 12.459 4.2239 13.0871 5.4998ZM10.0689 5.4998H5.93122C6.08227 4.82384 6.29072 4.22576 6.53728 3.73264C7.07744 2.65231 7.64168 2.34399 7.98187 2.33341L8.00004 2.33339L8.01821 2.33341C8.3584 2.34399 8.92264 2.65231 9.4628 3.73264C9.70936 4.22576 9.91781 4.82384 10.0689 5.4998ZM4.90887 5.4998C5.13378 4.3881 5.50423 3.42551 5.97301 2.70645C4.63498 3.21888 3.54108 4.22389 2.91303 5.4998H4.90887ZM2.53396 6.4998C2.40319 6.97761 2.33337 7.48065 2.33337 8.00005C2.33337 8.51927 2.40314 9.02214 2.53382 9.4998H4.75137C4.69597 9.01769 4.66671 8.5156 4.66671 7.9998C4.66671 7.48399 4.69597 6.9819 4.75137 6.4998H2.53396ZM6.53728 12.267C6.29072 11.7738 6.08227 11.1758 5.93122 10.4998H10.0689C9.91781 11.1758 9.70936 11.7738 9.4628 12.267C8.9129 13.3668 8.33805 13.6665 8.00004 13.6665C7.66203 13.6665 7.08718 13.3668 6.53728 12.267ZM4.90887 10.4998H2.91277C3.54086 11.7761 4.63504 12.7814 5.97346 13.2938C5.50446 12.5747 5.13385 11.6118 4.90887 10.4998ZM13.0873 10.4998H11.0912C10.8662 11.6118 10.4956 12.5747 10.0266 13.2938C11.365 12.7814 12.4592 11.7761 13.0873 10.4998Z" fill="white"/>
</svg>
