<svg width="34" height="34" viewBox="0 0 34 34" fill="none" xmlns="http://www.w3.org/2000/svg">
<path fill-rule="evenodd" clip-rule="evenodd" d="M24.0709 24.0711C27.9761 20.1658 27.9761 13.8342 24.0709 9.92893C20.1656 6.02369 13.834 6.02369 9.92873 9.92893C6.02349 13.8342 6.02349 20.1658 9.92873 24.0711C13.834 27.9763 20.1656 27.9763 24.0709 24.0711ZM12.7572 14.1716C12.3666 13.781 12.3666 13.1479 12.7572 12.7574C13.1477 12.3668 13.7809 12.3668 14.1714 12.7574L16.2927 14.8787C16.6832 15.2692 17.3164 15.2692 17.7069 14.8787L19.8282 12.7574C20.2188 12.3668 20.8519 12.3668 21.2424 12.7574C21.633 13.1479 21.633 13.781 21.2424 14.1716L19.1211 16.2929C18.7306 16.6834 18.7306 17.3166 19.1211 17.7071L21.2424 19.8284C21.633 20.219 21.633 20.8521 21.2424 21.2426C20.8519 21.6332 20.2188 21.6332 19.8282 21.2426L17.7069 19.1213C17.3164 18.7308 16.6832 18.7308 16.2927 19.1213L14.1714 21.2426C13.7808 21.6332 13.1477 21.6332 12.7572 21.2426C12.3666 20.8521 12.3666 20.219 12.7572 19.8284L14.8785 17.7071C15.269 17.3166 15.269 16.6834 14.8785 16.2929L12.7572 14.1716Z" fill="white"/>
</svg>
