<?xml version="1.0" encoding="UTF-8"?>
<svg version="1.1" xmlns="http://www.w3.org/2000/svg" xmlns:xlink="http://www.w3.org/1999/xlink">
<defs>
<linearGradient id="paint0_linear" x1="167.154" y1="13.492" x2="150.791" y2="29.777" gradientUnits="userSpaceOnUse"><stop stop-color="#00A0FF"/><stop offset=".007" stop-color="#00A1FF"/><stop offset=".26" stop-color="#00BEFF"/><stop offset=".512" stop-color="#00D2FF"/><stop offset=".76" stop-color="#00DFFF"/><stop offset="1" stop-color="#00E3FF"/></linearGradient><linearGradient id="paint1_linear" x1="178.832" y1="24.502" x2="155.352" y2="24.502" gradientUnits="userSpaceOnUse"><stop stop-color="#FFE000"/><stop offset=".409" stop-color="#FFBD00"/><stop offset=".775" stop-color="orange"/><stop offset="1" stop-color="#FF9C00"/></linearGradient><linearGradient id="paint2_linear" x1="170.091" y1="26.739" x2="147.902" y2="48.823" gradientUnits="userSpaceOnUse"><stop stop-color="#FF3A44"/><stop offset="1" stop-color="#C31162"/></linearGradient><linearGradient id="paint3_linear" x1="153.081" y1="5.172" x2="162.989" y2="15.033" gradientUnits="userSpaceOnUse"><stop stop-color="#32A071"/><stop offset=".069" stop-color="#2DA771"/><stop offset=".476" stop-color="#15CF74"/><stop offset=".801" stop-color="#06E775"/><stop offset="1" stop-color="#00F076"/></linearGradient>
</defs>
<symbol id="i-advisor" viewBox="0 0 96 21" fill="none" xmlns="http://www.w3.org/2000/svg"><path d="M.458 2.23L95.164.463l-1.176 19.979H1.34L.458 2.229z" fill="#FF453A"/><path d="M9.974 16.327l-.598 2.442c-2.311.08-3.792.073-4.443-.025C7.447 7.351 8.729 1.581 8.778 1.434c.317-.008.63-.02.94-.036a64.104 64.104 0 011.867-.024c.692 0 1.319.008 1.88.024.301.016.61.028.928.037.049.146 1.29 5.916 3.723 17.31-.968.097-2.409.105-4.321.024l-.513-2.466-3.308.024zm2.197-4.224l-.586-2.416-.598 2.453c.432-.008.826-.02 1.184-.037zm11.072 1.038c.212.977.802 1.563 1.77 1.758.895-.008 1.502-.313 1.819-.916.22-.545.26-1.135.122-1.77-.244-1.139-.977-1.709-2.197-1.709-1.001.155-1.518.631-1.55 1.429-.074.35-.062.752.036 1.208zm4.053 4.675c-.79.61-1.717.92-2.783.928-1.514.008-2.877-.59-4.09-1.794-.74-.904-1.253-2.027-1.538-3.37-.512-2.416-.065-4.39 1.343-5.92.814-.887 2.112-1.416 3.894-1.587 1.034-.008 1.95.244 2.747.757l-.013-5.554c2.084-.057 3.785-.065 5.103-.025l-.574 17.53c-1.994.065-3.345.06-4.053-.012a39.99 39.99 0 01-.036-.953zm12.463 1.014c-.667 0-1.265-.008-1.794-.025l-.891-.024c-.05-.106-1.315-4.15-3.797-12.134.619-.073 2.072-.138 4.358-.195l2.124 6.457 2.112-6.457c1.823.057 3.276.122 4.358.195-2.482 7.983-3.748 12.028-3.796 12.134l-.88.024c-.536.017-1.134.025-1.794.025zm7.288-12.195c1.847-.05 3.353-.053 4.517-.012L51.05 18.78c-1.758.057-2.95.053-3.577-.012-.301-7.984-.443-12.028-.427-12.134zm2.38-5.64c1.774-.057 2.564.733 2.368 2.368-.195 1.628-1.02 2.421-2.478 2.38-1.456-.04-2.246-.825-2.368-2.355-.122-1.538.704-2.336 2.478-2.393zm6.836 12.879c1.506.48 2.275.842 2.307 1.086.033.236-.35.37-1.147.403-.79.024-1.84-.411-3.15-1.306a97.67 97.67 0 01-1.83 2.221c1.594 1.734 3.356 2.576 5.285 2.527 1.855.073 3.194-.289 4.016-1.086.83-.806 1.111-1.86.842-3.162-.268-1.31-1.188-2.226-2.758-2.747-1.563-.528-2.389-.874-2.478-1.037-.082-.163.199-.285.842-.366.643-.09 1.326.105 2.05.586l2.43-2.637c-1.335-1.18-2.89-1.766-4.663-1.758-1.904.163-3.292.68-4.163 1.55-.748 1.001-.907 2.084-.476 3.248.431 1.163 1.396 1.99 2.893 2.477zm13.44-7.8c1.864-.009 3.385.654 4.566 1.989.691.749 1.139 1.554 1.342 2.417.375 2.083.041 4.073-1 5.97-1.107 1.521-2.597 2.286-4.468 2.294-1.693.008-3.219-.59-4.578-1.794-.822-.904-1.392-2.027-1.709-3.37-.57-2.416-.07-4.39 1.501-5.92.912-.887 2.36-1.416 4.346-1.587zm-1.27 7.067c.212.977.802 1.563 1.77 1.758.896-.008 1.502-.313 1.82-.916.22-.545.26-1.135.121-1.77-.244-1.139-.976-1.709-2.197-1.709-1 .155-1.517.631-1.55 1.429-.073.35-.061.752.037 1.208zm16.773-2.124c-.252-.26-.643-.431-1.172-.513-1.22 0-1.953.57-2.197 1.71-.033.162-.029 2.372.012 6.628l-4.59.049-.427-12.757c1.318-.04 3.02-.032 5.103.025.008.024.004.248-.013.671.798-.513 1.713-.765 2.747-.757 1.318.122 2.368.444 3.15.965l-2.613 3.98z" fill="#fff"/></symbol>
<symbol id="i-badges" viewBox="0 0 282 49" fill="none" xmlns="http://www.w3.org/2000/svg"><path d="M272.148 5H150.852C148.172 5 146 7.183 146 9.875v29.25c0 2.693 2.172 4.876 4.852 4.876h121.296c2.679 0 4.852-2.183 4.852-4.876V9.875C277 7.183 274.827 5 272.148 5z" fill="#000"/><path d="M192.013 14.987a2.637 2.637 0 01-.723 1.953 2.821 2.821 0 01-2.139.866 2.981 2.981 0 01-2.153-.888 3.036 3.036 0 01-.872-2.168 3.035 3.035 0 01.873-2.167 2.985 2.985 0 012.152-.889 2.99 2.99 0 011.195.245 2.4 2.4 0 01.911.654l-.512.515a1.962 1.962 0 00-1.594-.694 2.238 2.238 0 00-1.625.684 2.278 2.278 0 00-.636 1.652 2.304 2.304 0 001.383 2.15 2.279 2.279 0 002.504-.466c.299-.324.472-.744.488-1.185h-2.114v-.703h2.821c.027.146.04.293.041.441zM196.485 12.544h-2.651V14.4h2.391v.703h-2.391v1.854h2.651v.72h-3.399v-5.85h3.399v.718zM199.64 17.675h-.748v-5.13h-1.626v-.72h4.001v.72h-1.627v5.13zM204.161 17.675v-5.85h.748v5.85h-.748zM208.229 17.675h-.748v-5.13h-1.627v-.72h4.001v.72h-1.626v5.13zM217.428 16.919a3.013 3.013 0 01-4.269 0 2.99 2.99 0 01-.857-2.169 3.01 3.01 0 01.857-2.169 3.011 3.011 0 012.134-.887 2.999 2.999 0 012.781 1.886c.148.372.22.77.212 1.17a3.01 3.01 0 01-.858 2.169zm-3.716-.49a2.23 2.23 0 003.163 0 2.305 2.305 0 00.647-1.679 2.298 2.298 0 00-.647-1.68 2.235 2.235 0 00-3.163 0 2.292 2.292 0 00-.647 1.68 2.297 2.297 0 00.647 1.68zM219.336 17.675v-5.85h.911l2.829 4.551h.032l-.032-1.127v-3.424h.749v5.85h-.781l-2.96-4.771h-.033l.033 1.127v3.644h-.748zM212.117 26.208a4.115 4.115 0 00-2.289.707 4.14 4.14 0 00-1.513 1.864 4.152 4.152 0 00.905 4.514 4.118 4.118 0 004.495.892 4.13 4.13 0 001.85-1.528 4.16 4.16 0 00.695-2.302 4.098 4.098 0 00-2.55-3.852 4.048 4.048 0 00-1.593-.295zm0 6.66a2.51 2.51 0 01-2.441-1.426 2.526 2.526 0 011.708-3.544 2.497 2.497 0 012.627 1.039c.283.418.435.912.435 1.418a2.405 2.405 0 01-1.407 2.303c-.29.131-.604.203-.922.21zm-9.038-6.66a4.11 4.11 0 00-2.288.707 4.142 4.142 0 00-1.514 1.864 4.165 4.165 0 00.905 4.514 4.11 4.11 0 004.496.892 4.134 4.134 0 001.85-1.528 4.167 4.167 0 00.694-2.302 4.091 4.091 0 00-2.549-3.852 4.05 4.05 0 00-1.594-.295zm0 6.66a2.5 2.5 0 01-2.44-1.426 2.525 2.525 0 01.427-2.804 2.503 2.503 0 012.753-.628 2.525 2.525 0 011.59 2.345 2.41 2.41 0 01-1.407 2.303 2.379 2.379 0 01-.923.21zm-10.75-5.388v1.76h4.189a3.678 3.678 0 01-.953 2.215 4.274 4.274 0 01-3.236 1.288 4.648 4.648 0 01-3.254-1.394 4.693 4.693 0 01-1.342-3.287c0-1.231.482-2.412 1.342-3.288a4.648 4.648 0 013.254-1.393 4.455 4.455 0 013.158 1.256l1.235-1.24a6.105 6.105 0 00-4.393-1.776 6.386 6.386 0 00-4.593 1.853 6.445 6.445 0 00-1.911 4.588 6.468 6.468 0 001.911 4.587 6.406 6.406 0 004.593 1.853 5.835 5.835 0 004.471-1.806 5.83 5.83 0 001.516-4.116 5.71 5.71 0 00-.094-1.1h-5.893zm43.966 1.367a3.855 3.855 0 00-1.353-1.88 3.823 3.823 0 00-2.181-.759 3.905 3.905 0 00-2.828 1.237 3.946 3.946 0 00-1.064 2.91 4.06 4.06 0 002.512 3.847 4.019 4.019 0 001.584.3c.68.004 1.35-.162 1.95-.483.6-.32 1.112-.786 1.489-1.355l-1.407-.942a2.349 2.349 0 01-2.032 1.147 2.09 2.09 0 01-2.001-1.257l5.518-2.294-.187-.471zm-5.628 1.382a2.28 2.28 0 011.289-2.202c.272-.13.567-.203.868-.217a1.594 1.594 0 011.532.88l-3.689 1.54zm-4.487 4.022h1.813V22.06h-1.813v12.19zm-2.97-7.116h-.063a2.862 2.862 0 00-2.173-.927 4.123 4.123 0 00-2.807 1.275 4.16 4.16 0 00-1.148 2.872c0 1.07.411 2.1 1.148 2.872a4.124 4.124 0 002.807 1.275 2.8 2.8 0 002.173-.943h.063v.597c0 1.587-.845 2.435-2.205 2.435a2.276 2.276 0 01-1.263-.42 2.3 2.3 0 01-.816-1.056l-1.579.66a3.95 3.95 0 001.457 1.786 3.916 3.916 0 002.201.664c2.126 0 3.924-1.257 3.924-4.32v-7.446h-1.719v.676zm-2.08 5.733a2.507 2.507 0 01-1.636-.806 2.532 2.532 0 010-3.413 2.508 2.508 0 011.636-.807 2.318 2.318 0 011.637.794 2.34 2.34 0 01.568 1.735 2.327 2.327 0 01-1.31 2.275c-.28.134-.585.21-.895.222zm23.659-10.807h-4.339v12.19h1.811v-4.619h2.528a3.751 3.751 0 002.801-1.032 3.799 3.799 0 001.179-2.753 3.803 3.803 0 00-1.179-2.753 3.771 3.771 0 00-2.801-1.033zm.047 5.875h-2.575v-4.178h2.575a2.077 2.077 0 011.96 1.28c.108.256.162.531.162.81a2.083 2.083 0 01-.624 1.492 2.084 2.084 0 01-1.498.596zm11.19-1.75a3.39 3.39 0 00-3.231 1.866l1.608.674a1.717 1.717 0 011.654-.894 1.75 1.75 0 011.904 1.568v.126a3.99 3.99 0 00-1.888-.47c-1.732 0-3.496.956-3.496 2.744a2.824 2.824 0 00.941 1.98 2.802 2.802 0 002.071.701 2.558 2.558 0 002.31-1.192h.062v.941h1.748v-4.673c0-2.164-1.607-3.371-3.683-3.371zm-.219 6.68c-.593 0-1.42-.298-1.42-1.035 0-.94 1.03-1.302 1.92-1.302a3.212 3.212 0 011.654.408 2.21 2.21 0 01-.717 1.37 2.189 2.189 0 01-1.437.559zm10.269-6.414l-2.075 5.285h-.062l-2.155-5.285h-1.95l3.23 7.386-1.841 4.109h1.888l4.979-11.495h-2.014zm-16.309 7.799h1.811V22.06h-1.811v12.19z" fill="#fff"/><path d="M156.126 12.35a1.963 1.963 0 00-.449 1.37v21.563c-.03.498.131.988.449 1.37l.072.07 12.022-12.08v-.284l-12.022-12.08-.072.07z" fill="url(#paint0_linear)"/><path d="M172.227 28.672l-4.007-4.028v-.285l4.008-4.027.09.052 4.748 2.71c1.356.774 1.356 2.041 0 2.816l-4.748 2.71-.091.052z" fill="url(#paint1_linear)"/><path d="M172.318 28.62L168.22 24.5l-12.094 12.152a1.573 1.573 0 002.017.06l14.175-8.093z" fill="url(#paint2_linear)"/><path d="M172.318 20.383l-14.175-8.093a1.575 1.575 0 00-2.017.06L168.22 24.5l4.098-4.118z" fill="url(#paint3_linear)"/><path opacity=".2" d="M172.228 28.53l-14.085 8.04a1.615 1.615 0 01-1.945.01l-.072.073.072.07a1.611 1.611 0 001.945-.01l14.175-8.093-.09-.09z" fill="#000"/><path opacity=".12" d="M156.126 36.51a1.963 1.963 0 01-.449-1.369v.143c-.029.497.131.987.449 1.37l.073-.073-.073-.07zM177.066 25.767l-4.838 2.762.09.09 4.748-2.71a1.706 1.706 0 001.017-1.407 1.814 1.814 0 01-1.017 1.265z" fill="#000"/><path opacity=".25" d="M158.143 12.433l18.924 10.803a1.815 1.815 0 011.017 1.265 1.717 1.717 0 00-1.017-1.407L158.143 12.29c-1.356-.774-2.465-.13-2.465 1.43v.143c0-1.561 1.109-2.204 2.465-1.43z" fill="#fff"/><path d="M140.902 40.09a3.91 3.91 0 01-3.914 3.91H8.918A3.914 3.914 0 015 40.09V8.915A3.92 3.92 0 018.919 5h128.068a3.914 3.914 0 013.914 3.914l.001 31.177z" fill="#000"/><path d="M34.844 24.285c-.03-3.29 2.694-4.89 2.818-4.964-1.542-2.249-3.933-2.556-4.773-2.58-2.008-.212-3.955 1.2-4.978 1.2-1.043 0-2.618-1.18-4.316-1.146-2.184.034-4.227 1.299-5.348 3.263-2.313 4.004-.588 9.889 1.628 13.125 1.108 1.585 2.404 3.355 4.1 3.293 1.658-.068 2.277-1.057 4.28-1.057 1.982 0 2.564 1.057 4.293 1.017 1.78-.028 2.901-1.592 3.97-3.191 1.282-1.817 1.796-3.607 1.817-3.699-.042-.014-3.457-1.317-3.491-5.26zM31.578 14.611c.892-1.115 1.502-2.633 1.333-4.174-1.292.058-2.906.894-3.836 1.985-.823.961-1.558 2.537-1.368 4.02 1.45.108 2.94-.732 3.87-1.83zM58.849 36.249H56.53l-1.27-3.99h-4.414l-1.21 3.99h-2.256l4.373-13.584h2.7l4.395 13.584zm-3.97-5.664l-1.15-3.547c-.12-.363-.348-1.216-.684-2.56h-.04c-.135.579-.35 1.432-.646 2.56l-1.128 3.547h3.647zM70.094 31.23c0 1.667-.45 2.983-1.35 3.95-.807.86-1.808 1.29-3.004 1.29-1.29 0-2.217-.463-2.781-1.39h-.041v5.16h-2.176V29.678a67.07 67.07 0 00-.08-3.224h1.913l.121 1.552h.041c.726-1.17 1.827-1.753 3.305-1.753 1.156 0 2.12.456 2.892 1.37.774.914 1.16 2.116 1.16 3.608zm-2.217.08c0-.953-.215-1.739-.645-2.357-.471-.646-1.103-.968-1.895-.968-.537 0-1.025.18-1.46.534a2.476 2.476 0 00-.857 1.401c-.067.27-.101.49-.101.664v1.633c0 .712.218 1.314.655 1.805.437.49 1.005.735 1.703.735.82 0 1.457-.316 1.914-.947.457-.632.686-1.465.686-2.5zM81.36 31.23c0 1.667-.45 2.983-1.352 3.95-.805.86-1.807 1.29-3.002 1.29-1.29 0-2.217-.463-2.78-1.39h-.041v5.16h-2.177V29.678a67.07 67.07 0 00-.08-3.224h1.914l.121 1.552h.04c.726-1.17 1.827-1.753 3.306-1.753 1.154 0 2.12.456 2.893 1.37.77.914 1.157 2.116 1.157 3.608zm-2.218.08c0-.953-.215-1.739-.646-2.357-.47-.646-1.1-.968-1.893-.968-.538 0-1.025.18-1.462.534a2.474 2.474 0 00-.855 1.401c-.067.27-.101.49-.101.664v1.633c0 .712.218 1.314.653 1.805.437.49 1.004.735 1.705.735.82 0 1.457-.316 1.913-.947.458-.632.686-1.465.686-2.5zM93.956 32.44c0 1.155-.402 2.095-1.207 2.82-.885.794-2.117 1.19-3.7 1.19-1.462 0-2.634-.282-3.52-.846l.504-1.814a5.966 5.966 0 003.145.867c.82 0 1.458-.185 1.916-.555.457-.37.684-.865.684-1.484 0-.551-.188-1.016-.564-1.392-.375-.377-1-.727-1.874-1.05-2.379-.888-3.567-2.187-3.567-3.896 0-1.116.417-2.032 1.25-2.745.832-.713 1.94-1.07 3.326-1.07 1.236 0 2.263.216 3.083.646l-.544 1.774c-.766-.417-1.631-.625-2.6-.625-.766 0-1.364.19-1.792.565a1.613 1.613 0 00-.544 1.23c0 .537.207.98.623 1.33.363.322 1.02.671 1.976 1.048 1.17.47 2.028 1.02 2.58 1.651.55.63.825 1.416.825 2.355zM101.151 28.087h-2.399v4.756c0 1.21.423 1.814 1.27 1.814.389 0 .711-.034.966-.101l.061 1.652c-.429.16-.994.241-1.693.241-.86 0-1.53-.262-2.016-.786-.483-.525-.725-1.404-.725-2.64v-4.938h-1.43v-1.633h1.43v-1.794l2.137-.645v2.439h2.399v1.635zM111.974 31.27c0 1.506-.431 2.742-1.29 3.709-.902.995-2.098 1.491-3.589 1.491-1.438 0-2.582-.477-3.435-1.43-.853-.953-1.28-2.157-1.28-3.607 0-1.518.439-2.761 1.32-3.728.879-.967 2.065-1.451 3.556-1.451 1.437 0 2.594.476 3.466 1.43.835.926 1.252 2.122 1.252 3.586zm-2.258.071c0-.903-.193-1.678-.584-2.324-.456-.782-1.109-1.172-1.954-1.172-.874 0-1.539.39-1.995 1.172-.391.647-.584 1.434-.584 2.365 0 .903.193 1.678.584 2.323.47.782 1.128 1.172 1.976 1.172.831 0 1.483-.398 1.954-1.192.401-.659.603-1.442.603-2.344zM119.047 28.368a3.776 3.776 0 00-.686-.06c-.765 0-1.357.288-1.774.867-.362.51-.544 1.155-.544 1.934v5.14h-2.175l.02-6.71a53.38 53.38 0 00-.081-3.084h1.895l.08 1.874h.06c.23-.644.592-1.163 1.088-1.552a2.633 2.633 0 011.573-.524c.201 0 .383.014.544.04v2.075zM128.78 30.888c0 .39-.026.718-.08.987h-6.528c.025.967.341 1.707.947 2.218.55.456 1.262.685 2.135.685.967 0 1.849-.154 2.642-.464l.341 1.51c-.927.405-2.021.606-3.284.606-1.519 0-2.711-.447-3.578-1.34-.866-.893-1.3-2.093-1.3-3.597 0-1.477.403-2.707 1.211-3.688.845-1.047 1.987-1.57 3.424-1.57 1.412 0 2.481.523 3.206 1.57.575.832.864 1.86.864 3.083zm-2.075-.565c.014-.645-.128-1.202-.423-1.673-.376-.605-.955-.907-1.734-.907-.711 0-1.29.295-1.732.887-.363.47-.578 1.035-.644 1.692h4.533v.001zM54.158 14.308c0 1.202-.36 2.106-1.08 2.713-.666.56-1.614.841-2.84.841-.609 0-1.13-.026-1.565-.08v-6.564c.568-.091 1.18-.138 1.842-.138 1.169 0 2.05.254 2.644.762.666.575 1 1.396 1 2.466zm-1.128.03c0-.78-.206-1.376-.618-1.793-.413-.415-1.015-.623-1.808-.623-.337 0-.624.022-.861.07v4.99c.131.02.372.029.722.029.819 0 1.45-.228 1.896-.683.445-.455.67-1.118.67-1.99zM60.139 15.357c0 .74-.212 1.346-.634 1.822-.443.489-1.03.733-1.763.733-.706 0-1.269-.234-1.688-.703-.419-.469-.628-1.06-.628-1.772 0-.745.215-1.357.648-1.832.433-.474 1.015-.712 1.747-.712.707 0 1.274.234 1.704.702.408.456.614 1.043.614 1.762zm-1.11.035c0-.444-.096-.825-.287-1.142-.224-.384-.544-.576-.96-.576-.43 0-.756.192-.98.576-.192.317-.287.704-.287 1.161 0 .444.096.825.287 1.142.231.384.554.576.97.576.409 0 .73-.195.96-.586.198-.323.297-.707.297-1.151zM68.157 12.992l-1.505 4.811h-.98l-.624-2.09a15.663 15.663 0 01-.387-1.554h-.02a11.391 11.391 0 01-.386 1.555l-.663 2.09h-.99l-1.416-4.812h1.099l.544 2.287c.132.54.24 1.056.327 1.544h.019c.08-.402.211-.914.397-1.534l.683-2.296h.872l.654 2.247c.158.548.287 1.076.386 1.584h.03c.072-.495.181-1.023.326-1.584l.584-2.248h1.05zM73.703 17.803h-1.07v-2.756c0-.85-.322-1.274-.97-1.274a.965.965 0 00-.772.35c-.197.234-.297.51-.297.825v2.854h-1.07v-3.436c0-.422-.013-.88-.039-1.377h.94l.05.752h.03c.125-.233.31-.426.554-.58.29-.18.615-.27.97-.27.45 0 .823.144 1.12.435.37.356.554.888.554 1.594v2.883zM76.654 17.803h-1.069v-7.02h1.069v7.02zM82.951 15.357c0 .74-.211 1.346-.634 1.822-.443.489-1.03.733-1.763.733-.707 0-1.27-.234-1.688-.703-.418-.469-.628-1.06-.628-1.772 0-.745.216-1.357.648-1.832.433-.474 1.015-.712 1.747-.712.707 0 1.274.234 1.705.702.408.456.613 1.043.613 1.762zm-1.11.035c0-.444-.096-.825-.287-1.142-.224-.384-.544-.576-.959-.576-.43 0-.757.192-.98.576-.193.317-.288.704-.288 1.161 0 .444.096.825.287 1.142.232.384.554.576.97.576.41 0 .729-.195.96-.586.198-.323.296-.707.296-1.151zM88.128 17.803h-.96l-.08-.555h-.03c-.328.442-.797.664-1.405.664-.455 0-.822-.146-1.099-.436a1.367 1.367 0 01-.376-.98c0-.588.245-1.036.738-1.346.492-.31 1.184-.463 2.075-.455v-.09c0-.634-.333-.95-1-.95-.474 0-.893.119-1.254.356l-.217-.702c.447-.277.999-.416 1.65-.416 1.258 0 1.888.663 1.888 1.99v1.773c0 .48.024.863.07 1.147zm-1.11-1.654v-.742c-1.18-.02-1.77.303-1.77.97 0 .25.067.439.205.564a.749.749 0 00.522.188c.235 0 .455-.074.654-.222a.911.911 0 00.388-.758zM94.207 17.803h-.95l-.05-.773h-.03c-.303.588-.819.882-1.545.882-.58 0-1.062-.227-1.445-.683-.383-.455-.574-1.046-.574-1.772 0-.779.207-1.41.624-1.891.403-.45.897-.674 1.485-.674.646 0 1.098.218 1.356.654h.02v-2.763h1.07v5.724c0 .468.013.9.039 1.296zm-1.109-2.03v-.801a1.218 1.218 0 00-.416-.985 1.051 1.051 0 00-.716-.263c-.4 0-.711.158-.941.476-.228.317-.343.723-.343 1.218 0 .475.11.861.329 1.158.231.316.544.475.935.475.35 0 .632-.132.845-.396.206-.244.307-.538.307-.881zM103.355 15.357c0 .74-.211 1.346-.634 1.822-.443.489-1.028.733-1.762.733-.706 0-1.268-.234-1.689-.703-.418-.469-.627-1.06-.627-1.772 0-.745.215-1.357.648-1.832.433-.474 1.014-.712 1.748-.712.706 0 1.274.234 1.703.702.408.456.613 1.043.613 1.762zm-1.108.035c0-.444-.096-.825-.287-1.142-.226-.384-.544-.576-.961-.576-.428 0-.755.192-.98.576-.192.317-.287.704-.287 1.161 0 .444.096.825.287 1.142.231.384.554.576.97.576.409 0 .73-.195.961-.586.197-.323.297-.707.297-1.151zM109.107 17.803h-1.068v-2.756c0-.85-.323-1.274-.971-1.274a.962.962 0 00-.772.35c-.198.234-.297.51-.297.825v2.854h-1.071v-3.436c0-.422-.012-.88-.037-1.377h.939l.05.752h.029c.126-.233.312-.426.555-.58.29-.18.614-.27.97-.27.448 0 .822.144 1.119.435.371.356.554.888.554 1.594v2.883zM116.306 13.793h-1.178v2.337c0 .594.209.891.623.891.192 0 .351-.016.477-.05l.027.812c-.211.08-.488.119-.83.119-.423 0-.752-.129-.989-.386-.239-.257-.358-.69-.358-1.297v-2.426h-.703v-.802h.703v-.882l1.049-.316v1.197h1.177v.803h.002zM121.969 17.803h-1.071v-2.736c0-.862-.322-1.294-.969-1.294-.496 0-.834.25-1.02.75-.032.106-.05.234-.05.385v2.894h-1.069v-7.019h1.069v2.9h.02c.337-.527.82-.79 1.446-.79.443 0 .809.144 1.1.435.362.363.544.901.544 1.614v2.861zM127.811 15.17c0 .192-.014.353-.04.485h-3.208c.014.475.168.838.465 1.089.271.224.621.337 1.05.337a3.54 3.54 0 001.297-.228l.168.743c-.457.198-.994.297-1.615.297-.745 0-1.332-.22-1.757-.658-.427-.44-.638-1.028-.638-1.767 0-.726.197-1.33.594-1.812.415-.514.975-.772 1.682-.772.692 0 1.218.258 1.573.772.287.408.429.913.429 1.514zm-1.021-.277a1.433 1.433 0 00-.207-.822c-.186-.297-.468-.446-.851-.446-.349 0-.634.145-.851.436a1.619 1.619 0 00-.318.832h2.227z" fill="#fff"/></symbol>
<symbol id="i-chart" viewBox="0 0 600 371" fill="none" stroke-linecap="square" stroke-miterlimit="10" xmlns="http://www.w3.org/2000/svg"><path fill="#fff" d="M0 0h600v371H0V0z"/><path fill="#4285f4" d="M300 18.55c72.327 0 136.429 46.572 158.779 115.36L300 185.5z"/><path fill="#ea4335" d="M458.779 133.91a166.95 166.95 0 01-23.714 149.72L300 185.5z"/><path fill="#7baaf7" d="M248.41 26.721A166.95 166.95 0 01300 18.55V185.5z"/><path fill="#46bdc6" d="M164.935 87.37A166.95 166.95 0 01248.41 26.72L300 185.5z"/><path fill="#ff6d01" d="M141.221 133.91a166.95 166.95 0 0123.714-46.54L300 185.5z"/><path fill="#34a853" d="M164.935 283.63a166.95 166.95 0 01-23.714-149.72L300 185.5z"/><path fill="#fbbc04" d="M435.065 283.63a166.95 166.95 0 01-270.13 0L300 185.5z"/><path fill="#1a1a1a" d="M25.113 20.956h1.14v4.969q0 1.297-.297 2.063-.297.75-1.062 1.234-.766.469-2 .469-1.203 0-1.985-.407-.765-.421-1.093-1.203-.328-.797-.328-2.156v-4.969h1.14v4.953q0 1.125.203 1.657.219.53.719.828.516.281 1.25.281 1.25 0 1.781-.563.532-.578.532-2.203v-4.953zm2.812 6.735l1.031-.157q.094.625.485.954.406.328 1.14.328.719 0 1.063-.282.36-.296.36-.703 0-.36-.313-.562-.22-.14-1.078-.36-1.157-.296-1.61-.5-.437-.218-.672-.593-.234-.375-.234-.844 0-.406.187-.766.188-.36.516-.593.25-.172.672-.297.422-.125.922-.125.719 0 1.265.218.563.204.828.563.266.36.36.953l-1.031.14q-.063-.468-.407-.734-.328-.281-.953-.281-.718 0-1.031.25-.313.234-.313.563 0 .203.126.359.14.172.406.281.156.063.937.266 1.125.312 1.563.5.437.187.687.547.25.359.25.906 0 .531-.312 1-.297.453-.875.719-.578.25-1.313.25-1.218 0-1.86-.5-.624-.516-.796-1.5zm11.672-.141l1.094.125q-.25.953-.954 1.484-.703.532-1.78.532-1.36 0-2.173-.844-.797-.844-.797-2.36 0-1.562.813-2.421.813-.875 2.094-.875 1.25 0 2.031.843.797.844.797 2.391v.281h-4.64q.062 1.032.577 1.578.516.532 1.297.532.578 0 .985-.297.421-.313.656-.969zm-3.453-1.703h3.468q-.062-.797-.39-1.188-.516-.609-1.313-.609-.734 0-1.234.484-.484.485-.531 1.313zm6.187 3.703v-6.219h.953v.938q.36-.656.657-.86.312-.218.687-.218.531 0 1.078.328l-.36.984q-.39-.234-.765-.234-.36 0-.64.219-.266.203-.375.578-.188.562-.188 1.218v3.266h-1.047zm7.016-7.375v-1.219h1.062v1.219h-1.062zm0 7.375v-6.219h1.062v6.219h-1.062zm3 0v-6.219h.937v.875q.688-1.015 1.985-1.015.562 0 1.031.203.484.203.719.531.234.328.328.766.047.297.047 1.03v3.829h-1.047v-3.781q0-.656-.125-.969-.125-.313-.438-.5-.312-.203-.734-.203-.672 0-1.172.437-.484.422-.484 1.61v3.406h-1.047zm11.062-2.281l1.032.14q-.172 1.063-.875 1.672-.704.61-1.72.61-1.28 0-2.062-.828-.765-.844-.765-2.407 0-1 .328-1.75.344-.765 1.015-1.14.688-.375 1.5-.375 1 0 1.641.515.656.5.844 1.453l-1.031.157q-.141-.625-.516-.938-.375-.328-.906-.328-.797 0-1.297.578-.5.563-.5 1.797 0 1.266.484 1.828.485.563 1.25.563.625 0 1.031-.375.422-.375.547-1.172zm6.188.281l1.094.125q-.25.953-.954 1.484-.703.532-1.78.532-1.36 0-2.173-.844-.797-.844-.797-2.36 0-1.562.813-2.421.813-.875 2.094-.875 1.25 0 2.031.843.797.844.797 2.391v.281h-4.64q.062 1.032.577 1.578.516.532 1.297.532.578 0 .985-.297.421-.313.656-.969zm-3.453-1.703h3.468q-.062-.797-.39-1.188-.516-.609-1.313-.609-.734 0-1.234.484-.484.485-.531 1.313zm6.203 3.703v-6.219h.937v.875q.688-1.015 1.985-1.015.562 0 1.031.203.484.203.719.531.234.328.328.766.047.297.047 1.03v3.829h-1.047v-3.781q0-.656-.125-.969-.125-.313-.438-.5-.312-.203-.734-.203-.672 0-1.172.437-.484.422-.484 1.61v3.406h-1.047zm9.297-.938l.156.922q-.453.094-.797.094-.578 0-.89-.172-.313-.187-.454-.484-.125-.297-.125-1.25v-3.578h-.765v-.813h.765v-1.547l1.047-.625v2.172h1.063v.813H80.58v3.64q0 .454.047.579.063.125.188.203.125.078.359.078.188 0 .469-.031zm.703-6.437v-1.219h1.062v1.219h-1.062zm0 7.375v-6.219h1.062v6.219h-1.062zm4.719 0l-2.36-6.219h1.11l1.343 3.719q.203.61.391 1.25.14-.484.39-1.172l1.391-3.797h1.078L88.05 29.55h-.984zm7.53-2l1.095.125q-.25.953-.954 1.484-.703.532-1.78.532-1.36 0-2.173-.844-.797-.844-.797-2.36 0-1.562.813-2.421.813-.875 2.094-.875 1.25 0 2.031.843.797.844.797 2.391v.281h-4.64q.062 1.032.577 1.578.516.532 1.297.532.578 0 .985-.297.421-.313.656-.969zm-3.452-1.703h3.468q-.062-.797-.39-1.188-.516-.609-1.313-.609-.734 0-1.234.484-.484.485-.531 1.313z"/><path fill="#9e9e9e" d="M19.05 44.3l1.11-.094q.124.813.562 1.219.453.406 1.094.406.75 0 1.28-.578.532-.578.532-1.516 0-.906-.515-1.421-.5-.532-1.329-.532-.5 0-.921.235-.407.234-.641.593l-.985-.125.829-4.406h4.28v1H20.91l-.453 2.313q.766-.547 1.61-.547 1.125 0 1.89.781.782.781.782 2.016 0 1.156-.672 2.015-.828 1.032-2.25 1.032-1.172 0-1.922-.657-.735-.656-.844-1.734zm7.563 2.25v-1.203h1.203v1.203q0 .656-.235 1.063-.234.421-.734.64l-.297-.453q.328-.14.484-.438.157-.28.188-.812h-.61zm2.437-4.234q0-1.532.313-2.454.312-.937.921-1.437.625-.5 1.563-.5.687 0 1.203.281.531.281.875.813.344.515.531 1.265.188.75.188 2.032 0 1.515-.313 2.437-.297.922-.922 1.438-.609.5-1.562.5-1.235 0-1.953-.891-.844-1.063-.844-3.484zm1.078 0q0 2.109.5 2.812.5.703 1.219.703.734 0 1.219-.703.5-.703.5-2.812 0-2.125-.5-2.813-.485-.703-1.235-.703-.718 0-1.156.61-.547.78-.547 2.906zm6.125-2.297q0-.922.453-1.563.469-.64 1.344-.64.813 0 1.344.578.531.578.531 1.687 0 1.094-.547 1.688-.531.578-1.312.578-.782 0-1.297-.578-.516-.578-.516-1.75zm1.828-1.485q-.39 0-.656.344-.25.344-.25 1.25 0 .828.25 1.172.266.328.656.328.406 0 .656-.344.266-.343.266-1.234 0-.844-.266-1.172-.265-.344-.656-.344zm0 8.328l4.703-9.046h.86l-4.688 9.046h-.875zm3.719-2.328q0-.922.453-1.562.469-.64 1.36-.64.812 0 1.343.577.531.563.531 1.688 0 1.094-.546 1.687-.532.578-1.329.578-.765 0-1.296-.578-.516-.578-.516-1.75zm1.844-1.484q-.407 0-.672.344-.25.343-.25 1.25 0 .812.265 1.156.266.344.657.344.39 0 .656-.344t.266-1.25q0-.828-.266-1.156-.266-.344-.656-.344z"/><path stroke="#757575" stroke-linecap="butt" d="M18.55 34.05h108.5l148.14-5.2"/><path fill="#9e9e9e" d="M277.19 28.85a2 2 0 10-4 0 2 2 0 004 0"/><path fill="#1a1a1a" d="M19.472 60.55v-8.594h3.25q.844 0 1.297.078.64.11 1.062.407.438.296.688.828.265.531.265 1.172 0 1.093-.703 1.859-.687.75-2.515.75h-2.203v3.5h-1.141zm1.14-4.5h2.22q1.109 0 1.562-.406.469-.422.469-1.172 0-.531-.282-.906-.265-.391-.703-.516-.297-.078-1.062-.078h-2.203v3.078zm6.704 4.5v-8.594h1.062v8.594h-1.062zm7.093-.766q-.593.5-1.14.703-.532.204-1.157.204-1.03 0-1.578-.5-.546-.5-.546-1.282 0-.453.203-.828.203-.39.547-.61.343-.233.765-.343.297-.094.938-.172 1.265-.14 1.875-.36v-.265q0-.656-.297-.922-.407-.343-1.203-.343-.735 0-1.094.265-.36.25-.531.906l-1.032-.14q.141-.656.47-1.063.327-.406.937-.625.609-.218 1.406-.218.797 0 1.297.187.5.188.734.469.234.281.328.719.047.265.047.968v1.407q0 1.468.063 1.859.078.39.28.75h-1.108q-.157-.328-.204-.766zm-.093-2.359q-.579.234-1.72.406-.655.094-.921.219-.266.11-.422.328-.14.219-.14.5 0 .422.312.703.328.281.937.281.61 0 1.079-.265.484-.266.703-.735.172-.359.172-1.046v-.391zm2.984 5.516l-.125-.985q.344.094.61.094.343 0 .546-.125.219-.11.36-.313.093-.171.328-.796.015-.079.093-.25l-2.375-6.235h1.141l1.297 3.594q.25.688.453 1.453.188-.734.438-1.422l1.328-3.625h1.047l-2.36 6.328q-.39 1.016-.594 1.407-.28.53-.656.765-.36.25-.86.25-.296 0-.671-.14zm10.344-3.329l.156.922q-.453.094-.797.094-.578 0-.89-.172-.313-.187-.454-.484-.125-.297-.125-1.25v-3.578h-.765v-.813h.765v-1.547l1.047-.625v2.172h1.063v.813H46.58v3.64q0 .453.047.578.063.125.188.204.125.078.359.078.188 0 .469-.032zm.312-2.171q0-1.735.953-2.563.797-.687 1.953-.687 1.282 0 2.094.843.828.828.828 2.313 0 1.203-.359 1.89-.36.688-1.063 1.079-.687.375-1.5.375-1.296 0-2.109-.829-.797-.843-.797-2.421zm1.078 0q0 1.187.516 1.78.531.595 1.313.595.796 0 1.312-.594t.516-1.813q0-1.156-.532-1.75-.515-.593-1.297-.593-.78 0-1.312.593-.516.578-.516 1.782zm13.563 1.109l1.094.125q-.25.953-.954 1.484-.703.532-1.78.532-1.36 0-2.173-.844-.797-.844-.797-2.36 0-1.562.813-2.421.813-.875 2.094-.875 1.25 0 2.031.843.797.844.797 2.391v.281h-4.64q.062 1.031.577 1.578.516.532 1.297.532.578 0 .985-.297.421-.313.656-.969zm-3.453-1.703h3.468q-.062-.797-.39-1.188-.516-.609-1.313-.609-.734 0-1.234.484-.484.485-.531 1.313zm10.265 2.937q-.593.5-1.14.703-.532.204-1.157.204-1.03 0-1.578-.5-.547-.5-.547-1.282 0-.453.204-.828.203-.39.546-.61.344-.233.766-.343.297-.094.938-.172 1.265-.14 1.875-.36v-.265q0-.656-.297-.922-.407-.343-1.203-.343-.735 0-1.094.265-.36.25-.531.906l-1.032-.14q.141-.656.47-1.063.327-.406.937-.625.609-.218 1.406-.218.797 0 1.297.187.5.188.734.469.234.281.328.719.047.265.047.968v1.407q0 1.468.063 1.859.078.39.28.75h-1.109q-.156-.328-.203-.766zm-.093-2.359q-.579.234-1.72.406-.655.094-.921.219-.266.11-.422.328-.14.219-.14.5 0 .422.312.703.328.281.938.281.609 0 1.078-.265.484-.266.703-.735.172-.359.172-1.046v-.391zm3.015 3.125v-6.219h.953v.938q.36-.657.657-.86.312-.218.687-.218.531 0 1.078.328l-.36.984q-.39-.234-.765-.234-.36 0-.64.218-.266.204-.375.579-.188.562-.188 1.218v3.266h-1.047zm4.016 0v-6.219h.937v.875q.688-1.015 1.985-1.015.562 0 1.031.203.484.203.719.531.234.328.328.766.047.296.047 1.03v3.829h-1.047v-3.781q0-.657-.125-.969-.125-.313-.438-.5-.312-.203-.734-.203-.672 0-1.172.437-.484.422-.484 1.61v3.406h-1.047z"/><path fill="#9e9e9e" d="M23.019 77.55h-1.047v-6.719q-.39.36-1.016.735-.61.359-1.093.53v-1.015q.875-.422 1.53-1 .673-.594.954-1.156h.672v8.625zm3.031-4.234q0-1.532.313-2.454.312-.937.921-1.437.625-.5 1.563-.5.687 0 1.203.281.531.281.875.813.344.515.531 1.265.188.75.188 2.032 0 1.515-.313 2.437-.297.922-.922 1.438-.609.5-1.562.5-1.235 0-1.953-.891-.844-1.063-.844-3.484zm1.078 0q0 2.109.5 2.812.5.703 1.219.703.734 0 1.219-.703.5-.703.5-2.812 0-2.125-.5-2.813-.485-.703-1.235-.703-.718 0-1.156.61-.547.78-.547 2.906zm6.484 4.234v-1.203h1.204v1.203q0 .656-.235 1.063-.234.421-.734.64l-.297-.453q.328-.14.484-.438.157-.28.188-.812h-.61zm2.438-4.234q0-1.532.313-2.454.312-.937.921-1.437.625-.5 1.563-.5.687 0 1.203.281.531.281.875.813.344.515.531 1.265.188.75.188 2.032 0 1.515-.313 2.437-.297.922-.922 1.438-.609.5-1.562.5-1.235 0-1.953-.891-.844-1.063-.844-3.484zm1.078 0q0 2.109.5 2.812.5.703 1.219.703.734 0 1.219-.703.5-.703.5-2.812 0-2.125-.5-2.813-.485-.703-1.235-.703-.719 0-1.156.61-.547.78-.547 2.906zm6.125-2.297q0-.922.453-1.563.469-.64 1.344-.64.813 0 1.344.578.531.578.531 1.687 0 1.094-.547 1.688-.531.578-1.312.578-.782 0-1.297-.578-.516-.578-.516-1.75zm1.828-1.485q-.39 0-.656.344-.25.344-.25 1.25 0 .828.25 1.172.266.328.656.328.406 0 .656-.344.266-.343.266-1.234 0-.844-.266-1.172-.265-.344-.656-.344zm0 8.328l4.703-9.046h.86l-4.688 9.046h-.875zm3.719-2.328q0-.922.453-1.562.469-.64 1.36-.64.812 0 1.343.577.531.563.531 1.688 0 1.094-.546 1.687-.532.578-1.329.578-.765 0-1.296-.578-.516-.578-.516-1.75zm1.844-1.484q-.407 0-.672.344-.25.343-.25 1.25 0 .812.265 1.156.266.344.657.344.39 0 .656-.344t.266-1.25q0-.828-.266-1.156-.266-.344-.656-.344z"/><path stroke="#757575" stroke-linecap="butt" d="M18.55 65.05h108.5l79.726-7.862"/><path fill="#9e9e9e" d="M208.776 57.188a2 2 0 10-4 0 2 2 0 004 0"/><path fill="#1a1a1a" d="M25.613 105.98l1.125.297q-.36 1.39-1.282 2.125-.922.735-2.265.735-1.391 0-2.266-.563-.875-.562-1.328-1.625-.453-1.078-.453-2.312 0-1.344.515-2.344.516-1 1.454-1.516.953-.515 2.093-.515 1.282 0 2.157.656.89.656 1.234 1.844l-1.125.265q-.297-.937-.875-1.36-.563-.437-1.422-.437-.984 0-1.656.485-.656.468-.938 1.265-.265.797-.265 1.657 0 1.093.312 1.906.328.812 1 1.219.672.406 1.469.406.953 0 1.61-.547.671-.547.905-1.64zm2.343-.093q0-1.735.953-2.563.797-.687 1.954-.687 1.28 0 2.093.843.828.828.828 2.313 0 1.203-.359 1.89-.36.688-1.063 1.079-.687.375-1.5.375-1.296 0-2.109-.829-.797-.843-.797-2.421zm1.078 0q0 1.187.516 1.78.531.595 1.313.595.796 0 1.312-.594t.516-1.813q0-1.156-.532-1.75-.515-.593-1.296-.593-.782 0-1.313.593-.516.578-.516 1.782zm6.313 3.109v-6.219h.937v.875q.297-.469.782-.734.484-.281 1.109-.281.688 0 1.125.28.453.282.625.798.75-1.078 1.922-1.078.937 0 1.422.515.5.5.5 1.578v4.266h-1.047v-3.922q0-.625-.11-.906-.093-.281-.359-.453t-.64-.172q-.657 0-1.094.437-.422.438-.422 1.407v3.609h-1.063v-4.047q0-.703-.265-1.047-.25-.36-.828-.36-.454 0-.829.235-.375.235-.546.688-.172.453-.172 1.297v3.234h-1.047zm11 0v-6.219h.937v.875q.297-.469.782-.734.484-.281 1.109-.281.688 0 1.125.28.453.282.625.798.75-1.078 1.922-1.078.937 0 1.422.515.5.5.5 1.578v4.266h-1.047v-3.922q0-.625-.11-.906-.093-.281-.359-.453t-.64-.172q-.657 0-1.094.437-.422.438-.422 1.407v3.609h-1.063v-4.047q0-.703-.265-1.047-.25-.36-.828-.36-.454 0-.829.235-.375.235-.546.688-.172.453-.172 1.297v3.234h-1.047zm15.078 0v-.922q-.734 1.063-1.984 1.063-.547 0-1.032-.204-.468-.218-.703-.53-.234-.329-.328-.798-.062-.297-.062-.984v-3.844h1.062v3.453q0 .813.063 1.11.093.406.406.656.328.234.812.234.47 0 .875-.234.422-.25.594-.672.188-.422.188-1.219v-3.328h1.046v6.219h-.937zm2.922 0v-6.219h.937v.875q.688-1.015 1.985-1.015.562 0 1.031.203.484.203.719.531.234.328.328.766.047.296.047 1.03v3.829h-1.047v-3.781q0-.657-.125-.969-.125-.313-.438-.5-.312-.203-.734-.203-.672 0-1.172.437-.484.422-.484 1.61v3.406h-1.047zm7-7.375v-1.219h1.062v1.219h-1.062zm0 7.375v-6.219h1.062v6.219h-1.062zm5.297-.938l.156.922q-.453.094-.797.094-.578 0-.89-.172-.313-.187-.454-.484-.125-.297-.125-1.25v-3.578h-.765v-.813h.765v-1.547l1.047-.625v2.172h1.063v.813H75.58v3.64q0 .453.047.578.063.125.188.204.125.078.359.078.188 0 .469-.032zm.656 3.329l-.125-.985q.344.094.61.094.343 0 .546-.125.219-.11.36-.313.093-.171.328-.796.015-.079.093-.25l-2.374-6.235h1.14l1.297 3.594q.25.687.453 1.453.188-.734.438-1.422l1.328-3.625h1.047l-2.36 6.328q-.39 1.016-.594 1.407-.28.53-.656.765-.36.25-.86.25-.296 0-.671-.14zm12.953-3.407q-.516.578-1.14.875-.61.282-1.329.282-1.312 0-2.093-.891-.625-.719-.625-1.625 0-.797.515-1.438.516-.64 1.531-1.125-.578-.671-.78-1.078-.188-.422-.188-.812 0-.766.61-1.328.608-.578 1.53-.578.875 0 1.422.546.563.532.563 1.282 0 1.234-1.61 2.093l1.532 1.97q.265-.516.406-1.204l1.11.234q-.282 1.125-.766 1.86.593.781 1.343 1.312l-.718.844q-.641-.422-1.313-1.219zm-2.14-4.468q.687-.407.874-.704.204-.312.204-.687 0-.438-.282-.719-.265-.281-.687-.281-.422 0-.719.281-.281.281-.281.672 0 .203.11.422.109.219.312.469l.468.547zm1.484 3.64l-1.938-2.406q-.859.516-1.156.953-.297.438-.297.86 0 .53.406 1.093.422.563 1.188.563.469 0 .969-.297.515-.297.828-.766z"/><path fill="#9e9e9e" d="M19.05 123.746l1.11-.094q.124.813.562 1.219.453.406 1.094.406.75 0 1.28-.578.532-.578.532-1.516 0-.906-.515-1.421-.5-.532-1.329-.532-.5 0-.921.235-.407.234-.641.593l-.985-.125.829-4.406h4.28v1H20.91l-.453 2.313q.766-.547 1.61-.547 1.125 0 1.89.781.782.781.782 2.016 0 1.156-.672 2.015-.828 1.032-2.25 1.032-1.172 0-1.922-.657-.735-.656-.844-1.734zm7.563 2.25v-1.203h1.203v1.203q0 .656-.235 1.062-.234.422-.734.641l-.297-.453q.328-.14.484-.438.157-.28.188-.812h-.61zm2.437-4.234q0-1.532.313-2.454.312-.937.921-1.437.625-.5 1.563-.5.687 0 1.203.281.531.281.875.813.344.515.531 1.265.188.75.188 2.032 0 1.515-.313 2.437-.297.922-.922 1.438-.609.5-1.562.5-1.235 0-1.953-.891-.844-1.063-.844-3.484zm1.078 0q0 2.109.5 2.812.5.703 1.219.703.734 0 1.219-.703.5-.703.5-2.812 0-2.125-.5-2.813-.485-.703-1.235-.703-.718 0-1.156.61-.547.78-.547 2.906zm6.125-2.297q0-.922.453-1.563.469-.64 1.344-.64.813 0 1.344.578.531.578.531 1.687 0 1.094-.547 1.688-.531.578-1.312.578-.782 0-1.297-.578-.516-.578-.516-1.75zm1.828-1.485q-.39 0-.656.344-.25.344-.25 1.25 0 .828.25 1.172.266.328.656.328.406 0 .656-.344.266-.343.266-1.234 0-.844-.266-1.172-.265-.344-.656-.344zm0 8.328l4.703-9.046h.86l-4.688 9.046h-.875zm3.719-2.328q0-.922.453-1.562.469-.64 1.36-.64.812 0 1.343.577.531.563.531 1.688 0 1.094-.546 1.687-.532.578-1.329.578-.765 0-1.296-.578-.516-.578-.516-1.75zm1.844-1.484q-.407 0-.672.344-.25.343-.25 1.25 0 .812.265 1.156.266.344.657.344.39 0 .656-.344t.266-1.25q0-.828-.266-1.156-.266-.344-.656-.344z"/><path stroke="#757575" stroke-linecap="butt" d="M18.55 113.496H158.684"/><path fill="#9e9e9e" d="M160.684 113.496a2 2 0 10-4 0 2 2 0 004 0"/><path fill="#1a1a1a" d="M19.503 205.81v-8.593h6.203v1.016h-5.062v2.625h4.75v1.015h-4.75v2.922h5.265v1.016h-6.406zm11.906-2.28l1.032.14q-.172 1.063-.875 1.672-.703.61-1.72.61-1.28 0-2.062-.829-.765-.843-.765-2.406 0-1 .328-1.75.344-.765 1.015-1.14.688-.375 1.5-.375 1 0 1.641.515.656.5.844 1.453l-1.031.157q-.141-.625-.516-.938-.375-.328-.906-.328-.797 0-1.297.578-.5.563-.5 1.797 0 1.266.484 1.828.485.563 1.25.563.625 0 1.032-.375.421-.375.546-1.172zm1.547-.828q0-1.735.953-2.563.797-.687 1.953-.687 1.282 0 2.094.843.828.828.828 2.313 0 1.203-.359 1.89-.36.688-1.063 1.079-.687.375-1.5.375-1.296 0-2.109-.829-.797-.843-.797-2.421zm1.078 0q0 1.187.516 1.78.531.595 1.313.595.796 0 1.312-.594t.516-1.813q0-1.156-.532-1.75-.515-.593-1.297-.593-.78 0-1.312.593-.516.578-.516 1.782zm5.891 1.25l1.031-.157q.094.625.485.953.406.329 1.14.329.719 0 1.063-.282.36-.297.36-.703 0-.36-.313-.562-.22-.141-1.079-.36-1.156-.297-1.609-.5-.437-.218-.672-.593-.234-.375-.234-.844 0-.406.187-.766.188-.36.516-.594.25-.171.672-.296.422-.125.922-.125.718 0 1.265.218.563.203.828.563.266.36.36.953l-1.031.14q-.063-.468-.407-.734-.328-.281-.953-.281-.719 0-1.031.25-.313.234-.313.562 0 .204.125.36.141.172.407.281.156.063.937.266 1.125.312 1.563.5.437.187.687.547.25.359.25.906 0 .531-.312 1-.297.453-.875.719-.578.25-1.313.25-1.219 0-1.86-.5-.624-.516-.796-1.5zm7.375 4.25l-.125-.985q.344.094.61.094.343 0 .546-.125.219-.11.36-.313.093-.171.328-.796.015-.079.093-.25l-2.375-6.235h1.141l1.297 3.594q.25.687.453 1.453.188-.734.438-1.422l1.328-3.625h1.047l-2.36 6.328q-.39 1.016-.594 1.407-.28.53-.656.765-.36.25-.86.25-.296 0-.671-.14zm4.625-4.25l1.031-.157q.094.625.485.953.406.329 1.14.329.719 0 1.063-.282.36-.297.36-.703 0-.36-.313-.562-.22-.141-1.079-.36-1.156-.297-1.609-.5-.437-.218-.672-.593-.234-.375-.234-.844 0-.406.187-.766.188-.36.516-.594.25-.171.672-.296.422-.125.922-.125.718 0 1.265.218.563.203.828.563.266.36.36.953l-1.031.14q-.063-.468-.407-.734-.328-.281-.953-.281-.719 0-1.031.25-.313.234-.313.562 0 .204.125.36.141.172.407.281.156.063.937.266 1.125.312 1.563.5.437.187.687.547.25.359.25.906 0 .531-.312 1-.297.453-.875.719-.578.25-1.313.25-1.219 0-1.86-.5-.624-.516-.796-1.5zm9.719.921l.156.922q-.453.094-.797.094-.578 0-.89-.172-.313-.187-.454-.484-.125-.297-.125-1.25v-3.578h-.765v-.813h.765v-1.547l1.047-.625v2.172h1.063v.813H60.58v3.64q0 .453.047.578.063.125.188.204.125.078.359.078.188 0 .469-.032zm4.953-1.062l1.094.125q-.25.953-.954 1.484-.703.532-1.78.532-1.36 0-2.173-.844-.797-.844-.797-2.36 0-1.562.813-2.421.813-.875 2.094-.875 1.25 0 2.031.843.797.844.797 2.39v.282h-4.64q.062 1.031.577 1.578.516.532 1.297.532.578 0 .985-.297.421-.313.656-.97zm-3.453-1.703h3.468q-.062-.797-.39-1.188-.516-.61-1.313-.61-.734 0-1.234.485-.484.485-.531 1.313zm6.203 3.703v-6.219h.937v.875q.297-.469.782-.734.484-.281 1.109-.281.688 0 1.125.28.453.282.625.798.75-1.078 1.922-1.078.937 0 1.422.515.5.5.5 1.578v4.266h-1.047v-3.922q0-.625-.11-.906-.093-.281-.359-.453t-.64-.172q-.657 0-1.094.437-.422.438-.422 1.407v3.609h-1.063v-4.047q0-.703-.265-1.047-.25-.36-.828-.36-.454 0-.829.235-.374.235-.546.688-.172.453-.172 1.297v3.234h-1.047z"/><path fill="#9e9e9e" d="M23.019 222.81h-1.047v-6.718q-.39.36-1.016.735-.61.359-1.093.53v-1.015q.875-.422 1.53-1 .673-.594.954-1.156h.672v8.625zm3.031-2.25l1.11-.093q.124.813.562 1.219.453.406 1.094.406.75 0 1.28-.578.532-.578.532-1.516 0-.906-.515-1.421-.5-.532-1.329-.532-.5 0-.921.235-.407.234-.641.593l-.985-.125.829-4.406h4.28v1H27.91l-.453 2.313q.766-.547 1.61-.547 1.125 0 1.89.781.782.781.782 2.016 0 1.156-.672 2.015-.828 1.032-2.25 1.032-1.172 0-1.922-.657-.735-.656-.844-1.734zm7.562 2.25v-1.202h1.204v1.203q0 .656-.235 1.062-.234.422-.734.641l-.297-.453q.328-.14.484-.438.157-.28.188-.812h-.61zm2.438-4.233q0-1.532.313-2.454.312-.937.921-1.437.625-.5 1.563-.5.687 0 1.203.281.531.281.875.813.344.515.531 1.265.188.75.188 2.032 0 1.515-.313 2.437-.297.922-.922 1.438-.609.5-1.562.5-1.235 0-1.953-.891-.844-1.063-.844-3.484zm1.078 0q0 2.109.5 2.812.5.703 1.219.703.734 0 1.219-.703.5-.703.5-2.812 0-2.125-.5-2.813-.485-.703-1.235-.703-.719 0-1.156.61-.547.78-.547 2.906zm6.125-2.297q0-.922.453-1.563.469-.64 1.344-.64.813 0 1.344.578.531.578.531 1.687 0 1.094-.547 1.688-.531.578-1.312.578-.782 0-1.297-.578-.516-.578-.516-1.75zm1.828-1.485q-.39 0-.656.344-.25.344-.25 1.25 0 .828.25 1.172.266.328.656.328.406 0 .656-.344.266-.343.266-1.234 0-.844-.266-1.172-.265-.344-.656-.344zm0 8.328l4.703-9.046h.86l-4.688 9.046h-.875zm3.719-2.328q0-.922.453-1.562.469-.64 1.36-.64.812 0 1.343.577.531.563.531 1.688 0 1.094-.546 1.687-.532.578-1.329.578-.765 0-1.296-.578-.516-.578-.516-1.75zm1.844-1.484q-.407 0-.672.344-.25.343-.25 1.25 0 .812.265 1.156.266.344.657.344.39 0 .656-.344t.266-1.25q0-.828-.266-1.156-.266-.344-.656-.344z"/><path stroke="#757575" stroke-linecap="butt" d="M18.55 210.31h124.8"/><path fill="#9e9e9e" d="M145.35 210.31a2 2 0 10-4 0 2 2 0 004 0"/><path fill="#1a1a1a" d="M522.56 52.688V45.11h-2.829v-1.016h6.813v1.016H523.7v7.578h-1.14zm4.296-3.11q0-1.734.953-2.562.797-.687 1.954-.687 1.28 0 2.093.843.828.828.828 2.313 0 1.203-.359 1.89-.36.688-1.063 1.079-.687.375-1.5.375-1.296 0-2.109-.829-.797-.843-.797-2.421zm1.078 0q0 1.188.516 1.782.531.594 1.313.594.796 0 1.312-.594t.516-1.813q0-1.156-.532-1.75-.515-.593-1.296-.593-.782 0-1.313.593-.516.578-.516 1.782zm6.313 3.11v-8.594h1.062V49l2.485-2.53h1.375l-2.39 2.296 2.624 3.922h-1.297l-2.062-3.188-.735.72v2.468h-1.062zm10.25-2l1.094.125q-.25.953-.953 1.484-.704.532-1.782.532-1.36 0-2.172-.844-.796-.844-.796-2.36 0-1.562.812-2.421.813-.875 2.094-.875 1.25 0 2.031.843.797.844.797 2.39v.282h-4.64q.062 1.031.577 1.578.516.532 1.297.532.578 0 .985-.297.422-.313.656-.97zm-3.453-1.703h3.469q-.063-.797-.391-1.188-.516-.61-1.313-.61-.734 0-1.234.485-.484.485-.531 1.313zm6.203 3.703v-6.219h.937v.875q.688-1.015 1.985-1.015.562 0 1.031.203.484.203.719.53.234.329.328.767.047.296.047 1.03v3.829h-1.047v-3.781q0-.657-.125-.97-.125-.312-.438-.5-.312-.202-.734-.202-.672 0-1.172.437-.484.422-.484 1.61v3.406h-1.047zm9.75-2.766l1.062-.093q.079.656.36 1.062.281.406.86.672.593.25 1.327.25.64 0 1.14-.188.5-.203.735-.53.25-.345.25-.735 0-.406-.234-.703-.234-.313-.766-.516-.36-.14-1.547-.422-1.171-.281-1.64-.531-.625-.328-.922-.797-.297-.484-.297-1.078 0-.64.36-1.203.374-.578 1.078-.86.718-.296 1.578-.296.953 0 1.687.312.735.297 1.125.906.39.594.422 1.344l-1.094.078q-.093-.812-.61-1.219-.5-.421-1.483-.421-1.032 0-1.5.375-.47.375-.47.906 0 .469.329.765.328.297 1.703.61 1.39.312 1.906.547.75.359 1.11.89.359.516.359 1.219 0 .688-.39 1.297-.391.594-1.126.937-.734.329-1.656.329-1.172 0-1.969-.329-.78-.343-1.234-1.03-.438-.688-.453-1.548zm12.312 2q-.593.5-1.14.703-.531.204-1.156.204-1.032 0-1.579-.5-.546-.5-.546-1.282 0-.453.203-.828.203-.39.547-.61.343-.234.765-.343.297-.094.938-.172 1.265-.14 1.875-.36v-.265q0-.656-.297-.922-.406-.343-1.203-.343-.735 0-1.094.265-.36.25-.531.906l-1.032-.14q.141-.656.47-1.063.327-.406.937-.625.609-.218 1.406-.218.797 0 1.297.187.5.188.734.469.235.281.328.719.047.265.047.968v1.407q0 1.468.063 1.859.078.39.28.75h-1.108q-.157-.328-.204-.766zm-.093-2.36q-.578.235-1.72.407-.655.094-.921.219-.266.11-.422.328-.14.219-.14.5 0 .422.312.703.328.281.938.281.609 0 1.078-.265.484-.266.703-.735.172-.359.172-1.046v-.391zm3 3.126v-8.594h1.062v8.594h-1.062zm7.28-2l1.095.125q-.25.953-.953 1.484-.704.532-1.782.532-1.36 0-2.172-.844-.796-.844-.796-2.36 0-1.562.812-2.421.813-.875 2.094-.875 1.25 0 2.031.843.797.844.797 2.39v.282h-4.64q.062 1.031.577 1.578.516.532 1.297.532.578 0 .985-.297.422-.313.656-.97zm-3.452-1.703h3.469q-.063-.797-.391-1.188-.516-.61-1.313-.61-.734 0-1.234.485-.484.485-.531 1.313z"/><path fill="#9e9e9e" d="M552.497 68.672v1.016h-5.688q0-.375.125-.734.22-.579.688-1.141.484-.563 1.39-1.297 1.407-1.156 1.891-1.828.5-.672.5-1.266 0-.625-.453-1.047-.453-.437-1.172-.437-.765 0-1.219.453-.453.453-.468 1.266l-1.078-.11q.109-1.218.828-1.843.734-.641 1.968-.641 1.235 0 1.954.687.718.688.718 1.704 0 .515-.218 1.015-.204.485-.704 1.047-.484.547-1.609 1.5-.953.797-1.234 1.094-.266.281-.438.562h4.219zm1.453-3.218q0-1.532.313-2.454.312-.937.921-1.437.625-.5 1.563-.5.687 0 1.203.281.531.281.875.813.344.515.531 1.265.188.75.188 2.032 0 1.515-.313 2.437-.297.922-.922 1.438-.609.5-1.562.5-1.234 0-1.953-.891-.844-1.063-.844-3.484zm1.078 0q0 2.109.5 2.812.5.703 1.219.703.734 0 1.219-.703.5-.703.5-2.812 0-2.125-.5-2.813-.485-.703-1.235-.703-.718 0-1.156.61-.547.78-.547 2.906zm6.485 4.234v-1.203h1.203v1.203q0 .656-.235 1.062-.234.422-.734.641l-.297-.453q.328-.14.484-.438.157-.28.188-.812h-.61zm2.437-4.234q0-1.532.313-2.454.312-.937.921-1.437.625-.5 1.563-.5.687 0 1.203.281.531.281.875.813.344.515.531 1.265.188.75.188 2.032 0 1.515-.313 2.437-.297.922-.922 1.438-.609.5-1.562.5-1.234 0-1.953-.891-.844-1.063-.844-3.484zm1.078 0q0 2.109.5 2.812.5.703 1.219.703.734 0 1.219-.703.5-.703.5-2.812 0-2.125-.5-2.813-.485-.703-1.235-.703-.718 0-1.156.61-.547.78-.547 2.906zm6.125-2.297q0-.922.453-1.563.469-.64 1.344-.64.813 0 1.344.578.531.578.531 1.687 0 1.094-.547 1.688-.531.578-1.312.578-.782 0-1.297-.578-.516-.578-.516-1.75zm1.828-1.485q-.39 0-.656.344-.25.344-.25 1.25 0 .828.25 1.172.266.328.656.328.407 0 .657-.344.265-.343.265-1.234 0-.844-.265-1.172-.266-.344-.657-.344zm0 8.328l4.703-9.046h.86L573.856 70h-.875zm3.719-2.328q0-.922.453-1.562.469-.64 1.36-.64.812 0 1.343.577.532.563.532 1.688 0 1.094-.547 1.687-.532.578-1.328.578-.766 0-1.297-.578-.516-.578-.516-1.75zm1.844-1.484q-.406 0-.672.344-.25.343-.25 1.25 0 .812.266 1.156.265.344.656.344.39 0 .656-.344t.266-1.25q0-.828-.266-1.156-.266-.344-.656-.344z"/><path stroke="#757575" stroke-linecap="butt" d="M581.45 57.188H393.224"/><path fill="#9e9e9e" d="M395.224 57.188a2 2 0 10-4 0 2 2 0 004 0"/><path fill="#1a1a1a" d="M485.56 205.81v-7.577h-2.829v-1.016h6.813v1.016H486.7v7.578h-1.14zm8.937-2l1.094.126q-.25.953-.954 1.484-.703.532-1.78.532-1.36 0-2.173-.844-.797-.844-.797-2.36 0-1.562.813-2.421.813-.875 2.094-.875 1.25 0 2.031.843.797.844.797 2.39v.282h-4.64q.062 1.031.577 1.578.516.532 1.297.532.578 0 .985-.297.421-.313.656-.97zm-3.453-1.702h3.469q-.063-.797-.391-1.188-.516-.61-1.313-.61-.734 0-1.234.485-.484.485-.531 1.313zm10.265 2.937q-.593.5-1.14.703-.531.204-1.156.204-1.032 0-1.579-.5-.547-.5-.547-1.282 0-.453.204-.828.203-.39.546-.61.344-.234.766-.343.297-.094.938-.172 1.265-.14 1.875-.36v-.265q0-.656-.297-.922-.406-.343-1.203-.343-.735 0-1.094.265-.36.25-.531.906l-1.032-.14q.141-.656.47-1.063.327-.406.937-.625.609-.218 1.406-.218.797 0 1.297.187.5.188.734.469.234.281.328.719.047.265.047.968v1.407q0 1.468.063 1.859.078.39.28.75h-1.108q-.157-.328-.204-.766zm-.093-2.36q-.579.235-1.72.407-.655.094-.921.219-.266.11-.422.328-.14.219-.14.5 0 .422.312.703.328.281.938.281.609 0 1.078-.265.484-.266.703-.735.172-.359.172-1.046v-.391zm3.03 3.126v-6.219h.938v.875q.297-.469.782-.734.484-.281 1.109-.281.688 0 1.125.28.453.282.625.798.75-1.078 1.922-1.078.937 0 1.422.515.5.5.5 1.578v4.266h-1.047v-3.922q0-.625-.11-.906-.093-.281-.359-.453t-.64-.172q-.657 0-1.094.437-.422.438-.422 1.407v3.609h-1.063v-4.047q0-.703-.265-1.047-.25-.36-.828-.36-.454 0-.829.235-.375.235-.546.688-.172.453-.172 1.297v3.234h-1.047zm18.063-.766q-.593.5-1.14.703-.531.204-1.156.204-1.032 0-1.579-.5-.546-.5-.546-1.282 0-.453.203-.828.203-.39.547-.61.343-.234.765-.343.297-.094.938-.172 1.265-.14 1.875-.36v-.265q0-.656-.297-.922-.406-.343-1.203-.343-.735 0-1.094.265-.36.25-.531.906l-1.032-.14q.141-.656.47-1.063.327-.406.937-.625.609-.218 1.406-.218.797 0 1.297.187.5.188.734.469.235.281.328.719.047.265.047.968v1.407q0 1.468.063 1.859.078.39.28.75h-1.108q-.157-.328-.204-.766zm-.093-2.36q-.578.235-1.72.407-.655.094-.921.219-.266.11-.422.328-.14.219-.14.5 0 .422.312.703.328.281.938.281.609 0 1.078-.265.484-.266.703-.735.172-.359.172-1.046v-.391zm3.03 3.126v-6.219h.938v.875q.688-1.015 1.985-1.015.562 0 1.031.203.484.203.719.53.234.329.328.767.047.296.047 1.03v3.829h-1.047v-3.781q0-.657-.125-.97-.125-.312-.438-.5-.312-.202-.734-.202-.672 0-1.172.437-.484.422-.484 1.61v3.406h-1.047zm11.032 0v-.781q-.594.922-1.734.922-.75 0-1.375-.407-.625-.422-.969-1.156t-.344-1.687q0-.922.313-1.688.312-.766.937-1.156.625-.406 1.39-.406.563 0 1 .234.438.234.72.61v-3.079h1.047v8.594h-.985zm-3.328-3.11q0 1.204.5 1.797.5.579 1.188.579.687 0 1.171-.563.485-.562.485-1.719 0-1.281-.5-1.875-.485-.593-1.203-.593-.703 0-1.172.578-.469.562-.469 1.797zm13.36 2.344q-.594.5-1.141.703-.531.204-1.156.204-1.032 0-1.579-.5-.546-.5-.546-1.282 0-.453.203-.828.203-.39.547-.61.343-.234.765-.343.297-.094.938-.172 1.265-.14 1.875-.36v-.265q0-.656-.297-.922-.406-.343-1.203-.343-.735 0-1.094.265-.36.25-.531.906l-1.032-.14q.141-.656.47-1.063.327-.406.937-.625.609-.218 1.406-.218.797 0 1.297.187.5.188.734.469.235.281.328.719.047.265.047.968v1.407q0 1.468.063 1.859.078.39.28.75h-1.108q-.157-.328-.204-.766zm-.094-2.36q-.578.235-1.72.407-.655.094-.921.219-.266.11-.422.328-.14.219-.14.5 0 .422.312.703.328.281.938.281.609 0 1.078-.265.484-.266.703-.735.172-.359.172-1.046v-.391zm7.062 3.126v-.781q-.594.922-1.734.922-.75 0-1.375-.407-.625-.422-.969-1.156t-.344-1.687q0-.922.313-1.688.312-.766.937-1.156.625-.406 1.39-.406.563 0 1 .234.438.234.72.61v-3.079h1.047v8.594h-.985zm-3.328-3.11q0 1.204.5 1.797.5.579 1.188.579.687 0 1.171-.563.485-.562.485-1.719 0-1.281-.5-1.875-.485-.593-1.203-.593-.703 0-1.172.578-.469.562-.469 1.797zm8.016 3.11l-2.36-6.219h1.11l1.343 3.719q.204.61.391 1.25.14-.484.39-1.172l1.391-3.797h1.078l-2.359 6.219h-.984zm3.28-7.375v-1.219h1.063v1.219h-1.062zm0 7.375v-6.219h1.063v6.219h-1.062zm2.579-1.86l1.031-.156q.094.625.485.953.406.329 1.14.329.719 0 1.063-.282.36-.297.36-.703 0-.36-.313-.562-.22-.141-1.078-.36-1.157-.297-1.61-.5-.437-.218-.672-.593-.234-.375-.234-.844 0-.406.187-.766.188-.36.516-.594.25-.171.672-.296.422-.125.922-.125.719 0 1.265.218.563.203.829.563.265.36.359.953l-1.031.14q-.063-.468-.407-.734-.328-.281-.953-.281-.718 0-1.031.25-.313.234-.313.562 0 .204.126.36.14.172.406.281.156.063.937.266 1.125.312 1.563.5.437.187.687.547.25.359.25.906 0 .531-.312 1-.297.453-.875.719-.578.25-1.313.25-1.218 0-1.86-.5-.624-.516-.796-1.5zm7.031-1.25q0-1.734.953-2.562.797-.687 1.954-.687 1.28 0 2.093.843.828.828.828 2.313 0 1.203-.359 1.89-.36.688-1.063 1.079-.687.375-1.5.375-1.296 0-2.109-.829-.797-.843-.797-2.421zm1.078 0q0 1.188.516 1.782.531.594 1.313.594.796 0 1.312-.594t.516-1.813q0-1.156-.532-1.75-.515-.593-1.296-.593-.782 0-1.313.593-.516.578-.516 1.782zm6.297 3.11v-6.219h.953v.938q.36-.657.657-.86.312-.218.687-.218.531 0 1.078.328l-.36.984q-.39-.234-.765-.234-.36 0-.64.218-.266.204-.375.579-.188.562-.188 1.218v3.266h-1.047z"/><path fill="#9e9e9e" d="M550.919 222.81h-1.047v-6.718q-.39.36-1.016.735-.61.359-1.093.53v-1.015q.875-.422 1.53-1 .673-.594.954-1.156h.672v8.625zm3.031-2.25l1.11-.093q.124.813.562 1.219.453.406 1.094.406.75 0 1.28-.578.532-.578.532-1.516 0-.906-.515-1.421-.5-.532-1.329-.532-.5 0-.921.235-.407.234-.641.593l-.984-.125.828-4.406h4.28v1h-3.437l-.453 2.313q.766-.547 1.61-.547 1.125 0 1.89.781.782.781.782 2.016 0 1.156-.672 2.015-.828 1.032-2.25 1.032-1.172 0-1.922-.657-.735-.656-.844-1.734zm7.563 2.25v-1.202h1.203v1.203q0 .656-.235 1.062-.234.422-.734.641l-.297-.453q.328-.14.484-.438.157-.28.188-.812h-.61zm2.437-4.233q0-1.532.313-2.454.312-.937.921-1.437.625-.5 1.563-.5.687 0 1.203.281.531.281.875.813.344.515.531 1.265.188.75.188 2.032 0 1.515-.313 2.437-.297.922-.922 1.438-.609.5-1.562.5-1.234 0-1.953-.891-.844-1.063-.844-3.484zm1.078 0q0 2.109.5 2.812.5.703 1.219.703.734 0 1.219-.703.5-.703.5-2.812 0-2.125-.5-2.813-.485-.703-1.235-.703-.718 0-1.156.61-.547.78-.547 2.906zm6.125-2.297q0-.922.453-1.563.469-.64 1.344-.64.813 0 1.344.578.531.578.531 1.687 0 1.094-.547 1.688-.531.578-1.312.578-.782 0-1.297-.578-.516-.578-.516-1.75zm1.828-1.485q-.39 0-.656.344-.25.344-.25 1.25 0 .828.25 1.172.266.328.656.328.407 0 .657-.344.265-.343.265-1.234 0-.844-.265-1.172-.266-.344-.657-.344zm0 8.328l4.703-9.046h.86l-4.688 9.046h-.875zm3.719-2.328q0-.922.453-1.562.469-.64 1.36-.64.812 0 1.343.577.532.563.532 1.688 0 1.094-.547 1.687-.532.578-1.328.578-.766 0-1.297-.578-.516-.578-.516-1.75zm1.844-1.484q-.406 0-.672.344-.25.343-.25 1.25 0 .812.266 1.156.265.344.656.344.39 0 .656-.344t.266-1.25q0-.828-.266-1.156-.266-.344-.656-.344z"/><path stroke="#757575" stroke-linecap="butt" d="M581.45 210.31h-124.8"/><path fill="#9e9e9e" d="M458.65 210.31a2 2 0 10-4 0 2 2 0 004 0"/><path fill="#1a1a1a" d="M536.388 332.45v-8.594h3.812q1.156 0 1.75.235.594.234.953.828.36.578.36 1.281 0 .922-.594 1.547-.594.625-1.828.797.453.219.687.422.5.453.938 1.14l1.5 2.344h-1.438l-1.125-1.781q-.5-.781-.828-1.188-.313-.406-.578-.562-.25-.172-.516-.25-.187-.031-.625-.031h-1.328v3.812h-1.14zm1.14-4.797h2.453q.766 0 1.203-.156.454-.172.672-.516.235-.36.235-.781 0-.61-.453-1-.438-.39-1.391-.39h-2.719v2.843zm11.969 2.797l1.094.125q-.25.953-.953 1.484-.704.532-1.782.532-1.36 0-2.172-.844-.796-.844-.796-2.36 0-1.562.812-2.421.813-.875 2.094-.875 1.25 0 2.031.843.797.844.797 2.391v.281h-4.64q.062 1.031.577 1.578.516.532 1.297.532.578 0 .985-.297.422-.313.656-.969zm-3.453-1.703h3.469q-.063-.797-.391-1.188-.516-.609-1.313-.609-.734 0-1.234.484-.484.485-.531 1.313zm5.781 1.844l1.031-.157q.094.625.485.953.406.329 1.14.329.719 0 1.063-.282.36-.297.36-.703 0-.36-.313-.562-.22-.14-1.078-.36-1.157-.297-1.61-.5-.437-.218-.672-.593-.234-.375-.234-.844 0-.406.187-.766.188-.36.516-.594.25-.171.672-.296.422-.125.922-.125.719 0 1.265.218.563.203.829.563.265.36.359.953l-1.031.14q-.063-.468-.407-.734-.328-.281-.953-.281-.718 0-1.031.25-.313.234-.313.563 0 .203.126.359.14.172.406.281.156.063.937.266 1.125.312 1.563.5.437.187.687.547.25.359.25.906 0 .531-.312 1-.297.453-.875.719-.578.25-1.313.25-1.218 0-1.86-.5-.624-.516-.796-1.5zm11.672-.141l1.094.125q-.25.953-.953 1.484-.704.532-1.782.532-1.36 0-2.172-.844-.796-.844-.796-2.36 0-1.562.812-2.421.813-.875 2.094-.875 1.25 0 2.031.843.797.844.797 2.391v.281h-4.64q.062 1.031.577 1.578.516.532 1.297.532.578 0 .985-.297.422-.313.656-.969zm-3.453-1.703h3.469q-.063-.797-.391-1.188-.516-.609-1.313-.609-.734 0-1.234.484-.484.485-.531 1.313zm6.187 3.703v-6.219h.953v.938q.36-.656.657-.86.312-.218.687-.218.531 0 1.078.328l-.36.984q-.39-.234-.765-.234-.36 0-.64.219-.266.203-.375.578-.188.562-.188 1.218v3.266h-1.047zm5.735 0l-2.36-6.219h1.11l1.343 3.719q.204.61.391 1.25.14-.484.39-1.172l1.391-3.797h1.078l-2.359 6.219h-.984zm7.53-2l1.095.125q-.25.953-.953 1.484-.704.532-1.782.532-1.36 0-2.172-.844-.796-.844-.796-2.36 0-1.562.812-2.421.813-.875 2.094-.875 1.25 0 2.031.843.797.844.797 2.391v.281h-4.64q.062 1.031.577 1.578.516.532 1.297.532.578 0 .985-.297.422-.313.656-.969zm-3.452-1.703h3.469q-.063-.797-.391-1.188-.516-.609-1.313-.609-.734 0-1.234.484-.484.485-.531 1.313z"/><path fill="#9e9e9e" d="M546.95 347.184l1.063-.14q.171.89.609 1.297.437.39 1.062.39.75 0 1.266-.515.516-.516.516-1.282 0-.718-.485-1.187-.468-.485-1.203-.485-.297 0-.75.125l.125-.937q.11.016.172.016.672 0 1.203-.344.547-.36.547-1.094 0-.578-.39-.953-.391-.39-1.016-.39-.61 0-1.031.39-.407.39-.516 1.156l-1.063-.187q.188-1.047.875-1.625.688-.594 1.704-.594.703 0 1.296.313.594.296.907.812.312.516.312 1.11 0 .546-.297 1.015-.297.453-.875.719.75.172 1.172.734.422.547.422 1.39 0 1.126-.828 1.907-.813.781-2.063.781-1.125 0-1.875-.672-.75-.687-.859-1.75zm7-1.968q0-1.532.313-2.454.312-.937.921-1.437.625-.5 1.563-.5.687 0 1.203.281.531.281.875.813.344.515.531 1.265.188.75.188 2.032 0 1.515-.313 2.437-.297.922-.922 1.438-.609.5-1.562.5-1.234 0-1.953-.891-.844-1.063-.844-3.484zm1.078 0q0 2.109.5 2.812.5.703 1.219.703.734 0 1.219-.703.5-.703.5-2.812 0-2.125-.5-2.813-.485-.703-1.235-.703-.718 0-1.156.61-.547.78-.547 2.906zm6.485 4.234v-1.203h1.203v1.203q0 .656-.235 1.063-.234.421-.734.64l-.297-.453q.328-.14.484-.438.157-.28.188-.812h-.61zm2.437-4.234q0-1.532.313-2.454.312-.937.921-1.437.625-.5 1.563-.5.687 0 1.203.281.531.281.875.813.344.515.531 1.265.188.75.188 2.032 0 1.515-.313 2.437-.297.922-.922 1.438-.609.5-1.562.5-1.234 0-1.953-.891-.844-1.063-.844-3.484zm1.078 0q0 2.109.5 2.812.5.703 1.219.703.734 0 1.219-.703.5-.703.5-2.812 0-2.125-.5-2.813-.485-.703-1.235-.703-.718 0-1.156.61-.547.78-.547 2.906zm6.125-2.297q0-.922.453-1.563.469-.64 1.344-.64.813 0 1.344.578.531.578.531 1.687 0 1.094-.547 1.688-.531.578-1.312.578-.782 0-1.297-.578-.516-.578-.516-1.75zm1.828-1.485q-.39 0-.656.344-.25.344-.25 1.25 0 .828.25 1.172.266.328.656.328.407 0 .657-.344.265-.343.265-1.234 0-.844-.265-1.172-.266-.344-.657-.344zm0 8.328l4.703-9.046h.86l-4.688 9.046h-.875zm3.719-2.328q0-.922.453-1.562.469-.64 1.36-.64.812 0 1.343.577.532.563.532 1.688 0 1.094-.547 1.687-.532.578-1.328.578-.766 0-1.297-.578-.516-.578-.516-1.75zm1.844-1.484q-.406 0-.672.344-.25.344-.25 1.25 0 .812.266 1.156.265.344.656.344.39 0 .656-.344t.266-1.25q0-.828-.266-1.156-.266-.344-.656-.344z"/><path stroke="#757575" stroke-linecap="butt" d="M581.45 336.95h-108.5L300 344.103"/><path fill="#9e9e9e" d="M302 344.103a2 2 0 10-4 0 2 2 0 004 0"/></symbol>
<symbol id="i-crafting-mining" viewBox="0 0 32 32" fill="none" xmlns="http://www.w3.org/2000/svg"><path d="M12 13.333H2.667A1.334 1.334 0 011.333 12V2.667a1.333 1.333 0 011.334-1.334H12a1.333 1.333 0 011.333 1.334V12A1.334 1.334 0 0112 13.333zM12 30.667H2.667a1.333 1.333 0 01-1.334-1.334V20a1.333 1.333 0 011.334-1.333H12A1.334 1.334 0 0113.333 20v9.333A1.333 1.333 0 0112 30.667z" fill="#8C30F5"/><path d="M17.333 2.667h13.334v2.666H17.333V2.667zM30.667 20H17.333v2.667h13.334V20z" fill="#2EC5CE"/><path d="M30.667 26.667H17.333v2.666h13.334v-2.666zM30.667 9.333H17.333V12h13.334V9.333z" fill="#D6B1FF"/></symbol>
<symbol id="i-get-started" viewBox="0 0 257 48" fill="none" xmlns="http://www.w3.org/2000/svg"><circle cx="24" cy="24" r="23" stroke="#F4F5F7" stroke-width="2"/><path clip-rule="evenodd" d="M20.227 17.2a.344.344 0 00-.335-.025.296.296 0 00-.176.266V30.56c0 .112.068.215.176.265a.343.343 0 00.335-.025l9.643-6.559a.292.292 0 00.131-.24.292.292 0 00-.13-.241l-9.644-6.56z" stroke="#F4F5F7" stroke-width="2"/><path stroke="#F4F5F7" stroke-width="2" d="M56 23h80"/><path d="M149.18 29.21c.971 0 1.813-.21 2.527-.63a4.361 4.361 0 001.659-1.757c.392-.747.588-1.603.588-2.569l-.007-.266a3.29 3.29 0 00-.021-.322H150.3v1.47h1.596c-.154.798-.462 1.381-.924 1.75-.457.369-1.013.546-1.666.532-.957-.014-1.675-.331-2.156-.952-.476-.62-.714-1.456-.714-2.506 0-1.05.238-1.892.714-2.527.481-.635 1.199-.945 2.156-.931.644.005 1.171.184 1.582.539.415.35.714.819.896 1.407l1.946-.28c-.252-1.101-.749-1.953-1.491-2.555-.742-.602-1.762-.903-3.059-.903-.877 0-1.678.205-2.401.616-.719.41-1.293 1.008-1.722 1.792-.425.78-.637 1.727-.637 2.842 0 .854.126 1.608.378 2.261.257.653.604 1.202 1.043 1.645.443.443.952.78 1.526 1.008a4.941 4.941 0 001.813.336zm8.177-.21h6.58v-1.778h-4.676v-2.59h3.836v-1.778h-3.836v-2.156h4.676V18.92h-6.58V29zm12.596 0h1.904v-8.302h3.178V18.92h-8.26v1.778h3.178V29zm16.394.21a5.66 5.66 0 001.491-.196c.485-.13.919-.327 1.302-.588.382-.266.686-.6.91-1.001.228-.406.343-.88.343-1.421 0-.509-.096-.929-.287-1.26a2.34 2.34 0 00-.721-.798 3.71 3.71 0 00-.91-.476c-.318-.117-.607-.21-.868-.28l-1.75-.476a4.95 4.95 0 01-.63-.21 1.522 1.522 0 01-.511-.329.74.74 0 01-.203-.539c0-.238.081-.443.245-.616.168-.173.382-.303.644-.392.266-.093.548-.135.847-.126.457.014.877.15 1.26.406.382.257.63.63.742 1.12l2.058-.35c-.243-.947-.714-1.673-1.414-2.177s-1.573-.763-2.618-.777a5.118 5.118 0 00-1.89.322 3.04 3.04 0 00-1.365 1.001c-.341.448-.511 1.01-.511 1.687 0 .48.079.88.238 1.197.163.313.366.565.609.756.242.191.492.338.749.441.261.103.49.182.686.238l2.618.77c.392.117.653.264.784.441.13.173.196.362.196.567 0 .28-.096.516-.287.707a1.77 1.77 0 01-.721.434 2.862 2.862 0 01-.91.147c-.56 0-1.06-.156-1.498-.469-.439-.313-.728-.758-.868-1.337l-1.988.294c.102.681.345 1.27.728 1.764.387.49.879.868 1.477 1.134.602.261 1.276.392 2.023.392zm9.922-.21h1.904v-8.302h3.178V18.92h-8.26v1.778h3.178V29zm7.234 0h1.96l.637-2.1h3.794l.651 2.1h1.96l-3.08-10.08h-2.842L203.503 29zm3.136-3.878l1.344-4.417 1.365 4.417h-2.709zm9.12 3.878h1.904v-3.416h2.121L221.443 29h2.156l-1.82-3.738c.574-.261.997-.656 1.267-1.183.276-.532.413-1.141.413-1.827 0-.85-.207-1.573-.623-2.17-.415-.597-1.075-.966-1.981-1.106a3.052 3.052 0 00-.448-.042 7.24 7.24 0 00-.392-.014h-4.256V29zm1.904-5.194v-3.108h2.268c.098 0 .206.005.322.014.117.01.224.028.322.056.257.07.455.189.595.357.14.163.236.348.287.553.056.2.084.392.084.574 0 .182-.028.376-.084.581-.051.2-.147.385-.287.553a1.16 1.16 0 01-.595.35 1.644 1.644 0 01-.322.056c-.116.01-.224.014-.322.014h-2.268zM229.476 29h1.904v-8.302h3.178V18.92h-8.26v1.778h3.178V29zm8.207 0h6.58v-1.778h-4.676v-2.59h3.836v-1.778h-3.836v-2.156h4.676V18.92h-6.58V29zm10.258 0h3.262c.079 0 .243-.002.49-.007s.485-.021.714-.049c.812-.098 1.5-.38 2.065-.847a4.442 4.442 0 001.288-1.778 6.172 6.172 0 00.441-2.359c0-.854-.147-1.64-.441-2.359a4.442 4.442 0 00-1.288-1.778c-.565-.467-1.253-.749-2.065-.847a6.978 6.978 0 00-.714-.049 32.506 32.506 0 00-.49-.007h-3.262V29zm1.932-1.792v-6.496h1.33c.126 0 .296.002.511.007.215.005.408.026.581.063.425.084.777.282 1.057.595.28.313.488.695.623 1.148.14.453.21.931.21 1.435 0 .48-.068.947-.203 1.4-.131.453-.336.84-.616 1.162a1.844 1.844 0 01-1.071.616 4.091 4.091 0 01-.581.063c-.215.005-.385.007-.511.007h-1.33z" fill="#F4F5F7"/></symbol>
<symbol id="i-logo-full" viewBox="0 0 1790 500" fill="none" xmlns="http://www.w3.org/2000/svg"><path d="M145.096 189.434L250 128.868l104.904 60.566v121.132L250 371.132l-104.904-60.566V189.434z" stroke="#fff" stroke-width="50"/><path d="M529.8 297H504V196.95h50.1c10.8 0 19.3 3.2 25.5 9.6 6.2 6.3 9.3 14.2 9.3 23.7 0 9.4-3.1 17.3-9.3 23.7-6.2 6.3-14.7 9.45-25.5 9.45h-24.3V297zm20.85-56.1c3.5 0 6.35-.95 8.55-2.85 2.3-1.9 3.45-4.5 3.45-7.8 0-3.4-1.15-6.05-3.45-7.95-2.2-1.9-5.05-2.85-8.55-2.85H529.8v21.45h20.85zm75.15 57.9c-11.9 0-21.45-3.7-28.65-11.1-7.2-7.4-10.8-16.4-10.8-27 0-10.6 3.6-19.55 10.8-26.85 7.2-7.4 16.75-11.1 28.65-11.1 12 0 21.6 3.7 28.8 11.1 7.2 7.3 10.8 16.25 10.8 26.85 0 10.6-3.6 19.6-10.8 27-7.2 7.4-16.8 11.1-28.8 11.1zm-11.55-25.35c2.8 3.3 6.65 4.95 11.55 4.95s8.75-1.65 11.55-4.95c2.9-3.4 4.35-7.65 4.35-12.75 0-5-1.45-9.15-4.35-12.45-2.8-3.4-6.65-5.1-11.55-5.1s-8.75 1.7-11.55 5.1c-2.7 3.3-4.05 7.45-4.05 12.45 0 5.1 1.35 9.35 4.05 12.75zM694.676 297h-23.1V196.95h23.1V297zm9.244 28.2l3.3-20.55c1.6.9 3.5 1.35 5.7 1.35 5.4 0 8.65-1.35 9.75-4.05l1.65-3.9-28.8-73.5h24.3l16.35 45.9 16.5-45.9h24.45l-32.7 82.8c-2.7 7.1-6.55 12-11.55 14.7-5 2.7-11.35 4.15-19.05 4.35-4 0-7.3-.4-9.9-1.2zm104.312 1.2c-12.6 0-23.3-3.6-32.1-10.8l10.05-16.5c5.2 5.6 12.55 8.4 22.05 8.4 4.8 0 9.05-1.25 12.75-3.75 3.8-2.5 5.7-6.8 5.7-12.9v-5.55c-6 7-13.15 10.5-21.45 10.5-9.3 0-16.95-3.15-22.95-9.45-6-6.4-9-15.45-9-27.15 0-11.6 2.95-20.55 8.85-26.85 6-6.4 13.7-9.6 23.1-9.6 8.7 0 15.85 3.45 21.45 10.35v-8.55h22.95v66c0 5.7-.9 10.7-2.7 15-1.7 4.4-3.9 7.85-6.6 10.35-2.7 2.6-5.95 4.7-9.75 6.3-3.8 1.7-7.5 2.8-11.1 3.3-3.6.6-7.35.9-11.25.9zm4.65-51c2.5 0 5.05-.6 7.65-1.8 2.7-1.2 4.75-2.75 6.15-4.65V249.6c-1.4-1.9-3.45-3.45-6.15-4.65-2.6-1.2-5.15-1.8-7.65-1.8-4.7 0-8.55 1.4-11.55 4.2-2.9 2.8-4.35 6.75-4.35 11.85 0 5.2 1.45 9.2 4.35 12 3 2.8 6.85 4.2 11.55 4.2zm82.326 23.4c-11.9 0-21.45-3.7-28.65-11.1-7.2-7.4-10.8-16.4-10.8-27 0-10.6 3.6-19.55 10.8-26.85 7.2-7.4 16.75-11.1 28.65-11.1 12 0 21.6 3.7 28.8 11.1 7.2 7.3 10.8 16.25 10.8 26.85 0 10.6-3.6 19.6-10.8 27-7.2 7.4-16.8 11.1-28.8 11.1zm-11.55-25.35c2.8 3.3 6.65 4.95 11.55 4.95s8.75-1.65 11.55-4.95c2.9-3.4 4.35-7.65 4.35-12.75 0-5-1.45-9.15-4.35-12.45-2.8-3.4-6.65-5.1-11.55-5.1s-8.75 1.7-11.55 5.1c-2.7 3.3-4.05 7.45-4.05 12.45 0 5.1 1.35 9.35 4.05 12.75zM1013.13 297h-23.096v-41.85c0-8-3.95-12-11.85-12-5.6 0-10.3 2.35-14.1 7.05V297h-23.1v-72.45h23.1v8.85c6.1-7.1 14.45-10.65 25.05-10.65 8 0 13.996 2.1 17.996 6.3 4 4.1 6 9.65 6 16.65V297zm82.77 0h-23.1v-8.7c-6.2 7-14.55 10.5-25.05 10.5-8 0-14-2-18-6-3.9-4.1-5.85-9.65-5.85-16.65v-51.6h23.1v42.15c0 7.8 4 11.7 12 11.7 5.5 0 10.1-2.35 13.8-7.05v-46.8h23.1V297zm125.07 0h-22.95v-44.1c0-6.5-3.2-9.75-9.6-9.75-5.2 0-9.55 2.35-13.05 7.05V297h-23.1v-44.1c0-6.5-3.2-9.75-9.6-9.75-4.8 0-9.1 2.35-12.9 7.05V297h-23.1v-72.45h23.1v8.85c1.9-2.5 5.05-4.9 9.45-7.2 4.4-2.3 9.2-3.45 14.4-3.45 10.7 0 17.55 4.3 20.55 12.9 2.3-3.5 5.7-6.5 10.2-9 4.6-2.6 9.55-3.9 14.85-3.9 6.9 0 12.25 1.85 16.05 5.55 3.8 3.6 5.7 9 5.7 16.2V297zm32.55-2.4c-2.8 2.8-6.1 4.2-9.9 4.2-3.8 0-7.1-1.4-9.9-4.2-2.8-2.8-4.2-6.1-4.2-9.9 0-3.8 1.4-7.1 4.2-9.9 2.8-2.8 6.1-4.2 9.9-4.2 3.8 0 7.1 1.4 9.9 4.2 2.8 2.8 4.2 6.1 4.2 9.9 0 3.8-1.4 7.1-4.2 9.9zm100.13-10.35c-10.1 9.7-22.85 14.55-38.25 14.55-15.4 0-28.2-4.85-38.4-14.55-10.1-9.7-15.15-22.1-15.15-37.2 0-15.1 5.05-27.5 15.15-37.2 10.2-9.7 23-14.55 38.4-14.55 15.4 0 28.15 4.85 38.25 14.55 10.1 9.7 15.15 22.1 15.15 37.2 0 15.1-5.05 27.5-15.15 37.2zM1315.4 276c8.1 0 14.65-2.75 19.65-8.25 5-5.5 7.5-12.4 7.5-20.7 0-8.3-2.5-15.2-7.5-20.7s-11.55-8.25-19.65-8.25c-8.2 0-14.8 2.75-19.8 8.25s-7.5 12.4-7.5 20.7c0 8.3 2.5 15.2 7.5 20.7s11.6 8.25 19.8 8.25zm131.94 21h-23.1v-41.85c0-8-3.95-12-11.85-12-5.6 0-10.3 2.35-14.1 7.05V297h-23.1v-72.45h23.1v8.85c6.1-7.1 14.45-10.65 25.05-10.65 8 0 14 2.1 18 6.3 4 4.1 6 9.65 6 16.65V297zm33.87 0h-23.1V196.95h23.1V297zm31.59-82.8c-2.5 2.6-5.6 3.9-9.3 3.9-3.7 0-6.85-1.3-9.45-3.9-2.5-2.6-3.75-5.75-3.75-9.45 0-3.7 1.25-6.8 3.75-9.3 2.6-2.6 5.75-3.9 9.45-3.9 3.7 0 6.8 1.3 9.3 3.9 2.6 2.5 3.9 5.6 3.9 9.3 0 3.7-1.3 6.85-3.9 9.45zm2.25 82.8h-23.1v-72.45h23.1V297zm82.9 0h-23.1v-41.85c0-8-3.95-12-11.85-12-5.6 0-10.3 2.35-14.1 7.05V297h-23.1v-72.45h23.1v8.85c6.1-7.1 14.45-10.65 25.05-10.65 8 0 14 2.1 18 6.3 4 4.1 6 9.65 6 16.65V297zm45.56 1.8c-11.4 0-20.85-3.45-28.35-10.35-7.5-7-11.25-16.25-11.25-27.75 0-10.7 3.6-19.7 10.8-27 7.3-7.3 16.55-10.95 27.75-10.95 10.9 0 19.8 3.7 26.7 11.1 6.9 7.3 10.35 17.05 10.35 29.25v4.95h-51.6c.7 3.6 2.65 6.65 5.85 9.15 3.2 2.5 7.3 3.75 12.3 3.75 2.8 0 6-.55 9.6-1.65 3.7-1.2 6.5-2.7 8.4-4.5l9.75 14.4c-3.5 3.1-8 5.5-13.5 7.2-5.4 1.6-11 2.4-16.8 2.4zm13.95-45.75c-.4-3.2-1.8-6.05-4.2-8.55-2.4-2.6-6-3.9-10.8-3.9-4.5 0-7.95 1.25-10.35 3.75-2.4 2.5-3.9 5.4-4.5 8.7h29.85z" fill="#fff"/></symbol>
<symbol id="i-logo" data-name="Layer 1" xmlns="http://www.w3.org/2000/svg" viewBox="0 0 512 512"><path d="M511.78 381.2c-.15-5.78-.26-11.56-.28-17.35L512 164c1.28-33.59-36.54-53.21-36.54-53.21L284.65 7.92a58.65 58.65 0 00-14.77-6C246-4 226.29 7.12 226.29 7.12l-203.46 112c-9 4.92-14.61 13.47-18.11 21.54a67 67 0 00-5.46 26.78l.3 219.2a53.33 53.33 0 009.74 30.77l.36.51A53 53 0 0026 432.63l72.86 36.5.21-.24 1.29-6.57a1 1 0 011-.82c1.59.06 5 .42 7.22 2.34a3 3 0 01.72 3.47 6.57 6.57 0 01-3.46 3.57.54.54 0 00-.08 1l21.9 12.6a1.15 1.15 0 001.72-1c.06-4.76.34-16.69 1.75-19.25 1.76-3.22 10.58-4.34 10.58.48s-5.13 11.41-5.93 14.79 0 9.16 3.85 9.8c3.14.53 1.26-2.81.37-4.84a.35.35 0 01.53-.41l8.18 6.38a.38.38 0 00.6-.43c-.29-.83-3.24-4.66-2.94-9.7.8-13.51.42-26.63.58-31a.32.32 0 01.63-.1 94.79 94.79 0 014.08 18.1c1.35 9.87 4.79 11.6 6.31 11.87a.65.65 0 01.51.83l-2.13 7.2a7 7 0 00.17 4.51l1.08 2.79a.71.71 0 001.25.14c2.55-3.79 10.33-16.22 5.32-20.43-5.93-5-2.89-7.71-3.05-11.57s-3-16.55-8.66-22.82 6.58-5.63 8.66-1.77c1.81 3.34 2.29 16.72 2.39 20.22a2.21 2.21 0 00.59 1.46l3.08 3.42a.43.43 0 00.75-.32l-.66-9.37a.38.38 0 01.6-.34l2.27 1.55a1.48 1.48 0 01.64 1.16l.52 12.17a3.41 3.41 0 003.27 3.3 3.35 3.35 0 003.42-3.37l-.13-33.75a.67.67 0 011.21-.39l5.3 7.45a.6.6 0 001.08-.35l-.14-19.5s-7.41-33.43-6.17-58.75a57.51 57.51 0 012.55-14.36c1.3-4.19 2.73-11.1.07-16.08a21.58 21.58 0 01-2-5.14c-.43-1.81-1-4.38-1.51-7.89-1.57-9.86-8.21-13.51-9.45-17.1-.21-.6-.45-1.18-.7-1.76-.92-2.2-2.73-8.5-2.36-23.57.48-20.09-2.57-22.5-3.21-26.52s-1.29-19.45 9.62-29.25 12.43-12.78 19.49-12.62 7.06 10.77 6.26 12.22-7.9 12.69-7.9 12.69l-.6 6.74 9.34 10.43a28.23 28.23 0 015.18 8.35l.4 1 .09-.18c1.19-5 .9-10.11 2.15-15.41 1.48-6.26 2.09-13 4.81-19.28 0 0 1.76-1.91 1.77-1.93 1.48-4.31 1.3-7.29 1.09-11.84l-.51-11.2c-.05-1-.07-1.94-.1-2.9a59.8 59.8 0 00-.79-6.6c-1.78-8.13-1.74-8.37-2-13.82l-1-21.23a24.58 24.58 0 01.86-7.68 47.12 47.12 0 0112.18-20.5q2.34-2.35 4.53-4.85c4.22-4.8 13.78-14.14 20-8.52 8.18 7.4 2.4 17.36 2.4 17.36s-8.46 14.69-10.7 22.75c-.33 1.17-.7 2.32-1.1 3.47-1.18 3.42-3.17 10.57-1 15.09 2.43 5.13 13.92 20.72 17.53 25.56a2.26 2.26 0 003.92-.53 17.38 17.38 0 00.85-3.49c.94-6.24 3.72-19.12 3.89-27.62a25.93 25.93 0 012.62-10.79c3-6.15 8.3-15.14 15.72-20.26a11.11 11.11 0 016.08-1.95 46 46 0 0113.82 1.68 17.35 17.35 0 003 .63c4.13.48 14.58 1.73 16.75 2.37 2.73.81 8.83 3.06 6.58 8.84a41.9 41.9 0 01-5.76 9.58 12.51 12.51 0 01-3.95 3.32 13.65 13.65 0 01-5.21 1.25c-2.76.21-6.56-.2-9.14.32a18.78 18.78 0 00-7.06 3.54l-2.64 2.56c-.34.33-.67.67-1 1l-1.78 2a19.53 19.53 0 00-3.53 6.43c-1.17 4.68-1 16.06-2.41 21.54-1.76 7.07-.32 16.87 3.21 19.28 2.1 1.44 4.53 2.59 9.3.65 4.23-1.72 8.89-4.14 11.71-7.72 2.6-3.28 5.52-8.09 9.93-9.83l.62-.26c3.09-1.38 30.66-13.83 42.63-2.84l.4.37c1.2 1 8.56 8 4.83 20.56a5.16 5.16 0 01-2.89 3.28c-3.92 1.7-4.79-.06-18.94.13-2.94 0-9.36.76-12.14 1.72-4.93 1.71-11.92 5.16-13.78 11.38-.22.73-.45 1.45-.71 2.16-1.59 4.37-6.32 18.84-1.63 24.86.49.64 1 1.29 1.44 1.93 1.12 1.53 5 4.12 18 .39 16.91-4.87 26.18-6.06 34.67.32l1.29.94c1.9 1.33 6.87 4.84 7.19 7.9.14 1.35.6 3.78.64 6.1s0 3.9 0 5a16 16 0 01-.92 3.8 5 5 0 01-3.73 3.59c-4 .8-5.94-2.57-8-6.11a.61.61 0 01-.07-.1 8.3 8.3 0 00-6.85-3.73c-8-.51-28.16 2.43-41.85 13.64 0 0-13 7.55-13.63 19.12 0 0-.81 17-24.23 42.76s-26 43.55-24.22 54c1.05 6.2 5.21 22.58 9.14 36.32 2.7 9.42 5.14 15.76 5.94 20.58 1 5.9 6.69 22.54 8.73 27.24.22.5 2.26.69 2.28.14l-.33-7.36c-.05-1-.22-2.32.39-3a2.63 2.63 0 013.81-.45l3 1.93a3 3 0 004.54-3 33.47 33.47 0 00-2.79-8.94 59.41 59.41 0 01-3.92-9 3 3 0 013-4.1 2.24 2.24 0 002.2-2.64 15.72 15.72 0 00-1.94-5.13l-.87-1.48a1.62 1.62 0 01.44-2.14l11.64-8.45a1.1 1.1 0 011.75.9l-.94 17.66a2 2 0 00.06.65 1.24 1.24 0 001.94.69l.3-.2a.93.93 0 011.46.81 10.17 10.17 0 01-.9 3.8l-2.82 6.22a3.18 3.18 0 00-.27 1.69l.49 4.41a.84.84 0 001.48.44c2.18-2.66 6.67-8.43 9.16-13.77s5.67-12.15 7.16-15.37a.64.64 0 011.2.13c.68 2.89 2.66 7.91 8.06 7.44a.52.52 0 01.45.86l-12 14a11.53 11.53 0 00-2.65 5.67 6 6 0 000 2.15 1.53 1.53 0 002.58.74l6-5.92a.57.57 0 01.9.66l-5.83 11.36a1 1 0 001.22 1.43c2.53-.83 6.59-2.62 9-6a20.67 20.67 0 012-2.39l1.06-1.1a.68.68 0 011.17.6 15.86 15.86 0 01-4.42 7.57 2.18 2.18 0 00-.64 2.09 2 2 0 001.76 1.29c2.54 0 7.54-3.55 7.54-7.23a.58.58 0 011.11-.28 28.06 28.06 0 011.59 13.7c-.05.45-.08.9-.1 1.36a16.51 16.51 0 01-.37 2.71v.13l-.31 1.6a2.43 2.43 0 01-1.93 2.07l-.73.16-3.16.87a.94.94 0 00-.76 1.36l2 3.95 151.94-81.7c22.11-13.95 23.64-39 23.42-48.31zm-391.84 66.95c-4 .65-10.11-8.51-10.11-8.51s-3.37-4.5 2.09-4.66a49 49 0 016 .18 4.48 4.48 0 014 3.93c.46 3.56.6 8.65-1.98 9.06zm-2.25-21.37c-6.84-6-3.52-20.79-2.61-24.31a.6.6 0 01.89-.37c7.34 4.5 9.52 12.69 9.85 14.16 0 .13.09.26.12.39.9 4.35-2.15 15.46-8.25 10.13zm26.82 22.64a6.17 6.17 0 01-1.56 4.05c-1.5 1.65-3.41 2-6.32-1.38a5.2 5.2 0 01-.51-.72 14.18 14.18 0 00-3.57-4.06 4.36 4.36 0 01-2.14-3.19 9.49 9.49 0 010-1.6l.23-3.64q.06-.86.06-1.71v-2.68a26.07 26.07 0 00-.33-4.14l-.43-2.63a2 2 0 012-2l9.57.34a1.78 1.78 0 011.64 2.31l-3.61 11.69a1.21 1.21 0 001.22 1.57l1.64-.1a2.09 2.09 0 012.2 2.12z" fill="#fff"/></symbol>
<symbol id="i-marketplace" viewBox="0 0 32 32" fill="none" xmlns="http://www.w3.org/2000/svg"><path d="M24 13.333h8L28 8l-4 5.333zm0 5.334h8L28 24l-4-5.333z" fill="#D6B1FF"/><path d="M1.333 0h8v32h-8A1.334 1.334 0 010 30.667V1.333A1.333 1.333 0 011.333 0z" fill="#8C30F5"/><path d="M12 0h8a1.333 1.333 0 011.333 1.333v29.334A1.333 1.333 0 0120 32h-8V0z" fill="#2EC5CE"/></symbol>
<symbol id="i-title-bg" viewBox="0 0 285 60" fill="none" xmlns="http://www.w3.org/2000/svg"><path d="M0 5.294L284.118 0l-3.53 59.935H2.648L0 5.295z" fill="#6490F1"/></symbol>
<symbol id="i-zones" viewBox="0 0 32 32" fill="none" xmlns="http://www.w3.org/2000/svg"><path d="M28 32H16a1.334 1.334 0 01-1.333-1.333V28A1.334 1.334 0 0116 26.667h12A1.334 1.334 0 0129.333 28v2.667A1.334 1.334 0 0128 32z" fill="#D6B1FF"/><path d="M28 0H4a1.333 1.333 0 00-1.333 1.333V4A1.333 1.333 0 004 5.333h24A1.333 1.333 0 0029.333 4V1.333A1.334 1.334 0 0028 0z" fill="#2EC5CE"/><path d="M28 8H4a1.333 1.333 0 00-1.333 1.333v13.334A1.333 1.333 0 004 24h24a1.334 1.334 0 001.333-1.333V9.333A1.334 1.334 0 0028 8z" fill="#8C30F5"/></symbol>
</svg>