<svg width="32" height="32" viewBox="0 0 32 32" fill="none" xmlns="http://www.w3.org/2000/svg">
<path d="M27.129 6.01599C25.0429 5.072 22.8274 4.384 20.5149 4C20.2238 4.496 19.9004 5.16799 19.674 5.696C17.2143 5.34399 14.7724 5.34399 12.3467 5.696C12.1203 5.16799 11.7807 4.496 11.5058 4C9.17716 4.384 6.96168 5.072 4.89014 6.01599C0.701767 12.128 -0.430231 18.0959 0.135767 23.9839C2.91723 25.9839 5.6017 27.2 8.23925 28C8.88611 27.1359 9.46829 26.2079 9.9696 25.232C9.01549 24.8799 8.10989 24.4479 7.23664 23.9359C7.46304 23.776 7.68944 23.6 7.89967 23.424C13.1715 25.808 18.8817 25.808 24.0888 23.424C24.3152 23.6 24.5254 23.776 24.7518 23.9359C23.8785 24.4479 22.9729 24.8799 22.0188 25.232C22.5201 26.2079 23.1023 27.1359 23.7492 28C26.3851 27.2 29.0857 25.9839 31.8526 23.9839C32.5479 17.168 30.7514 11.248 27.129 6.01599ZM10.6973 20.3519C9.11249 20.3519 7.81878 18.928 7.81878 17.184C7.81878 15.44 9.08014 14.0159 10.6973 14.0159C12.2982 14.0159 13.6081 15.44 13.5758 17.184C13.5758 18.928 12.2982 20.3519 10.6973 20.3519ZM21.3236 20.3519C19.7387 20.3519 18.4433 18.928 18.4433 17.184C18.4433 15.44 19.7063 14.0159 21.3236 14.0159C22.9244 14.0159 24.2343 15.44 24.202 17.184C24.202 18.928 22.9406 20.3519 21.3236 20.3519Z" fill="#222222"/>
</svg>
