<svg width="32" height="25" viewBox="0 0 32 25" fill="none" xmlns="http://www.w3.org/2000/svg">
<path d="M26.8415 2.89148C24.7775 1.94749 22.5855 1.25949 20.2975 0.875488C20.0095 1.37149 19.6895 2.04348 19.4655 2.57149C17.0319 2.21948 14.6159 2.21948 12.2159 2.57149C11.9919 2.04348 11.6559 1.37149 11.3839 0.875488C9.07991 1.25949 6.88791 1.94749 4.83832 2.89148C0.694331 9.00346 -0.425672 14.9714 0.134328 20.8594C2.88632 22.8594 5.54234 24.0755 8.15194 24.8755C8.79194 24.0114 9.36795 23.0834 9.86395 22.1075C8.91995 21.7554 8.02395 21.3234 7.15995 20.8114C7.38395 20.6515 7.60796 20.4755 7.81596 20.2995C13.0319 22.6835 18.6816 22.6835 23.8335 20.2995C24.0575 20.4755 24.2655 20.6515 24.4895 20.8114C23.6255 21.3234 22.7295 21.7554 21.7855 22.1075C22.2815 23.0834 22.8575 24.0114 23.4975 24.8755C26.1055 24.0755 28.7775 22.8594 31.5151 20.8594C32.203 14.0435 30.4255 8.12352 26.8415 2.89148ZM10.5839 17.2274C9.01592 17.2274 7.73592 15.8035 7.73592 14.0595C7.73592 12.3155 8.98392 10.8914 10.5839 10.8914C12.1679 10.8914 13.4639 12.3155 13.4319 14.0595C13.4319 15.8035 12.1679 17.2274 10.5839 17.2274ZM21.0976 17.2274C19.5295 17.2274 18.2479 15.8035 18.2479 14.0595C18.2479 12.3155 19.4975 10.8914 21.0976 10.8914C22.6815 10.8914 23.9775 12.3155 23.9455 14.0595C23.9455 15.8035 22.6975 17.2274 21.0976 17.2274Z" fill="#ffffff"/>
</svg>
