<svg width="32" height="32" viewBox="0 0 32 32" fill="none" xmlns="http://www.w3.org/2000/svg">
<g clip-path="url(#clip0_783:62)">
<path d="M14.4002 23.6999C14.9002 23.6999 15.3502 24.0999 15.3502 24.6499C15.3502 25.1499 14.9502 25.5999 14.4002 25.5999C13.9002 25.5999 13.4502 25.1999 13.4502 24.6499C13.4502 24.0999 13.9002 23.6999 14.4002 23.6999ZM29.1002 17.8999C28.6002 17.8999 28.1502 17.4999 28.1502 16.9499C28.1502 16.4499 28.5502 15.9999 29.1002 15.9999C29.6002 15.9999 30.0502 16.3999 30.0502 16.9499C30.0502 17.4499 29.6002 17.8999 29.1002 17.8999ZM29.1002 14.0499C27.5002 14.0499 26.2002 15.3499 26.2002 16.9499C26.2002 17.2499 26.2502 17.5499 26.3502 17.8499L16.8002 22.9499C16.2502 22.1499 15.3502 21.6999 14.4002 21.6999C13.3002 21.6999 12.3002 22.3499 11.8002 23.2999L3.20023 18.7999C2.30023 18.2999 1.60023 16.8499 1.70023 15.4499C1.75023 14.7499 2.00023 14.1999 2.35023 13.9999C2.60023 13.8499 2.85023 13.8999 3.20023 14.0499L3.25023 14.0999C5.55023 15.2999 13.0002 19.1999 13.3002 19.3499C13.8002 19.5499 14.0502 19.6499 14.9002 19.2499L30.3002 11.2499C30.5502 11.1499 30.8002 10.9499 30.8002 10.5999C30.8002 10.1499 30.3502 9.94992 30.3502 9.94992C29.4502 9.54992 28.1002 8.89992 26.8002 8.29992C24.0002 6.99992 20.8002 5.49992 19.4002 4.74992C18.2002 4.09992 17.2002 4.64992 17.0502 4.74992L16.7002 4.89992C10.3502 8.09992 1.95023 12.2499 1.45023 12.5499C0.600233 13.0499 0.0502328 14.0999 0.00023279 15.3999C-0.0997672 17.4499 0.950233 19.5999 2.45023 20.3499L11.5502 25.0499C11.7502 26.4499 13.0002 27.5499 14.4002 27.5499C16.0002 27.5499 17.2502 26.2999 17.3002 24.6999L27.3002 19.2999C27.8002 19.6999 28.4502 19.8999 29.1002 19.8999C30.7002 19.8999 32.0002 18.5999 32.0002 16.9999C32.0002 15.3499 30.7002 14.0499 29.1002 14.0499Z" fill="black"/>
</g>
<defs>
<clipPath id="clip0_783:62">
<rect width="32" height="32" fill="white"/>
</clipPath>
</defs>
</svg>
