<svg width="10" height="17" viewBox="0 0 10 17" fill="none" xmlns="http://www.w3.org/2000/svg">
<path d="M0.000105336 8.09375C0.000105366 8.43458 0.123182 8.7186 0.388271 8.98369L7.31845 15.7624C7.5362 15.9801 7.80129 16.0938 8.11372 16.0938C8.7575 16.0938 9.25928 15.592 9.25928 14.9577C9.25928 14.6452 9.12673 14.3612 8.90898 14.134L2.7078 8.09375L8.90898 2.05351C9.12673 1.82629 9.25928 1.55174 9.25928 1.22985C9.25928 0.595526 8.7575 0.0937505 8.11371 0.0937506C7.80129 0.0937506 7.5362 0.20736 7.31845 0.425112L0.388271 7.20381C0.123182 7.4689 0.000105306 7.75292 0.000105336 8.09375Z" fill="white"/>
</svg>
