<svg width="153" height="40" viewBox="0 0 153 40" fill="none" xmlns="http://www.w3.org/2000/svg">
<path fill-rule="evenodd" clip-rule="evenodd" d="M27.9997 31.9999C34.5607 31.9999 39.892 26.7343 39.9979 20.1984L39.9995 20C39.9995 31.0456 31.0453 39.9998 19.9998 39.9998C8.9542 39.9998 0 31.0456 0 20L15.9998 20C15.9998 26.6273 21.3723 31.9999 27.9997 31.9999Z" fill="url(#paint0_linear)"/>
<path fill-rule="evenodd" clip-rule="evenodd" d="M12.0003 31.9999C5.43926 31.9999 0.108041 26.7343 0.00207258 20.1984L0.00046432 20C0.00046432 31.0456 8.95467 39.9998 20.0002 39.9998C31.0458 39.9998 40 31.0456 40 20L24.0002 20C24.0002 26.6273 18.6277 31.9999 12.0003 31.9999Z" fill="url(#paint1_linear)"/>
<path fill-rule="evenodd" clip-rule="evenodd" d="M12.0003 8.00014C5.43926 8.00014 0.108041 13.2657 0.00207258 19.8016L0.00046432 20C0.00046432 8.95443 8.95467 0.00023216 20.0002 0.00023216C31.0458 0.00023216 40 8.95443 40 20L24.0002 20C24.0002 13.3727 18.6277 8.00014 12.0003 8.00014Z" fill="url(#paint2_linear)"/>
<path fill-rule="evenodd" clip-rule="evenodd" d="M27.9997 8.00014C34.5607 8.00014 39.892 13.2657 39.9979 19.8016L39.9995 20C39.9995 8.95443 31.0453 0.00023216 19.9998 0.00023216C8.9542 0.00023216 0 8.95443 0 20L15.9998 20C15.9998 13.3727 21.3723 8.00014 27.9997 8.00014Z" fill="url(#paint3_linear)"/>
<path d="M15.799 19.7993H0.199219V20.1993H15.799V19.7993Z" fill="#EF9146"/>
<path d="M39.8 19.7993H24.2002V20.1993H39.8V19.7993Z" fill="#E57622"/>
<path d="M49.9965 28.247L50.0986 14.3031C50.0986 14.2573 50.11 14.2192 50.1327 14.1887C50.1554 14.1506 50.1818 14.1315 50.2121 14.1315C50.2877 14.1315 50.3369 14.1696 50.3596 14.2459L53.8089 26.6684C53.945 27.1489 54.1984 27.5302 54.5691 27.8123C54.9397 28.0945 55.3747 28.2356 55.8739 28.2356H55.9647C56.4563 28.2356 56.8913 28.0945 57.2695 27.8123C57.6477 27.5225 57.9011 27.1374 58.0297 26.657L61.4222 14.2459C61.4449 14.1696 61.4979 14.1315 61.5811 14.1315C61.6113 14.1315 61.6378 14.1506 61.6605 14.1887C61.6832 14.2192 61.6945 14.2573 61.6945 14.3031V28.247H63.7936V14.0743C63.7936 13.632 63.7142 13.2354 63.5553 12.8847C63.3965 12.5262 63.1733 12.2479 62.8859 12.0496C62.606 11.8437 62.2921 11.7408 61.9441 11.7408H61.6945C61.2029 11.7408 60.7717 11.8819 60.4011 12.164C60.038 12.4385 59.7884 12.8122 59.6522 13.285L56.0441 25.7648C56.0214 25.841 55.9722 25.8792 55.8966 25.8792C55.8134 25.8792 55.7604 25.841 55.7377 25.7648L52.2544 13.3193C52.1183 12.8313 51.8611 12.4462 51.4829 12.164C51.1122 11.8819 50.6811 11.7408 50.1894 11.7408C49.7809 11.7408 49.4141 11.8399 49.0888 12.0382C48.7636 12.2365 48.5064 12.511 48.3173 12.8618C48.1282 13.2049 48.0336 13.5977 48.0336 14.04L47.8975 28.247H49.9965Z" fill="#05070C"/>
<path d="M74.3997 21.2464C74.3997 20.4686 74.1349 19.7556 73.6054 19.1074C73.076 18.4668 72.3158 18.1465 71.3248 18.1465C70.3415 18.1465 69.5662 18.4935 68.9989 19.1875C68.4391 19.8814 68.1592 20.5677 68.1592 21.2464V21.3608H74.3997V21.2464ZM76.703 22.3217C76.6954 22.4971 76.6916 22.6305 76.6916 22.7221C76.6916 22.8059 76.6916 22.9356 76.6916 23.111H68.1592V23.2368C68.1592 24.1214 68.4467 24.884 69.0216 25.5246C69.5964 26.1651 70.3566 26.4854 71.3022 26.4854C72.7318 26.4854 73.7189 25.9402 74.2635 24.8497H76.4534C76.1659 25.9936 75.5532 26.8858 74.6153 27.5264C73.6773 28.1669 72.5729 28.4834 71.3022 28.4758C69.6683 28.4758 68.3635 27.9115 67.3877 26.7828C66.4119 25.6542 65.924 24.1595 65.924 22.2988C65.924 20.4381 66.3968 18.9511 67.3423 17.8377C68.2954 16.7243 69.6191 16.1676 71.3135 16.1676C73.0079 16.1676 74.3316 16.7243 75.2847 17.8377C76.2302 18.9663 76.703 20.461 76.703 22.3217Z" fill="#05070C"/>
<path d="M78.2293 28.247H80.3624V21.4409C80.3624 20.6097 80.6536 19.87 81.2361 19.2218C81.8034 18.5736 82.6279 18.2495 83.7096 18.2495H84.0613C84.1218 18.2571 84.2391 18.2762 84.413 18.3067V16.2134L83.9365 16.1562L83.7323 16.1447C82.8926 16.1447 82.1438 16.4307 81.4857 17.0026C80.8352 17.5746 80.4267 18.0588 80.2603 18.4554H80.0674L80.2603 16.4193H78.2293V28.247Z" fill="#05070C"/>
<path d="M87.7264 28.247H85.6274V16.3964H87.7264V28.247ZM85.2983 13.1134C85.2983 12.7398 85.4307 12.4195 85.6954 12.1526C85.9677 11.8857 86.2892 11.7522 86.6599 11.7522C87.0305 11.7522 87.3482 11.8857 87.6129 12.1526C87.8777 12.4195 88.0101 12.7398 88.0101 13.1134C88.0101 13.4871 87.8777 13.8112 87.6129 14.0857C87.3482 14.3526 87.0305 14.4861 86.6599 14.4861C86.2892 14.4861 85.9677 14.3526 85.6954 14.0857C85.4307 13.8112 85.2983 13.4871 85.2983 13.1134Z" fill="#05070C"/>
<path d="M93.1264 12.999H91.0841V14.589V16.3964H88.7241V18.1465H90.9026V24.9069C90.9026 25.9745 91.1862 26.8019 91.7535 27.3891C92.3209 27.961 93.0924 28.247 94.0682 28.247C94.4464 28.247 94.7717 28.2127 95.044 28.1441C95.3314 28.0983 95.5129 28.0602 95.5886 28.0297V26.0736C95.5129 26.1041 95.3768 26.1308 95.1801 26.1537C94.9532 26.169 94.7981 26.1766 94.7149 26.1766C94.1325 26.1766 93.7202 26.0469 93.4782 25.7877C93.2437 25.5208 93.1264 25.1128 93.1264 24.5637V18.1465H95.5886V16.3964H93.1264V12.999Z" fill="#05070C"/>
<path d="M113.959 23.0881C113.959 24.0261 113.478 25.1318 112.518 26.4054C112.041 26.9925 111.372 27.4844 110.51 27.881C109.647 28.2775 108.671 28.4758 107.582 28.4758C105.222 28.4758 103.467 27.7132 102.318 26.188C101.168 24.6628 100.593 22.6191 100.593 20.0568C100.593 17.4793 101.213 15.4126 102.454 13.857C103.702 12.3013 105.411 11.5234 107.582 11.5234C108.702 11.5234 109.704 11.7331 110.589 12.1526C111.482 12.572 112.151 13.0829 112.597 13.6854C113.52 15.0047 113.974 16.0799 113.959 16.9111H111.746C111.02 14.7225 109.632 13.5901 107.582 13.5138C106.047 13.5138 104.867 14.0857 104.042 15.2296C103.225 16.3735 102.813 17.9635 102.805 19.9996C102.805 22.0433 103.218 23.6372 104.042 24.781C104.874 25.9249 106.054 26.4931 107.582 26.4854C108.762 26.4854 109.689 26.1308 110.362 25.4216C111.043 24.7048 111.504 23.9269 111.746 23.0881H113.959Z" fill="#05070C"/>
<path d="M117.538 28.247H115.439V16.3964H117.538V28.247ZM115.11 13.1134C115.11 12.7398 115.242 12.4195 115.507 12.1526C115.779 11.8857 116.101 11.7522 116.471 11.7522C116.842 11.7522 117.16 11.8857 117.424 12.1526C117.689 12.4195 117.822 12.7398 117.822 13.1134C117.822 13.4871 117.689 13.8112 117.424 14.0857C117.16 14.3526 116.842 14.4861 116.471 14.4861C116.101 14.4861 115.779 14.3526 115.507 14.0857C115.242 13.8112 115.11 13.4871 115.11 13.1134Z" fill="#05070C"/>
<path d="M119.523 28.247H121.656V21.4409C121.656 20.6097 121.947 19.87 122.529 19.2218C123.097 18.5736 123.921 18.2495 125.003 18.2495H125.355C125.415 18.2571 125.532 18.2762 125.706 18.3067V16.2134L125.23 16.1562L125.026 16.1447C124.186 16.1447 123.437 16.4307 122.779 17.0026C122.129 17.5746 121.72 18.0588 121.554 18.4554H121.361L121.554 16.4193H119.523V28.247Z" fill="#05070C"/>
<path d="M134.296 20.4C133.797 18.9816 132.779 18.2304 131.244 18.1465C130.215 18.1389 129.398 18.524 128.793 19.3018C128.188 20.0797 127.885 21.0863 127.885 22.3217C127.885 23.5571 128.188 24.5599 128.793 25.3301C129.398 26.1003 130.215 26.4854 131.244 26.4854C132.779 26.4092 133.797 25.6618 134.296 24.2434H136.508C136.198 25.5551 135.589 26.5884 134.682 27.3433C133.774 28.0983 132.628 28.4758 131.244 28.4758C129.527 28.4758 128.184 27.9153 127.216 26.7943C126.255 25.6733 125.775 24.1786 125.775 22.3103C125.775 20.4419 126.255 18.9511 127.216 17.8377C128.184 16.7243 129.527 16.1638 131.244 16.1562C132.643 16.1562 133.797 16.5375 134.704 17.3C135.612 18.0626 136.213 19.0959 136.508 20.4H134.296Z" fill="#05070C"/>
<path d="M140.157 28.247H138.058V11.7522H140.157V28.247Z" fill="#05070C"/>
<path d="M150.269 21.2464C150.269 20.4686 150.004 19.7556 149.475 19.1074C148.945 18.4668 148.185 18.1465 147.194 18.1465C146.211 18.1465 145.435 18.4935 144.868 19.1875C144.308 19.8814 144.029 20.5677 144.029 21.2464V21.3608H150.269V21.2464ZM152.572 22.3217C152.565 22.4971 152.561 22.6305 152.561 22.7221C152.561 22.8059 152.561 22.9356 152.561 23.111H144.029V23.2368C144.029 24.1214 144.316 24.884 144.891 25.5246C145.466 26.1651 146.226 26.4854 147.171 26.4854C148.601 26.4854 149.588 25.9402 150.133 24.8497H152.323C152.035 25.9936 151.423 26.8858 150.485 27.5264C149.547 28.1669 148.442 28.4834 147.171 28.4758C145.538 28.4758 144.233 27.9115 143.257 26.7828C142.281 25.6542 141.793 24.1595 141.793 22.2988C141.793 20.4381 142.266 18.9511 143.212 17.8377C144.165 16.7243 145.488 16.1676 147.183 16.1676C148.877 16.1676 150.201 16.7243 151.154 17.8377C152.1 18.9663 152.572 20.461 152.572 22.3217Z" fill="#05070C"/>
<defs>
<linearGradient id="paint0_linear" x1="8.7499" y1="20" x2="9.37489" y2="39.9998" gradientUnits="userSpaceOnUse">
<stop stop-color="#EF9146"/>
<stop offset="1" stop-color="#E0592E"/>
</linearGradient>
<linearGradient id="paint1_linear" x1="20.0002" y1="20" x2="20.0002" y2="39.9998" gradientUnits="userSpaceOnUse">
<stop stop-color="#E57722"/>
<stop offset="1" stop-color="#F2B24C"/>
</linearGradient>
<linearGradient id="paint2_linear" x1="29.3586" y1="20" x2="29.3586" y2="-0.848814" gradientUnits="userSpaceOnUse">
<stop stop-color="#E57722"/>
<stop offset="1" stop-color="#DD4A33"/>
</linearGradient>
<linearGradient id="paint3_linear" x1="8.12491" y1="20" x2="8.12491" y2="0.000232918" gradientUnits="userSpaceOnUse">
<stop stop-color="#EF9046"/>
<stop offset="1" stop-color="#F3C44F"/>
</linearGradient>
</defs>
</svg>
