<svg width="32" height="32" viewBox="0 0 32 32" fill="none" xmlns="http://www.w3.org/2000/svg">
<g clip-path="url(#clip0)">
<path d="M18.0499 15.7702C18.0499 20.7978 14.0093 24.8735 9.02514 24.8735C4.04097 24.8735 0 20.797 0 15.7702C0 10.7435 4.04067 6.66663 9.02514 6.66663C14.0095 6.66663 18.0499 10.7426 18.0499 15.7702Z" fill="black"/>
<path d="M27.9504 15.7702C27.9504 20.5026 25.9301 24.3405 23.4379 24.3405C20.9456 24.3405 18.9253 20.5026 18.9253 15.7702C18.9253 11.0378 20.9454 7.19983 23.4376 7.19983C25.9298 7.19983 27.9502 11.0365 27.9502 15.7702" fill="black"/>
<path d="M32 15.7702C32 20.0093 31.2896 23.4479 30.413 23.4479C29.5363 23.4479 28.8262 20.0102 28.8262 15.7702C28.8262 11.5302 29.5366 8.09253 30.413 8.09253C31.2892 8.09253 32 11.5299 32 15.7702Z" fill="black"/>
</g>
<defs>
<clipPath id="clip0">
<rect width="32" height="32" fill="white"/>
</clipPath>
</defs>
</svg>
