<svg width="10" height="17" viewBox="0 0 10 17" fill="none" xmlns="http://www.w3.org/2000/svg">
<path d="M9.50527 8.09375C9.50527 7.75292 9.38219 7.4689 9.1171 7.20381L2.18692 0.425111C1.96917 0.207359 1.70408 0.09375 1.39166 0.09375C0.747869 0.09375 0.246094 0.595525 0.246094 1.22984C0.246094 1.54227 0.378638 1.82629 0.59639 2.05351L6.79757 8.09375L0.59639 14.134C0.378638 14.3612 0.246094 14.6358 0.246094 14.9577C0.246094 15.592 0.747869 16.0937 1.39166 16.0937C1.70408 16.0937 1.96917 15.9801 2.18692 15.7624L9.1171 8.98369C9.38219 8.7186 9.50527 8.43458 9.50527 8.09375Z" fill="white"/>
</svg>
