<svg width="32" height="32" viewBox="0 0 32 32" fill="none" xmlns="http://www.w3.org/2000/svg">
<path fill-rule="evenodd" clip-rule="evenodd" d="M2.19983 14.4164C10.7897 10.6739 16.5177 8.20663 19.3837 7.01456C27.5667 3.61097 29.2671 3.01973 30.3753 3.00021C30.6191 2.99591 31.1641 3.05632 31.5171 3.34279C31.8152 3.58467 31.8973 3.91143 31.9365 4.14076C31.9758 4.3701 32.0246 4.89253 31.9858 5.30074C31.5423 9.95999 29.6236 21.2668 28.6474 26.4852C28.2344 28.6933 27.4211 29.4337 26.6337 29.5062C24.9226 29.6636 23.6232 28.3753 21.9659 27.2889C19.3725 25.5889 17.9074 24.5307 15.3901 22.8718C12.4809 20.9547 14.3668 19.901 16.0247 18.179C16.4586 17.7283 23.9979 10.8707 24.1439 10.2486C24.1621 10.1708 24.1791 9.88081 24.0068 9.72768C23.8345 9.57454 23.5802 9.62691 23.3967 9.66855C23.1366 9.72759 18.9936 12.4659 10.9678 17.8836C9.79182 18.6911 8.72666 19.0845 7.77232 19.0639C6.72023 19.0412 4.69644 18.4691 3.19196 17.98C1.34666 17.3802 -0.119957 17.063 0.0077523 16.0443C0.074271 15.5137 0.804964 14.9711 2.19983 14.4164Z" fill="#222222"/>
</svg>
