<?xml version="1.0" standalone="no"?>
<!DOCTYPE svg PUBLIC "-//W3C//DTD SVG 20010904//EN"
 "http://www.w3.org/TR/2001/REC-SVG-20010904/DTD/svg10.dtd">
<svg version="1.0" xmlns="http://www.w3.org/2000/svg"
 width="560.000000pt" height="560.000000pt" viewBox="0 0 560.000000 560.000000"
 preserveAspectRatio="xMidYMid meet">
<metadata>
Created by potrace 1.14, written by Peter Selinger 2001-2017
</metadata>
<g transform="translate(0.000000,560.000000) scale(0.100000,-0.100000)"
fill="#000000" stroke="none">
<path d="M3100 4969 c-341 -104 -594 -199 -850 -320 -122 -58 -176 -97 -292
-211 -145 -142 -499 -478 -588 -558 -64 -57 -123 -146 -189 -281 -28 -59 -51
-109 -51 -113 0 -3 -18 -42 -39 -86 -22 -45 -43 -91 -47 -103 -4 -12 -20 -51
-36 -87 -50 -108 -58 -128 -58 -135 0 -4 -6 -21 -14 -38 -30 -65 -76 -189 -76
-203 0 -8 -5 -14 -10 -14 -6 0 -9 -3 -9 -7 1 -5 0 -11 -1 -15 -1 -5 -4 -12 -5
-18 -1 -5 -3 -11 -5 -12 -1 -2 -3 -10 -5 -18 -12 -47 -90 -252 -112 -292 -15
-28 -66 -85 -121 -135 -222 -205 -230 -213 -225 -234 7 -26 62 -71 76 -62 23
13 102 68 114 80 7 6 29 21 50 34 21 13 40 26 43 29 11 13 138 99 151 102 7 2
14 -1 14 -7 7 -66 18 -151 25 -195 5 -30 11 -80 14 -110 3 -30 10 -87 15 -125
6 -39 13 -93 16 -120 3 -28 7 -61 9 -75 5 -33 15 -115 21 -165 3 -22 7 -56 10
-75 3 -19 7 -57 10 -85 3 -27 7 -61 10 -75 3 -14 8 -50 11 -80 3 -30 7 -66 9
-80 1 -14 6 -47 9 -75 3 -27 8 -61 11 -75 2 -14 6 -50 10 -80 3 -30 7 -66 10
-80 2 -14 6 -51 9 -83 3 -32 8 -62 10 -66 3 -3 656 -6 1453 -6 l1448 1 66 64
c37 36 123 118 190 182 340 321 394 373 396 383 7 45 18 123 28 210 3 28 7 61
10 75 2 14 7 54 10 90 4 36 9 74 11 85 2 11 6 40 9 65 3 25 8 59 10 75 2 17 6
57 10 90 3 33 8 70 10 82 3 12 8 46 11 75 3 29 7 62 9 74 1 11 35 51 75 90 40
38 104 99 142 137 38 37 70 67 71 67 1 0 57 53 125 118 136 131 143 145 90
194 -118 109 -255 236 -273 255 -13 12 -32 41 -43 65 -18 37 -88 222 -112 298
-4 14 -14 39 -21 55 -7 17 -13 32 -14 35 -2 11 -46 126 -55 145 -5 11 -19 45
-31 75 -20 51 -29 73 -64 155 -82 189 -216 477 -226 485 -3 3 -12 16 -19 30
-24 45 -84 113 -150 167 -73 60 -196 124 -423 217 -135 56 -141 59 -152 62 -5
2 -86 30 -180 62 -230 80 -304 101 -335 91z"/>
</g>
</svg>
