<svg width="33" height="32" viewBox="0 0 33 32" fill="none" xmlns="http://www.w3.org/2000/svg">
<g clip-path="url(#clip0)">
<path d="M16.5 30C24.2338 30 30.5 23.7338 30.5 16C30.5 8.26617 24.2338 2 16.5 2C8.76617 2 2.5 8.26617 2.5 16C2.5 23.7338 8.76617 30 16.5 30ZM8.90617 15.6967L22.4045 10.4922C23.031 10.2658 23.5782 10.645 23.3752 11.5923L23.3763 11.5912L21.078 22.419C20.9077 23.1867 20.4515 23.3733 19.8133 23.0117L16.3133 20.4322L14.6252 22.0585C14.4385 22.2452 14.281 22.4027 13.9193 22.4027L14.1678 18.8408L20.6545 12.9807C20.9368 12.7322 20.5915 12.5922 20.2193 12.8395L12.2032 17.8865L8.7475 16.8085C7.99733 16.5705 7.981 16.0583 8.90617 15.6967Z" fill="#1E5AFF"/>
</g>
<defs>
<clipPath id="clip0">
<rect width="28" height="28" fill="white" transform="translate(2.5 2)"/>
</clipPath>
</defs>
</svg>
