<svg width="33" height="32" viewBox="0 0 33 32" fill="none" xmlns="http://www.w3.org/2000/svg">
<g clip-path="url(#clip0)">
<path fill-rule="evenodd" clip-rule="evenodd" d="M30.5 16C30.5 23.7338 24.2338 30 16.5 30C8.76617 30 2.5 23.7338 2.5 16C2.5 8.26617 8.76617 2 16.5 2C24.2338 2 30.5 8.26617 30.5 16ZM24.3737 11.9391C25.1174 11.8446 25.8306 11.65 26.5 11.3564C25.9982 12.1034 25.3829 12.7525 24.6505 13.2723C24.6584 13.4286 24.664 13.5861 24.664 13.7492C24.664 18.625 20.9515 24.25 14.161 24.25C12.0719 24.25 10.1346 23.6481 8.5 22.594C8.79025 22.6311 9.0805 22.6446 9.38312 22.6446C11.1089 22.6446 12.703 22.0529 13.9585 21.0707C12.3453 21.0359 10.9885 19.9615 10.5104 18.5001C10.7343 18.5496 10.9727 18.5631 11.209 18.5631C11.5487 18.5631 11.8761 18.5238 12.1765 18.4416C10.4991 18.0985 9.22 16.609 9.22 14.8158V14.7753C9.71275 15.0464 10.2944 15.2185 10.8872 15.2297C9.90625 14.5739 9.24813 13.441 9.24813 12.163C9.24813 11.4824 9.43488 10.8501 9.75325 10.2978C11.5769 12.5376 14.2915 14.008 17.3594 14.1576C17.2986 13.8899 17.2739 13.6086 17.2739 13.3161C17.2739 11.2832 18.9186 9.625 20.9616 9.625C22.0146 9.625 22.9799 10.0716 23.6571 10.7928C24.4964 10.6251 25.2839 10.3247 25.9971 9.8995C25.7226 10.7646 25.1388 11.4824 24.3737 11.9391Z" fill="#1E5AFF"/>
</g>
<defs>
<clipPath id="clip0">
<rect width="28" height="28" fill="white" transform="translate(2.5 2)"/>
</clipPath>
</defs>
</svg>
