<svg width="32" height="32" viewBox="0 0 32 32" fill="none" xmlns="http://www.w3.org/2000/svg">
<path fill-rule="evenodd" clip-rule="evenodd" d="M30 16C30 23.7338 23.7338 30 16 30C8.26617 30 2 23.7338 2 16C2 8.26617 8.26617 2 16 2C23.7338 2 30 8.26617 30 16ZM16 8.62188C18.403 8.62188 18.687 8.63089 19.6357 8.67382C20.5152 8.71537 20.991 8.8608 21.3082 8.98546C21.7278 9.1482 22.0284 9.3428 22.3428 9.6572C22.6572 9.97299 22.8518 10.2735 23.0145 10.6925C23.1392 11.0097 23.2846 11.4861 23.3262 12.3643C23.3677 13.313 23.3774 13.597 23.3774 16C23.3774 18.403 23.3684 18.687 23.3255 19.6357C23.2839 20.5152 23.1385 20.991 23.0138 21.3082C22.8511 21.7278 22.6565 22.0284 22.3421 22.3428C22.0263 22.6572 21.7258 22.8518 21.3068 23.0145C20.9896 23.1392 20.5132 23.2846 19.635 23.3262C18.6863 23.3677 18.4024 23.3774 15.9993 23.3774C13.5963 23.3774 13.3123 23.3684 12.3636 23.3255C11.4841 23.2839 11.0083 23.1385 10.6911 23.0138C10.2715 22.8511 9.97091 22.6565 9.65651 22.3421C9.3421 22.0263 9.14751 21.7258 8.98476 21.3068C8.86011 20.9896 8.71468 20.5132 8.67313 19.635C8.63158 18.6863 8.62188 18.4024 8.62188 15.9993C8.62188 13.5963 8.63089 13.3123 8.67382 12.3636C8.71537 11.4841 8.8608 11.0083 8.98546 10.6911C9.1482 10.2715 9.3428 9.97091 9.6572 9.65651C9.97299 9.3421 10.2735 9.14751 10.6925 8.98476C11.0097 8.86011 11.4861 8.71468 12.3643 8.67313C13.313 8.63158 13.597 8.62188 16 8.62188ZM16 7C13.5554 7 13.2493 7.01039 12.2895 7.05402C11.3324 7.09765 10.6773 7.25 10.1046 7.4723C9.51316 7.70222 9.01039 8.01039 8.51039 8.51108C8.01039 9.01108 7.70222 9.51316 7.47161 10.1039C7.25 10.6773 7.09765 11.3317 7.05402 12.2895C7.01108 13.2493 7 13.5554 7 16C7 18.4446 7.01039 18.7507 7.05402 19.7105C7.09765 20.6683 7.25 21.3227 7.4723 21.8954C7.70222 22.4868 8.01039 22.9896 8.51108 23.4896C9.01108 23.9896 9.51316 24.2978 10.1039 24.5284C10.6773 24.75 11.3317 24.9024 12.2895 24.946C13.2493 24.9896 13.5554 25 16 25C18.4446 25 18.7507 24.9896 19.7105 24.946C20.6683 24.9024 21.3227 24.75 21.8954 24.5277C22.4868 24.2978 22.9896 23.9896 23.4896 23.4889C23.9896 22.9889 24.2978 22.4868 24.5284 21.8961C24.75 21.3227 24.9024 20.6683 24.946 19.7105C24.9896 18.7507 25 18.4432 25 16C25 13.5554 24.9896 13.2493 24.946 12.2895C24.9024 11.3317 24.75 10.6773 24.5277 10.1046C24.2978 9.51316 23.9896 9.01039 23.4889 8.51039C22.9889 8.01039 22.4868 7.70222 21.8961 7.47161C21.3227 7.25 20.6683 7.09765 19.7105 7.05402C18.7507 7.01108 18.4432 7 16 7ZM15.9999 11.378C13.4473 11.378 11.3781 13.4473 11.3781 15.9999C11.3781 18.5525 13.4473 20.6218 15.9999 20.6218C18.5526 20.6218 20.6218 18.5525 20.6218 15.9999C20.6218 13.4473 18.5526 11.378 15.9999 11.378ZM15.9999 18.9999C14.3434 18.9999 12.9999 17.6564 12.9999 15.9999C12.9999 14.3434 14.3434 12.9999 15.9999 12.9999C17.6564 12.9999 18.9999 14.3434 18.9999 15.9999C18.9999 17.6564 17.6564 18.9999 15.9999 18.9999ZM21.8843 11.1959C21.8843 11.7915 21.4009 12.2762 20.804 12.2762C20.2084 12.2762 19.7236 11.7915 19.7236 11.1959C19.7236 10.5989 20.2084 10.1156 20.804 10.1156C21.4009 10.1156 21.8843 10.5989 21.8843 11.1959Z" fill="white"/>
</svg>
