<svg width="32" height="32" viewBox="0 0 32 32" fill="none" xmlns="http://www.w3.org/2000/svg">
<path fill-rule="evenodd" clip-rule="evenodd" d="M30 16C30 23.7338 23.7338 30 16 30C8.26617 30 2 23.7338 2 16C2 8.26617 8.26617 2 16 2C23.7338 2 30 8.26617 30 16ZM23.8737 11.9391C24.6174 11.8446 25.3306 11.65 26 11.3564C25.4982 12.1034 24.8829 12.7525 24.1505 13.2723C24.1584 13.4286 24.164 13.5861 24.164 13.7492C24.164 18.625 20.4515 24.25 13.661 24.25C11.5719 24.25 9.63462 23.6481 8 22.594C8.29025 22.6311 8.5805 22.6446 8.88312 22.6446C10.6089 22.6446 12.203 22.0529 13.4585 21.0707C11.8453 21.0359 10.4885 19.9615 10.0104 18.5001C10.2343 18.5496 10.4727 18.5631 10.709 18.5631C11.0487 18.5631 11.3761 18.5238 11.6765 18.4416C9.99913 18.0985 8.72 16.609 8.72 14.8158V14.7753C9.21275 15.0464 9.79437 15.2185 10.3872 15.2297C9.40625 14.5739 8.74813 13.441 8.74813 12.163C8.74813 11.4824 8.93488 10.8501 9.25325 10.2978C11.0769 12.5376 13.7915 14.008 16.8594 14.1576C16.7986 13.8899 16.7739 13.6086 16.7739 13.3161C16.7739 11.2832 18.4186 9.625 20.4616 9.625C21.5146 9.625 22.4799 10.0716 23.1571 10.7928C23.9964 10.6251 24.7839 10.3247 25.4971 9.8995C25.2226 10.7646 24.6388 11.4824 23.8737 11.9391Z" fill="white"/>
</svg>
