<svg width="32" height="32" viewBox="0 0 32 32" fill="none" xmlns="http://www.w3.org/2000/svg">
<path fill-rule="evenodd" clip-rule="evenodd" d="M14.0473 29.865V20.5533H10.5V16.2859H14.0473V13.1391C14.0473 9.48836 16.1947 7.5 19.3313 7.5C20.8334 7.5 22.124 7.61633 22.5 7.66708V11.484L20.3259 11.4849C18.6186 11.4849 18.2897 12.3266 18.2897 13.5618V16.2859H22.3568L21.8263 20.5533H18.2897V29.8138C24.9337 28.7215 30 22.9541 30 16C30 8.26617 23.7338 2 16 2C8.26617 2 2 8.26617 2 16C2 23.0712 7.23833 28.9154 14.0473 29.865Z" fill="white"/>
</svg>
