<svg width="33" height="32" viewBox="0 0 33 32" fill="none" xmlns="http://www.w3.org/2000/svg">
<path fill-rule="evenodd" clip-rule="evenodd" d="M30.5 16C30.5 23.7338 24.2338 30 16.5 30C8.76617 30 2.5 23.7338 2.5 16C2.5 8.26617 8.76617 2 16.5 2C24.2338 2 30.5 8.26617 30.5 16ZM16.5 8.62188C18.903 8.62188 19.187 8.63089 20.1357 8.67382C21.0152 8.71537 21.491 8.8608 21.8082 8.98546C22.2278 9.1482 22.5284 9.3428 22.8428 9.6572C23.1572 9.97299 23.3518 10.2735 23.5145 10.6925C23.6392 11.0097 23.7846 11.4861 23.8262 12.3643C23.8677 13.313 23.8774 13.597 23.8774 16C23.8774 18.403 23.8684 18.687 23.8255 19.6357C23.7839 20.5152 23.6385 20.991 23.5138 21.3082C23.3511 21.7278 23.1565 22.0284 22.8421 22.3428C22.5263 22.6572 22.2258 22.8518 21.8068 23.0145C21.4896 23.1392 21.0132 23.2846 20.135 23.3262C19.1863 23.3677 18.9024 23.3774 16.4993 23.3774C14.0963 23.3774 13.8123 23.3684 12.8636 23.3255C11.9841 23.2839 11.5083 23.1385 11.1911 23.0138C10.7715 22.8511 10.4709 22.6565 10.1565 22.3421C9.8421 22.0263 9.64751 21.7258 9.48476 21.3068C9.36011 20.9896 9.21468 20.5132 9.17313 19.635C9.13158 18.6863 9.12188 18.4024 9.12188 15.9993C9.12188 13.5963 9.13089 13.3123 9.17382 12.3636C9.21537 11.4841 9.3608 11.0083 9.48546 10.6911C9.6482 10.2715 9.8428 9.97091 10.1572 9.65651C10.473 9.3421 10.7735 9.14751 11.1925 8.98476C11.5097 8.86011 11.9861 8.71468 12.8643 8.67313C13.813 8.63158 14.097 8.62188 16.5 8.62188ZM16.5 7C14.0554 7 13.7493 7.01039 12.7895 7.05402C11.8324 7.09765 11.1773 7.25 10.6046 7.4723C10.0132 7.70222 9.51039 8.01039 9.01039 8.51108C8.51039 9.01108 8.20222 9.51316 7.97161 10.1039C7.75 10.6773 7.59765 11.3317 7.55402 12.2895C7.51108 13.2493 7.5 13.5554 7.5 16C7.5 18.4446 7.51039 18.7507 7.55402 19.7105C7.59765 20.6683 7.75 21.3227 7.9723 21.8954C8.20222 22.4868 8.51039 22.9896 9.01108 23.4896C9.51108 23.9896 10.0132 24.2978 10.6039 24.5284C11.1773 24.75 11.8317 24.9024 12.7895 24.946C13.7493 24.9896 14.0554 25 16.5 25C18.9446 25 19.2507 24.9896 20.2105 24.946C21.1683 24.9024 21.8227 24.75 22.3954 24.5277C22.9868 24.2978 23.4896 23.9896 23.9896 23.4889C24.4896 22.9889 24.7978 22.4868 25.0284 21.8961C25.25 21.3227 25.4024 20.6683 25.446 19.7105C25.4896 18.7507 25.5 18.4432 25.5 16C25.5 13.5554 25.4896 13.2493 25.446 12.2895C25.4024 11.3317 25.25 10.6773 25.0277 10.1046C24.7978 9.51316 24.4896 9.01039 23.9889 8.51039C23.4889 8.01039 22.9868 7.70222 22.3961 7.47161C21.8227 7.25 21.1683 7.09765 20.2105 7.05402C19.2507 7.01108 18.9432 7 16.5 7ZM16.4999 11.378C13.9473 11.378 11.8781 13.4473 11.8781 15.9999C11.8781 18.5525 13.9473 20.6218 16.4999 20.6218C19.0526 20.6218 21.1218 18.5525 21.1218 15.9999C21.1218 13.4473 19.0526 11.378 16.4999 11.378ZM16.4999 18.9999C14.8434 18.9999 13.4999 17.6564 13.4999 15.9999C13.4999 14.3434 14.8434 12.9999 16.4999 12.9999C18.1564 12.9999 19.4999 14.3434 19.4999 15.9999C19.4999 17.6564 18.1564 18.9999 16.4999 18.9999ZM22.3843 11.1959C22.3843 11.7915 21.9009 12.2762 21.304 12.2762C20.7084 12.2762 20.2236 11.7915 20.2236 11.1959C20.2236 10.5989 20.7084 10.1156 21.304 10.1156C21.9009 10.1156 22.3843 10.5989 22.3843 11.1959Z" fill="#1E5AFF"/>
</svg>
