<?xml version="1.0" encoding="utf-8"?>
<!-- Generator: Adobe Illustrator 25.4.1, SVG Export Plug-In . SVG Version: 6.00 Build 0)  -->
<svg version="1.1" xmlns="http://www.w3.org/2000/svg" xmlns:xlink="http://www.w3.org/1999/xlink" x="0px" y="0px"
	 viewBox="0 0 1800 600" style="enable-background:new 0 0 1800 600;" xml:space="preserve">
<style type="text/css">
	.st0{fill:#FFFFFF;}
	.st1{fill:url(#SVGID_1_);}
	.st2{fill:#666666;}
	.st3{fill:#CCCCCC;}
	.st4{fill:#808080;}
	.st5{fill:#999999;}
	.st6{fill:none;stroke:#F7931E;stroke-width:3;stroke-miterlimit:10;}
	.st7{fill:none;stroke:#F7931E;stroke-width:3;stroke-miterlimit:10;stroke-dasharray:13.2222,13.2222;}
	.st8{fill:none;stroke:#999999;stroke-width:3;stroke-miterlimit:10;}
	.st9{fill:none;stroke:#999999;stroke-width:3;stroke-miterlimit:10;stroke-dasharray:13.2222,13.2222;}
</style>
<g id="Layer_1">
	<g>
		<g>
			<circle class="st0" cx="274" cy="265" r="143"/>
			<linearGradient id="SVGID_1_" gradientUnits="userSpaceOnUse" x1="131" y1="265" x2="417" y2="265">
				<stop  offset="0" style="stop-color:#FCEE21"/>
				<stop  offset="1" style="stop-color:#FBB03B"/>
			</linearGradient>
			<path class="st1" d="M274,130c36.1,0,70,14,95.5,39.5C395,195,409,228.9,409,265s-14,70-39.5,95.5C344,386,310.1,400,274,400
				s-70-14-95.5-39.5C153,335,139,301.1,139,265s14-70,39.5-95.5C204,144,237.9,130,274,130 M274,122c-79,0-143,64-143,143
				s64,143,143,143s143-64,143-143S353,122,274,122L274,122z"/>
		</g>
		<g>
			<path class="st2" d="M184.6,477.6c-0.8,1.2-1.3,2.1-1.4,2.8c-0.1,0.7,0.1,1.2,0.5,1.5c0.5,0.3,1.2,0.5,2.2,0.5l-0.2,0.7
				c-0.8,0-1.5-0.1-2.3-0.1c-0.7,0-1.4,0-2.1,0c-0.6,0-1.1,0-1.5,0c-0.4,0-0.8,0-1.2,0.1l0.2-0.7c0.5-0.1,1.1-0.5,1.7-1
				c0.6-0.5,1.3-1.3,2.1-2.4l15.4-21.6c0.2,0,0.3,0,0.5,0c0.2,0,0.3,0,0.5,0l1.4,22.6c0.1,0.9,0.3,1.5,0.7,1.8s0.7,0.5,1.1,0.5
				l-0.1,0.7c-0.5,0-1.2-0.1-2-0.1c-0.8,0-1.6,0-2.3,0c-0.9,0-1.8,0-2.7,0c-0.8,0-1.5,0-2,0.1l0.1-0.7c1.2,0,2-0.3,2.4-0.6
				c0.5-0.4,0.7-1.2,0.6-2.4l-0.9-17.4l0.6-0.5L184.6,477.6z M187.6,472.9h10.5l-0.3,0.7H187L187.6,472.9z"/>
			<path class="st2" d="M219.1,470.7c-0.9,2.5-1.7,4.6-2.5,6.2c-0.8,1.7-1.6,3-2.4,4c-0.8,1-1.6,1.7-2.4,2.1
				c-0.8,0.4-1.7,0.6-2.5,0.6c-1.6,0-2.5-0.5-2.9-1.5c-0.4-1-0.3-2.3,0.3-3.9l3.5-10.5c0.2-0.7,0.3-1.2,0.2-1.6
				c-0.1-0.3-0.3-0.5-0.8-0.5c-0.4,0-0.8,0.2-1.2,0.7s-0.9,1.4-1.4,2.7l-0.5,1.5h-0.7l0.9-2.6c0.5-1.5,1.2-2.5,2.1-3
				c0.9-0.5,1.7-0.7,2.5-0.7c1.1,0,1.8,0.2,2.2,0.7c0.4,0.5,0.6,1.1,0.6,1.9c0,0.8-0.2,1.7-0.6,2.6l-3.3,10.1
				c-0.6,1.9-0.4,2.8,0.6,2.8c0.7,0,1.4-0.4,2.2-1.3c0.8-0.8,1.6-2,2.4-3.5s1.6-3.3,2.4-5.3c0.8-2,1.5-4.2,2.1-6.5L219.1,470.7z
				 M219.6,480.2c-0.2,0.6-0.2,1.1-0.2,1.5c0,0.4,0.2,0.6,0.7,0.6c0.5,0,1-0.3,1.4-0.8c0.4-0.5,0.8-1.4,1.2-2.6l0.5-1.5h0.7
				l-0.9,2.7c-0.5,1.5-1.2,2.5-2.1,3c-0.8,0.5-1.7,0.7-2.5,0.7c-0.5,0-0.9-0.1-1.2-0.3c-0.4-0.2-0.7-0.4-0.8-0.8
				c-0.2-0.4-0.3-1-0.3-1.6c0-0.6,0.2-1.4,0.4-2.4l3.6-14c0.7,0,1.4-0.1,2.1-0.1c0.7-0.1,1.3-0.2,1.8-0.4L219.6,480.2z"/>
			<path class="st2" d="M233.5,475.1l1.2,0c-1.3,0.7-2.4,1.3-3.4,1.8c-0.9,0.5-1.4,1-1.4,1.4c0,0.2,0.2,0.4,0.5,0.6
				c0.3,0.2,0.8,0.4,1.5,0.6l2.8,0.8c0.7,0.2,1.4,0.4,2,0.7c0.6,0.3,1.1,0.6,1.5,1c0.4,0.4,0.6,1,0.6,1.6c0,0.7-0.2,1.4-0.7,2.2
				c-0.5,0.8-1.1,1.5-2,2.1c-0.9,0.7-2,1.2-3.3,1.6c-1.3,0.4-2.8,0.6-4.6,0.6c-1.2,0-2.3-0.1-3.2-0.3c-0.9-0.2-1.6-0.5-2.1-1
				c-0.5-0.4-0.7-0.9-0.7-1.4c0-0.4,0.1-0.8,0.4-1.2c0.3-0.4,0.7-0.8,1.2-1.1c0.5-0.3,1.1-0.7,1.8-1c0.7-0.3,1.4-0.5,2.2-0.7
				l0.2,0.5c-0.9,0.5-1.5,1-1.8,1.5s-0.5,1.1-0.5,1.6c0,0.9,0.3,1.5,0.9,1.9c0.6,0.4,1.4,0.6,2.3,0.6c1,0,2.1-0.2,3.1-0.6
				c1.1-0.4,1.9-0.9,2.6-1.6c0.7-0.7,1.1-1.4,1.1-2.1c0-0.4-0.1-0.6-0.4-0.8c-0.3-0.1-0.7-0.3-1.2-0.4l-5.4-1.4
				c-0.6-0.1-1.1-0.4-1.4-0.8s-0.6-0.9-0.6-1.5c0-0.5,0.2-1.1,0.6-1.6c0.4-0.5,1.1-1.1,2.1-1.7C230.5,476.6,231.8,475.9,233.5,475.1
				z M235.6,464.2c1.5,0,2.7,0.3,3.6,1s1.4,1.7,1.4,3.1c0,1.2-0.3,2.3-1,3.4s-1.6,2-2.9,2.8s-2.7,1.1-4.4,1.1c-1.4,0-2.6-0.3-3.5-1
				c-0.9-0.6-1.4-1.6-1.4-3c0-0.7,0.1-1.5,0.4-2.3c0.3-0.9,0.8-1.7,1.4-2.4c0.6-0.8,1.5-1.4,2.5-1.9S234.1,464.2,235.6,464.2z
				 M235.3,464.8c-0.8,0-1.5,0.3-2.1,0.9s-1,1.4-1.3,2.3c-0.3,0.9-0.5,1.8-0.6,2.6c-0.1,0.9-0.2,1.5-0.2,2.1c0,0.8,0.1,1.3,0.4,1.6
				c0.3,0.3,0.7,0.5,1.2,0.5c0.8,0,1.4-0.3,2-0.8c0.5-0.5,0.9-1.2,1.2-2c0.3-0.8,0.5-1.6,0.6-2.5c0.1-0.8,0.2-1.6,0.2-2.2
				c0-0.8-0.1-1.4-0.3-1.9C236.3,465.1,235.9,464.8,235.3,464.8z M238.2,466.1l-0.7-0.3c0.4-0.8,0.9-1.6,1.7-2.2
				c0.8-0.6,1.7-0.9,2.6-0.9c0.7,0,1.2,0.2,1.6,0.6c0.4,0.4,0.6,0.9,0.6,1.6c0,0.7-0.2,1.2-0.5,1.5c-0.3,0.3-0.7,0.5-1.1,0.5
				c-0.4,0-0.8-0.1-1.1-0.4c-0.3-0.3-0.6-0.7-0.6-1.3c-0.1-0.6,0.1-1.3,0.5-2.2l0.4,0.1c-1,0.4-1.7,0.8-2.1,1.2
				S238.6,465.4,238.2,466.1z"/>
			<path class="st2" d="M256.4,470.7c-0.9,2.5-1.7,4.6-2.5,6.2c-0.8,1.7-1.6,3-2.4,4c-0.8,1-1.6,1.7-2.4,2.1
				c-0.8,0.4-1.7,0.6-2.5,0.6c-1.6,0-2.5-0.5-2.9-1.5c-0.4-1-0.3-2.3,0.3-3.9l3.5-10.5c0.2-0.7,0.3-1.2,0.2-1.6
				c-0.1-0.3-0.3-0.5-0.8-0.5c-0.4,0-0.8,0.2-1.2,0.7s-0.9,1.4-1.4,2.7l-0.5,1.5h-0.7l0.9-2.6c0.5-1.5,1.2-2.5,2.1-3
				c0.9-0.5,1.7-0.7,2.5-0.7c1.1,0,1.8,0.2,2.2,0.7c0.4,0.5,0.6,1.1,0.6,1.9c0,0.8-0.2,1.7-0.6,2.6l-3.3,10.1
				c-0.6,1.9-0.4,2.8,0.6,2.8c0.7,0,1.4-0.4,2.2-1.3c0.8-0.8,1.6-2,2.4-3.5s1.6-3.3,2.4-5.3c0.8-2,1.5-4.2,2.1-6.5L256.4,470.7z
				 M256.9,480.2c-0.2,0.6-0.2,1.1-0.2,1.5c0,0.4,0.2,0.6,0.7,0.6c0.5,0,1-0.3,1.4-0.8c0.4-0.5,0.8-1.4,1.2-2.6l0.5-1.5h0.7
				l-0.9,2.7c-0.5,1.5-1.2,2.5-2.1,3c-0.8,0.5-1.7,0.7-2.5,0.7c-0.5,0-0.9-0.1-1.2-0.3c-0.4-0.2-0.7-0.4-0.8-0.8
				c-0.2-0.4-0.3-1-0.3-1.6c0-0.6,0.2-1.4,0.4-2.4l3.6-14c0.7,0,1.4-0.1,2.1-0.1c0.7-0.1,1.3-0.2,1.8-0.4L256.9,480.2z"/>
			<path class="st2" d="M265.2,482.7c0.2,0.1,0.4,0.2,0.6,0.2c0.2,0.1,0.5,0.1,1,0.1c1,0,1.8-0.3,2.4-0.9c0.6-0.6,1-1.5,1-2.6
				c0-0.7-0.2-1.5-0.5-2.3c-0.3-0.8-0.8-1.6-1.5-2.6c-0.6-0.8-1.1-1.6-1.6-2.4c-0.5-0.8-0.7-1.7-0.7-2.8c0-1.5,0.6-2.8,1.7-3.7
				c1.1-1,2.5-1.4,4.2-1.4c0.7,0,1.5,0.1,2.2,0.3c0.7,0.2,1.3,0.5,1.8,1c0.5,0.5,0.7,1.2,0.7,2.1c0,0.4-0.1,0.9-0.4,1.4
				c-0.3,0.5-0.8,0.8-1.4,0.8c-0.5,0-0.8-0.2-1.2-0.5c-0.3-0.3-0.5-0.8-0.5-1.3c0-0.5,0.1-1,0.3-1.4c0.2-0.4,0.4-0.8,0.8-1.2
				c-0.4-0.2-0.9-0.4-1.6-0.4c-0.9,0-1.6,0.3-2.2,0.9c-0.6,0.6-0.8,1.4-0.8,2.4c0,0.8,0.2,1.5,0.6,2.1c0.4,0.6,0.9,1.4,1.6,2.5
				c0.6,1,1.1,1.9,1.5,2.7c0.4,0.8,0.6,1.7,0.6,2.6c0,1.1-0.3,2-0.8,2.9c-0.6,0.9-1.3,1.5-2.3,2c-1,0.5-2.1,0.7-3.3,0.7
				c-0.9,0-1.7-0.1-2.5-0.4s-1.5-0.6-2-1.2c-0.5-0.5-0.8-1.3-0.8-2.2c0-0.4,0.1-0.9,0.4-1.3c0.3-0.4,0.7-0.6,1.2-0.6
				c0.6,0,1,0.2,1.3,0.7c0.3,0.5,0.4,1.1,0.4,1.7c0,0.5,0,0.9-0.1,1.3C265.3,482.1,265.3,482.4,265.2,482.7z"/>
			<path class="st2" d="M281.9,480.2c-0.2,0.7-0.1,1.3,0.1,1.6s0.7,0.5,1.2,0.5c0.5,0,1.1-0.2,1.6-0.7c0.5-0.5,1-1.4,1.5-2.7
				l0.5-1.4h0.7l-0.8,2.2c-0.5,1.5-1.2,2.6-2.1,3.2c-0.9,0.6-1.9,0.9-3,0.9c-1.5,0-2.5-0.5-3-1.5c-0.5-1-0.5-2.2,0-3.8l5.5-19.2
				c0.7,0,1.4-0.1,2.1-0.1c0.7-0.1,1.3-0.2,1.8-0.4L281.9,480.2z M290.9,464.7l-0.1,0.7h-11.6l0.2-0.7H290.9z"/>
			<path class="st2" d="M309.6,464.2c1.6,0,2.8,0.3,3.7,1s1.4,1.5,1.4,2.7c0,1-0.3,1.9-0.9,2.8c-0.6,0.9-1.4,1.8-2.4,2.7
				c-1,0.9-2,1.7-3.1,2.4c-1.1,0.8-2.2,1.5-3.1,2.1c-1,0.7-1.8,1.2-2.4,1.7c0.6,0,1.4,0.1,2.2,0.3c0.9,0.2,1.7,0.3,2.6,0.5
				s1.7,0.3,2.4,0.3c0.9,0,1.5-0.1,2-0.4c0.5-0.3,0.7-0.7,0.7-1.3c0-0.8-0.5-1.5-1.5-1.9l0.5-0.5c0.6,0.3,1.1,0.7,1.5,1.2
				c0.3,0.5,0.5,1,0.5,1.7c0,0.7-0.2,1.3-0.5,1.9c-0.3,0.6-0.8,1.1-1.6,1.5c-0.7,0.4-1.7,0.6-2.8,0.6c-1.2,0-2.2-0.2-3.3-0.5
				c-1-0.3-2.2-0.5-3.5-0.6c-0.9,0-1.7,0-2.3,0.2c-0.6,0.2-1.3,0.4-2,0.7l0.2-0.8c0.7-0.5,1.5-1.2,2.6-1.9c1.1-0.8,2.2-1.6,3.4-2.5
				c1.2-0.9,2.3-1.9,3.4-3c1.1-1.1,1.9-2.2,2.6-3.3c0.7-1.2,1-2.3,1-3.5c0-1-0.2-1.7-0.7-2.3c-0.5-0.6-1.2-0.8-2.1-0.8
				c-0.9,0-1.8,0.3-2.8,0.8c-1,0.6-1.8,1.3-2.4,2.1s-1,1.8-1,2.8c0,0.6,0.2,1,0.5,1.3c0.3,0.3,0.9,0.4,1.6,0.4
				c0.7,0,1.3-0.1,1.7-0.4c0.5-0.3,1-0.6,1.6-1.1l0.4,0.5c-0.7,0.6-1.4,1.1-2.1,1.3c-0.7,0.3-1.3,0.4-1.9,0.4
				c-0.6,0-1.2-0.2-1.8-0.5c-0.6-0.3-0.9-1-0.9-2c0-1.1,0.4-2.1,1.1-3.1c0.8-1,1.8-1.9,3-2.5C306.6,464.5,308,464.2,309.6,464.2z"/>
			<path class="st2" d="M330.1,464.1c2,0,3.5,0.6,4.6,1.7c1.1,1.1,1.6,2.7,1.6,4.7c0,1.6-0.3,3.2-0.9,4.8c-0.6,1.6-1.5,3-2.6,4.2
				c-1.1,1.2-2.4,2.2-3.8,3c-1.4,0.8-3,1.1-4.6,1.1c-1.9,0-3.5-0.6-4.6-1.7c-1.1-1.1-1.7-2.7-1.7-4.8c0-1.6,0.3-3.2,1-4.8
				c0.6-1.5,1.5-2.9,2.6-4.2c1.1-1.3,2.4-2.3,3.9-3C327,464.5,328.5,464.1,330.1,464.1z M329.5,464.8c-1,0-1.9,0.4-2.8,1.1
				c-0.9,0.7-1.7,1.7-2.4,2.9c-0.7,1.2-1.3,2.6-1.6,4.1c-0.4,1.5-0.6,3.1-0.6,4.8c0,2,0.3,3.4,0.9,4.2c0.6,0.8,1.3,1.2,2.1,1.2
				c1.1,0,2-0.4,2.9-1.2c0.9-0.8,1.7-1.8,2.3-3.1c0.6-1.3,1.2-2.7,1.5-4.2c0.4-1.5,0.6-3.1,0.6-4.7c0-1.9-0.3-3.3-0.8-4
				C331,465.2,330.3,464.8,329.5,464.8z"/>
			<path class="st2" d="M349.2,464.2c1.6,0,2.8,0.3,3.7,1s1.4,1.5,1.4,2.7c0,1-0.3,1.9-0.9,2.8c-0.6,0.9-1.4,1.8-2.4,2.7
				c-1,0.9-2,1.7-3.1,2.4c-1.1,0.8-2.2,1.5-3.1,2.1c-1,0.7-1.8,1.2-2.4,1.7c0.6,0,1.4,0.1,2.2,0.3c0.9,0.2,1.7,0.3,2.6,0.5
				s1.7,0.3,2.4,0.3c0.9,0,1.5-0.1,2-0.4c0.5-0.3,0.7-0.7,0.7-1.3c0-0.8-0.5-1.5-1.5-1.9l0.5-0.5c0.6,0.3,1.1,0.7,1.5,1.2
				c0.3,0.5,0.5,1,0.5,1.7c0,0.7-0.2,1.3-0.5,1.9c-0.3,0.6-0.8,1.1-1.6,1.5c-0.7,0.4-1.7,0.6-2.8,0.6c-1.2,0-2.2-0.2-3.3-0.5
				c-1-0.3-2.2-0.5-3.5-0.6c-0.9,0-1.7,0-2.3,0.2c-0.6,0.2-1.3,0.4-2,0.7l0.2-0.8c0.7-0.5,1.5-1.2,2.6-1.9c1.1-0.8,2.2-1.6,3.4-2.5
				c1.2-0.9,2.3-1.9,3.4-3c1.1-1.1,1.9-2.2,2.6-3.3c0.7-1.2,1-2.3,1-3.5c0-1-0.2-1.7-0.7-2.3c-0.5-0.6-1.2-0.8-2.1-0.8
				c-0.9,0-1.8,0.3-2.8,0.8c-1,0.6-1.8,1.3-2.4,2.1s-1,1.8-1,2.8c0,0.6,0.2,1,0.5,1.3c0.3,0.3,0.9,0.4,1.6,0.4
				c0.7,0,1.3-0.1,1.7-0.4c0.5-0.3,1-0.6,1.6-1.1l0.4,0.5c-0.7,0.6-1.4,1.1-2.1,1.3c-0.7,0.3-1.3,0.4-1.9,0.4
				c-0.6,0-1.2-0.2-1.8-0.5c-0.6-0.3-0.9-1-0.9-2c0-1.1,0.4-2.1,1.1-3.1c0.8-1,1.8-1.9,3-2.5C346.1,464.5,347.6,464.2,349.2,464.2z"
				/>
			<path class="st2" d="M368.3,464.3l-5.6,19h-3.8l4.6-15.4c-0.7,0.3-1.4,0.7-2.2,1c-0.8,0.3-1.8,0.6-3,1l0.1-0.8
				c2.4-0.7,4.3-1.4,5.6-2.3c1.4-0.8,2.5-1.7,3.5-2.4H368.3z"/>
		</g>
		<g>
			<path class="st3" d="M267.8,200.4h-5.3l-5.6-8.5v8.5h-5.3v-17h5.3l5.6,8.7v-8.7h5.3V200.4z"/>
			<path class="st3" d="M282.2,183.4v4.2h-6.7v2.4h4.8v4h-4.8v6.4h-5.3v-17H282.2z"/>
			<path class="st3" d="M297.4,183.4v4.2h-4.5v12.8h-5.3v-12.8h-4.5v-4.2H297.4z"/>
			<path d="M229.5,241.1v3.3h-4.5V258H221v-13.6h-4.5v-3.3H229.5z"/>
			<path d="M243.5,245.9c0.9,1,1.4,2.4,1.4,4.2v7.8h-4.1v-7.3c0-0.9-0.2-1.6-0.7-2.1c-0.5-0.5-1.1-0.7-1.9-0.7
				c-0.8,0-1.4,0.2-1.9,0.7c-0.5,0.5-0.7,1.2-0.7,2.1v7.3h-4.1v-17.8h4.1v6.2c0.4-0.6,1-1.1,1.7-1.4c0.7-0.4,1.5-0.5,2.4-0.5
				C241.4,244.4,242.6,244.9,243.5,245.9z"/>
			<path d="M260.3,252.2H251c0.1,0.8,0.3,1.5,0.8,1.9c0.5,0.4,1.1,0.7,1.7,0.7c1,0,1.7-0.4,2.1-1.3h4.4c-0.2,0.9-0.6,1.7-1.2,2.4
				c-0.6,0.7-1.3,1.3-2.2,1.7c-0.9,0.4-1.9,0.6-3,0.6c-1.3,0-2.5-0.3-3.5-0.8c-1-0.6-1.8-1.4-2.4-2.4c-0.6-1-0.9-2.3-0.9-3.6
				c0-1.4,0.3-2.6,0.9-3.6s1.4-1.8,2.4-2.4c1-0.6,2.2-0.8,3.5-0.8c1.3,0,2.4,0.3,3.5,0.8s1.8,1.3,2.4,2.3c0.6,1,0.9,2.2,0.9,3.5
				C260.4,251.4,260.4,251.8,260.3,252.2z M256.2,250c0-0.7-0.2-1.3-0.7-1.7s-1.1-0.6-1.8-0.6c-0.7,0-1.3,0.2-1.7,0.6
				c-0.5,0.4-0.8,1-0.9,1.7H256.2z"/>
			<path d="M271.7,254.8h5.4v3.2h-9.5v-16.8h4.1V254.8z"/>
			<path d="M279.1,247.6c0.5-1,1.2-1.8,2.1-2.4c0.9-0.6,1.9-0.8,3-0.8c0.9,0,1.8,0.2,2.5,0.6s1.3,0.9,1.6,1.5v-1.9h4.1V258h-4.1
				v-1.9c-0.4,0.6-1,1.1-1.7,1.5s-1.5,0.6-2.5,0.6c-1.1,0-2.1-0.3-3-0.9c-0.9-0.6-1.6-1.4-2.1-2.4c-0.5-1-0.8-2.3-0.8-3.6
				S278.5,248.6,279.1,247.6z M287.5,248.8c-0.6-0.6-1.3-0.9-2.1-0.9c-0.8,0-1.5,0.3-2.1,0.9c-0.6,0.6-0.9,1.4-0.9,2.4
				c0,1,0.3,1.8,0.9,2.4c0.6,0.6,1.3,0.9,2.1,0.9c0.8,0,1.5-0.3,2.1-0.9c0.6-0.6,0.9-1.4,0.9-2.4C288.3,250.2,288,249.4,287.5,248.8
				z"/>
			<path d="M301.1,244.9c0.7-0.4,1.5-0.6,2.5-0.6c1.1,0,2.1,0.3,3,0.8c0.9,0.6,1.6,1.4,2.1,2.4s0.8,2.2,0.8,3.6s-0.3,2.6-0.8,3.6
				s-1.2,1.9-2.1,2.4c-0.9,0.6-1.9,0.9-3,0.9c-0.9,0-1.8-0.2-2.5-0.6s-1.3-0.9-1.7-1.5v1.9h-4.1v-17.8h4.1v6.3
				C299.9,245.8,300.4,245.3,301.1,244.9z M304.5,248.8c-0.6-0.6-1.3-0.9-2.1-0.9c-0.8,0-1.5,0.3-2.1,0.9c-0.6,0.6-0.9,1.4-0.9,2.4
				c0,1,0.3,1.8,0.9,2.4c0.6,0.6,1.3,0.9,2.1,0.9c0.8,0,1.5-0.3,2.1-0.9c0.6-0.6,0.9-1.4,0.9-2.4
				C305.3,250.2,305.1,249.4,304.5,248.8z"/>
			<path d="M324.2,252.2h-9.3c0.1,0.8,0.3,1.5,0.8,1.9s1.1,0.7,1.7,0.7c1,0,1.7-0.4,2.1-1.3h4.4c-0.2,0.9-0.6,1.7-1.2,2.4
				c-0.6,0.7-1.3,1.3-2.2,1.7c-0.9,0.4-1.9,0.6-3,0.6c-1.3,0-2.5-0.3-3.5-0.8c-1-0.6-1.8-1.4-2.4-2.4s-0.9-2.3-0.9-3.6
				c0-1.4,0.3-2.6,0.9-3.6c0.6-1,1.4-1.8,2.4-2.4c1-0.6,2.2-0.8,3.5-0.8c1.3,0,2.4,0.3,3.5,0.8c1,0.5,1.8,1.3,2.4,2.3
				c0.6,1,0.9,2.2,0.9,3.5C324.3,251.4,324.3,251.8,324.2,252.2z M320.1,250c0-0.7-0.2-1.3-0.7-1.7c-0.5-0.4-1.1-0.6-1.8-0.6
				c-0.7,0-1.3,0.2-1.7,0.6c-0.5,0.4-0.8,1-0.9,1.7H320.1z"/>
			<path d="M330.6,240.2V258h-4.1v-17.8H330.6z"/>
			<path d="M178.4,307h4.4v1.3h-6v-12.5h1.6V307z"/>
			<path d="M184.5,300.7c0.4-0.8,1-1.4,1.7-1.8c0.7-0.4,1.5-0.6,2.4-0.6c0.9,0,1.6,0.2,2.2,0.6c0.6,0.4,1.1,0.8,1.4,1.4v-1.8h1.7
				v9.9h-1.7v-1.8c-0.3,0.6-0.8,1.1-1.4,1.4s-1.4,0.6-2.2,0.6c-0.9,0-1.7-0.2-2.4-0.6c-0.7-0.4-1.3-1-1.7-1.8
				c-0.4-0.8-0.6-1.7-0.6-2.7C183.9,302.4,184.1,301.5,184.5,300.7z M191.8,301.5c-0.3-0.6-0.7-1-1.2-1.3c-0.5-0.3-1.1-0.4-1.7-0.4
				c-0.6,0-1.2,0.1-1.7,0.4s-0.9,0.7-1.2,1.3s-0.4,1.2-0.4,1.9c0,0.8,0.1,1.4,0.4,2s0.7,1,1.2,1.3s1.1,0.4,1.7,0.4
				c0.6,0,1.2-0.1,1.7-0.4c0.5-0.3,0.9-0.7,1.2-1.3s0.5-1.2,0.5-2S192.1,302,191.8,301.5z"/>
			<path d="M205.5,298.5v9.9h-1.6v-1.5c-0.3,0.5-0.7,0.9-1.3,1.2c-0.6,0.3-1.2,0.4-1.8,0.4c-0.8,0-1.5-0.2-2.1-0.5
				c-0.6-0.3-1.1-0.8-1.4-1.4c-0.4-0.6-0.5-1.4-0.5-2.3v-5.8h1.6v5.6c0,1,0.2,1.7,0.7,2.2c0.5,0.5,1.2,0.8,2,0.8
				c0.9,0,1.6-0.3,2.1-0.8c0.5-0.5,0.8-1.3,0.8-2.4v-5.4H205.5z"/>
			<path d="M215.9,299.4c0.7,0.7,1.1,1.8,1.1,3.1v5.8h-1.6v-5.6c0-1-0.2-1.7-0.7-2.3c-0.5-0.5-1.2-0.8-2-0.8c-0.9,0-1.6,0.3-2.1,0.8
				c-0.5,0.5-0.8,1.3-0.8,2.4v5.5h-1.6v-9.9h1.6v1.4c0.3-0.5,0.8-0.9,1.3-1.2c0.6-0.3,1.2-0.4,1.8-0.4
				C214.2,298.3,215.2,298.7,215.9,299.4z"/>
			<path d="M219.7,300.7c0.4-0.8,1-1.4,1.7-1.8c0.7-0.4,1.6-0.6,2.5-0.6c1.2,0,2.2,0.3,3,0.9c0.8,0.6,1.3,1.4,1.6,2.4h-1.8
				c-0.2-0.6-0.5-1.1-1-1.4c-0.5-0.3-1.1-0.5-1.8-0.5c-0.9,0-1.7,0.3-2.3,1s-0.9,1.6-0.9,2.7c0,1.2,0.3,2.1,0.9,2.8
				c0.6,0.6,1.3,1,2.3,1c0.7,0,1.3-0.2,1.8-0.5s0.8-0.8,1-1.4h1.8c-0.3,1-0.8,1.8-1.6,2.4c-0.8,0.6-1.8,0.9-3,0.9
				c-0.9,0-1.8-0.2-2.5-0.6s-1.3-1-1.7-1.8c-0.4-0.8-0.6-1.7-0.6-2.7C219.1,302.4,219.3,301.5,219.7,300.7z"/>
			<path d="M237.6,298.8c0.6,0.3,1.1,0.8,1.4,1.4c0.3,0.6,0.5,1.4,0.5,2.3v5.8h-1.6v-5.6c0-1-0.2-1.7-0.7-2.3
				c-0.5-0.5-1.2-0.8-2-0.8c-0.9,0-1.6,0.3-2.1,0.8c-0.5,0.5-0.8,1.3-0.8,2.4v5.5h-1.6V295h1.6v4.9c0.3-0.5,0.8-0.9,1.3-1.2
				c0.6-0.3,1.2-0.4,1.9-0.4C236.3,298.3,237,298.5,237.6,298.8z"/>
			<path d="M254.3,302.1c-0.7,0.7-1.8,1-3.3,1h-2.4v5.2H247v-12.5h4c1.4,0,2.5,0.3,3.2,1c0.7,0.7,1.1,1.6,1.1,2.6
				C255.4,300.5,255,301.4,254.3,302.1z M253.1,301.2c0.4-0.4,0.6-1,0.6-1.7c0-1.5-0.9-2.3-2.7-2.3h-2.4v4.6h2.4
				C252,301.8,252.6,301.6,253.1,301.2z"/>
			<path d="M260.3,298.8c0.5-0.3,1.2-0.5,2-0.5v1.7h-0.4c-1.8,0-2.8,1-2.8,3v5.4h-1.6v-9.9h1.6v1.6
				C259.3,299.5,259.8,299.1,260.3,298.8z"/>
			<path d="M273.1,304h-7.9c0.1,1,0.4,1.7,1,2.3s1.3,0.8,2.2,0.8c0.7,0,1.3-0.2,1.8-0.5s0.8-0.8,1-1.3h1.8c-0.3,0.9-0.8,1.7-1.6,2.3
				c-0.8,0.6-1.8,0.9-3,0.9c-0.9,0-1.8-0.2-2.5-0.6c-0.7-0.4-1.3-1-1.7-1.8c-0.4-0.8-0.6-1.7-0.6-2.7c0-1,0.2-1.9,0.6-2.7
				c0.4-0.8,1-1.4,1.7-1.8s1.6-0.6,2.5-0.6c0.9,0,1.8,0.2,2.5,0.6c0.7,0.4,1.3,1,1.7,1.7c0.4,0.7,0.6,1.5,0.6,2.4
				C273.1,303.4,273.1,303.7,273.1,304z M271,301.1c-0.3-0.5-0.7-0.8-1.1-1s-1-0.4-1.6-0.4c-0.8,0-1.5,0.3-2.1,0.8s-0.9,1.3-1,2.2
				h6.2C271.4,302.1,271.3,301.5,271,301.1z"/>
			<path d="M289.2,298.8c0.6,0.3,1.1,0.8,1.4,1.4c0.3,0.6,0.5,1.4,0.5,2.3v5.8h-1.6v-5.6c0-1-0.2-1.7-0.7-2.3
				c-0.5-0.5-1.1-0.8-2-0.8c-0.9,0-1.5,0.3-2,0.8s-0.8,1.3-0.8,2.4v5.4h-1.6v-5.6c0-1-0.2-1.7-0.7-2.3c-0.5-0.5-1.1-0.8-2-0.8
				c-0.9,0-1.5,0.3-2,0.8s-0.8,1.3-0.8,2.4v5.4h-1.6v-9.9h1.6v1.4c0.3-0.5,0.8-0.9,1.3-1.2c0.5-0.3,1.1-0.4,1.8-0.4
				c0.8,0,1.6,0.2,2.2,0.6c0.6,0.4,1.1,0.9,1.4,1.6c0.3-0.7,0.7-1.2,1.4-1.6c0.6-0.4,1.3-0.6,2.1-0.6
				C287.9,298.3,288.6,298.5,289.2,298.8z"/>
			<path d="M293.9,296.6c-0.2-0.2-0.3-0.5-0.3-0.8c0-0.3,0.1-0.6,0.3-0.8c0.2-0.2,0.5-0.3,0.8-0.3c0.3,0,0.6,0.1,0.8,0.3
				s0.3,0.5,0.3,0.8c0,0.3-0.1,0.6-0.3,0.8s-0.5,0.3-0.8,0.3C294.4,296.9,294.1,296.8,293.9,296.6z M295.5,298.5v9.9h-1.6v-9.9
				H295.5z"/>
			<path d="M307,298.5v9.9h-1.6v-1.5c-0.3,0.5-0.7,0.9-1.3,1.2c-0.6,0.3-1.2,0.4-1.8,0.4c-0.8,0-1.5-0.2-2.1-0.5
				c-0.6-0.3-1.1-0.8-1.4-1.4c-0.4-0.6-0.5-1.4-0.5-2.3v-5.8h1.6v5.6c0,1,0.2,1.7,0.7,2.2c0.5,0.5,1.2,0.8,2,0.8
				c0.9,0,1.6-0.3,2.1-0.8s0.8-1.3,0.8-2.4v-5.4H307z"/>
			<path d="M323.7,298.8c0.6,0.3,1.1,0.8,1.4,1.4c0.3,0.6,0.5,1.4,0.5,2.3v5.8H324v-5.6c0-1-0.2-1.7-0.7-2.3c-0.5-0.5-1.1-0.8-2-0.8
				c-0.9,0-1.5,0.3-2,0.8s-0.8,1.3-0.8,2.4v5.4h-1.6v-5.6c0-1-0.2-1.7-0.7-2.3c-0.5-0.5-1.1-0.8-2-0.8c-0.9,0-1.5,0.3-2,0.8
				s-0.8,1.3-0.8,2.4v5.4h-1.6v-9.9h1.6v1.4c0.3-0.5,0.8-0.9,1.3-1.2s1.1-0.4,1.8-0.4c0.8,0,1.6,0.2,2.2,0.6
				c0.6,0.4,1.1,0.9,1.4,1.6c0.3-0.7,0.7-1.2,1.4-1.6s1.3-0.6,2.1-0.6C322.4,298.3,323.1,298.5,323.7,298.8z"/>
			<path d="M343,308.4h-1.6l-6.6-10v10h-1.6v-12.6h1.6l6.6,10v-10h1.6V308.4z"/>
			<path d="M352.9,295.8v1.3h-5.5v4.2h4.4v1.3h-4.4v5.7h-1.6v-12.5H352.9z"/>
			<path d="M362.6,295.8v1.3h-3.4v11.2h-1.6v-11.2h-3.4v-1.3H362.6z"/>
			<path d="M366,308.1c-0.6-0.3-1.1-0.6-1.4-1.1s-0.5-1-0.6-1.6h1.7c0,0.5,0.3,0.9,0.7,1.2c0.4,0.3,1,0.5,1.6,0.5
				c0.6,0,1.1-0.1,1.5-0.4s0.5-0.6,0.5-1c0-0.4-0.2-0.8-0.6-1s-1-0.4-1.8-0.6c-0.7-0.2-1.3-0.4-1.8-0.6c-0.5-0.2-0.9-0.5-1.2-0.9
				c-0.3-0.4-0.5-0.9-0.5-1.5c0-0.5,0.2-1,0.5-1.4s0.7-0.8,1.3-1c0.6-0.2,1.2-0.4,1.9-0.4c1.1,0,2,0.3,2.6,0.8
				c0.7,0.6,1,1.3,1.1,2.3H370c0-0.5-0.2-0.9-0.6-1.2s-0.9-0.5-1.5-0.5c-0.6,0-1.1,0.1-1.4,0.4c-0.3,0.3-0.5,0.6-0.5,1
				c0,0.3,0.1,0.6,0.3,0.8s0.5,0.4,0.8,0.5c0.3,0.1,0.8,0.3,1.3,0.4c0.7,0.2,1.3,0.4,1.7,0.6c0.4,0.2,0.8,0.5,1.1,0.8
				c0.3,0.4,0.5,0.9,0.5,1.5c0,0.5-0.1,1-0.4,1.5c-0.3,0.4-0.7,0.8-1.3,1s-1.2,0.4-1.9,0.4C367.3,308.5,366.6,308.4,366,308.1z"/>
			<path d="M222.8,323.7c-0.7,0.7-1.8,1-3.3,1h-2.4v5.2h-1.6v-12.5h4c1.4,0,2.5,0.3,3.2,1c0.7,0.7,1.1,1.6,1.1,2.6
				C223.9,322.1,223.5,323,222.8,323.7z M221.5,322.8c0.4-0.4,0.6-1,0.6-1.7c0-1.5-0.9-2.3-2.7-2.3h-2.4v4.6h2.4
				C220.4,323.4,221.1,323.2,221.5,322.8z"/>
			<path d="M228.8,320.4c0.5-0.3,1.2-0.5,2-0.5v1.7h-0.4c-1.8,0-2.8,1-2.8,3v5.4h-1.6v-9.9h1.6v1.6
				C227.8,321.1,228.2,320.7,228.8,320.4z"/>
			<path d="M232.7,318.2c-0.2-0.2-0.3-0.5-0.3-0.8c0-0.3,0.1-0.6,0.3-0.8s0.5-0.3,0.8-0.3c0.3,0,0.6,0.1,0.8,0.3s0.3,0.5,0.3,0.8
				c0,0.3-0.1,0.6-0.3,0.8s-0.5,0.3-0.8,0.3C233.1,318.5,232.9,318.4,232.7,318.2z M234.3,320.1v9.9h-1.6v-9.9H234.3z"/>
			<path d="M240.7,328.4l3.1-8.4h1.7l-3.9,9.9h-1.9l-3.9-9.9h1.8L240.7,328.4z"/>
			<path d="M247.1,322.3c0.4-0.8,1-1.4,1.7-1.8c0.7-0.4,1.5-0.6,2.4-0.6c0.9,0,1.6,0.2,2.2,0.6c0.6,0.4,1.1,0.8,1.4,1.4v-1.8h1.7
				v9.9h-1.7v-1.8c-0.3,0.6-0.8,1.1-1.4,1.4s-1.4,0.6-2.2,0.6c-0.9,0-1.7-0.2-2.4-0.6c-0.7-0.4-1.3-1-1.7-1.8
				c-0.4-0.8-0.6-1.7-0.6-2.7C246.5,324,246.7,323.1,247.1,322.3z M254.4,323.1c-0.3-0.6-0.7-1-1.2-1.3c-0.5-0.3-1.1-0.4-1.7-0.4
				c-0.6,0-1.2,0.1-1.7,0.4s-0.9,0.7-1.2,1.3s-0.4,1.2-0.4,1.9c0,0.8,0.1,1.4,0.4,2s0.7,1,1.2,1.3s1.1,0.4,1.7,0.4
				c0.6,0,1.2-0.1,1.7-0.4c0.5-0.3,0.9-0.7,1.2-1.3s0.5-1.2,0.5-2S254.7,323.6,254.4,323.1z"/>
			<path d="M261.3,321.4v5.8c0,0.5,0.1,0.8,0.3,1c0.2,0.2,0.6,0.3,1.1,0.3h1.2v1.4h-1.5c-0.9,0-1.6-0.2-2.1-0.6
				c-0.5-0.4-0.7-1.1-0.7-2.1v-5.8h-1.3v-1.4h1.3v-2.5h1.6v2.5h2.6v1.4H261.3z"/>
			<path d="M274.8,325.6h-7.9c0.1,1,0.4,1.7,1,2.3s1.3,0.8,2.2,0.8c0.7,0,1.3-0.2,1.8-0.5s0.8-0.8,1-1.3h1.8
				c-0.3,0.9-0.8,1.7-1.6,2.3c-0.8,0.6-1.8,0.9-3,0.9c-0.9,0-1.8-0.2-2.5-0.6c-0.7-0.4-1.3-1-1.7-1.8c-0.4-0.8-0.6-1.7-0.6-2.7
				c0-1,0.2-1.9,0.6-2.7c0.4-0.8,1-1.4,1.7-1.8s1.6-0.6,2.5-0.6c0.9,0,1.8,0.2,2.5,0.6c0.7,0.4,1.3,1,1.7,1.7
				c0.4,0.7,0.6,1.5,0.6,2.4C274.9,325,274.8,325.3,274.8,325.6z M272.8,322.7c-0.3-0.5-0.7-0.8-1.1-1s-1-0.4-1.6-0.4
				c-0.8,0-1.5,0.3-2.1,0.8s-0.9,1.3-1,2.2h6.2C273.2,323.7,273,323.1,272.8,322.7z"/>
			<path d="M284.7,320.4c0.5-0.3,1.2-0.5,2-0.5v1.7h-0.4c-1.8,0-2.8,1-2.8,3v5.4h-1.6v-9.9h1.6v1.6
				C283.8,321.1,284.2,320.7,284.7,320.4z"/>
			<path d="M290.3,329.5c-0.8-0.4-1.3-1-1.8-1.8c-0.4-0.8-0.6-1.7-0.6-2.7c0-1,0.2-1.9,0.7-2.7c0.4-0.8,1-1.4,1.8-1.8
				s1.6-0.6,2.5-0.6c0.9,0,1.8,0.2,2.5,0.6s1.4,1,1.8,1.8s0.7,1.7,0.7,2.7c0,1-0.2,1.9-0.7,2.7c-0.5,0.8-1.1,1.4-1.8,1.8
				c-0.8,0.4-1.6,0.6-2.6,0.6C291.9,330.1,291.1,329.9,290.3,329.5z M294.5,328.3c0.5-0.3,0.9-0.7,1.3-1.2c0.3-0.6,0.5-1.2,0.5-2
				s-0.2-1.5-0.5-2c-0.3-0.6-0.7-1-1.2-1.2c-0.5-0.3-1-0.4-1.6-0.4c-0.6,0-1.1,0.1-1.6,0.4c-0.5,0.3-0.9,0.7-1.2,1.2
				c-0.3,0.6-0.5,1.2-0.5,2c0,0.8,0.1,1.5,0.4,2s0.7,1,1.2,1.2c0.5,0.3,1,0.4,1.6,0.4C293.4,328.7,294,328.5,294.5,328.3z"/>
			<path d="M308.8,320.1v9.9h-1.6v-1.5c-0.3,0.5-0.7,0.9-1.3,1.2c-0.6,0.3-1.2,0.4-1.8,0.4c-0.8,0-1.5-0.2-2.1-0.5
				c-0.6-0.3-1.1-0.8-1.4-1.4c-0.4-0.6-0.5-1.4-0.5-2.3v-5.8h1.6v5.6c0,1,0.2,1.7,0.7,2.2c0.5,0.5,1.2,0.8,2,0.8
				c0.9,0,1.6-0.3,2.1-0.8s0.8-1.3,0.8-2.4v-5.4H308.8z"/>
			<path d="M319.3,321c0.7,0.7,1.1,1.8,1.1,3.1v5.8h-1.6v-5.6c0-1-0.2-1.7-0.7-2.3c-0.5-0.5-1.2-0.8-2-0.8c-0.9,0-1.6,0.3-2.1,0.8
				c-0.5,0.5-0.8,1.3-0.8,2.4v5.5h-1.6v-9.9h1.6v1.4c0.3-0.5,0.8-0.9,1.3-1.2c0.6-0.3,1.2-0.4,1.8-0.4
				C317.6,319.9,318.6,320.3,319.3,321z"/>
			<path d="M323.1,322.3c0.4-0.8,1-1.4,1.7-1.8c0.7-0.4,1.5-0.6,2.4-0.6c0.8,0,1.5,0.2,2.1,0.5c0.7,0.4,1.2,0.8,1.5,1.4v-5.2h1.7
				V330h-1.7v-1.9c-0.3,0.6-0.8,1.1-1.4,1.4c-0.6,0.4-1.4,0.6-2.2,0.6c-0.9,0-1.7-0.2-2.4-0.6c-0.7-0.4-1.3-1-1.7-1.8
				s-0.6-1.7-0.6-2.7C322.5,324,322.7,323.1,323.1,322.3z M330.4,323.1c-0.3-0.6-0.7-1-1.2-1.3s-1.1-0.4-1.7-0.4
				c-0.6,0-1.2,0.1-1.7,0.4c-0.5,0.3-0.9,0.7-1.2,1.3c-0.3,0.6-0.5,1.2-0.5,1.9c0,0.8,0.1,1.4,0.5,2c0.3,0.6,0.7,1,1.2,1.3
				c0.5,0.3,1.1,0.4,1.7,0.4c0.6,0,1.2-0.1,1.7-0.4s0.9-0.7,1.2-1.3s0.5-1.2,0.5-2S330.7,323.6,330.4,323.1z"/>
		</g>
	</g>
</g>
<g id="Layer_2">
	<g>
		<g>
			<circle class="st0" cx="691" cy="265" r="140.5"/>
			<path class="st4" d="M691,127c36.9,0,71.5,14.4,97.6,40.4c26.1,26.1,40.4,60.7,40.4,97.6s-14.4,71.5-40.4,97.6S727.9,403,691,403
				s-71.5-14.4-97.6-40.4S553,301.9,553,265s14.4-71.5,40.4-97.6C619.5,141.4,654.1,127,691,127 M691,122c-79,0-143,64-143,143
				s64,143,143,143s143-64,143-143S770,122,691,122L691,122z"/>
		</g>
		<g>
			<path class="st5" d="M573,485.2c0.6,0,1.2-0.2,1.7-0.5c0.5-0.3,0.9-0.8,1.3-1.4c0.7-1.1,1.4-2.8,2.1-5.2c0.7-2.4,1.4-5.2,2.2-8.5
				c0.7-3.3,1.5-7,2.2-11l0.6,0.8c-0.5,2.4-1,4.9-1.5,7.5c-0.5,2.5-1.1,5-1.6,7.2s-1.1,4.3-1.7,6c-0.6,1.7-1.1,2.9-1.7,3.6
				c-0.4,0.6-0.9,1.1-1.5,1.6c-0.6,0.5-1.4,0.7-2.3,0.7c-0.9,0-1.6-0.2-2-0.7c-0.4-0.4-0.6-1-0.6-1.6c0-0.7,0.2-1.4,0.7-1.9
				c0.5-0.6,1.1-0.9,1.8-0.9c0.6,0,1.1,0.2,1.4,0.5s0.4,0.7,0.4,1.1c0,0.6-0.2,1.1-0.5,1.5c-0.3,0.5-0.7,0.8-1.2,1.1
				c0,0,0.1,0,0.1,0.1S573,485.2,573,485.2z M591.2,483.4l-8.6-22.5c-0.1,0.1-0.2,0.2-0.3,0.3c-0.1,0.1-0.2,0.2-0.3,0.3
				c0.2-0.9,0.3-1.5,0.2-2c-0.1-0.4-0.3-0.7-0.7-0.9s-1.1-0.2-2-0.3l0.2-0.7c0.4,0,0.9,0,1.4,0.1c0.6,0,1.2,0,1.8,0
				c1.1,0,2.1,0,2.9-0.1l7.1,19.3c-0.1,0.9-0.2,1.6-0.3,2.2c-0.1,0.6-0.2,1.2-0.3,1.9c-0.1,0.6-0.2,1.4-0.3,2.2H591.2z M602.2,456.8
				c-0.6,0-1.2,0.2-1.7,0.5c-0.5,0.3-0.9,0.8-1.3,1.3c-1.1,1.6-2.2,4.5-3.4,8.6c-1.2,4.1-2.4,9.5-3.9,16.1l-0.5-1
				c0.4-2,0.9-4.2,1.5-6.6c0.5-2.4,1.1-4.7,1.7-7c0.6-2.3,1.2-4.3,1.9-6.2c0.7-1.8,1.3-3.3,2-4.3c0.5-0.6,1-1.2,1.6-1.6
				c0.6-0.4,1.4-0.7,2.3-0.7c0.9,0,1.6,0.2,2,0.7s0.6,1,0.6,1.6c0,0.7-0.2,1.4-0.7,2c-0.4,0.6-1,0.9-1.8,0.9c-0.6,0-1.1-0.2-1.4-0.5
				s-0.4-0.7-0.4-1.1c0-0.6,0.2-1.1,0.5-1.5c0.3-0.5,0.7-0.8,1.2-1.1c0,0-0.1,0-0.1-0.1C602.3,456.8,602.2,456.8,602.2,456.8z"/>
			<path class="st5" d="M599.4,478c0-1.3,0.2-2.8,0.7-4.4c0.5-1.6,1.2-3.1,2.1-4.5s2-2.6,3.4-3.5c1.4-0.9,2.9-1.4,4.7-1.4
				c1.6,0,2.9,0.5,3.8,1.4c0.9,0.9,1.4,2.4,1.4,4.3c0,1.3-0.2,2.8-0.7,4.4c-0.5,1.6-1.2,3.1-2.1,4.5c-0.9,1.4-2,2.6-3.4,3.5
				c-1.4,0.9-2.9,1.4-4.7,1.4c-1.6,0-2.9-0.5-3.8-1.4C599.9,481.3,599.4,479.9,599.4,478z M610,464.9c-0.7,0-1.4,0.3-2.1,0.9
				s-1.3,1.5-1.9,2.5c-0.6,1.1-1.1,2.3-1.6,3.6c-0.5,1.3-0.8,2.7-1.1,4.1c-0.3,1.4-0.4,2.8-0.4,4c0,1,0.1,1.7,0.5,2.2
				c0.3,0.5,0.7,0.7,1.3,0.7c0.7,0,1.4-0.3,2.1-0.9c0.7-0.6,1.3-1.5,1.9-2.5c0.6-1.1,1.1-2.2,1.6-3.5c0.4-1.3,0.8-2.7,1-4.1
				s0.4-2.8,0.4-4.1c0-1.1-0.1-1.8-0.4-2.2C611.1,465.1,610.6,464.9,610,464.9z"/>
			<path class="st5" d="M633.8,470.2c-0.8-0.4-1.5-0.9-2.1-1.7c-0.6-0.7-0.9-1.6-0.9-2.6c0-0.6,0.3-1.1,0.6-1.4
				c0.4-0.3,0.8-0.4,1.2-0.4c0.9,0,1.5,0.4,1.8,1.3c0.3,0.9,0.4,2,0.3,3.5c-0.1,1.4-0.4,2.8-0.8,4.2c-0.4,1.4-0.9,2.7-1.5,4
				c-0.6,1.3-1.4,2.4-2.3,3.4s-1.9,1.8-3.1,2.3c-1.1,0.6-2.4,0.8-3.8,0.8c-1.2,0-2.1-0.2-2.7-0.7c-0.6-0.4-1.1-1-1.4-1.7
				c-0.3-0.7-0.4-1.4-0.3-2.1c0.1-1.4,0.5-2.9,1.3-4.4c0.8-1.5,1.8-3.1,3.1-4.7c1.3-1.6,2.8-3.1,4.4-4.6c-0.5,0.1-0.9,0.3-1.4,0.6
				c-0.5,0.3-0.9,0.6-1.3,0.8c-0.4,0.3-0.8,0.5-1.2,0.7c-0.4,0.2-0.8,0.3-1.1,0.3c-0.5,0-0.8-0.1-1.2-0.4c-0.3-0.3-0.7-0.4-1-0.4
				c-0.4,0-0.7,0.2-0.9,0.5c-0.2,0.3-0.5,0.8-0.7,1.6l-0.4,1.2h-0.7l0.8-2.6c0.4-1.5,0.9-2.4,1.5-3c0.6-0.5,1.2-0.8,1.9-0.8
				c0.5,0,0.8,0.1,1.2,0.3c0.3,0.2,0.6,0.5,1,0.7c0.3,0.2,0.8,0.3,1.3,0.3c0.5,0,1-0.1,1.5-0.2c0.5-0.2,1-0.4,1.4-0.8l0.4-0.7
				l0.8,0.4c-1.2,1.6-2.3,3.2-3.2,4.9c-0.9,1.7-1.6,3.3-2.1,4.9c-0.5,1.6-0.8,3.2-0.9,4.8c-0.1,1.3,0,2.2,0.3,2.8
				c0.3,0.6,0.7,0.8,1.3,0.8c1.1,0,2-0.3,2.9-0.8c0.9-0.6,1.7-1.3,2.4-2.2c0.7-0.9,1.3-1.9,1.9-3c0.5-1.1,0.9-2.2,1.3-3.3
				C633.5,472.1,633.7,471.1,633.8,470.2z"/>
			<path class="st5" d="M639.5,475.2c1.2-0.4,2.3-0.9,3.4-1.3c1-0.5,1.9-0.9,2.5-1.5c0.9-0.7,1.6-1.6,2.1-2.6c0.5-1,0.8-2.1,0.8-3.4
				c0-0.6,0-1-0.1-1.2c-0.1-0.2-0.2-0.3-0.4-0.3c-0.7,0-1.5,0.4-2.3,1.2c-0.9,0.8-1.7,1.9-2.4,3.2s-1.4,2.8-1.9,4.4
				c-0.5,1.6-0.7,3.2-0.7,4.8c0,1.2,0.2,2.1,0.7,2.7c0.5,0.5,1.1,0.8,1.9,0.8c0.8,0,1.7-0.2,2.6-0.7c1-0.5,1.9-1.4,2.8-2.6l0.6,0.3
				c-0.5,0.8-1.1,1.6-1.9,2.3c-0.8,0.7-1.6,1.3-2.6,1.8c-1,0.5-2,0.7-3.2,0.7c-1.5,0-2.7-0.4-3.7-1.3c-0.9-0.9-1.4-2.1-1.4-3.8
				c0-1.1,0.2-2.3,0.6-3.6c0.4-1.3,1-2.6,1.7-3.9c0.7-1.3,1.6-2.4,2.6-3.5c1-1.1,2.1-1.9,3.4-2.5c1.2-0.6,2.6-0.9,4-0.9
				c0.9,0,1.6,0.2,2.2,0.6c0.6,0.4,0.9,1,0.9,1.9c0,1-0.3,1.9-0.8,2.7s-1.3,1.6-2.2,2.2c-0.9,0.7-1.9,1.3-3,1.8
				c-1.1,0.5-2.1,1-3.2,1.4s-2,0.7-2.9,0.9L639.5,475.2z"/>
			<path class="st5" d="M656.6,483.2h-3.8l4.3-15.5c0.1-0.2,0.2-0.5,0.2-0.8c0-0.3,0-0.6-0.1-0.9c-0.1-0.3-0.3-0.4-0.6-0.4
				c-0.5,0-1,0.3-1.4,0.8c-0.4,0.5-0.8,1.4-1.3,2.6l-0.5,1.5h-0.7l0.9-2.7c0.5-1.5,1.2-2.5,2.1-3c0.8-0.5,1.7-0.7,2.5-0.7
				c1,0,1.7,0.3,2,0.8s0.4,1.2,0.4,2c-0.1,0.8-0.2,1.5-0.4,2.2L656.6,483.2z M666.3,468.4c0.2-0.7,0.3-1.3,0.3-1.9
				c0-0.6-0.3-0.8-0.9-0.8c-0.6,0-1.3,0.4-2.1,1.2c-0.7,0.8-1.5,1.8-2.3,3.2c-0.8,1.4-1.5,3-2.2,4.9c-0.7,1.8-1.4,3.9-2,6l0.9-4.7
				c1.1-3,2.1-5.3,3.1-7.1c1-1.8,1.9-3,3-3.8c1-0.8,2.1-1.1,3.3-1.1c1.1,0,1.8,0.3,2.1,0.8c0.3,0.6,0.5,1.2,0.4,2.1
				c-0.1,0.8-0.2,1.7-0.5,2.5l-3.7,13.6h-3.9L666.3,468.4z M675.5,468.4c0.2-0.7,0.3-1.3,0.3-1.9c0-0.6-0.2-0.8-0.7-0.8
				c-0.8,0-1.8,0.7-2.8,2c-1,1.3-2,3.2-3.1,5.6c-1.1,2.4-2.1,5.2-3.1,8.5l0.6-3.7c0.9-2.6,1.8-4.7,2.6-6.5s1.6-3.2,2.4-4.2
				c0.8-1.1,1.6-1.8,2.4-2.3s1.7-0.7,2.7-0.7c1,0,1.7,0.3,2.1,0.8s0.6,1.2,0.5,2.1c0,0.8-0.2,1.7-0.5,2.6l-3.5,10.5
				c-0.2,0.7-0.3,1.2-0.2,1.6c0.1,0.3,0.3,0.5,0.8,0.5c0.4,0,0.8-0.2,1.3-0.7c0.4-0.5,0.9-1.4,1.4-2.7l0.5-1.5h0.7l-0.9,2.6
				c-0.5,1.5-1.2,2.5-2.1,3c-0.8,0.5-1.7,0.7-2.4,0.7c-0.6,0-1.2-0.1-1.5-0.3s-0.7-0.5-0.9-0.8c-0.3-0.5-0.4-1-0.3-1.7
				c0.1-0.7,0.3-1.5,0.6-2.4L675.5,468.4z"/>
			<path class="st5" d="M685.5,481.4c-0.6,0.3-1.3,0.7-2,1.1c-0.7,0.4-1.4,0.9-2,1.3l-0.5-0.3c0.2-0.3,0.3-0.7,0.4-1
				c0.1-0.3,0.2-0.7,0.3-1.1l6.4-22.2c0.2-0.8,0.2-1.4-0.1-1.8s-1-0.6-2.2-0.6l0.2-0.8c1.4,0,2.7-0.2,3.8-0.4
				c1.1-0.3,2.2-0.6,3.2-1.1L685.5,481.4z M693.6,465.6c-0.6,0-1.2,0.4-1.9,1.2s-1.4,1.9-2.2,3.2c-0.7,1.3-1.4,2.9-2.1,4.6
				c-0.6,1.7-1.2,3.5-1.6,5.3l0.6-3.8c1.4-4.3,2.8-7.3,4.2-9.1c1.3-1.8,2.8-2.7,4.3-2.7c1.2,0,2.2,0.4,2.9,1.3
				c0.7,0.9,1.1,2.2,1.1,3.9c0,1.1-0.2,2.3-0.5,3.6c-0.3,1.3-0.8,2.6-1.4,3.8c-0.6,1.3-1.3,2.4-2.2,3.5c-0.9,1.1-1.9,1.9-3,2.5
				c-1.1,0.6-2.4,0.9-3.7,0.9c-0.7,0-1.3-0.2-1.9-0.6s-1-0.9-1.2-1.6l0.3-0.7c0.3,0.7,0.7,1.2,1,1.5c0.4,0.3,0.8,0.4,1.4,0.4
				c0.8,0,1.5-0.3,2.3-0.9c0.7-0.6,1.4-1.5,2-2.5c0.6-1,1.1-2.2,1.6-3.5c0.5-1.3,0.8-2.5,1.1-3.8s0.4-2.5,0.4-3.6
				c0-1-0.1-1.7-0.4-2.2C694.4,465.8,694,465.6,693.6,465.6z"/>
			<path class="st5" d="M703.8,475.2c1.2-0.4,2.3-0.9,3.4-1.3c1-0.5,1.9-0.9,2.5-1.5c0.9-0.7,1.6-1.6,2.1-2.6c0.5-1,0.8-2.1,0.8-3.4
				c0-0.6,0-1-0.1-1.2c-0.1-0.2-0.2-0.3-0.4-0.3c-0.7,0-1.5,0.4-2.3,1.2c-0.9,0.8-1.7,1.9-2.4,3.2s-1.4,2.8-1.9,4.4
				c-0.5,1.6-0.7,3.2-0.7,4.8c0,1.2,0.2,2.1,0.7,2.7c0.5,0.5,1.1,0.8,1.9,0.8c0.8,0,1.7-0.2,2.6-0.7c1-0.5,1.9-1.4,2.8-2.6l0.6,0.3
				c-0.5,0.8-1.1,1.6-1.9,2.3c-0.8,0.7-1.6,1.3-2.6,1.8c-1,0.5-2,0.7-3.2,0.7c-1.5,0-2.7-0.4-3.7-1.3c-0.9-0.9-1.4-2.1-1.4-3.8
				c0-1.1,0.2-2.3,0.6-3.6c0.4-1.3,1-2.6,1.7-3.9c0.7-1.3,1.6-2.4,2.6-3.5c1-1.1,2.1-1.9,3.4-2.5c1.2-0.6,2.6-0.9,4-0.9
				c0.9,0,1.6,0.2,2.2,0.6c0.6,0.4,0.9,1,0.9,1.9c0,1-0.3,1.9-0.8,2.7s-1.3,1.6-2.2,2.2c-0.9,0.7-1.9,1.3-3,1.8
				c-1.1,0.5-2.1,1-3.2,1.4s-2,0.7-2.9,0.9L703.8,475.2z"/>
			<path class="st5" d="M720.9,483.2h-3.8l4.3-15.5c0.2-0.8,0.3-1.3,0.2-1.6c-0.1-0.3-0.3-0.5-0.7-0.5c-0.5,0-0.9,0.3-1.3,0.8
				c-0.4,0.5-0.8,1.4-1.3,2.6l-0.5,1.5h-0.7l0.9-2.7c0.5-1.5,1.2-2.5,2.1-3c0.8-0.5,1.7-0.7,2.5-0.7c1,0,1.6,0.3,1.9,0.8
				s0.4,1.2,0.3,2c-0.1,0.8-0.2,1.5-0.4,2.3L720.9,483.2z M730.1,465c-0.5,0-1.1,0.2-1.7,0.7c-0.6,0.4-1.2,1.1-1.8,2
				c-0.6,0.9-1.2,2-1.8,3.3c-0.6,1.3-1.2,2.9-1.8,4.7c-0.6,1.8-1.2,3.8-1.8,6.1l0.9-4.7c0.8-2.4,1.5-4.5,2.2-6.2c0.7-1.7,1.3-3,2-4
				s1.3-1.7,2.1-2.2c0.7-0.4,1.5-0.7,2.3-0.7c0.8,0,1.4,0.2,1.8,0.7s0.6,1,0.6,1.7c0,0.8-0.3,1.5-0.8,2.1c-0.6,0.6-1.2,0.9-2,0.9
				c-0.5,0-0.9-0.1-1.2-0.4c-0.3-0.3-0.5-0.7-0.5-1.2c0-0.7,0.2-1.2,0.6-1.7c0.4-0.5,0.9-0.8,1.5-1c0,0-0.1-0.1-0.2-0.1
				C730.3,465.1,730.2,465,730.1,465z"/>
			<path class="st5" d="M752.2,464.2c1.6,0,2.8,0.3,3.7,1s1.4,1.5,1.4,2.7c0,1-0.3,1.9-0.9,2.8c-0.6,0.9-1.4,1.8-2.4,2.7
				c-1,0.9-2,1.7-3.1,2.4c-1.1,0.8-2.2,1.5-3.1,2.1c-1,0.7-1.8,1.2-2.4,1.7c0.6,0,1.4,0.1,2.2,0.3c0.9,0.2,1.7,0.3,2.6,0.5
				s1.7,0.3,2.4,0.3c0.9,0,1.5-0.1,2-0.4c0.5-0.3,0.7-0.7,0.7-1.3c0-0.8-0.5-1.5-1.5-1.9l0.5-0.5c0.6,0.3,1.1,0.7,1.5,1.2
				c0.3,0.5,0.5,1,0.5,1.7c0,0.7-0.2,1.3-0.5,1.9c-0.3,0.6-0.8,1.1-1.6,1.5c-0.7,0.4-1.7,0.6-2.8,0.6c-1.2,0-2.2-0.2-3.3-0.5
				c-1-0.3-2.2-0.5-3.5-0.6c-0.9,0-1.7,0-2.3,0.2c-0.6,0.2-1.3,0.4-2,0.7l0.2-0.8c0.7-0.5,1.5-1.2,2.6-1.9c1.1-0.8,2.2-1.6,3.4-2.5
				c1.2-0.9,2.3-1.9,3.4-3c1.1-1.1,1.9-2.2,2.6-3.3c0.7-1.2,1-2.3,1-3.5c0-1-0.2-1.7-0.7-2.3c-0.5-0.6-1.2-0.8-2.1-0.8
				c-0.9,0-1.8,0.3-2.8,0.8c-1,0.6-1.8,1.3-2.4,2.1s-1,1.8-1,2.8c0,0.6,0.2,1,0.5,1.3c0.3,0.3,0.9,0.4,1.6,0.4
				c0.7,0,1.3-0.1,1.7-0.4c0.5-0.3,1-0.6,1.6-1.1l0.4,0.5c-0.7,0.6-1.4,1.1-2.1,1.3c-0.7,0.3-1.3,0.4-1.9,0.4
				c-0.6,0-1.2-0.2-1.8-0.5c-0.6-0.3-0.9-1-0.9-2c0-1.1,0.4-2.1,1.1-3.1c0.8-1,1.8-1.9,3-2.5C749.2,464.5,750.6,464.2,752.2,464.2z"
				/>
			<path class="st5" d="M772.7,464.1c2,0,3.5,0.6,4.6,1.7c1.1,1.1,1.6,2.7,1.6,4.7c0,1.6-0.3,3.2-0.9,4.8c-0.6,1.6-1.5,3-2.6,4.2
				c-1.1,1.2-2.4,2.2-3.8,3c-1.4,0.8-3,1.1-4.6,1.1c-1.9,0-3.5-0.6-4.6-1.7c-1.1-1.1-1.7-2.7-1.7-4.8c0-1.6,0.3-3.2,1-4.8
				c0.6-1.5,1.5-2.9,2.6-4.2c1.1-1.3,2.4-2.3,3.9-3C769.6,464.5,771.1,464.1,772.7,464.1z M772,464.8c-1,0-1.9,0.4-2.8,1.1
				c-0.9,0.7-1.7,1.7-2.4,2.9c-0.7,1.2-1.3,2.6-1.6,4.1c-0.4,1.5-0.6,3.1-0.6,4.8c0,2,0.3,3.4,0.9,4.2c0.6,0.8,1.3,1.2,2.1,1.2
				c1.1,0,2-0.4,2.9-1.2c0.9-0.8,1.7-1.8,2.3-3.1c0.6-1.3,1.2-2.7,1.5-4.2c0.4-1.5,0.6-3.1,0.6-4.7c0-1.9-0.3-3.3-0.8-4
				C773.6,465.2,772.9,464.8,772,464.8z"/>
			<path class="st5" d="M791.7,464.2c1.6,0,2.8,0.3,3.7,1s1.4,1.5,1.4,2.7c0,1-0.3,1.9-0.9,2.8c-0.6,0.9-1.4,1.8-2.4,2.7
				c-1,0.9-2,1.7-3.1,2.4c-1.1,0.8-2.2,1.5-3.1,2.1c-1,0.7-1.8,1.2-2.4,1.7c0.6,0,1.4,0.1,2.2,0.3c0.9,0.2,1.7,0.3,2.6,0.5
				s1.7,0.3,2.4,0.3c0.9,0,1.5-0.1,2-0.4c0.5-0.3,0.7-0.7,0.7-1.3c0-0.8-0.5-1.5-1.5-1.9l0.5-0.5c0.6,0.3,1.1,0.7,1.5,1.2
				c0.3,0.5,0.5,1,0.5,1.7c0,0.7-0.2,1.3-0.5,1.9c-0.3,0.6-0.8,1.1-1.6,1.5c-0.7,0.4-1.7,0.6-2.8,0.6c-1.2,0-2.2-0.2-3.3-0.5
				c-1-0.3-2.2-0.5-3.5-0.6c-0.9,0-1.7,0-2.3,0.2c-0.6,0.2-1.3,0.4-2,0.7l0.2-0.8c0.7-0.5,1.5-1.2,2.6-1.9c1.1-0.8,2.2-1.6,3.4-2.5
				c1.2-0.9,2.3-1.9,3.4-3c1.1-1.1,1.9-2.2,2.6-3.3c0.7-1.2,1-2.3,1-3.5c0-1-0.2-1.7-0.7-2.3c-0.5-0.6-1.2-0.8-2.1-0.8
				c-0.9,0-1.8,0.3-2.8,0.8c-1,0.6-1.8,1.3-2.4,2.1s-1,1.8-1,2.8c0,0.6,0.2,1,0.5,1.3c0.3,0.3,0.9,0.4,1.6,0.4
				c0.7,0,1.3-0.1,1.7-0.4c0.5-0.3,1-0.6,1.6-1.1l0.4,0.5c-0.7,0.6-1.4,1.1-2.1,1.3c-0.7,0.3-1.3,0.4-1.9,0.4
				c-0.6,0-1.2-0.2-1.8-0.5c-0.6-0.3-0.9-1-0.9-2c0-1.1,0.4-2.1,1.1-3.1c0.8-1,1.8-1.9,3-2.5C788.7,464.5,790.1,464.2,791.7,464.2z"
				/>
			<path class="st5" d="M810.9,464.3l-5.6,19h-3.8l4.6-15.4c-0.7,0.3-1.4,0.7-2.2,1c-0.8,0.3-1.8,0.6-3,1l0.1-0.8
				c2.4-0.7,4.3-1.4,5.6-2.3c1.4-0.8,2.5-1.7,3.5-2.4H810.9z"/>
		</g>
		<g>
			<path class="st3" d="M682.4,183.4v4.2h-4.5v12.8h-5.3v-12.8h-4.5v-4.2H682.4z"/>
			<path class="st3" d="M694.3,189.2c-0.2-0.3-0.5-0.6-0.9-0.8c-0.4-0.2-0.8-0.3-1.4-0.3c-1,0-1.8,0.3-2.4,1s-0.8,1.6-0.8,2.7
				c0,1.3,0.3,2.3,0.9,3s1.6,1,2.9,1c1.2,0,2.2-0.5,3-1.5h-4.2v-3.8h8.7v5.3c-0.7,1.3-1.8,2.3-3,3.3c-1.3,0.9-2.9,1.4-4.9,1.4
				c-1.8,0-3.3-0.4-4.6-1.1c-1.3-0.7-2.3-1.7-3-3.1c-0.7-1.3-1-2.8-1-4.5c0-1.7,0.3-3.2,1-4.5c0.7-1.3,1.7-2.3,3-3.1
				c1.3-0.7,2.8-1.1,4.6-1.1c2.2,0,4,0.5,5.4,1.6c1.4,1.1,2.2,2.5,2.5,4.4H694.3z"/>
			<path class="st3" d="M707.3,187.6v2.1h5.3v4h-5.3v2.4h6v4.2h-11.3v-17h11.3v4.2H707.3z"/>
			<path d="M632.1,244.4v3.4h5.5v3.2h-5.5v3.7h6.2v3.3H628v-16.8h10.3v3.3H632.1z"/>
			<path d="M656.1,258H652l-6.9-10.4V258H641v-16.8h4.1l6.9,10.4v-10.4h4.1V258z"/>
			<path d="M674.9,241.1l-6,16.8h-5.1l-6-16.8h4.4l4.2,12.7l4.2-12.7H674.9z"/>
			<path d="M693.8,241.1v3.3h-4.5V258h-4.1v-13.6h-4.5v-3.3H693.8z"/>
			<path d="M698.4,257.3c-1-0.6-1.9-1.4-2.5-2.4c-0.6-1-0.9-2.3-0.9-3.6c0-1.4,0.3-2.6,0.9-3.6c0.6-1,1.4-1.9,2.5-2.4
				c1.1-0.6,2.2-0.8,3.6-0.8s2.5,0.3,3.6,0.8c1.1,0.6,1.9,1.4,2.5,2.4s0.9,2.3,0.9,3.6c0,1.4-0.3,2.6-0.9,3.6s-1.5,1.9-2.5,2.4
				c-1.1,0.6-2.3,0.8-3.6,0.8C700.6,258.1,699.5,257.9,698.4,257.3z M704,253.7c0.6-0.6,0.8-1.4,0.8-2.5c0-1.1-0.3-1.9-0.8-2.5
				c-0.5-0.6-1.2-0.9-2-0.9c-0.8,0-1.5,0.3-2,0.9c-0.5,0.6-0.8,1.4-0.8,2.5c0,1.1,0.3,1.9,0.8,2.5c0.5,0.6,1.2,0.9,2,0.9
				S703.4,254.3,704,253.7z"/>
			<path d="M719.3,258l-4.1-5.6v5.6h-4.1v-17.8h4.1v9.8l4.1-5.4h5.1l-5.6,6.7l5.6,6.7H719.3z"/>
			<path d="M738.5,252.2h-9.3c0.1,0.8,0.3,1.5,0.8,1.9s1.1,0.7,1.7,0.7c1,0,1.7-0.4,2.1-1.3h4.4c-0.2,0.9-0.6,1.7-1.2,2.4
				c-0.6,0.7-1.3,1.3-2.2,1.7c-0.9,0.4-1.9,0.6-3,0.6c-1.3,0-2.5-0.3-3.5-0.8c-1-0.6-1.8-1.4-2.4-2.4s-0.9-2.3-0.9-3.6
				c0-1.4,0.3-2.6,0.9-3.6c0.6-1,1.4-1.8,2.4-2.4c1-0.6,2.2-0.8,3.5-0.8c1.3,0,2.4,0.3,3.5,0.8c1,0.5,1.8,1.3,2.4,2.3
				c0.6,1,0.9,2.2,0.9,3.5C738.6,251.4,738.6,251.8,738.5,252.2z M734.4,250c0-0.7-0.2-1.3-0.7-1.7c-0.5-0.4-1.1-0.6-1.8-0.6
				c-0.7,0-1.3,0.2-1.7,0.6c-0.5,0.4-0.8,1-0.9,1.7H734.4z"/>
			<path d="M752.7,245.9c0.9,1,1.4,2.4,1.4,4.2v7.8H750v-7.3c0-0.9-0.2-1.6-0.7-2.1c-0.5-0.5-1.1-0.7-1.9-0.7
				c-0.8,0-1.4,0.2-1.9,0.7c-0.5,0.5-0.7,1.2-0.7,2.1v7.3h-4.1v-13.4h4.1v1.8c0.4-0.6,1-1.1,1.7-1.4c0.7-0.3,1.5-0.5,2.4-0.5
				C750.5,244.4,751.7,244.9,752.7,245.9z"/>
			<path d="M602.8,308c-0.7-0.3-1.2-0.7-1.5-1.2c-0.4-0.5-0.6-1.1-0.6-1.8h1.7c0.1,0.6,0.3,1.1,0.7,1.5c0.4,0.4,1,0.6,1.9,0.6
				c0.8,0,1.4-0.2,1.8-0.6s0.7-0.9,0.7-1.5c0-0.5-0.1-0.9-0.4-1.2c-0.3-0.3-0.6-0.5-1-0.7c-0.4-0.2-0.9-0.3-1.6-0.5
				c-0.8-0.2-1.5-0.4-2-0.6c-0.5-0.2-0.9-0.6-1.3-1s-0.5-1.1-0.5-1.9c0-0.7,0.2-1.3,0.5-1.8c0.3-0.5,0.8-0.9,1.5-1.2
				s1.4-0.4,2.2-0.4c1.2,0,2.1,0.3,2.9,0.9s1.2,1.4,1.3,2.3h-1.8c-0.1-0.5-0.3-0.9-0.8-1.3s-1-0.5-1.8-0.5c-0.7,0-1.2,0.2-1.7,0.5
				c-0.4,0.4-0.6,0.8-0.6,1.5c0,0.5,0.1,0.8,0.4,1.1c0.3,0.3,0.6,0.5,1,0.7c0.4,0.1,0.9,0.3,1.6,0.5c0.8,0.2,1.5,0.5,2,0.7
				c0.5,0.2,0.9,0.6,1.3,1s0.5,1.1,0.5,1.9c0,0.6-0.2,1.2-0.5,1.7c-0.3,0.5-0.8,1-1.4,1.3c-0.6,0.3-1.4,0.5-2.2,0.5
				C604.2,308.5,603.5,308.3,602.8,308z"/>
			<path d="M621.3,295.8v12.5h-1.6v-5.7h-6.4v5.7h-1.6v-12.5h1.6v5.5h6.4v-5.5H621.3z"/>
			<path d="M626.6,307.7c-1-0.5-1.7-1.3-2.3-2.3c-0.6-1-0.8-2.1-0.8-3.3c0-1.2,0.3-2.3,0.8-3.3c0.6-1,1.3-1.7,2.3-2.3
				c1-0.5,2-0.8,3.2-0.8c1.2,0,2.2,0.3,3.2,0.8s1.7,1.3,2.3,2.3c0.6,1,0.8,2.1,0.8,3.3c0,1.2-0.3,2.3-0.8,3.3
				c-0.6,1-1.3,1.7-2.3,2.3c-1,0.5-2,0.8-3.2,0.8C628.6,308.5,627.5,308.2,626.6,307.7z M632.1,306.4c0.7-0.4,1.3-1,1.7-1.7
				c0.4-0.8,0.6-1.6,0.6-2.6c0-1-0.2-1.9-0.6-2.6c-0.4-0.8-1-1.3-1.6-1.7c-0.7-0.4-1.5-0.6-2.4-0.6c-0.9,0-1.7,0.2-2.4,0.6
				c-0.7,0.4-1.2,1-1.6,1.7c-0.4,0.8-0.6,1.6-0.6,2.6c0,1,0.2,1.9,0.6,2.6c0.4,0.8,1,1.3,1.7,1.7c0.7,0.4,1.5,0.6,2.4,0.6
				C630.6,307.1,631.4,306.9,632.1,306.4z"/>
			<path d="M656.2,298.5l-3.1,9.9h-1.7l-2.4-7.8l-2.4,7.8h-1.7l-3.1-9.9h1.7l2.3,8.3l2.4-8.3h1.7l2.4,8.3l2.2-8.3H656.2z"/>
			<path d="M657.8,296.6c-0.2-0.2-0.3-0.5-0.3-0.8c0-0.3,0.1-0.6,0.3-0.8s0.5-0.3,0.8-0.3c0.3,0,0.6,0.1,0.8,0.3s0.3,0.5,0.3,0.8
				c0,0.3-0.1,0.6-0.3,0.8s-0.5,0.3-0.8,0.3C658.3,296.9,658.1,296.8,657.8,296.6z M659.4,298.5v9.9h-1.6v-9.9H659.4z"/>
			<path d="M664.2,299.8v5.8c0,0.5,0.1,0.8,0.3,1c0.2,0.2,0.6,0.3,1.1,0.3h1.2v1.4h-1.5c-0.9,0-1.6-0.2-2.1-0.6
				c-0.5-0.4-0.7-1.1-0.7-2.1v-5.8h-1.3v-1.4h1.3V296h1.6v2.5h2.6v1.4H664.2z"/>
			<path d="M675.7,298.8c0.6,0.3,1.1,0.8,1.4,1.4c0.3,0.6,0.5,1.4,0.5,2.3v5.8H676v-5.6c0-1-0.2-1.7-0.7-2.3c-0.5-0.5-1.2-0.8-2-0.8
				c-0.9,0-1.6,0.3-2.1,0.8c-0.5,0.5-0.8,1.3-0.8,2.4v5.5h-1.6V295h1.6v4.9c0.3-0.5,0.8-0.9,1.3-1.2c0.6-0.3,1.2-0.4,1.9-0.4
				C674.4,298.3,675.1,298.5,675.7,298.8z"/>
			<path d="M692.5,296.6c1,0.5,1.8,1.2,2.3,2.2c0.5,0.9,0.8,2.1,0.8,3.3s-0.3,2.4-0.8,3.3c-0.5,0.9-1.3,1.7-2.3,2.2
				s-2.2,0.7-3.6,0.7h-3.9v-12.5h3.9C690.4,295.8,691.5,296.1,692.5,296.6z M692.7,305.7c0.9-0.9,1.3-2.1,1.3-3.6
				c0-1.6-0.4-2.8-1.3-3.7c-0.9-0.9-2.1-1.3-3.7-1.3h-2.3v9.9h2.3C690.6,307,691.9,306.6,692.7,305.7z"/>
			<path d="M705.2,305.6h-5.5l-1,2.8H697l4.5-12.5h1.9l4.5,12.5h-1.7L705.2,305.6z M704.8,304.2l-2.3-6.3l-2.3,6.3H704.8z"/>
			<path d="M712.4,307.7c-1-0.5-1.7-1.3-2.3-2.3c-0.6-1-0.8-2.1-0.8-3.3c0-1.2,0.3-2.3,0.8-3.3c0.6-1,1.3-1.7,2.3-2.3s2-0.8,3.2-0.8
				c1.2,0,2.2,0.3,3.2,0.8c1,0.5,1.7,1.3,2.3,2.3c0.6,1,0.8,2.1,0.8,3.3c0,1.2-0.3,2.3-0.8,3.3c-0.6,1-1.3,1.7-2.3,2.3
				c-1,0.5-2,0.8-3.2,0.8C714.5,308.5,713.4,308.2,712.4,307.7z M718,306.4c0.7-0.4,1.3-1,1.7-1.7s0.6-1.6,0.6-2.6
				c0-1-0.2-1.9-0.6-2.6s-1-1.3-1.6-1.7c-0.7-0.4-1.5-0.6-2.4-0.6c-0.9,0-1.7,0.2-2.4,0.6c-0.7,0.4-1.2,1-1.6,1.7s-0.6,1.6-0.6,2.6
				c0,1,0.2,1.9,0.6,2.6s1,1.3,1.7,1.7c0.7,0.4,1.5,0.6,2.4,0.6S717.3,306.9,718,306.4z"/>
			<path d="M741.6,295.9v12.5H740v-9.3l-4.1,9.3h-1.2l-4.2-9.3v9.3h-1.6v-12.5h1.8l4.6,10.3l4.6-10.3H741.6z"/>
			<path d="M744.4,300.7c0.4-0.8,1-1.4,1.7-1.8c0.7-0.4,1.5-0.6,2.4-0.6c0.9,0,1.6,0.2,2.2,0.6c0.6,0.4,1.1,0.8,1.4,1.4v-1.8h1.7
				v9.9h-1.7v-1.8c-0.3,0.6-0.8,1.1-1.4,1.4s-1.4,0.6-2.2,0.6c-0.9,0-1.7-0.2-2.4-0.6c-0.7-0.4-1.3-1-1.7-1.8s-0.6-1.7-0.6-2.7
				C743.8,302.4,744,301.5,744.4,300.7z M751.7,301.5c-0.3-0.6-0.7-1-1.2-1.3s-1.1-0.4-1.7-0.4c-0.6,0-1.2,0.1-1.7,0.4
				c-0.5,0.3-0.9,0.7-1.2,1.3c-0.3,0.6-0.5,1.2-0.5,1.9c0,0.8,0.1,1.4,0.5,2c0.3,0.6,0.7,1,1.2,1.3c0.5,0.3,1.1,0.4,1.7,0.4
				c0.6,0,1.2-0.1,1.7-0.4s0.9-0.7,1.2-1.3s0.5-1.2,0.5-2S752,302,751.7,301.5z"/>
			<path d="M762.1,308.4l-3.9-4.4v4.4h-1.6V295h1.6v7.8l3.8-4.4h2.3l-4.6,4.9l4.7,5H762.1z"/>
			<path d="M774.8,304h-7.9c0.1,1,0.4,1.7,1,2.3c0.6,0.5,1.3,0.8,2.2,0.8c0.7,0,1.3-0.2,1.8-0.5s0.8-0.8,1-1.3h1.8
				c-0.3,0.9-0.8,1.7-1.6,2.3c-0.8,0.6-1.8,0.9-3,0.9c-0.9,0-1.8-0.2-2.5-0.6c-0.7-0.4-1.3-1-1.7-1.8c-0.4-0.8-0.6-1.7-0.6-2.7
				c0-1,0.2-1.9,0.6-2.7s1-1.4,1.7-1.8c0.7-0.4,1.6-0.6,2.5-0.6c0.9,0,1.8,0.2,2.5,0.6c0.7,0.4,1.3,1,1.7,1.7
				c0.4,0.7,0.6,1.5,0.6,2.4C774.8,303.4,774.8,303.7,774.8,304z M772.7,301.1c-0.3-0.5-0.7-0.8-1.1-1c-0.5-0.2-1-0.4-1.6-0.4
				c-0.8,0-1.5,0.3-2.1,0.8s-0.9,1.3-1,2.2h6.2C773.1,302.1,773,301.5,772.7,301.1z"/>
			<path d="M779.9,298.8c0.5-0.3,1.2-0.5,2-0.5v1.7h-0.4c-1.8,0-2.8,1-2.8,3v5.4H777v-9.9h1.6v1.6
				C778.9,299.5,779.3,299.1,779.9,298.8z"/>
			<path d="M631.3,318.2c1,0.5,1.8,1.2,2.3,2.2c0.5,0.9,0.8,2.1,0.8,3.3s-0.3,2.4-0.8,3.3c-0.5,0.9-1.3,1.7-2.3,2.2
				c-1,0.5-2.2,0.7-3.6,0.7h-3.9v-12.5h3.9C629.1,317.4,630.3,317.7,631.3,318.2z M631.4,327.3c0.9-0.9,1.3-2.1,1.3-3.6
				c0-1.6-0.4-2.8-1.3-3.7c-0.9-0.9-2.1-1.3-3.7-1.3h-2.3v9.9h2.3C629.4,328.6,630.6,328.2,631.4,327.3z"/>
			<path d="M638.2,318.7v4.2h4.6v1.3h-4.6v4.3h5.1v1.3h-6.8v-12.6h6.8v1.4H638.2z"/>
			<path d="M650.9,323.7l3.9,6.3h-1.9l-3-4.9l-2.9,4.9h-1.8l3.8-6.3l-3.9-6.3h1.8l3,4.9l2.9-4.9h1.8L650.9,323.7z"/>
			<path d="M663.1,313l-4.9,20h-1.6l4.9-20H663.1z"/>
			<path d="M665.8,320.4c0.6-1,1.3-1.7,2.3-2.3c1-0.6,2-0.8,3.2-0.8c1.4,0,2.6,0.3,3.6,1c1,0.7,1.8,1.6,2.2,2.8h-2
				c-0.3-0.8-0.8-1.3-1.5-1.7c-0.7-0.4-1.4-0.6-2.3-0.6c-0.9,0-1.7,0.2-2.4,0.6c-0.7,0.4-1.2,1-1.6,1.7s-0.6,1.6-0.6,2.6
				c0,1,0.2,1.9,0.6,2.6s0.9,1.3,1.6,1.7c0.7,0.4,1.5,0.6,2.4,0.6c0.9,0,1.7-0.2,2.3-0.6c0.7-0.4,1.2-1,1.5-1.7h2
				c-0.5,1.2-1.2,2.1-2.2,2.8c-1,0.7-2.2,1-3.6,1c-1.2,0-2.2-0.3-3.2-0.8c-1-0.5-1.7-1.3-2.3-2.3c-0.6-1-0.8-2.1-0.8-3.3
				C664.9,322.4,665.2,321.3,665.8,320.4z"/>
			<path d="M681.1,318.7v4.2h4.6v1.3h-4.6v4.3h5.1v1.3h-6.8v-12.6h6.8v1.4H681.1z"/>
			<path d="M693.8,323.7l3.9,6.3h-1.9l-3-4.9l-2.9,4.9h-1.8l3.8-6.3l-3.9-6.3h1.8l3,4.9l2.9-4.9h1.8L693.8,323.7z"/>
			<path d="M706.3,328.6h4.4v1.3h-6v-12.5h1.6V328.6z"/>
			<path d="M712.5,318.2c-0.2-0.2-0.3-0.5-0.3-0.8c0-0.3,0.1-0.6,0.3-0.8c0.2-0.2,0.5-0.3,0.8-0.3c0.3,0,0.6,0.1,0.8,0.3
				s0.3,0.5,0.3,0.8c0,0.3-0.1,0.6-0.3,0.8s-0.5,0.3-0.8,0.3C713,318.5,712.7,318.4,712.5,318.2z M714.1,320.1v9.9h-1.6v-9.9H714.1z
				"/>
			<path d="M718.3,329.7c-0.6-0.3-1.1-0.6-1.4-1.1s-0.5-1-0.6-1.6h1.7c0,0.5,0.3,0.9,0.7,1.2c0.4,0.3,1,0.5,1.6,0.5
				c0.6,0,1.1-0.1,1.5-0.4s0.5-0.6,0.5-1c0-0.4-0.2-0.8-0.6-1s-1-0.4-1.8-0.6c-0.7-0.2-1.3-0.4-1.8-0.6c-0.5-0.2-0.9-0.5-1.2-0.9
				c-0.3-0.4-0.5-0.9-0.5-1.5c0-0.5,0.2-1,0.5-1.4s0.7-0.8,1.3-1c0.6-0.2,1.2-0.4,1.9-0.4c1.1,0,2,0.3,2.6,0.8
				c0.7,0.6,1,1.3,1.1,2.3h-1.6c0-0.5-0.2-0.9-0.6-1.2s-0.9-0.5-1.5-0.5c-0.6,0-1.1,0.1-1.4,0.4c-0.3,0.3-0.5,0.6-0.5,1
				c0,0.3,0.1,0.6,0.3,0.8s0.5,0.4,0.8,0.5c0.3,0.1,0.8,0.3,1.3,0.4c0.7,0.2,1.3,0.4,1.7,0.6c0.4,0.2,0.8,0.5,1.1,0.8
				c0.3,0.4,0.5,0.9,0.5,1.5c0,0.5-0.1,1-0.4,1.5c-0.3,0.4-0.7,0.8-1.3,1s-1.2,0.4-1.9,0.4C719.6,330.1,718.9,330,718.3,329.7z"/>
			<path d="M728.3,321.4v5.8c0,0.5,0.1,0.8,0.3,1c0.2,0.2,0.6,0.3,1.1,0.3h1.2v1.4h-1.5c-0.9,0-1.6-0.2-2.1-0.6s-0.7-1.1-0.7-2.1
				v-5.8h-1.3v-1.4h1.3v-2.5h1.6v2.5h2.6v1.4H728.3z"/>
			<path d="M732.9,318.2c-0.2-0.2-0.3-0.5-0.3-0.8c0-0.3,0.1-0.6,0.3-0.8c0.2-0.2,0.5-0.3,0.8-0.3c0.3,0,0.6,0.1,0.8,0.3
				s0.3,0.5,0.3,0.8c0,0.3-0.1,0.6-0.3,0.8s-0.5,0.3-0.8,0.3C733.3,318.5,733.1,318.4,732.9,318.2z M734.4,320.1v9.9h-1.6v-9.9
				H734.4z"/>
			<path d="M745,321c0.7,0.7,1.1,1.8,1.1,3.1v5.8h-1.6v-5.6c0-1-0.2-1.7-0.7-2.3c-0.5-0.5-1.2-0.8-2-0.8c-0.9,0-1.6,0.3-2.1,0.8
				c-0.5,0.5-0.8,1.3-0.8,2.4v5.5h-1.6v-9.9h1.6v1.4c0.3-0.5,0.8-0.9,1.3-1.2c0.6-0.3,1.2-0.4,1.8-0.4
				C743.2,319.9,744.2,320.3,745,321z"/>
			<path d="M755.1,320.5c0.6,0.4,1.1,0.8,1.4,1.4v-1.8h1.7v10.1c0,0.9-0.2,1.7-0.6,2.4s-0.9,1.3-1.6,1.6c-0.7,0.4-1.5,0.6-2.5,0.6
				c-1.3,0-2.4-0.3-3.2-0.9c-0.9-0.6-1.4-1.4-1.5-2.5h1.6c0.2,0.6,0.6,1.1,1.1,1.4c0.6,0.4,1.2,0.5,2,0.5c0.9,0,1.6-0.3,2.2-0.8
				c0.6-0.6,0.9-1.4,0.9-2.4v-2.1c-0.3,0.6-0.8,1.1-1.4,1.4c-0.6,0.4-1.4,0.6-2.2,0.6c-0.9,0-1.7-0.2-2.4-0.6
				c-0.7-0.4-1.3-1-1.7-1.8s-0.6-1.7-0.6-2.7c0-1,0.2-1.9,0.6-2.7c0.4-0.8,1-1.4,1.7-1.8c0.7-0.4,1.5-0.6,2.4-0.6
				C753.7,319.9,754.4,320.1,755.1,320.5z M756,323.1c-0.3-0.6-0.7-1-1.2-1.3s-1.1-0.4-1.7-0.4c-0.6,0-1.2,0.1-1.7,0.4
				c-0.5,0.3-0.9,0.7-1.2,1.3c-0.3,0.6-0.5,1.2-0.5,1.9c0,0.8,0.1,1.4,0.5,2c0.3,0.6,0.7,1,1.2,1.3c0.5,0.3,1.1,0.4,1.7,0.4
				c0.6,0,1.2-0.1,1.7-0.4s0.9-0.7,1.2-1.3s0.5-1.2,0.5-2S756.3,323.6,756,323.1z"/>
		</g>
	</g>
</g>
<g id="Layer_3">
	<g>
		<g>
			<circle class="st0" cx="1108" cy="265" r="140.5"/>
			<path class="st4" d="M1108,127c36.9,0,71.5,14.4,97.6,40.4c26.1,26.1,40.4,60.7,40.4,97.6s-14.4,71.5-40.4,97.6
				c-26.1,26.1-60.7,40.4-97.6,40.4s-71.5-14.4-97.6-40.4C984.4,336.5,970,301.9,970,265s14.4-71.5,40.4-97.6
				C1036.5,141.4,1071.1,127,1108,127 M1108,122c-79,0-143,64-143,143s64,143,143,143s143-64,143-143S1187,122,1108,122L1108,122z"
				/>
		</g>
		<g>
			<path class="st5" d="M1018.1,465.9c0,1.7-0.3,3.4-0.8,5.1c-0.5,1.7-1.3,3.3-2.2,4.7c-1,1.5-2.2,2.8-3.6,3.9s-3,2-4.8,2.6
				c-1.8,0.6-3.8,1-5.9,1c-0.6,0-1.3,0-2.3-0.1s-2-0.1-2.9-0.1c-0.6,0-1.1,0-1.7,0c-0.6,0-1.1,0-1.7,0s-1,0-1.3,0.1l0.1-0.7
				c0.8,0,1.4-0.1,1.8-0.3c0.4-0.1,0.8-0.4,1.1-0.9c0.3-0.4,0.5-1.1,0.7-1.9l4.7-17.9c0.3-1.2,0.4-2,0.2-2.4
				c-0.2-0.4-0.9-0.7-2.3-0.7l0.1-0.7c0.4,0,0.8,0,1.4,0.1c0.5,0,1.1,0,1.7,0s1.2,0,1.8,0c0.5,0,1.1,0,1.8-0.1c0.7,0,1.3,0,2,0
				c0.6,0,1.2,0,1.7,0c3.4,0,6,0.7,7.8,2.1S1018.1,463.2,1018.1,465.9z M1000.6,482.6c2.2,0,4.1-0.5,5.8-1.5c1.7-1,3-2.3,4.2-4
				c1.1-1.7,2-3.6,2.5-5.7c0.6-2.1,0.8-4.3,0.8-6.5c0-2.2-0.6-3.8-1.7-4.9c-1.1-1.1-2.9-1.7-5.4-1.7c-0.7,0-1.2,0.1-1.6,0.3
				c-0.4,0.2-0.7,0.5-0.9,0.9c-0.2,0.4-0.5,1.1-0.7,1.9l-4.7,18c-0.3,1.1-0.4,1.9-0.3,2.4C998.7,482.3,999.4,482.6,1000.6,482.6z"/>
			<path class="st5" d="M1022.4,475.2c1.2-0.4,2.3-0.9,3.4-1.3c1-0.5,1.9-0.9,2.5-1.5c0.9-0.7,1.6-1.6,2.1-2.6
				c0.5-1,0.8-2.1,0.8-3.4c0-0.6,0-1-0.1-1.2c-0.1-0.2-0.2-0.3-0.4-0.3c-0.7,0-1.5,0.4-2.3,1.2c-0.9,0.8-1.7,1.9-2.4,3.2
				s-1.4,2.8-1.9,4.4c-0.5,1.6-0.7,3.2-0.7,4.8c0,1.2,0.2,2.1,0.7,2.7c0.5,0.5,1.1,0.8,1.9,0.8c0.8,0,1.7-0.2,2.6-0.7
				c1-0.5,1.9-1.4,2.8-2.6l0.6,0.3c-0.5,0.8-1.1,1.6-1.9,2.3c-0.8,0.7-1.6,1.3-2.6,1.8s-2,0.7-3.2,0.7c-1.5,0-2.7-0.4-3.7-1.3
				c-0.9-0.9-1.4-2.1-1.4-3.8c0-1.1,0.2-2.3,0.6-3.6c0.4-1.3,1-2.6,1.7-3.9c0.7-1.3,1.6-2.4,2.6-3.5c1-1.1,2.1-1.9,3.4-2.5
				c1.2-0.6,2.6-0.9,4-0.9c0.9,0,1.6,0.2,2.2,0.6s0.9,1,0.9,1.9c0,1-0.3,1.9-0.8,2.7s-1.3,1.6-2.2,2.2s-1.9,1.3-3,1.8
				c-1.1,0.5-2.1,1-3.2,1.4c-1.1,0.4-2,0.7-2.9,0.9L1022.4,475.2z"/>
			<path class="st5" d="M1046.8,464.9c-0.9,0-1.8,0.4-2.7,1.1c-0.9,0.7-1.7,1.8-2.4,3.1c-0.7,1.3-1.3,2.8-1.7,4.4
				c-0.4,1.6-0.6,3.3-0.6,5.1c0,1.2,0.2,2.1,0.7,2.7c0.5,0.6,1.1,0.8,1.9,0.8c0.8,0,1.7-0.3,2.5-0.8s1.8-1.4,2.6-2.7l0.7,0.3
				c-0.5,0.8-1.1,1.6-1.8,2.3c-0.7,0.7-1.6,1.3-2.5,1.8c-0.9,0.5-2,0.7-3.1,0.7c-1.5,0-2.7-0.4-3.7-1.3c-0.9-0.9-1.4-2.2-1.4-4
				c0-1.4,0.3-3,0.8-4.6s1.3-3.2,2.2-4.6c1-1.5,2.2-2.6,3.6-3.6c1.4-0.9,3-1.4,4.7-1.4c1.1,0,2.1,0.3,2.9,0.9
				c0.8,0.6,1.2,1.4,1.2,2.3c0,0.5-0.1,1-0.4,1.5c-0.2,0.5-0.6,0.9-1,1.2c-0.4,0.3-0.9,0.5-1.5,0.5c-0.5,0-0.9-0.2-1.2-0.5
				c-0.3-0.3-0.4-0.7-0.4-1.2c0-0.8,0.3-1.5,0.9-2c0.6-0.6,1.3-0.9,2-1.1c-0.2-0.3-0.5-0.5-0.8-0.7
				C1047.8,465,1047.3,464.9,1046.8,464.9z"/>
			<path class="st5" d="M1054.2,475.2c1.2-0.4,2.3-0.9,3.4-1.3c1-0.5,1.9-0.9,2.5-1.5c0.9-0.7,1.6-1.6,2.1-2.6
				c0.5-1,0.8-2.1,0.8-3.4c0-0.6,0-1-0.1-1.2c-0.1-0.2-0.2-0.3-0.4-0.3c-0.7,0-1.5,0.4-2.3,1.2c-0.9,0.8-1.7,1.9-2.4,3.2
				s-1.4,2.8-1.9,4.4c-0.5,1.6-0.7,3.2-0.7,4.8c0,1.2,0.2,2.1,0.7,2.7c0.5,0.5,1.1,0.8,1.9,0.8c0.8,0,1.7-0.2,2.6-0.7
				c1-0.5,1.9-1.4,2.8-2.6l0.6,0.3c-0.5,0.8-1.1,1.6-1.9,2.3c-0.8,0.7-1.6,1.3-2.6,1.8s-2,0.7-3.2,0.7c-1.5,0-2.7-0.4-3.7-1.3
				c-0.9-0.9-1.4-2.1-1.4-3.8c0-1.1,0.2-2.3,0.6-3.6c0.4-1.3,1-2.6,1.7-3.9c0.7-1.3,1.6-2.4,2.6-3.5c1-1.1,2.1-1.9,3.4-2.5
				c1.2-0.6,2.6-0.9,4-0.9c0.9,0,1.6,0.2,2.2,0.6s0.9,1,0.9,1.9c0,1-0.3,1.9-0.8,2.7s-1.3,1.6-2.2,2.2s-1.9,1.3-3,1.8
				c-1.1,0.5-2.1,1-3.2,1.4c-1.1,0.4-2,0.7-2.9,0.9L1054.2,475.2z"/>
			<path class="st5" d="M1071.3,483.2h-3.8l4.3-15.5c0.1-0.2,0.2-0.5,0.2-0.8c0-0.3,0-0.6-0.1-0.9s-0.3-0.4-0.6-0.4
				c-0.5,0-1,0.3-1.4,0.8c-0.4,0.5-0.8,1.4-1.3,2.6l-0.5,1.5h-0.7l0.9-2.7c0.5-1.5,1.2-2.5,2.1-3c0.8-0.5,1.7-0.7,2.5-0.7
				c1,0,1.7,0.3,2,0.8c0.3,0.5,0.4,1.2,0.4,2c-0.1,0.8-0.2,1.5-0.4,2.2L1071.3,483.2z M1081,468.4c0.2-0.7,0.3-1.3,0.3-1.9
				c0-0.6-0.3-0.8-0.9-0.8c-0.6,0-1.3,0.4-2.1,1.2c-0.7,0.8-1.5,1.8-2.3,3.2c-0.8,1.4-1.5,3-2.2,4.9c-0.7,1.8-1.4,3.9-2,6l0.9-4.7
				c1.1-3,2.1-5.3,3.1-7.1c1-1.8,1.9-3,3-3.8c1-0.8,2.1-1.1,3.3-1.1c1.1,0,1.8,0.3,2.1,0.8c0.3,0.6,0.5,1.2,0.4,2.1
				c-0.1,0.8-0.2,1.7-0.5,2.5l-3.7,13.6h-3.9L1081,468.4z M1090.2,468.4c0.2-0.7,0.3-1.3,0.3-1.9c0-0.6-0.2-0.8-0.7-0.8
				c-0.8,0-1.8,0.7-2.8,2c-1,1.3-2,3.2-3.1,5.6c-1.1,2.4-2.1,5.2-3.1,8.5l0.6-3.7c0.9-2.6,1.8-4.7,2.6-6.5s1.6-3.2,2.4-4.2
				c0.8-1.1,1.6-1.8,2.4-2.3s1.7-0.7,2.7-0.7c1,0,1.7,0.3,2.1,0.8c0.4,0.6,0.6,1.2,0.5,2.1c0,0.8-0.2,1.7-0.5,2.6l-3.5,10.5
				c-0.2,0.7-0.3,1.2-0.2,1.6s0.3,0.5,0.8,0.5c0.4,0,0.8-0.2,1.3-0.7c0.4-0.5,0.9-1.4,1.4-2.7l0.5-1.5h0.7l-0.9,2.6
				c-0.5,1.5-1.2,2.5-2.1,3c-0.8,0.5-1.7,0.7-2.4,0.7c-0.6,0-1.2-0.1-1.5-0.3s-0.7-0.5-0.9-0.8c-0.3-0.5-0.4-1-0.3-1.7
				c0.1-0.7,0.3-1.5,0.6-2.4L1090.2,468.4z"/>
			<path class="st5" d="M1100.2,481.4c-0.6,0.3-1.3,0.7-2,1.1c-0.7,0.4-1.4,0.9-2,1.3l-0.5-0.3c0.2-0.3,0.3-0.7,0.4-1
				c0.1-0.3,0.2-0.7,0.3-1.1l6.4-22.2c0.2-0.8,0.2-1.4-0.1-1.8c-0.3-0.4-1-0.6-2.2-0.6l0.2-0.8c1.4,0,2.7-0.2,3.8-0.4
				s2.2-0.6,3.2-1.1L1100.2,481.4z M1108.3,465.6c-0.6,0-1.2,0.4-1.9,1.2s-1.4,1.9-2.2,3.2c-0.7,1.3-1.4,2.9-2.1,4.6
				c-0.6,1.7-1.2,3.5-1.6,5.3l0.6-3.8c1.4-4.3,2.8-7.3,4.2-9.1c1.3-1.8,2.8-2.7,4.3-2.7c1.2,0,2.2,0.4,2.9,1.3
				c0.7,0.9,1.1,2.2,1.1,3.9c0,1.1-0.2,2.3-0.5,3.6c-0.3,1.3-0.8,2.6-1.3,3.8c-0.6,1.3-1.3,2.4-2.2,3.5c-0.9,1.1-1.9,1.9-3,2.5
				c-1.1,0.6-2.4,0.9-3.7,0.9c-0.7,0-1.3-0.2-1.9-0.6c-0.6-0.4-1-0.9-1.2-1.6l0.3-0.7c0.3,0.7,0.7,1.2,1,1.5s0.8,0.4,1.4,0.4
				c0.8,0,1.5-0.3,2.3-0.9c0.7-0.6,1.4-1.5,2-2.5c0.6-1,1.1-2.2,1.6-3.5c0.5-1.3,0.8-2.5,1.1-3.8s0.4-2.5,0.4-3.6
				c0-1-0.1-1.7-0.4-2.2C1109.2,465.8,1108.8,465.6,1108.3,465.6z"/>
			<path class="st5" d="M1118.5,475.2c1.2-0.4,2.3-0.9,3.4-1.3c1-0.5,1.9-0.9,2.5-1.5c0.9-0.7,1.6-1.6,2.1-2.6
				c0.5-1,0.8-2.1,0.8-3.4c0-0.6,0-1-0.1-1.2c-0.1-0.2-0.2-0.3-0.4-0.3c-0.7,0-1.5,0.4-2.3,1.2c-0.9,0.8-1.7,1.9-2.4,3.2
				s-1.4,2.8-1.9,4.4c-0.5,1.6-0.7,3.2-0.7,4.8c0,1.2,0.2,2.1,0.7,2.7c0.5,0.5,1.1,0.8,1.9,0.8c0.8,0,1.7-0.2,2.6-0.7
				c1-0.5,1.9-1.4,2.8-2.6l0.6,0.3c-0.5,0.8-1.1,1.6-1.9,2.3c-0.8,0.7-1.6,1.3-2.6,1.8s-2,0.7-3.2,0.7c-1.5,0-2.7-0.4-3.7-1.3
				c-0.9-0.9-1.4-2.1-1.4-3.8c0-1.1,0.2-2.3,0.6-3.6c0.4-1.3,1-2.6,1.7-3.9c0.7-1.3,1.6-2.4,2.6-3.5c1-1.1,2.1-1.9,3.4-2.5
				c1.2-0.6,2.6-0.9,4-0.9c0.9,0,1.6,0.2,2.2,0.6s0.9,1,0.9,1.9c0,1-0.3,1.9-0.8,2.7s-1.3,1.6-2.2,2.2s-1.9,1.3-3,1.8
				c-1.1,0.5-2.1,1-3.2,1.4c-1.1,0.4-2,0.7-2.9,0.9L1118.5,475.2z"/>
			<path class="st5" d="M1135.6,483.2h-3.8l4.3-15.5c0.2-0.8,0.3-1.3,0.2-1.6c-0.1-0.3-0.3-0.5-0.7-0.5c-0.5,0-0.9,0.3-1.3,0.8
				c-0.4,0.5-0.8,1.4-1.3,2.6l-0.5,1.5h-0.7l0.9-2.7c0.5-1.5,1.2-2.5,2.1-3s1.7-0.7,2.5-0.7c1,0,1.6,0.3,1.9,0.8
				c0.3,0.5,0.4,1.2,0.3,2c-0.1,0.8-0.2,1.5-0.4,2.3L1135.6,483.2z M1144.8,465c-0.5,0-1.1,0.2-1.7,0.7c-0.6,0.4-1.2,1.1-1.8,2
				s-1.2,2-1.8,3.3c-0.6,1.3-1.2,2.9-1.8,4.7c-0.6,1.8-1.2,3.8-1.8,6.1l0.9-4.7c0.8-2.4,1.5-4.5,2.2-6.2c0.7-1.7,1.3-3,2-4
				s1.3-1.7,2.1-2.2c0.7-0.4,1.5-0.7,2.3-0.7c0.8,0,1.4,0.2,1.8,0.7s0.6,1,0.6,1.7c0,0.8-0.3,1.5-0.8,2.1c-0.6,0.6-1.2,0.9-2,0.9
				c-0.5,0-0.9-0.1-1.2-0.4c-0.3-0.3-0.5-0.7-0.5-1.2c0-0.7,0.2-1.2,0.6-1.7c0.4-0.5,0.9-0.8,1.5-1c0,0-0.1-0.1-0.2-0.1
				C1145,465.1,1144.9,465,1144.8,465z"/>
			<path class="st5" d="M1166.9,464.2c1.6,0,2.8,0.3,3.7,1c0.9,0.6,1.4,1.5,1.4,2.7c0,1-0.3,1.9-0.9,2.8s-1.4,1.8-2.4,2.7
				c-1,0.9-2,1.7-3.1,2.4c-1.1,0.8-2.2,1.5-3.2,2.1s-1.8,1.2-2.4,1.7c0.6,0,1.4,0.1,2.2,0.3s1.7,0.3,2.6,0.5
				c0.9,0.2,1.7,0.3,2.4,0.3c0.9,0,1.5-0.1,2-0.4c0.5-0.3,0.7-0.7,0.7-1.3c0-0.8-0.5-1.5-1.5-1.9l0.5-0.5c0.6,0.3,1.1,0.7,1.5,1.2
				c0.3,0.5,0.5,1,0.5,1.7c0,0.7-0.2,1.3-0.5,1.9c-0.3,0.6-0.8,1.1-1.6,1.5c-0.7,0.4-1.7,0.6-2.8,0.6c-1.2,0-2.2-0.2-3.3-0.5
				c-1-0.3-2.2-0.5-3.5-0.6c-0.9,0-1.7,0-2.3,0.2c-0.6,0.2-1.3,0.4-2,0.7l0.2-0.8c0.7-0.5,1.5-1.2,2.6-1.9c1.1-0.8,2.2-1.6,3.4-2.5
				c1.2-0.9,2.3-1.9,3.4-3c1.1-1.1,1.9-2.2,2.6-3.3c0.7-1.2,1-2.3,1-3.5c0-1-0.2-1.7-0.7-2.3c-0.5-0.6-1.2-0.8-2.1-0.8
				c-0.9,0-1.8,0.3-2.8,0.8c-1,0.6-1.8,1.3-2.4,2.1c-0.6,0.9-1,1.8-1,2.8c0,0.6,0.2,1,0.5,1.3c0.3,0.3,0.9,0.4,1.6,0.4
				c0.7,0,1.3-0.1,1.7-0.4c0.5-0.3,1-0.6,1.6-1.1l0.4,0.5c-0.7,0.6-1.4,1.1-2.1,1.3c-0.7,0.3-1.3,0.4-1.9,0.4s-1.2-0.2-1.8-0.5
				c-0.6-0.3-0.9-1-0.9-2c0-1.1,0.4-2.1,1.1-3.1c0.8-1,1.8-1.9,3-2.5C1163.9,464.5,1165.3,464.2,1166.9,464.2z"/>
			<path class="st5" d="M1187.4,464.1c2,0,3.5,0.6,4.6,1.7c1.1,1.1,1.6,2.7,1.6,4.7c0,1.6-0.3,3.2-0.9,4.8c-0.6,1.6-1.5,3-2.6,4.2
				c-1.1,1.2-2.4,2.2-3.8,3c-1.4,0.8-3,1.1-4.6,1.1c-1.9,0-3.5-0.6-4.6-1.7c-1.1-1.1-1.7-2.7-1.7-4.8c0-1.6,0.3-3.2,1-4.8
				s1.5-2.9,2.6-4.2c1.1-1.3,2.4-2.3,3.9-3C1184.3,464.5,1185.8,464.1,1187.4,464.1z M1186.8,464.8c-1,0-1.9,0.4-2.8,1.1
				c-0.9,0.7-1.7,1.7-2.4,2.9c-0.7,1.2-1.3,2.6-1.6,4.1s-0.6,3.1-0.6,4.8c0,2,0.3,3.4,0.9,4.2s1.3,1.2,2.1,1.2c1.1,0,2-0.4,2.9-1.2
				c0.9-0.8,1.7-1.8,2.3-3.1c0.6-1.3,1.2-2.7,1.5-4.2s0.6-3.1,0.6-4.7c0-1.9-0.3-3.3-0.8-4C1188.3,465.2,1187.6,464.8,1186.8,464.8z
				"/>
			<path class="st5" d="M1206.5,464.2c1.6,0,2.8,0.3,3.7,1c0.9,0.6,1.4,1.5,1.4,2.7c0,1-0.3,1.9-0.9,2.8c-0.6,0.9-1.4,1.8-2.4,2.7
				c-1,0.9-2,1.7-3.1,2.4s-2.2,1.5-3.1,2.1c-1,0.7-1.8,1.2-2.4,1.7c0.6,0,1.4,0.1,2.2,0.3c0.9,0.2,1.7,0.3,2.6,0.5
				c0.9,0.2,1.7,0.3,2.4,0.3c0.9,0,1.5-0.1,2-0.4c0.5-0.3,0.7-0.7,0.7-1.3c0-0.8-0.5-1.5-1.5-1.9l0.5-0.5c0.6,0.3,1.1,0.7,1.5,1.2
				c0.3,0.5,0.5,1,0.5,1.7c0,0.7-0.2,1.3-0.5,1.9c-0.3,0.6-0.8,1.1-1.6,1.5c-0.7,0.4-1.7,0.6-2.8,0.6s-2.2-0.2-3.3-0.5
				c-1-0.3-2.2-0.5-3.5-0.6c-0.9,0-1.7,0-2.3,0.2c-0.6,0.2-1.3,0.4-2,0.7l0.2-0.8c0.7-0.5,1.5-1.2,2.6-1.9c1.1-0.8,2.2-1.6,3.4-2.5
				c1.2-0.9,2.3-1.9,3.4-3c1.1-1.1,1.9-2.2,2.6-3.3c0.7-1.2,1-2.3,1-3.5c0-1-0.2-1.7-0.7-2.3c-0.5-0.6-1.2-0.8-2.1-0.8
				s-1.8,0.3-2.8,0.8c-1,0.6-1.8,1.3-2.4,2.1c-0.6,0.9-1,1.8-1,2.8c0,0.6,0.2,1,0.5,1.3s0.9,0.4,1.6,0.4c0.7,0,1.3-0.1,1.7-0.4
				c0.5-0.3,1-0.6,1.6-1.1l0.4,0.5c-0.7,0.6-1.4,1.1-2.1,1.3c-0.7,0.3-1.3,0.4-1.9,0.4c-0.6,0-1.2-0.2-1.8-0.5c-0.6-0.3-0.9-1-0.9-2
				c0-1.1,0.4-2.1,1.1-3.1c0.8-1,1.8-1.9,3-2.5C1203.4,464.5,1204.9,464.2,1206.5,464.2z"/>
			<path class="st5" d="M1225.6,464.3l-5.6,19h-3.8l4.6-15.4c-0.7,0.3-1.4,0.7-2.2,1s-1.8,0.6-3,1l0.1-0.8c2.4-0.7,4.3-1.4,5.6-2.3
				c1.4-0.8,2.5-1.7,3.5-2.4H1225.6z"/>
		</g>
		<g>
			<path class="st3" d="M1101.3,183.4v17h-5.3v-8.5l-2.6,8.5h-4.6l-2.6-8.5v8.5h-5.3v-17h6.5l3.7,10.2l3.6-10.2H1101.3z"/>
			<path class="st3" d="M1120.8,183.4l-5.7,17h-6.9l-5.7-17h5.7l3.5,11.7l3.5-11.7H1120.8z"/>
			<path class="st3" d="M1135.1,192.1c-0.5,0.9-1.2,1.6-2.2,2.1c-1,0.5-2.1,0.8-3.5,0.8h-2.1v5.4h-5.3v-17h7.4
				c2.1,0,3.7,0.5,4.8,1.6c1.1,1.1,1.7,2.5,1.7,4.2C1135.9,190.3,1135.6,191.2,1135.1,192.1z M1130.5,189.2c0-1-0.6-1.6-1.7-1.6
				h-1.5v3.1h1.5C1129.9,190.8,1130.5,190.2,1130.5,189.2z"/>
			<path d="M1049.3,257.5c-1-0.4-1.8-1-2.3-1.8s-0.9-1.7-0.9-2.8h4.4c0.1,0.6,0.3,1.1,0.6,1.4c0.4,0.3,0.8,0.5,1.4,0.5
				c0.6,0,1.1-0.1,1.4-0.4c0.4-0.3,0.5-0.7,0.5-1.2c0-0.4-0.1-0.8-0.4-1c-0.3-0.3-0.6-0.5-1-0.7c-0.4-0.2-1-0.4-1.7-0.6
				c-1.1-0.3-2-0.7-2.7-1c-0.7-0.3-1.3-0.8-1.8-1.5s-0.7-1.5-0.7-2.6c0-1.6,0.6-2.8,1.7-3.7c1.1-0.9,2.6-1.3,4.4-1.3
				c1.9,0,3.4,0.4,4.5,1.3s1.7,2.1,1.8,3.7h-4.4c0-0.5-0.2-1-0.6-1.3c-0.4-0.3-0.8-0.5-1.4-0.5c-0.5,0-0.9,0.1-1.2,0.4
				c-0.3,0.3-0.5,0.6-0.5,1.1c0,0.5,0.3,1,0.8,1.3c0.5,0.3,1.3,0.6,2.4,1c1.1,0.4,2,0.7,2.7,1.1c0.7,0.3,1.3,0.8,1.8,1.5
				c0.5,0.6,0.7,1.5,0.7,2.5c0,1-0.2,1.8-0.7,2.6c-0.5,0.8-1.2,1.4-2.1,1.9c-0.9,0.5-2,0.7-3.3,0.7
				C1051.3,258.1,1050.2,257.9,1049.3,257.5z"/>
			<path d="M1073.2,245.9c0.9,1,1.4,2.4,1.4,4.2v7.8h-4.1v-7.3c0-0.9-0.2-1.6-0.7-2.1c-0.5-0.5-1.1-0.7-1.9-0.7
				c-0.8,0-1.4,0.2-1.9,0.7c-0.5,0.5-0.7,1.2-0.7,2.1v7.3h-4.1v-17.8h4.1v6.2c0.4-0.6,1-1.1,1.7-1.4s1.5-0.5,2.4-0.5
				C1071,244.4,1072.2,244.9,1073.2,245.9z"/>
			<path d="M1080,257.3c-1-0.6-1.9-1.4-2.5-2.4c-0.6-1-0.9-2.3-0.9-3.6c0-1.4,0.3-2.6,0.9-3.6c0.6-1,1.4-1.9,2.5-2.4
				c1.1-0.6,2.2-0.8,3.6-0.8c1.3,0,2.5,0.3,3.6,0.8c1.1,0.6,1.9,1.4,2.5,2.4s0.9,2.3,0.9,3.6c0,1.4-0.3,2.6-0.9,3.6
				c-0.6,1-1.5,1.9-2.5,2.4c-1.1,0.6-2.3,0.8-3.6,0.8C1082.2,258.1,1081,257.9,1080,257.3z M1085.5,253.7c0.6-0.6,0.8-1.4,0.8-2.5
				c0-1.1-0.3-1.9-0.8-2.5s-1.2-0.9-2-0.9c-0.8,0-1.5,0.3-2,0.9c-0.5,0.6-0.8,1.4-0.8,2.5c0,1.1,0.3,1.9,0.8,2.5
				c0.5,0.6,1.2,0.9,2,0.9C1084.3,254.6,1085,254.3,1085.5,253.7z"/>
			<path d="M1111.9,244.6l-3.6,13.4h-4.5l-2.1-8.7l-2.2,8.7h-4.5l-3.6-13.4h4.1l1.9,9.6l2.3-9.6h4.3l2.3,9.5l1.9-9.5H1111.9z"/>
			<path d="M1113.5,247.6c0.6-1,1.4-1.8,2.4-2.4c1-0.6,2.2-0.8,3.5-0.8c1.7,0,3.1,0.4,4.2,1.3c1.1,0.9,1.9,2.1,2.2,3.7h-4.4
				c-0.4-1-1.1-1.5-2.1-1.5c-0.8,0-1.4,0.3-1.8,0.9c-0.4,0.6-0.7,1.4-0.7,2.5c0,1.1,0.2,1.9,0.7,2.5c0.4,0.6,1,0.9,1.8,0.9
				c1.1,0,1.8-0.5,2.1-1.5h4.4c-0.4,1.6-1.1,2.8-2.2,3.7c-1.1,0.9-2.5,1.3-4.2,1.3c-1.3,0-2.5-0.3-3.5-0.8c-1-0.6-1.8-1.4-2.4-2.4
				c-0.6-1-0.9-2.3-0.9-3.6C1112.7,249.9,1113,248.6,1113.5,247.6z"/>
			<path d="M1128,247.6c0.5-1,1.2-1.8,2.1-2.4c0.9-0.6,1.9-0.8,3-0.8c0.9,0,1.8,0.2,2.5,0.6s1.3,0.9,1.6,1.5v-1.9h4.1V258h-4.1v-1.9
				c-0.4,0.6-1,1.1-1.7,1.5s-1.5,0.6-2.5,0.6c-1.1,0-2.1-0.3-3-0.9c-0.9-0.6-1.6-1.4-2.1-2.4c-0.5-1-0.8-2.3-0.8-3.6
				S1127.5,248.6,1128,247.6z M1136.4,248.8c-0.6-0.6-1.3-0.9-2.1-0.9c-0.8,0-1.5,0.3-2.1,0.9c-0.6,0.6-0.9,1.4-0.9,2.4
				c0,1,0.3,1.8,0.9,2.4c0.6,0.6,1.3,0.9,2.1,0.9c0.8,0,1.5-0.3,2.1-0.9c0.6-0.6,0.9-1.4,0.9-2.4
				C1137.2,250.2,1136.9,249.4,1136.4,248.8z"/>
			<path d="M1146.6,257.5c-0.9-0.4-1.6-0.9-2.2-1.6c-0.5-0.7-0.8-1.5-0.9-2.3h4.1c0,0.5,0.3,0.8,0.6,1.1c0.4,0.3,0.9,0.4,1.4,0.4
				c0.5,0,0.9-0.1,1.2-0.3c0.3-0.2,0.4-0.5,0.4-0.8c0-0.4-0.2-0.7-0.6-0.9c-0.4-0.2-1-0.4-1.9-0.6c-1-0.2-1.8-0.5-2.4-0.7
				s-1.2-0.6-1.7-1.2c-0.5-0.5-0.7-1.3-0.7-2.2c0-0.8,0.2-1.5,0.6-2.1c0.4-0.6,1-1.1,1.9-1.5c0.8-0.4,1.8-0.6,2.9-0.6
				c1.7,0,3,0.4,4,1.2c1,0.8,1.5,1.9,1.7,3.3h-3.8c-0.1-0.5-0.3-0.8-0.6-1.1c-0.3-0.3-0.8-0.4-1.4-0.4c-0.5,0-0.8,0.1-1.1,0.3
				s-0.4,0.4-0.4,0.8c0,0.4,0.2,0.7,0.6,0.9c0.4,0.2,1,0.4,1.9,0.6c1,0.3,1.8,0.5,2.4,0.8s1.2,0.6,1.6,1.2c0.5,0.6,0.7,1.3,0.7,2.2
				c0,0.8-0.2,1.5-0.7,2.1c-0.4,0.6-1.1,1.1-1.9,1.5s-1.8,0.5-2.9,0.5C1148.6,258.1,1147.5,257.9,1146.6,257.5z"/>
			<path d="M1170.3,252.2h-9.3c0.1,0.8,0.3,1.5,0.8,1.9s1.1,0.7,1.7,0.7c1,0,1.7-0.4,2.1-1.3h4.4c-0.2,0.9-0.6,1.7-1.2,2.4
				c-0.6,0.7-1.3,1.3-2.2,1.7c-0.9,0.4-1.9,0.6-3,0.6c-1.3,0-2.5-0.3-3.5-0.8c-1-0.6-1.8-1.4-2.4-2.4s-0.9-2.3-0.9-3.6
				c0-1.4,0.3-2.6,0.9-3.6c0.6-1,1.4-1.8,2.4-2.4c1-0.6,2.2-0.8,3.5-0.8c1.3,0,2.4,0.3,3.5,0.8c1,0.5,1.8,1.3,2.4,2.3
				c0.6,1,0.9,2.2,0.9,3.5C1170.3,251.4,1170.3,251.8,1170.3,252.2z M1166.1,250c0-0.7-0.2-1.3-0.7-1.7c-0.5-0.4-1.1-0.6-1.8-0.6
				c-0.7,0-1.3,0.2-1.7,0.6c-0.5,0.4-0.8,1-0.9,1.7H1166.1z"/>
			<path d="M1030.9,305.6h-5.5l-1,2.8h-1.7l4.5-12.5h1.9l4.5,12.5h-1.7L1030.9,305.6z M1030.5,304.2l-2.3-6.3l-2.3,6.3H1030.5z"/>
			<path d="M1037.3,295v13.3h-1.6V295H1037.3z"/>
			<path d="M1041.7,295v13.3h-1.6V295H1041.7z"/>
			<path d="M1046.3,307.9c-0.8-0.4-1.3-1-1.8-1.8c-0.4-0.8-0.6-1.7-0.6-2.7c0-1,0.2-1.9,0.7-2.7s1-1.4,1.8-1.8s1.6-0.6,2.5-0.6
				s1.8,0.2,2.5,0.6s1.4,1,1.8,1.8c0.4,0.8,0.7,1.7,0.7,2.7c0,1-0.2,1.9-0.7,2.7c-0.4,0.8-1.1,1.4-1.8,1.8c-0.8,0.4-1.6,0.6-2.6,0.6
				C1047.9,308.5,1047,308.3,1046.3,307.9z M1050.5,306.7c0.5-0.3,0.9-0.7,1.3-1.2c0.3-0.6,0.5-1.2,0.5-2s-0.2-1.5-0.5-2
				c-0.3-0.6-0.7-1-1.2-1.2c-0.5-0.3-1.1-0.4-1.6-0.4c-0.6,0-1.1,0.1-1.6,0.4c-0.5,0.3-0.9,0.7-1.2,1.2s-0.4,1.2-0.4,2
				c0,0.8,0.1,1.5,0.4,2s0.7,1,1.2,1.2c0.5,0.3,1,0.4,1.6,0.4S1049.9,306.9,1050.5,306.7z"/>
			<path d="M1069.2,298.5l-3.1,9.9h-1.7l-2.4-7.8l-2.4,7.8h-1.7l-3.1-9.9h1.7l2.3,8.3l2.4-8.3h1.7l2.4,8.3l2.2-8.3H1069.2z"/>
			<path d="M1079.6,299.8h-2.1v8.5h-1.6v-8.5h-1.3v-1.4h1.3v-0.7c0-1.1,0.3-1.9,0.9-2.4c0.6-0.5,1.5-0.8,2.7-0.8v1.4
				c-0.7,0-1.2,0.1-1.5,0.4s-0.4,0.7-0.4,1.4v0.7h2.1V299.8z"/>
			<path d="M1081.6,296.6c-0.2-0.2-0.3-0.5-0.3-0.8c0-0.3,0.1-0.6,0.3-0.8s0.5-0.3,0.8-0.3c0.3,0,0.6,0.1,0.8,0.3s0.3,0.5,0.3,0.8
				c0,0.3-0.1,0.6-0.3,0.8s-0.5,0.3-0.8,0.3C1082,296.9,1081.8,296.8,1081.6,296.6z M1083.1,298.5v9.9h-1.6v-9.9H1083.1z"/>
			<path d="M1088.8,298.8c0.5-0.3,1.2-0.5,2-0.5v1.7h-0.4c-1.8,0-2.8,1-2.8,3v5.4h-1.6v-9.9h1.6v1.6
				C1087.9,299.5,1088.3,299.1,1088.8,298.8z"/>
			<path d="M1094.1,308.1c-0.6-0.3-1.1-0.6-1.4-1.1c-0.3-0.5-0.5-1-0.6-1.6h1.7c0,0.5,0.3,0.9,0.7,1.2c0.4,0.3,1,0.5,1.6,0.5
				c0.6,0,1.1-0.1,1.5-0.4c0.4-0.3,0.5-0.6,0.5-1c0-0.4-0.2-0.8-0.6-1s-1-0.4-1.8-0.6c-0.7-0.2-1.3-0.4-1.8-0.6
				c-0.5-0.2-0.9-0.5-1.2-0.9c-0.3-0.4-0.5-0.9-0.5-1.5c0-0.5,0.1-1,0.5-1.4c0.3-0.4,0.7-0.8,1.3-1c0.6-0.2,1.2-0.4,1.9-0.4
				c1.1,0,2,0.3,2.6,0.8c0.7,0.6,1,1.3,1.1,2.3h-1.6c0-0.5-0.2-0.9-0.6-1.2s-0.9-0.5-1.5-0.5c-0.6,0-1.1,0.1-1.4,0.4
				c-0.3,0.3-0.5,0.6-0.5,1c0,0.3,0.1,0.6,0.3,0.8s0.5,0.4,0.8,0.5c0.3,0.1,0.8,0.3,1.3,0.4c0.7,0.2,1.3,0.4,1.7,0.6
				c0.4,0.2,0.8,0.5,1.1,0.8c0.3,0.4,0.5,0.9,0.5,1.5c0,0.5-0.2,1-0.5,1.5c-0.3,0.4-0.7,0.8-1.3,1s-1.2,0.4-1.9,0.4
				C1095.4,308.5,1094.7,308.4,1094.1,308.1z"/>
			<path d="M1104,299.8v5.8c0,0.5,0.1,0.8,0.3,1c0.2,0.2,0.6,0.3,1.1,0.3h1.2v1.4h-1.5c-0.9,0-1.6-0.2-2.1-0.6
				c-0.5-0.4-0.7-1.1-0.7-2.1v-5.8h-1.3v-1.4h1.3V296h1.6v2.5h2.6v1.4H1104z"/>
			<path d="M1113.4,300.7c0.4-0.8,1-1.4,1.7-1.8c0.7-0.4,1.5-0.6,2.4-0.6c0.9,0,1.6,0.2,2.2,0.6c0.6,0.4,1.1,0.8,1.4,1.4v-1.8h1.7
				v9.9h-1.7v-1.8c-0.3,0.6-0.8,1.1-1.4,1.4s-1.4,0.6-2.2,0.6c-0.9,0-1.7-0.2-2.4-0.6c-0.7-0.4-1.3-1-1.7-1.8s-0.6-1.7-0.6-2.7
				C1112.8,302.4,1113,301.5,1113.4,300.7z M1120.7,301.5c-0.3-0.6-0.7-1-1.2-1.3s-1.1-0.4-1.7-0.4c-0.6,0-1.2,0.1-1.7,0.4
				c-0.5,0.3-0.9,0.7-1.2,1.3c-0.3,0.6-0.5,1.2-0.5,1.9c0,0.8,0.1,1.4,0.5,2c0.3,0.6,0.7,1,1.2,1.3c0.5,0.3,1.1,0.4,1.7,0.4
				c0.6,0,1.2-0.1,1.7-0.4s0.9-0.7,1.2-1.3s0.5-1.2,0.5-2S1121,302,1120.7,301.5z"/>
			<path d="M1125.6,300.7c0.4-0.8,1-1.4,1.7-1.8c0.7-0.4,1.5-0.6,2.4-0.6c0.8,0,1.5,0.2,2.1,0.5c0.7,0.4,1.2,0.8,1.5,1.4V295h1.7
				v13.3h-1.7v-1.9c-0.3,0.6-0.8,1.1-1.4,1.4c-0.6,0.4-1.4,0.6-2.2,0.6c-0.9,0-1.7-0.2-2.4-0.6c-0.7-0.4-1.3-1-1.7-1.8
				s-0.6-1.7-0.6-2.7C1125,302.4,1125.2,301.5,1125.6,300.7z M1132.9,301.5c-0.3-0.6-0.7-1-1.2-1.3s-1.1-0.4-1.7-0.4
				c-0.6,0-1.2,0.1-1.7,0.4c-0.5,0.3-0.9,0.7-1.2,1.3c-0.3,0.6-0.5,1.2-0.5,1.9c0,0.8,0.1,1.4,0.5,2c0.3,0.6,0.7,1,1.2,1.3
				c0.5,0.3,1.1,0.4,1.7,0.4c0.6,0,1.2-0.1,1.7-0.4s0.9-0.7,1.2-1.3s0.5-1.2,0.5-2S1133.2,302,1132.9,301.5z"/>
			<path d="M1139.5,307.9c-0.8-0.4-1.3-1-1.8-1.8c-0.4-0.8-0.6-1.7-0.6-2.7c0-1,0.2-1.9,0.7-2.7c0.4-0.8,1-1.4,1.8-1.8
				s1.6-0.6,2.5-0.6c0.9,0,1.8,0.2,2.5,0.6s1.4,1,1.8,1.8s0.7,1.7,0.7,2.7c0,1-0.2,1.9-0.7,2.7c-0.5,0.8-1.1,1.4-1.8,1.8
				c-0.8,0.4-1.6,0.6-2.6,0.6C1141.1,308.5,1140.3,308.3,1139.5,307.9z M1143.7,306.7c0.5-0.3,0.9-0.7,1.3-1.2
				c0.3-0.6,0.5-1.2,0.5-2s-0.2-1.5-0.5-2c-0.3-0.6-0.7-1-1.2-1.2c-0.5-0.3-1-0.4-1.6-0.4c-0.6,0-1.1,0.1-1.6,0.4
				c-0.5,0.3-0.9,0.7-1.2,1.2c-0.3,0.6-0.5,1.2-0.5,2c0,0.8,0.1,1.5,0.4,2s0.7,1,1.2,1.2c0.5,0.3,1,0.4,1.6,0.4
				C1142.6,307.1,1143.2,306.9,1143.7,306.7z"/>
			<path d="M1152.3,298.9c0.6-0.4,1.4-0.6,2.2-0.6c0.9,0,1.7,0.2,2.4,0.6c0.7,0.4,1.3,1,1.7,1.8c0.4,0.8,0.6,1.6,0.6,2.7
				c0,1-0.2,1.9-0.6,2.7c-0.4,0.8-1,1.4-1.7,1.8c-0.7,0.4-1.5,0.6-2.4,0.6c-0.8,0-1.6-0.2-2.2-0.6c-0.6-0.4-1.1-0.8-1.5-1.4v6.5
				h-1.6v-14.5h1.6v1.8C1151.2,299.7,1151.7,299.3,1152.3,298.9z M1157.1,301.4c-0.3-0.6-0.7-1-1.2-1.3s-1.1-0.4-1.7-0.4
				c-0.6,0-1.2,0.1-1.7,0.4s-0.9,0.7-1.2,1.3c-0.3,0.6-0.5,1.2-0.5,1.9c0,0.7,0.2,1.4,0.5,2c0.3,0.6,0.7,1,1.2,1.3s1.1,0.4,1.7,0.4
				c0.6,0,1.2-0.1,1.7-0.4s0.9-0.7,1.2-1.3s0.5-1.2,0.5-2C1157.6,302.6,1157.4,302,1157.1,301.4z"/>
			<path d="M1163.4,299.8v5.8c0,0.5,0.1,0.8,0.3,1c0.2,0.2,0.6,0.3,1.1,0.3h1.2v1.4h-1.5c-0.9,0-1.6-0.2-2.1-0.6s-0.7-1.1-0.7-2.1
				v-5.8h-1.3v-1.4h1.3V296h1.6v2.5h2.6v1.4H1163.4z"/>
			<path d="M1176.9,304h-7.9c0.1,1,0.4,1.7,1,2.3c0.6,0.5,1.3,0.8,2.2,0.8c0.7,0,1.3-0.2,1.8-0.5s0.8-0.8,1-1.3h1.8
				c-0.3,0.9-0.8,1.7-1.6,2.3c-0.8,0.6-1.8,0.9-3,0.9c-0.9,0-1.8-0.2-2.5-0.6c-0.7-0.4-1.3-1-1.7-1.8c-0.4-0.8-0.6-1.7-0.6-2.7
				c0-1,0.2-1.9,0.6-2.7s1-1.4,1.7-1.8c0.7-0.4,1.6-0.6,2.5-0.6c0.9,0,1.8,0.2,2.5,0.6c0.7,0.4,1.3,1,1.7,1.7
				c0.4,0.7,0.6,1.5,0.6,2.4C1177,303.4,1177,303.7,1176.9,304z M1174.9,301.1c-0.3-0.5-0.7-0.8-1.1-1c-0.5-0.2-1-0.4-1.6-0.4
				c-0.8,0-1.5,0.3-2.1,0.8s-0.9,1.3-1,2.2h6.2C1175.3,302.1,1175.2,301.5,1174.9,301.1z"/>
			<path d="M1182,298.8c0.5-0.3,1.2-0.5,2-0.5v1.7h-0.4c-1.8,0-2.8,1-2.8,3v5.4h-1.6v-9.9h1.6v1.6
				C1181.1,299.5,1181.5,299.1,1182,298.8z"/>
			<path d="M1187.3,308.1c-0.6-0.3-1.1-0.6-1.4-1.1s-0.5-1-0.6-1.6h1.7c0,0.5,0.3,0.9,0.7,1.2c0.4,0.3,1,0.5,1.6,0.5
				c0.6,0,1.1-0.1,1.5-0.4s0.5-0.6,0.5-1c0-0.4-0.2-0.8-0.6-1s-1-0.4-1.8-0.6c-0.7-0.2-1.3-0.4-1.8-0.6c-0.5-0.2-0.9-0.5-1.2-0.9
				c-0.3-0.4-0.5-0.9-0.5-1.5c0-0.5,0.2-1,0.5-1.4s0.7-0.8,1.3-1c0.6-0.2,1.2-0.4,1.9-0.4c1.1,0,2,0.3,2.6,0.8
				c0.7,0.6,1,1.3,1.1,2.3h-1.6c0-0.5-0.2-0.9-0.6-1.2s-0.9-0.5-1.5-0.5c-0.6,0-1.1,0.1-1.4,0.4c-0.3,0.3-0.5,0.6-0.5,1
				c0,0.3,0.1,0.6,0.3,0.8s0.5,0.4,0.8,0.5c0.3,0.1,0.8,0.3,1.3,0.4c0.7,0.2,1.3,0.4,1.7,0.6c0.4,0.2,0.8,0.5,1.1,0.8
				c0.3,0.4,0.5,0.9,0.5,1.5c0,0.5-0.1,1-0.4,1.5c-0.3,0.4-0.7,0.8-1.3,1s-1.2,0.4-1.9,0.4C1188.6,308.5,1187.9,308.4,1187.3,308.1z
				"/>
			<path d="M1017,320.4c0.6-1,1.3-1.7,2.3-2.3s2-0.8,3.2-0.8c1.4,0,2.6,0.3,3.6,1s1.8,1.6,2.2,2.8h-2c-0.3-0.8-0.8-1.3-1.5-1.7
				c-0.7-0.4-1.4-0.6-2.3-0.6c-0.9,0-1.7,0.2-2.4,0.6c-0.7,0.4-1.2,1-1.6,1.7c-0.4,0.8-0.6,1.6-0.6,2.6c0,1,0.2,1.9,0.6,2.6
				c0.4,0.8,0.9,1.3,1.6,1.7c0.7,0.4,1.5,0.6,2.4,0.6c0.9,0,1.7-0.2,2.3-0.6c0.7-0.4,1.2-1,1.5-1.7h2c-0.5,1.2-1.2,2.1-2.2,2.8
				s-2.2,1-3.6,1c-1.2,0-2.2-0.3-3.2-0.8s-1.7-1.3-2.3-2.3c-0.6-1-0.8-2.1-0.8-3.3C1016.1,322.4,1016.4,321.3,1017,320.4z"/>
			<path d="M1032.4,329.5c-0.8-0.4-1.3-1-1.8-1.8c-0.4-0.8-0.6-1.7-0.6-2.7c0-1,0.2-1.9,0.7-2.7s1-1.4,1.8-1.8s1.6-0.6,2.5-0.6
				s1.8,0.2,2.5,0.6s1.4,1,1.8,1.8c0.4,0.8,0.7,1.7,0.7,2.7c0,1-0.2,1.9-0.7,2.7c-0.4,0.8-1.1,1.4-1.8,1.8c-0.8,0.4-1.6,0.6-2.6,0.6
				C1034,330.1,1033.2,329.9,1032.4,329.5z M1036.6,328.3c0.5-0.3,0.9-0.7,1.3-1.2c0.3-0.6,0.5-1.2,0.5-2s-0.2-1.5-0.5-2
				c-0.3-0.6-0.7-1-1.2-1.2c-0.5-0.3-1.1-0.4-1.6-0.4c-0.6,0-1.1,0.1-1.6,0.4c-0.5,0.3-0.9,0.7-1.2,1.2s-0.4,1.2-0.4,2
				c0,0.8,0.1,1.5,0.4,2s0.7,1,1.2,1.2c0.5,0.3,1,0.4,1.6,0.4S1036.1,328.5,1036.6,328.3z"/>
			<path d="M1043.8,316.6V330h-1.6v-13.3H1043.8z"/>
			<path d="M1048.2,316.6V330h-1.6v-13.3H1048.2z"/>
			<path d="M1060,325.6h-7.9c0.1,1,0.4,1.7,1,2.3c0.6,0.5,1.3,0.8,2.2,0.8c0.7,0,1.3-0.2,1.8-0.5c0.5-0.3,0.8-0.8,1-1.3h1.8
				c-0.3,0.9-0.8,1.7-1.6,2.3c-0.8,0.6-1.8,0.9-3,0.9c-0.9,0-1.8-0.2-2.5-0.6c-0.7-0.4-1.3-1-1.7-1.8c-0.4-0.8-0.6-1.7-0.6-2.7
				c0-1,0.2-1.9,0.6-2.7c0.4-0.8,1-1.4,1.7-1.8c0.7-0.4,1.6-0.6,2.5-0.6c0.9,0,1.8,0.2,2.5,0.6c0.7,0.4,1.3,1,1.7,1.7
				c0.4,0.7,0.6,1.5,0.6,2.4C1060,325,1060,325.3,1060,325.6z M1057.9,322.7c-0.3-0.5-0.7-0.8-1.1-1c-0.5-0.2-1-0.4-1.6-0.4
				c-0.8,0-1.5,0.3-2.1,0.8s-0.9,1.3-1,2.2h6.2C1058.3,323.7,1058.2,323.1,1057.9,322.7z"/>
			<path d="M1062.2,322.3c0.4-0.8,1-1.4,1.7-1.8c0.7-0.4,1.6-0.6,2.5-0.6c1.2,0,2.2,0.3,3,0.9c0.8,0.6,1.3,1.4,1.6,2.4h-1.8
				c-0.2-0.6-0.5-1.1-1-1.4c-0.5-0.3-1.1-0.5-1.8-0.5c-0.9,0-1.7,0.3-2.3,1s-0.9,1.6-0.9,2.7c0,1.2,0.3,2.1,0.9,2.8
				c0.6,0.6,1.3,1,2.3,1c0.7,0,1.3-0.2,1.8-0.5c0.5-0.3,0.8-0.8,1-1.4h1.8c-0.3,1-0.8,1.8-1.6,2.4c-0.8,0.6-1.8,0.9-3,0.9
				c-0.9,0-1.8-0.2-2.5-0.6c-0.7-0.4-1.3-1-1.7-1.8c-0.4-0.8-0.6-1.7-0.6-2.7C1061.6,324,1061.8,323.1,1062.2,322.3z"/>
			<path d="M1075.1,321.4v5.8c0,0.5,0.1,0.8,0.3,1c0.2,0.2,0.6,0.3,1.1,0.3h1.2v1.4h-1.5c-0.9,0-1.6-0.2-2.1-0.6s-0.7-1.1-0.7-2.1
				v-5.8h-1.3v-1.4h1.3v-2.5h1.6v2.5h2.6v1.4H1075.1z"/>
			<path d="M1081.5,329.5c-0.8-0.4-1.3-1-1.8-1.8c-0.4-0.8-0.6-1.7-0.6-2.7c0-1,0.2-1.9,0.7-2.7c0.4-0.8,1-1.4,1.8-1.8
				c0.8-0.4,1.6-0.6,2.5-0.6c0.9,0,1.8,0.2,2.5,0.6c0.8,0.4,1.4,1,1.8,1.8c0.4,0.8,0.7,1.7,0.7,2.7c0,1-0.2,1.9-0.7,2.7
				c-0.5,0.8-1.1,1.4-1.8,1.8s-1.6,0.6-2.6,0.6C1083,330.1,1082.2,329.9,1081.5,329.5z M1085.6,328.3c0.5-0.3,0.9-0.7,1.3-1.2
				c0.3-0.6,0.5-1.2,0.5-2s-0.2-1.5-0.5-2c-0.3-0.6-0.7-1-1.2-1.2c-0.5-0.3-1-0.4-1.6-0.4c-0.6,0-1.1,0.1-1.6,0.4
				c-0.5,0.3-0.9,0.7-1.2,1.2s-0.5,1.2-0.5,2c0,0.8,0.1,1.5,0.4,2c0.3,0.6,0.7,1,1.2,1.2c0.5,0.3,1,0.4,1.6,0.4
				S1085.1,328.5,1085.6,328.3z"/>
			<path d="M1094.1,320.4c0.5-0.3,1.2-0.5,2-0.5v1.7h-0.4c-1.8,0-2.8,1-2.8,3v5.4h-1.6v-9.9h1.6v1.6
				C1093.1,321.1,1093.5,320.7,1094.1,320.4z"/>
			<path d="M1110,323.7c-0.7,0.7-1.8,1-3.3,1h-2.4v5.2h-1.6v-12.5h4c1.4,0,2.5,0.3,3.2,1c0.7,0.7,1.1,1.6,1.1,2.6
				C1111.1,322.1,1110.7,323,1110,323.7z M1108.8,322.8c0.4-0.4,0.6-1,0.6-1.7c0-1.5-0.9-2.3-2.7-2.3h-2.4v4.6h2.4
				C1107.7,323.4,1108.3,323.2,1108.8,322.8z"/>
			<path d="M1114.9,329.5c-0.8-0.4-1.3-1-1.8-1.8c-0.4-0.8-0.6-1.7-0.6-2.7c0-1,0.2-1.9,0.7-2.7c0.4-0.8,1-1.4,1.8-1.8
				s1.6-0.6,2.5-0.6c0.9,0,1.8,0.2,2.5,0.6s1.4,1,1.8,1.8s0.7,1.7,0.7,2.7c0,1-0.2,1.9-0.7,2.7c-0.5,0.8-1.1,1.4-1.8,1.8
				c-0.8,0.4-1.6,0.6-2.6,0.6C1116.5,330.1,1115.7,329.9,1114.9,329.5z M1119.1,328.3c0.5-0.3,0.9-0.7,1.3-1.2
				c0.3-0.6,0.5-1.2,0.5-2s-0.2-1.5-0.5-2c-0.3-0.6-0.7-1-1.2-1.2c-0.5-0.3-1-0.4-1.6-0.4c-0.6,0-1.1,0.1-1.6,0.4
				c-0.5,0.3-0.9,0.7-1.2,1.2c-0.3,0.6-0.5,1.2-0.5,2c0,0.8,0.1,1.5,0.4,2s0.7,1,1.2,1.2c0.5,0.3,1,0.4,1.6,0.4
				C1118,328.7,1118.6,328.5,1119.1,328.3z"/>
			<path d="M1124.7,318.2c-0.2-0.2-0.3-0.5-0.3-0.8c0-0.3,0.1-0.6,0.3-0.8c0.2-0.2,0.5-0.3,0.8-0.3c0.3,0,0.6,0.1,0.8,0.3
				s0.3,0.5,0.3,0.8c0,0.3-0.1,0.6-0.3,0.8s-0.5,0.3-0.8,0.3C1125.2,318.5,1124.9,318.4,1124.7,318.2z M1126.3,320.1v9.9h-1.6v-9.9
				H1126.3z"/>
			<path d="M1136.8,321c0.7,0.7,1.1,1.8,1.1,3.1v5.8h-1.6v-5.6c0-1-0.2-1.7-0.7-2.3c-0.5-0.5-1.2-0.8-2-0.8c-0.9,0-1.6,0.3-2.1,0.8
				c-0.5,0.5-0.8,1.3-0.8,2.4v5.5h-1.6v-9.9h1.6v1.4c0.3-0.5,0.8-0.9,1.3-1.2c0.6-0.3,1.2-0.4,1.8-0.4
				C1135.1,319.9,1136.1,320.3,1136.8,321z"/>
			<path d="M1142.6,321.4v5.8c0,0.5,0.1,0.8,0.3,1c0.2,0.2,0.6,0.3,1.1,0.3h1.2v1.4h-1.5c-0.9,0-1.6-0.2-2.1-0.6s-0.7-1.1-0.7-2.1
				v-5.8h-1.3v-1.4h1.3v-2.5h1.6v2.5h2.6v1.4H1142.6z"/>
			<path d="M1148.6,329.7c-0.6-0.3-1.1-0.6-1.4-1.1s-0.5-1-0.6-1.6h1.7c0,0.5,0.3,0.9,0.7,1.2c0.4,0.3,1,0.5,1.6,0.5
				c0.6,0,1.1-0.1,1.5-0.4s0.5-0.6,0.5-1c0-0.4-0.2-0.8-0.6-1s-1-0.4-1.8-0.6c-0.7-0.2-1.3-0.4-1.8-0.6c-0.5-0.2-0.9-0.5-1.2-0.9
				c-0.3-0.4-0.5-0.9-0.5-1.5c0-0.5,0.2-1,0.5-1.4s0.7-0.8,1.3-1c0.6-0.2,1.2-0.4,1.9-0.4c1.1,0,2,0.3,2.6,0.8
				c0.7,0.6,1,1.3,1.1,2.3h-1.6c0-0.5-0.2-0.9-0.6-1.2s-0.9-0.5-1.5-0.5c-0.6,0-1.1,0.1-1.4,0.4c-0.3,0.3-0.5,0.6-0.5,1
				c0,0.3,0.1,0.6,0.3,0.8s0.5,0.4,0.8,0.5c0.3,0.1,0.8,0.3,1.3,0.4c0.7,0.2,1.3,0.4,1.7,0.6c0.4,0.2,0.8,0.5,1.1,0.8
				c0.3,0.4,0.5,0.9,0.5,1.5c0,0.5-0.1,1-0.4,1.5c-0.3,0.4-0.7,0.8-1.3,1s-1.2,0.4-1.9,0.4C1149.9,330.1,1149.2,330,1148.6,329.7z"
				/>
			<path d="M1162.9,329c-0.6-1.7-1-3.6-1-5.6c0-2.1,0.3-4,1-5.8s1.6-3.3,2.9-4.4h1.7v0.2c-1.3,1.3-2.4,2.8-3,4.5
				c-0.7,1.8-1,3.6-1,5.5c0,1.9,0.3,3.6,1,5.3c0.6,1.7,1.6,3.2,2.8,4.4v0.2h-1.7C1164.4,332.2,1163.5,330.7,1162.9,329z"/>
			<path d="M1169.7,320.4c0.6-1,1.3-1.7,2.3-2.3s2-0.8,3.2-0.8c1.4,0,2.6,0.3,3.6,1c1,0.7,1.8,1.6,2.2,2.8h-2
				c-0.3-0.8-0.8-1.3-1.5-1.7c-0.7-0.4-1.4-0.6-2.3-0.6c-0.9,0-1.7,0.2-2.4,0.6c-0.7,0.4-1.2,1-1.6,1.7c-0.4,0.8-0.6,1.6-0.6,2.6
				c0,1,0.2,1.9,0.6,2.6c0.4,0.8,0.9,1.3,1.6,1.7c0.7,0.4,1.5,0.6,2.4,0.6c0.9,0,1.7-0.2,2.3-0.6s1.2-1,1.5-1.7h2
				c-0.5,1.2-1.2,2.1-2.2,2.8c-1,0.7-2.2,1-3.6,1c-1.2,0-2.2-0.3-3.2-0.8s-1.7-1.3-2.3-2.3c-0.6-1-0.8-2.1-0.8-3.3
				C1168.9,322.4,1169.2,321.3,1169.7,320.4z"/>
			<path d="M1190.7,323.7c-0.7,0.7-1.8,1-3.3,1h-2.4v5.2h-1.6v-12.5h4c1.4,0,2.5,0.3,3.2,1c0.7,0.7,1.1,1.6,1.1,2.6
				C1191.8,322.1,1191.4,323,1190.7,323.7z M1189.5,322.8c0.4-0.4,0.6-1,0.6-1.7c0-1.5-0.9-2.3-2.7-2.3h-2.4v4.6h2.4
				C1188.4,323.4,1189,323.2,1189.5,322.8z"/>
			<path d="M1193.3,333.3v-0.2c1.2-1.3,2.2-2.8,2.8-4.4c0.6-1.7,1-3.5,1-5.3c0-1.9-0.3-3.7-1-5.5c-0.7-1.8-1.7-3.3-3-4.5v-0.2h1.7
				c1.3,1.2,2.2,2.6,2.9,4.4s1,3.7,1,5.8c0,2-0.3,3.9-1,5.6c-0.6,1.7-1.5,3.2-2.7,4.3H1193.3z"/>
		</g>
	</g>
</g>
<g id="Layer_4">
	<g>
		<g>
			<circle class="st0" cx="1525" cy="265" r="140.5"/>
			<path class="st4" d="M1525,127c36.9,0,71.5,14.4,97.6,40.4c26.1,26.1,40.4,60.7,40.4,97.6s-14.4,71.5-40.4,97.6
				c-26.1,26.1-60.7,40.4-97.6,40.4s-71.5-14.4-97.6-40.4c-26.1-26.1-40.4-60.7-40.4-97.6s14.4-71.5,40.4-97.6
				C1453.5,141.4,1488.1,127,1525,127 M1525,122c-79,0-143,64-143,143s64,143,143,143s143-64,143-143S1604,122,1525,122L1525,122z"
				/>
		</g>
		<g>
			<path class="st5" d="M1406.7,464.3l-5.6,19h-3.8l4.6-15.4c-0.7,0.3-1.4,0.7-2.2,1s-1.8,0.6-3,1l0.1-0.8c2.4-0.7,4.3-1.4,5.6-2.3
				c1.4-0.8,2.5-1.7,3.5-2.4H1406.7z"/>
			<path class="st5" d="M1410,482.7c0.2,0.1,0.4,0.2,0.6,0.2c0.2,0.1,0.5,0.1,1,0.1c1,0,1.8-0.3,2.4-0.9c0.6-0.6,1-1.5,1-2.6
				c0-0.7-0.2-1.5-0.5-2.3s-0.8-1.6-1.5-2.6c-0.6-0.8-1.1-1.6-1.6-2.4c-0.5-0.8-0.7-1.7-0.7-2.8c0-1.5,0.6-2.8,1.7-3.7
				c1.1-1,2.5-1.4,4.2-1.4c0.7,0,1.5,0.1,2.2,0.3c0.7,0.2,1.3,0.5,1.8,1c0.5,0.5,0.7,1.2,0.7,2.1c0,0.4-0.1,0.9-0.4,1.4
				c-0.3,0.5-0.8,0.8-1.4,0.8c-0.5,0-0.8-0.2-1.2-0.5c-0.3-0.3-0.5-0.8-0.5-1.3c0-0.5,0.1-1,0.3-1.4c0.2-0.4,0.4-0.8,0.8-1.2
				c-0.4-0.2-0.9-0.4-1.6-0.4c-0.9,0-1.6,0.3-2.2,0.9c-0.6,0.6-0.8,1.4-0.8,2.4c0,0.8,0.2,1.5,0.6,2.1c0.4,0.6,0.9,1.4,1.6,2.5
				c0.6,1,1.1,1.9,1.5,2.7c0.4,0.8,0.6,1.7,0.6,2.6c0,1.1-0.3,2-0.8,2.9c-0.6,0.9-1.3,1.5-2.3,2c-1,0.5-2.1,0.7-3.3,0.7
				c-0.9,0-1.7-0.1-2.5-0.4c-0.8-0.3-1.5-0.6-2-1.2c-0.5-0.5-0.8-1.3-0.8-2.2c0-0.4,0.1-0.9,0.4-1.3c0.3-0.4,0.7-0.6,1.2-0.6
				c0.6,0,1,0.2,1.3,0.7c0.3,0.5,0.4,1.1,0.4,1.7c0,0.5,0,0.9-0.1,1.3C1410.1,482.1,1410,482.4,1410,482.7z"/>
			<path class="st5" d="M1426.7,480.2c-0.2,0.7-0.1,1.3,0.1,1.6s0.7,0.5,1.2,0.5c0.5,0,1.1-0.2,1.6-0.7c0.5-0.5,1-1.4,1.5-2.7
				l0.5-1.4h0.7l-0.8,2.2c-0.5,1.5-1.2,2.6-2.1,3.2s-1.9,0.9-3,0.9c-1.5,0-2.5-0.5-3-1.5c-0.5-1-0.5-2.2,0-3.8l5.5-19.2
				c0.7,0,1.4-0.1,2.1-0.1c0.7-0.1,1.3-0.2,1.8-0.4L1426.7,480.2z M1435.7,464.7l-0.1,0.7h-11.6l0.2-0.7H1435.7z"/>
			<path class="st5" d="M1454.2,474.5c-1.4,0-2.6-0.3-3.7-0.8c-1-0.5-1.8-1.3-2.4-2.2s-0.8-2.1-0.8-3.3c0-1.6,0.4-3,1.2-4.4
				c0.8-1.3,1.8-2.5,3.2-3.5c1.3-1,2.8-1.7,4.5-2.3s3.4-0.8,5.1-0.8c2,0,3.7,0.3,5.2,0.9c1.5,0.6,2.6,1.5,3.4,2.6
				c0.8,1.1,1.2,2.4,1.2,4c0,1.7-0.4,3.4-1.3,5.1c-0.9,1.7-2.1,3.4-3.6,5c-1.5,1.6-3.2,3.1-5,4.5c-1.8,1.4-3.7,2.6-5.7,3.6
				c-1.9,1-3.8,1.8-5.5,2.4c-1.8,0.6-3.3,0.9-4.6,0.9c-1.2,0-2.1-0.2-2.7-0.7c-0.7-0.5-1-1.2-1-2c0-1,0.4-1.9,1.3-2.5
				c0.9-0.6,2-1,3.3-1c1.2,0,2.3,0.3,3.3,0.8c1,0.5,2,1.1,2.9,1.8c0.9,0.7,1.9,1.4,2.9,2.2c1,0.7,2.1,1.3,3.3,1.9s2.6,0.8,4.1,0.8
				c1.2,0,2.2-0.2,3-0.6c0.8-0.4,1.5-1,2-1.9c-0.5,0.3-1,0.4-1.5,0.4c-0.6,0-1.1-0.2-1.5-0.6s-0.6-0.9-0.6-1.5
				c0-0.6,0.2-1.2,0.7-1.7c0.5-0.5,1.1-0.7,1.8-0.7c0.6,0,1.2,0.2,1.6,0.6c0.4,0.4,0.6,1,0.6,1.8c0,0.8-0.3,1.7-0.8,2.5
				c-0.5,0.8-1.3,1.5-2.2,2.2c-0.9,0.6-1.9,1.2-3,1.6c-1.1,0.4-2.3,0.6-3.5,0.6c-1.5,0-2.8-0.3-4-0.9s-2.2-1.3-3.2-2.2
				c-0.9-0.9-1.8-1.7-2.6-2.6c-0.8-0.9-1.6-1.6-2.4-2.2c-0.8-0.6-1.6-0.9-2.5-0.9c-0.6,0-1.2,0.2-1.7,0.6s-0.8,0.9-0.8,1.6
				c0,0.7,0.3,1.2,0.9,1.6c0.6,0.3,1.4,0.5,2.5,0.5c0.6,0,1.3-0.1,2-0.3c0.7-0.2,1.5-0.4,2.2-0.7c0.8-0.3,1.5-0.6,2.3-0.9
				c1.8-0.8,3.5-1.8,5.2-3.2c1.7-1.3,3.2-2.8,4.6-4.5c1.4-1.7,2.4-3.5,3.2-5.3s1.2-3.8,1.2-5.7c0-2.2-0.5-3.9-1.5-5.2
				c-1-1.3-2.5-1.9-4.4-1.9c-1.3,0-2.6,0.3-3.7,0.9c-1.1,0.6-2,1.5-2.8,2.5c-0.8,1-1.4,2.2-1.8,3.5c-0.4,1.3-0.6,2.6-0.6,3.9
				c0,1.7,0.4,2.9,1.1,3.7c0.7,0.8,1.7,1.2,2.9,1.2c1.1,0,2-0.3,2.9-0.8c0.8-0.5,1.5-1.2,2-2.1s0.8-1.7,0.8-2.5c0-0.2,0-0.5,0-0.8
				c0-0.3-0.1-0.5-0.1-0.7c-0.2,0.6-0.6,1.1-1.2,1.4c-0.6,0.3-1.1,0.4-1.7,0.4c-0.6,0-1.1-0.2-1.4-0.6c-0.4-0.4-0.5-0.9-0.5-1.4
				c0-0.7,0.3-1.4,0.8-1.9c0.5-0.5,1.2-0.7,2-0.7c0.9,0,1.6,0.3,2.2,1c0.5,0.7,0.8,1.6,0.8,2.7c0,1.2-0.3,2.4-1,3.4
				c-0.7,1-1.6,1.9-2.8,2.5S1455.8,474.5,1454.2,474.5z"/>
			<path class="st5" d="M1486.3,470.7c-0.9,2.5-1.7,4.6-2.5,6.2c-0.8,1.7-1.6,3-2.4,4c-0.8,1-1.6,1.7-2.4,2.1
				c-0.8,0.4-1.7,0.6-2.5,0.6c-1.6,0-2.5-0.5-2.9-1.5c-0.4-1-0.3-2.3,0.3-3.9l3.5-10.5c0.2-0.7,0.3-1.2,0.2-1.6
				c-0.1-0.3-0.3-0.5-0.8-0.5c-0.4,0-0.8,0.2-1.2,0.7s-0.9,1.4-1.4,2.7l-0.5,1.5h-0.7l0.9-2.6c0.5-1.5,1.2-2.5,2.1-3
				c0.9-0.5,1.7-0.7,2.5-0.7c1.1,0,1.8,0.2,2.2,0.7c0.4,0.5,0.6,1.1,0.6,1.9c0,0.8-0.2,1.7-0.6,2.6l-3.3,10.1
				c-0.6,1.9-0.4,2.8,0.6,2.8c0.7,0,1.4-0.4,2.2-1.3c0.8-0.8,1.6-2,2.4-3.5s1.6-3.3,2.4-5.3c0.8-2,1.5-4.2,2.1-6.5L1486.3,470.7z
				 M1486.8,480.2c-0.2,0.6-0.2,1.1-0.2,1.5s0.2,0.6,0.7,0.6c0.5,0,1-0.3,1.4-0.8c0.4-0.5,0.8-1.4,1.2-2.6l0.5-1.5h0.7l-0.9,2.7
				c-0.5,1.5-1.2,2.5-2.1,3c-0.8,0.5-1.7,0.7-2.5,0.7c-0.5,0-0.9-0.1-1.2-0.3c-0.4-0.2-0.7-0.4-0.8-0.8c-0.2-0.4-0.3-1-0.3-1.6
				s0.2-1.4,0.4-2.4l3.6-14c0.7,0,1.4-0.1,2.1-0.1c0.7-0.1,1.3-0.2,1.8-0.4L1486.8,480.2z"/>
			<path class="st5" d="M1498.1,482.3c0.5,0,1.1-0.3,1.8-0.9c0.6-0.6,1.3-1.5,2-2.6c0.7-1.1,1.3-2.4,1.9-3.8s1.1-3,1.4-4.6l-0.6,3.9
				c-1.2,3.5-2.5,5.9-3.8,7.3c-1.3,1.4-2.7,2.1-4.1,2.1c-1.2,0-2.1-0.4-2.7-1.2c-0.6-0.8-0.9-1.9-0.9-3.2c0-1.2,0.2-2.5,0.6-3.9
				c0.4-1.4,0.9-2.7,1.7-4.1s1.5-2.6,2.4-3.6s1.9-1.9,3-2.6c1.1-0.7,2.1-1,3.2-1c0.8,0,1.4,0.4,1.9,1.1s0.5,1.9,0.3,3.3l-0.4,0.2
				c0.2-1.1,0.1-2-0.2-2.7c-0.3-0.7-0.8-1-1.5-1c-0.7,0-1.5,0.5-2.3,1.4c-0.8,0.9-1.6,2.1-2.3,3.5c-0.7,1.5-1.3,3-1.8,4.8
				s-0.7,3.4-0.7,5c0,1,0.1,1.6,0.3,2C1497.4,482.1,1497.7,482.3,1498.1,482.3z M1506.7,464.7c0.7,0,1.4-0.1,2.1-0.1
				c0.7-0.1,1.3-0.2,1.9-0.4l-4.6,15.9c-0.1,0.3-0.1,0.6-0.2,0.9c-0.1,0.3,0,0.6,0,0.8c0.1,0.2,0.3,0.4,0.7,0.4
				c0.4,0,0.9-0.2,1.3-0.7s0.9-1.4,1.3-2.7l0.5-1.5h0.7l-0.9,2.6c-0.5,1.5-1.2,2.5-2,3c-0.8,0.5-1.6,0.8-2.3,0.8
				c-1.1,0-1.8-0.3-2.2-1c-0.3-0.5-0.4-1.2-0.3-1.9c0.1-0.8,0.3-1.5,0.5-2.4L1506.7,464.7z"/>
			<path class="st5" d="M1516.8,483.2h-3.8l4.3-15.5c0.2-0.8,0.3-1.3,0.2-1.6c-0.1-0.3-0.3-0.5-0.7-0.5c-0.5,0-0.9,0.3-1.3,0.8
				c-0.4,0.5-0.8,1.4-1.3,2.6l-0.5,1.5h-0.7l0.9-2.7c0.5-1.5,1.2-2.5,2.1-3c0.8-0.5,1.7-0.7,2.5-0.7c1,0,1.6,0.3,1.9,0.8
				c0.3,0.5,0.4,1.2,0.3,2c-0.1,0.8-0.2,1.5-0.4,2.3L1516.8,483.2z M1526.1,465c-0.5,0-1.1,0.2-1.7,0.7s-1.2,1.1-1.8,2
				c-0.6,0.9-1.2,2-1.8,3.3c-0.6,1.3-1.2,2.9-1.8,4.7s-1.2,3.8-1.8,6.1l0.9-4.7c0.8-2.4,1.5-4.5,2.2-6.2s1.3-3,2-4s1.3-1.7,2.1-2.2
				s1.5-0.7,2.3-0.7c0.8,0,1.4,0.2,1.8,0.7s0.6,1,0.6,1.7c0,0.8-0.3,1.5-0.8,2.1c-0.6,0.6-1.2,0.9-2,0.9c-0.5,0-0.9-0.1-1.2-0.4
				c-0.3-0.3-0.5-0.7-0.5-1.2c0-0.7,0.2-1.2,0.6-1.7c0.4-0.5,0.9-0.8,1.5-1c0,0-0.1-0.1-0.2-0.1C1526.2,465.1,1526.2,465,1526.1,465
				z"/>
			<path class="st5" d="M1532.8,480.2c-0.2,0.7-0.1,1.3,0.1,1.6s0.7,0.5,1.2,0.5c0.5,0,1.1-0.2,1.6-0.7c0.5-0.5,1-1.4,1.5-2.7
				l0.5-1.4h0.7l-0.8,2.2c-0.5,1.5-1.2,2.6-2.1,3.2s-1.9,0.9-3,0.9c-1.5,0-2.5-0.5-3-1.5c-0.5-1-0.5-2.2,0-3.8l5.5-19.2
				c0.7,0,1.4-0.1,2.1-0.1c0.7-0.1,1.3-0.2,1.8-0.4L1532.8,480.2z M1541.8,464.7l-0.1,0.7H1530l0.2-0.7H1541.8z"/>
			<path class="st5" d="M1543.8,475.2c1.2-0.4,2.3-0.9,3.4-1.3c1-0.5,1.9-0.9,2.5-1.5c0.9-0.7,1.6-1.6,2.1-2.6
				c0.5-1,0.8-2.1,0.8-3.4c0-0.6,0-1-0.1-1.2c-0.1-0.2-0.2-0.3-0.4-0.3c-0.7,0-1.5,0.4-2.3,1.2c-0.9,0.8-1.7,1.9-2.4,3.2
				s-1.4,2.8-1.9,4.4c-0.5,1.6-0.7,3.2-0.7,4.8c0,1.2,0.2,2.1,0.7,2.7c0.5,0.5,1.1,0.8,1.9,0.8c0.8,0,1.7-0.2,2.6-0.7
				c1-0.5,1.9-1.4,2.8-2.6l0.6,0.3c-0.5,0.8-1.1,1.6-1.9,2.3c-0.8,0.7-1.6,1.3-2.6,1.8s-2,0.7-3.2,0.7c-1.5,0-2.7-0.4-3.7-1.3
				c-0.9-0.9-1.4-2.1-1.4-3.8c0-1.1,0.2-2.3,0.6-3.6c0.4-1.3,1-2.6,1.7-3.9c0.7-1.3,1.6-2.4,2.6-3.5c1-1.1,2.1-1.9,3.4-2.5
				c1.2-0.6,2.6-0.9,4-0.9c0.9,0,1.6,0.2,2.2,0.6s0.9,1,0.9,1.9c0,1-0.3,1.9-0.8,2.7s-1.3,1.6-2.2,2.2s-1.9,1.3-3,1.8
				c-1.1,0.5-2.1,1-3.2,1.4c-1.1,0.4-2,0.7-2.9,0.9L1543.8,475.2z"/>
			<path class="st5" d="M1560.9,483.2h-3.8l4.3-15.5c0.2-0.8,0.3-1.3,0.2-1.6c-0.1-0.3-0.3-0.5-0.7-0.5c-0.5,0-0.9,0.3-1.3,0.8
				c-0.4,0.5-0.8,1.4-1.3,2.6l-0.5,1.5h-0.7l0.9-2.7c0.5-1.5,1.2-2.5,2.1-3s1.7-0.7,2.5-0.7c1,0,1.6,0.3,1.9,0.8
				c0.3,0.5,0.4,1.2,0.3,2c-0.1,0.8-0.2,1.5-0.4,2.3L1560.9,483.2z M1570.2,465c-0.5,0-1.1,0.2-1.7,0.7c-0.6,0.4-1.2,1.1-1.8,2
				s-1.2,2-1.8,3.3c-0.6,1.3-1.2,2.9-1.8,4.7c-0.6,1.8-1.2,3.8-1.8,6.1l0.9-4.7c0.8-2.4,1.5-4.5,2.2-6.2c0.7-1.7,1.3-3,2-4
				s1.3-1.7,2.1-2.2c0.7-0.4,1.5-0.7,2.3-0.7c0.8,0,1.4,0.2,1.8,0.7s0.6,1,0.6,1.7c0,0.8-0.3,1.5-0.8,2.1c-0.6,0.6-1.2,0.9-2,0.9
				c-0.5,0-0.9-0.1-1.2-0.4c-0.3-0.3-0.5-0.7-0.5-1.2c0-0.7,0.2-1.2,0.6-1.7c0.4-0.5,0.9-0.8,1.5-1c0,0-0.1-0.1-0.2-0.1
				C1570.3,465.1,1570.3,465,1570.2,465z"/>
			<path class="st5" d="M1592.3,464.2c1.6,0,2.8,0.3,3.7,1c0.9,0.6,1.4,1.5,1.4,2.7c0,1-0.3,1.9-0.9,2.8s-1.4,1.8-2.4,2.7
				c-1,0.9-2,1.7-3.1,2.4c-1.1,0.8-2.2,1.5-3.2,2.1s-1.8,1.2-2.4,1.7c0.6,0,1.4,0.1,2.2,0.3s1.7,0.3,2.6,0.5
				c0.9,0.2,1.7,0.3,2.4,0.3c0.9,0,1.5-0.1,2-0.4c0.5-0.3,0.7-0.7,0.7-1.3c0-0.8-0.5-1.5-1.5-1.9l0.5-0.5c0.6,0.3,1.1,0.7,1.5,1.2
				c0.3,0.5,0.5,1,0.5,1.7c0,0.7-0.2,1.3-0.5,1.9c-0.3,0.6-0.8,1.1-1.6,1.5c-0.7,0.4-1.7,0.6-2.8,0.6c-1.2,0-2.2-0.2-3.3-0.5
				c-1-0.3-2.2-0.5-3.5-0.6c-0.9,0-1.7,0-2.3,0.2c-0.6,0.2-1.3,0.4-2,0.7l0.2-0.8c0.7-0.5,1.5-1.2,2.6-1.9c1.1-0.8,2.2-1.6,3.4-2.5
				c1.2-0.9,2.3-1.9,3.4-3c1.1-1.1,1.9-2.2,2.6-3.3c0.7-1.2,1-2.3,1-3.5c0-1-0.2-1.7-0.7-2.3c-0.5-0.6-1.2-0.8-2.1-0.8
				c-0.9,0-1.8,0.3-2.8,0.8c-1,0.6-1.8,1.3-2.4,2.1c-0.6,0.9-1,1.8-1,2.8c0,0.6,0.2,1,0.5,1.3c0.3,0.3,0.9,0.4,1.6,0.4
				c0.7,0,1.3-0.1,1.7-0.4c0.5-0.3,1-0.6,1.6-1.1l0.4,0.5c-0.7,0.6-1.4,1.1-2.1,1.3c-0.7,0.3-1.3,0.4-1.9,0.4s-1.2-0.2-1.8-0.5
				c-0.6-0.3-0.9-1-0.9-2c0-1.1,0.4-2.1,1.1-3.1c0.8-1,1.8-1.9,3-2.5C1589.3,464.5,1590.7,464.2,1592.3,464.2z"/>
			<path class="st5" d="M1612.8,464.1c2,0,3.5,0.6,4.6,1.7c1.1,1.1,1.6,2.7,1.6,4.7c0,1.6-0.3,3.2-0.9,4.8c-0.6,1.6-1.5,3-2.6,4.2
				c-1.1,1.2-2.4,2.2-3.8,3c-1.4,0.8-3,1.1-4.6,1.1c-1.9,0-3.5-0.6-4.6-1.7c-1.1-1.1-1.7-2.7-1.7-4.8c0-1.6,0.3-3.2,1-4.8
				s1.5-2.9,2.6-4.2c1.1-1.3,2.4-2.3,3.9-3C1609.6,464.5,1611.2,464.1,1612.8,464.1z M1612.1,464.8c-1,0-1.9,0.4-2.8,1.1
				c-0.9,0.7-1.7,1.7-2.4,2.9c-0.7,1.2-1.3,2.6-1.6,4.1s-0.6,3.1-0.6,4.8c0,2,0.3,3.4,0.9,4.2s1.3,1.2,2.1,1.2c1.1,0,2-0.4,2.9-1.2
				c0.9-0.8,1.7-1.8,2.3-3.1c0.6-1.3,1.2-2.7,1.5-4.2s0.6-3.1,0.6-4.7c0-1.9-0.3-3.3-0.8-4C1613.7,465.2,1613,464.8,1612.1,464.8z"
				/>
			<path class="st5" d="M1631.8,464.2c1.6,0,2.8,0.3,3.7,1c0.9,0.6,1.4,1.5,1.4,2.7c0,1-0.3,1.9-0.9,2.8c-0.6,0.9-1.4,1.8-2.4,2.7
				c-1,0.9-2,1.7-3.1,2.4s-2.2,1.5-3.1,2.1c-1,0.7-1.8,1.2-2.4,1.7c0.6,0,1.4,0.1,2.2,0.3c0.9,0.2,1.7,0.3,2.6,0.5
				c0.9,0.2,1.7,0.3,2.4,0.3c0.9,0,1.5-0.1,2-0.4c0.5-0.3,0.7-0.7,0.7-1.3c0-0.8-0.5-1.5-1.5-1.9l0.5-0.5c0.6,0.3,1.1,0.7,1.5,1.2
				c0.3,0.5,0.5,1,0.5,1.7c0,0.7-0.2,1.3-0.5,1.9c-0.3,0.6-0.8,1.1-1.6,1.5c-0.7,0.4-1.7,0.6-2.8,0.6s-2.2-0.2-3.3-0.5
				c-1-0.3-2.2-0.5-3.5-0.6c-0.9,0-1.7,0-2.3,0.2c-0.6,0.2-1.3,0.4-2,0.7l0.2-0.8c0.7-0.5,1.5-1.2,2.6-1.9c1.1-0.8,2.2-1.6,3.4-2.5
				c1.2-0.9,2.3-1.9,3.4-3c1.1-1.1,1.9-2.2,2.6-3.3c0.7-1.2,1-2.3,1-3.5c0-1-0.2-1.7-0.7-2.3c-0.5-0.6-1.2-0.8-2.1-0.8
				s-1.8,0.3-2.8,0.8c-1,0.6-1.8,1.3-2.4,2.1c-0.6,0.9-1,1.8-1,2.8c0,0.6,0.2,1,0.5,1.3s0.9,0.4,1.6,0.4c0.7,0,1.3-0.1,1.7-0.4
				c0.5-0.3,1-0.6,1.6-1.1l0.4,0.5c-0.7,0.6-1.4,1.1-2.1,1.3c-0.7,0.3-1.3,0.4-1.9,0.4c-0.6,0-1.2-0.2-1.8-0.5c-0.6-0.3-0.9-1-0.9-2
				c0-1.1,0.4-2.1,1.1-3.1c0.8-1,1.8-1.9,3-2.5C1628.8,464.5,1630.2,464.2,1631.8,464.2z"/>
			<path class="st5" d="M1650.3,464.2c1.6,0,2.8,0.3,3.7,1c0.9,0.6,1.4,1.5,1.4,2.7c0,1-0.3,1.9-0.9,2.8c-0.6,0.9-1.4,1.8-2.4,2.7
				c-1,0.9-2,1.7-3.1,2.4s-2.2,1.5-3.1,2.1c-1,0.7-1.8,1.2-2.4,1.7c0.6,0,1.4,0.1,2.2,0.3c0.9,0.2,1.7,0.3,2.6,0.5
				c0.9,0.2,1.7,0.3,2.4,0.3c0.9,0,1.5-0.1,2-0.4c0.5-0.3,0.7-0.7,0.7-1.3c0-0.8-0.5-1.5-1.5-1.9l0.5-0.5c0.6,0.3,1.1,0.7,1.5,1.2
				c0.3,0.5,0.5,1,0.5,1.7c0,0.7-0.2,1.3-0.5,1.9c-0.3,0.6-0.8,1.1-1.6,1.5c-0.7,0.4-1.7,0.6-2.8,0.6s-2.2-0.2-3.3-0.5
				c-1-0.3-2.2-0.5-3.5-0.6c-0.9,0-1.7,0-2.3,0.2c-0.6,0.2-1.3,0.4-2,0.7l0.2-0.8c0.7-0.5,1.5-1.2,2.6-1.9c1.1-0.8,2.2-1.6,3.4-2.5
				c1.2-0.9,2.3-1.9,3.4-3c1.1-1.1,1.9-2.2,2.6-3.3c0.7-1.2,1-2.3,1-3.5c0-1-0.2-1.7-0.7-2.3c-0.5-0.6-1.2-0.8-2.1-0.8
				s-1.8,0.3-2.8,0.8c-1,0.6-1.8,1.3-2.4,2.1c-0.6,0.9-1,1.8-1,2.8c0,0.6,0.2,1,0.5,1.3s0.9,0.4,1.6,0.4c0.7,0,1.3-0.1,1.7-0.4
				c0.5-0.3,1-0.6,1.6-1.1l0.4,0.5c-0.7,0.6-1.4,1.1-2.1,1.3c-0.7,0.3-1.3,0.4-1.9,0.4c-0.6,0-1.2-0.2-1.8-0.5c-0.6-0.3-0.9-1-0.9-2
				c0-1.1,0.4-2.1,1.1-3.1c0.8-1,1.8-1.9,3-2.5C1647.3,464.5,1648.7,464.2,1650.3,464.2z"/>
		</g>
		<g>
			<path class="st3" d="M1529.4,183.4l-5.7,17h-6.9l-5.7-17h5.7l3.5,11.7l3.5-11.7H1529.4z"/>
			<path class="st3" d="M1529.6,187.8v-5h8.1v17.5h-5.6v-12.6H1529.6z"/>
			<path d="M1441,245.1c0.7-1.3,1.7-2.3,3-3c1.3-0.7,2.7-1.1,4.4-1.1c2,0,3.7,0.5,5.1,1.6c1.4,1.1,2.4,2.5,2.9,4.3h-4.5
				c-0.3-0.7-0.8-1.2-1.4-1.6c-0.6-0.4-1.3-0.6-2.1-0.6c-1.3,0-2.3,0.4-3.1,1.3c-0.8,0.9-1.2,2.1-1.2,3.5c0,1.5,0.4,2.6,1.2,3.5
				c0.8,0.9,1.8,1.3,3.1,1.3c0.8,0,1.5-0.2,2.1-0.6c0.6-0.4,1.1-0.9,1.4-1.6h4.5c-0.5,1.8-1.4,3.3-2.9,4.3c-1.4,1-3.1,1.6-5.1,1.6
				c-1.6,0-3.1-0.4-4.4-1.1c-1.3-0.7-2.3-1.7-3-3s-1.1-2.8-1.1-4.4S1440.2,246.4,1441,245.1z"/>
			<path d="M1461.4,257.3c-1-0.6-1.9-1.4-2.5-2.4s-0.9-2.3-0.9-3.6c0-1.4,0.3-2.6,0.9-3.6s1.4-1.9,2.5-2.4c1.1-0.6,2.2-0.8,3.6-0.8
				c1.3,0,2.5,0.3,3.6,0.8c1.1,0.6,1.9,1.4,2.5,2.4c0.6,1,0.9,2.3,0.9,3.6c0,1.4-0.3,2.6-0.9,3.6s-1.5,1.9-2.5,2.4
				c-1.1,0.6-2.3,0.8-3.6,0.8S1462.5,257.9,1461.4,257.3z M1467,253.7c0.6-0.6,0.8-1.4,0.8-2.5c0-1.1-0.3-1.9-0.8-2.5
				s-1.2-0.9-2-0.9c-0.8,0-1.5,0.3-2,0.9c-0.5,0.6-0.8,1.4-0.8,2.5c0,1.1,0.3,1.9,0.8,2.5c0.5,0.6,1.2,0.9,2,0.9
				S1466.4,254.3,1467,253.7z"/>
			<path d="M1478.2,240.2V258h-4.1v-17.8H1478.2z"/>
			<path d="M1485.3,240.2V258h-4.1v-17.8H1485.3z"/>
			<path d="M1500.9,252.2h-9.3c0.1,0.8,0.3,1.5,0.8,1.9c0.5,0.4,1.1,0.7,1.7,0.7c1,0,1.7-0.4,2.1-1.3h4.4c-0.2,0.9-0.6,1.7-1.2,2.4
				c-0.6,0.7-1.3,1.3-2.2,1.7c-0.9,0.4-1.9,0.6-3,0.6c-1.3,0-2.5-0.3-3.5-0.8c-1-0.6-1.8-1.4-2.4-2.4s-0.9-2.3-0.9-3.6
				c0-1.4,0.3-2.6,0.9-3.6c0.6-1,1.4-1.8,2.4-2.4c1-0.6,2.2-0.8,3.5-0.8c1.3,0,2.4,0.3,3.5,0.8s1.8,1.3,2.4,2.3
				c0.6,1,0.9,2.2,0.9,3.5C1500.9,251.4,1500.9,251.8,1500.9,252.2z M1496.7,250c0-0.7-0.2-1.3-0.7-1.7c-0.5-0.4-1.1-0.6-1.8-0.6
				c-0.7,0-1.3,0.2-1.7,0.6c-0.5,0.4-0.8,1-0.9,1.7H1496.7z"/>
			<path d="M1503.1,247.6c0.6-1,1.4-1.8,2.4-2.4c1-0.6,2.2-0.8,3.5-0.8c1.7,0,3.1,0.4,4.2,1.3s1.9,2.1,2.2,3.7h-4.4
				c-0.4-1-1.1-1.5-2.1-1.5c-0.8,0-1.4,0.3-1.8,0.9c-0.4,0.6-0.7,1.4-0.7,2.5c0,1.1,0.2,1.9,0.7,2.5c0.4,0.6,1,0.9,1.8,0.9
				c1.1,0,1.8-0.5,2.1-1.5h4.4c-0.4,1.6-1.1,2.8-2.2,3.7c-1.1,0.9-2.5,1.3-4.2,1.3c-1.3,0-2.5-0.3-3.5-0.8c-1-0.6-1.8-1.4-2.4-2.4
				c-0.6-1-0.9-2.3-0.9-3.6C1502.3,249.9,1502.6,248.6,1503.1,247.6z"/>
			<path d="M1525.1,254.5v3.5h-2.1c-1.5,0-2.6-0.4-3.5-1.1s-1.2-1.9-1.2-3.6V248h-1.6v-3.4h1.6v-3.3h4.1v3.3h2.7v3.4h-2.7v5.4
				c0,0.4,0.1,0.7,0.3,0.9c0.2,0.2,0.5,0.3,1,0.3H1525.1z"/>
			<path d="M1545.3,258l-1.6-1.5c-1.6,1.2-3.4,1.8-5.6,1.8c-1.3,0-2.4-0.2-3.4-0.6s-1.7-1-2.2-1.8c-0.5-0.8-0.8-1.7-0.8-2.7
				c0-1.1,0.3-2,0.9-2.9c0.6-0.9,1.4-1.6,2.6-2.1c-0.4-0.5-0.7-1-0.9-1.5s-0.3-1-0.3-1.5c0-0.8,0.2-1.5,0.6-2.2
				c0.4-0.7,1-1.2,1.8-1.5s1.7-0.6,2.8-0.6c1.1,0,2,0.2,2.8,0.6c0.8,0.4,1.3,0.9,1.7,1.6c0.4,0.7,0.6,1.4,0.5,2.2h-3.9
				c0-0.4-0.1-0.8-0.3-1c-0.2-0.2-0.5-0.3-0.9-0.3s-0.7,0.1-1,0.3c-0.3,0.2-0.4,0.5-0.4,0.9c0,0.3,0.1,0.7,0.3,1.1
				c0.2,0.4,0.6,0.8,1,1.3l4.1,4c0-0.1,0.1-0.2,0.1-0.3c0.1-0.1,0.1-0.2,0.2-0.4l0.9-1.5h4.1l-1.2,2.1c-0.4,0.9-0.9,1.8-1.5,2.7
				l4.1,4H1545.3z M1541.2,254l-3.7-3.6c-1.2,0.6-1.7,1.4-1.7,2.4c0,0.6,0.2,1.1,0.7,1.5c0.5,0.4,1.1,0.6,1.9,0.6
				C1539.5,254.9,1540.4,254.6,1541.2,254z"/>
			<path d="M1560.8,244.4v3.4h5.5v3.2h-5.5v3.7h6.2v3.3h-10.3v-16.8h10.3v3.3H1560.8z"/>
			<path d="M1569.6,247.6c0.5-1,1.2-1.8,2.1-2.4c0.9-0.6,1.9-0.8,3-0.8c0.9,0,1.8,0.2,2.5,0.6s1.3,0.9,1.6,1.5v-1.9h4.1V258h-4.1
				v-1.9c-0.4,0.6-1,1.1-1.7,1.5s-1.5,0.6-2.5,0.6c-1.1,0-2.1-0.3-3-0.9c-0.9-0.6-1.6-1.4-2.1-2.4c-0.5-1-0.8-2.3-0.8-3.6
				S1569.1,248.6,1569.6,247.6z M1578,248.8c-0.6-0.6-1.3-0.9-2.1-0.9c-0.8,0-1.5,0.3-2.1,0.9c-0.6,0.6-0.9,1.4-0.9,2.4
				c0,1,0.3,1.8,0.9,2.4c0.6,0.6,1.3,0.9,2.1,0.9c0.8,0,1.5-0.3,2.1-0.9c0.6-0.6,0.9-1.4,0.9-2.4
				C1578.9,250.2,1578.6,249.4,1578,248.8z"/>
			<path d="M1591.9,245.1c0.7-0.4,1.5-0.6,2.4-0.6v4.3h-1.1c-1,0-1.8,0.2-2.3,0.7c-0.5,0.4-0.8,1.2-0.8,2.3v6.2h-4.1v-13.4h4.1v2.2
				C1590.5,246.1,1591.1,245.5,1591.9,245.1z"/>
			<path d="M1608.1,245.9c0.9,1,1.4,2.4,1.4,4.2v7.8h-4.1v-7.3c0-0.9-0.2-1.6-0.7-2.1c-0.5-0.5-1.1-0.7-1.9-0.7
				c-0.8,0-1.4,0.2-1.9,0.7c-0.5,0.5-0.7,1.2-0.7,2.1v7.3h-4.1v-13.4h4.1v1.8c0.4-0.6,1-1.1,1.7-1.4c0.7-0.3,1.5-0.5,2.4-0.5
				C1606,244.4,1607.2,244.9,1608.1,245.9z"/>
			<path d="M1456.9,298.8c0.6-1,1.3-1.7,2.3-2.3s2-0.8,3.2-0.8c1.4,0,2.6,0.3,3.6,1s1.8,1.6,2.2,2.8h-2c-0.3-0.8-0.8-1.3-1.5-1.7
				c-0.7-0.4-1.4-0.6-2.3-0.6c-0.9,0-1.7,0.2-2.4,0.6c-0.7,0.4-1.2,1-1.6,1.7c-0.4,0.8-0.6,1.6-0.6,2.6c0,1,0.2,1.9,0.6,2.6
				c0.4,0.8,0.9,1.3,1.6,1.7c0.7,0.4,1.5,0.6,2.4,0.6c0.9,0,1.7-0.2,2.3-0.6c0.7-0.4,1.2-1,1.5-1.7h2c-0.5,1.2-1.2,2.1-2.2,2.8
				s-2.2,1-3.6,1c-1.2,0-2.2-0.3-3.2-0.8s-1.7-1.3-2.3-2.3c-0.6-1-0.8-2.1-0.8-3.3C1456.1,300.8,1456.3,299.7,1456.9,298.8z"/>
			<path d="M1472.4,307.9c-0.8-0.4-1.3-1-1.8-1.8c-0.4-0.8-0.6-1.7-0.6-2.7c0-1,0.2-1.9,0.7-2.7s1-1.4,1.8-1.8s1.6-0.6,2.5-0.6
				s1.8,0.2,2.5,0.6s1.4,1,1.8,1.8c0.4,0.8,0.7,1.7,0.7,2.7c0,1-0.2,1.9-0.7,2.7c-0.4,0.8-1.1,1.4-1.8,1.8c-0.8,0.4-1.6,0.6-2.6,0.6
				C1473.9,308.5,1473.1,308.3,1472.4,307.9z M1476.5,306.7c0.5-0.3,0.9-0.7,1.3-1.2c0.3-0.6,0.5-1.2,0.5-2s-0.2-1.5-0.5-2
				c-0.3-0.6-0.7-1-1.2-1.2c-0.5-0.3-1.1-0.4-1.6-0.4c-0.6,0-1.1,0.1-1.6,0.4c-0.5,0.3-0.9,0.7-1.2,1.2s-0.4,1.2-0.4,2
				c0,0.8,0.1,1.5,0.4,2s0.7,1,1.2,1.2c0.5,0.3,1,0.4,1.6,0.4S1476,306.9,1476.5,306.7z"/>
			<path d="M1483.7,295v13.3h-1.6V295H1483.7z"/>
			<path d="M1488.2,295v13.3h-1.6V295H1488.2z"/>
			<path d="M1499.9,304h-7.9c0.1,1,0.4,1.7,1,2.3c0.6,0.5,1.3,0.8,2.2,0.8c0.7,0,1.3-0.2,1.8-0.5c0.5-0.3,0.8-0.8,1-1.3h1.8
				c-0.3,0.9-0.8,1.7-1.6,2.3c-0.8,0.6-1.8,0.9-3,0.9c-0.9,0-1.8-0.2-2.5-0.6c-0.7-0.4-1.3-1-1.7-1.8c-0.4-0.8-0.6-1.7-0.6-2.7
				c0-1,0.2-1.9,0.6-2.7c0.4-0.8,1-1.4,1.7-1.8c0.7-0.4,1.6-0.6,2.5-0.6c0.9,0,1.8,0.2,2.5,0.6c0.7,0.4,1.3,1,1.7,1.7
				c0.4,0.7,0.6,1.5,0.6,2.4C1499.9,303.4,1499.9,303.7,1499.9,304z M1497.8,301.1c-0.3-0.5-0.7-0.8-1.1-1c-0.5-0.2-1-0.4-1.6-0.4
				c-0.8,0-1.5,0.3-2.1,0.8s-0.9,1.3-1,2.2h6.2C1498.3,302.1,1498.1,301.5,1497.8,301.1z"/>
			<path d="M1502.1,300.7c0.4-0.8,1-1.4,1.7-1.8c0.7-0.4,1.6-0.6,2.5-0.6c1.2,0,2.2,0.3,3,0.9c0.8,0.6,1.3,1.4,1.6,2.4h-1.8
				c-0.2-0.6-0.5-1.1-1-1.4c-0.5-0.3-1.1-0.5-1.8-0.5c-0.9,0-1.7,0.3-2.3,1s-0.9,1.6-0.9,2.7c0,1.2,0.3,2.1,0.9,2.8
				c0.6,0.6,1.3,1,2.3,1c0.7,0,1.3-0.2,1.8-0.5c0.5-0.3,0.8-0.8,1-1.4h1.8c-0.3,1-0.8,1.8-1.6,2.4c-0.8,0.6-1.8,0.9-3,0.9
				c-0.9,0-1.8-0.2-2.5-0.6c-0.7-0.4-1.3-1-1.7-1.8c-0.4-0.8-0.6-1.7-0.6-2.7C1501.5,302.4,1501.7,301.5,1502.1,300.7z"/>
			<path d="M1515,299.8v5.8c0,0.5,0.1,0.8,0.3,1c0.2,0.2,0.6,0.3,1.1,0.3h1.2v1.4h-1.5c-0.9,0-1.6-0.2-2.1-0.6s-0.7-1.1-0.7-2.1
				v-5.8h-1.3v-1.4h1.3V296h1.6v2.5h2.6v1.4H1515z"/>
			<path d="M1521.4,307.9c-0.8-0.4-1.3-1-1.8-1.8c-0.4-0.8-0.6-1.7-0.6-2.7c0-1,0.2-1.9,0.7-2.7c0.4-0.8,1-1.4,1.8-1.8
				c0.8-0.4,1.6-0.6,2.5-0.6c0.9,0,1.8,0.2,2.5,0.6s1.4,1,1.8,1.8s0.7,1.7,0.7,2.7c0,1-0.2,1.9-0.7,2.7c-0.5,0.8-1.1,1.4-1.8,1.8
				c-0.8,0.4-1.6,0.6-2.6,0.6C1523,308.5,1522.1,308.3,1521.4,307.9z M1525.5,306.7c0.5-0.3,0.9-0.7,1.3-1.2c0.3-0.6,0.5-1.2,0.5-2
				s-0.2-1.5-0.5-2c-0.3-0.6-0.7-1-1.2-1.2c-0.5-0.3-1-0.4-1.6-0.4c-0.6,0-1.1,0.1-1.6,0.4c-0.5,0.3-0.9,0.7-1.2,1.2s-0.5,1.2-0.5,2
				c0,0.8,0.1,1.5,0.4,2c0.3,0.6,0.7,1,1.2,1.2c0.5,0.3,1,0.4,1.6,0.4S1525,306.9,1525.5,306.7z"/>
			<path d="M1534,298.8c0.5-0.3,1.2-0.5,2-0.5v1.7h-0.4c-1.8,0-2.8,1-2.8,3v5.4h-1.6v-9.9h1.6v1.6
				C1533,299.5,1533.4,299.1,1534,298.8z"/>
			<path d="M1539.3,308.1c-0.6-0.3-1.1-0.6-1.4-1.1s-0.5-1-0.6-1.6h1.7c0,0.5,0.3,0.9,0.7,1.2c0.4,0.3,1,0.5,1.6,0.5
				c0.6,0,1.1-0.1,1.5-0.4s0.5-0.6,0.5-1c0-0.4-0.2-0.8-0.6-1s-1-0.4-1.8-0.6c-0.7-0.2-1.3-0.4-1.8-0.6c-0.5-0.2-0.9-0.5-1.2-0.9
				c-0.3-0.4-0.5-0.9-0.5-1.5c0-0.5,0.2-1,0.5-1.4s0.7-0.8,1.3-1c0.6-0.2,1.2-0.4,1.9-0.4c1.1,0,2,0.3,2.6,0.8
				c0.7,0.6,1,1.3,1.1,2.3h-1.6c0-0.5-0.2-0.9-0.6-1.2s-0.9-0.5-1.5-0.5c-0.6,0-1.1,0.1-1.4,0.4c-0.3,0.3-0.5,0.6-0.5,1
				c0,0.3,0.1,0.6,0.3,0.8s0.5,0.4,0.8,0.5c0.3,0.1,0.8,0.3,1.3,0.4c0.7,0.2,1.3,0.4,1.7,0.6c0.4,0.2,0.8,0.5,1.1,0.8
				c0.3,0.4,0.5,0.9,0.5,1.5c0,0.5-0.1,1-0.4,1.5c-0.3,0.4-0.7,0.8-1.3,1s-1.2,0.4-1.9,0.4C1540.6,308.5,1539.9,308.4,1539.3,308.1z
				"/>
			<path d="M1559.5,296.6c1,0.5,1.8,1.2,2.3,2.2c0.5,0.9,0.8,2.1,0.8,3.3s-0.3,2.4-0.8,3.3c-0.5,0.9-1.3,1.7-2.3,2.2
				s-2.2,0.7-3.6,0.7h-3.9v-12.5h3.9C1557.3,295.8,1558.5,296.1,1559.5,296.6z M1559.6,305.7c0.9-0.9,1.3-2.1,1.3-3.6
				c0-1.6-0.4-2.8-1.3-3.7c-0.9-0.9-2.1-1.3-3.7-1.3h-2.3v9.9h2.3C1557.5,307,1558.8,306.6,1559.6,305.7z"/>
			<path d="M1573.7,304h-7.9c0.1,1,0.4,1.7,1,2.3c0.6,0.5,1.3,0.8,2.2,0.8c0.7,0,1.3-0.2,1.8-0.5s0.8-0.8,1-1.3h1.8
				c-0.3,0.9-0.8,1.7-1.6,2.3c-0.8,0.6-1.8,0.9-3,0.9c-0.9,0-1.8-0.2-2.5-0.6c-0.7-0.4-1.3-1-1.7-1.8c-0.4-0.8-0.6-1.7-0.6-2.7
				c0-1,0.2-1.9,0.6-2.7s1-1.4,1.7-1.8c0.7-0.4,1.6-0.6,2.5-0.6c0.9,0,1.8,0.2,2.5,0.6c0.7,0.4,1.3,1,1.7,1.7
				c0.4,0.7,0.6,1.5,0.6,2.4C1573.7,303.4,1573.7,303.7,1573.7,304z M1571.6,301.1c-0.3-0.5-0.7-0.8-1.1-1c-0.5-0.2-1-0.4-1.6-0.4
				c-0.8,0-1.5,0.3-2.1,0.8s-0.9,1.3-1,2.2h6.2C1572.1,302.1,1571.9,301.5,1571.6,301.1z"/>
			<path d="M1575.9,300.7c0.4-0.8,1-1.4,1.7-1.8c0.7-0.4,1.6-0.6,2.5-0.6c1.2,0,2.2,0.3,3,0.9s1.3,1.4,1.6,2.4h-1.8
				c-0.2-0.6-0.5-1.1-1-1.4c-0.5-0.3-1.1-0.5-1.8-0.5c-0.9,0-1.7,0.3-2.3,1c-0.6,0.6-0.9,1.6-0.9,2.7c0,1.2,0.3,2.1,0.9,2.8
				c0.6,0.6,1.3,1,2.3,1c0.7,0,1.3-0.2,1.8-0.5s0.8-0.8,1-1.4h1.8c-0.3,1-0.8,1.8-1.6,2.4c-0.8,0.6-1.8,0.9-3,0.9
				c-0.9,0-1.8-0.2-2.5-0.6c-0.7-0.4-1.3-1-1.7-1.8c-0.4-0.8-0.6-1.7-0.6-2.7C1575.3,302.4,1575.5,301.5,1575.9,300.7z"/>
			<path d="M1592.3,308.4l-3.9-4.4v4.4h-1.6V295h1.6v7.8l3.8-4.4h2.3l-4.6,4.9l4.7,5H1592.3z"/>
			<path d="M1463.4,318.7v4.2h4.6v1.3h-4.6v4.3h5.1v1.3h-6.8v-12.6h6.8v1.4H1463.4z"/>
			<path d="M1480.9,330h-1.6l-6.6-10v10h-1.6v-12.6h1.6l6.6,10v-10h1.6V330z"/>
			<path d="M1494,317.4l-4.7,12.5h-1.9l-4.7-12.5h1.7l3.9,10.8l3.9-10.8H1494z"/>
			<path d="M1498.3,329.3c-1-0.5-1.7-1.3-2.3-2.3c-0.6-1-0.8-2.1-0.8-3.3c0-1.2,0.3-2.3,0.8-3.3c0.6-1,1.3-1.7,2.3-2.3
				c1-0.5,2-0.8,3.2-0.8c1.2,0,2.2,0.3,3.2,0.8s1.7,1.3,2.3,2.3c0.6,1,0.8,2.1,0.8,3.3c0,1.2-0.3,2.3-0.8,3.3
				c-0.6,1-1.3,1.7-2.3,2.3c-1,0.5-2,0.8-3.2,0.8C1500.4,330.1,1499.3,329.8,1498.3,329.3z M1503.9,328c0.7-0.4,1.3-1,1.7-1.7
				c0.4-0.8,0.6-1.6,0.6-2.6c0-1-0.2-1.9-0.6-2.6c-0.4-0.8-1-1.3-1.6-1.7c-0.7-0.4-1.5-0.6-2.4-0.6s-1.7,0.2-2.4,0.6
				c-0.7,0.4-1.2,1-1.6,1.7c-0.4,0.8-0.6,1.6-0.6,2.6c0,1,0.2,1.9,0.6,2.6c0.4,0.8,1,1.3,1.7,1.7c0.7,0.4,1.5,0.6,2.4,0.6
				S1503.2,328.5,1503.9,328z"/>
			<path d="M1518.8,317.4l-4.1,7.8v4.7h-1.6v-4.7l-4.1-7.8h1.8l3.1,6.4l3.1-6.4H1518.8z"/>
			<path d="M1535.7,317.4l-4.7,12.5h-1.9l-4.7-12.5h1.7l3.9,10.8l3.9-10.8H1535.7z"/>
			<path d="M1537.5,322.3c0.4-0.8,1-1.4,1.7-1.8c0.7-0.4,1.5-0.6,2.4-0.6c0.9,0,1.6,0.2,2.2,0.6c0.6,0.4,1.1,0.8,1.4,1.4v-1.8h1.7
				v9.9h-1.7v-1.8c-0.3,0.6-0.8,1.1-1.4,1.4s-1.4,0.6-2.2,0.6c-0.9,0-1.7-0.2-2.4-0.6c-0.7-0.4-1.3-1-1.7-1.8s-0.6-1.7-0.6-2.7
				C1536.9,324,1537.1,323.1,1537.5,322.3z M1544.8,323.1c-0.3-0.6-0.7-1-1.2-1.3s-1.1-0.4-1.7-0.4c-0.6,0-1.2,0.1-1.7,0.4
				c-0.5,0.3-0.9,0.7-1.2,1.3c-0.3,0.6-0.5,1.2-0.5,1.9c0,0.8,0.1,1.4,0.5,2c0.3,0.6,0.7,1,1.2,1.3c0.5,0.3,1.1,0.4,1.7,0.4
				c0.6,0,1.2-0.1,1.7-0.4s0.9-0.7,1.2-1.3s0.5-1.2,0.5-2S1545.1,323.6,1544.8,323.1z"/>
			<path d="M1558.4,320.1v9.9h-1.6v-1.5c-0.3,0.5-0.7,0.9-1.3,1.2c-0.6,0.3-1.2,0.4-1.8,0.4c-0.8,0-1.5-0.2-2.1-0.5
				c-0.6-0.3-1.1-0.8-1.4-1.4c-0.4-0.6-0.5-1.4-0.5-2.3v-5.8h1.6v5.6c0,1,0.2,1.7,0.7,2.2c0.5,0.5,1.2,0.8,2,0.8
				c0.9,0,1.6-0.3,2.1-0.8s0.8-1.3,0.8-2.4v-5.4H1558.4z"/>
			<path d="M1562.8,316.6V330h-1.6v-13.3H1562.8z"/>
			<path d="M1567.6,321.4v5.8c0,0.5,0.1,0.8,0.3,1c0.2,0.2,0.6,0.3,1.1,0.3h1.2v1.4h-1.5c-0.9,0-1.6-0.2-2.1-0.6s-0.7-1.1-0.7-2.1
				v-5.8h-1.3v-1.4h1.3v-2.5h1.6v2.5h2.6v1.4H1567.6z"/>
			<path d="M1576,317.3h4.4v1h-1.5v5.3h-1.3l0-5.3h-1.5V317.3z M1588.6,317.3v6.3h-1.2l0-4.6l-2,4.6h-0.9l-1.9-4.7v4.7h-1.2v-6.3
				h1.7l2,4.8l2-4.8H1588.6z"/>
		</g>
	</g>
</g>
<g id="Layer_5">
	<g>
		<g>
			<line class="st6" x1="417" y1="265.5" x2="423" y2="265.5"/>
			<line class="st7" x1="436.2" y1="265.5" x2="535.4" y2="265.5"/>
			<line class="st6" x1="542" y1="265.5" x2="548" y2="265.5"/>
		</g>
	</g>
	<g>
		<g>
			<line class="st8" x1="834" y1="265.5" x2="840" y2="265.5"/>
			<line class="st9" x1="853.2" y1="265.5" x2="952.4" y2="265.5"/>
			<line class="st8" x1="959" y1="265.5" x2="965" y2="265.5"/>
		</g>
	</g>
	<g>
		<g>
			<line class="st8" x1="1251" y1="265.5" x2="1257" y2="265.5"/>
			<line class="st9" x1="1270.2" y1="265.5" x2="1369.4" y2="265.5"/>
			<line class="st8" x1="1376" y1="265.5" x2="1382" y2="265.5"/>
		</g>
	</g>
</g>
</svg>
