<svg width="978" height="446" viewBox="0 0 978 446" fill="none" xmlns="http://www.w3.org/2000/svg">
<path d="M85.4 154.5L85.1 156.5H52.8L53.3 154.5H85.4ZM60.5 197.5C59.9667 199.567 60.1 201.067 60.9 202C61.7 202.867 62.7667 203.3 64.1 203.3C65.5667 203.3 67.0333 202.667 68.5 201.4C69.9667 200.067 71.3667 197.533 72.7 193.8L74.1 189.8H76L73.9 195.9C72.5 200.167 70.6 203.167 68.2 204.9C65.8 206.567 63 207.4 59.8 207.4C55.5333 207.4 52.7333 206.033 51.4 203.3C50.1333 200.5 50.1333 197 51.4 192.8L66.7 139.4C68.7 139.333 70.6 139.2 72.4 139C74.2667 138.8 75.9667 138.467 77.5 138L60.5 197.5ZM112.48 155.1C110.546 155.1 108.646 155.967 106.78 157.7C104.913 159.433 103.146 161.8 101.48 164.8C99.8797 167.733 98.4464 171.033 97.1797 174.7C95.913 178.367 94.913 182.167 94.1797 186.1C93.513 190.033 93.1797 193.767 93.1797 197.3C93.1797 200.1 93.5797 202.167 94.3797 203.5C95.2464 204.767 96.4797 205.4 98.0797 205.4C100.013 205.4 101.913 204.533 103.78 202.8C105.646 201.067 107.413 198.733 109.08 195.8C110.746 192.867 112.18 189.6 113.38 186C114.646 182.333 115.613 178.533 116.28 174.6C117.013 170.667 117.38 166.867 117.38 163.2C117.38 160.267 116.98 158.2 116.18 157C115.38 155.733 114.146 155.1 112.48 155.1ZM82.9797 191.4C82.9797 187.733 83.613 183.7 84.8797 179.3C86.213 174.833 88.113 170.633 90.5797 166.7C93.113 162.7 96.2464 159.433 99.9797 156.9C103.78 154.367 108.146 153.1 113.08 153.1C117.546 153.1 121.08 154.433 123.68 157.1C126.28 159.7 127.58 163.7 127.58 169.1C127.58 172.767 126.913 176.833 125.58 181.3C124.313 185.7 122.413 189.9 119.88 193.9C117.413 197.833 114.28 201.067 110.48 203.6C106.746 206.133 102.413 207.4 97.4797 207.4C93.013 207.4 89.4797 206.067 86.8797 203.4C84.2797 200.733 82.9797 196.733 82.9797 191.4ZM190.266 155.1C187.732 155.1 185.232 156.133 182.766 158.2C180.299 160.267 178.066 163.1 176.066 166.7C174.066 170.3 172.466 174.367 171.266 178.9C170.066 183.433 169.466 188.167 169.466 193.1C169.466 196.5 170.132 198.967 171.466 200.5C172.799 202.033 174.532 202.8 176.666 202.8C178.932 202.8 181.266 202.1 183.666 200.7C186.132 199.3 188.599 196.8 191.066 193.2L193.066 194C191.732 196.2 190.032 198.333 187.966 200.4C185.899 202.467 183.532 204.167 180.866 205.5C178.266 206.767 175.432 207.4 172.366 207.4C168.166 207.4 164.766 206.167 162.166 203.7C159.566 201.233 158.266 197.5 158.266 192.5C158.266 188.5 158.999 184.233 160.466 179.7C161.932 175.167 163.999 170.9 166.666 166.9C169.399 162.833 172.699 159.533 176.566 157C180.499 154.4 184.899 153.1 189.766 153.1C192.899 153.1 195.532 153.9 197.666 155.5C199.866 157.1 200.966 159.267 200.966 162C200.966 163.4 200.632 164.8 199.966 166.2C199.299 167.6 198.366 168.767 197.166 169.7C195.966 170.567 194.566 171 192.966 171C191.499 171 190.366 170.567 189.566 169.7C188.766 168.833 188.366 167.767 188.366 166.5C188.366 164.3 189.166 162.433 190.766 160.9C192.432 159.3 194.299 158.267 196.366 157.8C195.766 157 194.966 156.367 193.966 155.9C193.032 155.367 191.799 155.1 190.266 155.1ZM214.304 206H203.804L215.804 163C216.404 160.867 216.604 159.367 216.404 158.5C216.204 157.633 215.571 157.2 214.504 157.2C213.171 157.2 211.937 157.9 210.804 159.3C209.671 160.7 208.471 163.133 207.204 166.6L205.704 170.8H203.804L206.304 163.4C207.771 159.267 209.671 156.533 212.004 155.2C214.337 153.8 216.671 153.1 219.004 153.1C221.737 153.1 223.504 153.867 224.304 155.4C225.171 156.867 225.504 158.667 225.304 160.8C225.104 162.933 224.737 165.033 224.204 167.1L214.304 206ZM239.904 155.5C238.437 155.5 236.904 156.133 235.304 157.4C233.704 158.6 232.071 160.433 230.404 162.9C228.737 165.367 227.037 168.467 225.304 172.2C223.637 175.933 221.937 180.3 220.204 185.3C218.537 190.233 216.871 195.833 215.204 202.1L217.604 189.1C219.737 182.3 221.737 176.6 223.604 172C225.471 167.4 227.304 163.733 229.104 161C230.971 158.2 232.871 156.2 234.804 155C236.804 153.733 238.937 153.1 241.204 153.1C243.337 153.1 244.971 153.733 246.104 155C247.304 156.2 247.904 157.733 247.904 159.6C247.904 161.867 247.137 163.833 245.604 165.5C244.071 167.1 242.204 167.9 240.004 167.9C238.604 167.9 237.471 167.533 236.604 166.8C235.737 166 235.304 164.9 235.304 163.5C235.304 161.633 235.871 160.033 237.004 158.7C238.137 157.367 239.504 156.433 241.104 155.9C240.971 155.767 240.804 155.667 240.604 155.6C240.404 155.533 240.171 155.5 239.904 155.5ZM253.387 183.6C256.787 182.4 259.887 181.167 262.687 179.9C265.553 178.633 267.887 177.267 269.687 175.8C272.153 173.733 274.087 171.3 275.487 168.5C276.953 165.633 277.687 162.5 277.687 159.1C277.687 157.367 277.553 156.267 277.287 155.8C277.02 155.267 276.62 155 276.087 155C274.153 155 271.987 156.133 269.587 158.4C267.187 160.6 264.92 163.567 262.787 167.3C260.72 171.033 258.987 175.133 257.587 179.6C256.253 184.067 255.587 188.533 255.587 193C255.587 196.467 256.22 198.933 257.487 200.4C258.82 201.867 260.553 202.6 262.687 202.6C264.887 202.6 267.32 201.933 269.987 200.6C272.653 199.2 275.287 196.733 277.887 193.2L279.487 194C278.153 196.2 276.42 198.333 274.287 200.4C272.153 202.467 269.72 204.167 266.987 205.5C264.32 206.767 261.42 207.4 258.287 207.4C254.087 207.4 250.687 206.233 248.087 203.9C245.553 201.5 244.287 197.967 244.287 193.3C244.287 190.233 244.82 186.9 245.887 183.3C247.02 179.633 248.587 176.033 250.587 172.5C252.653 168.967 255.087 165.733 257.887 162.8C260.687 159.8 263.82 157.433 267.287 155.7C270.753 153.967 274.42 153.1 278.287 153.1C280.687 153.1 282.687 153.7 284.287 154.9C285.887 156.033 286.687 157.767 286.687 160.1C286.687 162.767 285.92 165.267 284.387 167.6C282.92 169.867 280.92 171.933 278.387 173.8C275.853 175.667 273.087 177.333 270.087 178.8C267.153 180.267 264.187 181.533 261.187 182.6C258.253 183.667 255.62 184.533 253.287 185.2L253.387 183.6ZM302.225 203.5C303.692 203.5 305.325 202.633 307.125 200.9C308.925 199.167 310.758 196.8 312.625 193.8C314.492 190.733 316.225 187.2 317.825 183.2C319.425 179.2 320.758 174.933 321.825 170.4L320.025 181.3C316.625 190.9 313.092 197.667 309.425 201.6C305.825 205.467 302.092 207.4 298.225 207.4C294.892 207.4 292.392 206.3 290.725 204.1C289.058 201.833 288.225 198.867 288.225 195.2C288.225 191.867 288.758 188.3 289.825 184.5C290.958 180.7 292.492 176.933 294.425 173.2C296.425 169.467 298.692 166.1 301.225 163.1C303.758 160.1 306.492 157.7 309.425 155.9C312.358 154.033 315.292 153.1 318.225 153.1C320.492 153.1 322.225 154.167 323.425 156.3C324.692 158.367 324.992 161.4 324.325 165.4L323.225 166C323.692 162.867 323.492 160.367 322.625 158.5C321.825 156.567 320.492 155.6 318.625 155.6C316.625 155.6 314.492 156.867 312.225 159.4C309.958 161.933 307.792 165.233 305.725 169.3C303.725 173.3 302.092 177.7 300.825 182.5C299.625 187.233 299.025 191.833 299.025 196.3C299.025 198.967 299.292 200.833 299.825 201.9C300.425 202.967 301.225 203.5 302.225 203.5ZM326.125 154.5C328.125 154.433 330.058 154.3 331.925 154.1C333.792 153.9 335.525 153.567 337.125 153.1L324.425 197.4C324.225 198.133 324.025 198.967 323.825 199.9C323.692 200.767 323.725 201.533 323.925 202.2C324.192 202.867 324.825 203.2 325.825 203.2C327.025 203.2 328.225 202.567 329.425 201.3C330.625 199.967 331.825 197.467 333.025 193.8L334.425 189.7H336.325L333.825 197C332.358 201.067 330.492 203.833 328.225 205.3C326.025 206.7 323.892 207.4 321.825 207.4C318.892 207.4 316.825 206.467 315.625 204.6C314.758 203.133 314.458 201.367 314.725 199.3C315.058 197.167 315.525 194.967 316.125 192.7L326.125 154.5ZM379.541 154.5L379.241 156.5H346.941L347.441 154.5H379.541ZM354.641 197.5C354.107 199.567 354.241 201.067 355.041 202C355.841 202.867 356.907 203.3 358.241 203.3C359.707 203.3 361.174 202.667 362.641 201.4C364.107 200.067 365.507 197.533 366.841 193.8L368.241 189.8H370.141L368.041 195.9C366.641 200.167 364.741 203.167 362.341 204.9C359.941 206.567 357.141 207.4 353.941 207.4C349.674 207.4 346.874 206.033 345.541 203.3C344.274 200.5 344.274 197 345.541 192.8L360.841 139.4C362.841 139.333 364.741 139.2 366.541 139C368.407 138.8 370.107 138.467 371.641 138L354.641 197.5ZM385.32 183.6C388.72 182.4 391.82 181.167 394.62 179.9C397.487 178.633 399.82 177.267 401.62 175.8C404.087 173.733 406.02 171.3 407.42 168.5C408.887 165.633 409.62 162.5 409.62 159.1C409.62 157.367 409.487 156.267 409.22 155.8C408.954 155.267 408.554 155 408.02 155C406.087 155 403.92 156.133 401.52 158.4C399.12 160.6 396.854 163.567 394.72 167.3C392.654 171.033 390.92 175.133 389.52 179.6C388.187 184.067 387.52 188.533 387.52 193C387.52 196.467 388.154 198.933 389.42 200.4C390.754 201.867 392.487 202.6 394.62 202.6C396.82 202.6 399.254 201.933 401.92 200.6C404.587 199.2 407.22 196.733 409.82 193.2L411.42 194C410.087 196.2 408.354 198.333 406.22 200.4C404.087 202.467 401.654 204.167 398.92 205.5C396.254 206.767 393.354 207.4 390.22 207.4C386.02 207.4 382.62 206.233 380.02 203.9C377.487 201.5 376.22 197.967 376.22 193.3C376.22 190.233 376.754 186.9 377.82 183.3C378.954 179.633 380.52 176.033 382.52 172.5C384.587 168.967 387.02 165.733 389.82 162.8C392.62 159.8 395.754 157.433 399.22 155.7C402.687 153.967 406.354 153.1 410.22 153.1C412.62 153.1 414.62 153.7 416.22 154.9C417.82 156.033 418.62 157.767 418.62 160.1C418.62 162.767 417.854 165.267 416.32 167.6C414.854 169.867 412.854 171.933 410.32 173.8C407.787 175.667 405.02 177.333 402.02 178.8C399.087 180.267 396.12 181.533 393.12 182.6C390.187 183.667 387.554 184.533 385.22 185.2L385.32 183.6Z" fill="black"/>
<path d="M176.7 282.2C176.7 276.667 177.833 271.767 180.1 267.5C182.433 263.233 185.567 259.933 189.5 257.6C193.5 255.2 197.933 254 202.8 254C206.4 254 209.933 254.8 213.4 256.4C216.933 257.933 219.733 260 221.8 262.6V236H233.3V310H221.8V301.7C219.933 304.367 217.333 306.567 214 308.3C210.733 310.033 206.967 310.9 202.7 310.9C197.9 310.9 193.5 309.7 189.5 307.3C185.567 304.833 182.433 301.433 180.1 297.1C177.833 292.7 176.7 287.733 176.7 282.2ZM221.8 282.4C221.8 278.6 221 275.3 219.4 272.5C217.867 269.7 215.833 267.567 213.3 266.1C210.767 264.633 208.033 263.9 205.1 263.9C202.167 263.9 199.433 264.633 196.9 266.1C194.367 267.5 192.3 269.6 190.7 272.4C189.167 275.133 188.4 278.4 188.4 282.2C188.4 286 189.167 289.333 190.7 292.2C192.3 295.067 194.367 297.267 196.9 298.8C199.5 300.267 202.233 301 205.1 301C208.033 301 210.767 300.267 213.3 298.8C215.833 297.333 217.867 295.2 219.4 292.4C221 289.533 221.8 286.2 221.8 282.4ZM254.073 247.6C252.007 247.6 250.273 246.9 248.873 245.5C247.473 244.1 246.773 242.367 246.773 240.3C246.773 238.233 247.473 236.5 248.873 235.1C250.273 233.7 252.007 233 254.073 233C256.073 233 257.773 233.7 259.173 235.1C260.573 236.5 261.273 238.233 261.273 240.3C261.273 242.367 260.573 244.1 259.173 245.5C257.773 246.9 256.073 247.6 254.073 247.6ZM259.673 254.9V310H248.273V254.9H259.673ZM294.641 310.9C290.307 310.9 286.407 310.133 282.941 308.6C279.541 307 276.841 304.867 274.841 302.2C272.841 299.467 271.774 296.433 271.641 293.1H283.441C283.641 295.433 284.741 297.4 286.741 299C288.807 300.533 291.374 301.3 294.441 301.3C297.641 301.3 300.107 300.7 301.841 299.5C303.641 298.233 304.541 296.633 304.541 294.7C304.541 292.633 303.541 291.1 301.541 290.1C299.607 289.1 296.507 288 292.241 286.8C288.107 285.667 284.741 284.567 282.141 283.5C279.541 282.433 277.274 280.8 275.341 278.6C273.474 276.4 272.541 273.5 272.541 269.9C272.541 266.967 273.407 264.3 275.141 261.9C276.874 259.433 279.341 257.5 282.541 256.1C285.807 254.7 289.541 254 293.741 254C300.007 254 305.041 255.6 308.841 258.8C312.707 261.933 314.774 266.233 315.041 271.7H303.641C303.441 269.233 302.441 267.267 300.641 265.8C298.841 264.333 296.407 263.6 293.341 263.6C290.341 263.6 288.041 264.167 286.441 265.3C284.841 266.433 284.041 267.933 284.041 269.8C284.041 271.267 284.574 272.5 285.641 273.5C286.707 274.5 288.007 275.3 289.541 275.9C291.074 276.433 293.341 277.133 296.341 278C300.341 279.067 303.607 280.167 306.141 281.3C308.741 282.367 310.974 283.967 312.841 286.1C314.707 288.233 315.674 291.067 315.741 294.6C315.741 297.733 314.874 300.533 313.141 303C311.407 305.467 308.941 307.4 305.741 308.8C302.607 310.2 298.907 310.9 294.641 310.9ZM339.459 262.9C341.125 260.1 343.325 257.933 346.059 256.4C348.859 254.8 352.159 254 355.959 254V265.8H353.059C348.592 265.8 345.192 266.933 342.859 269.2C340.592 271.467 339.459 275.4 339.459 281V310H328.059V254.9H339.459V262.9ZM416.338 254.9V310H404.938V303.5C403.138 305.767 400.771 307.567 397.838 308.9C394.971 310.167 391.904 310.8 388.638 310.8C384.304 310.8 380.404 309.9 376.938 308.1C373.538 306.3 370.838 303.633 368.838 300.1C366.904 296.567 365.938 292.3 365.938 287.3V254.9H377.238V285.6C377.238 290.533 378.471 294.333 380.938 297C383.404 299.6 386.771 300.9 391.038 300.9C395.304 300.9 398.671 299.6 401.138 297C403.671 294.333 404.938 290.533 404.938 285.6V254.9H416.338ZM442.779 263C444.712 260.467 447.346 258.333 450.679 256.6C454.012 254.867 457.779 254 461.979 254C466.779 254 471.146 255.2 475.079 257.6C479.079 259.933 482.212 263.233 484.479 267.5C486.746 271.767 487.879 276.667 487.879 282.2C487.879 287.733 486.746 292.7 484.479 297.1C482.212 301.433 479.079 304.833 475.079 307.3C471.146 309.7 466.779 310.9 461.979 310.9C457.779 310.9 454.046 310.067 450.779 308.4C447.512 306.667 444.846 304.533 442.779 302V336.2H431.379V254.9H442.779V263ZM476.279 282.2C476.279 278.4 475.479 275.133 473.879 272.4C472.346 269.6 470.279 267.5 467.679 266.1C465.146 264.633 462.412 263.9 459.479 263.9C456.612 263.9 453.879 264.633 451.279 266.1C448.746 267.567 446.679 269.7 445.079 272.5C443.546 275.3 442.779 278.6 442.779 282.4C442.779 286.2 443.546 289.533 445.079 292.4C446.679 295.2 448.746 297.333 451.279 298.8C453.879 300.267 456.612 301 459.479 301C462.412 301 465.146 300.267 467.679 298.8C470.279 297.267 472.346 295.067 473.879 292.2C475.479 289.333 476.279 286 476.279 282.2ZM512.452 264.2V294.7C512.452 296.767 512.919 298.267 513.852 299.2C514.852 300.067 516.519 300.5 518.852 300.5H525.852V310H516.852C511.719 310 507.786 308.8 505.052 306.4C502.319 304 500.952 300.1 500.952 294.7V264.2H494.452V254.9H500.952V241.2H512.452V254.9H525.852V264.2H512.452ZM542.159 247.6C540.093 247.6 538.359 246.9 536.959 245.5C535.559 244.1 534.859 242.367 534.859 240.3C534.859 238.233 535.559 236.5 536.959 235.1C538.359 233.7 540.093 233 542.159 233C544.159 233 545.859 233.7 547.259 235.1C548.659 236.5 549.359 238.233 549.359 240.3C549.359 242.367 548.659 244.1 547.259 245.5C545.859 246.9 544.159 247.6 542.159 247.6ZM547.759 254.9V310H536.359V254.9H547.759ZM584.027 299.8L599.627 254.9H611.727L590.727 310H577.127L556.227 254.9H568.427L584.027 299.8ZM670.844 281.1C670.844 283.167 670.71 285.033 670.444 286.7H628.344C628.677 291.1 630.31 294.633 633.244 297.3C636.177 299.967 639.777 301.3 644.044 301.3C650.177 301.3 654.51 298.733 657.044 293.6H669.344C667.677 298.667 664.644 302.833 660.244 306.1C655.91 309.3 650.51 310.9 644.044 310.9C638.777 310.9 634.044 309.733 629.844 307.4C625.71 305 622.444 301.667 620.044 297.4C617.71 293.067 616.544 288.067 616.544 282.4C616.544 276.733 617.677 271.767 619.944 267.5C622.277 263.167 625.51 259.833 629.644 257.5C633.844 255.167 638.644 254 644.044 254C649.244 254 653.877 255.133 657.944 257.4C662.01 259.667 665.177 262.867 667.444 267C669.71 271.067 670.844 275.767 670.844 281.1ZM658.944 277.5C658.877 273.3 657.377 269.933 654.444 267.4C651.51 264.867 647.877 263.6 643.544 263.6C639.61 263.6 636.244 264.867 633.444 267.4C630.644 269.867 628.977 273.233 628.444 277.5H658.944Z" fill="black"/>
<path d="M256.8 351.6C259.733 351.6 262.033 352.4 263.7 354C265.433 355.6 266.3 357.633 266.3 360.1C266.3 362.7 265.433 364.867 263.7 366.6C261.967 368.333 259.8 369.2 257.2 369.2C255 369.2 253.3 368.667 252.1 367.6C250.9 366.467 250.3 365 250.3 363.2C250.3 361 251 359.067 252.4 357.4C253.8 355.733 255.6 354.567 257.8 353.9C257.533 353.633 257 353.5 256.2 353.5C253 353.5 250.2 355.267 247.8 358.8C244.867 363.2 241.8 370.967 238.6 382.1C235.4 393.167 231.767 408.3 227.7 427.5H225.5L200.7 373.2C197.833 387.333 195.1 399.233 192.5 408.9C189.967 418.567 187.5 424.967 185.1 428.1C183.633 430.033 182.067 431.567 180.4 432.7C178.8 433.833 176.8 434.4 174.4 434.4C171.467 434.4 169.167 433.6 167.5 432C165.833 430.4 165 428.367 165 425.9C165 423.3 165.867 421.133 167.6 419.4C169.267 417.667 171.433 416.8 174.1 416.8C176.233 416.8 177.9 417.367 179.1 418.5C180.367 419.567 181 421 181 422.8C181 425 180.267 426.933 178.8 428.6C177.4 430.267 175.6 431.433 173.4 432.1C173.733 432.367 174.3 432.5 175.1 432.5C178.5 432.5 181.3 430.7 183.5 427.1C185.967 423.167 188.533 416.133 191.2 406C193.867 395.867 196.767 382.8 199.9 366.8C200.3 364.867 200.5 363.367 200.5 362.3C200.5 360.7 199.967 359.667 198.9 359.2C197.833 358.667 195.8 358.333 192.8 358.2L193.3 356.2C195.433 356.4 198.4 356.5 202.2 356.5C205.267 356.5 207.967 356.4 210.3 356.2L231 403.6C236.6 379.667 241.6 364.467 246 358C248.933 353.733 252.533 351.6 256.8 351.6ZM302.32 356.5C311.786 356.5 318.553 356.4 322.62 356.2C321.086 360.333 319.786 364.4 318.72 368.4C317.586 372.6 316.886 375.533 316.62 377.2H314.32C314.586 375.133 314.72 373.1 314.72 371.1C314.72 366.5 313.786 363.267 311.92 361.4C310.12 359.467 307.12 358.5 302.92 358.5H300.62C298.42 358.5 296.753 358.7 295.62 359.1C294.553 359.433 293.686 360.167 293.02 361.3C292.353 362.433 291.72 364.267 291.12 366.8L284.72 390.8H289.32C292.52 390.8 295.22 389.7 297.42 387.5C299.62 385.3 301.486 382.4 303.02 378.8H305.22C304.22 381.933 302.986 386.267 301.52 391.8C300.92 394.333 299.886 399.267 298.42 406.6H296.22C296.42 402.067 295.953 398.633 294.82 396.3C293.753 393.967 291.553 392.8 288.22 392.8H284.22L277.92 416.4C277.386 418.4 277.12 419.867 277.12 420.8C277.12 422.4 277.72 423.467 278.92 424C280.186 424.533 282.453 424.867 285.72 425L285.32 427C281.253 426.8 275.32 426.7 267.52 426.7C260.186 426.7 254.753 426.8 251.22 427L251.72 425C254.12 424.867 255.886 424.6 257.02 424.2C258.22 423.8 259.186 423.033 259.92 421.9C260.653 420.767 261.353 418.933 262.02 416.4L275.22 366.8C275.753 364.533 276.02 362.933 276.02 362C276.02 360.533 275.52 359.567 274.52 359.1C273.586 358.633 271.853 358.333 269.32 358.2L269.82 356.2C277.086 356.4 287.92 356.5 302.32 356.5ZM392.409 341.2C394.742 341.2 396.609 341.9 398.009 343.3C399.409 344.633 400.109 346.267 400.109 348.2C400.109 352.267 397.809 355.433 393.209 357.7C389.142 359.633 383.575 360.6 376.509 360.6C375.309 360.6 373.375 360.533 370.709 360.4L356.009 415.4C355.475 417.4 355.209 418.933 355.209 420C355.209 421.733 355.809 422.967 357.009 423.7C358.275 424.433 360.442 424.867 363.509 425L363.109 427C358.909 426.8 352.742 426.7 344.609 426.7C336.675 426.7 330.809 426.8 327.009 427L327.409 425C330.275 424.867 332.475 424.533 334.009 424C335.609 423.4 336.842 422.467 337.709 421.2C338.642 419.867 339.442 417.933 340.109 415.4L355.209 358.9C350.209 358.433 346.209 358.2 343.209 358.2C337.675 358.2 333.909 358.767 331.909 359.9C333.642 360.433 335.075 361.433 336.209 362.9C337.342 364.3 337.909 366 337.909 368C337.909 370.333 337.175 372.333 335.709 374C334.242 375.6 332.375 376.4 330.109 376.4C327.909 376.4 326.142 375.667 324.809 374.2C323.542 372.667 322.909 370.767 322.909 368.5C322.909 366.633 323.409 364.833 324.409 363.1C325.475 361.367 327.142 359.933 329.409 358.8C332.675 357.2 337.142 356.4 342.809 356.4C347.209 356.4 353.409 356.8 361.409 357.6C368.742 358.267 374.075 358.6 377.409 358.6C381.875 358.6 385.409 358.167 388.009 357.3C387.009 356.367 386.175 355.233 385.509 353.9C384.842 352.5 384.509 351 384.509 349.4C384.509 347 385.209 345.033 386.609 343.5C388.075 341.967 390.009 341.2 392.409 341.2ZM443.663 375.9C440.397 375.9 437.197 377.7 434.063 381.3C430.997 384.833 428.497 389.5 426.563 395.3C424.63 401.033 423.663 406.933 423.663 413C423.663 419.667 426.197 423 431.263 423C436.063 423 440.463 420.067 444.463 414.2L446.463 415C444.063 418.867 440.997 422.067 437.263 424.6C433.597 427.133 429.397 428.4 424.663 428.4C419.797 428.4 415.897 427.1 412.963 424.5C410.097 421.9 408.663 418.067 408.663 413C408.663 407.267 410.097 401.367 412.963 395.3C415.83 389.167 419.863 384.067 425.063 380C430.263 375.933 436.163 373.9 442.763 373.9C446.43 373.9 449.363 374.833 451.563 376.7C453.83 378.5 454.963 380.767 454.963 383.5C454.963 385.3 454.53 387.067 453.663 388.8C452.797 390.533 451.597 391.933 450.063 393C448.53 394.067 446.863 394.6 445.063 394.6C443.397 394.6 442.03 394.067 440.963 393C439.897 391.933 439.363 390.533 439.363 388.8C439.363 386.2 440.263 383.9 442.063 381.9C443.863 379.833 445.997 378.5 448.463 377.9C447.33 376.567 445.73 375.9 443.663 375.9ZM455.352 411.9C455.352 406.433 456.586 400.733 459.052 394.8C461.586 388.867 465.286 383.9 470.152 379.9C475.086 375.9 480.952 373.9 487.752 373.9C492.952 373.9 496.952 375.333 499.752 378.2C502.552 381 503.952 385.067 503.952 390.4C503.952 395.867 502.686 401.567 500.152 407.5C497.686 413.433 493.986 418.4 489.052 422.4C484.186 426.4 478.352 428.4 471.552 428.4C466.352 428.4 462.352 427 459.552 424.2C456.752 421.333 455.352 417.233 455.352 411.9ZM487.252 375.9C484.786 375.9 482.086 378.267 479.152 383C476.219 387.733 473.752 393.533 471.752 400.4C469.752 407.267 468.752 413.667 468.752 419.6C468.752 422 469.019 423.733 469.552 424.8C470.086 425.867 470.952 426.4 472.152 426.4C474.619 426.4 477.286 424.1 480.152 419.5C483.086 414.9 485.552 409.2 487.552 402.4C489.552 395.533 490.552 389.033 490.552 382.9C490.552 380.3 490.286 378.5 489.752 377.5C489.219 376.433 488.386 375.9 487.252 375.9ZM562.982 410.8L560.482 418.1C558.082 424.967 553.615 428.4 547.082 428.4C543.349 428.4 540.682 427.3 539.082 425.1C538.215 423.833 537.782 422.267 537.782 420.4C537.782 418.267 538.315 415.633 539.382 412.5L548.382 385.5C548.982 383.7 549.282 382.267 549.282 381.2C549.282 379.667 548.649 378.9 547.382 378.9C545.382 378.9 542.949 380.933 540.082 385C537.282 389.067 534.449 394.433 531.582 401.1C528.715 407.7 526.215 414.667 524.082 422L522.782 427H508.682L520.782 383.8C521.182 382.6 521.382 381.533 521.382 380.6C521.382 379.4 520.815 378.8 519.682 378.8C518.415 378.8 517.282 379.4 516.282 380.6C515.349 381.733 514.349 383.767 513.282 386.7L511.382 391.8H509.482L512.182 384.2C513.449 380.533 515.149 377.9 517.282 376.3C519.415 374.7 522.015 373.9 525.082 373.9C530.815 373.9 533.682 376.633 533.682 382.1C533.682 383.967 533.415 385.9 532.882 387.9L529.782 400C532.515 393.2 535.115 387.933 537.582 384.2C540.115 380.4 542.649 377.733 545.182 376.2C547.782 374.667 550.649 373.9 553.782 373.9C559.782 373.9 562.782 376.567 562.782 381.9C562.782 383.9 562.349 386.267 561.482 389L551.682 418.5C551.282 419.7 551.082 420.667 551.082 421.4C551.082 422.8 551.715 423.5 552.982 423.5C554.049 423.5 555.082 422.933 556.082 421.8C557.149 420.667 558.215 418.6 559.282 415.6L561.082 410.8H562.982ZM603.136 375.9C599.869 375.9 596.669 377.7 593.536 381.3C590.469 384.833 587.969 389.5 586.036 395.3C584.103 401.033 583.136 406.933 583.136 413C583.136 419.667 585.669 423 590.736 423C595.536 423 599.936 420.067 603.936 414.2L605.936 415C603.536 418.867 600.469 422.067 596.736 424.6C593.069 427.133 588.869 428.4 584.136 428.4C579.269 428.4 575.369 427.1 572.436 424.5C569.569 421.9 568.136 418.067 568.136 413C568.136 407.267 569.569 401.367 572.436 395.3C575.303 389.167 579.336 384.067 584.536 380C589.736 375.933 595.636 373.9 602.236 373.9C605.903 373.9 608.836 374.833 611.036 376.7C613.303 378.5 614.436 380.767 614.436 383.5C614.436 385.3 614.003 387.067 613.136 388.8C612.269 390.533 611.069 391.933 609.536 393C608.003 394.067 606.336 394.6 604.536 394.6C602.869 394.6 601.503 394.067 600.436 393C599.369 391.933 598.836 390.533 598.836 388.8C598.836 386.2 599.736 383.9 601.536 381.9C603.336 379.833 605.469 378.5 607.936 377.9C606.803 376.567 605.203 375.9 603.136 375.9ZM660.425 381.8C660.425 387.333 657.325 392.167 651.125 396.3C644.925 400.433 637.725 403.633 629.525 405.9C629.125 408.167 628.925 410.433 628.925 412.7C628.925 416.233 629.558 418.733 630.825 420.2C632.158 421.667 634.092 422.4 636.625 422.4C638.692 422.4 641.025 421.767 643.625 420.5C646.225 419.167 648.758 417.067 651.225 414.2L652.825 415C650.425 418.733 647.192 421.9 643.125 424.5C639.125 427.1 634.625 428.4 629.625 428.4C625.025 428.4 621.258 427.167 618.325 424.7C615.392 422.233 613.925 418.767 613.925 414.3C613.925 408.367 615.525 402.233 618.725 395.9C621.925 389.567 626.292 384.333 631.825 380.2C637.358 376 643.425 373.9 650.025 373.9C653.092 373.9 655.592 374.6 657.525 376C659.458 377.333 660.425 379.267 660.425 381.8ZM647.825 375.8C645.892 375.8 643.692 377.167 641.225 379.9C638.758 382.633 636.492 386.2 634.425 390.6C632.358 394.933 630.825 399.4 629.825 404C634.558 401.933 638.225 399.7 640.825 397.3C643.492 394.9 645.592 392.167 647.125 389.1C648.658 385.967 649.425 382.633 649.425 379.1C649.425 377.833 649.292 376.967 649.025 376.5C648.758 376.033 648.358 375.8 647.825 375.8ZM703.4 373.9C707.467 373.9 710.533 375.233 712.6 377.9C714.733 380.5 715.8 384.3 715.8 389.3C715.8 394.767 714.567 400.567 712.1 406.7C709.7 412.767 706.233 417.9 701.7 422.1C697.167 426.3 691.9 428.4 685.9 428.4C684.033 428.4 682.3 428.1 680.7 427.5C679.1 426.9 677.833 426.033 676.9 424.9L674.2 434.5C673.8 435.9 673.6 437.1 673.6 438.1C673.6 439.967 674.267 441.233 675.6 441.9C676.933 442.567 679.033 442.933 681.9 443L681.3 445.1L679 445C672.2 444.8 667.7 444.7 665.5 444.7C663.3 444.7 658.6 444.833 651.4 445.1L652 443C654.4 443 656.133 442.567 657.2 441.7C658.267 440.833 659.133 439.2 659.8 436.8L677.9 371.9C676.033 376.033 673.9 379.767 671.5 383.1C669.1 386.367 666.167 389.767 662.7 393.3L661.6 392C664.533 388.8 666.967 386.033 668.9 383.7C670.833 381.3 672.767 378.4 674.7 375C676.7 371.533 678.667 367.333 680.6 362.4L680.9 361.2C686.3 360.8 691.267 359.867 695.8 358.4L687.2 388.9C689.6 383.7 692.133 379.9 694.8 377.5C697.467 375.1 700.333 373.9 703.4 373.9ZM682 425.5C685.133 425.5 688.167 423.5 691.1 419.5C694.1 415.433 696.533 410.433 698.4 404.5C700.267 398.5 701.2 392.833 701.2 387.5C701.2 384.367 700.9 382.2 700.3 381C699.767 379.8 698.967 379.2 697.9 379.2C695.9 379.2 693.633 381.133 691.1 385C688.567 388.867 686.233 393.767 684.1 399.7L677.4 423.2C678.667 424.733 680.2 425.5 682 425.5ZM735.201 418.5C735.001 419.167 734.901 419.833 734.901 420.5C734.901 421.5 735.167 422.267 735.701 422.8C736.234 423.267 736.967 423.5 737.901 423.5C739.367 423.5 740.767 422.8 742.101 421.4C743.501 419.933 744.734 417.767 745.801 414.9L747.301 410.8H749.201L747.201 416.6C744.601 424.467 739.601 428.4 732.201 428.4C728.801 428.4 726.234 427.533 724.501 425.8C722.834 424 722.001 421.567 722.001 418.5C722.001 416.567 722.301 414.567 722.901 412.5L733.001 377.3H724.001L724.501 375.3H733.601L737.901 360.4C743.567 360.333 748.401 359.867 752.401 359L747.701 375.3H759.001L758.701 377.3H747.101L735.201 418.5ZM761.455 425.6C762.455 426.067 763.755 426.3 765.355 426.3C767.888 426.3 769.921 425.533 771.455 424C772.988 422.467 773.755 420.367 773.755 417.7C773.755 415.567 773.288 413.367 772.355 411.1C771.421 408.833 770.021 406.267 768.155 403.4C767.888 403 767.088 401.8 765.755 399.8C764.488 397.8 763.521 395.9 762.855 394.1C762.255 392.233 761.955 390.4 761.955 388.6C761.955 384.267 763.555 380.733 766.755 378C770.021 375.267 774.488 373.9 780.155 373.9C784.488 373.9 788.088 374.7 790.955 376.3C793.888 377.833 795.355 380.5 795.355 384.3C795.355 386.167 794.821 387.867 793.755 389.4C792.688 390.933 791.188 391.7 789.255 391.7C787.588 391.7 786.255 391.067 785.255 389.8C784.255 388.533 783.755 386.933 783.755 385C783.755 383.333 784.055 381.8 784.655 380.4C785.255 378.933 785.988 377.7 786.855 376.7C785.988 376.167 784.821 375.9 783.355 375.9C780.955 375.9 779.055 376.667 777.655 378.2C776.321 379.667 775.621 381.733 775.555 384.4C775.555 386.2 775.888 387.833 776.555 389.3C777.288 390.767 778.488 392.833 780.155 395.5L781.555 397.6C783.688 401.133 785.188 404.033 786.055 406.3C786.988 408.567 787.455 410.833 787.455 413.1C787.455 416.033 786.688 418.667 785.155 421C783.621 423.267 781.421 425.067 778.555 426.4C775.755 427.733 772.455 428.4 768.655 428.4C763.921 428.4 759.988 427.5 756.855 425.7C753.721 423.833 752.155 420.867 752.155 416.8C752.155 414.8 752.655 413.1 753.655 411.7C754.655 410.3 756.021 409.6 757.755 409.6C759.488 409.6 760.855 410.333 761.855 411.8C762.921 413.267 763.455 415.133 763.455 417.4C763.455 418.867 763.288 420.2 762.955 421.4C762.621 422.533 762.121 423.933 761.455 425.6Z" fill="black"/>
<path d="M271 20.5L250.4 90H237.5L222.9 37.4L207.4 90L194.6 90.1L174.9 20.5H187L201.4 77.1L217 20.5H229.8L244.3 76.8L258.8 20.5H271ZM330.902 61.1C330.902 63.1667 330.769 65.0333 330.502 66.7H288.402C288.736 71.1 290.369 74.6333 293.302 77.3C296.236 79.9667 299.836 81.3 304.102 81.3C310.236 81.3 314.569 78.7333 317.102 73.6H329.402C327.736 78.6667 324.702 82.8333 320.302 86.1C315.969 89.3 310.569 90.9 304.102 90.9C298.836 90.9 294.102 89.7333 289.902 87.4C285.769 85 282.502 81.6667 280.102 77.4C277.769 73.0667 276.602 68.0667 276.602 62.4C276.602 56.7333 277.736 51.7667 280.002 47.5C282.336 43.1667 285.569 39.8333 289.702 37.5C293.902 35.1667 298.702 34 304.102 34C309.302 34 313.936 35.1333 318.002 37.4C322.069 39.6667 325.236 42.8667 327.502 47C329.769 51.0667 330.902 55.7667 330.902 61.1ZM319.002 57.5C318.936 53.3 317.436 49.9333 314.502 47.4C311.569 44.8667 307.936 43.6 303.602 43.6C299.669 43.6 296.302 44.8667 293.502 47.4C290.702 49.8667 289.036 53.2333 288.502 57.5H319.002ZM381.398 44.2V74.7C381.398 76.7667 381.864 78.2667 382.798 79.2C383.798 80.0667 385.464 80.5 387.798 80.5H394.798V90H385.798C380.664 90 376.731 88.8 373.998 86.4C371.264 84 369.898 80.1 369.898 74.7V44.2H363.398V34.9H369.898V21.2H381.398V34.9H394.798V44.2H381.398ZM455.805 61.1C455.805 63.1667 455.671 65.0333 455.405 66.7H413.305C413.638 71.1 415.271 74.6333 418.205 77.3C421.138 79.9667 424.738 81.3 429.005 81.3C435.138 81.3 439.471 78.7333 442.005 73.6H454.305C452.638 78.6667 449.605 82.8333 445.205 86.1C440.871 89.3 435.471 90.9 429.005 90.9C423.738 90.9 419.005 89.7333 414.805 87.4C410.671 85 407.405 81.6667 405.005 77.4C402.671 73.0667 401.505 68.0667 401.505 62.4C401.505 56.7333 402.638 51.7667 404.905 47.5C407.238 43.1667 410.471 39.8333 414.605 37.5C418.805 35.1667 423.605 34 429.005 34C434.205 34 438.838 35.1333 442.905 37.4C446.971 39.6667 450.138 42.8667 452.405 47C454.671 51.0667 455.805 55.7667 455.805 61.1ZM443.905 57.5C443.838 53.3 442.338 49.9333 439.405 47.4C436.471 44.8667 432.838 43.6 428.505 43.6C424.571 43.6 421.205 44.8667 418.405 47.4C415.605 49.8667 413.938 53.2333 413.405 57.5H443.905ZM463.223 62.2C463.223 56.6667 464.357 51.7667 466.623 47.5C468.957 43.2333 472.09 39.9333 476.023 37.6C480.023 35.2 484.423 34 489.223 34C493.557 34 497.323 34.8667 500.523 36.6C503.79 38.2667 506.39 40.3667 508.323 42.9V34.9H519.823V90H508.323V81.8C506.39 84.4 503.757 86.5667 500.423 88.3C497.09 90.0333 493.29 90.9 489.023 90.9C484.29 90.9 479.957 89.7 476.023 87.3C472.09 84.8333 468.957 81.4333 466.623 77.1C464.357 72.7 463.223 67.7333 463.223 62.2ZM508.323 62.4C508.323 58.6 507.523 55.3 505.923 52.5C504.39 49.7 502.357 47.5667 499.823 46.1C497.29 44.6333 494.557 43.9 491.623 43.9C488.69 43.9 485.957 44.6333 483.423 46.1C480.89 47.5 478.823 49.6 477.223 52.4C475.69 55.1333 474.923 58.4 474.923 62.2C474.923 66 475.69 69.3333 477.223 72.2C478.823 75.0667 480.89 77.2667 483.423 78.8C486.023 80.2667 488.757 81 491.623 81C494.557 81 497.29 80.2667 499.823 78.8C502.357 77.3333 504.39 75.2 505.923 72.4C507.523 69.5333 508.323 66.2 508.323 62.4ZM601.497 34C605.83 34 609.697 34.9 613.097 36.7C616.564 38.5 619.264 41.1667 621.197 44.7C623.197 48.2333 624.197 52.5 624.197 57.5V90H612.897V59.2C612.897 54.2667 611.664 50.5 609.197 47.9C606.73 45.2333 603.364 43.9 599.097 43.9C594.83 43.9 591.43 45.2333 588.897 47.9C586.43 50.5 585.197 54.2667 585.197 59.2V90H573.897V59.2C573.897 54.2667 572.664 50.5 570.197 47.9C567.73 45.2333 564.364 43.9 560.097 43.9C555.83 43.9 552.43 45.2333 549.897 47.9C547.43 50.5 546.197 54.2667 546.197 59.2V90H534.797V34.9H546.197V41.2C548.064 38.9333 550.43 37.1667 553.297 35.9C556.164 34.6333 559.23 34 562.497 34C566.897 34 570.83 34.9333 574.297 36.8C577.764 38.6667 580.43 41.3667 582.297 44.9C583.964 41.5667 586.564 38.9333 590.097 37C593.63 35 597.43 34 601.497 34ZM714.58 34.9V90H703.18V83.5C701.38 85.7667 699.013 87.5667 696.08 88.9C693.213 90.1667 690.146 90.8 686.88 90.8C682.546 90.8 678.646 89.9 675.18 88.1C671.78 86.3 669.08 83.6333 667.08 80.1C665.146 76.5667 664.18 72.3 664.18 67.3V34.9H675.48V65.6C675.48 70.5333 676.713 74.3333 679.18 77C681.646 79.6 685.013 80.9 689.28 80.9C693.546 80.9 696.913 79.6 699.38 77C701.913 74.3333 703.18 70.5333 703.18 65.6V34.9H714.58ZM741.021 43C742.954 40.4667 745.588 38.3333 748.921 36.6C752.254 34.8667 756.021 34 760.221 34C765.021 34 769.388 35.2 773.321 37.6C777.321 39.9333 780.454 43.2333 782.721 47.5C784.988 51.7667 786.121 56.6667 786.121 62.2C786.121 67.7333 784.988 72.7 782.721 77.1C780.454 81.4333 777.321 84.8333 773.321 87.3C769.388 89.7 765.021 90.9 760.221 90.9C756.021 90.9 752.288 90.0667 749.021 88.4C745.754 86.6667 743.088 84.5333 741.021 82V116.2H729.621V34.9H741.021V43ZM774.521 62.2C774.521 58.4 773.721 55.1333 772.121 52.4C770.588 49.6 768.521 47.5 765.921 46.1C763.388 44.6333 760.654 43.9 757.721 43.9C754.854 43.9 752.121 44.6333 749.521 46.1C746.988 47.5667 744.921 49.7 743.321 52.5C741.788 55.3 741.021 58.6 741.021 62.4C741.021 66.2 741.788 69.5333 743.321 72.4C744.921 75.2 746.988 77.3333 749.521 78.8C752.121 80.2667 754.854 81 757.721 81C760.654 81 763.388 80.2667 765.921 78.8C768.521 77.2667 770.588 75.0667 772.121 72.2C773.721 69.3333 774.521 66 774.521 62.2ZM834.771 43.1C836.704 40.4333 839.338 38.2667 842.671 36.6C846.071 34.8667 849.838 34 853.971 34C858.838 34 863.238 35.1667 867.171 37.5C871.104 39.8333 874.204 43.1667 876.471 47.5C878.738 51.7667 879.871 56.6667 879.871 62.2C879.871 67.7333 878.738 72.7 876.471 77.1C874.204 81.4333 871.071 84.8333 867.071 87.3C863.138 89.7 858.771 90.9 853.971 90.9C849.704 90.9 845.904 90.0667 842.571 88.4C839.304 86.7333 836.704 84.6 834.771 82V90H823.371V16H834.771V43.1ZM868.271 62.2C868.271 58.4 867.471 55.1333 865.871 52.4C864.338 49.6 862.271 47.5 859.671 46.1C857.138 44.6333 854.404 43.9 851.471 43.9C848.604 43.9 845.871 44.6333 843.271 46.1C840.738 47.5667 838.671 49.7 837.071 52.5C835.538 55.3 834.771 58.6 834.771 62.4C834.771 66.2 835.538 69.5333 837.071 72.4C838.671 75.2 840.738 77.3333 843.271 78.8C845.871 80.2667 848.604 81 851.471 81C854.404 81 857.138 80.2667 859.671 78.8C862.271 77.2667 864.338 75.0667 865.871 72.2C867.471 69.3333 868.271 66 868.271 62.2ZM896.945 27.6C894.878 27.6 893.145 26.9 891.745 25.5C890.345 24.1 889.645 22.3667 889.645 20.3C889.645 18.2333 890.345 16.5 891.745 15.1C893.145 13.7 894.878 13 896.945 13C898.945 13 900.645 13.7 902.045 15.1C903.445 16.5 904.145 18.2333 904.145 20.3C904.145 22.3667 903.445 24.1 902.045 25.5C900.645 26.9 898.945 27.6 896.945 27.6ZM902.545 34.9V90H891.145V34.9H902.545ZM939.712 34C943.978 34 947.745 34.8667 951.012 36.6C954.345 38.2667 956.945 40.3667 958.812 42.9V34.9H970.312V90.9C970.312 95.9667 969.245 100.467 967.112 104.4C964.978 108.4 961.878 111.533 957.812 113.8C953.812 116.067 949.012 117.2 943.412 117.2C935.945 117.2 929.745 115.433 924.812 111.9C919.878 108.433 917.078 103.7 916.412 97.7H927.712C928.578 100.567 930.412 102.867 933.212 104.6C936.078 106.4 939.478 107.3 943.412 107.3C948.012 107.3 951.712 105.9 954.512 103.1C957.378 100.3 958.812 96.2333 958.812 90.9V81.7C956.878 84.3 954.245 86.5 950.912 88.3C947.645 90.0333 943.912 90.9 939.712 90.9C934.912 90.9 930.512 89.7 926.512 87.3C922.578 84.8333 919.445 81.4333 917.112 77.1C914.845 72.7 913.712 67.7333 913.712 62.2C913.712 56.6667 914.845 51.7667 917.112 47.5C919.445 43.2333 922.578 39.9333 926.512 37.6C930.512 35.2 934.912 34 939.712 34ZM958.812 62.4C958.812 58.6 958.012 55.3 956.412 52.5C954.878 49.7 952.845 47.5667 950.312 46.1C947.778 44.6333 945.045 43.9 942.112 43.9C939.178 43.9 936.445 44.6333 933.912 46.1C931.378 47.5 929.312 49.6 927.712 52.4C926.178 55.1333 925.412 58.4 925.412 62.2C925.412 66 926.178 69.3333 927.712 72.2C929.312 75.0667 931.378 77.2667 933.912 78.8C936.512 80.2667 939.245 81 942.112 81C945.045 81 947.778 80.2667 950.312 78.8C952.845 77.3333 954.878 75.2 956.412 72.4C958.012 69.5333 958.812 66.2 958.812 62.4Z" fill="black"/>
<path d="M795 234H891V330L844 281L795 234Z" fill="black"/>
<path fill-rule="evenodd" clip-rule="evenodd" d="M449 220C475.51 220 497 198.51 497 172C497 145.49 475.51 124 449 124V220Z" fill="black"/>
<mask id="mask0" mask-type="alpha" maskUnits="userSpaceOnUse" x="49" y="12" width="746" height="317">
<path fill-rule="evenodd" clip-rule="evenodd" d="M91 12C67.804 12 49 30.804 49 54C49 77.196 67.804 96 91 96C114.196 96 133 77.196 133 54C133 30.804 114.196 12 91 12ZM497 220C523.51 220 545 198.51 545 172C545 145.49 523.51 124 497 124V220ZM699 233H795V329L748 280L699 233Z" fill="url(#paint0_linear)"/>
</mask>
<g mask="url(#mask0)">
<path d="M49 12H187V135H49V12Z" fill="url(#paint1_linear)"/>
<path d="M455 109H593V232H455V109Z" fill="url(#paint2_linear)"/>
<path d="M699 207H837V330H699V207Z" fill="url(#paint3_linear)"/>
</g>
<rect x="577" y="133" width="389" height="78" rx="39" stroke="black" stroke-width="6"/>
<rect x="130" y="227" width="211" height="78" rx="39" transform="rotate(90 130 227)" stroke="black" stroke-width="6"/>
<path d="M21 54H98M98 54L85 67M98 54L85 41" stroke="black" stroke-width="6"/>
<path d="M733 172H810M810 172L797 185M810 172L797 159" stroke="black" stroke-width="6"/>
<path d="M91 294L91 371M91 371L78 358M91 371L104 358" stroke="black" stroke-width="6"/>
<rect x="3" y="44" width="21" height="21" rx="10.5" fill="white" stroke="black" stroke-width="6"/>
<defs>
<linearGradient id="paint0_linear" x1="49" y1="12" x2="1006.87" y2="252.6" gradientUnits="userSpaceOnUse">
<stop stop-color="#B9EA74"/>
<stop offset="0.143379" stop-color="#EBF95C"/>
<stop offset="0.486345" stop-color="#FCFE54"/>
<stop offset="0.737869" stop-color="#77D591"/>
<stop offset="0.822424" stop-color="#5AC2E0"/>
</linearGradient>
<linearGradient id="paint1_linear" x1="89.5174" y1="135" x2="294.351" y2="99.4198" gradientUnits="userSpaceOnUse">
<stop stop-color="#FFBD23"/>
<stop offset="0.226126" stop-color="#FFEE9B"/>
<stop offset="0.60518" stop-color="#F3BC4E"/>
<stop offset="0.848556" stop-color="#EA9827"/>
</linearGradient>
<linearGradient id="paint2_linear" x1="495.517" y1="232" x2="700.351" y2="196.42" gradientUnits="userSpaceOnUse">
<stop stop-color="#FFBD23"/>
<stop offset="0.226126" stop-color="#FFEE9B"/>
<stop offset="0.60518" stop-color="#F3BC4E"/>
<stop offset="0.848556" stop-color="#EA9827"/>
</linearGradient>
<linearGradient id="paint3_linear" x1="739.517" y1="330" x2="944.351" y2="294.42" gradientUnits="userSpaceOnUse">
<stop stop-color="#FFBD23"/>
<stop offset="0.226126" stop-color="#FFEE9B"/>
<stop offset="0.60518" stop-color="#F3BC4E"/>
<stop offset="0.848556" stop-color="#EA9827"/>
</linearGradient>
</defs>
</svg>
