<svg width="81" height="20" viewBox="0 0 81 20" fill="none" xmlns="http://www.w3.org/2000/svg">
<path fill-rule="evenodd" clip-rule="evenodd" d="M14.9434 1.33261L18.9546 0.380859V7.58947C19.3808 6.94476 20.6513 5.82496 22.8441 5.82496C25.7309 5.82496 27.4023 7.99855 27.4023 10.6379L27.4024 19.1771H23.452V12.0353C23.452 10.9485 23.2999 9.55112 21.3248 9.55112C19.7376 9.55112 19.1315 10.5536 18.9546 11.4308V19.177H14.9434V1.33261ZM44.2772 2.88528L48.2276 1.93353V6.13552H52.7857L51.8741 9.86168L48.2276 9.86168V13.8984C48.2276 14.3124 48.4099 15.2336 49.1392 15.6062C49.8685 15.9788 51.1137 15.6296 51.7721 15.3709L53.2915 18.476C52.1214 19.2968 48.6286 20.044 46.7082 18.8666C44.4291 17.4693 44.2772 15.1404 44.2772 13.8984V2.88528ZM60.0787 5.82506C56.0676 5.82506 53.3935 8.26391 53.3935 12.6564C53.3935 17.0488 56.0676 19.4876 60.0787 19.4876C63.3595 19.4876 65.7458 17.8039 66.5061 14.83H62.3995C61.938 15.8318 61.1181 16.3825 60.0788 16.3825C58.6646 16.3825 57.6567 15.3945 57.4051 13.5879L62.7505 13.5879H66.7203C66.7492 13.2875 66.764 12.9769 66.764 12.6564C66.764 8.34185 64.0899 5.82506 60.0787 5.82506ZM62.6233 11.1038H57.5295C57.9072 9.69304 58.8362 8.9302 60.0788 8.9302C61.3161 8.9302 62.2425 9.71078 62.6233 11.1038ZM75.5876 19.1781H80.2963L75.8673 12.5395L80.1098 6.09133H75.3545L73.513 9.39872L71.5083 6.09133H66.7996L71.0187 12.4206L66.5665 19.1781H71.3218L73.3731 15.5852L75.5876 19.1781ZM34.3204 19.4875C36.512 19.4875 37.7263 18.5333 38.2707 17.747V19.177H42.2211V6.13541H38.2707V7.44933C37.7263 6.71545 36.512 5.82492 34.3204 5.82492C31.2915 5.82492 28.8506 8.61953 28.8506 12.5009C28.8506 16.3824 31.2915 19.4875 34.3204 19.4875ZM38.2707 12.6699V12.6425C38.2657 10.6897 37.173 9.55107 35.5359 9.55107C33.8949 9.55107 32.801 10.6596 32.801 12.6562C32.801 14.6528 33.8949 15.7613 35.5359 15.7613C37.173 15.7613 38.2657 14.6227 38.2707 12.6699ZM0.195557 12.6564C0.195557 8.26391 2.86966 5.82506 6.88081 5.82506C10.594 5.82506 13.1614 7.98179 13.5223 11.7248H9.52262C9.22604 10.3379 8.24144 9.55122 6.88072 9.55122C5.23979 9.55122 4.14584 10.6598 4.14584 12.6563C4.14584 14.6529 5.23979 15.7615 6.88072 15.7615C8.24144 15.7615 9.22604 14.9748 9.52262 13.5879H13.5223C13.1614 17.3309 10.594 19.4876 6.88081 19.4876C2.86966 19.4876 0.195557 17.0488 0.195557 12.6564Z" fill="white"/>
</svg>
