<svg width="24" height="16" fill="none" xmlns="http://www.w3.org/2000/svg"><path d="M17.422 14.993a1 1 0 0 1-1.415-1.415l1.415 1.415ZM23 8l.707-.707a1 1 0 0 1 0 1.414L23 8ZM16.007 2.42a1 1 0 0 1 1.415-1.414l-1.415 1.414Zm0 11.158 6.286-6.286 1.414 1.414-6.285 6.286-1.415-1.415Zm6.286-4.872-6.286-6.286 1.415-1.414 6.285 6.286-1.414 1.414Z" fill="#00F3FA"/><path opacity=".5" d="M9.564 14.993a1 1 0 0 1-1.414-1.415l1.414 1.415ZM15.143 8l.707-.707a1 1 0 0 1 0 1.414L15.143 8ZM8.15 2.42a1 1 0 0 1 1.414-1.414L8.15 2.421Zm0 11.158 6.286-6.286 1.414 1.414-6.286 6.286-1.414-1.415Zm6.286-4.872L8.15 2.421l1.414-1.414 6.286 6.286-1.414 1.414Z" fill="#00F3FA"/><path opacity=".2" d="M1.707 14.993a1 1 0 0 1-1.414-1.415l1.414 1.415ZM7.286 8l.707-.707a1 1 0 0 1 0 1.414L7.286 8ZM.293 2.42a1 1 0 1 1 1.414-1.414L.293 2.421Zm0 11.158 6.286-6.286 1.414 1.414-6.286 6.286-1.414-1.415Zm6.286-4.872L.293 2.421l1.414-1.414 6.286 6.286-1.414 1.414Z" fill="#00F3FA"/></svg>