<svg width="36" height="60" fill="none" xmlns="http://www.w3.org/2000/svg"><path d="M35.414 43.414a2 2 0 1 0-2.828-2.828l2.828 2.828ZM18 58l-1.414 1.414a2 2 0 0 0 2.828 0L18 58ZM3.414 40.586a2 2 0 1 0-2.828 2.828l2.828-2.828Zm29.172 0-16 16 2.828 2.828 16-16-2.828-2.828Zm-13.172 16-16-16-2.828 2.828 16 16 2.828-2.828Z" fill="#fff" fill-opacity=".7"/><path d="M35.414 23.414a2 2 0 1 0-2.828-2.828l2.828 2.828ZM18 38l-1.414 1.414a2 2 0 0 0 2.828 0L18 38ZM3.414 20.586a2 2 0 1 0-2.828 2.828l2.828-2.828Zm29.172 0-16 16 2.828 2.828 16-16-2.828-2.828Zm-13.172 16-16-16-2.828 2.828 16 16 2.828-2.828Z" fill="#fff" fill-opacity=".5"/><path d="M35.414 3.414A2 2 0 1 0 32.586.586l2.828 2.828ZM18 18l-1.414 1.414a2 2 0 0 0 2.828 0L18 18ZM3.414.586A2 2 0 0 0 .586 3.414L3.414.586Zm29.172 0-16 16 2.828 2.828 16-16L32.586.586Zm-13.172 16-16-16L.586 3.414l16 16 2.828-2.828Z" fill="#fff" fill-opacity=".3"/></svg>