<svg width="32" height="32" fill="none" xmlns="http://www.w3.org/2000/svg"><g filter="url(#a)"><path d="M17.742 19.333h.758c5.536 0 7.5-2.916 7.5-5.416a2.917 2.917 0 0 0-2.367-2.861c.134-.27.248-.548.341-.833a3.24 3.24 0 0 0-.521-2.882A3.316 3.316 0 0 0 20.774 6h-9.548a3.316 3.316 0 0 0-2.679 1.343 3.24 3.24 0 0 0-.521 2.882c.093.286.207.564.34.833A2.916 2.916 0 0 0 6 13.917c0 2.5 1.964 5.416 7.5 5.416h.758c.049.253.074.51.075.768v2.566a1.567 1.567 0 0 1-1.666 1.666H11A.833.833 0 1 0 11 26h10a.833.833 0 0 0 0-1.667h-1.662a1.572 1.572 0 0 1-1.671-1.666V20.1c.001-.257.026-.514.075-.767Zm1.363-2.375a19.57 19.57 0 0 0 3.667-4.355c.099.041.204.063.311.064a1.25 1.25 0 0 1 1.25 1.25c0 1.813-1.532 3.75-5.833 3.75h-.047c.188-.262.407-.5.652-.71Zm-5.605.709c-4.3 0-5.833-1.937-5.833-3.75a1.25 1.25 0 0 1 1.25-1.25.834.834 0 0 0 .312-.064 19.571 19.571 0 0 0 3.667 4.354c.244.21.463.448.65.71H13.5Z" fill="url(#b)"/></g><defs><linearGradient id="b" x1="16" y1="6" x2="16" y2="26" gradientUnits="userSpaceOnUse"><stop stop-color="#FFBC10"/><stop offset="1" stop-color="#FEA31B"/></linearGradient><filter id="a" x="0" y="0" width="32" height="32" filterUnits="userSpaceOnUse" color-interpolation-filters="sRGB"><feFlood flood-opacity="0" result="BackgroundImageFix"/><feColorMatrix in="SourceAlpha" values="0 0 0 0 0 0 0 0 0 0 0 0 0 0 0 0 0 0 127 0" result="hardAlpha"/><feOffset/><feGaussianBlur stdDeviation="3"/><feComposite in2="hardAlpha" operator="out"/><feColorMatrix values="0 0 0 0 0.758333 0 0 0 0 0.3185 0 0 0 0 0 0 0 0 1 0"/><feBlend in2="BackgroundImageFix" result="effect1_dropShadow"/><feBlend in="SourceGraphic" in2="effect1_dropShadow" result="shape"/></filter></defs></svg>