<svg width="19" height="18" fill="none" xmlns="http://www.w3.org/2000/svg"><path d="m9.514 4.119 2.864 2.04 2.699 2.002-1.067 3.259-1.058 3.28-3.438.072-3.437-.072-1.04-3.277L3.952 8.16l2.795-2.002 2.767-2.04Z" fill="url(#a)"/><path d="M9.514 4.119V0l9.474 6.879-3.913 1.277-5.56-4.037Z" fill="url(#b)"/><path d="M9.514 4.16V.041L0 6.92l3.954 1.236 5.56-3.996Z" fill="url(#c)"/><path d="m12.933 14.705 2.42 3.288L18.989 6.88l-3.913 1.277-2.142 6.549Z" fill="url(#d)"/><path d="M6.096 14.705 3.625 18h11.738l-2.43-3.295H6.096Z" fill="url(#e)"/><path d="M6.096 14.705 3.625 18 .04 6.92l3.913 1.236 2.142 6.549Z" fill="url(#f)"/><path d="M9.5 4.174C3.407 8.031 2.687 7.534.24 6.765L0 6.91l3.934 1.296L9.5 4.175Z" fill="#64DBFF"/><path opacity=".2" d="M4.846 12.38C3.349 15.18 1.216 10.507.336 7.82l1.631 5.134 1.68 5.038c.095-.96.287-4.894 2.446-3.31l-1.247-3.84c.115.999.048 1.44 0 1.536Z" fill="url(#g)"/><path opacity=".2" fill-rule="evenodd" clip-rule="evenodd" d="M17.108 12.512a7.389 7.389 0 0 1-9.105-11.37L9.548.048l9.404 6.861-1.844 5.603Z" fill="#74E4FF"/><path d="M14.826 5.95c-1.199-.052-4.239-1.088-5.326-1.824l5.566 4.031C15.737 6.67 16.793 6.574 19 6.909L11.131 1.2c3.023 2.496 5.422 4.825 3.695 4.75Z" fill="url(#h)"/><path fill-rule="evenodd" clip-rule="evenodd" d="m9.514 4 2.92 2.081 2.756 2.044-1.089 3.324-1.078 3.345-3.509.074-3.508-.074-1.06-3.34v-.002L3.838 8.124 6.69 6.08l2.823-2.08Zm.001.238L6.803 6.237l-2.738 1.96 1.063 3.197 1.02 3.211 3.366.071 3.368-.07 1.037-3.216 1.045-3.194-2.643-1.96-2.806-1.998Z" fill="url(#i)"/><path opacity=".1" d="M10.028 17.993c-2.457-1.42-.928-2.75.144-3.262h2.83l2.352 3.262h-5.326Z" fill="#fff"/><g filter="url(#j)"><path d="m14.97 6.334.127 1.504 1.504.127-1.504.127-.127 1.504-.127-1.504-1.505-.127 1.505-.127.127-1.504Z" fill="#fff"/></g><path d="m14.97 6.334.127 1.504 1.504.127-1.504.127-.127 1.504-.127-1.504-1.505-.127 1.505-.127.127-1.504Z" fill="#fff"/><path d="m14.97 5.854.177.007.177.021.174.036.17.05.167.062.16.077.154.088.147.101.137.113.128.123.118.133.107.142.095.15.083.158.07.163.056.169.042.172.029.176.014.177v.178l-.014.177-.029.175-.042.173-.057.169-.07.163-.082.158-.095.15-.107.142-.117.133-.129.123-.137.112-.147.101-.154.09-.16.075-.166.064-.171.049-.174.035-.177.022-.177.007-.178-.007-.176-.021-.174-.036-.171-.05-.166-.063-.16-.076-.155-.089-.146-.1-.138-.113-.128-.123-.118-.133-.107-.142-.095-.15-.082-.158-.07-.163-.056-.169-.043-.173-.028-.175-.014-.177v-.178l.014-.177.028-.176.043-.172.056-.169.07-.163.082-.158.095-.15.107-.142.118-.133.128-.123.138-.113.146-.1.154-.09.16-.076.167-.063.17-.05.175-.035.176-.021.178-.007Z" fill="#fff" fill-opacity=".17"/><defs><linearGradient id="a" x1="7.293" y1="17.13" x2="16.668" y2="4.069" gradientUnits="userSpaceOnUse"><stop offset=".02" stop-color="#2A67C4"/><stop offset=".349" stop-color="#2E3AB0"/><stop offset="1" stop-color="#79E8FF"/></linearGradient><linearGradient id="b" x1="9.174" y1="10.377" x2="7.395" y2="1.96" gradientUnits="userSpaceOnUse"><stop offset=".146" stop-color="#A5F0FF"/><stop offset="1" stop-color="#BAF3FF"/></linearGradient><linearGradient id="c" x1="1.585" y1="8.946" x2="-.562" y2="1.056" gradientUnits="userSpaceOnUse"><stop stop-color="#7CD0FF"/><stop offset="1" stop-color="#2354C0"/></linearGradient><linearGradient id="d" x1="13.872" y1="18.027" x2="10.914" y2="7.637" gradientUnits="userSpaceOnUse"><stop stop-color="#55C1F2"/><stop offset="1" stop-color="#2E3DB0"/></linearGradient><linearGradient id="e" x1="17.129" y1="16.938" x2="6.737" y2="22.187" gradientUnits="userSpaceOnUse"><stop stop-color="#64E4FF"/><stop offset=".63" stop-color="#458CD7"/><stop offset="1" stop-color="#458CD7"/></linearGradient><linearGradient id="f" x1="3.947" y1="13.891" x2="-.334" y2="11.519" gradientUnits="userSpaceOnUse"><stop stop-color="#5BB2EC"/><stop offset="1" stop-color="#48D5FF"/></linearGradient><linearGradient id="g" x1="5.47" y1="13.819" x2="1.727" y2="14.107" gradientUnits="userSpaceOnUse"><stop stop-color="#FBFEFF"/><stop offset="1" stop-color="#93E8FF" stop-opacity="0"/></linearGradient><linearGradient id="h" x1="14.634" y1="3.935" x2="13.722" y2="7.389" gradientUnits="userSpaceOnUse"><stop stop-color="#fff" stop-opacity=".36"/><stop offset="1" stop-color="#fff"/></linearGradient><linearGradient id="i" x1="15.282" y1="3.996" x2="5.201" y2="14.536" gradientUnits="userSpaceOnUse"><stop stop-color="#D7F8FF"/><stop offset=".177" stop-color="#52B5EC"/><stop offset=".432" stop-color="#CAF4FD"/><stop offset=".686" stop-color="#D4F4FB" stop-opacity="0"/></linearGradient><filter id="j" x="12.062" y="5.057" width="5.815" height="5.815" filterUnits="userSpaceOnUse" color-interpolation-filters="sRGB"><feFlood flood-opacity="0" result="BackgroundImageFix"/><feBlend in="SourceGraphic" in2="BackgroundImageFix" result="shape"/><feGaussianBlur stdDeviation=".638" result="effect1_foregroundBlur"/></filter></defs></svg>