<svg width="194" height="70" fill="none" xmlns="http://www.w3.org/2000/svg"><rect width="193.355" height="70" rx="35" fill="url(#a)"/><circle cx="37" cy="35" r="21" fill="#fff" fill-opacity=".1"/><circle cx="37" cy="35" r="16" fill="#fff" fill-opacity=".3"/><circle cx="37" cy="35" r="10" fill="#fff"/><path d="M80.2 13.61v32.52c0 1.32.22 2.26.66 2.82.44.56 1.18.84 2.22.84.6 0 1.1-.04 1.5-.12.4-.08.88-.2 1.44-.36l-.66 6.12c-.72.44-1.66.8-2.82 1.08s-2.3.42-3.42.42c-3.2 0-5.52-.74-6.96-2.22-1.44-1.48-2.16-3.9-2.16-7.26V13.61h10.2ZM94.849 22.85c-2.08 0-3.6-.38-4.56-1.14-.92-.8-1.38-2.04-1.38-3.72 0-1.72.46-2.96 1.38-3.72.96-.8 2.48-1.2 4.56-1.2 2.04 0 3.54.4 4.5 1.2.96.76 1.44 2 1.44 3.72 0 1.68-.48 2.92-1.44 3.72-.96.76-2.46 1.14-4.5 1.14Zm5.1 3.48v30h-10.2v-30h10.2ZM126.71 26.33h10.56l-10.8 30h-12.18l-10.8-30h10.74l6.18 22.86 6.3-22.86ZM154.955 56.93c-5 0-8.96-1.36-11.88-4.08-2.88-2.72-4.32-6.56-4.32-11.52 0-3.28.66-6.08 1.98-8.4 1.36-2.36 3.2-4.14 5.52-5.34 2.36-1.24 5.1-1.86 8.22-1.86 3.16 0 5.84.62 8.04 1.86 2.24 1.2 3.94 2.88 5.1 5.04 1.16 2.12 1.74 4.56 1.74 7.32 0 .76-.04 1.5-.12 2.22-.04.68-.08 1.26-.12 1.74h-20.46c.28 2.08.96 3.58 2.04 4.5 1.08.88 2.5 1.32 4.26 1.32 1.52 0 2.72-.3 3.6-.9.92-.6 1.6-1.44 2.04-2.52l8.16 2.7c-.56 1.72-1.54 3.18-2.94 4.38-1.36 1.16-3 2.04-4.92 2.64-1.88.6-3.86.9-5.94.9Zm-.48-24.06c-3.24 0-5.16 1.86-5.76 5.58h10.98c-.44-3.72-2.18-5.58-5.22-5.58Z" fill="#fff"/><defs><linearGradient id="a" x1="96.678" y1="0" x2="96.678" y2="70" gradientUnits="userSpaceOnUse"><stop stop-color="#6112B0"/><stop offset="1" stop-color="#6112B0" stop-opacity=".35"/></linearGradient></defs></svg>