<svg width="81" height="80" fill="none" xmlns="http://www.w3.org/2000/svg"><g filter="url(#b)" clip-path="url(#a)"><path d="M80.43 18.579c-.315-14.89-.334-11.671-.028-16.312a.5.5 0 0 0-.464-.532C57.767.22 56.927.045 55.208.045 24.964.041 40.843-.454.47 1.928a.5.5 0 0 0-.47.525c2.603 49.92 2.508 41.776 1.178 75.045a.5.5 0 0 0 .385.506c3.021.715 2.486.434 9.534.439.012.003 13.209-1.438 13.22-1.44C24.38 77.016 42.568 80 42.63 80c.014 0 .028 0 .042-.002 21.315-1.786 15.205-1.354 28.957-2.117l8.074 1.634a.5.5 0 0 0 .599-.496c-.175-16.256.128-60.44.128-60.44Zm-32.776-1.185.253-.064 5.747-1.296c2.944-.737 3.38-.917 5.898-2.101 1.164.403 4.353 2.168 5.161 3.181.534.67.5.82.331 1.538a18.335 18.335 0 0 0-.114.522l-1.264 9.89c-1.25.046-1.355-.05-1.7-.369a4.719 4.719 0 0 0-.635-.505c-1.901-1.276-8.125-5.881-10.09-7.466l-3.863-3.104.031-.03a.54.54 0 0 0 .104-.151c.02-.015.096-.034.141-.045Zm8.956 49.795c-.113-.113-48.294-51.191-48.33-51.262l4.21-3.229 58.823 38.95c-.486 1.394-.68 2.992-.972 4.32-1.034 4.688-2.363 6.74-4.44 11.194-2.975.118-9.086.095-9.291.027Zm-43.83-13.82c.542-1.3 1.287-3.395 1.913-4.455 3.076 1.922 15.095 13.998 16.14 15.63-.578.214-3.065.584-7.197 2.234-2.618 1.044-5.09 2.035-7.477 1.225-.238-.08-.873-.62-1.814-1.432-1.72-1.484-3.276-2.553-4.181-3.087-1.544-.912-1.304-.72 2.617-10.114Z" fill="#EA473B"/><path d="M6.149 53.476c-.378-19.458.044-8.859-2.192-51.753L.47 1.93a.5.5 0 0 0-.47.525L1.858 38.07c.369 19.025.47 10.688-.679 39.43a.5.5 0 0 0 .385.505c1.705.404 2.414.494 3.613.494-.037-.128-.079 1.29.973-25.023ZM33.336 65.643s2.039-.702.363-2.542c-6.841-7.63-11.009-10.394-14.97-14.74-1.655-1.792-4.036.553-4.036.553 15.48 13.76 12.38 11.769 15.108 14.404.363.35.648.625 1.033 1.225-.072.026-.388.106-.826.217-6.44 1.625-7.407 2.728-10.283 3.345 2.684 2.188 7.417-.482 10.79-1.644.808-.277 1.876-.572 2.821-.818ZM74.242 47.597 18.005 11.733c-1.884-1.201-3.916-.623-5.515.965l58.823 38.95c-.486 1.394-.68 2.992-.972 4.32-1.034 4.688-2.363 6.74-4.44 11.194 0 0 5.327 1.024 6.95-2.581 3.812-8.111 2.932-9.641 3.84-12.202-.108-1.445.093-3.16-2.45-4.782ZM64.936 19.136a.59.59 0 0 0-.006.038l-1.264 9.89s5 3.088 5.629-1.99v-.005l1.035-8.36a.523.523 0 0 1 .006-.039c.04-.192.078-.354.11-.495.172-.734.208-.886-.338-1.572-.574-.72-3.147-2.62-5.063-3.85-1.81-1.214-3.958.245-3.958.245-.536.41-1.015.77-1.535.935 1.314.71 4.643 2.532 5.161 3.181.534.67.5.82.331 1.538-.032.138-.07.297-.108.484Z" fill="#D82B27"/></g><defs><clipPath id="a"><path fill="#fff" d="M0 0h80.43v80H0z"/></clipPath><filter id="b" x="-80" y="-13" width="240.43" height="240" filterUnits="userSpaceOnUse" color-interpolation-filters="sRGB"><feFlood flood-opacity="0" result="BackgroundImageFix"/><feColorMatrix in="SourceAlpha" values="0 0 0 0 0 0 0 0 0 0 0 0 0 0 0 0 0 0 127 0" result="hardAlpha"/><feOffset dy="2.301"/><feGaussianBlur stdDeviation="1.374"/><feColorMatrix values="0 0 0 0 0 0 0 0 0 0 0 0 0 0 0 0 0 0 0.108506 0"/><feBlend in2="BackgroundImageFix" result="effect1_dropShadow"/><feColorMatrix in="SourceAlpha" values="0 0 0 0 0 0 0 0 0 0 0 0 0 0 0 0 0 0 127 0" result="hardAlpha"/><feOffset dy="5.82"/><feGaussianBlur stdDeviation="3.475"/><feColorMatrix values="0 0 0 0 0 0 0 0 0 0 0 0 0 0 0 0 0 0 0.155298 0"/><feBlend in2="effect1_dropShadow" result="effect2_dropShadow"/><feColorMatrix in="SourceAlpha" values="0 0 0 0 0 0 0 0 0 0 0 0 0 0 0 0 0 0 127 0" result="hardAlpha"/><feOffset dy="11.873"/><feGaussianBlur stdDeviation="7.088"/><feColorMatrix values="0 0 0 0 0 0 0 0 0 0 0 0 0 0 0 0 0 0 0.194702 0"/><feBlend in2="effect2_dropShadow" result="effect3_dropShadow"/><feColorMatrix in="SourceAlpha" values="0 0 0 0 0 0 0 0 0 0 0 0 0 0 0 0 0 0 127 0" result="hardAlpha"/><feOffset dy="24.456"/><feGaussianBlur stdDeviation="14.601"/><feColorMatrix values="0 0 0 0 0 0 0 0 0 0 0 0 0 0 0 0 0 0 0.241494 0"/><feBlend in2="effect3_dropShadow" result="effect4_dropShadow"/><feColorMatrix in="SourceAlpha" values="0 0 0 0 0 0 0 0 0 0 0 0 0 0 0 0 0 0 127 0" result="hardAlpha"/><feOffset dy="67"/><feGaussianBlur stdDeviation="40"/><feColorMatrix values="0 0 0 0 0 0 0 0 0 0 0 0 0 0 0 0 0 0 0.35 0"/><feBlend in2="effect4_dropShadow" result="effect5_dropShadow"/><feBlend in="SourceGraphic" in2="effect5_dropShadow" result="shape"/></filter></defs></svg>