<svg width="32" height="32" fill="none" xmlns="http://www.w3.org/2000/svg"><g filter="url(#a)"><path fill-rule="evenodd" clip-rule="evenodd" d="M22.91 8.606C21.312 6.87 18.95 6 15.817 6H7a1 1 0 0 0-1 1v18a1 1 0 0 0 1 1h8.818c3.132 0 5.495-.869 7.091-2.606 1.596-1.758 2.394-4.222 2.394-7.394 0-3.192-.798-5.657-2.394-7.394Zm-3.02 8.16-7.806 5.648 1.836-4.984-4.132-1.994 7.805-5.648-1.836 4.984 4.132 1.993Z" fill="#fff"/><path d="M15.818 6.032c3.126 0 5.48.867 7.068 2.596 1.588 1.73 2.385 4.185 2.385 7.372 0 3.166-.797 5.622-2.386 7.372-1.588 1.73-3.941 2.596-7.067 2.596H6.96a.927.927 0 0 1-.927-.927V6.959c0-.512.415-.927.927-.927h8.86Z" stroke="url(#b)" stroke-opacity=".2" stroke-width=".064"/></g><defs><linearGradient id="b" x1="14.207" y1="6" x2="14.207" y2="26.202" gradientUnits="userSpaceOnUse"><stop stop-color="#fff" stop-opacity=".53"/><stop offset="1" stop-color="#fff"/></linearGradient><filter id="a" x="0" y="0" width="31.303" height="32" filterUnits="userSpaceOnUse" color-interpolation-filters="sRGB"><feFlood flood-opacity="0" result="BackgroundImageFix"/><feColorMatrix in="SourceAlpha" values="0 0 0 0 0 0 0 0 0 0 0 0 0 0 0 0 0 0 127 0" result="hardAlpha"/><feOffset/><feGaussianBlur stdDeviation="3"/><feComposite in2="hardAlpha" operator="out"/><feColorMatrix values="0 0 0 0 1 0 0 0 0 1 0 0 0 0 1 0 0 0 0.7 0"/><feBlend in2="BackgroundImageFix" result="effect1_dropShadow"/><feBlend in="SourceGraphic" in2="effect1_dropShadow" result="shape"/></filter></defs></svg>