<svg width="32" height="19" fill="none" xmlns="http://www.w3.org/2000/svg"><path d="M23.061 18.56a1.5 1.5 0 1 1-2.121-2.12l2.121 2.12Zm6.94-9.06 1.06-1.06a1.5 1.5 0 0 1 0 2.12l-1.06-1.06ZM20.94 2.56A1.5 1.5 0 1 1 23.06.44L20.94 2.56Zm0 13.88 8-8 2.121 2.12-8 8-2.121-2.12Zm8-5.88-8-8L23.06.44l8 8-2.121 2.12Z" fill="#FF9254"/><path opacity=".5" d="M13.06 18.56a1.5 1.5 0 1 1-2.12-2.12l2.12 2.12ZM20 9.5l1.061-1.06a1.5 1.5 0 0 1 0 2.12l-1.06-1.06Zm-9.06-6.94A1.5 1.5 0 1 1 13.06.44l-2.12 2.12Zm0 13.88 8-8 2.121 2.12-8 8-2.121-2.12Zm8-5.88-8-8L13.06.44l8.001 8-2.121 2.12Z" fill="#FF9254"/><path opacity=".2" d="M3.06 18.56a1.5 1.5 0 1 1-2.12-2.12l2.12 2.12ZM10 9.5l1.06-1.06a1.5 1.5 0 0 1 0 2.12L10 9.5ZM.94 2.56A1.5 1.5 0 0 1 3.06.44L.94 2.56Zm0 13.88 8-8 2.12 2.12-8 8-2.12-2.12Zm8-5.88-8-8L3.06.44l8 8-2.12 2.12Z" fill="#FF9254"/></svg>