<svg width="228" height="109" fill="none" xmlns="http://www.w3.org/2000/svg"><g filter="url(#a)"><g filter="url(#b)"><path d="M112.563 19.637c.773-1.516 2.938-1.516 3.711 0l5.416 10.614a2.084 2.084 0 0 0 1.529 1.11l11.769 1.872c1.68.267 2.349 2.326 1.146 3.53l-8.421 8.43a2.082 2.082 0 0 0-.584 1.798l1.857 11.77c.266 1.681-1.486 2.954-3.002 2.182l-10.621-5.403a2.083 2.083 0 0 0-1.889 0l-10.621 5.403c-1.517.772-3.268-.5-3.003-2.181l1.857-11.771a2.082 2.082 0 0 0-.584-1.797l-8.421-8.431c-1.202-1.204-.533-3.263 1.147-3.53l11.769-1.871a2.084 2.084 0 0 0 1.528-1.11l5.417-10.615Z" fill="#6112B0"/></g><path d="M112.563 19.637c.773-1.516 2.938-1.516 3.711 0l5.416 10.614a2.084 2.084 0 0 0 1.529 1.11l11.769 1.872c1.68.267 2.349 2.326 1.146 3.53l-8.421 8.43a2.082 2.082 0 0 0-.584 1.798l1.857 11.77c.266 1.681-1.486 2.954-3.002 2.182l-10.621-5.403a2.083 2.083 0 0 0-1.889 0l-10.621 5.403c-1.517.772-3.268-.5-3.003-2.181l1.857-11.771a2.082 2.082 0 0 0-.584-1.797l-8.421-8.431c-1.202-1.204-.533-3.263 1.147-3.53l11.769-1.871a2.084 2.084 0 0 0 1.528-1.11l5.417-10.615Z" fill="url(#c)"/><path d="M112.562 19.637c.774-1.515 2.939-1.515 3.712 0l5.416 10.615a2.084 2.084 0 0 0 1.529 1.11l11.769 1.872c1.679.267 2.349 2.326 1.146 3.53l-8.421 8.43a2.082 2.082 0 0 0-.584 1.798l1.857 11.77c.265 1.68-1.486 2.953-3.002 2.182l-10.621-5.404a2.085 2.085 0 0 0-1.89 0l-10.621 5.404c-1.516.771-3.267-.501-3.002-2.181l1.857-11.771a2.082 2.082 0 0 0-.584-1.797l-8.421-8.432c-1.202-1.203-.533-3.262 1.147-3.53l11.769-1.87a2.084 2.084 0 0 0 1.528-1.111l5.416-10.615Z" fill="url(#d)"/><path d="M112.562 19.637c.774-1.515 2.939-1.515 3.712 0l5.416 10.615a2.084 2.084 0 0 0 1.529 1.11l11.769 1.872c1.679.267 2.349 2.326 1.146 3.53l-8.421 8.43a2.082 2.082 0 0 0-.584 1.798l1.857 11.77c.265 1.68-1.486 2.953-3.002 2.182l-10.621-5.404a2.085 2.085 0 0 0-1.89 0l-10.621 5.404c-1.516.771-3.267-.501-3.002-2.181l1.857-11.771a2.082 2.082 0 0 0-.584-1.797l-8.421-8.432c-1.202-1.203-.533-3.262 1.147-3.53l11.769-1.87a2.084 2.084 0 0 0 1.528-1.111l5.416-10.615Z" fill="url(#e)"/><path fill-rule="evenodd" clip-rule="evenodd" d="m121.072 30.568-5.417-10.615c-.515-1.01-1.959-1.01-2.474 0l-5.416 10.615a2.778 2.778 0 0 1-2.038 1.48l-11.77 1.871c-1.12.179-1.565 1.551-.764 2.354l8.422 8.431a2.78 2.78 0 0 1 .778 2.396l-1.857 11.77c-.177 1.121.991 1.97 2.002 1.455l10.621-5.404a2.777 2.777 0 0 1 2.519 0l10.621 5.404c1.011.514 2.178-.334 2.001-1.454L126.443 47.1a2.778 2.778 0 0 1 .779-2.396l8.421-8.431c.801-.803.355-2.175-.765-2.354l-11.768-1.87a2.776 2.776 0 0 1-2.038-1.481Zm-4.798-10.93c-.773-1.516-2.938-1.516-3.712 0l-5.416 10.614a2.084 2.084 0 0 1-1.528 1.11l-11.77 1.872c-1.68.267-2.348 2.326-1.146 3.53l8.421 8.43c.471.472.688 1.14.584 1.798l-1.857 11.77c-.265 1.68 1.486 2.953 3.002 2.182l10.621-5.404a2.085 2.085 0 0 1 1.89 0l10.621 5.404c1.516.771 3.267-.501 3.002-2.181l-1.857-11.771a2.082 2.082 0 0 1 .584-1.797l8.421-8.432c1.202-1.203.533-3.262-1.146-3.53l-11.769-1.87a2.084 2.084 0 0 1-1.529-1.111l-5.416-10.615Z" fill="url(#f)"/><path d="M113.517 30.058a1.041 1.041 0 0 1 1.803 0l3.172 5.483c.148.255.396.436.684.497l6.195 1.323a1.042 1.042 0 0 1 .557 1.715l-4.234 4.711a1.04 1.04 0 0 0-.261.804l.656 6.3a1.042 1.042 0 0 1-1.459 1.06l-5.789-2.57a1.042 1.042 0 0 0-.846 0l-5.789 2.57a1.042 1.042 0 0 1-1.459-1.06l.657-6.3a1.044 1.044 0 0 0-.262-.804l-4.234-4.711a1.042 1.042 0 0 1 .557-1.715l6.195-1.323a1.04 1.04 0 0 0 .684-.497l3.173-5.483Z" fill="url(#g)"/><path d="M127.643 38.22c-12.568 11.876-23.792 6.623-27.833 2.512-6.147-9.135 7.342-1.827 19.295-5.024 9.562-2.558 9.676.609 8.538 2.512Z" fill="url(#h)"/><path fill-rule="evenodd" clip-rule="evenodd" d="M112.994 22a.52.52 0 0 1 .229.7l-1.472 2.91a.52.52 0 0 1-.93-.47l1.473-2.91a.52.52 0 0 1 .7-.23Z" fill="#9593F6"/><circle cx="94.975" cy="34.577" r=".521" fill="#9593F6"/><circle cx="110.599" cy="26.59" r=".521" fill="#9593F6"/><path d="M109.444 31.967c-3.951 5.596-2.539 8.642-1.339 9.466 3.644 1.645 10.283-8.059 10.732-10.627.449-2.568-4.455-5.834-9.393 1.16Z" fill="url(#i)" fill-opacity=".6"/></g><g filter="url(#j)"><g filter="url(#k)"><path d="M200.925 49.734c1.567-.664 3.225.728 2.843 2.386l-2.673 11.612c-.15.65.02 1.33.457 1.834l7.812 8.998c1.116 1.284.305 3.292-1.39 3.44l-11.871 1.047a2.083 2.083 0 0 0-1.602 1l-6.143 10.212c-.877 1.457-3.037 1.306-3.703-.26l-4.663-10.966a2.081 2.081 0 0 0-1.447-1.214l-11.609-2.688c-1.658-.383-2.181-2.484-.898-3.6l8.989-7.824a2.083 2.083 0 0 0 .707-1.752l-1.031-11.872c-.147-1.695 1.689-2.842 3.147-1.967l10.218 6.132a2.084 2.084 0 0 0 1.885.132l10.972-4.65Z" fill="#6112B0"/></g><path d="M200.925 49.734c1.567-.664 3.225.728 2.843 2.386l-2.673 11.612c-.15.65.02 1.33.457 1.834l7.812 8.998c1.116 1.284.305 3.292-1.39 3.44l-11.871 1.047a2.083 2.083 0 0 0-1.602 1l-6.143 10.212c-.877 1.457-3.037 1.306-3.703-.26l-4.663-10.966a2.081 2.081 0 0 0-1.447-1.214l-11.609-2.688c-1.658-.383-2.181-2.484-.898-3.6l8.989-7.824a2.083 2.083 0 0 0 .707-1.752l-1.031-11.872c-.147-1.695 1.689-2.842 3.147-1.967l10.218 6.132a2.084 2.084 0 0 0 1.885.132l10.972-4.65Z" fill="url(#l)"/><path d="M200.925 49.734c1.566-.664 3.225.728 2.843 2.385l-2.674 11.613c-.149.65.021 1.33.457 1.834l7.813 8.998c1.115 1.284.304 3.292-1.39 3.44l-11.871 1.046a2.083 2.083 0 0 0-1.602 1.002l-6.144 10.21c-.877 1.458-3.036 1.307-3.702-.258l-4.663-10.967a2.081 2.081 0 0 0-1.447-1.214l-11.61-2.688c-1.657-.384-2.181-2.484-.898-3.601l8.989-7.823a2.08 2.08 0 0 0 .708-1.752l-1.031-11.872c-.148-1.695 1.688-2.842 3.147-1.967l10.218 6.132a2.084 2.084 0 0 0 1.885.131l10.972-4.65Z" fill="url(#m)"/><path d="M200.925 49.734c1.566-.664 3.225.728 2.843 2.385l-2.674 11.613c-.149.65.021 1.33.457 1.834l7.813 8.998c1.115 1.284.304 3.292-1.39 3.44l-11.871 1.046a2.083 2.083 0 0 0-1.602 1.002l-6.144 10.21c-.877 1.458-3.036 1.307-3.702-.258l-4.663-10.967a2.081 2.081 0 0 0-1.447-1.214l-11.61-2.688c-1.657-.384-2.181-2.484-.898-3.601l8.989-7.823a2.08 2.08 0 0 0 .708-1.752l-1.031-11.872c-.148-1.695 1.688-2.842 3.147-1.967l10.218 6.132a2.084 2.084 0 0 0 1.885.131l10.972-4.65Z" fill="url(#n)"/><path fill-rule="evenodd" clip-rule="evenodd" d="m200.418 63.576 2.673-11.612c.255-1.105-.851-2.033-1.895-1.59l-10.972 4.649a2.778 2.778 0 0 1-2.513-.176l-10.218-6.131c-.973-.584-2.197.181-2.099 1.31l1.032 11.873a2.777 2.777 0 0 1-.944 2.335l-8.989 7.824c-.855.744-.506 2.145.599 2.4l11.61 2.688c.865.2 1.582.802 1.929 1.62l4.663 10.966c.444 1.044 1.884 1.144 2.468.173l6.144-10.211a2.778 2.778 0 0 1 2.136-1.335l11.871-1.046c1.13-.1 1.67-1.438.927-2.294l-7.813-8.998a2.776 2.776 0 0 1-.609-2.445Zm3.35-11.457c.382-1.657-1.277-3.049-2.843-2.385l-10.972 4.65c-.613.26-1.314.21-1.885-.132L177.85 48.12c-1.459-.875-3.295.272-3.147 1.967l1.031 11.872a2.08 2.08 0 0 1-.708 1.752l-8.989 7.823c-1.283 1.117-.759 3.217.898 3.601l11.61 2.688c.649.15 1.187.601 1.447 1.214l4.663 10.967c.666 1.565 2.825 1.716 3.702.259l6.144-10.211c.343-.571.939-.943 1.602-1.002l11.871-1.045c1.694-.15 2.505-2.157 1.39-3.441l-7.813-8.998a2.087 2.087 0 0 1-.457-1.834l2.674-11.613Z" fill="url(#o)"/><path d="M194.957 58.33c.753-.272 1.52.371 1.382 1.16l-1.095 6.24c-.05.29.024.587.205.82l3.895 4.995c.493.632.118 1.56-.675 1.672l-6.272.887a1.041 1.041 0 0 0-.717.448l-3.547 5.248a1.042 1.042 0 0 1-1.799-.125l-2.782-5.691a1.044 1.044 0 0 0-.648-.544l-6.087-1.751a1.042 1.042 0 0 1-.437-1.75l4.553-4.404a1.04 1.04 0 0 0 .317-.784l-.216-6.331c-.027-.8.822-1.331 1.53-.956l5.595 2.969c.261.138.567.16.844.059l5.954-2.161Z" fill="url(#p)"/><path d="M200.532 73.662c-17.261 1.02-22.482-10.219-22.936-15.966 1.164-10.949 6.799 3.32 18.011 8.554 8.969 4.187 7.021 6.686 4.925 7.412Z" fill="url(#q)"/><path fill-rule="evenodd" clip-rule="evenodd" d="M199.736 51.822a.52.52 0 0 1-.274.683l-2.998 1.283a.52.52 0 1 1-.41-.957l2.999-1.284a.52.52 0 0 1 .683.275Z" fill="#9593F6"/><circle cx="177.849" cy="49.872" r=".521" transform="rotate(40 177.849 49.872)" fill="#9593F6"/><circle cx="194.951" cy="53.798" r=".521" transform="rotate(40 194.951 53.798)" fill="#9593F6"/><path d="M190.611 57.175c-6.624 1.748-7.501 4.99-7.111 6.392 1.734 3.601 13.057.435 15.052-1.243 1.995-1.678.338-7.333-7.941-5.149Z" fill="url(#r)" fill-opacity=".6"/></g><g filter="url(#s)"><g filter="url(#t)"><path d="M24.232 52.192c-.382-1.658 1.277-3.05 2.843-2.386l10.972 4.65c.613.26 1.314.211 1.885-.132l10.218-6.131c1.458-.875 3.294.272 3.147 1.967l-1.031 11.872a2.083 2.083 0 0 0 .707 1.751l8.99 7.824c1.282 1.117.759 3.217-.898 3.6l-11.61 2.688a2.083 2.083 0 0 0-1.447 1.215l-4.663 10.966c-.666 1.566-2.825 1.717-3.703.26L33.5 80.123a2.083 2.083 0 0 0-1.602-1l-11.871-1.046c-1.695-.15-2.506-2.157-1.39-3.442l7.812-8.998a2.084 2.084 0 0 0 .457-1.833l-2.673-11.613Z" fill="#6112B0"/></g><path d="M24.232 52.192c-.382-1.658 1.277-3.05 2.843-2.386l10.972 4.65c.613.26 1.314.211 1.885-.132l10.218-6.131c1.458-.875 3.294.272 3.147 1.967l-1.031 11.872a2.083 2.083 0 0 0 .707 1.751l8.99 7.824c1.282 1.117.759 3.217-.898 3.6l-11.61 2.688a2.083 2.083 0 0 0-1.447 1.215l-4.663 10.966c-.666 1.566-2.825 1.717-3.703.26L33.5 80.123a2.083 2.083 0 0 0-1.602-1l-11.871-1.046c-1.695-.15-2.506-2.157-1.39-3.442l7.812-8.998a2.084 2.084 0 0 0 .457-1.833l-2.673-11.613Z" fill="url(#u)"/><path d="M24.232 52.193c-.382-1.658 1.277-3.05 2.843-2.386l10.972 4.65c.613.26 1.314.21 1.885-.132l10.218-6.131c1.459-.876 3.294.272 3.147 1.966l-1.031 11.872a2.083 2.083 0 0 0 .708 1.752l8.989 7.823c1.283 1.117.759 3.218-.898 3.602l-11.61 2.687a2.083 2.083 0 0 0-1.447 1.215l-4.663 10.966c-.666 1.566-2.825 1.716-3.702.259l-6.144-10.21a2.083 2.083 0 0 0-1.602-1.002l-11.87-1.046c-1.695-.15-2.506-2.156-1.391-3.44l7.813-9a2.083 2.083 0 0 0 .456-1.832l-2.673-11.613Z" fill="url(#v)"/><path d="M24.232 52.193c-.382-1.658 1.277-3.05 2.843-2.386l10.972 4.65c.613.26 1.314.21 1.885-.132l10.218-6.131c1.459-.876 3.294.272 3.147 1.966l-1.031 11.872a2.083 2.083 0 0 0 .708 1.752l8.989 7.823c1.283 1.117.759 3.218-.898 3.602l-11.61 2.687a2.083 2.083 0 0 0-1.447 1.215l-4.663 10.966c-.666 1.566-2.825 1.716-3.702.259l-6.144-10.21a2.083 2.083 0 0 0-1.602-1.002l-11.87-1.046c-1.695-.15-2.506-2.156-1.391-3.44l7.813-9a2.083 2.083 0 0 0 .456-1.832l-2.673-11.613Z" fill="url(#w)"/><path fill-rule="evenodd" clip-rule="evenodd" d="m37.776 55.096-10.972-4.65c-1.044-.442-2.15.486-1.895 1.591l2.673 11.613c.2.865-.027 1.774-.61 2.444l-7.812 8.998c-.743.857-.203 2.195.927 2.294l11.87 1.046a2.778 2.778 0 0 1 2.137 1.335l6.144 10.211c.584.972 2.024.871 2.468-.173l4.663-10.966a2.778 2.778 0 0 1 1.93-1.62l11.609-2.687c1.105-.256 1.454-1.656.599-2.4l-8.99-7.824a2.778 2.778 0 0 1-.943-2.336L52.606 50.1c.098-1.13-1.126-1.894-2.099-1.31L40.29 54.92a2.778 2.778 0 0 1-2.513.176Zm-10.701-5.289c-1.566-.663-3.225.728-2.843 2.386l2.674 11.613c.149.649-.02 1.33-.457 1.833l-7.813 8.998c-1.115 1.285-.304 3.292 1.39 3.441l11.87 1.046c.664.058 1.26.43 1.603 1.001l6.144 10.211c.877 1.457 3.036 1.306 3.702-.259l4.663-10.966a2.083 2.083 0 0 1 1.447-1.215l11.61-2.688c1.657-.383 2.18-2.484.898-3.6l-8.99-7.824a2.084 2.084 0 0 1-.707-1.752l1.031-11.872c.148-1.694-1.688-2.842-3.147-1.966l-10.218 6.131a2.083 2.083 0 0 1-1.885.132l-10.972-4.65Z" fill="url(#x)"/><path d="M31.661 59.563a1.042 1.042 0 0 1 1.382-1.16l5.954 2.162c.277.1.584.079.844-.06l5.595-2.968a1.042 1.042 0 0 1 1.53.955l-.216 6.331c-.01.295.105.58.317.784l4.553 4.405a1.042 1.042 0 0 1-.436 1.75l-6.088 1.75a1.042 1.042 0 0 0-.648.544l-2.782 5.691c-.352.72-1.35.79-1.799.126l-3.547-5.248a1.042 1.042 0 0 0-.717-.448l-6.272-.888a1.042 1.042 0 0 1-.675-1.672l3.895-4.995c.181-.232.255-.53.205-.82l-1.095-6.24Z" fill="url(#y)"/><path d="M47.728 56.735C45.735 73.91 33.76 77.1 28.022 76.55c-10.58-3.047 4.45-6.12 11.552-16.252 5.68-8.106 7.803-5.753 8.154-3.563Z" fill="url(#z)"/><path fill-rule="evenodd" clip-rule="evenodd" d="M26.081 53.725a.52.52 0 0 1 .626.388l.743 3.176a.52.52 0 0 1-1.015.238l-.742-3.177a.52.52 0 0 1 .388-.625Z" fill="#9593F6"/><circle cx="20.361" cy="74.941" r=".521" transform="rotate(-40 20.361 74.941)" fill="#9593F6"/><circle cx="27.197" cy="58.781" r=".521" transform="rotate(-40 27.197 58.781)" fill="#9593F6"/><path d="M29.769 63.642c.57 6.826 3.61 8.253 5.059 8.113 3.848-1.082 2.697-12.784 1.39-15.04-1.306-2.256-7.163-1.606-6.45 6.927Z" fill="url(#A)" fill-opacity=".6"/></g><defs><linearGradient id="l" x1="204.684" y1="48.141" x2="184.692" y2="90.062" gradientUnits="userSpaceOnUse"><stop stop-color="#8470BE" stop-opacity="0"/><stop offset="1" stop-color="#7277FF" stop-opacity=".63"/></linearGradient><linearGradient id="A" x1="31.44" y1="63.217" x2="37.77" y2="63.587" gradientUnits="userSpaceOnUse"><stop offset=".224" stop-color="#DCDBFF" stop-opacity=".35"/><stop offset="1" stop-color="#C4C4C4" stop-opacity="0"/></linearGradient><linearGradient id="z" x1="36.154" y1="65.254" x2="41.297" y2="71.651" gradientUnits="userSpaceOnUse"><stop stop-color="#C4C4C4" stop-opacity="0"/><stop offset=".732" stop-color="#DBF6FF" stop-opacity=".46"/></linearGradient><linearGradient id="y" x1="31.35" y1="57.789" x2="45.926" y2="75.7" gradientUnits="userSpaceOnUse"><stop stop-color="#9BA5FF"/><stop offset=".277" stop-color="#BB9BFF" stop-opacity=".51"/><stop offset="1" stop-color="#D5CDE6" stop-opacity=".15"/></linearGradient><linearGradient id="x" x1="56.805" y1="65.439" x2="24.504" y2="64.215" gradientUnits="userSpaceOnUse"><stop stop-color="#6112B0" stop-opacity=".6"/><stop offset=".219" stop-color="#5965D3" stop-opacity="0"/><stop offset=".491" stop-color="#6547DB" stop-opacity=".56"/><stop offset=".733" stop-color="#7F46DC"/><stop offset="1" stop-color="#fff" stop-opacity="0"/><stop offset="1" stop-color="#E5BAFF" stop-opacity="0"/><stop offset="1" stop-color="#7123A0" stop-opacity="0"/></linearGradient><linearGradient id="v" x1="23.316" y1="48.214" x2="61.129" y2="75.182" gradientUnits="userSpaceOnUse"><stop stop-color="#708FBE" stop-opacity="0"/><stop offset="1" stop-color="#7280FF" stop-opacity=".63"/></linearGradient><linearGradient id="c" x1="114.418" y1="16" x2="126.05" y2="60.964" gradientUnits="userSpaceOnUse"><stop stop-color="#8470BE" stop-opacity="0"/><stop offset="1" stop-color="#7277FF" stop-opacity=".63"/></linearGradient><linearGradient id="d" x1="114.418" y1="16.001" x2="126.05" y2="60.965" gradientUnits="userSpaceOnUse"><stop stop-color="#708FBE" stop-opacity="0"/><stop offset="1" stop-color="#7280FF" stop-opacity=".63"/></linearGradient><linearGradient id="u" x1="23.316" y1="48.214" x2="61.128" y2="75.181" gradientUnits="userSpaceOnUse"><stop stop-color="#8470BE" stop-opacity="0"/><stop offset="1" stop-color="#7277FF" stop-opacity=".63"/></linearGradient><linearGradient id="f" x1="129.001" y1="50.722" x2="105.043" y2="29.021" gradientUnits="userSpaceOnUse"><stop stop-color="#6112B0" stop-opacity=".6"/><stop offset=".219" stop-color="#5965D3" stop-opacity="0"/><stop offset=".491" stop-color="#6547DB" stop-opacity=".56"/><stop offset=".733" stop-color="#7F46DC"/><stop offset="1" stop-color="#fff" stop-opacity="0"/><stop offset="1" stop-color="#E5BAFF" stop-opacity="0"/><stop offset="1" stop-color="#7123A0" stop-opacity="0"/></linearGradient><linearGradient id="g" x1="114.418" y1="28.5" x2="114.071" y2="51.59" gradientUnits="userSpaceOnUse"><stop stop-color="#9BA5FF"/><stop offset=".277" stop-color="#BB9BFF" stop-opacity=".51"/><stop offset="1" stop-color="#D5CDE6" stop-opacity=".15"/></linearGradient><linearGradient id="h" x1="113.299" y1="37.306" x2="113.127" y2="45.512" gradientUnits="userSpaceOnUse"><stop stop-color="#C4C4C4" stop-opacity="0"/><stop offset=".732" stop-color="#DBF6FF" stop-opacity=".46"/></linearGradient><linearGradient id="i" x1="110.998" y1="32.715" x2="115.609" y2="37.067" gradientUnits="userSpaceOnUse"><stop offset=".224" stop-color="#DCDBFF" stop-opacity=".35"/><stop offset="1" stop-color="#C4C4C4" stop-opacity="0"/></linearGradient><linearGradient id="r" x1="191.32" y1="58.748" x2="192.055" y2="65.046" gradientUnits="userSpaceOnUse"><stop offset=".224" stop-color="#DCDBFF" stop-opacity=".35"/><stop offset="1" stop-color="#C4C4C4" stop-opacity="0"/></linearGradient><linearGradient id="m" x1="204.684" y1="48.141" x2="184.692" y2="90.062" gradientUnits="userSpaceOnUse"><stop stop-color="#708FBE" stop-opacity="0"/><stop offset="1" stop-color="#7280FF" stop-opacity=".63"/></linearGradient><linearGradient id="q" x1="190.132" y1="63.743" x2="184.726" y2="69.918" gradientUnits="userSpaceOnUse"><stop stop-color="#C4C4C4" stop-opacity="0"/><stop offset=".732" stop-color="#DBF6FF" stop-opacity=".46"/></linearGradient><linearGradient id="o" x1="193.537" y1="84.113" x2="189.133" y2="52.089" gradientUnits="userSpaceOnUse"><stop stop-color="#6112B0" stop-opacity=".6"/><stop offset=".219" stop-color="#5965D3" stop-opacity="0"/><stop offset=".491" stop-color="#6547DB" stop-opacity=".56"/><stop offset=".733" stop-color="#7F46DC"/><stop offset="1" stop-color="#fff" stop-opacity="0"/><stop offset="1" stop-color="#E5BAFF" stop-opacity="0"/><stop offset="1" stop-color="#7123A0" stop-opacity="0"/></linearGradient><linearGradient id="p" x1="196.65" y1="57.717" x2="181.542" y2="75.181" gradientUnits="userSpaceOnUse"><stop stop-color="#9BA5FF"/><stop offset=".277" stop-color="#BB9BFF" stop-opacity=".51"/><stop offset="1" stop-color="#D5CDE6" stop-opacity=".15"/></linearGradient><filter id="b" x="92.091" y="15.028" width="44.655" height="46.146" filterUnits="userSpaceOnUse" color-interpolation-filters="sRGB"><feFlood flood-opacity="0" result="BackgroundImageFix"/><feBlend in="SourceGraphic" in2="BackgroundImageFix" result="shape"/><feColorMatrix in="SourceAlpha" values="0 0 0 0 0 0 0 0 0 0 0 0 0 0 0 0 0 0 127 0" result="hardAlpha"/><feOffset dy="-3.472"/><feGaussianBlur stdDeviation="4.34"/><feComposite in2="hardAlpha" operator="arithmetic" k2="-1" k3="1"/><feColorMatrix values="0 0 0 0 0.595833 0 0 0 0 0.83025 0 0 0 0 1 0 0 0 1 0"/><feBlend in2="shape" result="effect1_innerShadow"/></filter><filter id="t" x="18.123" y="44.419" width="44.557" height="46.925" filterUnits="userSpaceOnUse" color-interpolation-filters="sRGB"><feFlood flood-opacity="0" result="BackgroundImageFix"/><feBlend in="SourceGraphic" in2="BackgroundImageFix" result="shape"/><feColorMatrix in="SourceAlpha" values="0 0 0 0 0 0 0 0 0 0 0 0 0 0 0 0 0 0 127 0" result="hardAlpha"/><feOffset dy="-3.472"/><feGaussianBlur stdDeviation="4.34"/><feComposite in2="hardAlpha" operator="arithmetic" k2="-1" k3="1"/><feColorMatrix values="0 0 0 0 0.595833 0 0 0 0 0.83025 0 0 0 0 1 0 0 0 1 0"/><feBlend in2="shape" result="effect1_innerShadow"/></filter><filter id="s" x=".585" y="30.354" width="79.631" height="78.529" filterUnits="userSpaceOnUse" color-interpolation-filters="sRGB"><feFlood flood-opacity="0" result="BackgroundImageFix"/><feColorMatrix in="SourceAlpha" values="0 0 0 0 0 0 0 0 0 0 0 0 0 0 0 0 0 0 127 0" result="hardAlpha"/><feOffset/><feGaussianBlur stdDeviation="8.769"/><feColorMatrix values="0 0 0 0 0.380417 0 0 0 0 0.0691667 0 0 0 0 0.691667 0 0 0 1 0"/><feBlend in2="BackgroundImageFix" result="effect1_dropShadow"/><feColorMatrix in="SourceAlpha" values="0 0 0 0 0 0 0 0 0 0 0 0 0 0 0 0 0 0 127 0" result="hardAlpha"/><feOffset/><feGaussianBlur stdDeviation="2.192"/><feColorMatrix values="0 0 0 0 0.177269 0 0 0 0 0.129479 0 0 0 0 0.470833 0 0 0 0.6 0"/><feBlend in2="effect1_dropShadow" result="effect2_dropShadow"/><feBlend in="SourceGraphic" in2="effect2_dropShadow" result="shape"/></filter><filter id="k" x="165.321" y="44.347" width="44.557" height="46.925" filterUnits="userSpaceOnUse" color-interpolation-filters="sRGB"><feFlood flood-opacity="0" result="BackgroundImageFix"/><feBlend in="SourceGraphic" in2="BackgroundImageFix" result="shape"/><feColorMatrix in="SourceAlpha" values="0 0 0 0 0 0 0 0 0 0 0 0 0 0 0 0 0 0 127 0" result="hardAlpha"/><feOffset dy="-3.472"/><feGaussianBlur stdDeviation="4.34"/><feComposite in2="hardAlpha" operator="arithmetic" k2="-1" k3="1"/><feColorMatrix values="0 0 0 0 0.595833 0 0 0 0 0.83025 0 0 0 0 1 0 0 0 1 0"/><feBlend in2="shape" result="effect1_innerShadow"/></filter><filter id="j" x="147.783" y="30.282" width="79.632" height="78.528" filterUnits="userSpaceOnUse" color-interpolation-filters="sRGB"><feFlood flood-opacity="0" result="BackgroundImageFix"/><feColorMatrix in="SourceAlpha" values="0 0 0 0 0 0 0 0 0 0 0 0 0 0 0 0 0 0 127 0" result="hardAlpha"/><feOffset/><feGaussianBlur stdDeviation="8.769"/><feColorMatrix values="0 0 0 0 0.380417 0 0 0 0 0.0691667 0 0 0 0 0.691667 0 0 0 1 0"/><feBlend in2="BackgroundImageFix" result="effect1_dropShadow"/><feColorMatrix in="SourceAlpha" values="0 0 0 0 0 0 0 0 0 0 0 0 0 0 0 0 0 0 127 0" result="hardAlpha"/><feOffset/><feGaussianBlur stdDeviation="2.192"/><feColorMatrix values="0 0 0 0 0.177269 0 0 0 0 0.129479 0 0 0 0 0.470833 0 0 0 0.6 0"/><feBlend in2="effect1_dropShadow" result="effect2_dropShadow"/><feBlend in="SourceGraphic" in2="effect2_dropShadow" result="shape"/></filter><filter id="a" x="74.553" y=".963" width="79.73" height="77.749" filterUnits="userSpaceOnUse" color-interpolation-filters="sRGB"><feFlood flood-opacity="0" result="BackgroundImageFix"/><feColorMatrix in="SourceAlpha" values="0 0 0 0 0 0 0 0 0 0 0 0 0 0 0 0 0 0 127 0" result="hardAlpha"/><feOffset/><feGaussianBlur stdDeviation="8.769"/><feColorMatrix values="0 0 0 0 0.380417 0 0 0 0 0.0691667 0 0 0 0 0.691667 0 0 0 1 0"/><feBlend in2="BackgroundImageFix" result="effect1_dropShadow"/><feColorMatrix in="SourceAlpha" values="0 0 0 0 0 0 0 0 0 0 0 0 0 0 0 0 0 0 127 0" result="hardAlpha"/><feOffset/><feGaussianBlur stdDeviation="2.192"/><feColorMatrix values="0 0 0 0 0.177269 0 0 0 0 0.129479 0 0 0 0 0.470833 0 0 0 0.6 0"/><feBlend in2="effect1_dropShadow" result="effect2_dropShadow"/><feBlend in="SourceGraphic" in2="effect2_dropShadow" result="shape"/></filter><radialGradient id="n" cx="0" cy="0" r="1" gradientUnits="userSpaceOnUse" gradientTransform="rotate(92.671 65.667 119.045) scale(30.3475)"><stop offset=".739" stop-color="#9CB6DD" stop-opacity="0"/><stop offset=".898" stop-color="#C6F1FF" stop-opacity=".37"/><stop offset="1" stop-color="#EFFBFF" stop-opacity=".7"/></radialGradient><radialGradient id="e" cx="0" cy="0" r="1" gradientUnits="userSpaceOnUse" gradientTransform="rotate(52.671 18.544 127.071) scale(30.3475)"><stop offset=".739" stop-color="#9CB6DD" stop-opacity="0"/><stop offset=".898" stop-color="#C6F1FF" stop-opacity=".37"/><stop offset="1" stop-color="#EFFBFF" stop-opacity=".7"/></radialGradient><radialGradient id="w" cx="0" cy="0" r="1" gradientUnits="userSpaceOnUse" gradientTransform="rotate(12.671 -285.665 173.258) scale(30.3475)"><stop offset=".739" stop-color="#9CB6DD" stop-opacity="0"/><stop offset=".898" stop-color="#C6F1FF" stop-opacity=".37"/><stop offset="1" stop-color="#EFFBFF" stop-opacity=".7"/></radialGradient></defs></svg>