<?xml version="1.0" standalone="no"?>
<!DOCTYPE svg PUBLIC "-//W3C//DTD SVG 20010904//EN"
 "http://www.w3.org/TR/2001/REC-SVG-20010904/DTD/svg10.dtd">
<svg version="1.0" xmlns="http://www.w3.org/2000/svg"
 width="260.000000pt" height="260.000000pt" viewBox="0 0 260.000000 260.000000"
 preserveAspectRatio="xMidYMid meet">
<metadata>
Created by potrace 1.11, written by Peter Selinger 2001-2013
</metadata>
<g transform="translate(0.000000,260.000000) scale(0.100000,-0.100000)"
fill="#000000" stroke="none">
<path d="M957 2553 c-9 -8 -9 -286 -1 -307 5 -14 44 -16 335 -16 l329 0 0
-165 0 -165 165 0 165 0 0 165 0 165 -165 0 -165 0 0 165 0 165 -328 0 c-181
0 -332 -3 -335 -7z"/>
<path d="M627 2223 c-4 -3 -7 -77 -7 -164 0 -140 -2 -158 -17 -164 -10 -3 -83
-5 -163 -4 l-145 2 -3 -926 -2 -927 165 0 165 0 2 377 3 378 662 3 663 2 2
-377 3 -378 165 0 165 0 3 914 c1 503 -2 919 -6 923 -5 5 -80 9 -168 9 l-159
1 -3 -381 -2 -381 -665 0 -665 0 0 385 0 385 165 0 165 0 0 165 0 165 -158 0
c-87 0 -162 -3 -165 -7z"/>
<path d="M1250 1845 l0 -165 -160 0 -160 0 0 -40 0 -40 160 0 160 0 0 -170 0
-170 45 0 45 0 0 170 0 170 160 0 160 0 0 40 0 40 -160 0 -160 0 0 165 0 165
-45 0 -45 0 0 -165z"/>
</g>
</svg>
