<svg width="25" height="24" viewBox="0 0 25 24" fill="none" xmlns="http://www.w3.org/2000/svg">
<g clip-path="url(#clip0)">
<path d="M12.5 24C19.129 24 24.5 18.629 24.5 12C24.5 5.371 19.129 0 12.5 0C5.871 0 0.5 5.371 0.5 12C0.5 18.629 5.871 24 12.5 24Z" fill="#174889"/>
<path fill-rule="evenodd" clip-rule="evenodd" d="M14.4625 23.8404C13.8239 23.9454 13.1683 24 12.4999 24C11.9319 24 11.3732 23.9606 10.8262 23.8843V15.9028H7.78564V12.245H10.8262V9.54783C10.8262 6.4186 12.6668 4.71429 15.3554 4.71429C16.6429 4.71429 17.7491 4.81401 18.0714 4.8575V8.12914L16.2079 8.12994C14.7444 8.12994 14.4625 8.85141 14.4625 9.91009V12.245H17.9487L17.4939 15.9028H14.4625V23.8404Z" fill="white"/>
</g>
<defs>
<clipPath id="clip0">
<rect width="24" height="24" fill="white" transform="translate(0.5)"/>
</clipPath>
</defs>
</svg>
