<svg width="25" height="24" viewBox="0 0 25 24" fill="none" xmlns="http://www.w3.org/2000/svg">
<g clip-path="url(#clip0)">
<path d="M12.5 24C19.129 24 24.5 18.629 24.5 12C24.5 5.371 19.129 0 12.5 0C5.871 0 0.5 5.371 0.5 12C0.5 18.629 5.871 24 12.5 24Z" fill="url(#paint0_linear)"/>
<path fill-rule="evenodd" clip-rule="evenodd" d="M15.6163 5.72041C14.8031 5.68361 14.5597 5.67589 12.4999 5.67589C10.4402 5.67589 10.1968 5.6842 9.38359 5.71982C8.63092 5.75543 8.22253 5.88009 7.95066 5.98693C7.59154 6.12643 7.33392 6.29322 7.06325 6.56271C6.79376 6.8322 6.62696 7.08982 6.48746 7.44954C6.38062 7.7214 6.25596 8.1292 6.22035 8.88305C6.18355 9.69627 6.17583 9.93964 6.17583 11.9994C6.17583 14.0592 6.18414 14.3025 6.21976 15.1157C6.25537 15.8684 6.38003 16.2768 6.48687 16.5487C6.62636 16.9078 6.79316 17.1654 7.06265 17.4361C7.33214 17.7056 7.58976 17.8724 7.94947 18.0119C8.22134 18.1187 8.62913 18.2434 9.38299 18.279C10.1962 18.3158 10.4396 18.3235 12.4993 18.3235C14.5591 18.3235 14.8025 18.3152 15.6157 18.2796C16.3684 18.244 16.7767 18.1193 17.0486 18.0125C17.4077 17.873 17.6653 17.7062 17.936 17.4367C18.2055 17.1672 18.3723 16.9096 18.5118 16.5499C18.6186 16.278 18.7433 15.8702 18.7789 15.1163C18.8157 14.3031 18.8234 14.0597 18.8234 12C18.8234 9.94024 18.8151 9.69686 18.7795 8.88365C18.7439 8.13098 18.6192 7.72259 18.5124 7.45072C18.3729 7.0916 18.2061 6.83398 17.9366 6.56331C17.6671 6.29382 17.4095 6.12702 17.0498 5.98753C16.7779 5.88068 16.3701 5.75603 15.6163 5.72041ZM9.31948 4.33201C10.1422 4.29461 10.4046 4.28571 12.4999 4.28571C14.5941 4.28571 14.8577 4.2952 15.6804 4.33201C16.5013 4.3694 17.0623 4.49999 17.5537 4.68994C18.0601 4.88761 18.4904 5.15175 18.919 5.58032C19.3482 6.00889 19.6123 6.43984 19.8094 6.94677C19.9999 7.43766 20.1305 7.99861 20.1679 8.81954C20.2053 9.64225 20.2142 9.90462 20.2142 12C20.2142 14.0942 20.2053 14.3577 20.1679 15.1804C20.1305 16.0014 19.9999 16.5623 19.81 17.0538C19.6123 17.5601 19.3482 17.9905 18.9196 18.4191C18.491 18.8482 18.0601 19.1124 17.5532 19.3094C17.0623 19.5 16.5013 19.6306 15.6804 19.668C14.8577 19.7054 14.5953 19.7143 12.4999 19.7143C10.4046 19.7143 10.1422 19.7054 9.31948 19.668C8.49854 19.6306 7.9376 19.5 7.44611 19.31C6.93978 19.1124 6.50943 18.8482 6.08086 18.4197C5.65169 17.9911 5.38754 17.5601 5.19047 17.0532C4.99993 16.5623 4.86934 16.0014 4.83194 15.1804C4.79455 14.3577 4.78564 14.0954 4.78564 12C4.78564 9.90462 4.79514 9.64225 4.83194 8.81954C4.86934 7.99861 4.99993 7.43766 5.18988 6.94617C5.38754 6.43984 5.65169 6.00949 6.08026 5.58092C6.50883 5.15175 6.93978 4.88761 7.4467 4.69053C7.9376 4.49999 8.49914 4.3694 9.31948 4.33201ZM8.53827 11.9999C8.53827 9.81195 10.3119 8.0383 12.4999 8.0383C14.6879 8.0383 16.4615 9.81195 16.4615 11.9999C16.4615 14.1879 14.6879 15.9615 12.4999 15.9615C10.3119 15.9615 8.53827 14.1879 8.53827 11.9999ZM9.92845 11.9999C9.92845 13.4198 11.08 14.5713 12.4999 14.5713C13.9197 14.5713 15.0713 13.4198 15.0713 11.9999C15.0713 10.5801 13.9197 9.42849 12.4999 9.42849C11.08 9.42849 9.92845 10.5801 9.92845 11.9999ZM16.6176 8.80819C17.1293 8.80819 17.5436 8.39268 17.5436 7.88219C17.5436 7.37052 17.1293 6.95619 16.6176 6.95619C16.1071 6.95619 15.6916 7.37052 15.6916 7.88219C15.6916 8.39268 16.1071 8.80819 16.6176 8.80819Z" fill="white"/>
</g>
<defs>
<linearGradient id="paint0_linear" x1="2.1114" y1="22.4364" x2="24.349" y2="3.18621" gradientUnits="userSpaceOnUse">
<stop stop-color="#FFDD55"/>
<stop offset="0.458566" stop-color="#FF543E"/>
<stop offset="0.694316" stop-color="#C837AB"/>
<stop offset="0.955227" stop-color="#3B38D8"/>
</linearGradient>
<clipPath id="clip0">
<rect width="24" height="24" fill="white" transform="translate(0.5)"/>
</clipPath>
</defs>
</svg>
