<svg width="25" height="24" viewBox="0 0 25 24" fill="none" xmlns="http://www.w3.org/2000/svg">
<g clip-path="url(#clip0)">
<path d="M12.5 24C19.129 24 24.5 18.629 24.5 12C24.5 5.371 19.129 0 12.5 0C5.871 0 0.5 5.371 0.5 12C0.5 18.629 5.871 24 12.5 24Z" fill="#1DADEA"/>
<path d="M21.0716 8.01974C20.4979 8.27142 19.8865 8.43824 19.2491 8.51924C19.9049 8.12774 20.4053 7.51253 20.6406 6.77099C20.0292 7.13549 19.3542 7.39296 18.6349 7.53663C18.0544 6.91853 17.227 6.53571 16.3245 6.53571C14.5733 6.53571 13.1635 7.95706 13.1635 9.69953C13.1635 9.95024 13.1847 10.1913 13.2368 10.4208C10.6072 10.2926 8.28039 9.03224 6.71728 7.11235C6.44439 7.58581 6.28432 8.12774 6.28432 8.71113C6.28432 9.80656 6.84842 10.7776 7.68928 11.3398C7.1811 11.3301 6.68257 11.1826 6.26021 10.9502C6.26021 10.9598 6.26021 10.9724 6.26021 10.9849C6.26021 12.522 7.3566 13.7987 8.79435 14.0928C8.53689 14.1632 8.25628 14.197 7.96507 14.197C7.76257 14.197 7.55814 14.1854 7.36624 14.143C7.77607 15.3956 8.939 16.3165 10.3218 16.3463C9.24564 17.1882 7.87925 17.6954 6.40003 17.6954C6.14064 17.6954 5.89185 17.6838 5.64307 17.652C7.04417 18.5555 8.70467 19.0714 10.4954 19.0714C16.3158 19.0714 19.4979 14.25 19.4979 10.0708C19.4979 9.93096 19.4931 9.79596 19.4864 9.66192C20.1141 9.21642 20.6416 8.66003 21.0716 8.01974Z" fill="white"/>
</g>
<defs>
<clipPath id="clip0">
<rect width="24" height="24" fill="white" transform="translate(0.5)"/>
</clipPath>
</defs>
</svg>
