<svg width="25" height="24" viewBox="0 0 25 24" fill="none" xmlns="http://www.w3.org/2000/svg">
<g clip-path="url(#clip0)">
<path d="M12.5 0C5.8736 0 0.5 5.3736 0.5 12C0.5 18.6264 5.8736 24 12.5 24C19.1264 24 24.5 18.6264 24.5 12C24.5 5.3736 19.1264 0 12.5 0Z" fill="#FF0303"/>
<path fill-rule="evenodd" clip-rule="evenodd" d="M20.0599 9.08677C20.0599 9.08677 19.9092 8.07432 19.4469 7.62809C18.8606 7.04276 18.2023 7.04031 17.901 7.00602C15.742 6.85712 12.503 6.85712 12.503 6.85712H12.4963C12.4963 6.85712 9.25787 6.85712 7.0989 7.00602C6.79753 7.04031 6.13976 7.04276 5.55296 7.62809C5.0901 8.07383 4.93993 9.08677 4.93993 9.08677C4.93993 9.08677 4.78564 10.2761 4.78564 11.4648V12.5307C4.78564 13.72 4.93993 14.9088 4.93993 14.9088C4.93993 14.9088 5.09062 15.9217 5.55296 16.3674C6.13924 16.9528 6.91067 16.9342 7.25422 16.9959C8.4885 17.1085 12.4999 17.1428 12.4999 17.1428C12.4999 17.1428 15.742 17.1379 17.901 16.9895C18.2023 16.9552 18.8601 16.9523 19.4469 16.3674C19.9098 15.9217 20.0599 14.9078 20.0599 14.9078C20.0599 14.9078 20.2142 13.7195 20.2142 12.5302V11.4648C20.2142 10.2761 20.0599 9.08677 20.0599 9.08677ZM10.9072 13.9311L10.9056 9.80093L15.0755 11.8729L10.9072 13.9301V13.9311Z" fill="white"/>
</g>
<defs>
<clipPath id="clip0">
<rect width="24" height="24" fill="white" transform="translate(0.5)"/>
</clipPath>
</defs>
</svg>
