<svg xmlns="http://www.w3.org/2000/svg" xmlns:xlink="http://www.w3.org/1999/xlink" id="Capa_1" x="0px" y="0px" viewBox="0 0 240 240" style="enable-background:new 0 0 240 240;" xml:space="preserve">
<style type="text/css">
	.st0{clip-path:url(#SVGID_2_);fill:url(#SVGID_3_);}
</style>
<g>
	<defs>
		<path id="SVGID_1_" d="M218.9,31.9c-13.6-13.6-31.7-21.1-50.9-21.1c-17.9,0-34.8,6.5-48,18.4c-13.2-11.9-30.1-18.3-48-18.3    c0,0,0,0,0,0c-19.2,0-37.3,7.5-50.9,21.1C7.5,45.6,0,63.6,0,82.9c0,19.2,7.5,37.3,21.1,50.9l1.7,1.7c0,0.2,0,0.3,0,0.5    c0,6.3,2.5,12.2,6.9,16.7c4,4,9.2,6.4,14.8,6.8c0,0.1,0,0.3,0,0.4c0,6.3,2.5,12.2,6.9,16.7c4.5,4.5,10.4,6.9,16.7,6.9c0,0,0,0,0,0    c0.1,0,0.3,0,0.4,0c0.4,5.4,2.7,10.7,6.8,14.8c4,4,9.2,6.4,14.8,6.9c0,0.1,0,0.2,0,0.4c0,6.3,2.5,12.2,6.9,16.7    c4.5,4.5,10.4,6.9,16.7,6.9c0,0,0,0,0,0c6.3,0,12.2-2.5,16.7-6.9l15.5-15.6c2.4-2.4,4.2-5.1,5.3-8.2c3-1.2,5.8-3,8.2-5.3    c4.3-4.3,6.7-9.9,6.9-15.9c6-0.2,11.6-2.6,15.9-6.9c4.1-4.1,6.5-9.3,6.9-15c0,0,0.1,0,0.1,0c6,0,12.1-2.3,16.7-6.9    c1.8-1.9,3.3-4,4.5-6.2l8.4-8.4C247,105.7,247,60,218.9,31.9z M40.3,142.1c-1.6-1.6-2.5-3.8-2.5-6.1c0-2.3,0.9-4.5,2.5-6.1    l15.5-15.5c1.6-1.6,3.8-2.5,6.1-2.5c2.3,0,4.5,0.9,6.1,2.5c3.4,3.4,3.4,8.8,0,12.2l-0.9,0.9c-0.1,0.1-0.2,0.2-0.3,0.2l-14.4,14.5    c-1.6,1.6-3.8,2.5-6.1,2.5h0C44.1,144.6,42,143.7,40.3,142.1z M68.1,168.6c-2.3,0-4.5-0.9-6.1-2.5c-1.6-1.6-2.5-3.8-2.5-6.1    c0-2.3,0.9-4.5,2.5-6.1l1.1-1.1c0,0,0,0,0,0l14.6-14.6c1.6-1.6,3.7-2.4,6-2.4c2.3,0,4.5,0.9,6.1,2.5c3.4,3.4,3.4,8.8,0,12.2    L74.2,166C72.6,167.7,70.4,168.6,68.1,168.6L68.1,168.6z M85.9,187.7c-3.4-3.4-3.4-8.8,0-12.2l15.6-15.5c1.6-1.6,3.8-2.5,6.1-2.5    c2.3,0,4.5,0.9,6.1,2.5c1.6,1.6,2.5,3.8,2.5,6.1c0,2.3-0.9,4.5-2.5,6.1l-15.6,15.6c-1.6,1.6-3.8,2.5-6.1,2.5    C89.7,190.3,87.6,189.4,85.9,187.7z M119.8,211.7c-1.6,1.6-3.8,2.5-6.1,2.5c-2.3,0-4.5-0.9-6.1-2.5c-1.6-1.6-2.5-3.8-2.5-6.1    c0-2.3,0.9-4.5,2.5-6.1l15.5-15.5c1.6-1.6,3.8-2.5,6.1-2.5c2.3,0,4.5,0.9,6.1,2.5c1.6,1.6,2.5,3.8,2.5,6.1c0,2.3-0.9,4.5-2.5,6.1    L119.8,211.7z M183.2,137.8l-0.9-0.9c0,0,0,0,0,0l-32.4-32.4c-2.9-2.9-7.7-2.9-10.6,0c-2.9,2.9-2.9,7.7,0,10.6l32.4,32.4    c0,0,0,0,0,0c1.6,1.6,2.5,3.8,2.5,6.1s-0.9,4.5-2.5,6.1c-1.6,1.6-3.8,2.5-6.1,2.5c-2.3,0-4.5-0.9-6.1-2.5l-32.4-32.4    c-2.9-2.9-7.7-2.9-10.6,0c-2.9,2.9-2.9,7.7,0,10.6l32.4,32.4c1.6,1.6,2.5,3.8,2.5,6.1c0,1.2-0.3,2.4-0.7,3.5    c-1.1-2.4-2.7-4.7-4.7-6.7c-4-4-9.2-6.4-14.8-6.8c0-0.1,0-0.3,0-0.4c0-6.3-2.5-12.2-6.9-16.7c-4.5-4.5-10.4-6.9-16.7-6.9    c-0.1,0-0.3,0-0.4,0c-0.4-5.4-2.7-10.7-6.8-14.8c-4-4-9.2-6.4-14.8-6.8c0.1-6.2-2.2-12.4-6.9-17.1c-4.5-4.5-10.4-6.9-16.7-6.9    s-12.2,2.5-16.7,6.9l-15.5,15.5c-0.3,0.3-0.6,0.6-0.8,0.9C19.9,109.8,15,96.7,15,82.9c0-15.2,5.9-29.5,16.7-40.3    C42.5,31.8,56.8,25.9,72,25.8c0,0,0,0,0,0c13.8,0,26.9,4.9,37.3,13.9L80.5,68.5c-9.2,9.2-9.2,24.2,0,33.4c9.2,9.2,24.2,9.2,33.4,0    L142.8,73l52.6,52.6c1.6,1.6,2.5,3.8,2.5,6.1c0,1.1-0.2,2.2-0.6,3.2c0,0.1-0.1,0.2-0.1,0.2c-0.4,1-1,1.9-1.8,2.7    C192.1,141.2,186.6,141.2,183.2,137.8z M210.4,121c-1.1-2.2-2.6-4.2-4.4-6l-57.9-57.9c0,0,0,0,0,0c-2.7-2.7-7.1-2.9-10-0.5    c0,0,0,0,0,0c-0.1,0.1-0.2,0.2-0.4,0.3c-0.1,0.1-0.1,0.1-0.2,0.2l0,0l0,0l-34.2,34.2c-3.4,3.4-8.8,3.4-12.2,0    c-3.4-3.4-3.4-8.8,0-12.2L125.3,45c0,0,0.1-0.1,0.1-0.1c0,0,0.1-0.1,0.1-0.1l2.3-2.3c10.8-10.8,25.1-16.7,40.3-16.7    c15.2,0,29.5,5.9,40.3,16.7C229.9,64.1,230.6,98.7,210.4,121z"></path>
	</defs>
	<clipPath id="SVGID_2_">
		<use xlink:href="#SVGID_1_" style="overflow:visible;"></use>
	</clipPath>
	<linearGradient id="SVGID_3_" gradientUnits="userSpaceOnUse" x1="-18.1081" y1="93.1581" x2="258.1171" y2="146.8509">
		<stop offset="0.3084" style="stop-color:#F29100"></stop>
		<stop offset="0.5093" style="stop-color:#EE7A09"></stop>
		<stop offset="0.8247" style="stop-color:#EA5A16"></stop>
		<stop offset="1" style="stop-color:#E84E1B"></stop>
	</linearGradient>
	<rect x="0" class="st0" width="240" height="240"></rect>
</g>
</svg>