<svg xmlns="http://www.w3.org/2000/svg" xmlns:xlink="http://www.w3.org/1999/xlink" viewBox="0 0 321.94 229.9"><defs><style>.cls-1{fill:none;}.cls-2{isolation:isolate;}.cls-3{fill:url(#linear-gradient);}.cls-12,.cls-4{fill:#330a66;}.cls-5{fill:#45108a;}.cls-6{fill:#43e8e1;}.cls-7{opacity:0.5;}.cls-8{fill:url(#linear-gradient-2);}.cls-9{mix-blend-mode:screen;fill:url(#radial-gradient);}.cls-10{opacity:0.2;mix-blend-mode:lighten;fill:url(#radial-gradient-2);}.cls-11{opacity:0.3;fill:url(#linear-gradient-3);}.cls-12{opacity:0.1;}.cls-13{fill:#6ee8fc;}.cls-14{fill:#0c0f38;opacity:0.8;}.cls-15{fill:url(#_ÂÁ_Ï_ÌÌ_È_ËÂÌÚ_102);}.cls-16{fill:url(#_ÂÁ_Ï_ÌÌ_È_ËÂÌÚ_377);}.cls-17{fill:url(#_ÂÁ_Ï_ÌÌ_È_ËÂÌÚ_102-2);}.cls-18{fill:#d4088c;}.cls-19{fill:url(#_ÂÁ_Ï_ÌÌ_È_ËÂÌÚ_300);}.cls-20{fill:url(#_ÂÁ_Ï_ÌÌ_È_ËÂÌÚ_302);}.cls-21{fill:#6de0f6;}.cls-22{clip-path:url(#clip-path);}.cls-23{fill:#267fe5;}.cls-24{fill:#25bfec;}.cls-25{fill:#18d0f7;}.cls-26{fill:#480689;}.cls-27{fill:url(#_ÂÁ_Ï_ÌÌ_È_ËÂÌÚ_377-2);}.cls-28{fill:url(#_ÂÁ_Ï_ÌÌ_È_ËÂÌÚ_102-3);}.cls-29{fill:url(#_ÂÁ_Ï_ÌÌ_È_ËÂÌÚ_300-2);}.cls-30{fill:url(#_ÂÁ_Ï_ÌÌ_È_ËÂÌÚ_302-2);}.cls-31{clip-path:url(#clip-path-2);}.cls-32{fill:url(#_ÂÁ_Ï_ÌÌ_È_ËÂÌÚ_377-3);}.cls-33{fill:url(#_ÂÁ_Ï_ÌÌ_È_ËÂÌÚ_102-4);}.cls-34{fill:url(#_ÂÁ_Ï_ÌÌ_È_ËÂÌÚ_300-3);}.cls-35{fill:url(#_ÂÁ_Ï_ÌÌ_È_ËÂÌÚ_302-3);}.cls-36{clip-path:url(#clip-path-3);}.cls-37{fill:url(#_ÂÁ_Ï_ÌÌ_È_ËÂÌÚ_377-4);}.cls-38{fill:url(#_ÂÁ_Ï_ÌÌ_È_ËÂÌÚ_102-5);}.cls-39{fill:url(#_ÂÁ_Ï_ÌÌ_È_ËÂÌÚ_300-4);}.cls-40{fill:url(#_ÂÁ_Ï_ÌÌ_È_ËÂÌÚ_302-4);}.cls-41{clip-path:url(#clip-path-4);}</style><linearGradient id="linear-gradient" x1="180.28" y1="189.74" x2="192.7" y2="217.6" gradientUnits="userSpaceOnUse"><stop offset="0" stop-color="#25054d"></stop><stop offset="1" stop-color="#45108a"></stop></linearGradient><linearGradient id="linear-gradient-2" x1="180.05" y1="140.44" x2="191.48" y2="166.1" xlink:href="#linear-gradient"></linearGradient><radialGradient id="radial-gradient" cx="148.13" cy="129.15" r="59.17" gradientUnits="userSpaceOnUse"><stop offset="0.1" stop-color="#45108a"></stop><stop offset="0.67" stop-color="#25054d"></stop><stop offset="1"></stop></radialGradient><radialGradient id="radial-gradient-2" cx="210.79" cy="137.92" r="59.87" gradientUnits="userSpaceOnUse"><stop offset="0" stop-color="#fdd65b"></stop><stop offset="0.21" stop-color="#b19540"></stop><stop offset="0.47" stop-color="#52461e"></stop><stop offset="0.66" stop-color="#171308"></stop><stop offset="0.75"></stop></radialGradient><linearGradient id="linear-gradient-3" x1="187.55" y1="182.06" x2="230.3" y2="277.99" xlink:href="#linear-gradient"></linearGradient><linearGradient id="_&#xC2;&#xC1;_&#xCF;_&#xCC;&#xCC;_&#xC8;_&#xCB;&#xC2;&#xCC;&#xDA;_102" x1="3589.61" y1="111.54" x2="3679.15" y2="111.54" gradientTransform="matrix(-1, 0, 0, 1, 3781.53, 0)" gradientUnits="userSpaceOnUse"><stop offset="0" stop-color="#d4088c"></stop><stop offset="0.23" stop-color="#d4088c"></stop><stop offset="0.51" stop-color="#6ee1f8"></stop><stop offset="0.78" stop-color="#6ee8fc"></stop><stop offset="1" stop-color="#6ee8fc"></stop></linearGradient><linearGradient id="_&#xC2;&#xC1;_&#xCF;_&#xCC;&#xCC;_&#xC8;_&#xCB;&#xC2;&#xCC;&#xDA;_377" x1="3589.57" y1="57.51" x2="3681.39" y2="57.51" gradientTransform="matrix(-1, 0, 0, 1, 3781.53, 0)" gradientUnits="userSpaceOnUse"><stop offset="0" stop-color="#a31fa9"></stop><stop offset="0.07" stop-color="#8b17a0"></stop><stop offset="0.15" stop-color="#740f98"></stop><stop offset="0.24" stop-color="#640a92"></stop><stop offset="0.34" stop-color="#5b078f"></stop><stop offset="0.48" stop-color="#58068e"></stop><stop offset="0.63" stop-color="#4d22a3"></stop><stop offset="0.94" stop-color="#3168da"></stop><stop offset="1" stop-color="#2c75e4"></stop></linearGradient><linearGradient id="_&#xC2;&#xC1;_&#xCF;_&#xCC;&#xCC;_&#xC8;_&#xCB;&#xC2;&#xCC;&#xDA;_102-2" x1="3589.57" y1="85.67" x2="3681.39" y2="85.67" xlink:href="#_&#xC2;&#xC1;_&#xCF;_&#xCC;&#xCC;_&#xC8;_&#xCB;&#xC2;&#xCC;&#xDA;_102"></linearGradient><linearGradient id="_&#xC2;&#xC1;_&#xCF;_&#xCC;&#xCC;_&#xC8;_&#xCB;&#xC2;&#xCC;&#xDA;_300" x1="2781.49" y1="-1279.47" x2="2824.8" y2="-1316.98" gradientTransform="matrix(-0.87, 0.5, 1, 0.58, 3873.69, -622.77)" gradientUnits="userSpaceOnUse"><stop offset="0" stop-color="#8d139b"></stop><stop offset="0.17" stop-color="#851ba1"></stop><stop offset="0.43" stop-color="#6e33b2"></stop><stop offset="0.76" stop-color="#4958cd"></stop><stop offset="1" stop-color="#2979e4"></stop></linearGradient><linearGradient id="_&#xC2;&#xC1;_&#xCF;_&#xCC;&#xCC;_&#xC8;_&#xCB;&#xC2;&#xCC;&#xDA;_302" x1="2787.13" y1="-1284.36" x2="2819.38" y2="-1312.29" gradientTransform="matrix(-0.87, 0.5, 1, 0.58, 3873.69, -622.77)" gradientUnits="userSpaceOnUse"><stop offset="0" stop-color="#630692"></stop><stop offset="0.23" stop-color="#5b0e94"></stop><stop offset="0.59" stop-color="#432399"></stop><stop offset="1" stop-color="#2142a1"></stop></linearGradient><clipPath id="clip-path"><path class="cls-1" d="M149.38,40.46l17.27-10c1.23-.71,1.08-1.95-.34-2.77l-16.59-9.57a5.32,5.32,0,0,0-4.79-.2l-17.27,10c-1.23.71-1.08,1.95.34,2.77l16.59,9.57A5.32,5.32,0,0,0,149.38,40.46Z"></path></clipPath><linearGradient id="_&#xC2;&#xC1;_&#xCF;_&#xCC;&#xCC;_&#xC8;_&#xCB;&#xC2;&#xCC;&#xDA;_377-2" x1="3534.04" y1="92" x2="3625.86" y2="92" xlink:href="#_&#xC2;&#xC1;_&#xCF;_&#xCC;&#xCC;_&#xC8;_&#xCB;&#xC2;&#xCC;&#xDA;_377"></linearGradient><linearGradient id="_&#xC2;&#xC1;_&#xCF;_&#xCC;&#xCC;_&#xC8;_&#xCB;&#xC2;&#xCC;&#xDA;_102-3" x1="3534.04" y1="120.16" x2="3625.86" y2="120.16" xlink:href="#_&#xC2;&#xC1;_&#xCF;_&#xCC;&#xCC;_&#xC8;_&#xCB;&#xC2;&#xCC;&#xDA;_102"></linearGradient><linearGradient id="_&#xC2;&#xC1;_&#xCF;_&#xCC;&#xCC;_&#xC8;_&#xCB;&#xC2;&#xCC;&#xDA;_300-2" x1="2783.92" y1="-1221.84" x2="2827.23" y2="-1259.35" xlink:href="#_&#xC2;&#xC1;_&#xCF;_&#xCC;&#xCC;_&#xC8;_&#xCB;&#xC2;&#xCC;&#xDA;_300"></linearGradient><linearGradient id="_&#xC2;&#xC1;_&#xCF;_&#xCC;&#xCC;_&#xC8;_&#xCB;&#xC2;&#xCC;&#xDA;_302-2" x1="2789.56" y1="-1226.73" x2="2821.81" y2="-1254.66" xlink:href="#_&#xC2;&#xC1;_&#xCF;_&#xCC;&#xCC;_&#xC8;_&#xCB;&#xC2;&#xCC;&#xDA;_302"></linearGradient><clipPath id="clip-path-2"><path class="cls-1" d="M204.9,75l17.28-10c1.22-.71,1.07-2-.35-2.77l-16.58-9.57a5.32,5.32,0,0,0-4.79-.2l-17.28,10c-1.23.71-1.07,2,.35,2.77l16.58,9.57A5.32,5.32,0,0,0,204.9,75Z"></path></clipPath><linearGradient id="_&#xC2;&#xC1;_&#xCF;_&#xCC;&#xCC;_&#xC8;_&#xCB;&#xC2;&#xCC;&#xDA;_377-3" x1="3644.11" y1="91.65" x2="3735.94" y2="91.65" xlink:href="#_&#xC2;&#xC1;_&#xCF;_&#xCC;&#xCC;_&#xC8;_&#xCB;&#xC2;&#xCC;&#xDA;_377"></linearGradient><linearGradient id="_&#xC2;&#xC1;_&#xCF;_&#xCC;&#xCC;_&#xC8;_&#xCB;&#xC2;&#xCC;&#xDA;_102-4" x1="3644.11" y1="119.81" x2="3735.94" y2="119.81" xlink:href="#_&#xC2;&#xC1;_&#xCF;_&#xCC;&#xCC;_&#xC8;_&#xCB;&#xC2;&#xCC;&#xDA;_102"></linearGradient><linearGradient id="_&#xC2;&#xC1;_&#xCF;_&#xCC;&#xCC;_&#xC8;_&#xCB;&#xC2;&#xCC;&#xDA;_300-3" x1="2847.11" y1="-1277.18" x2="2890.43" y2="-1314.69" xlink:href="#_&#xC2;&#xC1;_&#xCF;_&#xCC;&#xCC;_&#xC8;_&#xCB;&#xC2;&#xCC;&#xDA;_300"></linearGradient><linearGradient id="_&#xC2;&#xC1;_&#xCF;_&#xCC;&#xCC;_&#xC8;_&#xCB;&#xC2;&#xCC;&#xDA;_302-3" x1="2852.76" y1="-1282.08" x2="2885.01" y2="-1310" xlink:href="#_&#xC2;&#xC1;_&#xCF;_&#xCC;&#xCC;_&#xC8;_&#xCB;&#xC2;&#xCC;&#xDA;_302"></linearGradient><clipPath id="clip-path-3"><path class="cls-1" d="M94.83,74.6l17.27-10c1.23-.71,1.08-1.94-.34-2.76L95.18,52.28a5.34,5.34,0,0,0-4.8-.2l-17.27,10c-1.23.71-1.07,1.94.34,2.76L90,74.4A5.32,5.32,0,0,0,94.83,74.6Z"></path></clipPath><linearGradient id="_&#xC2;&#xC1;_&#xCF;_&#xCC;&#xCC;_&#xC8;_&#xCB;&#xC2;&#xCC;&#xDA;_377-4" x1="3588.59" y1="126.14" x2="3680.41" y2="126.14" xlink:href="#_&#xC2;&#xC1;_&#xCF;_&#xCC;&#xCC;_&#xC8;_&#xCB;&#xC2;&#xCC;&#xDA;_377"></linearGradient><linearGradient id="_&#xC2;&#xC1;_&#xCF;_&#xCC;&#xCC;_&#xC8;_&#xCB;&#xC2;&#xCC;&#xDA;_102-5" x1="3588.59" y1="154.3" x2="3680.41" y2="154.3" xlink:href="#_&#xC2;&#xC1;_&#xCF;_&#xCC;&#xCC;_&#xC8;_&#xCB;&#xC2;&#xCC;&#xDA;_102"></linearGradient><linearGradient id="_&#xC2;&#xC1;_&#xCF;_&#xCC;&#xCC;_&#xC8;_&#xCB;&#xC2;&#xCC;&#xDA;_300-4" x1="2849.54" y1="-1219.55" x2="2892.86" y2="-1257.06" xlink:href="#_&#xC2;&#xC1;_&#xCF;_&#xCC;&#xCC;_&#xC8;_&#xCB;&#xC2;&#xCC;&#xDA;_300"></linearGradient><linearGradient id="_&#xC2;&#xC1;_&#xCF;_&#xCC;&#xCC;_&#xC8;_&#xCB;&#xC2;&#xCC;&#xDA;_302-4" x1="2855.19" y1="-1224.45" x2="2887.44" y2="-1252.37" xlink:href="#_&#xC2;&#xC1;_&#xCF;_&#xCC;&#xCC;_&#xC8;_&#xCB;&#xC2;&#xCC;&#xDA;_302"></linearGradient><clipPath id="clip-path-4"><path class="cls-1" d="M150.36,109.09l17.27-10c1.23-.7,1.07-1.94-.34-2.76L150.7,86.77a5.35,5.35,0,0,0-4.79-.2l-17.27,10c-1.23.71-1.08,1.94.34,2.76l16.58,9.58A5.34,5.34,0,0,0,150.36,109.09Z"></path></clipPath></defs><title>buckets</title><g class="cls-2"><g id="Capa_2" data-name="Capa 2"><g id="_&#xCE;&#xD3;&#xC8;_1" data-name="&#x2014;&#xCE;&#xD3;&#xC8;_1"><polygon class="cls-3" points="148.11 194.52 148.11 205.9 206.51 171.61 206.51 160.23 148.11 194.52"></polygon><polygon class="cls-4" points="148.14 194.52 148.14 205.9 89.76 171.87 89.76 160.53 148.14 194.52"></polygon><polygon class="cls-5" points="89.76 160.53 148.14 194.52 206.51 160.23 148.06 126.2 89.76 160.53"></polygon><path class="cls-6" d="M95.35,155.92l52.79,30.74,52.78-31-52.85-30.77Zm52.79,32.41a.76.76,0,0,1-.39-.1L93.42,156.59a.79.79,0,0,1-.38-.67.8.8,0,0,1,.38-.67l54.25-31.94a.8.8,0,0,1,.79,0L202.84,155a.77.77,0,0,1,.39.67.79.79,0,0,1-.39.67l-54.31,31.9A.7.7,0,0,1,148.14,188.33Z"></path><path class="cls-6" d="M95.35,149.14l52.79,30.75,52.78-31L148.07,118.1Zm52.79,32.42a.77.77,0,0,1-.39-.11L93.42,149.82a.8.8,0,0,1-.38-.67.79.79,0,0,1,.38-.67l54.25-31.94a.77.77,0,0,1,.79,0l54.38,31.67a.76.76,0,0,1,.39.66.77.77,0,0,1-.39.67l-54.31,31.91A.79.79,0,0,1,148.14,181.56Z"></path><path class="cls-6" d="M95.35,142.37l52.79,30.74,52.78-31-52.85-30.77Zm52.79,32.41a.76.76,0,0,1-.39-.1L93.42,143a.77.77,0,0,1,0-1.33l54.25-31.95a.8.8,0,0,1,.79,0l54.38,31.67a.77.77,0,0,1,.39.67.79.79,0,0,1-.39.67l-54.31,31.91A.78.78,0,0,1,148.14,174.78Z"></path><path class="cls-6" d="M95.35,135.6l52.79,30.74,52.78-31-52.85-30.78ZM148.14,168a.77.77,0,0,1-.39-.11L93.42,136.27a.78.78,0,0,1,0-1.34L147.67,103a.8.8,0,0,1,.79,0l54.38,31.67a.76.76,0,0,1,0,1.33L148.53,167.9A.79.79,0,0,1,148.14,168Z"></path><g class="cls-7"><path class="cls-6" d="M95.35,128.82l52.79,30.74,52.78-31L148.07,97.78Zm52.79,32.41a.76.76,0,0,1-.39-.1L93.42,129.49a.77.77,0,0,1-.38-.66.79.79,0,0,1,.38-.67l54.25-31.94a.8.8,0,0,1,.79,0l54.38,31.67a.79.79,0,0,1,.39.67.77.77,0,0,1-.39.67l-54.31,31.91A.78.78,0,0,1,148.14,161.23Z"></path></g><polygon class="cls-8" points="148.11 146.52 148.11 156.35 206.51 122.06 206.51 112.23 148.11 146.52"></polygon><polygon class="cls-4" points="148.14 146.52 148.14 156.35 89.76 122.32 89.76 112.53 148.14 146.52"></polygon><polygon class="cls-5" points="89.76 112.53 148.14 146.52 206.51 112.23 148.06 78.2 89.76 112.53"></polygon><polygon class="cls-9" points="148.14 145.59 90.55 112.06 89.76 112.53 148.14 146.52 206.51 112.23 205.72 111.77 148.14 145.59"></polygon><polygon class="cls-10" points="206.51 122.06 206.51 112.23 164.85 136.69 173.25 141.59 206.51 122.06"></polygon><polygon class="cls-11" points="148.11 146.52 148.11 205.9 206.51 171.61 206.51 112.23 148.11 146.52"></polygon><polygon class="cls-12" points="148.14 146.52 148.14 205.9 89.76 171.87 89.76 112.53 148.14 146.52"></polygon><path class="cls-13" d="M45.5,80.36a15.78,15.78,0,0,1,7.74,1.88L79.37,97.33a2.73,2.73,0,1,1-2.73,4.72L50.51,87a11.38,11.38,0,0,0-10,0L6.73,106c-1,.59-1.27,1.12-1.27,1.32s.26.74,1.27,1.32l56.91,33.21c2.55,1.47,4,3.67,4,6s-1.46,4.57-4,6l-26.5,15.31a2.73,2.73,0,1,1-2.73-4.73l26.51-15.3c1-.59,1.27-1.12,1.27-1.32s-.26-.74-1.27-1.32L4,113.36c-2.55-1.47-4-3.67-4-6s1.46-4.57,4-6l33.75-19A15.81,15.81,0,0,1,45.5,80.36Z"></path><path class="cls-13" d="M171.86,0a2.74,2.74,0,0,1,1.37.37l56.12,31.71c2.84,1.64,4.46,4.08,4.46,6.69s-1.62,5-4.46,6.69l-37,21.39a2.73,2.73,0,1,1-2.73-4.72l37.05-21.39c1.07-.62,1.74-1.37,1.74-2s-.67-1.34-1.74-2L170.5,5.09A2.73,2.73,0,0,1,171.86,0Z"></path><path class="cls-13" d="M262.49,86.9a17.14,17.14,0,0,1,8.43,2l46.73,27c2.73,1.57,4.29,3.92,4.29,6.44s-1.56,4.87-4.29,6.44L184.33,206.15c-1.16.67-1.56,1.35-1.56,1.72s.4,1.06,1.56,1.72l26.35,15.22a2.73,2.73,0,1,1-2.73,4.72L181.6,214.32c-2.73-1.58-4.29-3.93-4.29-6.45s1.56-4.87,4.29-6.44l133.32-77.34c1.16-.67,1.56-1.34,1.56-1.72s-.4-1.05-1.56-1.72l-46.73-27a13.06,13.06,0,0,0-11.41,0l-28.19,16.57a2.73,2.73,0,0,1-2.72-4.73L254.05,89A17.15,17.15,0,0,1,262.49,86.9Z"></path><path class="cls-14" d="M151.28,132.41l32-18.49c2.28-1.32,2-3.61-.64-5.13L151.91,91c-2.62-1.52-6.6-1.69-8.88-.37l-32,18.49c-2.28,1.31-2,3.61.63,5.13L142.39,132C145,133.56,149,133.72,151.28,132.41Z"></path><path class="cls-15" d="M147.47,137.54a12.61,12.61,0,0,1-6.11-1.52L105.13,115.1c-1.74-1-2.75-2.37-2.75-3.74a3.48,3.48,0,0,1,2-3l37.73-21.78c2.78-1.61,7.65-1.41,10.84.43L189.17,108c1.75,1,2.75,2.38,2.75,3.75a3.48,3.48,0,0,1-2,3L152.2,136.45A9.67,9.67,0,0,1,147.47,137.54Zm-.63-51.26a8.88,8.88,0,0,0-4.35,1l-37.73,21.78a2.79,2.79,0,0,0-1.62,2.3c0,1.09.86,2.22,2.37,3.09l36.22,20.91c3,1.73,7.52,1.92,10.09.44L189.54,114a2.78,2.78,0,0,0,1.63-2.3c0-1.1-.87-2.22-2.38-3.09L152.57,87.72A11.75,11.75,0,0,0,146.84,86.28Z"></path><path class="cls-16" d="M109.47,29.2h15.88L143,19c2.28-1.32,6.26-1.15,8.88.37L169,29.2h15.87v46h0a2.59,2.59,0,0,1-1.53,2.38L151.28,96c-2.28,1.31-6.26,1.15-8.89-.37L111.64,77.91a3.79,3.79,0,0,1-2.16-2.75h0Z"></path><path class="cls-17" d="M111.64,77.17l30.75,17.76c2.63,1.51,6.61,1.68,8.89.36l32-18.49a2.59,2.59,0,0,0,1.53-2.38h0v.74h0a2.59,2.59,0,0,1-1.53,2.38L151.28,96c-2.28,1.31-6.26,1.15-8.89-.37L111.64,77.91a3.79,3.79,0,0,1-2.16-2.75h0v-.74h0A3.77,3.77,0,0,0,111.64,77.17Z"></path><path class="cls-18" d="M183.82,75.89h0V29.94H168l-17-9.84c-2.63-1.52-6.6-1.68-8.88-.37L124.35,29.94H109.47V29.2h15.88L143,19c2.28-1.32,6.26-1.15,8.88.37L169,29.2h15.87v46h0a2.59,2.59,0,0,1-1.53,2.38l-.18.1A2.21,2.21,0,0,0,183.82,75.89Z"></path><path class="cls-13" d="M110.37,30.06V76h0a2.83,2.83,0,0,0,.76,1.63,3.45,3.45,0,0,1-1.66-2.43h0V29.31A5,5,0,0,1,110.37,30.06Z"></path><path class="cls-19" d="M151.28,50.07l32-18.49c2.28-1.31,2-3.61-.64-5.12L151.91,8.7c-2.62-1.51-6.6-1.68-8.88-.37L111,26.82c-2.28,1.32-2,3.62.63,5.13l30.75,17.76C145,51.22,149,51.39,151.28,50.07Z"></path><path class="cls-13" d="M111,26.82,143,8.33a8.24,8.24,0,0,1,4.48-.86,7.56,7.56,0,0,0-3.23.86l-32,18.49c-2.28,1.32-2,3.62.64,5.13l30.75,17.76a10.11,10.11,0,0,0,4.4,1.23,10.43,10.43,0,0,1-5.66-1.23L111.64,32C109,30.44,108.73,28.14,111,26.82Z"></path><path class="cls-20" d="M150.22,44.74,174.07,31c1.69-1,1.48-2.69-.48-3.82L150.7,13.94a7.36,7.36,0,0,0-6.62-.27L120.24,27.43c-1.69,1-1.48,2.69.48,3.82l22.89,13.22A7.34,7.34,0,0,0,150.22,44.74Z"></path><path class="cls-21" d="M149.38,40.46l17.27-10c1.23-.71,1.08-1.95-.34-2.77l-16.59-9.57a5.32,5.32,0,0,0-4.79-.2l-17.27,10c-1.23.71-1.08,1.95.34,2.77l16.59,9.57A5.32,5.32,0,0,0,149.38,40.46Z"></path><path class="cls-18" d="M149.84,50.07l32-18.49c2.28-1.31,2-3.61-.63-5.12L150.48,8.7a10.16,10.16,0,0,0-4.33-1.23,10.44,10.44,0,0,1,5.76,1.23l30.75,17.76c2.63,1.51,2.92,3.81.64,5.12l-32,18.49a8.42,8.42,0,0,1-4.56.87A7.35,7.35,0,0,0,149.84,50.07Z"></path><g class="cls-22"><path class="cls-23" d="M166.31,29.07l-16.59-9.58a5.32,5.32,0,0,0-4.79-.2l-17.28,10a1.77,1.77,0,0,0-.6.54,1.28,1.28,0,0,1,.6-1.89l17.28-10a5.32,5.32,0,0,1,4.79.2l16.59,9.58c1.11.64,1.44,1.53.95,2.23A2.56,2.56,0,0,0,166.31,29.07Z"></path><path class="cls-24" d="M166.31,30.7l-16.59-9.58a5.32,5.32,0,0,0-4.79-.2l-17.28,10a1.82,1.82,0,0,0-.51.42,1.29,1.29,0,0,1,.51-2.05l17.28-10a5.32,5.32,0,0,1,4.79.2l16.59,9.58c1.17.68,1.47,1.63.85,2.35A2.59,2.59,0,0,0,166.31,30.7Z"></path><path class="cls-25" d="M167,33.22a3.31,3.31,0,0,0-.69-.54l-16.59-9.57a5.32,5.32,0,0,0-4.79-.2l-17.28,10a2.3,2.3,0,0,0-.34.25,1.31,1.31,0,0,1,.34-2.23l17.28-10a5.32,5.32,0,0,1,4.79.2l16.59,9.58C167.58,31.43,167.83,32.49,167,33.22Z"></path></g><path class="cls-21" d="M136.11,83.93l1.78,1c.45.26.82,0,.82-.63V59.53a2,2,0,0,0-.82-1.58l-1.78-1c-.46-.26-.83,0-.83.63v24.8A2,2,0,0,0,136.11,83.93Z"></path><path class="cls-23" d="M136.11,56.92l.43.25V81.52a2,2,0,0,0,.82,1.58l1.35.78v.45c0,.61-.37.89-.82.63l-1.78-1a2,2,0,0,1-.83-1.58V57.55C135.28,56.94,135.65,56.66,136.11,56.92Z"></path><path class="cls-21" d="M129.57,80.15l1.77,1c.46.26.83,0,.83-.63V55.75a2,2,0,0,0-.83-1.58l-1.77-1c-.46-.27-.83,0-.83.62v24.8A2,2,0,0,0,129.57,80.15Z"></path><path class="cls-21" d="M123,76.37l1.78,1c.46.26.83,0,.83-.63V52a2,2,0,0,0-.83-1.58l-1.78-1c-.45-.27-.82,0-.82.62v24.8A2,2,0,0,0,123,76.37Z"></path><path class="cls-21" d="M116.48,72.6l1.78,1c.45.27.82,0,.82-.62V48.2a2,2,0,0,0-.82-1.59l-1.78-1c-.46-.26-.83,0-.83.62V71A2,2,0,0,0,116.48,72.6Z"></path><path class="cls-23" d="M129.57,53.15l.42.24V77.74a2,2,0,0,0,.83,1.59l1.35.77v.45c0,.61-.37.89-.83.63l-1.77-1a2,2,0,0,1-.83-1.58V53.77C128.74,53.16,129.11,52.88,129.57,53.15Z"></path><path class="cls-23" d="M123,49.37l.43.24V74a2,2,0,0,0,.83,1.58l1.35.78v.44c0,.61-.37.89-.83.63l-1.78-1a2,2,0,0,1-.82-1.58V50C122.2,49.38,122.57,49.1,123,49.37Z"></path><path class="cls-23" d="M116.48,45.59l.43.24V70.19a2,2,0,0,0,.82,1.58l1.35.78V73c0,.61-.37.89-.82.62l-1.78-1a2,2,0,0,1-.83-1.58V46.21C115.65,45.61,116,45.33,116.48,45.59Z"></path><path class="cls-26" d="M153.92,87a.94.94,0,0,1-.47-.12,1.4,1.4,0,0,1-.58-1.28V59.32a3.32,3.32,0,0,1,1.43-2.7l23.13-13.36a1.09,1.09,0,0,1,1.11-.07,1.41,1.41,0,0,1,.59,1.29V70.72a3.35,3.35,0,0,1-1.43,2.71L154.57,86.78A1.27,1.27,0,0,1,153.92,87Zm24.15-43.36a.77.77,0,0,0-.37.12L154.57,57.09a2.83,2.83,0,0,0-1.16,2.23V85.57a.93.93,0,0,0,.31.81.6.6,0,0,0,.58-.07L177.43,73a2.87,2.87,0,0,0,1.15-2.24V44.48a.9.9,0,0,0-.31-.81A.36.36,0,0,0,178.07,43.61Z"></path><ellipse class="cls-21" cx="175.73" cy="48.97" rx="1.59" ry="0.92" transform="translate(45.46 176.67) rotate(-60)"></ellipse><path class="cls-21" d="M174.6,53.27c0,.72.51,1,1.13.65a2.5,2.5,0,0,0,1.13-2c0-.72-.51-1-1.13-.65A2.5,2.5,0,0,0,174.6,53.27Z"></path><path class="cls-21" d="M174.6,56.92c0,.72.51,1,1.13.65a2.5,2.5,0,0,0,1.13-2c0-.71-.51-1-1.13-.65A2.51,2.51,0,0,0,174.6,56.92Z"></path><path class="cls-23" d="M175.17,57.13a2.49,2.49,0,0,0,1.12-2,1.18,1.18,0,0,0,0-.35c.36,0,.62.29.62.79a2.5,2.5,0,0,1-1.13,2c-.51.29-.93.15-1.07-.29A1.12,1.12,0,0,0,175.17,57.13Z"></path><path class="cls-23" d="M175.17,53.47a2.49,2.49,0,0,0,1.12-1.95,1.23,1.23,0,0,0,0-.35c.36,0,.62.29.62.8a2.5,2.5,0,0,1-1.13,2c-.51.29-.93.15-1.07-.3A1,1,0,0,0,175.17,53.47Z"></path><path class="cls-23" d="M175.17,49.82a2.49,2.49,0,0,0,1.12-2,1.18,1.18,0,0,0,0-.35c.36,0,.62.29.62.79a2.48,2.48,0,0,1-1.13,1.95c-.51.3-.93.15-1.07-.29A1,1,0,0,0,175.17,49.82Z"></path><path class="cls-26" d="M156,73.87l.75-.43a1,1,0,0,0,.42-.8V69.06c0-.31-.19-.45-.42-.31l-.75.43a1,1,0,0,0-.42.8v3.58C155.58,73.87,155.77,74,156,73.87Z"></path><path class="cls-27" d="M165,63.7h15.89l17.68-10.21c2.27-1.32,6.25-1.15,8.88.37l17,9.84h15.88v46h0a2.57,2.57,0,0,1-1.52,2.38l-32,18.49c-2.28,1.31-6.25,1.15-8.88-.37L167.17,112.4a3.76,3.76,0,0,1-2.16-2.75h0Z"></path><path class="cls-28" d="M167.17,111.66l30.75,17.76c2.63,1.51,6.6,1.68,8.88.36l32-18.49a2.57,2.57,0,0,0,1.52-2.38h0v.74h0a2.57,2.57,0,0,1-1.52,2.38l-32,18.49c-2.28,1.31-6.25,1.15-8.88-.37L167.17,112.4a3.76,3.76,0,0,1-2.16-2.75h0v-.74h0A3.73,3.73,0,0,0,167.17,111.66Z"></path><path class="cls-18" d="M239.35,110.38h0V64.43H223.48l-17-9.84c-2.63-1.52-6.61-1.68-8.89-.37L179.87,64.43H165V63.7h15.89l17.68-10.21c2.27-1.32,6.25-1.15,8.88.37l17,9.84h15.88v46h0a2.57,2.57,0,0,1-1.52,2.38l-.18.1A2.21,2.21,0,0,0,239.35,110.38Z"></path><path class="cls-13" d="M165.9,64.55v45.9h0a2.83,2.83,0,0,0,.76,1.63,3.44,3.44,0,0,1-1.66-2.43h0V63.8A5,5,0,0,1,165.9,64.55Z"></path><path class="cls-29" d="M206.8,84.56l32-18.48c2.27-1.32,2-3.62-.64-5.13L207.44,43.19c-2.63-1.51-6.61-1.68-8.88-.36l-32,18.49c-2.27,1.31-2,3.61.64,5.12L197.92,84.2C200.55,85.71,204.52,85.88,206.8,84.56Z"></path><path class="cls-13" d="M166.53,61.32l32-18.49A8.13,8.13,0,0,1,203,42a7.38,7.38,0,0,0-3.23.87l-32,18.49c-2.28,1.31-2,3.61.63,5.12L199.17,84.2a10.19,10.19,0,0,0,4.4,1.23,10.41,10.41,0,0,1-5.65-1.23L167.17,66.44C164.54,64.93,164.26,62.63,166.53,61.32Z"></path><path class="cls-30" d="M205.75,79.23l23.84-13.76c1.7-1,1.48-2.69-.47-3.82l-22.9-13.22a7.34,7.34,0,0,0-6.61-.27L175.77,61.92c-1.7,1-1.48,2.69.47,3.82L199.13,79A7.36,7.36,0,0,0,205.75,79.23Z"></path><path class="cls-21" d="M204.9,75l17.28-10c1.22-.71,1.07-2-.35-2.77l-16.58-9.57a5.32,5.32,0,0,0-4.79-.2l-17.28,10c-1.23.71-1.07,2,.35,2.77l16.58,9.57A5.32,5.32,0,0,0,204.9,75Z"></path><path class="cls-18" d="M205.37,84.56l32-18.48c2.28-1.32,2-3.62-.64-5.13L206,43.19A10.12,10.12,0,0,0,201.67,42a10.45,10.45,0,0,1,5.77,1.23L238.19,61c2.63,1.51,2.91,3.81.64,5.13l-32,18.48a8.27,8.27,0,0,1-4.55.87A7.39,7.39,0,0,0,205.37,84.56Z"></path><g class="cls-31"><path class="cls-23" d="M221.84,63.56,205.25,54a5.32,5.32,0,0,0-4.79-.2l-17.29,10a1.88,1.88,0,0,0-.6.54,1.28,1.28,0,0,1,.6-1.89l17.29-10a5.32,5.32,0,0,1,4.79.2l16.59,9.58c1.1.64,1.43,1.53.95,2.23A2.56,2.56,0,0,0,221.84,63.56Z"></path><path class="cls-24" d="M221.84,65.19l-16.59-9.58a5.32,5.32,0,0,0-4.79-.2l-17.29,10a1.92,1.92,0,0,0-.5.42,1.29,1.29,0,0,1,.5-2.05l17.29-10a5.32,5.32,0,0,1,4.79.2l16.59,9.58c1.17.68,1.46,1.63.85,2.35A2.81,2.81,0,0,0,221.84,65.19Z"></path><path class="cls-25" d="M222.52,67.71a2.92,2.92,0,0,0-.68-.53L205.25,57.6a5.32,5.32,0,0,0-4.79-.2l-17.29,10a2.19,2.19,0,0,0-.33.25,1.31,1.31,0,0,1,.33-2.23l17.29-10a5.32,5.32,0,0,1,4.79.2l16.59,9.58C223.11,65.92,223.36,67,222.52,67.71Z"></path></g><path class="cls-21" d="M191.64,118.42l1.77,1c.46.26.83,0,.83-.63V94a2,2,0,0,0-.83-1.58l-1.77-1c-.46-.26-.83,0-.83.63v24.8A2,2,0,0,0,191.64,118.42Z"></path><path class="cls-23" d="M191.64,91.41l.42.25V116a2,2,0,0,0,.83,1.58l1.35.78v.45c0,.61-.37.89-.83.63l-1.77-1a2,2,0,0,1-.83-1.58V92C190.81,91.43,191.18,91.15,191.64,91.41Z"></path><path class="cls-21" d="M185.09,114.64l1.78,1c.46.26.83,0,.83-.63V90.24a2,2,0,0,0-.83-1.58l-1.78-1c-.45-.27-.82,0-.82.62v24.8A2,2,0,0,0,185.09,114.64Z"></path><path class="cls-21" d="M178.55,110.87l1.78,1c.45.26.82,0,.82-.63V86.46a2,2,0,0,0-.82-1.58l-1.78-1c-.46-.27-.83,0-.83.62v24.8A2,2,0,0,0,178.55,110.87Z"></path><path class="cls-21" d="M172,107.09l1.77,1c.46.27.83,0,.83-.62V82.69a2,2,0,0,0-.83-1.59l-1.77-1c-.46-.26-.83,0-.83.63v24.8A2,2,0,0,0,172,107.09Z"></path><path class="cls-23" d="M185.09,87.64l.43.24v24.35a2,2,0,0,0,.83,1.59l1.35.78V115c0,.61-.37.89-.83.63l-1.78-1a2,2,0,0,1-.82-1.58V88.26C184.27,87.65,184.64,87.37,185.09,87.64Z"></path><path class="cls-23" d="M178.55,83.86l.43.24v24.36a2,2,0,0,0,.82,1.58l1.35.78v.44c0,.61-.37.89-.82.63l-1.78-1a2,2,0,0,1-.83-1.59V84.48C177.72,83.87,178.09,83.59,178.55,83.86Z"></path><path class="cls-23" d="M172,80.08l.42.25v24.35a2,2,0,0,0,.83,1.58l1.35.78v.45c0,.61-.37.89-.83.62l-1.77-1a2,2,0,0,1-.83-1.58V80.71C171.18,80.1,171.55,79.82,172,80.08Z"></path><path class="cls-26" d="M209.44,121.47a.94.94,0,0,1-.46-.13,1.39,1.39,0,0,1-.59-1.28V93.82a3.35,3.35,0,0,1,1.43-2.71L233,77.75a1.08,1.08,0,0,1,1.12-.06,1.4,1.4,0,0,1,.58,1.28v26.24a3.32,3.32,0,0,1-1.43,2.71l-23.13,13.35A1.29,1.29,0,0,1,209.44,121.47ZM233.6,78.11a.8.8,0,0,0-.38.11L210.09,91.58a2.85,2.85,0,0,0-1.15,2.24v26.24a.91.91,0,0,0,.31.81.58.58,0,0,0,.57-.07L233,107.45a2.85,2.85,0,0,0,1.16-2.24V79a.92.92,0,0,0-.31-.81A.35.35,0,0,0,233.6,78.11Z"></path><path class="cls-21" d="M230.13,84.11c0,.72.5,1,1.13.65a2.49,2.49,0,0,0,1.12-2c0-.72-.5-1-1.12-.65A2.47,2.47,0,0,0,230.13,84.11Z"></path><ellipse class="cls-21" cx="231.26" cy="87.11" rx="1.59" ry="0.92" transform="translate(40.19 243.83) rotate(-60)"></ellipse><path class="cls-21" d="M230.13,91.41c0,.72.5,1,1.13.65a2.49,2.49,0,0,0,1.12-2c0-.71-.5-1-1.12-.65A2.48,2.48,0,0,0,230.13,91.41Z"></path><path class="cls-23" d="M230.69,91.62a2.5,2.5,0,0,0,1.13-2,1.16,1.16,0,0,0-.06-.35c.37,0,.62.29.62.79a2.49,2.49,0,0,1-1.12,2c-.51.3-.93.15-1.07-.29A1.05,1.05,0,0,0,230.69,91.62Z"></path><path class="cls-23" d="M230.69,88A2.48,2.48,0,0,0,231.82,86a1.28,1.28,0,0,0-.06-.35c.37,0,.62.29.62.8a2.49,2.49,0,0,1-1.12,2c-.51.29-.93.15-1.07-.3A1,1,0,0,0,230.69,88Z"></path><path class="cls-23" d="M230.69,84.31a2.5,2.5,0,0,0,1.13-2,1.22,1.22,0,0,0-.06-.35c.37,0,.62.29.62.8a2.5,2.5,0,0,1-1.12,2c-.51.29-.93.14-1.07-.3A1,1,0,0,0,230.69,84.31Z"></path><path class="cls-26" d="M211.53,108.36l.74-.43a1,1,0,0,0,.42-.8v-3.58c0-.3-.19-.45-.42-.31l-.74.43a1,1,0,0,0-.42.8v3.58C211.11,108.36,211.3,108.5,211.53,108.36Z"></path><path class="cls-32" d="M54.92,63.34H70.8L88.48,53.13c2.28-1.31,6.26-1.15,8.89.37l17,9.84h15.87v46h0a2.58,2.58,0,0,1-1.53,2.38l-32,18.49c-2.28,1.32-6.25,1.15-8.88-.36L57.1,112a3.74,3.74,0,0,1-2.17-2.75h0Z"></path><path class="cls-33" d="M57.1,111.31l30.75,17.75c2.63,1.52,6.6,1.68,8.88.37l32-18.49a2.58,2.58,0,0,0,1.53-2.38h0v.73h0a2.58,2.58,0,0,1-1.53,2.38l-32,18.49c-2.28,1.32-6.25,1.15-8.88-.36L57.1,112a3.74,3.74,0,0,1-2.17-2.75h0v-.73h0A3.78,3.78,0,0,0,57.1,111.31Z"></path><path class="cls-18" d="M129.28,110h0V64.08H113.41l-17-9.84c-2.63-1.52-6.61-1.69-8.89-.37L69.8,64.08H54.92v-.74H70.8L88.48,53.13c2.28-1.31,6.26-1.15,8.89.37l17,9.84h15.87v46h0a2.58,2.58,0,0,1-1.53,2.38l-.18.11A2.25,2.25,0,0,0,129.28,110Z"></path><path class="cls-13" d="M55.82,64.19V110.1h0a2.79,2.79,0,0,0,.75,1.62,3.47,3.47,0,0,1-1.66-2.43h0V63.45A4.28,4.28,0,0,1,55.82,64.19Z"></path><path class="cls-34" d="M96.73,84.21l32-18.49c2.28-1.31,2-3.61-.63-5.13L97.37,42.84c-2.63-1.52-6.61-1.68-8.89-.37L56.46,61c-2.28,1.31-2,3.61.64,5.13L87.85,83.84C90.48,85.36,94.45,85.52,96.73,84.21Z"></path><path class="cls-13" d="M56.46,61l32-18.49A8.35,8.35,0,0,1,93,41.6a7.48,7.48,0,0,0-3.23.87L57.71,61c-2.27,1.31-2,3.61.64,5.13L89.1,83.84a10.19,10.19,0,0,0,4.4,1.24,10.51,10.51,0,0,1-5.65-1.24L57.1,66.09C54.47,64.57,54.18,62.27,56.46,61Z"></path><path class="cls-35" d="M95.68,78.88l23.84-13.77c1.69-1,1.48-2.69-.48-3.82L96.15,48.08a7.34,7.34,0,0,0-6.61-.28L65.7,61.57c-1.7,1-1.49,2.69.47,3.82L89.06,78.6A7.36,7.36,0,0,0,95.68,78.88Z"></path><path class="cls-21" d="M94.83,74.6l17.27-10c1.23-.71,1.08-1.94-.34-2.76L95.18,52.28a5.34,5.34,0,0,0-4.8-.2l-17.27,10c-1.23.71-1.07,1.94.34,2.76L90,74.4A5.32,5.32,0,0,0,94.83,74.6Z"></path><path class="cls-18" d="M95.29,84.21l32-18.49c2.27-1.31,2-3.61-.64-5.13L95.93,42.84a10.16,10.16,0,0,0-4.33-1.23,10.49,10.49,0,0,1,5.77,1.23l30.75,17.75c2.63,1.52,2.91,3.82.63,5.13l-32,18.49a8.29,8.29,0,0,1-4.55.86A7.3,7.3,0,0,0,95.29,84.21Z"></path><g class="cls-36"><path class="cls-23" d="M111.77,63.21,95.18,53.63a5.34,5.34,0,0,0-4.8-.2l-17.28,10a1.77,1.77,0,0,0-.6.54,1.27,1.27,0,0,1,.6-1.89l17.28-10a5.34,5.34,0,0,1,4.8.2l16.59,9.58c1.1.63,1.43,1.52,1,2.22A2.71,2.71,0,0,0,111.77,63.21Z"></path><path class="cls-24" d="M111.77,64.83,95.18,55.25a5.37,5.37,0,0,0-4.8-.19L73.1,65a2,2,0,0,0-.5.43,1.29,1.29,0,0,1,.5-2l17.28-10a5.34,5.34,0,0,1,4.8.2l16.59,9.58c1.17.67,1.46,1.63.85,2.34A3,3,0,0,0,111.77,64.83Z"></path><path class="cls-25" d="M112.45,67.36a2.94,2.94,0,0,0-.68-.54L95.18,57.24a5.34,5.34,0,0,0-4.8-.2L73.1,67a1.76,1.76,0,0,0-.34.25A1.32,1.32,0,0,1,73.1,65l17.28-10a5.37,5.37,0,0,1,4.8.19l16.59,9.58C113,65.57,113.29,66.63,112.45,67.36Z"></path></g><path class="cls-21" d="M81.56,118.07l1.78,1c.46.27.83,0,.83-.62V93.67a2,2,0,0,0-.83-1.59l-1.78-1c-.45-.27-.82,0-.82.62v24.81A2,2,0,0,0,81.56,118.07Z"></path><path class="cls-23" d="M81.56,91.06l.43.24v24.36a2,2,0,0,0,.83,1.58l1.35.78v.45c0,.61-.37.89-.83.62l-1.78-1a2,2,0,0,1-.82-1.58V91.68C80.74,91.08,81.11,90.79,81.56,91.06Z"></path><path class="cls-21" d="M75,114.29l1.78,1c.45.27.82,0,.82-.62V89.89a2,2,0,0,0-.82-1.58l-1.78-1c-.46-.26-.83,0-.83.63v24.8A2,2,0,0,0,75,114.29Z"></path><path class="cls-21" d="M68.48,110.51l1.77,1c.46.26.83,0,.83-.63V86.11a2,2,0,0,0-.83-1.58l-1.77-1c-.46-.26-.83,0-.83.63v24.8A2,2,0,0,0,68.48,110.51Z"></path><path class="cls-21" d="M61.93,106.73l1.78,1c.46.26.83,0,.83-.63V82.33a2,2,0,0,0-.83-1.58l-1.78-1c-.45-.26-.82,0-.82.63v24.8A2,2,0,0,0,61.93,106.73Z"></path><path class="cls-23" d="M75,87.28l.43.25v24.35a2,2,0,0,0,.82,1.58l1.35.78v.45c0,.61-.37.89-.82.62l-1.78-1a2,2,0,0,1-.83-1.58V87.91C74.19,87.3,74.56,87,75,87.28Z"></path><path class="cls-23" d="M68.48,83.5l.42.25V108.1a2,2,0,0,0,.83,1.58l1.35.78v.45c0,.61-.37.89-.83.63l-1.77-1a2,2,0,0,1-.83-1.58V84.13C67.65,83.52,68,83.24,68.48,83.5Z"></path><path class="cls-23" d="M61.93,79.72l.43.25v24.35a2,2,0,0,0,.83,1.59l1.35.77v.45c0,.61-.37.89-.83.63l-1.78-1a2,2,0,0,1-.82-1.58V80.35C61.11,79.74,61.48,79.46,61.93,79.72Z"></path><path class="cls-26" d="M99.37,121.11a1,1,0,0,1-.47-.12,1.43,1.43,0,0,1-.58-1.29V93.46a3.35,3.35,0,0,1,1.43-2.71L122.88,77.4a1.09,1.09,0,0,1,1.12-.07,1.4,1.4,0,0,1,.58,1.28v26.25a3.38,3.38,0,0,1-1.43,2.71L100,120.92A1.27,1.27,0,0,1,99.37,121.11Zm24.16-43.36a.81.81,0,0,0-.38.12L100,91.22a2.85,2.85,0,0,0-1.16,2.24V119.7a1,1,0,0,0,.31.82.62.62,0,0,0,.58-.07l23.13-13.36a2.83,2.83,0,0,0,1.16-2.23V78.61a.93.93,0,0,0-.31-.81A.49.49,0,0,0,123.53,77.75Z"></path><path class="cls-21" d="M120.06,83.76c0,.71.5,1,1.12.64a2.45,2.45,0,0,0,1.13-1.94c0-.72-.5-1-1.13-.65A2.47,2.47,0,0,0,120.06,83.76Z"></path><ellipse class="cls-21" cx="121.18" cy="86.76" rx="1.59" ry="0.92" transform="translate(-14.54 148.33) rotate(-60)"></ellipse><path class="cls-21" d="M120.06,91.06c0,.72.5,1,1.12.65a2.47,2.47,0,0,0,1.13-1.95c0-.72-.5-1-1.13-.65A2.49,2.49,0,0,0,120.06,91.06Z"></path><path class="cls-23" d="M120.62,91.26a2.5,2.5,0,0,0,1.13-2,1.22,1.22,0,0,0-.06-.35c.37,0,.62.29.62.8a2.47,2.47,0,0,1-1.13,1.95c-.5.29-.92.15-1.07-.3A1,1,0,0,0,120.62,91.26Z"></path><path class="cls-23" d="M120.62,87.61a2.5,2.5,0,0,0,1.13-2,1.16,1.16,0,0,0-.06-.35c.37,0,.62.29.62.79a2.45,2.45,0,0,1-1.13,2c-.5.3-.92.15-1.07-.29A1,1,0,0,0,120.62,87.61Z"></path><path class="cls-23" d="M120.62,84A2.51,2.51,0,0,0,121.75,82a1.29,1.29,0,0,0-.06-.36c.37,0,.62.29.62.8a2.47,2.47,0,0,1-1.13,2c-.5.29-.92.15-1.07-.3A1,1,0,0,0,120.62,84Z"></path><path class="cls-26" d="M101.45,108l.75-.43a1,1,0,0,0,.42-.8V103.2c0-.31-.19-.45-.42-.32l-.75.43a1,1,0,0,0-.41.8v3.58C101,108,101.22,108.14,101.45,108Z"></path><path class="cls-37" d="M110.45,97.83h15.88L144,87.62c2.28-1.31,6.25-1.15,8.88.37l17.05,9.84h15.87v46h0a2.6,2.6,0,0,1-1.53,2.38l-32,18.49c-2.28,1.31-6.26,1.15-8.89-.37l-30.75-17.76a3.76,3.76,0,0,1-2.16-2.74h0Z"></path><path class="cls-38" d="M112.62,145.8l30.75,17.75c2.63,1.52,6.61,1.68,8.89.37l32-18.49a2.59,2.59,0,0,0,1.53-2.38h0v.74h0a2.6,2.6,0,0,1-1.53,2.38l-32,18.49c-2.28,1.31-6.26,1.15-8.89-.37l-30.75-17.76a3.76,3.76,0,0,1-2.16-2.74h0v-.74h0A3.79,3.79,0,0,0,112.62,145.8Z"></path><path class="cls-18" d="M184.8,144.52h0v-46H168.93l-17-9.84c-2.63-1.52-6.6-1.69-8.88-.37L125.33,98.57H110.45v-.74h15.88L144,87.62c2.28-1.31,6.25-1.15,8.88.37l17.05,9.84h15.87v46h0a2.6,2.6,0,0,1-1.53,2.38l-.18.1A2.23,2.23,0,0,0,184.8,144.52Z"></path><path class="cls-13" d="M111.35,98.69v45.9h0a2.81,2.81,0,0,0,.76,1.62,3.44,3.44,0,0,1-1.66-2.42h0V97.94A4.54,4.54,0,0,1,111.35,98.69Z"></path><path class="cls-39" d="M152.26,118.7l32-18.49c2.28-1.31,2-3.61-.64-5.13L152.89,77.33c-2.63-1.52-6.6-1.68-8.88-.37L112,95.45c-2.28,1.32-2,3.61.63,5.13l30.75,17.75C146,119.85,150,120,152.26,118.7Z"></path><path class="cls-13" d="M112,95.45,144,77a8.24,8.24,0,0,1,4.48-.86,7.38,7.38,0,0,0-3.23.86l-32,18.49c-2.28,1.32-2,3.61.64,5.13l30.74,17.75a10.2,10.2,0,0,0,4.41,1.24,10.52,10.52,0,0,1-5.66-1.24l-30.75-17.75C110,99.06,109.71,96.77,112,95.45Z"></path><path class="cls-40" d="M151.2,113.37,175,99.6c1.7-1,1.49-2.69-.47-3.82L151.68,82.57a7.36,7.36,0,0,0-6.62-.28L121.22,96.06c-1.69,1-1.48,2.69.48,3.82l22.89,13.21A7.34,7.34,0,0,0,151.2,113.37Z"></path><path class="cls-21" d="M150.36,109.09l17.27-10c1.23-.7,1.07-1.94-.34-2.76L150.7,86.77a5.35,5.35,0,0,0-4.79-.2l-17.27,10c-1.23.71-1.08,1.94.34,2.76l16.58,9.58A5.34,5.34,0,0,0,150.36,109.09Z"></path><path class="cls-18" d="M150.82,118.7l32-18.49c2.28-1.31,2-3.61-.63-5.13L151.46,77.33a10.16,10.16,0,0,0-4.33-1.23,10.44,10.44,0,0,1,5.76,1.23l30.75,17.75c2.63,1.52,2.92,3.82.64,5.13l-32,18.49a8.33,8.33,0,0,1-4.56.86A7.34,7.34,0,0,0,150.82,118.7Z"></path><g class="cls-41"><path class="cls-23" d="M167.29,97.7,150.7,88.12a5.32,5.32,0,0,0-4.79-.2l-17.28,10a1.81,1.81,0,0,0-.61.54,1.28,1.28,0,0,1,.61-1.89l17.28-10a5.32,5.32,0,0,1,4.79.2l16.59,9.58c1.11.64,1.43,1.52,1,2.22A2.62,2.62,0,0,0,167.29,97.7Z"></path><path class="cls-24" d="M167.29,99.32,150.7,89.75a5.32,5.32,0,0,0-4.79-.2l-17.28,10a1.84,1.84,0,0,0-.51.43,1.29,1.29,0,0,1,.51-2l17.28-10a5.32,5.32,0,0,1,4.79.2l16.59,9.58c1.17.67,1.47,1.63.85,2.34A2.85,2.85,0,0,0,167.29,99.32Z"></path><path class="cls-25" d="M168,101.85a3,3,0,0,0-.69-.54L150.7,91.73a5.32,5.32,0,0,0-4.79-.2l-17.28,10a2.3,2.3,0,0,0-.34.25,1.31,1.31,0,0,1,.34-2.24l17.28-10a5.32,5.32,0,0,1,4.79.2l16.59,9.57C168.56,100.06,168.81,101.12,168,101.85Z"></path></g><path class="cls-21" d="M137.09,152.56l1.78,1c.45.27.82,0,.82-.62v-24.8a2,2,0,0,0-.82-1.59l-1.78-1c-.46-.26-.83,0-.83.63V151A2,2,0,0,0,137.09,152.56Z"></path><path class="cls-23" d="M137.09,125.55l.43.25v24.35a2,2,0,0,0,.82,1.58l1.35.78V153c0,.61-.37.89-.82.62l-1.78-1a2,2,0,0,1-.83-1.58v-24.8C136.26,125.57,136.63,125.29,137.09,125.55Z"></path><path class="cls-21" d="M130.55,148.78l1.77,1c.46.27.83,0,.83-.62v-24.8a2,2,0,0,0-.83-1.58l-1.77-1c-.46-.26-.83,0-.83.63v24.8A2,2,0,0,0,130.55,148.78Z"></path><path class="cls-21" d="M124,145l1.78,1c.46.26.83,0,.83-.63V120.6a2,2,0,0,0-.83-1.58L124,118c-.45-.26-.82,0-.82.63v24.8A2,2,0,0,0,124,145Z"></path><path class="cls-21" d="M117.46,141.22l1.78,1c.45.26.82,0,.82-.63v-24.8a2,2,0,0,0-.82-1.58l-1.78-1c-.46-.27-.83,0-.83.62v24.8A2,2,0,0,0,117.46,141.22Z"></path><path class="cls-23" d="M130.55,121.77l.42.25v24.35a2,2,0,0,0,.83,1.58l1.35.78v.45c0,.61-.37.89-.83.62l-1.77-1a2,2,0,0,1-.83-1.58V122.4C129.72,121.79,130.09,121.51,130.55,121.77Z"></path><path class="cls-23" d="M124,118l.43.25v24.35a2,2,0,0,0,.83,1.58l1.35.78v.45c0,.61-.37.89-.83.63L124,145a2,2,0,0,1-.82-1.58v-24.8C123.18,118,123.55,117.73,124,118Z"></path><path class="cls-23" d="M117.46,114.22l.43.24v24.35a2,2,0,0,0,.82,1.59l1.35.78v.44c0,.61-.37.89-.82.63l-1.78-1a2,2,0,0,1-.83-1.58v-24.8C116.63,114.23,117,114,117.46,114.22Z"></path><path class="cls-26" d="M154.9,155.6a.94.94,0,0,1-.47-.12,1.42,1.42,0,0,1-.58-1.29V128a3.35,3.35,0,0,1,1.43-2.71l23.12-13.35a1.09,1.09,0,0,1,1.12-.07,1.41,1.41,0,0,1,.59,1.28v26.25a3.38,3.38,0,0,1-1.43,2.71l-23.13,13.35A1.27,1.27,0,0,1,154.9,155.6Zm24.15-43.36a.77.77,0,0,0-.37.12l-23.13,13.35a2.86,2.86,0,0,0-1.16,2.24v26.24a1,1,0,0,0,.31.82.63.63,0,0,0,.58-.07l23.12-13.36a2.83,2.83,0,0,0,1.16-2.23V113.1a.91.91,0,0,0-.31-.81A.46.46,0,0,0,179.05,112.24Z"></path><path class="cls-21" d="M175.58,118.25c0,.71.51,1,1.13.65a2.5,2.5,0,0,0,1.12-2c0-.72-.5-1-1.12-.65A2.48,2.48,0,0,0,175.58,118.25Z"></path><path class="cls-21" d="M175.58,121.9c0,.72.51,1,1.13.65a2.49,2.49,0,0,0,1.12-2c0-.72-.5-1-1.12-.65A2.5,2.5,0,0,0,175.58,121.9Z"></path><ellipse class="cls-21" cx="176.71" cy="124.9" rx="1.59" ry="0.92" transform="translate(-19.81 215.48) rotate(-60)"></ellipse><path class="cls-23" d="M176.15,125.75a2.47,2.47,0,0,0,1.12-2,1.29,1.29,0,0,0-.05-.35c.36,0,.61.29.61.8a2.49,2.49,0,0,1-1.12,2c-.51.29-.93.15-1.07-.3A1,1,0,0,0,176.15,125.75Z"></path><path class="cls-23" d="M176.15,122.1a2.49,2.49,0,0,0,1.12-1.95,1.23,1.23,0,0,0-.05-.35c.36,0,.61.29.61.8a2.5,2.5,0,0,1-1.12,2c-.51.29-.93.14-1.07-.3A1,1,0,0,0,176.15,122.1Z"></path><path class="cls-23" d="M176.15,118.45a2.5,2.5,0,0,0,1.12-2,1.3,1.3,0,0,0-.05-.36c.36,0,.61.29.61.8a2.49,2.49,0,0,1-1.12,2c-.51.29-.93.15-1.07-.3A1.09,1.09,0,0,0,176.15,118.45Z"></path><path class="cls-26" d="M157,142.5l.75-.43a1,1,0,0,0,.41-.8v-3.58c0-.31-.18-.45-.41-.32l-.75.43a1,1,0,0,0-.42.8v3.58C156.56,142.49,156.75,142.63,157,142.5Z"></path></g></g></g></svg>