<svg xmlns="http://www.w3.org/2000/svg" xmlns:xlink="http://www.w3.org/1999/xlink" id="Capa_1" x="0px" y="0px" viewBox="0 0 236.7 236.7" style="enable-background:new 0 0 236.7 236.7;" xml:space="preserve">
<style type="text/css">
	.st0{clip-path:url(#SVGID_2_);fill:url(#SVGID_3_);}
</style>
<g>
	<defs>
		<path id="SVGID_1_" d="M176.4,66.1l-20.7,42.5c0.6,1.7,1,3.5,1.3,5.4c1.2,8.1-0.9,16.1-5.8,22.7c-5.7,7.7-14.9,12.3-24.5,12.3    c-6.6,0-13-2.1-18.3-6.1c-6.5-4.9-10.8-12-12-20.1s0.9-16.1,5.8-22.7c5.7-7.7,14.9-12.3,24.5-12.3c1.4,0,2.8,0.1,4.2,0.3    l33.7-30.8c2.7-2.4,6.7-2.6,9.6-0.5C177,58.9,178,62.8,176.4,66.1z M126.6,8.3c-23.3,0-45.6,7.2-64.4,20.8    c-5.6,4-6.8,11.9-2.8,17.5c4,5.6,11.9,6.9,17.5,2.8c14.6-10.5,31.8-16.1,49.8-16.1c46.9,0,85.1,38.2,85.1,85.1    s-38.2,85.1-85.1,85.1c-45.9,0-83.3-36.5-85-82L51,123c0.6,0.1,1.1,0.1,1.7,0.1c0,0,0.1,0,0.1,0c5.5-0.1,9.9-4.5,9.9-10    c0-1.5-0.3-2.8-0.9-4.1L47,69.1c-1.2-3.3-4.2-5.8-7.7-6.4c-3.5-0.6-7.1,0.7-9.4,3.5L2.3,99.5c-2.3,2.8-2.9,6.5-1.7,9.9    c1.2,3.4,4.2,5.8,7.7,6.4l8.3,1.4c0,0.4-0.1,0.8-0.1,1.2c0,60.7,49.4,110.1,110.1,110.1S236.7,179,236.7,118.4    S187.3,8.3,126.6,8.3z"></path>
	</defs>
	<clipPath id="SVGID_2_">
		<use xlink:href="#SVGID_1_" style="overflow:visible;"></use>
	</clipPath>
	<linearGradient id="SVGID_3_" gradientUnits="userSpaceOnUse" x1="-19.6126" y1="91.0434" x2="256.6126" y2="144.7361">
		<stop offset="0.3084" style="stop-color:#F29100"></stop>
		<stop offset="0.5093" style="stop-color:#EE7A09"></stop>
		<stop offset="0.8247" style="stop-color:#EA5A16"></stop>
		<stop offset="1" style="stop-color:#E84E1B"></stop>
	</linearGradient>
	<rect x="-1.5" y="-2.1" class="st0" width="240" height="240"></rect>
</g>
</svg>