<svg xmlns="http://www.w3.org/2000/svg" xmlns:xlink="http://www.w3.org/1999/xlink" id="Capa_1" x="0px" y="0px" viewBox="0 0 481 481" style="enable-background:new 0 0 481 481;" xml:space="preserve">
<style type="text/css">
	.st0{clip-path:url(#SVGID_2_);fill:url(#SVGID_3_);}
</style>
<g>
	<defs>
		<path id="SVGID_1_" d="M372.3,143.8c62,0,108.7-24.1,108.7-56.1s-46.7-56.1-108.7-56.1S263.6,55.6,263.6,87.6    C263.6,119.6,310.3,143.8,372.3,143.8z M372.3,55.6c51.7,0,84.7,19,84.7,32.1s-33,32.1-84.7,32.1s-84.7-19-84.7-32.1    S320.6,55.6,372.3,55.6z M471.9,144.9c-6.2-2.3-13.1,0.9-15.4,7.1c-5.1,13.9-38.7,28.9-84.1,28.9c-44.2,0-77.3-14.2-83.7-27.9    c-2.8-6-10-8.6-16-5.8s-8.6,10-5.8,16c11.7,25,54.1,41.7,105.5,41.7c24.5,0,48.3-4,67.2-11.4c20.8-8.1,34.5-19.6,39.5-33.3    C481.3,154.1,478.1,147.1,471.9,144.9z M471.9,206.1c-6.2-2.3-13.1,0.9-15.4,7.1c-5.1,13.9-38.7,28.9-84.1,28.9    c-44.2,0-77.3-14.2-83.7-27.9c-2.8-6-10-8.6-16-5.8s-8.6,10-5.8,16c11.7,25,54.1,41.7,105.5,41.7c24.5,0,48.3-4,67.2-11.4    c20.8-8.1,34.5-19.6,39.5-33.3C481.3,215.2,478.1,208.4,471.9,206.1z M471.9,267.1c-6.2-2.3-13.1,0.9-15.4,7.1    c-5.1,13.9-38.7,28.9-84.1,28.9c-44.2,0-77.3-14.2-83.7-27.9c-2.8-6-10-8.6-16-5.8c-6,2.8-8.6,10-5.8,16    c11.7,25,54.1,41.7,105.5,41.7c24.5,0,48.3-4,67.2-11.4c20.8-8.1,34.5-19.6,39.5-33.3C481.3,276.4,478.1,269.5,471.9,267.1z     M471.9,328.4c-6.2-2.3-13.1,0.9-15.4,7.1c-5.1,13.9-38.7,28.9-84.1,28.9c-44.2,0-77.3-14.2-83.7-27.9c-2.8-6-10-8.6-16-5.8    c-6,2.8-8.6,10-5.8,16c11.7,25,54.1,41.7,105.5,41.7c24.5,0,48.3-4,67.2-11.4c20.8-8.1,34.5-19.6,39.5-33.3    C481.3,337.5,478.1,330.5,471.9,328.4z M471.9,389.5c-6.2-2.3-13.1,0.9-15.4,7.1c-5.1,13.9-38.7,28.9-84.1,28.9    c-44.2,0-77.3-14.2-83.7-27.9c-2.8-6-10-8.6-16-5.8c-6,2.8-8.6,10-5.8,16c11.7,25,54.1,41.7,105.5,41.7c24.5,0,48.3-4,67.2-11.4    c20.8-8.1,34.5-19.6,39.5-33.3C481.3,398.6,478.1,391.8,471.9,389.5z M208.2,267.1c-6.2-2.3-13.1,0.9-15.4,7.1    c-5.1,13.9-38.7,28.9-84.1,28.9c-44.2,0-77.3-14.2-83.7-27.9c-2.8-6-10-8.6-16-5.8c-6,2.8-8.6,10-5.8,16    c11.7,25,54.1,41.7,105.5,41.7c24.5,0,48.3-4,67.2-11.4c20.8-8.1,34.5-19.6,39.5-33.3C217.6,276.4,214.4,269.5,208.2,267.1z     M208.2,328.4c-6.2-2.3-13.1,0.9-15.4,7.1c-5.1,13.9-38.7,28.9-84.1,28.9c-44.2,0-77.3-14.2-83.7-27.9c-2.8-6-10-8.6-16-5.8    c-6,2.8-8.6,10-5.8,16c11.7,25,54.1,41.7,105.5,41.7c24.5,0,48.3-4,67.2-11.4c20.8-8.1,34.5-19.6,39.5-33.3    C217.6,337.5,214.4,330.5,208.2,328.4z M208.2,389.5c-6.2-2.3-13.1,0.9-15.4,7.1c-5.1,13.9-38.7,28.9-84.1,28.9    c-44.2,0-77.3-14.2-83.7-27.9c-2.8-6-10-8.6-16-5.8c-6,2.8-8.6,10-5.8,16c11.7,25,54.1,41.7,105.5,41.7c24.5,0,48.3-4,67.2-11.4    c20.8-8.1,34.5-19.6,39.5-33.3C217.6,398.6,214.4,391.8,208.2,389.5z M108.7,153.9C46.7,153.9,0,178,0,210s46.7,56.1,108.7,56.1    S217.4,242,217.4,210S170.7,153.9,108.7,153.9z M108.7,242.1C57,242.1,24,223.1,24,210s33-32.1,84.7-32.1s84.7,19,84.7,32.1    S160.4,242.1,108.7,242.1z"></path>
	</defs>
	<clipPath id="SVGID_2_">
		<use xlink:href="#SVGID_1_" style="overflow:visible;"></use>
	</clipPath>
	<linearGradient id="SVGID_3_" gradientUnits="userSpaceOnUse" x1="-36.2903" y1="187.0872" x2="517.2903" y2="294.6924">
		<stop offset="0.3084" style="stop-color:#F29100"></stop>
		<stop offset="0.5093" style="stop-color:#EE7A09"></stop>
		<stop offset="0.8247" style="stop-color:#EA5A16"></stop>
		<stop offset="1" style="stop-color:#E84E1B"></stop>
	</linearGradient>
	<rect y="0.4" class="st0" width="481" height="481"></rect>
</g>
</svg>