<?xml version="1.0" encoding="utf-8"?>
<!-- Generator: Adobe Illustrator 24.0.1, SVG Export Plug-In . SVG Version: 6.00 Build 0)  -->
<svg version="1.1" id="Capa_1" xmlns="http://www.w3.org/2000/svg" xmlns:xlink="http://www.w3.org/1999/xlink" x="0px" y="0px"
	 viewBox="0 0 949.5 720.5" style="enable-background:new 0 0 949.5 720.5;" xml:space="preserve">
<style type="text/css">
	.st0{fill:#FFFFFF;}
</style>
<path class="st0" d="M257.7,0h-11.9L0,245.8l474.7,474.7C633,562.3,791.2,404.1,949.5,245.8L703.7,0H257.7z M257.7,69.6L405.2,217
	H110.3L257.7,69.6z M110.3,274.6h294.9L257.7,422L110.3,274.6z M446,610.4L298.5,462.8L446,315.3V610.4z M474.7,205.1L446,176.4
	L327.3,57.6h294.9l0,0L474.7,205.1z M503.4,610.4V315.3L651,462.8L503.4,610.4z M691.7,422L544.3,274.6h294.9L691.7,422z M544.3,217
	L691.7,69.6L839.2,217H544.3z"/>
<title>diamond</title>
</svg>
