<svg xmlns="http://www.w3.org/2000/svg" xmlns:xlink="http://www.w3.org/1999/xlink" id="Capa_1" x="0px" y="0px" viewBox="0 0 257.7 257.7" style="enable-background:new 0 0 257.7 257.7;" xml:space="preserve">
<style type="text/css">
	.st0{opacity:0.4;fill:#FFFFFF;}
	.st1{fill:#FFFFFF;}
	.st2{fill:#1D1D1B;}
	.st3{fill:url(#SVGID_1_);}
	.st4{clip-path:url(#SVGID_3_);}
	.st5{fill:url(#SVGID_4_);}
</style>
<g>
	<circle class="st0" cx="128.9" cy="128.9" r="127.5"></circle>
	<g>
		<path class="st1" d="M59.6,47.9c10.1-9.6,22.2-17.2,35.3-22.4c6.6-2.6,13.4-4.6,20.4-5.8c7-1.3,14.1-2,21.2-2    c14.3,0,28.6,2.8,42,8.3c13.4,5.4,25.8,13.4,36.4,23.5l0,0c2.2,2.1,2.3,5.6,0.2,7.8c-2.1,2.2-5.6,2.3-7.8,0.2    c-0.1-0.1-0.2-0.2-0.3-0.3c-8.9-9.7-19.8-17.9-31.9-23.7c-12.1-5.8-25.3-9.4-38.9-10.3c-6.8-0.5-13.6-0.3-20.4,0.5    c-6.8,0.8-13.5,2.3-20.1,4.3C82.7,32.3,70.3,39,59.6,47.9z"></path>
	</g>
	<circle class="st1" cx="128.9" cy="128.9" r="96.3"></circle>
	<title>Recurso 18</title>
	<g id="Capa_2_1_">
		<g id="Capa_1-2">
			<path class="st2" d="M171.7,117.6c8.9,11.9,7.7,25.3,4.5,34.2c-2.3,5.9-6.2,11-11.3,14.8c-6.7,5-15.4,7.6-25.8,7.6h-1.9h-5.6     l2.8-12.5h2.8c0.6,0,1.3,0,1.9,0h6c12.9-0.3,23-11,22.8-23.8c-0.3-12.5-10.4-22.5-22.8-22.8h-15.9h-0.7c-1.9-0.2-3.3-1.9-3.1-3.8     c0.2-1.7,1.6-3.1,3.4-3.1h40.7l4.6-18.9h-23.6l2.8-12.6h33.9l-9.1,40.9H171.7z"></path>
			
				<linearGradient id="SVGID_1_" gradientUnits="userSpaceOnUse" x1="7.7326" y1="797.3889" x2="121.2475" y2="797.3889" gradientTransform="matrix(1 0 0 1 42.87 -684.941)">
				<stop offset="0.31" style="stop-color:#F39200"></stop>
				<stop offset="0.51" style="stop-color:#EF7B09"></stop>
				<stop offset="0.82" style="stop-color:#EB5B16"></stop>
				<stop offset="1" style="stop-color:#E94F1B"></stop>
			</linearGradient>
			<path class="st3" d="M94.4,156.8H59.3c-2.7,0.4-5.3-1.5-5.7-4.2c-0.4-2.7,1.5-5.3,4.2-5.7c0.5-0.1,0.9-0.1,1.4,0h35.1     c2.7,0.4,4.6,2.9,4.2,5.7C98.3,154.8,96.6,156.5,94.4,156.8z M83.1,109.6c2.4,0,4.4-2,4.4-4.4l0,0v-0.1c0-2.4-2-4.4-4.4-4.4l0,0     l0,0c-2.4,0-4.4,2-4.4,4.4l0,0v0.1C78.7,107.6,80.6,109.6,83.1,109.6L83.1,109.6z M125.2,161.7h-10.1H71.3     c-3.5,0-6.3,2.8-6.3,6.3s2.8,6.3,6.3,6.3l0,0h51.1L125.2,161.7z M130.6,142h10.8c2.2,0,3.9-1.8,3.9-3.9c0-2.2-1.8-3.9-3.9-3.9     h-14.9c-7.2-0.1-12.7-2.5-16.5-7c-3.8-4.5-5-10.8-3.6-18.7c3.9-12.8,13.3-19.2,28.3-19.2h6.4l3-12.5h-9.4     c-20.5,0-34.7,10-40.3,28.1l-0.3,1.3c-0.1,0.4-0.2,0.9-0.3,1.5c-0.7,2.6-2.6,7.4-8.1,7.4h-4.8c-3.1-0.1-5.7,2.3-5.9,5.4     c-0.1,3.1,2.3,5.7,5.4,5.9c0.2,0,0.3,0,0.5,0h8.9l0,0h9.3c2.2,0,3.9,1.7,3.9,3.9c0,2.2-1.7,3.9-3.9,3.9H75.2     c-2.2,0-3.9,1.7-3.9,3.9c0,2.2,1.7,3.9,3.9,3.9h5.4l0,0H130.6L130.6,142z M57.3,142c3.2-0.3,5.5-3.1,5.2-6.3     C58.7,99,85.3,66.2,122,62.5c2.3-0.2,4.6-0.4,6.9-0.4c9.3,0,18.6,1.9,27.1,5.7c2.9,1.3,6.3,0,7.6-2.9s0-6.3-2.9-7.6l0,0     c-39.6-17.5-85.8,0.3-103.4,39.8c-5.5,12.5-7.7,26.2-6.3,39.7c0.3,2.9,2.8,5.2,5.7,5.2L57.3,142z"></path>
			<path class="st2" d="M207.1,128.9c0-12-2.7-23.8-8-34.5c-1.4-2.8-4.9-4-7.7-2.6s-4,4.9-2.6,7.7c4.5,9.2,6.8,19.2,6.8,29.5     c0,36.9-29.9,66.7-66.8,66.7c-15.8,0-31.1-5.6-43.2-15.9c-2.4-2.1-6-1.9-8.1,0.5c-2.1,2.4-1.9,6,0.5,8.1l0.1,0.1     c32.9,28,82.3,24.1,110.3-8.8C200.5,165.4,207.1,147.5,207.1,128.9L207.1,128.9z"></path>
			<g>
				<g>
					<defs>
						<path id="SVGID_2_" d="M94.4,156.8H59.3c-2.7,0.4-5.3-1.5-5.7-4.2c-0.4-2.7,1.5-5.3,4.2-5.7c0.5-0.1,0.9-0.1,1.4,0h35.1        c2.7,0.4,4.6,2.9,4.2,5.7C98.3,154.8,96.6,156.5,94.4,156.8z M83.1,109.6c2.4,0,4.4-2,4.4-4.4l0,0v-0.1c0-2.4-2-4.4-4.4-4.4        l0,0l0,0c-2.4,0-4.4,2-4.4,4.4l0,0v0.1C78.7,107.6,80.6,109.6,83.1,109.6L83.1,109.6z M125.2,161.7h-10.1H71.3        c-3.5,0-6.3,2.8-6.3,6.3s2.8,6.3,6.3,6.3l0,0h51.1L125.2,161.7z M130.6,142h10.8c2.2,0,3.9-1.8,3.9-3.9c0-2.2-1.8-3.9-3.9-3.9        h-14.9c-7.2-0.1-12.7-2.5-16.5-7c-3.8-4.5-5-10.8-3.6-18.7c3.9-12.8,13.3-19.2,28.3-19.2h6.4l3-12.5h-9.4        c-20.5,0-34.7,10-40.3,28.1l-0.3,1.3c-0.1,0.4-0.2,0.9-0.3,1.5c-0.7,2.6-2.6,7.4-8.1,7.4h-4.8c-3.1-0.1-5.7,2.3-5.9,5.4        c-0.1,3.1,2.3,5.7,5.4,5.9c0.2,0,0.3,0,0.5,0h8.9l0,0h9.3c2.2,0,3.9,1.7,3.9,3.9c0,2.2-1.7,3.9-3.9,3.9H75.2        c-2.2,0-3.9,1.7-3.9,3.9c0,2.2,1.7,3.9,3.9,3.9h5.4l0,0H130.6L130.6,142z M57.3,142c3.2-0.3,5.5-3.1,5.2-6.3        C58.7,99,85.3,66.2,122,62.5c2.3-0.2,4.6-0.4,6.9-0.4c9.3,0,18.6,1.9,27.1,5.7c2.9,1.3,6.3,0,7.6-2.9s0-6.3-2.9-7.6l0,0        c-39.6-17.5-85.8,0.3-103.4,39.8c-5.5,12.5-7.7,26.2-6.3,39.7c0.3,2.9,2.8,5.2,5.7,5.2L57.3,142z"></path>
					</defs>
					<clipPath id="SVGID_3_">
						<use xlink:href="#SVGID_2_" style="overflow:visible;"></use>
					</clipPath>
					<g class="st4">
						
							<radialGradient id="SVGID_4_" cx="-100.7933" cy="555.6344" r="49.1039" gradientTransform="matrix(1.51 0 0 1.45 233.811 -728.9568)" gradientUnits="userSpaceOnUse">
							<stop offset="0" style="stop-color:#FFFBDC;stop-opacity:0.6"></stop>
							<stop offset="9.000000e-02" style="stop-color:#FFFBDF;stop-opacity:0.55"></stop>
							<stop offset="0.26" style="stop-color:#FFFCE6;stop-opacity:0.43"></stop>
							<stop offset="0.47" style="stop-color:#FFFDF2;stop-opacity:0.23"></stop>
							<stop offset="0.69" style="stop-color:#FFFFFF;stop-opacity:0"></stop>
						</radialGradient>
						<ellipse class="st5" cx="81.6" cy="76.7" rx="73.9" ry="71.1"></ellipse>
					</g>
				</g>
			</g>
		</g>
	</g>
</g>
</svg>