<svg xmlns="http://www.w3.org/2000/svg" xmlns:xlink="http://www.w3.org/1999/xlink" id="Capa_1" x="0px" y="0px" viewBox="0 0 460.8 97.2" style="enable-background:new 0 0 460.8 97.2;" xml:space="preserve">
<style type="text/css">
	.st0{fill:#1D1D1B;}
	.st1{fill:url(#SVGID_1_);}
	.st2{clip-path:url(#SVGID_3_);}
	.st3{fill:url(#SVGID_4_);}
	.st4{fill:url(#SVGID_5_);}
	.st5{opacity:0.26;fill:#FFFFFF;enable-background:new    ;}
</style>
<title>logotype_sc</title>
<g id="Capa_2_1_">
	<g id="Capa_1-2">
		<path class="st0" d="M75.2,41.6c4.5,6.1,5.5,14.1,2.8,21.2c-1.4,3.7-3.9,6.9-7,9.2c-4.2,3.1-9.6,4.7-16,4.7h-4.7l1.7-7.8h6.6    c8,0,14.4-6.5,14.4-14.5c0-8-6.5-14.4-14.5-14.4l0,0H48.3c-1.2,0-2.1-1.1-2.1-2.2c0-1.2,1.1-2.1,2.2-2.1h25.3L76.7,24H62.1    l1.7-7.8h21l-5.6,25.4L75.2,41.6z"></path>
		
			<linearGradient id="SVGID_1_" gradientUnits="userSpaceOnUse" x1="-26.63" y1="59.5011" x2="43.8709" y2="59.5011" gradientTransform="matrix(1 0 0 -1 26.63 97.8882)">
			<stop offset="0.31" style="stop-color:#E69632"></stop>
			<stop offset="0.47" style="stop-color:#E28531"></stop>
			<stop offset="0.81" style="stop-color:#DB6530"></stop>
			<stop offset="1" style="stop-color:#D85930"></stop>
		</linearGradient>
		<path class="st1" d="M27.2,66H5.4c-1.7-0.1-3-1.6-2.9-3.3c0.1-1.6,1.3-2.8,2.9-2.9h21.8c1.7-0.1,3.2,1.2,3.3,2.9s-1.2,3.2-2.9,3.3    C27.4,66,27.3,66,27.2,66z M20.2,36.6c1.5,0,2.7-1.2,2.7-2.7v-0.1c0-1.5-1.2-2.7-2.7-2.7l0,0c-1.5,0-2.7,1.2-2.7,2.7v0.1    C17.5,35.4,18.7,36.6,20.2,36.6L20.2,36.6z M46.3,69H40H12.8c-2.2,0.1-3.8,1.9-3.7,4.1c0.1,2,1.7,3.6,3.7,3.7h31.8L46.3,69z     M49.7,56.8h6.8c1.3-0.1,2.4-1.2,2.3-2.6c-0.1-1.2-1.1-2.2-2.3-2.3h-9.3c-4.5-0.1-7.9-1.5-10.3-4.3s-3.1-6.7-2.2-11.6    c2.4-8,8.3-12,17.6-12h4l1.9-7.8h-5.9c-12.7,0-21.6,6.2-25,17.5L27,34.5l-0.2,0.9c-0.4,1.6-1.6,4.6-5,4.6h-3    c-1.9,0-3.5,1.6-3.5,3.5s1.6,3.5,3.5,3.5h11.3c1.3,0.1,2.4,1.2,2.3,2.6c-0.1,1.2-1,2.2-2.3,2.3H15.3c-1.3,0-2.4,1.1-2.4,2.4    c0,1.3,1.1,2.4,2.4,2.4c0,0,0,0,0,0h3.3l0,0L49.7,56.8L49.7,56.8z M4.2,56.8c2-0.2,3.4-1.9,3.2-3.9c-0.1-1.4-0.2-2.8-0.2-4.2    c0-22.9,18.6-41.5,41.5-41.5c5.8,0,11.5,1.2,16.8,3.6c1.8,0.8,3.9,0,4.7-1.8c0.8-1.8,0-3.9-1.8-4.7c0,0,0,0,0,0    C43.8-6.7,15.1,4.3,4.2,28.9C1.4,35.1,0,41.8,0,48.6c0,1.6,0.1,3.3,0.2,4.9c0.2,1.8,1.7,3.2,3.5,3.2L4.2,56.8z"></path>
		<path class="st0" d="M97.2,48.6c0-7.4-1.7-14.8-5-21.5c-0.9-1.8-3-2.5-4.8-1.6s-2.5,3-1.6,4.8c2.8,5.7,4.3,12,4.2,18.3    C90,71.5,71.5,90,48.6,90c-9.9,0-19.4-3.5-26.9-9.9c-1.6-1.2-3.8-0.9-5,0.7c-1.1,1.5-0.9,3.5,0.4,4.8c20.4,17.4,51.1,15,68.5-5.5    C93.1,71.3,97.2,60.1,97.2,48.6L97.2,48.6z"></path>
		<g>
			<defs>
				<path id="SVGID_2_" d="M27.2,66H5.4c-1.7-0.1-3-1.6-2.9-3.3c0.1-1.6,1.3-2.8,2.9-2.9h21.8c1.7-0.1,3.2,1.2,3.3,2.9      s-1.2,3.2-2.9,3.3C27.4,66,27.3,66,27.2,66z M20.2,36.6c1.5,0,2.7-1.2,2.7-2.7v-0.1c0-1.5-1.2-2.7-2.7-2.7l0,0      c-1.5,0-2.7,1.2-2.7,2.7v0.1C17.5,35.4,18.7,36.6,20.2,36.6L20.2,36.6z M46.3,69H40H12.8c-2.2,0.1-3.8,1.9-3.7,4.1      c0.1,2,1.7,3.6,3.7,3.7h31.8L46.3,69z M49.7,56.8h6.8c1.3-0.1,2.4-1.2,2.3-2.6c-0.1-1.2-1.1-2.2-2.3-2.3h-9.3      c-4.5-0.1-7.9-1.5-10.3-4.3s-3.1-6.7-2.2-11.6c2.4-8,8.3-12,17.6-12h4l1.9-7.8h-5.9c-12.7,0-21.6,6.2-25,17.5L27,34.5l-0.2,0.9      c-0.4,1.6-1.6,4.6-5,4.6h-3c-1.9,0-3.5,1.6-3.5,3.5s1.6,3.5,3.5,3.5h11.3c1.3,0.1,2.4,1.2,2.3,2.6c-0.1,1.2-1,2.2-2.3,2.3H15.3      c-1.3,0-2.4,1.1-2.4,2.4c0,1.3,1.1,2.4,2.4,2.4c0,0,0,0,0,0h3.3l0,0L49.7,56.8L49.7,56.8z M4.2,56.8c2-0.2,3.4-1.9,3.2-3.9      c-0.1-1.4-0.2-2.8-0.2-4.2c0-22.9,18.6-41.5,41.5-41.5c5.8,0,11.5,1.2,16.8,3.6c1.8,0.8,3.9,0,4.7-1.8c0.8-1.8,0-3.9-1.8-4.7      c0,0,0,0,0,0C43.8-6.7,15.1,4.3,4.2,28.9C1.4,35.1,0,41.8,0,48.6c0,1.6,0.1,3.3,0.2,4.9c0.2,1.8,1.7,3.2,3.5,3.2L4.2,56.8z"></path>
			</defs>
			<clipPath id="SVGID_3_">
				<use xlink:href="#SVGID_2_" style="overflow:visible;"></use>
			</clipPath>
			<g class="st2">
				
					<radialGradient id="SVGID_4_" cx="-221.7906" cy="299.6674" r="30.47" gradientTransform="matrix(1.51 0 0 -1.45 353.5213 450.564)" gradientUnits="userSpaceOnUse">
					<stop offset="0" style="stop-color:#FFFBDF;stop-opacity:0.6"></stop>
					<stop offset="9.000000e-02" style="stop-color:#FFFBE1;stop-opacity:0.55"></stop>
					<stop offset="0.26" style="stop-color:#FFFCE8;stop-opacity:0.43"></stop>
					<stop offset="0.47" style="stop-color:#FFFDF3;stop-opacity:0.23"></stop>
					<stop offset="0.69" style="stop-color:#FFFFFF;stop-opacity:0"></stop>
				</radialGradient>
				<ellipse class="st3" cx="19.3" cy="16.2" rx="45.9" ry="44.1"></ellipse>
			</g>
		</g>
		
			<linearGradient id="SVGID_5_" gradientUnits="userSpaceOnUse" x1="122.9854" y1="-4.8215" x2="228.1043" y2="100.2974" gradientTransform="matrix(1 0 0 -1 26.63 97.8882)">
			<stop offset="0.31" style="stop-color:#E69632"></stop>
			<stop offset="0.47" style="stop-color:#E28531"></stop>
			<stop offset="0.81" style="stop-color:#DB6530"></stop>
			<stop offset="1" style="stop-color:#D85930"></stop>
		</linearGradient>
		<path class="st4" d="M112.1,65.2l2-8.1h18c3.1,0.3,4.2-1.2,4.6-2.6v-0.2c0.1-0.8-0.2-1.6-0.8-2.1c-1-0.8-2.3-1.1-3.6-0.9H127    c-3.4-0.1-5.9-1.1-7.7-3.2s-2.3-5-1.6-8.7c2-6.5,6.9-9.5,15.1-9h18.8l-1.9,7.7h-18.7c-2.6-0.1-3.3,1.4-3.5,2.4    c-0.2,1.2,0.4,2.3,1.5,2.8c1.1,0.4,2.2,0.5,3.4,0.4l4.7-0.1c4.1,0.1,6.8,1.3,8.1,3.3l0,0c1.3,2.2,1.7,5.1,1,8.8    c-1.4,6.7-5.9,9.8-13.8,9.6L112.1,65.2z M286.7,56.6l-2.1,8.6l-21-0.1c-3.3-0.2-5.8-0.9-7.4-2.2c-1.7-1.3-3-3.1-3.8-5.1    c-1.9-4.7-1.5-10.2,1.2-16.2c3.7-7,9.6-10.7,18-11.2h11.9c3.3,0.2,5.5,1.2,6.5,2.8c1.1,1.7,1.3,3.8,0.8,5.7l-3.1,12.8h-27.2    l0.5,1.3c0.8,2.3,2.8,3.5,6,3.6L286.7,56.6z M262.5,43.5h17.6l1.2-4.9h-8.7c-2.8,0-5.4,0.9-7.6,2.6c-0.3,0.2-0.5,0.4-0.8,0.7    L262.5,43.5z M228.8,53.9c-0.6,2.8,0,5.7,1.8,7.9c1.7,2.2,4.3,3.5,7.1,3.4h7.4l2.1-8.3H242c-0.9,0-1.7-0.4-2.3-1.1    c-0.5-0.7-0.7-1.5-0.6-2.3v-0.1l8.9-35.1h-10L228.8,53.9z M229.2,30.4l-8.4,34.8l-19.5-0.1c-3.3-0.2-5.8-0.9-7.4-2.2    c-1.7-1.3-3-3.1-3.8-5.1c-1.9-4.7-1.5-10.2,1.3-16.2c3.7-7,9.6-10.7,18-11.2L229.2,30.4z M216.5,42.4l0.9-3.9h-6.8    c-2.8-0.1-5.6,0.9-7.8,2.6c-1.9,1.4-3.2,3.4-3.8,5.7c-1,3.4-0.9,5.8,0.4,7.5c1.1,1.4,2.9,2.2,5.5,2.2h8.3L216.5,42.4L216.5,42.4z     M166.6,56.6c-2.6,0-4.4-0.8-5.5-2.2c-1.2-1.7-1.4-4.1-0.4-7.5c0.6-2.3,2-4.3,3.8-5.7c2.1-1.7,4.8-2.6,7.6-2.6h17l2-8.1h-19.8    c-8.4,0.5-14.3,4.2-18,11.2c-2.7,6-3.1,11.5-1.3,16.2c0.7,2,2,3.8,3.7,5.1c1.6,1.2,4.1,1.9,7.4,2.2l19.5,0.1l2.1-8.6L166.6,56.6z"></path>
		<path class="st5" d="M230.6,61.8c1.7,2.2,4.3,3.5,7.1,3.4h7.4l2.1-8.3H242c-0.5,0-0.9-0.1-1.4-0.3h-12    C228.8,58.5,229.5,60.4,230.6,61.8z"></path>
		<path class="st5" d="M190.2,57.8c0.7,2,2,3.8,3.8,5.1c1.6,1.2,4.1,1.9,7.4,2.2l19.5,0.1l2.1-8.6h-33.1    C189.9,57,190,57.4,190.2,57.8z"></path>
		<path class="st5" d="M252.1,56.6c0.1,0.4,0.2,0.8,0.4,1.2c0.7,2,2,3.8,3.8,5.1c1.6,1.2,4.1,1.9,7.4,2.2l21,0.1l2.1-8.6L252.1,56.6    L252.1,56.6z"></path>
		<path class="st5" d="M146.1,56.6h-11c-0.9,0.5-2,0.6-3,0.5h-18l-2,8.1h20.4C140.1,65.5,144.5,62.6,146.1,56.6z"></path>
		<path class="st5" d="M152,57.8c0.7,2,2,3.8,3.7,5.1c1.6,1.2,4.1,1.9,7.4,2.2l19.5,0.1l2.1-8.6h-33.1C151.7,57,151.8,57.4,152,57.8    z"></path>
		<path class="st0" d="M459.7,37.8c-0.8-2-2.1-3.8-3.8-5.1c-1.6-1.2-4.1-2-7.4-2.1L429,30.4l-11.7,48.4h9.6l3.4-13.6h10.1    c8.4-0.5,14.3-4.2,18-11.2C461.1,48,461.6,42.5,459.7,37.8z M450.9,48.7c-0.6,2.3-2,4.2-3.8,5.7c-2.1,1.7-4.8,2.6-7.6,2.6h-7.1    l0.2-1.2l4.2-16.9h8.2c2.6,0,4.4,0.8,5.5,2.2C451.8,42.9,451.9,45.4,450.9,48.7z"></path>
		<path class="st0" d="M373.5,30.4L367.3,57h-5.8c-0.9,0-1.8-0.4-2.3-1.1c-0.5-0.7-0.8-1.5-0.6-2.3l5.7-23.2h-9.9L348.5,54    c-0.2,0.7-0.3,1.4-0.3,2.2V57h-6c-0.9,0-1.8-0.4-2.3-1.1c-0.5-0.7-0.7-1.5-0.6-2.3v-0.1l5.6-23.1H335L329.2,54    c-0.7,2.7-0.1,5.7,1.6,7.9c1.6,2.2,4.2,3.5,7,3.4h4.1h14.2h0.9h18.1l8.4-34.8L373.5,30.4z"></path>
		<path class="st0" d="M404.1,30.4c-8.4,0.5-14.3,4.2-18,11.2c-2.7,6-3.1,11.5-1.3,16.2c0.7,2,2,3.8,3.7,5.1    c1.6,1.2,4.1,1.9,7.4,2.2l19.5,0.1l8.4-34.8L404.1,30.4z M411.2,42.4l-3.4,14.2h-8.3c-2.6,0-4.4-0.8-5.5-2.2    c-1.2-1.7-1.4-4.1-0.4-7.5c0.6-2.3,2-4.3,3.8-5.7c2.2-1.8,5-2.7,7.8-2.6h6.8L411.2,42.4L411.2,42.4z"></path>
		<path class="st0" d="M323.9,55.7c0.6-3.7,0.3-6.7-1-8.8s-4-3.2-8-3.3l-4.7,0.1c-1.1,0.1-2.3,0-3.4-0.4c-1.1-0.4-1.7-1.6-1.5-2.8    c0.2-1,0.9-2.5,3.5-2.4h18.7l1.9-7.7h-18.9c-8.2-0.5-13.1,2.5-15.1,9c-0.7,3.7-0.1,6.6,1.6,8.7s4.3,3.1,7.7,3.2h5.3    c1.3-0.2,2.6,0.1,3.6,0.9c0.6,0.6,0.9,1.3,0.8,2.1v0.2c-0.4,1.3-1.5,2.8-4.6,2.6h-18l-2,8.1h20.4    C318.1,65.5,322.6,62.4,323.9,55.7z"></path>
	</g>
</g>
</svg>