<svg xmlns="http://www.w3.org/2000/svg" xmlns:xlink="http://www.w3.org/1999/xlink" id="Capa_1" x="0px" y="0px" viewBox="0 0 485.8 485.8" style="enable-background:new 0 0 485.8 485.8;" xml:space="preserve">
<style type="text/css">
	.st0{clip-path:url(#SVGID_2_);fill:url(#SVGID_3_);}
</style>
<g>
	<defs>
		<path id="SVGID_1_" d="M443.6,200.6c-19.1,0-35.3,12.7-40.5,30.2h-46.8c0.4,4,0.6,8,0.6,12.2c0,5.8-0.4,11.5-1.3,17.1h49.2    c6.6,14.9,21.4,25.3,38.7,25.3c23.4,0,42.3-18.9,42.3-42.3C485.9,219.5,467,200.6,443.6,200.6z M82,260h48.2    c-0.8-5.6-1.3-11.3-1.3-17.1c0-4.1,0.2-8.2,0.6-12.2H82C76.1,214.5,60.5,203,42.3,203C18.9,203,0,221.9,0,245.3    s18.9,42.3,42.3,42.3C60.5,287.7,76,276.1,82,260z M228.3,82v47.8c4.8-0.6,9.7-0.9,14.6-0.9s9.8,0.3,14.6,0.9V82    c16.2-5.9,27.7-21.5,27.7-39.7c0-23.4-18.9-42.3-42.3-42.3s-42.3,18.9-42.3,42.3C200.6,60.5,212.1,76,228.3,82z M333.2,173.3    l33.9-33.9c15.6,7.2,34.7,4.4,47.6-8.5c16.5-16.5,16.5-43.3,0-59.8s-43.3-16.5-59.8,0c-12.9,12.9-15.7,32-8.5,47.6l-21.5,21.6l0,0    l-12.3,12.3C320.3,158.6,327.2,165.5,333.2,173.3z M101,143.3c6.3,0,12.4-1.4,17.8-3.9l33.8,33.8c6-7.7,12.9-14.7,20.7-20.7    l-33.8-33.8c2.5-5.4,3.9-11.4,3.9-17.8c0-23.4-18.9-42.3-42.3-42.3s-42.3,18.9-42.3,42.3C58.7,124.4,77.6,143.3,101,143.3z     M152.6,312.5l-33.8,33.8c-5.4-2.5-11.4-3.9-17.8-3.9c-23.4,0-42.3,18.9-42.3,42.3S77.6,427,101,427s42.3-18.9,42.3-42.3    c0-6.3-1.4-12.4-3.9-17.8l33.8-33.8C165.5,327.2,158.6,320.3,152.6,312.5z M384.8,342.5c-6.3,0-12.4,1.4-17.8,3.9l-33.8-33.8    c-6,7.7-12.9,14.7-20.7,20.7l33.8,33.8c-2.5,5.4-3.9,11.4-3.9,17.8c0,23.4,18.9,42.3,42.3,42.3s42.3-18.9,42.3-42.3    C427.1,361.4,408.2,342.5,384.8,342.5z M257.5,403.8v-29.5V356c-4.8,0.6-9.7,0.9-14.6,0.9s-9.8-0.3-14.6-0.9v18.3v29.5    c-16.2,5.9-27.7,21.5-27.7,39.7c0,23.4,18.9,42.3,42.3,42.3s42.3-18.9,42.3-42.3C285.2,425.3,273.7,409.8,257.5,403.8z     M242.9,151.4c-50.5,0-91.5,41-91.5,91.5s41,91.5,91.5,91.5s91.5-41,91.5-91.5S293.4,151.4,242.9,151.4z M242.9,306.7    c-35.2,0-63.8-28.5-63.8-63.8s28.5-63.8,63.8-63.8s63.8,28.5,63.8,63.8S278.1,306.7,242.9,306.7z M210.6,257    c-7.8,0-14.1-6.3-14.1-14.1c0-25.6,20.8-46.4,46.4-46.4c7.8,0,14.1,6.3,14.1,14.1s-6.3,14.1-14.1,14.1c-10,0-18.2,8.2-18.2,18.2    C224.7,250.7,218.4,257,210.6,257z"></path>
	</defs>
	<clipPath id="SVGID_2_">
		<use xlink:href="#SVGID_1_" style="overflow:visible;"></use>
	</clipPath>
	<linearGradient id="SVGID_3_" gradientUnits="userSpaceOnUse" x1="-36.0407" y1="188.5526" x2="523.0406" y2="297.227">
		<stop offset="0.3084" style="stop-color:#F29100"></stop>
		<stop offset="0.5093" style="stop-color:#EE7A09"></stop>
		<stop offset="0.8247" style="stop-color:#EA5A16"></stop>
		<stop offset="1" style="stop-color:#E84E1B"></stop>
	</linearGradient>
	<rect x="0.6" y="0" class="st0" width="485.8" height="485.8"></rect>
</g>
</svg>