<svg xmlns="http://www.w3.org/2000/svg" xmlns:xlink="http://www.w3.org/1999/xlink" id="Capa_1" x="0px" y="0px" viewBox="0 0 460 460" style="enable-background:new 0 0 460 460;" xml:space="preserve">
<style type="text/css">
	.st0{clip-path:url(#SVGID_2_);fill:url(#SVGID_3_);}
</style>
<g>
	<defs>
		<path id="SVGID_1_" d="M99,219.6c-5.5,0-10,4.5-10,10v15c0,5.5,4.5,10,10,10s10-4.5,10-10v-15C109,224.1,104.5,219.6,99,219.6z     M452.7,223c-5.3-1.5-10.8,1.6-12.3,6.9c-1.9,6.9-6.6,12.4-12.5,15.8c-4.1-34.6-24.3-66.4-57.9-90.8    c-18.5-13.4-39.9-23.8-63.3-30.7c3.4-8.9,5.1-18.3,5.1-28c0-43.8-35.7-79.5-79.5-79.5s-79.5,35.7-79.5,79.5    c0,10.1,1.9,20,5.5,29.2c-11.1,3.5-21.7,7.8-31.9,12.9c-9.8-6.3-21.4-9.8-33.6-9.8H51.7c-6.1,0-11.5,3.7-13.9,9.3    c-2.3,5.6-1,12.1,3.3,16.3l28.3,28.3c-11.9,14.3-20.4,30.1-25,46.6H15c-8.3,0-15,6.7-15,15v47.3c0,17.4,8.8,33.3,23.5,42.5    c15,9.4,38.1,22.7,66.1,35.3v59.4c0,8.3,6.7,15,15,15h52.9c7.1,0,13.3-5,14.7-12l6.6-32.9c19.3,3.9,37.9,5.8,55.6,5.8    c15.8,0,31.4-1.4,46.6-4.2l7.4,31.7c1.6,6.8,7.6,11.6,14.6,11.6h51.9c8.3,0,15-6.7,15-15v-65c34.9-25.4,55.8-59.8,58.5-96.3    c14.8-4.5,26.9-16.3,31.2-31.7C461.1,230,458,224.5,452.7,223z M182.8,96.1c0-27.3,22.2-49.5,49.5-49.5s49.5,22.2,49.5,49.5    c0,7.4-1.6,14.6-4.8,21.2c-13.8-2.3-28.1-3.5-42.6-3.5c-15.9,0-31.5,1.4-46.5,4.1C184.5,111.2,182.8,103.8,182.8,96.1z M346.6,343    c-4.2,2.8-6.7,7.5-6.7,12.5v57.9h-24.9l-8-34.5c-0.9-3.9-3.3-7.3-6.8-9.4c-3.4-2.1-7.5-2.7-11.4-1.8c-17.4,4.3-35.7,6.5-54.3,6.5    c-19.8,0-41.2-2.8-63.6-8.4c-4-1-8.2-0.3-11.6,1.9c-3.5,2.2-5.9,5.7-6.7,9.7l-7.3,35.9h-25.6v-54.2c0-6-3.6-11.4-9.1-13.8    c-30.3-12.9-55.3-27.3-71-37.1c-5.9-3.7-9.5-10.1-9.5-17.1v-32.3h26.4c7.4,0,13.6-5.4,14.8-12.6c2.4-14.9,9.1-29.5,19.5-42.7    l0.7,0.7c2.9,2.9,6.8,4.4,10.6,4.4s7.7-1.5,10.6-4.4c5.9-5.9,5.9-15.4,0-21.2L88,158.3h4.8c12.1,0,23.1,6.7,28.7,17.5    c3.8,7.4,12.8,10.3,20.2,6.5c7.4-3.8,10.3-12.8,6.5-20.2c-0.1-0.3-0.3-0.5-0.4-0.8c26-11.5,55.6-17.5,86.7-17.5    c44.7,0,86.6,12.5,117.9,35.3c29.9,21.7,46.3,50.1,46.3,79.9C398.6,290.6,379.7,321.1,346.6,343z"></path>
	</defs>
	<clipPath id="SVGID_2_">
		<use xlink:href="#SVGID_1_" style="overflow:visible;"></use>
	</clipPath>
	<linearGradient id="SVGID_3_" gradientUnits="userSpaceOnUse" x1="-34.079" y1="178.4608" x2="495.079" y2="281.3187">
		<stop offset="0.3084" style="stop-color:#F29100"></stop>
		<stop offset="0.5093" style="stop-color:#EE7A09"></stop>
		<stop offset="0.8247" style="stop-color:#EA5A16"></stop>
		<stop offset="1" style="stop-color:#E84E1B"></stop>
	</linearGradient>
	<rect x="0.6" class="st0" width="459.8" height="459.8"></rect>
</g>
</svg>