<svg xmlns="http://www.w3.org/2000/svg" xmlns:xlink="http://www.w3.org/1999/xlink" viewBox="0 0 592.75 433.12"><defs><style>.cls-1{fill:#0d3885;}.cls-2{fill:#ecf3ff;}.cls-3{fill:#b2ccfc;}.cls-4{isolation:isolate;}.cls-5{fill:#5a94fd;}.cls-6{fill:#1869f8;}.cls-7{fill:#fff;}.cls-8{fill:#c7dafc;}.cls-9{fill:#548ff9;}.cls-10{fill:#0050f0;}.cls-11{clip-path:url(#clip-path);}.cls-12{fill:#f8bea1;}.cls-13{fill:#ff498a;}.cls-14{fill:#732a24;}</style><clipPath id="clip-path"><path class="cls-1" d="M391.88,320.81l11.25-6.53c7.07,18.18,15.94,24.72,16.41,25.06l-11.24,6.54C407.83,345.53,399,339,391.88,320.81Z"></path></clipPath></defs><title>presskit2</title><g id="Capa_2" data-name="Capa 2"><g id="BACKGROUND"><ellipse class="cls-2" cx="288.23" cy="271.5" rx="251.4" ry="145.62" transform="translate(-0.77 0.82) rotate(-0.16)"></ellipse></g><g id="OBJECTS"><path class="cls-3" d="M431.35,39.92c-2.55-1.47-4.62-.29-4.63,2.64l-.38,133.29a10.17,10.17,0,0,0,4.6,8l148,85.43c2.55,1.48,4.62.3,4.63-2.63l.38-133.3a10.14,10.14,0,0,0-4.6-8Z"></path><path class="cls-1" d="M430.59,39.56l-.33-.11-.2-.06-.19,0-.25,0h-.5a2,2,0,0,0-.34.05h-.08l-.25.08-.08,0a1.38,1.38,0,0,0-.3.14l8.83-5.14h0l.23-.11,0,0,.07,0,.12,0,.14,0,.08,0h0a1.33,1.33,0,0,1,.28,0h.38l.14,0h.13l.12,0,.19,0,.1,0,.1,0,.32.11.12,0,.07,0a5,5,0,0,1,.57.28l148,85.44a6.77,6.77,0,0,1,.87.6l.26.23c.14.12.28.23.41.36l.17.19a1.21,1.21,0,0,1,.16.16c.05.06.12.12.17.19l.38.45.12.17.06.08a1.77,1.77,0,0,1,.12.17c.1.13.18.26.27.4s.16.25.24.39l0,0v0a2.58,2.58,0,0,1,.18.32c.07.13.14.26.2.39s.12.25.17.37h0v0c.06.14.11.28.16.42s.11.29.16.43.05.15.07.22l0,.1s0,.1,0,.15a5.11,5.11,0,0,1,.13.53c0,.11,0,.22.06.32l0,.17a.77.77,0,0,1,0,.15,7.07,7.07,0,0,1,.06.91l-.38,133.29a3.21,3.21,0,0,1-1.34,3l-8.84,5.14a3.25,3.25,0,0,0,1.35-3l.38-133.3a7.84,7.84,0,0,0-.09-1.06l0-.16a9.73,9.73,0,0,0-.23-1l0-.09a8.93,8.93,0,0,0-.4-1.09v0q-.24-.54-.54-1.08l0,0c-.2-.34-.41-.66-.64-1l-.07-.09c-.21-.28-.44-.55-.67-.81l-.15-.16c-.19-.19-.39-.37-.59-.54l-.26-.24a7.1,7.1,0,0,0-.87-.6l-148-85.43a6.27,6.27,0,0,0-.58-.29Z"></path><g class="cls-4"><path class="cls-5" d="M431.16,32.56c-2.54-1.47-4.61-.29-4.62,2.64l0,9.17,157.2,90.76,0-9.18a10.12,10.12,0,0,0-4.59-8Z"></path><path class="cls-6" d="M592.51,119.91l0-.15c0-.06,0-.11,0-.17l-.06-.32c0-.17-.08-.35-.13-.53a.88.88,0,0,0,0-.15l0-.1-.06-.22c0-.14-.1-.29-.16-.43s-.11-.28-.17-.41v0l-.17-.36c-.06-.14-.13-.27-.2-.4l-.18-.32,0,0v0l-.24-.39-.27-.4-.12-.16-.06-.09-.13-.17-.37-.45-.18-.19-.15-.16-.17-.19a4.47,4.47,0,0,0-.41-.35l-.27-.24a7.1,7.1,0,0,0-.87-.6L440,27.43a5.58,5.58,0,0,0-.64-.33l-.21-.07L439,27a1.27,1.27,0,0,0-.18-.06,2.88,2.88,0,0,0-.4-.09l-.18,0h-.17a1.5,1.5,0,0,0-.3,0l-.28,0h-.09l-.17,0A2.34,2.34,0,0,0,437,27l-.23.11,0,0-8.84,5.13a2.26,2.26,0,0,1,.67-.25h0a2.57,2.57,0,0,1,.74,0h.07a3.6,3.6,0,0,1,.75.16l.16.06a4.91,4.91,0,0,1,.85.39l148,85.43a8,8,0,0,1,.86.61,3,3,0,0,1,.27.23,7.41,7.41,0,0,1,.58.54l.16.17a9,9,0,0,1,.67.81l.06.08c.23.32.45.65.65,1v0a12,12,0,0,1,.55,1.07v0c.15.36.28.73.4,1.09l0,.09c.09.34.17.68.23,1l0,.17a7.54,7.54,0,0,1,.08,1l0,9.18,8.83-5.14,0-9.17A7.07,7.07,0,0,0,592.51,119.91Z"></path></g><path class="cls-7" d="M552.2,106.79c-1.59-.92-2.89-.18-2.9,1.65a6.38,6.38,0,0,0,2.88,5c1.6.92,2.89.18,2.9-1.65A6.37,6.37,0,0,0,552.2,106.79Z"></path><path class="cls-7" d="M562.12,112.52c-1.6-.93-2.9-.19-2.9,1.64a6.35,6.35,0,0,0,2.88,5c1.6.92,2.9.18,2.9-1.66A6.31,6.31,0,0,0,562.12,112.52Z"></path><path class="cls-7" d="M572,118.24c-1.59-.92-2.89-.18-2.89,1.65a6.33,6.33,0,0,0,2.88,5c1.6.92,2.9.18,2.9-1.65A6.31,6.31,0,0,0,572,118.24Z"></path><polygon class="cls-7" points="456.37 92.99 456.38 96.94 444.77 90.12 444.76 86.16 456.37 92.99"></polygon><g class="cls-4"><polygon class="cls-7" points="526.61 208.91 526.62 212.87 485.25 188.55 485.24 184.59 526.61 208.91"></polygon><polygon class="cls-7" points="538.86 188.13 538.86 192.08 485.19 160.53 485.18 156.57 538.86 188.13"></polygon><polygon class="cls-7" points="562.81 192.89 562.82 196.84 485.17 151.19 485.17 147.23 562.81 192.89"></polygon><polygon class="cls-7" points="539.47 207.15 539.47 211.1 463.94 166.69 463.93 162.73 539.47 207.15"></polygon><polygon class="cls-7" points="493.09 170.55 493.1 174.5 463.92 157.35 463.91 153.39 493.09 170.55"></polygon><polygon class="cls-7" points="562.77 174.21 562.78 178.16 485.13 132.51 485.13 128.55 562.77 174.21"></polygon><polygon class="cls-7" points="478.22 152.48 478.23 156.43 463.9 148.01 463.89 144.05 478.22 152.48"></polygon><polygon class="cls-7" points="558.45 162.34 558.46 166.29 485.11 123.17 485.11 119.21 558.45 162.34"></polygon><polygon class="cls-7" points="550.51 176.33 550.52 180.28 463.86 129.33 463.85 125.37 550.51 176.33"></polygon><polygon class="cls-7" points="478.16 124.46 478.17 128.41 463.84 119.99 463.83 116.03 478.16 124.46"></polygon><polygon class="cls-7" points="478.14 115.12 478.15 119.07 463.82 110.65 463.81 106.69 478.14 115.12"></polygon><polygon class="cls-7" points="550.46 148.31 550.46 152.27 463.8 101.31 463.79 97.35 550.46 148.31"></polygon><polygon class="cls-7" points="533.09 127.34 533.1 131.29 444.75 79.34 444.74 75.39 533.09 127.34"></polygon></g><polygon class="cls-7" points="568.53 148.17 568.53 152.13 563.3 149.05 563.3 145.1 568.53 148.17"></polygon><polygon class="cls-7" points="456.43 121.01 456.43 124.96 444.83 118.14 444.82 114.18 456.43 121.01"></polygon><polygon class="cls-7" points="478.2 143.14 478.21 147.09 463.88 138.67 463.87 134.71 478.2 143.14"></polygon><polygon class="cls-7" points="478.28 180.5 478.29 184.45 463.96 176.03 463.95 172.07 478.28 180.5"></polygon><path class="cls-6" d="M319.08,386.38c2.31,1.33,2.31,3.49,0,4.82l-9.32,5.42-114.37-66,9.32-5.42a9.19,9.19,0,0,1,8.33,0Z"></path><path class="cls-3" d="M195.41,330.59l114.37,66-61.08,35.5a9.2,9.2,0,0,1-8.35,0l-106-61.21c-2.31-1.33-2.32-3.5,0-4.83Z"></path><path class="cls-8" d="M272.08,195.71l158.34,91.22a5.06,5.06,0,0,1,0,8.76L315.11,362.75a5.1,5.1,0,0,1-5.16,0L150.73,267a5.06,5.06,0,0,1,.21-8.79l116.22-62.58A5,5,0,0,1,272.08,195.71Z"></path><path class="cls-3" d="M414.85,272c3.83,2.21,3.85,5.8,0,8L315,338a15.2,15.2,0,0,1-13.82,0L148.26,249.73c-3.83-2.21-3.87-5.8-.06-8l99.86-58a15.27,15.27,0,0,1,13.84,0Z"></path><path class="cls-8" d="M200.59,221.9l48-27.52a8.59,8.59,0,0,1,8.55,0l139.14,80.29a2.15,2.15,0,0,1,0,3.73l-48,27.52a8.6,8.6,0,0,1-8.56,0L200.58,225.63A2.15,2.15,0,0,1,200.59,221.9Z"></path><path class="cls-8" d="M211,269.3l20.8-11.67a6.62,6.62,0,0,1,6.52,0L278.78,281a1.76,1.76,0,0,1,0,3.06L258,295.74a6.59,6.59,0,0,1-6.52,0L211,272.35A1.76,1.76,0,0,1,211,269.3Z"></path><path class="cls-1" d="M417.74,276.12a3.57,3.57,0,0,1-.07.56,2.85,2.85,0,0,1-.16.55,3.51,3.51,0,0,1-.26.56,4.21,4.21,0,0,1-.39.58,5.29,5.29,0,0,1-.61.65,7.58,7.58,0,0,1-1.23.92l-.12.07L315,338a10.51,10.51,0,0,1-2.13.94,12.2,12.2,0,0,1-1.85.46c-.41.08-.82.13-1.24.18s-.72.06-1.08.07h-1c-.33,0-.65,0-1-.05s-.63-.06-.95-.1l-1-.17-1-.25a11.1,11.1,0,0,1-1.19-.41,10.88,10.88,0,0,1-1.42-.67L148.26,249.73c-1.93-1.12-2.9-2.58-2.9-4l0,7.69c0,1.46,1,2.92,2.9,4l153,88.31a10.3,10.3,0,0,0,1.42.67,11.07,11.07,0,0,0,1.19.4c.33.1.67.18,1,.26s.64.12,1,.16.63.08.95.11.64,0,1,.05h1c.36,0,.72,0,1.08-.07s.83-.1,1.24-.18a12.2,12.2,0,0,0,1.85-.46,11.09,11.09,0,0,0,2.13-.94l99.87-58,.12-.07a7.58,7.58,0,0,0,1.23-.92,5.29,5.29,0,0,0,.61-.65,4.21,4.21,0,0,0,.39-.58,4.67,4.67,0,0,0,.26-.56,3.8,3.8,0,0,0,.16-.55,2.74,2.74,0,0,0,.06-.56.28.28,0,0,0,0-.09l0-7.69Z"></path><path class="cls-6" d="M452.43,150.16s0-.09,0-.13,0-.09,0-.13a.68.68,0,0,0,0-.14s0-.09,0-.13l0-.14,0-.14,0-.14a.83.83,0,0,0,0-.15c0-.05,0-.09,0-.14a.58.58,0,0,0,0-.14c0-.05,0-.1,0-.14l-.06-.14a.69.69,0,0,0-.05-.13s0-.09-.05-.13a.91.91,0,0,0-.07-.14l-.06-.13-.09-.18-.15-.26-.18-.28c-.06-.09-.11-.17-.18-.26l-.12-.16-.1-.12-.1-.12-.11-.12-.11-.12a.57.57,0,0,1-.11-.11l-.12-.11-.12-.1-.13-.1a.31.31,0,0,0-.11-.09l-.12-.09-.12-.08a.41.41,0,0,1-.11-.07h0L284.56,50.23l-.09,0-.11,0-.11-.06-.11,0-.1,0-.11,0-.11,0-.12,0-.12,0-.12,0h-.26l-.16,0-.18,0-.22.1-4.07,2.36.22-.1.19,0,.15,0h.39l.11,0,.12,0,.11,0,.11,0,.11,0,.11,0,.11.05.11.06.08.05L445.65,148l0,0,.12.07.11.07.12.09.12.09.12.1.12.1.12.11.11.12a.57.57,0,0,1,.11.11l.11.12.1.12.11.13.12.16.18.25.17.28a1.82,1.82,0,0,1,.15.27l.09.17s.05.09.07.14l.06.13.06.13a.5.5,0,0,0,.05.13s0,.1.05.14l.05.14c0,.05,0,.09,0,.14s0,.1.05.15l0,.14a1,1,0,0,1,0,.14l0,.14a.59.59,0,0,0,0,.14s0,.09,0,.14,0,.09,0,.13a288414107508.07,288414107508.07,0,0,1,0,.26v.26s0,.08,0,.13,0,.09,0,.13a.59.59,0,0,0,0,.13v0l-23.65,122.7a.36.36,0,0,1,0,.1l0,.14c0,.05,0,.1-.05.14a.77.77,0,0,1-.07.16,1.14,1.14,0,0,1-.1.19,1.41,1.41,0,0,1-.46.45l4.06-2.37a1.26,1.26,0,0,0,.47-.45l.1-.18a.76.76,0,0,0,.06-.16.58.58,0,0,0,.05-.14.74.74,0,0,0,0-.14s0-.07,0-.1l23.65-122.71v0a.59.59,0,0,0,0-.13c0-.05,0-.09,0-.14a.62.62,0,0,1,0-.13v-.25Z"></path><path class="cls-3" d="M445.65,148a5.75,5.75,0,0,1,2.66,5.26l-23.65,122.7c-.24,1.33-1.36,1.74-2.67,1L256.84,181.55a5.79,5.79,0,0,1-2.66-5.26l23.65-122.7c.25-1.33,1.37-1.74,2.66-1Z"></path><path class="cls-7" d="M261.53,177.09a2.28,2.28,0,0,1-.29-.52L283.43,61.45,441,152.4a2.45,2.45,0,0,1,.28.53L419.07,268.05Z"></path><path class="cls-9" d="M246.56,201.93l5.45,3.14a.66.66,0,0,0,.19.09l.16.06.13,0,.13,0h.55l.18,0a2.44,2.44,0,0,0,.26-.06l.3-.13,3.1-1.81h0a.59.59,0,0,0,.17-.13.76.76,0,0,0,.09-.09.35.35,0,0,0,0-.08.3.3,0,0,0,0-.08.19.19,0,0,0,0-.08.17.17,0,0,0,0-.07h0v-2.17h0s0,0,0,.08,0,.05,0,.07l0,.08a.56.56,0,0,1-.05.08l-.09.09a1.09,1.09,0,0,1-.17.13h0l-3.11,1.81a1.36,1.36,0,0,1-.3.13,1.1,1.1,0,0,1-.26.06l-.17,0h-.55l-.13,0a.7.7,0,0,1-.14,0l-.16-.05-.19-.09-5.44-3.15a.67.67,0,0,1-.41-.56v2.17A.68.68,0,0,0,246.56,201.93Z"></path><path class="cls-9" d="M255.76,204.74v2.17a.7.7,0,0,0,.41.56l5.43,3.13.19.1.17.06.14,0,.13,0,.13,0h.42l.17,0,.26-.06a1.38,1.38,0,0,0,.3-.14l3.11-1.8h0a.83.83,0,0,0,.18-.13l.08-.09.06-.08,0-.08a.19.19,0,0,0,0-.07.22.22,0,0,0,0-.08h0v-2.17h0a.22.22,0,0,1,0,.08.19.19,0,0,1,0,.07.2.2,0,0,1,0,.08.22.22,0,0,1-.05.08l-.09.09a.59.59,0,0,1-.17.13h0l-3.1,1.81a2.71,2.71,0,0,1-.3.13,1.22,1.22,0,0,1-.26.06l-.17,0h-.55l-.13,0-.15,0-.16-.06-.2-.09-5.43-3.14A.67.67,0,0,1,255.76,204.74Z"></path><path class="cls-9" d="M265.34,210.27v2.17a.71.71,0,0,0,.4.56l5.45,3.14a.66.66,0,0,0,.19.09l.16.06.14,0,.13,0,.13,0h.42l.17,0a2,2,0,0,0,.26-.06,1.38,1.38,0,0,0,.3-.14l3.11-1.8h0a.83.83,0,0,0,.18-.13l.08-.09.06-.08,0-.08,0-.08v-.07h0v-2.17h0a.22.22,0,0,1,0,.08.19.19,0,0,1,0,.07.3.3,0,0,1,0,.08.35.35,0,0,1,0,.08,1.29,1.29,0,0,1-.26.22h0l-3.1,1.81-.31.13a1,1,0,0,1-.25.06l-.18,0h-.55l-.13,0-.14,0-.16-.05-.18-.09-5.45-3.15A.67.67,0,0,1,265.34,210.27Z"></path><path class="cls-9" d="M274.93,215.81V218a.68.68,0,0,0,.4.56l5.43,3.13a1.24,1.24,0,0,0,.2.1l.16,0,.14,0,.14,0,.13,0H282l.17,0,.25-.06a1.38,1.38,0,0,0,.3-.14l3.11-1.8h0a1.09,1.09,0,0,0,.17-.13l.09-.09.05-.08,0-.08s0,0,0-.07,0,0,0-.08h0v-2.17h0a.22.22,0,0,1,0,.08.19.19,0,0,1,0,.07l0,.08-.06.08-.08.09a.83.83,0,0,1-.18.13h0l-3.11,1.81a2.08,2.08,0,0,1-.3.13,1.1,1.1,0,0,1-.26.06l-.17,0h-.55l-.13,0-.14,0-.17-.06-.2-.09-5.43-3.14A.69.69,0,0,1,274.93,215.81Z"></path><path class="cls-9" d="M284.51,221.34v2.17a.66.66,0,0,0,.4.56l5.44,3.14a.66.66,0,0,0,.19.09l.16.06.14,0,.13,0,.13,0h.42l.17,0a2,2,0,0,0,.26-.06,1.38,1.38,0,0,0,.3-.14l3.11-1.8h0a1.09,1.09,0,0,0,.17-.13l.09-.09a.56.56,0,0,1,.05-.08s0-.05,0-.08l0-.08s0-.05,0-.07v-2.18h0a.25.25,0,0,1,0,.08.19.19,0,0,1,0,.07l0,.08-.06.08-.08.09a.83.83,0,0,1-.18.13h0L292.26,225a2.08,2.08,0,0,1-.3.13,1.1,1.1,0,0,1-.26.06l-.17,0H291l-.13,0-.14,0-.16-.05-.19-.09-5.45-3.15A.67.67,0,0,1,284.51,221.34Z"></path><path class="cls-9" d="M294.11,226.88v2.17a.68.68,0,0,0,.4.56l5.43,3.13.2.1.16,0,.15,0,.13,0,.13,0h.42l.17,0,.26-.06a1.64,1.64,0,0,0,.3-.14l3.1-1.8h0a.84.84,0,0,0,.17-.13.76.76,0,0,0,.09-.09.35.35,0,0,0,0-.08.3.3,0,0,0,0-.08.19.19,0,0,0,0-.07.25.25,0,0,0,0-.08h0v-2.17h0a.22.22,0,0,0,0,.08.19.19,0,0,0,0,.07l0,.08-.06.08-.08.09a1.09,1.09,0,0,1-.17.13h0l-3.11,1.81a2.08,2.08,0,0,1-.3.13l-.25.06-.17,0h-.42l-.13,0-.14,0-.14,0-.16-.06-.2-.09-5.43-3.14A.65.65,0,0,1,294.11,226.88Z"></path><path class="cls-9" d="M303.68,232.41v2.17a.68.68,0,0,0,.4.56l5.43,3.13.2.1.16,0,.15,0,.13,0,.13,0h.42l.17,0,.26-.06a2,2,0,0,0,.3-.14l3.1-1.8h0a.76.76,0,0,0,.17-.13l.09-.09a.35.35,0,0,0,.05-.08l0-.08s0-.05,0-.07,0-.06,0-.08h0v-2.17h0v.08l0,.07,0,.08-.06.08-.08.09a1.09,1.09,0,0,1-.17.13h0l-3.11,1.81a2.08,2.08,0,0,1-.3.13,1.14,1.14,0,0,1-.25.06l-.18,0h-.41l-.13,0-.14,0-.14,0-.17-.06-.19-.09L304.09,233A.69.69,0,0,1,303.68,232.41Z"></path><path class="cls-9" d="M313.28,238v2.17a.67.67,0,0,0,.39.55l5.44,3.14.2.1.17.05.14,0,.13,0,.13,0h.42l.17,0,.26-.06a1.38,1.38,0,0,0,.3-.14l3.11-1.8h0a1.4,1.4,0,0,0,.18-.13l.08-.09.06-.08,0-.08a.19.19,0,0,0,0-.07.25.25,0,0,0,0-.08h0v-2.17h0s0,0,0,.08,0,.05,0,.07a.3.3,0,0,1,0,.08.35.35,0,0,1,0,.08l-.09.09a.76.76,0,0,1-.17.13h0l-3.1,1.81-.3.13a2.44,2.44,0,0,1-.26.06l-.17,0h-.42l-.13,0-.13,0-.15,0-.16-.06-.2-.09-5.44-3.15A.67.67,0,0,1,313.28,238Z"></path><path class="cls-9" d="M322.86,243.48v2.17a.68.68,0,0,0,.4.56l5.43,3.13.2.1.17.05.14,0,.13,0,.13,0V247.4l-.13,0-.14,0-.14,0-.16-.06-.2-.09L323.26,244A.67.67,0,0,1,322.86,243.48Z"></path><path class="cls-9" d="M329.58,249.57h.29l.17,0,.26-.06a1.38,1.38,0,0,0,.3-.14l3.11-1.8h0a1.4,1.4,0,0,0,.18-.13l.08-.09.06-.08,0-.08a.19.19,0,0,0,0-.07.25.25,0,0,0,0-.08h0v-2.17h0s0,0,0,.08,0,.05,0,.07a.2.2,0,0,1,0,.08.35.35,0,0,1-.05.08l-.09.09a.76.76,0,0,1-.17.13h0l-3.1,1.81-.31.13a1.83,1.83,0,0,1-.25.06l-.17,0h-.42v2.17Z"></path><polygon class="cls-9" points="329.46 247.4 329.46 247.4 329.46 247.4 329.46 247.4"></polygon><path class="cls-9" d="M332.45,249v2.17a.67.67,0,0,0,.39.55l5.45,3.14.2.1.16.05.14,0,.14,0,.13,0h.41l.18,0,.25-.07a1,1,0,0,0,.3-.13l3.11-1.8h0l.17-.13.08-.09s0-.06.06-.08,0-.05,0-.08l0-.08a.17.17,0,0,1,0-.07h0v-2.17h0a.22.22,0,0,1,0,.08.19.19,0,0,1,0,.07l0,.08-.06.08-.08.09a.83.83,0,0,1-.18.13h0l-3.11,1.81a2.08,2.08,0,0,1-.3.13,2,2,0,0,1-.26.06l-.17,0h-.42l-.13,0-.13,0-.14,0-.17-.06-.2-.09-5.44-3.15A.67.67,0,0,1,332.45,249Z"></path><path class="cls-9" d="M342,254.55v2.17a.7.7,0,0,0,.41.56l5.43,3.13.19.1.17.05.14,0,.13,0,.14,0H349l.18,0,.25-.07a1,1,0,0,0,.3-.13l3.11-1.8h0l.17-.13.08-.09.06-.08,0-.08,0-.07v-.08h0v-2.17h0a.22.22,0,0,1,0,.08.19.19,0,0,1,0,.07.3.3,0,0,1,0,.08.35.35,0,0,1,0,.08l-.08.09a.83.83,0,0,1-.18.13h0l-3.1,1.81a2.08,2.08,0,0,1-.3.13,2,2,0,0,1-.26.06l-.17,0h-.42l-.13,0-.13,0-.14,0-.17-.06-.2-.09-5.43-3.14A.67.67,0,0,1,342,254.55Z"></path><path class="cls-9" d="M351.62,260.09v2.17a.67.67,0,0,0,.39.55l5.44,3.14.2.1.16.05.15,0,.13,0,.13,0h.42l.17,0,.26-.07a1.3,1.3,0,0,0,.3-.13l3.1-1.8h0a1.26,1.26,0,0,0,.17-.13l.09-.09.05-.08a.3.3,0,0,0,0-.08s0-.05,0-.08,0-.05,0-.07h0v-2.17h0v.08l0,.07,0,.08-.06.08-.08.09a1.09,1.09,0,0,1-.17.13h0l-3.11,1.8a1.38,1.38,0,0,1-.3.14l-.25.06-.18,0h-.41l-.13,0-.14,0-.14,0-.17-.06-.19-.1L352,260.64A.67.67,0,0,1,351.62,260.09Z"></path><path class="cls-9" d="M361.61,266.18a.7.7,0,0,1-.41-.56v2.17a.68.68,0,0,0,.4.56l7.63,4.4.19.1v-2.17l-.2-.1Z"></path><path class="cls-9" d="M369.59,272.9l.14,0,.13,0h.55l.18,0,.25-.07a1.36,1.36,0,0,0,.3-.13l3.11-1.8h0l.17-.13.08-.09.06-.08,0-.08,0-.08v-2.25h0a.25.25,0,0,1,0,.08.19.19,0,0,1,0,.07.3.3,0,0,1,0,.08l-.05.08a.38.38,0,0,1-.09.09.84.84,0,0,1-.17.13h0l-3.1,1.8a1.38,1.38,0,0,1-.3.14l-.26.06-.17,0H370l-.13,0-.13,0-.14,0-.17-.05v2.17Z"></path><polygon class="cls-9" points="369.43 270.68 369.43 270.68 369.43 270.68 369.43 270.68"></polygon><path class="cls-9" d="M386.49,275.07s0,.05,0,.08,0,.05,0,.07l0,.08a.56.56,0,0,1-.05.08l-.09.09a1.09,1.09,0,0,1-.17.13h0L383,277.42a2.08,2.08,0,0,1-.3.13,1,1,0,0,1-.25.06l-.17,0h-.55l-.14,0-.14,0-.16-.06-.2-.09L373.38,273a.67.67,0,0,1-.39-.55v2.17a.67.67,0,0,0,.38.55l7.69,4.43.2.1.17.06.14,0,.13,0,.13,0h.42l.17,0,.26-.06a1.38,1.38,0,0,0,.3-.14l3.1-1.8h0a.83.83,0,0,0,.18-.13l.08-.09a.35.35,0,0,0,.05-.08.3.3,0,0,0,0-.08.19.19,0,0,0,0-.07.22.22,0,0,0,0-.08h0v-2.17Z"></path><path class="cls-9" d="M237.23,207.35l5.44,3.15.19.09.16,0,.14,0,.13,0h.55l.17,0,.26-.07a1.36,1.36,0,0,0,.3-.13l5.4-3.14h0l.18-.12a.39.39,0,0,0,.08-.1l.06-.08,0-.07,0-.08v-.08h0v-2.15a.17.17,0,0,1,0,.07.24.24,0,0,1,0,.08l0,.08-.05.08-.09.09a1.26,1.26,0,0,1-.17.13h0l-5.39,3.13a1.14,1.14,0,0,1-.3.13l-.26.07-.17,0h-.42l-.13,0-.14,0-.13,0-.16-.06a.66.66,0,0,1-.19-.09l-5.45-3.14a.68.68,0,0,1-.4-.56v2.17A.67.67,0,0,0,237.23,207.35Z"></path><path class="cls-9" d="M252.61,216.18l.15,0,.13,0h.55l.17,0,.26-.07a1.94,1.94,0,0,0,.3-.13l5.39-3.14h0l.17-.12.09-.1a.22.22,0,0,0,.05-.08l0-.07,0-.08s0-.05,0-.07v-2.18h0a.17.17,0,0,1,0,.07.24.24,0,0,1,0,.08l0,.08-.06.08-.08.09a1.4,1.4,0,0,1-.18.13h0l-5.4,3.13a1.36,1.36,0,0,1-.3.13l-.25.07-.18,0H253l-.13,0-.14,0-.14,0-.17,0v2.16A1,1,0,0,0,252.61,216.18Z"></path><path class="cls-9" d="M252.26,213.86l-5.43-3.13a.7.7,0,0,1-.41-.56v2.17a.66.66,0,0,0,.4.55l5.43,3.14a1.21,1.21,0,0,0,.2.09V214Z"></path><polygon class="cls-9" points="252.46 213.96 252.46 213.96 252.46 213.96 252.46 213.96"></polygon><path class="cls-9" d="M227.89,212.78l10.1,5.85.2.09.16.06.14,0,.14,0h.55l.17,0a1,1,0,0,0,.25-.06,2.08,2.08,0,0,0,.3-.13l5.4-3.14h0a1.09,1.09,0,0,0,.17-.13l.08-.09a.24.24,0,0,0,.06-.08.21.21,0,0,0,0-.07l0-.08a.22.22,0,0,1,0-.08h0v-2.15a.17.17,0,0,1,0,.07.24.24,0,0,1,0,.08l0,.07-.06.09-.08.09-.18.12h0l-5.4,3.14a1.36,1.36,0,0,1-.3.13l-.26.07-.17,0h-.55l-.13,0-.14,0-.17-.06a.66.66,0,0,1-.19-.09l-10.1-5.85a.64.64,0,0,1-.4-.56v2.17A.68.68,0,0,0,227.89,212.78Z"></path><path class="cls-9" d="M269.53,215.79a.24.24,0,0,1,0,.08l0,.08-.06.08-.08.09a1.4,1.4,0,0,1-.18.13h0l-5.4,3.13a1,1,0,0,1-.3.13l-.26.07-.17,0h-.42l-.13,0-.13,0-.14,0-.16-.06-.19-.09-5.44-3.14a.7.7,0,0,1-.41-.56v2.17a.66.66,0,0,0,.4.55l5.44,3.15.19.09.16.05.14,0,.13,0H263l.18,0,.25-.07a1.69,1.69,0,0,0,.31-.13l5.39-3.14h0l.17-.12.09-.1a.22.22,0,0,0,.05-.08.25.25,0,0,0,0-.07s0-.06,0-.08,0-.05,0-.08h0V215.7h0A.19.19,0,0,1,269.53,215.79Z"></path><path class="cls-9" d="M242,218.44v2.16a.66.66,0,0,0,.4.56L252.51,227a.66.66,0,0,0,.19.09l.16.06.14,0,.13,0,.13,0h.42l.17,0,.26-.06a1.38,1.38,0,0,0,.3-.14l5.4-3.13h0a.83.83,0,0,0,.18-.13l.08-.09.06-.08,0-.08a.19.19,0,0,0,0-.08.17.17,0,0,0,0-.07v-2.18h0a.22.22,0,0,1,0,.08s0,.05,0,.07a.3.3,0,0,1,0,.08.35.35,0,0,1-.05.08l-.09.09a1.09,1.09,0,0,1-.17.13h0l-5.39,3.14-.3.13a1.22,1.22,0,0,1-.26.06l-.18,0h-.55l-.13,0-.14,0-.16-.05-.18-.09L242.39,219A.68.68,0,0,1,242,218.44Z"></path><path class="cls-9" d="M218.56,218.2l15,8.68a1.21,1.21,0,0,0,.2.09v-2.16l-.2-.1-15-8.67a.68.68,0,0,1-.4-.56v2.17A.67.67,0,0,0,218.56,218.2Z"></path><path class="cls-9" d="M233.94,227l.15,0,.13,0h.55l.17,0a1.22,1.22,0,0,0,.26-.06,1.6,1.6,0,0,0,.3-.13l5.39-3.14h0l.17-.12.09-.1a.22.22,0,0,0,.05-.08l0-.07s0-.05,0-.08,0-.05,0-.08h0V221h0a.17.17,0,0,1,0,.07.24.24,0,0,1,0,.08l0,.08-.06.08-.08.09a1.4,1.4,0,0,1-.18.13h0l-5.4,3.13a1.36,1.36,0,0,1-.3.13l-.25.07-.18,0h-.54l-.14,0-.14,0-.16-.05V227Z"></path><polygon class="cls-9" points="233.78 224.81 233.78 224.81 233.78 224.81 233.78 224.81"></polygon><path class="cls-9" d="M222,223.62a.76.76,0,0,0,.17-.13l.09-.09a.35.35,0,0,0,0-.08l0-.08a.19.19,0,0,0,0-.08.17.17,0,0,0,0-.07h0v-2.17h0s0,.05,0,.08a.19.19,0,0,0,0,.07s0,.05,0,.08l-.06.08-.08.09a1.09,1.09,0,0,1-.17.13h0l-7.68,4.47-.31.13a1,1,0,0,1-.25.06l-.18,0H213l-.13,0-.14,0-.16-.05-.18-.09-5.45-3.15a.67.67,0,0,1-.4-.56v2.17a.71.71,0,0,0,.4.56l5.45,3.14a.66.66,0,0,0,.19.09l.16.06.14,0,.13,0,.13,0h.42l.17,0,.26-.06a1.38,1.38,0,0,0,.3-.14l7.68-4.46Z"></path><path class="cls-9" d="M231.57,229.16a.83.83,0,0,0,.18-.13l.08-.09.06-.08,0-.08a.19.19,0,0,0,0-.07.25.25,0,0,0,0-.08h0v-2.17h0s0,0,0,.08,0,.05,0,.07a.2.2,0,0,1,0,.08.22.22,0,0,1,0,.08l-.09.09a.76.76,0,0,1-.17.13h0l-7.68,4.47a2.08,2.08,0,0,1-.3.13,2,2,0,0,1-.26.06l-.17,0h-.42l-.13,0-.13,0-.14,0-.17-.06-.2-.09-5.43-3.14a.69.69,0,0,1-.4-.56v2.17a.66.66,0,0,0,.4.56l5.43,3.13.2.1.16.05.14,0,.14,0,.13,0h.42l.17,0,.25-.06a1.38,1.38,0,0,0,.3-.14l7.69-4.46Z"></path><path class="cls-9" d="M237.33,226.55v2.17a.66.66,0,0,0,.4.55l5.45,3.15.18.09.16.05.14,0,.13,0h.55l.18,0,.25-.07a1.69,1.69,0,0,0,.31-.13l5.39-3.14h0a1.09,1.09,0,0,0,.17-.13.76.76,0,0,0,.09-.09.22.22,0,0,0,.05-.08.25.25,0,0,0,0-.07s0-.06,0-.08,0-.05,0-.08h0v-2.17h0v.08l0,.08,0,.07-.06.09-.08.09a1.4,1.4,0,0,1-.18.13h0l-5.4,3.13a1.36,1.36,0,0,1-.3.13l-.26.07-.17,0h-.42l-.13,0-.13,0-.14,0-.16,0-.19-.09-5.44-3.14A.7.7,0,0,1,237.33,226.55Z"></path><path class="cls-9" d="M241.15,234.69a.83.83,0,0,0,.18-.13l.08-.09.06-.08,0-.08a.24.24,0,0,0,0-.08.17.17,0,0,0,0-.07V232h0a.25.25,0,0,1,0,.08.19.19,0,0,1,0,.07.3.3,0,0,1,0,.08.35.35,0,0,1-.05.08l-.09.09a.76.76,0,0,1-.17.13h0L233.46,237a2.08,2.08,0,0,1-.3.13,2,2,0,0,1-.26.06l-.17,0h-.42l-.13,0-.13,0-.14,0-.17-.06-.2-.09-5.43-3.14a.67.67,0,0,1-.4-.56v2.17a.7.7,0,0,0,.41.56l5.43,3.13.19.1.17.05.14,0,.14,0,.13,0h.13a.65.65,0,0,0,.14,0h.14l.18,0,.25-.06a1.38,1.38,0,0,0,.3-.14l7.69-4.46Z"></path><path class="cls-9" d="M279.13,221.33a.24.24,0,0,0,0,.08s0,.05,0,.08a.56.56,0,0,0-.05.08l-.09.09-.17.13h0l-5.39,3.13a1.94,1.94,0,0,1-.3.13l-.26.07-.17,0h-.55l-.14,0-.14,0-.16-.05-.2-.1L266,221.8a.68.68,0,0,1-.4-.56v2.17a.66.66,0,0,0,.4.55l5.43,3.14a1.76,1.76,0,0,0,.2.09l.17.06.14,0,.13,0h.55l.17,0a1.1,1.1,0,0,0,.26-.06,1.36,1.36,0,0,0,.3-.13l5.39-3.14h0a.59.59,0,0,0,.17-.13.26.26,0,0,0,.09-.09.22.22,0,0,0,.05-.08.25.25,0,0,0,0-.07.24.24,0,0,0,0-.08.19.19,0,0,0,0-.08h0v-2.15S279.13,221.31,279.13,221.33Z"></path><path class="cls-9" d="M269.42,229.38l.17-.13.08-.09.06-.08,0-.08,0-.07v-.08h0v-2.17h0a.22.22,0,0,1,0,.08.19.19,0,0,1,0,.07.2.2,0,0,1,0,.08.35.35,0,0,1-.05.08l-.08.09a.83.83,0,0,1-.18.13h0l-5.4,3.14a2.08,2.08,0,0,1-.3.13,2,2,0,0,1-.26.06l-.17,0h-.42l-.13,0-.13,0-.14,0-.17-.06-.2-.09-5.43-3.14a.69.69,0,0,1-.4-.56v2.17a.68.68,0,0,0,.4.56l5.43,3.13.2.1.16,0,.14,0,.14,0,.13,0h.42l.17,0,.25-.06a1.38,1.38,0,0,0,.3-.14l5.4-3.13Z"></path><path class="cls-9" d="M247.32,234.81l5.43,3.14a1.76,1.76,0,0,0,.2.09l.17.06.14,0,.13,0h.55l.17,0a1.1,1.1,0,0,0,.26-.06,1.36,1.36,0,0,0,.3-.13l5.39-3.14h0a.83.83,0,0,0,.18-.13.34.34,0,0,0,.08-.09.22.22,0,0,0,.05-.08.25.25,0,0,0,0-.07.24.24,0,0,0,0-.08.19.19,0,0,0,0-.08h0v-2.15s0,0,0,.07l0,.08,0,.08a.56.56,0,0,0,0,.08l-.09.09-.17.13h0l-5.39,3.13a1.94,1.94,0,0,1-.3.13l-.26.07-.17,0h-.55l-.13,0-.15,0-.16-.05-.2-.1-5.43-3.13a.68.68,0,0,1-.4-.56v2.16A.68.68,0,0,0,247.32,234.81Z"></path><path class="cls-9" d="M250.75,240.23l.17-.13L251,240l.06-.08s0-.05,0-.08l0-.07a.19.19,0,0,1,0-.08h0v-2.17h0a.22.22,0,0,1,0,.08.19.19,0,0,1,0,.07l0,.08-.06.08-.08.09a.83.83,0,0,1-.18.13h0l-7.69,4.47a2.08,2.08,0,0,1-.3.13l-.25.06-.18,0h-.41l-.13,0-.14,0-.14,0-.16-.06-.2-.09-5.43-3.14a.69.69,0,0,1-.41-.56V241a.68.68,0,0,0,.4.56l5.43,3.13a1.24,1.24,0,0,0,.2.1l.16,0,.15,0,.13,0,.13,0h.42l.17,0,.26-.07a1.3,1.3,0,0,0,.3-.13l7.68-4.46Z"></path><path class="cls-9" d="M288.71,226.86s0,0,0,.08l0,.07,0,.09-.09.09-.17.13h0l-5.4,3.13a1,1,0,0,1-.3.13l-.25.07-.18,0h-.42l-.13,0-.13,0-.14,0-.16-.05-.19-.09-5.44-3.14a.68.68,0,0,1-.4-.56v2.17a.66.66,0,0,0,.4.55l5.45,3.15.19.09.16.05.13,0,.14,0h.55l.17,0,.26-.07a1.6,1.6,0,0,0,.3-.13l5.39-3.14h0a.76.76,0,0,0,.17-.13s.06-.06.09-.09a.22.22,0,0,0,.05-.08.25.25,0,0,0,0-.07.31.31,0,0,0,0-.08.22.22,0,0,0,0-.08h0v-2.17h0S288.71,226.84,288.71,226.86Z"></path><path class="cls-9" d="M298.3,232.4a.24.24,0,0,1,0,.08.59.59,0,0,1,0,.08l-.05.08-.09.09a1.26,1.26,0,0,1-.17.13h0L292.52,236a1.36,1.36,0,0,1-.3.13l-.26.07-.17,0h-.55l-.13,0-.14,0-.17-.05-.2-.1-5.43-3.13a.68.68,0,0,1-.4-.56v2.16a.67.67,0,0,0,.41.56l5.43,3.14.19.09.17.06.14,0,.14,0h.54l.18,0a1.14,1.14,0,0,0,.25-.06,1.36,1.36,0,0,0,.3-.13l5.4-3.14h0a.83.83,0,0,0,.18-.13.34.34,0,0,0,.08-.09l.06-.08,0-.07a.24.24,0,0,0,0-.08.19.19,0,0,0,0-.08h0v-2.15A.17.17,0,0,1,298.3,232.4Z"></path><path class="cls-9" d="M266.24,234.92l5.44,3.14a.82.82,0,0,0,.19.09l.16.06.14,0,.13,0,.13,0h.42l.17,0,.26-.06a1.38,1.38,0,0,0,.3-.14l5.4-3.13h0a1.09,1.09,0,0,0,.17-.13l.08-.09.06-.08s0-.05,0-.08a.24.24,0,0,1,0-.08s0,0,0-.07V232.2h0a.25.25,0,0,1,0,.08.19.19,0,0,1,0,.07l0,.08-.06.08-.08.09a.83.83,0,0,1-.18.13h0l-5.39,3.14a2.08,2.08,0,0,1-.3.13,1.1,1.1,0,0,1-.26.06l-.17,0h-.55l-.13,0-.14,0-.16,0-.19-.1-5.45-3.14a.69.69,0,0,1-.4-.56v2.17A.66.66,0,0,0,266.24,234.92Z"></path><path class="cls-9" d="M275.83,240.46l5.43,3.13.2.1.17.05.14,0,.13,0,.13,0h.42l.17,0,.26-.07a1.14,1.14,0,0,0,.3-.13l5.39-3.13h0a1.26,1.26,0,0,0,.17-.13l.09-.09a.35.35,0,0,0,0-.08.3.3,0,0,0,0-.08s0,0,0-.07,0-.06,0-.08h0v-2.17h0v.08l0,.07,0,.08-.06.08-.08.09a1.09,1.09,0,0,1-.17.13h0l-5.4,3.14a2.08,2.08,0,0,1-.3.13,1.83,1.83,0,0,1-.25.06l-.17,0H282l-.13,0-.14,0-.14,0-.16-.06-.2-.09-5.43-3.14a.67.67,0,0,1-.4-.56v2.17A.68.68,0,0,0,275.83,240.46Z"></path><path class="cls-9" d="M307.88,237.93l0,.08a.3.3,0,0,1,0,.08l-.05.08-.09.09a1.26,1.26,0,0,1-.17.13h0l-5.39,3.13a1.6,1.6,0,0,1-.3.13l-.26.07-.17,0h-.55l-.13,0-.14,0-.17-.05-.2-.1-5.43-3.13a.68.68,0,0,1-.4-.56V240a.67.67,0,0,0,.41.56l5.43,3.14a1.11,1.11,0,0,0,.19.09l.17.06.14,0,.13,0h.55l.17,0a1.1,1.1,0,0,0,.26-.06,1.36,1.36,0,0,0,.3-.13l5.4-3.14h0a.83.83,0,0,0,.18-.13.24.24,0,0,0,.08-.09l.06-.08,0-.07a.24.24,0,0,0,0-.08.19.19,0,0,0,0-.08h0v-2.15S307.88,237.91,307.88,237.93Z"></path><path class="cls-9" d="M285.41,246l5.43,3.13.2.1.16.05.15,0,.13,0,.13,0H292l.17,0,.26-.06a2,2,0,0,0,.3-.14l5.39-3.13h0l.17-.13.09-.09a.35.35,0,0,0,.05-.08l0-.08s0,0,0-.07,0-.06,0-.08h0v-2.17h0a.22.22,0,0,1,0,.08.19.19,0,0,1,0,.07l0,.08-.06.08-.08.09a.83.83,0,0,1-.18.13h0l-5.4,3.14a2.08,2.08,0,0,1-.3.13l-.25.06-.18,0h-.41l-.13,0-.14,0-.14,0-.16-.06-.2-.09-5.43-3.14a.69.69,0,0,1-.41-.56v2.17A.68.68,0,0,0,285.41,246Z"></path><path class="cls-9" d="M256.9,240.34l5.45,3.15.19.09.16,0,.14,0,.13,0h.55l.17,0,.26-.07a1.36,1.36,0,0,0,.3-.13l5.39-3.14h0a.59.59,0,0,0,.17-.13l.09-.09A.22.22,0,0,0,270,240a.2.2,0,0,0,0-.08.19.19,0,0,0,0-.07.22.22,0,0,0,0-.08h0v-2.17h0s0,.06,0,.08,0,0,0,.08l0,.07-.05.09-.09.09-.17.13h0l-5.4,3.13a1.36,1.36,0,0,1-.3.13l-.25.07-.18,0h-.42l-.13,0-.13,0-.14,0-.16-.05-.19-.09-5.44-3.14a.68.68,0,0,1-.4-.56v2.16A.66.66,0,0,0,256.9,240.34Z"></path><path class="cls-9" d="M266.5,245.88l5.43,3.14a1.21,1.21,0,0,0,.2.09l.16.06.14,0,.14,0h.54l.18,0a1.14,1.14,0,0,0,.25-.06,2.08,2.08,0,0,0,.3-.13l5.4-3.14h0a.83.83,0,0,0,.18-.13l.08-.09.06-.08,0-.07a.24.24,0,0,0,0-.08.22.22,0,0,0,0-.08h0v-2.15a.17.17,0,0,1,0,.07.24.24,0,0,1,0,.08.25.25,0,0,1,0,.07.41.41,0,0,1-.05.09.76.76,0,0,1-.09.09l-.17.13h0l-5.39,3.13a1.36,1.36,0,0,1-.3.13l-.26.07-.17,0h-.55l-.13,0-.14,0-.17-.05-.2-.1-5.43-3.13a.68.68,0,0,1-.4-.56v2.16A.67.67,0,0,0,266.5,245.88Z"></path><path class="cls-9" d="M276.08,251.41l5.43,3.14a1.11,1.11,0,0,0,.19.09l.17.06.14,0,.13,0h.55l.17,0a1.1,1.1,0,0,0,.26-.06,1.36,1.36,0,0,0,.3-.13l5.4-3.14h0a.83.83,0,0,0,.18-.13.34.34,0,0,0,.08-.09l.06-.08,0-.07a.24.24,0,0,0,0-.08.19.19,0,0,0,0-.08h0v-2.15s0,0,0,.07,0,.05,0,.08a.59.59,0,0,1,0,.08l0,.08a.76.76,0,0,1-.09.09,1.26,1.26,0,0,1-.17.13h0l-5.39,3.13a1.6,1.6,0,0,1-.3.13l-.26.07-.17,0h-.55l-.13,0-.14,0-.17-.05-.2-.1-5.43-3.13a.68.68,0,0,1-.4-.56v2.16A.67.67,0,0,0,276.08,251.41Z"></path><path class="cls-9" d="M317.47,243.47a.24.24,0,0,1,0,.08l0,.08-.06.08-.08.09a1.4,1.4,0,0,1-.18.13h0l-5.4,3.13a1.36,1.36,0,0,1-.3.13l-.26.07-.17,0h-.55l-.13,0-.14,0-.17-.05-.19-.1-5.45-3.14a.67.67,0,0,1-.39-.55v2.17a.66.66,0,0,0,.38.54l5.45,3.15a1.21,1.21,0,0,0,.2.09l.16.06.14,0,.14,0H311l.17,0a1.22,1.22,0,0,0,.26-.06,1.94,1.94,0,0,0,.3-.13l5.39-3.14h0a1.09,1.09,0,0,0,.17-.13l.09-.09a.56.56,0,0,0,.05-.08l0-.07a.24.24,0,0,1,0-.08s0,0,0-.08h0V243.4A.17.17,0,0,1,317.47,243.47Z"></path><path class="cls-9" d="M295,251.52l5.44,3.14.2.1v-2.17l-.2-.09L295,249.35a.67.67,0,0,1-.39-.55V251A.67.67,0,0,0,295,251.52Z"></path><path class="cls-9" d="M300.8,254.81l.14,0,.13,0,.13,0h.42l.17,0,.26-.07a1,1,0,0,0,.3-.13l5.4-3.13h0a1.4,1.4,0,0,0,.18-.13l.08-.09.05-.08a.3.3,0,0,0,0-.08.19.19,0,0,0,0-.07.25.25,0,0,0,0-.08h0v-2.17h0s0,.05,0,.08,0,0,0,.07a.3.3,0,0,1,0,.08.35.35,0,0,1-.05.08l-.09.09a.76.76,0,0,1-.17.13h0l-5.39,3.14a2.71,2.71,0,0,1-.3.13,2.44,2.44,0,0,1-.26.06l-.17,0h-.42l-.13,0-.13,0-.15,0-.16-.06v2.17Z"></path><polygon class="cls-9" points="300.64 252.59 300.64 252.59 300.64 252.59 300.64 252.59"></polygon><path class="cls-9" d="M285.65,256.94l5.45,3.15a1.21,1.21,0,0,0,.2.09l.16.06.14,0,.14,0h.55l.17,0a1.22,1.22,0,0,0,.26-.06l.3-.13,5.39-3.14h0a1.09,1.09,0,0,0,.17-.13l.09-.09a.56.56,0,0,0,.05-.08l0-.07s0-.05,0-.08,0-.05,0-.08h0v-2.15a.17.17,0,0,1,0,.07.24.24,0,0,1,0,.08l0,.07-.06.09-.08.09-.18.12h0l-5.4,3.14a1.36,1.36,0,0,1-.3.13l-.25.07-.18,0h-.55l-.13,0-.14,0-.17-.06a.66.66,0,0,1-.19-.09l-5.45-3.14a.67.67,0,0,1-.39-.55v2.17A.66.66,0,0,0,285.65,256.94Z"></path><path class="cls-9" d="M289.09,262.37a1.4,1.4,0,0,0,.18-.13l.08-.09.06-.08,0-.08a.19.19,0,0,0,0-.08.17.17,0,0,0,0-.07h0v-2.17h0s0,.05,0,.08,0,.05,0,.07a.3.3,0,0,1,0,.08.35.35,0,0,1-.05.08l-.09.09a.76.76,0,0,1-.17.13h0l-7.68,4.46a1.38,1.38,0,0,1-.3.14l-.26.06-.17,0h-.15a.33.33,0,0,1-.14,0h-.13l-.13,0-.13,0-.14,0-.17-.06-.2-.1-34.19-19.74a.69.69,0,0,1-.41-.56v2.17a.68.68,0,0,0,.4.56l34.2,19.74.2.1.16.05.14,0,.14,0,.13,0h.41l.18,0,.25-.07a1,1,0,0,0,.3-.13l7.69-4.46Z"></path><path class="cls-9" d="M320,255h.55l.17,0a1,1,0,0,0,.25-.06,1.36,1.36,0,0,0,.3-.13l5.4-3.14h0a1.09,1.09,0,0,0,.17-.13.34.34,0,0,0,.08-.09.24.24,0,0,0,.06-.08l0-.07,0-.08v-.08h0v-2.15a.17.17,0,0,1,0,.07.24.24,0,0,1,0,.08l0,.08-.05.08-.08.09a1.4,1.4,0,0,1-.18.13h0l-5.4,3.13a1.36,1.36,0,0,1-.3.13l-.26.07-.17,0H320l-.13,0V255Z"></path><path class="cls-9" d="M319.72,252.75l-.17-.05-.2-.1-5.43-3.13a.71.71,0,0,1-.4-.56v2.16a.66.66,0,0,0,.4.56l5.43,3.14a1.21,1.21,0,0,0,.2.09l.16.06.14,0v-2.16Z"></path><path class="cls-9" d="M304.58,257.06l5.43,3.13.2.1.17,0,.14,0,.13,0v-2.17l-.14,0-.14,0-.16-.06L310,258l-5.43-3.14a.67.67,0,0,1-.4-.56v2.17A.68.68,0,0,0,304.58,257.06Z"></path><path class="cls-9" d="M310.78,260.42h.42l.17,0,.26-.06a1.38,1.38,0,0,0,.3-.14l5.39-3.13h0a.84.84,0,0,0,.17-.13l.09-.09a.35.35,0,0,0,0-.08.3.3,0,0,0,0-.08.19.19,0,0,0,0-.07.25.25,0,0,0,0-.08h0v-2.17h0s0,.05,0,.08,0,0,0,.07l0,.08-.05.08-.09.09a1.09,1.09,0,0,1-.17.13h0L311.94,258l-.3.13a2.44,2.44,0,0,1-.26.06l-.17,0h-.42l-.13,0v2.17Z"></path><polygon class="cls-9" points="310.66 258.23 310.66 258.23 310.66 258.23 310.66 258.23"></polygon><path class="cls-9" d="M295.25,262.48l5.43,3.14a1.21,1.21,0,0,0,.2.09l.16.06.14,0v-2.16l-.14,0-.17-.05-.19-.1-5.43-3.13a.7.7,0,0,1-.41-.56v2.16A.66.66,0,0,0,295.25,262.48Z"></path><path class="cls-9" d="M301.32,265.83h.55l.17,0a1,1,0,0,0,.25-.06,1.36,1.36,0,0,0,.3-.13l5.4-3.14h0a1.09,1.09,0,0,0,.17-.13l.08-.09a.24.24,0,0,0,.06-.08.21.21,0,0,0,0-.07l0-.08a.22.22,0,0,1,0-.08h0v-2.15a.17.17,0,0,1,0,.07.24.24,0,0,1,0,.08l0,.08-.05.08-.08.09-.18.13h0l-5.4,3.13a1.36,1.36,0,0,1-.3.13l-.26.07-.17,0h-.55l-.13,0v2.16Z"></path><path class="cls-9" d="M298.67,267.9a1.4,1.4,0,0,0,.18-.13l.08-.09.05-.08a.3.3,0,0,0,0-.08.19.19,0,0,0,0-.07.25.25,0,0,0,0-.08h0v-2.17h0s0,.05,0,.08,0,.05,0,.07,0,0,0,.08l-.05.08-.09.09a1.09,1.09,0,0,1-.17.13h0L291,270.2a1.38,1.38,0,0,1-.3.14l-.26.06-.17,0h-.42l-.13,0-.13,0-.14,0-.17-.06-.2-.1-5.43-3.13a.68.68,0,0,1-.4-.56v2.17a.7.7,0,0,0,.41.56l5.43,3.13.19.1.17,0,.14,0,.13,0,.14,0h.41l.18,0,.25-.07a1,1,0,0,0,.3-.13l7.68-4.46Z"></path><path class="cls-9" d="M336.65,254.54l0,.08,0,.07a.47.47,0,0,1-.06.09l-.08.09-.17.12h0l-5.4,3.14a1.36,1.36,0,0,1-.3.13l-.25.07-.17,0h-.55l-.14,0-.14,0a1,1,0,0,1-.16-.06.72.72,0,0,1-.2-.09L323.5,255a.67.67,0,0,1-.39-.55v2.17a.65.65,0,0,0,.39.54l5.44,3.15.2.09.17.06.14,0,.13,0h.55l.17,0a1.1,1.1,0,0,0,.26-.06,2.08,2.08,0,0,0,.3-.13l5.39-3.14h0a1.29,1.29,0,0,0,.26-.22.22.22,0,0,0,.05-.08.25.25,0,0,0,0-.07.24.24,0,0,0,0-.08.22.22,0,0,0,0-.08h0v-2.15A.17.17,0,0,0,336.65,254.54Z"></path><path class="cls-9" d="M314.16,262.59l5.45,3.14.2.1.16.05.14,0,.14,0,.13,0h.42l.17,0,.25-.07a1,1,0,0,0,.3-.13l5.4-3.13h0l.17-.13.08-.09.06-.08,0-.08,0-.08v-.07h0v-2.17h0a.22.22,0,0,1,0,.08.19.19,0,0,1,0,.07l0,.08a.35.35,0,0,1-.05.08l-.08.09a.83.83,0,0,1-.18.13h0l-5.39,3.13a1.38,1.38,0,0,1-.3.14l-.26.06-.17,0h-.42l-.13,0-.13,0-.14,0-.17-.06-.2-.1-5.44-3.14a.67.67,0,0,1-.39-.55V262A.67.67,0,0,0,314.16,262.59Z"></path><path class="cls-9" d="M304.83,268l5.44,3.15.2.09.17.06.14,0,.13,0h.55l.17,0a1.1,1.1,0,0,0,.26-.06,2.08,2.08,0,0,0,.3-.13l5.39-3.14h0a.59.59,0,0,0,.17-.13.76.76,0,0,0,.09-.09.22.22,0,0,0,.05-.08.25.25,0,0,0,0-.07.31.31,0,0,0,0-.08.22.22,0,0,0,0-.08h0v-2.15a.17.17,0,0,0,0,.07.24.24,0,0,0,0,.08l0,.07a.24.24,0,0,1-.06.08.39.39,0,0,1-.08.1l-.17.12h0l-5.4,3.14a1.36,1.36,0,0,1-.3.13l-.25.07-.17,0h-.55l-.14,0-.14,0a1,1,0,0,1-.16-.06.72.72,0,0,1-.2-.09l-5.45-3.14a.63.63,0,0,1-.38-.55v2.17A.65.65,0,0,0,304.83,268Z"></path><path class="cls-9" d="M308.27,273.44l.17-.13.08-.09.06-.08,0-.08,0-.08v-.07h0v-2.17h0a.22.22,0,0,1,0,.08.19.19,0,0,1,0,.07.3.3,0,0,1,0,.08.35.35,0,0,1-.05.08l-.08.09a.83.83,0,0,1-.18.13h0l-7.69,4.46a1.38,1.38,0,0,1-.3.14l-.25.06-.18,0h-.41l-.14,0-.13,0-.14,0-.17-.05-.19-.1-5.45-3.14a.67.67,0,0,1-.39-.55v2.17a.67.67,0,0,0,.38.55l5.45,3.14.2.1.16.05.15,0,.13,0,.13,0h.42l.17,0,.26-.07a1.94,1.94,0,0,0,.3-.13l7.68-4.46Z"></path><path class="cls-9" d="M338.89,266l.14,0,.13,0h.55l.17,0a1.22,1.22,0,0,0,.26-.06,2.71,2.71,0,0,0,.3-.13l5.39-3.14h0a.76.76,0,0,0,.17-.13l.09-.09a.22.22,0,0,0,.05-.08.25.25,0,0,0,0-.07s0-.05,0-.08,0-.05,0-.08h0v-2.08l0,.08,0,.08-.06.08-.08.09-.17.13h0l-5.4,3.13a1.36,1.36,0,0,1-.3.13l-.25.07-.17,0h-.55l-.14,0-.14,0-.16-.05v2.16Z"></path><path class="cls-9" d="M338.53,263.67l-5.43-3.13a.68.68,0,0,1-.4-.56v2.16a.66.66,0,0,0,.4.56l5.43,3.14a1.21,1.21,0,0,0,.2.09v-2.16Z"></path><path class="cls-9" d="M323.76,268.13l5.43,3.13.19.1.17.05.14,0,.14,0,.13,0h.41l.18,0,.25-.07a1,1,0,0,0,.3-.13l5.4-3.13h0a1.4,1.4,0,0,0,.18-.13l.08-.09.06-.08,0-.08a.19.19,0,0,0,0-.07.25.25,0,0,0,0-.08h0v-2.17h0a.22.22,0,0,1,0,.08.19.19,0,0,1,0,.07.3.3,0,0,1,0,.08.35.35,0,0,1-.05.08,1.29,1.29,0,0,1-.26.22h0l-5.39,3.13a1.38,1.38,0,0,1-.3.14,2,2,0,0,1-.26.06l-.17,0H330l-.13,0-.13,0-.14,0-.17-.06-.2-.1L323.76,266a.68.68,0,0,1-.4-.56v2.17A.7.7,0,0,0,323.76,268.13Z"></path><path class="cls-9" d="M314.42,273.55l5.43,3.14.2.09v-2.17a.72.72,0,0,1-.2-.09l-5.43-3.14a.66.66,0,0,1-.4-.55V273A.66.66,0,0,0,314.42,273.55Z"></path><path class="cls-9" d="M320.22,276.84l.14,0,.13,0H321l.17,0a1.1,1.1,0,0,0,.26-.06,2.08,2.08,0,0,0,.3-.13l5.39-3.14h0a.76.76,0,0,0,.17-.13l.09-.09a.22.22,0,0,0,.05-.08.25.25,0,0,0,0-.07s0-.05,0-.08,0,0,0-.08h0v-2.08l0,.08,0,.07-.06.09-.08.09-.17.12h0l-5.4,3.14a1.36,1.36,0,0,1-.3.13l-.25.07-.17,0h-.55l-.14,0-.14,0a.76.76,0,0,1-.16-.06v2.17Z"></path><path class="cls-9" d="M317.84,279a1.4,1.4,0,0,0,.18-.13l.08-.09.06-.08,0-.08a.19.19,0,0,0,0-.08.17.17,0,0,0,0-.07h0v-2.17h0a.22.22,0,0,1,0,.08.19.19,0,0,1,0,.07l0,.08a.35.35,0,0,1-.05.08l-.09.09a.59.59,0,0,1-.17.13h0l-7.68,4.46a1.38,1.38,0,0,1-.3.14l-.26.06-.17,0H309l-.13,0-.13,0-.14,0-.17-.06-.19-.1-5.43-3.13a.7.7,0,0,1-.41-.56v2.17a.68.68,0,0,0,.4.56l5.43,3.13.2.1.16,0,.14,0,.14,0,.13,0h.42l.17,0,.25-.07a1,1,0,0,0,.3-.13l7.69-4.46Z"></path><path class="cls-9" d="M349.15,271.61h.15l.18,0a1.14,1.14,0,0,0,.25-.06,2.08,2.08,0,0,0,.3-.13l5.4-3.14h0a.83.83,0,0,0,.18-.13l.08-.09.06-.08,0-.07a.31.31,0,0,0,0-.08.22.22,0,0,0,0-.08h0v-2.15s0,0,0,.07,0,.05,0,.08a.25.25,0,0,1,0,.07.41.41,0,0,1-.05.09l-.09.09-.17.12h0L350,269.21a1.36,1.36,0,0,1-.3.13l-.26.07-.17,0H349v2.17Z"></path><path class="cls-9" d="M348.89,269.43h-.13l-.13,0-.14,0a.85.85,0,0,1-.17-.06.72.72,0,0,1-.2-.09l-5.44-3.14a.67.67,0,0,1-.39-.55v2.17a.65.65,0,0,0,.39.54l5.45,3.15.19.09.17.06.14,0,.13,0H349v-2.17Z"></path><path class="cls-9" d="M339,276.9l.16.05.15,0,.13,0,.13,0H340l.17,0,.26-.07a1.14,1.14,0,0,0,.3-.13l5.39-3.13h0a1.26,1.26,0,0,0,.17-.13l.09-.09.05-.08a.3.3,0,0,0,0-.08s0,0,0-.08,0-.05,0-.07h0V271h0a.22.22,0,0,1,0,.08.19.19,0,0,1,0,.07l0,.08-.06.08-.08.09a.83.83,0,0,1-.18.13h0l-5.4,3.13a1.38,1.38,0,0,1-.3.14l-.25.06-.18,0h-.41l-.13,0-.14,0-.14,0-.16-.06-.2-.1-5.45-3.14a.67.67,0,0,1-.39-.55v2.17a.67.67,0,0,0,.39.55l5.44,3.14Z"></path><path class="cls-9" d="M336.77,279.08A.83.83,0,0,0,337,279l.08-.09.06-.08,0-.08a.19.19,0,0,0,0-.07.22.22,0,0,0,0-.08h0v-2.17h0s0,.06,0,.08l0,.08a.25.25,0,0,1,0,.07.22.22,0,0,1,0,.08.43.43,0,0,1-.09.1l-.17.12h0l-5.39,3.14a1.36,1.36,0,0,1-.3.13l-.26.07-.17,0h-.55l-.13,0v2.17l.13,0h.55l.18,0a1.14,1.14,0,0,0,.25-.06,2.08,2.08,0,0,0,.3-.13l5.4-3.14Z"></path><polygon class="cls-9" points="329.96 280.24 329.96 280.24 329.96 280.24 329.96 280.24"></polygon><path class="cls-9" d="M329.82,280.21l-.17-.06a1.21,1.21,0,0,1-.2-.09L324,276.91a.64.64,0,0,1-.39-.54v2.17a.65.65,0,0,0,.39.54l5.45,3.15.19.09.17.06.14,0v-2.17Z"></path><path class="cls-9" d="M323.64,288.57a.19.19,0,0,0,0-.08.19.19,0,0,0,0-.08h0v-2.16h0s0,.05,0,.08,0,.05,0,.07a.59.59,0,0,1,0,.08.24.24,0,0,1-.06.08l-.08.09a.76.76,0,0,1-.17.13h0l-1.79,1a2.08,2.08,0,0,1-.3.13,1.1,1.1,0,0,1-.26.06l-.17,0h-.55l-.13,0-.14,0-.17-.06-.2-.09-6.16-3.56a.68.68,0,0,1-.4-.56v2.17a.7.7,0,0,0,.41.56l6.16,3.55.2.1.16.05.14,0,.14,0,.13,0h.41l.18,0,.25-.06a1.38,1.38,0,0,0,.3-.14l1.79-1h0l.16-.13a.76.76,0,0,0,.09-.09.35.35,0,0,0,.05-.08A.3.3,0,0,0,323.64,288.57Z"></path><path class="cls-9" d="M360.09,278.27l.16.06.15,0,.13,0,.13,0h.42l.17,0a2.44,2.44,0,0,0,.26-.06,2.71,2.71,0,0,0,.3-.13L367.2,275h0a.76.76,0,0,0,.17-.13l.09-.09a.35.35,0,0,0,0-.08.3.3,0,0,0,0-.08s0,0,0-.07,0-.05,0-.08h0v-2.17h0a.22.22,0,0,1,0,.08.24.24,0,0,1,0,.08l0,.07-.06.08-.08.09a.83.83,0,0,1-.18.13h0l-5.4,3.14a1.36,1.36,0,0,1-.3.13,1.14,1.14,0,0,1-.25.06l-.18,0h-.54l-.14,0-.14,0-.16-.06a1.21,1.21,0,0,1-.2-.09l-7.63-4.41a.66.66,0,0,1-.4-.55v2.16a.68.68,0,0,0,.4.56l7.63,4.41Z"></path><path class="cls-9" d="M342.73,279.07l5.45,3.14.19.09.16.05.13,0,.14,0h.54l.18,0,.26-.07a1.6,1.6,0,0,0,.3-.13l5.41-3.14h0a.76.76,0,0,0,.17-.13.3.3,0,0,0,.08-.08l.06-.08,0-.08a.24.24,0,0,0,0-.08.17.17,0,0,0,0-.07v-2.18h0s0,.05,0,.08,0,.05,0,.07l0,.08-.05.08-.08.09-.17.12h0L350.08,280a1,1,0,0,1-.3.13l-.26.07-.17,0h-.42l-.13,0-.13,0-.14,0-.16-.06a.82.82,0,0,1-.19-.09l-5.44-3.14a.67.67,0,0,1-.4-.56v2.17A.67.67,0,0,0,342.73,279.07Z"></path><path class="cls-9" d="M379.43,279.24a.24.24,0,0,1,0,.08l0,.08-.05.08-.09.09a.84.84,0,0,1-.17.13h0l-5.39,3.13a1,1,0,0,1-.3.13l-.26.07-.17,0h-.42l-.13,0-.13,0-.14,0-.17-.05-.2-.1-7.68-4.44a.65.65,0,0,1-.39-.54V280a.67.67,0,0,0,.39.55l7.69,4.44a.72.72,0,0,0,.2.09.76.76,0,0,0,.16.06l.14,0,.14,0h.54l.18,0,.25-.07a1.36,1.36,0,0,0,.3-.13l5.4-3.14h0l.18-.12a.39.39,0,0,0,.08-.1l.06-.08,0-.07,0-.08v-.08h0v-2.16h0A.17.17,0,0,1,379.43,279.24Z"></path><path class="cls-9" d="M370.1,284.67l0,.07,0,.08a.24.24,0,0,1-.06.08l-.08.09a1.09,1.09,0,0,1-.17.13h0l-5.4,3.14a2.08,2.08,0,0,1-.3.13,1,1,0,0,1-.25.06l-.17,0H363l-.14,0-.14,0-.16-.06-.2-.09-9.93-5.75a.68.68,0,0,1-.4-.56v2.16a.66.66,0,0,0,.4.56l9.93,5.75a1.24,1.24,0,0,0,.2.1l.17.05.14,0,.13,0,.13,0h.42l.17,0,.26-.06a1.38,1.38,0,0,0,.3-.14l5.39-3.13h0a.76.76,0,0,0,.17-.13l.09-.09a.35.35,0,0,0,0-.08.3.3,0,0,0,0-.08s0-.05,0-.07a.22.22,0,0,0,0-.08h0v-2.17h0A.22.22,0,0,0,370.1,284.67Z"></path><path class="cls-9" d="M360.76,290.09a.24.24,0,0,1,0,.08.3.3,0,0,1,0,.08l-.05.08-.08.09a1.4,1.4,0,0,1-.18.13h0L355,293.69a1.36,1.36,0,0,1-.3.13l-.26.07-.17,0h-.55l-.13,0-.14,0-.17,0-.2-.1L333.6,282.45a.66.66,0,0,1-.4-.55v2.16a.69.69,0,0,0,.41.56l19.46,11.24a1.21,1.21,0,0,0,.2.09l.16.06.14,0,.14,0h.55l.17,0a1,1,0,0,0,.25-.06,1.36,1.36,0,0,0,.3-.13l5.4-3.14h0a1.09,1.09,0,0,0,.17-.13.24.24,0,0,0,.08-.09l.06-.08,0-.07,0-.08v-.08h0V290A.17.17,0,0,1,360.76,290.09Z"></path><path class="cls-9" d="M329.47,286.36v2.17a.71.71,0,0,0,.4.56l6.18,3.56a.66.66,0,0,0,.19.09l.16.06.14,0,.13,0,.13,0h.42l.17,0a2,2,0,0,0,.26-.06,1.38,1.38,0,0,0,.3-.14l1.78-1h0l.18-.12a.39.39,0,0,0,.08-.1l.06-.08,0-.07a.31.31,0,0,0,0-.08.22.22,0,0,0,0-.08h0v-2.17h0a.19.19,0,0,1,0,.08.24.24,0,0,1,0,.08.25.25,0,0,1,0,.07.41.41,0,0,1-.05.09l-.09.09a1.26,1.26,0,0,1-.17.13h0l-1.77,1a2.08,2.08,0,0,1-.3.13,1.22,1.22,0,0,1-.26.06l-.17,0h-.55l-.13,0-.14,0-.16-.05-.19-.09-6.18-3.57A.68.68,0,0,1,329.47,286.36Z"></path><path class="cls-9" d="M334.18,294.65a.19.19,0,0,0,0-.07.25.25,0,0,0,0-.08v-2.18h0a.22.22,0,0,1,0,.08s0,0,0,.08a.59.59,0,0,1,0,.08l0,.08-.09.09-.17.12h0l-1.79,1a1,1,0,0,1-.3.13l-.26.07-.17,0h-.42l-.13,0-.13,0-.14,0-.16-.05-.19-.09L324,290.35a.66.66,0,0,1-.4-.55V292a.69.69,0,0,0,.4.56l6.18,3.57.19.09.16.05.14,0,.13,0h.55l.17,0,.26-.07a1.36,1.36,0,0,0,.3-.13l1.79-1h0l.16-.12.09-.09a.41.41,0,0,0,.05-.09A.2.2,0,0,0,334.18,294.65Z"></path><path class="cls-9" d="M344.76,298.51a.19.19,0,0,1,0,.07.2.2,0,0,1,0,.08.22.22,0,0,1-.05.08l-.08.09a1.09,1.09,0,0,1-.17.13h0l-1.79,1a2.08,2.08,0,0,1-.3.13,1.83,1.83,0,0,1-.25.06l-.17,0h-.42l-.13,0-.14,0-.14,0-.16-.06-.2-.09-6.18-3.57a.67.67,0,0,1-.39-.55v2.17a.67.67,0,0,0,.38.55l6.18,3.56.2.1.17.05.14,0,.13,0,.13,0h.42l.17,0,.26-.06a1.38,1.38,0,0,0,.3-.14l1.79-1h0a.74.74,0,0,0,.17-.12l.08-.09.06-.08,0-.08,0-.08s0-.05,0-.08h0v-2.15A.25.25,0,0,1,344.76,298.51Z"></path><path class="cls-7" d="M257,200c.52.3.52.79,0,1.1l-3.11,1.81a2.09,2.09,0,0,1-1.9,0l-5.44-3.15c-.54-.31-.54-.8,0-1.11l3.11-1.8a2.08,2.08,0,0,1,1.91,0Z"></path><path class="cls-7" d="M266.61,205.52a.59.59,0,0,1,0,1.11l-3.1,1.81a2.16,2.16,0,0,1-1.92,0l-5.43-3.14c-.53-.31-.54-.8,0-1.11l3.1-1.8a2.1,2.1,0,0,1,1.92,0Z"></path><path class="cls-7" d="M276.2,211.06c.52.3.52.79,0,1.1l-3.1,1.81a2.09,2.09,0,0,1-1.9,0l-5.45-3.15c-.53-.31-.54-.8,0-1.11l3.11-1.8a2.1,2.1,0,0,1,1.92,0Z"></path><path class="cls-7" d="M285.78,216.59c.53.31.54.8,0,1.11l-3.11,1.81a2.16,2.16,0,0,1-1.92,0l-5.43-3.14a.59.59,0,0,1,0-1.11l3.1-1.8a2.1,2.1,0,0,1,1.92,0Z"></path><path class="cls-7" d="M295.37,222.13a.58.58,0,0,1,0,1.1L292.26,225a2.15,2.15,0,0,1-1.9,0l-5.45-3.15a.59.59,0,0,1,0-1.11L288,219a2.1,2.1,0,0,1,1.92,0Z"></path><path class="cls-7" d="M305,227.66c.54.31.54.8,0,1.11l-3.11,1.81a2.14,2.14,0,0,1-1.91,0l-5.43-3.14c-.54-.31-.54-.8,0-1.11l3.11-1.8a2.08,2.08,0,0,1,1.91,0Z"></path><path class="cls-7" d="M314.53,233.19c.54.31.54.8,0,1.11l-3.11,1.81a2.14,2.14,0,0,1-1.91,0L304.09,233c-.54-.31-.54-.8,0-1.11l3.11-1.8a2.08,2.08,0,0,1,1.91,0Z"></path><path class="cls-7" d="M324.13,238.73a.59.59,0,0,1,0,1.11l-3.1,1.81a2.16,2.16,0,0,1-1.92,0l-5.44-3.15a.58.58,0,0,1,0-1.1l3.11-1.8a2.09,2.09,0,0,1,1.9,0Z"></path><path class="cls-7" d="M333.71,244.26a.59.59,0,0,1,0,1.11l-3.1,1.81a2.16,2.16,0,0,1-1.92,0L323.26,244c-.53-.31-.54-.8,0-1.11l3.11-1.8a2.1,2.1,0,0,1,1.92,0Z"></path><path class="cls-7" d="M343.3,249.8c.53.31.54.8,0,1.11l-3.11,1.81a2.16,2.16,0,0,1-1.92,0l-5.44-3.15c-.52-.3-.52-.79,0-1.1l3.1-1.8a2.09,2.09,0,0,1,1.9,0Z"></path><path class="cls-7" d="M352.88,255.33c.53.31.54.8,0,1.11l-3.1,1.81a2.16,2.16,0,0,1-1.92,0l-5.43-3.14a.59.59,0,0,1,0-1.11l3.1-1.8a2.1,2.1,0,0,1,1.92,0Z"></path><path class="cls-7" d="M362.47,260.87c.54.31.54.8,0,1.11l-3.11,1.8a2.08,2.08,0,0,1-1.91,0L352,260.64c-.52-.3-.52-.79,0-1.1l3.11-1.81a2.12,2.12,0,0,1,1.9,0Z"></path><path class="cls-7" d="M374.25,267.67a.59.59,0,0,1,0,1.11l-3.1,1.8a2.1,2.1,0,0,1-1.92,0l-7.62-4.4c-.54-.31-.54-.8,0-1.11l3.11-1.8a2.08,2.08,0,0,1,1.91,0Z"></path><path class="cls-7" d="M386.08,274.5c.54.31.54.8,0,1.11L383,277.42a2.08,2.08,0,0,1-1.91,0L373.38,273c-.52-.3-.52-.79,0-1.1l3.11-1.81a2.09,2.09,0,0,1,1.9,0Z"></path><path class="cls-7" d="M250,204.09c.52.3.52.79,0,1.1l-5.39,3.13a2.09,2.09,0,0,1-1.9,0l-5.45-3.14a.59.59,0,0,1,0-1.11l5.39-3.14a2.1,2.1,0,0,1,1.92,0Z"></path><path class="cls-7" d="M259.56,209.62c.53.31.54.8,0,1.11l-5.4,3.13a2.08,2.08,0,0,1-1.91,0l-5.43-3.13c-.54-.31-.54-.8,0-1.11l5.4-3.14a2.08,2.08,0,0,1,1.91,0Z"></path><path class="cls-7" d="M235.2,206.37l10.1,5.84c.53.31.54.81,0,1.11l-5.4,3.14a2.08,2.08,0,0,1-1.91,0l-10.1-5.85c-.54-.31-.54-.8,0-1.11l5.4-3.13A2.08,2.08,0,0,1,235.2,206.37Z"></path><path class="cls-7" d="M269.15,215.16a.58.58,0,0,1,0,1.1l-5.4,3.13a2.09,2.09,0,0,1-1.9,0l-5.44-3.14c-.54-.31-.54-.8,0-1.11l5.39-3.14a2.1,2.1,0,0,1,1.92,0Z"></path><path class="cls-7" d="M259.82,220.58c.52.3.52.79,0,1.1l-5.39,3.14a2.15,2.15,0,0,1-1.9,0L242.39,219c-.54-.31-.54-.81,0-1.11l5.4-3.14a2.08,2.08,0,0,1,1.91,0Z"></path><path class="cls-7" d="M240.89,220.47a.58.58,0,0,1,0,1.11l-5.4,3.13a2.08,2.08,0,0,1-1.91,0l-15-8.67a.59.59,0,0,1,0-1.11l5.39-3.14a2.1,2.1,0,0,1,1.92,0Z"></path><path class="cls-7" d="M222,220.36c.52.3.52.79,0,1.1l-7.68,4.47a2.15,2.15,0,0,1-1.9,0l-5.45-3.15c-.53-.31-.54-.8,0-1.11l7.69-4.46a2.08,2.08,0,0,1,1.91,0Z"></path><path class="cls-7" d="M231.56,225.89a.59.59,0,0,1,0,1.11l-7.68,4.47a2.16,2.16,0,0,1-1.92,0l-5.43-3.14a.59.59,0,0,1,0-1.11l7.68-4.46a2.1,2.1,0,0,1,1.92,0Z"></path><path class="cls-7" d="M250.49,226a.58.58,0,0,1,0,1.1l-5.4,3.13a2.09,2.09,0,0,1-1.9,0l-5.44-3.14c-.54-.31-.54-.8,0-1.11l5.39-3.14a2.1,2.1,0,0,1,1.92,0Z"></path><path class="cls-7" d="M241.15,231.43c.52.3.52.79,0,1.1L233.46,237a2.16,2.16,0,0,1-1.92,0l-5.43-3.14a.59.59,0,0,1,0-1.11l7.68-4.46a2.1,2.1,0,0,1,1.92,0Z"></path><path class="cls-7" d="M278.73,220.69a.58.58,0,0,1,0,1.11l-5.39,3.13a2.1,2.1,0,0,1-1.92,0L266,221.8c-.53-.31-.54-.81,0-1.11l5.4-3.14a2.08,2.08,0,0,1,1.91,0Z"></path><path class="cls-7" d="M269.4,226.11c.53.31.54.8,0,1.11l-5.4,3.14a2.16,2.16,0,0,1-1.92,0l-5.43-3.14a.59.59,0,0,1,0-1.11l5.39-3.13a2.1,2.1,0,0,1,1.92,0Z"></path><path class="cls-7" d="M260.06,231.54a.58.58,0,0,1,0,1.11l-5.39,3.13a2.1,2.1,0,0,1-1.92,0l-5.43-3.13c-.53-.31-.54-.81,0-1.11l5.4-3.14a2.08,2.08,0,0,1,1.91,0Z"></path><path class="cls-7" d="M250.73,237c.53.31.54.8,0,1.11l-7.69,4.47a2.14,2.14,0,0,1-1.91,0l-5.43-3.14c-.54-.31-.54-.8,0-1.11l7.68-4.46a2.1,2.1,0,0,1,1.92,0Z"></path><path class="cls-7" d="M288.33,226.23c.52.29.52.79,0,1.1l-5.4,3.13a2.09,2.09,0,0,1-1.9,0l-5.44-3.14c-.54-.31-.54-.8,0-1.11l5.4-3.14a2.08,2.08,0,0,1,1.91,0Z"></path><path class="cls-7" d="M297.91,231.76a.59.59,0,0,1,0,1.11L292.52,236a2.1,2.1,0,0,1-1.92,0l-5.43-3.13a.59.59,0,0,1,0-1.11l5.39-3.14a2.1,2.1,0,0,1,1.92,0Z"></path><path class="cls-7" d="M279,231.65c.52.3.52.79,0,1.1l-5.39,3.14a2.15,2.15,0,0,1-1.9,0l-5.45-3.15a.59.59,0,0,1,0-1.11l5.39-3.13a2.1,2.1,0,0,1,1.92,0Z"></path><path class="cls-7" d="M288.57,237.18c.54.31.54.8,0,1.11l-5.4,3.14a2.14,2.14,0,0,1-1.91,0l-5.43-3.14c-.54-.31-.54-.8,0-1.11l5.4-3.13a2.08,2.08,0,0,1,1.91,0Z"></path><path class="cls-7" d="M307.49,237.29a.59.59,0,0,1,0,1.11l-5.39,3.13a2.1,2.1,0,0,1-1.92,0l-5.43-3.13a.59.59,0,0,1,0-1.11l5.39-3.14a2.1,2.1,0,0,1,1.92,0Z"></path><path class="cls-7" d="M298.15,242.71c.54.31.54.8,0,1.11l-5.4,3.14a2.14,2.14,0,0,1-1.91,0l-5.43-3.14c-.54-.31-.54-.8,0-1.11l5.4-3.13a2.08,2.08,0,0,1,1.91,0Z"></path><path class="cls-7" d="M269.66,237.08c.52.29.52.79,0,1.1l-5.4,3.13a2.09,2.09,0,0,1-1.9,0l-5.44-3.14c-.53-.31-.54-.81,0-1.11l5.4-3.14a2.08,2.08,0,0,1,1.91,0Z"></path><path class="cls-7" d="M279.24,242.61a.59.59,0,0,1,0,1.11l-5.39,3.13a2.1,2.1,0,0,1-1.92,0l-5.43-3.13a.59.59,0,0,1,0-1.11l5.39-3.14a2.1,2.1,0,0,1,1.92,0Z"></path><path class="cls-7" d="M288.82,248.14a.59.59,0,0,1,0,1.11l-5.39,3.13a2.1,2.1,0,0,1-1.92,0l-5.43-3.13a.59.59,0,0,1,0-1.11l5.39-3.14a2.1,2.1,0,0,1,1.92,0Z"></path><path class="cls-7" d="M317.08,242.83a.59.59,0,0,1,0,1.11l-5.4,3.13a2.08,2.08,0,0,1-1.91,0l-5.45-3.14a.58.58,0,0,1,0-1.1l5.39-3.14a2.09,2.09,0,0,1,1.9,0Z"></path><path class="cls-7" d="M307.75,248.25a.59.59,0,0,1,0,1.11l-5.39,3.14a2.16,2.16,0,0,1-1.92,0L295,249.35a.58.58,0,0,1,0-1.1l5.4-3.13a2.09,2.09,0,0,1,1.9,0Z"></path><path class="cls-7" d="M298.41,253.68c.53.3.54.8,0,1.1l-5.4,3.14a2.08,2.08,0,0,1-1.91,0l-5.45-3.14a.58.58,0,0,1,0-1.1l5.39-3.14a2.11,2.11,0,0,1,1.91,0Z"></path><path class="cls-7" d="M289.08,259.1a.59.59,0,0,1,0,1.11l-7.68,4.46a2.1,2.1,0,0,1-1.92,0l-34.19-19.74c-.54-.31-.54-.8,0-1.11l7.68-4.46a2.1,2.1,0,0,1,1.92,0Z"></path><path class="cls-7" d="M326.66,248.36a.59.59,0,0,1,0,1.11l-5.4,3.13a2.1,2.1,0,0,1-1.92,0l-5.43-3.13a.59.59,0,0,1,0-1.11l5.39-3.14a2.1,2.1,0,0,1,1.92,0Z"></path><path class="cls-7" d="M317.32,253.78c.54.31.54.8,0,1.11L311.94,258a2.16,2.16,0,0,1-1.92,0l-5.43-3.14c-.53-.31-.54-.8,0-1.11l5.4-3.13a2.08,2.08,0,0,1,1.91,0Z"></path><path class="cls-7" d="M308,259.21a.59.59,0,0,1,0,1.11l-5.4,3.13a2.08,2.08,0,0,1-1.91,0l-5.43-3.13c-.54-.31-.54-.81,0-1.11l5.39-3.14a2.1,2.1,0,0,1,1.92,0Z"></path><path class="cls-7" d="M298.65,264.63c.54.31.54.8,0,1.11L291,270.2a2.1,2.1,0,0,1-1.92,0l-5.43-3.13a.59.59,0,0,1,0-1.11l7.68-4.46a2.08,2.08,0,0,1,1.91,0Z"></path><path class="cls-7" d="M336.25,253.9c.54.3.54.8,0,1.1l-5.4,3.14a2.08,2.08,0,0,1-1.91,0L323.5,255a.58.58,0,0,1,0-1.1l5.4-3.14a2.09,2.09,0,0,1,1.9,0Z"></path><path class="cls-7" d="M326.92,259.32a.59.59,0,0,1,0,1.11l-5.39,3.13a2.1,2.1,0,0,1-1.92,0l-5.44-3.14c-.52-.3-.52-.79,0-1.1l5.39-3.13a2.1,2.1,0,0,1,1.92,0Z"></path><path class="cls-7" d="M317.58,264.74c.54.31.54.81,0,1.11L312.2,269a2.1,2.1,0,0,1-1.92,0l-5.45-3.14a.59.59,0,0,1,0-1.11l5.4-3.13a2.09,2.09,0,0,1,1.9,0Z"></path><path class="cls-7" d="M308.25,270.17c.53.31.54.8,0,1.11l-7.69,4.46a2.08,2.08,0,0,1-1.91,0l-5.45-3.14c-.52-.3-.52-.79,0-1.1L300.9,267a2.12,2.12,0,0,1,1.9,0Z"></path><path class="cls-7" d="M345.83,259.43a.58.58,0,0,1,0,1.11l-5.4,3.13a2.08,2.08,0,0,1-1.91,0l-5.43-3.13c-.54-.31-.54-.81,0-1.11l5.4-3.14a2.08,2.08,0,0,1,1.91,0Z"></path><path class="cls-7" d="M336.5,264.85a.59.59,0,0,1,0,1.11l-5.39,3.14a2.16,2.16,0,0,1-1.92,0L323.76,266a.59.59,0,0,1,0-1.11l5.39-3.13a2.1,2.1,0,0,1,1.92,0Z"></path><path class="cls-7" d="M327.16,270.28c.54.3.54.8,0,1.1l-5.4,3.14a2.08,2.08,0,0,1-1.91,0l-5.43-3.14c-.54-.3-.54-.8,0-1.1l5.4-3.14a2.08,2.08,0,0,1,1.91,0Z"></path><path class="cls-7" d="M317.83,275.7a.59.59,0,0,1,0,1.11l-7.68,4.46a2.08,2.08,0,0,1-1.91,0l-5.43-3.13c-.54-.31-.54-.8,0-1.11l7.68-4.47a2.16,2.16,0,0,1,1.92,0Z"></path><path class="cls-7" d="M355.43,265a.59.59,0,0,1,0,1.11L350,269.21a2.1,2.1,0,0,1-1.92,0l-5.44-3.14a.59.59,0,0,1,0-1.11l5.39-3.13a2.09,2.09,0,0,1,1.9,0Z"></path><path class="cls-7" d="M346.09,270.39c.54.31.54.8,0,1.11l-5.4,3.13a2.08,2.08,0,0,1-1.91,0l-5.45-3.14c-.52-.3-.52-.79,0-1.1l5.4-3.14a2.12,2.12,0,0,1,1.9,0Z"></path><path class="cls-7" d="M336.76,275.81a.59.59,0,0,1,0,1.11l-5.39,3.14a2.1,2.1,0,0,1-1.92,0L324,276.92a.59.59,0,0,1,0-1.11l5.39-3.13a2.09,2.09,0,0,1,1.9,0Z"></path><path class="cls-7" d="M323.28,285.68a.59.59,0,0,1,0,1.11l-1.79,1a2.16,2.16,0,0,1-1.92,0l-6.16-3.56c-.53-.31-.54-.8,0-1.11l1.78-1a2.1,2.1,0,0,1,1.92,0Z"></path><path class="cls-7" d="M367.2,271.76c.54.31.54.8,0,1.11l-5.4,3.14a2.08,2.08,0,0,1-1.91,0l-7.63-4.41c-.53-.3-.54-.8,0-1.1l5.4-3.14a2.1,2.1,0,0,1,1.92,0Z"></path><path class="cls-7" d="M355.49,275.8a.58.58,0,0,1,0,1.09L350.08,280a2.09,2.09,0,0,1-1.9,0l-5.44-3.14a.59.59,0,0,1,0-1.11l5.41-3.15a2.12,2.12,0,0,1,1.9,0Z"></path><path class="cls-7" d="M379,278.6a.59.59,0,0,1,0,1.11l-5.39,3.13a2.1,2.1,0,0,1-1.92,0l-7.68-4.44c-.52-.3-.53-.79,0-1.1l5.39-3.13a2.09,2.09,0,0,1,1.9,0Z"></path><path class="cls-7" d="M359.77,278.27,369.7,284c.54.31.54.8,0,1.11l-5.4,3.14a2.14,2.14,0,0,1-1.91,0l-9.93-5.75c-.53-.31-.54-.81,0-1.11l5.41-3.15A2.09,2.09,0,0,1,359.77,278.27Z"></path><path class="cls-7" d="M360.37,289.45a.59.59,0,0,1,0,1.11L355,293.69a2.1,2.1,0,0,1-1.92,0L333.6,282.45a.58.58,0,0,1,0-1.11l5.39-3.13a2.1,2.1,0,0,1,1.92,0Z"></path><path class="cls-7" d="M339.73,288.35c.52.3.52.79,0,1.1l-1.77,1a2.09,2.09,0,0,1-1.9,0l-6.18-3.57c-.53-.31-.54-.8,0-1.11l1.78-1a2.08,2.08,0,0,1,1.91,0Z"></path><path class="cls-7" d="M333.84,291.77a.59.59,0,0,1,0,1.1l-1.79,1a2.09,2.09,0,0,1-1.9,0L324,290.35a.59.59,0,0,1,0-1.11l1.79-1a2.13,2.13,0,0,1,1.92,0Z"></path><path class="cls-7" d="M344.38,297.86a.59.59,0,0,1,0,1.11l-1.79,1a2.14,2.14,0,0,1-1.91,0l-6.18-3.57c-.52-.3-.52-.79,0-1.1l1.79-1a2.09,2.09,0,0,1,1.9,0Z"></path><polygon class="cls-8" points="328.84 163.14 284.69 136.27 283.77 141.17 327.92 168.04 328.84 163.14"></polygon><polygon class="cls-8" points="283.01 123.69 279.97 121.84 279.05 126.74 282.09 128.58 283.01 123.69"></polygon><polygon class="cls-6" points="284.95 113.31 281.92 111.46 281 116.36 284.03 118.21 284.95 113.31"></polygon><polygon class="cls-8" points="286.9 102.93 283.87 101.08 282.95 105.98 285.98 107.83 286.9 102.93"></polygon><polygon class="cls-6" points="325.75 149.7 286.64 125.9 285.72 130.79 324.83 154.6 325.75 149.7"></polygon><polygon class="cls-6" points="340.65 147.2 288.59 115.52 287.67 120.42 339.73 152.1 340.65 147.2"></polygon><polygon class="cls-8" points="339 134.63 290.54 105.14 289.62 110.04 338.08 139.53 339 134.63"></polygon><polygon class="cls-3" points="325.42 111.1 292.37 90.98 291.56 95.3 324.61 115.42 325.42 111.1"></polygon><polygon class="cls-8" points="297.12 155.7 283.35 146.87 282.71 150.3 296.48 159.14 297.12 155.7"></polygon><path class="cls-5" d="M146.24,130l72.34-41.76.25,94.41-72.34,41.77Z"></path><path class="cls-7" d="M192.88,124.4c4-2.28,7.15-.44,7.17,4.1a15.74,15.74,0,0,1-7.12,12.34c-4,2.29-7.17.45-7.18-4.09A15.68,15.68,0,0,1,192.88,124.4Z"></path><polygon class="cls-7" points="172.43 150.97 192.74 158.81 202.26 144.65 212.56 152.66 212.57 157.43 153.06 191.79 153.04 186.09 172.43 150.97"></polygon><path class="cls-3" d="M152.89,134.45l59.52-34.36.15,52.57-10.3-8-9.52,14.16L172.43,151,153,186.09Zm40,6.39a15.74,15.74,0,0,0,7.12-12.34c0-4.54-3.22-6.38-7.17-4.1a15.68,15.68,0,0,0-7.13,12.35c0,4.54,3.22,6.38,7.18,4.09"></path><polygon class="cls-6" points="146.24 130.04 131.84 121.68 204.18 79.91 218.58 88.28 146.24 130.04"></polygon><polygon class="cls-1" points="146.49 224.46 132.09 216.09 131.84 121.68 146.24 130.04 146.49 224.46"></polygon><g class="cls-4"><polygon class="cls-10" points="83.95 303.04 98.11 294.81 101.37 292.96 87.21 301.19 83.95 303.04"></polygon><polygon class="cls-1" points="111.37 326.66 125.53 318.43 125.52 323.71 111.35 331.94 111.37 326.66"></polygon><polygon class="cls-1" points="80.49 278.48 94.65 270.25 99.24 272.9 85.08 281.13 80.49 278.48"></polygon><g class="cls-4"><path class="cls-1" d="M97,284.19,111.12,276a6.34,6.34,0,0,0-2.23,2.17l-14.16,8.23A6.25,6.25,0,0,1,97,284.19"></path><path class="cls-1" d="M94.73,286.36l14.16-8.23a7.93,7.93,0,0,0-.48.86l-14.16,8.23a7.93,7.93,0,0,1,.48-.86"></path><path class="cls-1" d="M94.25,287.22,108.41,279c-.11.24-.21.48-.31.74L93.94,288c.1-.26.2-.5.31-.74"></path><path class="cls-1" d="M93.94,288l14.16-8.23c-.08.22-.16.45-.22.68l-14.16,8.23c.06-.23.14-.46.22-.68"></path><path class="cls-1" d="M93.72,288.64l14.16-8.23c-.07.21-.12.42-.17.64l-14.16,8.23c0-.22.1-.43.17-.64"></path><path class="cls-1" d="M93.55,289.28l14.16-8.23c0,.21-.09.41-.13.62L93.42,289.9c0-.21.08-.42.13-.62"></path><path class="cls-1" d="M93.42,289.9l14.16-8.23-.09.61-14.16,8.23.09-.61"></path><path class="cls-1" d="M93.33,290.51l14.16-8.23-.06.6-14.16,8.23.06-.6"></path><path class="cls-1" d="M93.27,291.11l14.16-8.23c0,.2,0,.4,0,.6l-14.16,8.23c0-.2,0-.4,0-.6"></path><path class="cls-1" d="M93.24,291.71l14.16-8.23c0,.2,0,.39,0,.6l-14.16,8.23c0-.21,0-.4,0-.6"></path><path class="cls-1" d="M93.22,292.31l14.16-8.23v0c0,.19,0,.38,0,.56L93.23,292.9c0-.19,0-.37,0-.56v0"></path><path class="cls-1" d="M93.23,292.9l14.16-8.23c0,.2,0,.41,0,.61l-14.16,8.23c0-.21,0-.41,0-.61"></path><path class="cls-1" d="M93.26,293.51l14.16-8.23c0,.2,0,.4,0,.61l-14.16,8.23c0-.21,0-.41,0-.61"></path><path class="cls-1" d="M93.31,294.12l14.16-8.23c0,.21,0,.41.07.62l-14.17,8.23-.06-.62"></path><path class="cls-1" d="M93.37,294.74l14.17-8.23c0,.21,0,.42.09.64l-14.16,8.22c0-.21-.07-.42-.1-.63"></path><path class="cls-1" d="M93.47,295.37l14.16-8.22c0,.21.07.43.11.64L93.58,296c0-.21-.08-.43-.11-.65"></path><path class="cls-1" d="M93.58,296l14.16-8.23c0,.23.08.45.13.67l-14.16,8.23c0-.22-.09-.45-.13-.67"></path><path class="cls-1" d="M93.71,296.69l14.16-8.23c0,.22.1.45.16.67l-14.16,8.23c-.06-.22-.11-.45-.16-.67"></path><path class="cls-1" d="M93.87,297.36,108,289.13c.06.23.11.45.18.68L94.05,298c-.07-.23-.13-.45-.18-.68"></path><path class="cls-1" d="M94.05,298l14.16-8.23c.06.23.13.45.2.68l-14.17,8.23c-.06-.23-.13-.46-.19-.68"></path><path class="cls-1" d="M94.24,298.72l14.17-8.23q.09.33.21.66l-14.16,8.23c-.08-.22-.15-.44-.22-.66"></path><path class="cls-1" d="M94.46,299.38l14.16-8.23c.07.22.15.43.22.65L94.68,300c-.08-.21-.15-.43-.22-.64"></path><path class="cls-1" d="M94.68,300l14.16-8.22.24.62-14.16,8.23-.24-.63"></path><path class="cls-1" d="M94.92,300.65l14.16-8.23.24.61-14.16,8.23-.24-.61"></path><path class="cls-1" d="M95.16,301.26,109.32,293l.26.6-14.16,8.23-.26-.6"></path><path class="cls-1" d="M95.42,301.86l14.16-8.23c.09.21.18.41.28.61L95.7,302.47c-.1-.2-.19-.4-.28-.61"></path><path class="cls-1" d="M95.7,302.47l14.16-8.23c.1.22.2.43.31.64L96,303.11c-.11-.21-.21-.42-.31-.64"></path><path class="cls-1" d="M96,303.11l14.16-8.23c.12.25.25.5.38.74l-14.16,8.23c-.13-.24-.26-.49-.38-.74"></path><path class="cls-1" d="M96.39,303.85l14.16-8.23.51.93.08.13L97,304.91l-.08-.13c-.17-.31-.35-.62-.51-.93"></path><path class="cls-1" d="M97,304.91l14.16-8.23q.52.92,1.11,1.77l-14.16,8.23q-.59-.85-1.11-1.77"></path><path class="cls-1" d="M98.09,306.68l14.16-8.23c.24.35.48.69.73,1l-14.16,8.23c-.25-.34-.49-.68-.73-1"></path><path class="cls-1" d="M98.82,307.71,113,299.48l.52.68-14.16,8.23-.52-.68"></path><path class="cls-1" d="M99.34,308.39l14.16-8.23.49.6L99.83,309l-.49-.6"></path><path class="cls-1" d="M99.83,309,114,300.76l.48.57-14.16,8.23-.48-.57"></path><path class="cls-1" d="M100.31,309.56l14.16-8.23.5.55-14.16,8.23-.5-.55"></path><path class="cls-1" d="M100.81,310.11,115,301.88l.52.54-14.16,8.23-.52-.54"></path><path class="cls-1" d="M101.33,310.65l14.16-8.23.54.53-14.16,8.23c-.18-.17-.37-.35-.54-.53"></path><path class="cls-1" d="M101.87,311.18,116,303l.56.53-14.16,8.23-.56-.53"></path><path class="cls-1" d="M102.43,311.71l14.16-8.23.57.49L103,312.2l-.57-.49"></path><path class="cls-1" d="M103,312.2,117.16,304l.56.47-14.16,8.22c-.19-.15-.38-.3-.56-.46"></path><path class="cls-1" d="M103.56,312.66l14.16-8.22.56.42-14.16,8.23-.56-.43"></path><path class="cls-1" d="M104.12,313.09l14.16-8.23.55.39-14.16,8.23-.55-.39"></path><path class="cls-1" d="M104.67,313.48l14.16-8.23.53.35-14.16,8.23-.53-.35"></path><path class="cls-1" d="M105.2,313.83l14.16-8.23.53.32-14.16,8.23-.53-.32"></path><path class="cls-1" d="M105.73,314.15l14.16-8.23.12.07.4.23-14.16,8.23-.4-.23-.12-.07"></path><path class="cls-1" d="M106.25,314.45l14.16-8.23.51.26-14.16,8.23-.51-.26"></path><path class="cls-1" d="M106.76,314.71l14.16-8.23.51.24L107.27,315q-.26-.1-.51-.24"></path><path class="cls-1" d="M107.27,315l14.16-8.23.51.22-14.16,8.23-.51-.22"></path><path class="cls-1" d="M107.78,315.17l14.16-8.23.5.19-14.16,8.23-.5-.19"></path><path class="cls-1" d="M108.28,315.36l14.16-8.23.52.17-14.16,8.23-.52-.17"></path><path class="cls-1" d="M108.8,315.53,123,307.3l.52.14-14.16,8.23-.52-.14"></path><path class="cls-1" d="M109.32,315.67l14.16-8.23.53.12-14.16,8.23-.53-.12"></path><path class="cls-1" d="M109.85,315.79,124,307.56l.55.09-14.16,8.23-.55-.09"></path><path class="cls-1" d="M110.4,315.88l14.16-8.23.57.06L111,315.94l-.57-.06"></path><path class="cls-1" d="M111,315.94l14.16-8.23.59,0L111.56,316l-.59,0"></path><path class="cls-1" d="M111.56,316l14.16-8.23c.22,0,.44,0,.65,0l-14.16,8.23c-.21,0-.43,0-.65,0"></path><path class="cls-1" d="M112.21,315.93l14.16-8.23a5.84,5.84,0,0,0,.73-.11l-14.16,8.23c-.24.05-.48.08-.73.11"></path><path class="cls-1" d="M112.94,315.82l14.16-8.23a6.33,6.33,0,0,0,.88-.24l-14.16,8.23a6.74,6.74,0,0,1-.88.24"></path><path class="cls-1" d="M113.82,315.58,128,307.35a6.09,6.09,0,0,0,1-.45l-14.16,8.23a6.09,6.09,0,0,1-1,.45"></path></g><polygon class="cls-1" points="124.5 322.71 138.66 314.48 141.91 320.1 127.75 328.33 124.5 322.71"></polygon><polygon class="cls-1" points="91.9 266.25 106.06 258.02 109.3 263.64 95.14 271.87 91.9 266.25"></polygon><polygon class="cls-10" points="84.04 270.74 98.2 262.51 106.06 258.02 91.9 266.25 84.04 270.74"></polygon><g class="cls-4"><path class="cls-10" d="M126.69,317.92l14.17-8.23c0,.12-.07.24-.11.36l-14.16,8.22a3.57,3.57,0,0,0,.1-.35"></path><path class="cls-10" d="M126.59,318.27l14.16-8.22c-.11.39-.24.78-.38,1.16l-14.16,8.23c.14-.38.27-.77.38-1.17"></path><path class="cls-10" d="M126.21,319.44l14.16-8.23c-.16.43-.33.84-.52,1.24l-14.16,8.23c.19-.4.36-.81.52-1.24"></path><path class="cls-10" d="M125.69,320.68l14.16-8.23a14.08,14.08,0,0,1-.79,1.44l-14.17,8.23a12.43,12.43,0,0,0,.8-1.44"></path><path class="cls-10" d="M124.89,322.12l14.17-8.23c-.13.21-.27.4-.4.59l-14.16,8.23c.13-.19.27-.38.39-.59"></path></g><g class="cls-4"><polyline class="cls-10" points="95.14 271.87 109.3 263.64 109.31 263.64 95.15 271.87 95.14 271.87"></polyline><path class="cls-10" d="M95.15,271.87l14.16-8.23c.36,0,.72-.05,1.09-.05l-14.16,8.23c-.37,0-.73,0-1.09.05"></path><path class="cls-10" d="M96.24,271.82l14.16-8.23,1,0-14.16,8.23-1,0"></path><path class="cls-10" d="M97.25,271.85l14.16-8.23,1,.1L98.21,272l-1-.1"></path><path class="cls-10" d="M98.21,272l14.16-8.23.93.16-14.16,8.23c-.31-.06-.62-.12-.93-.16"></path><path class="cls-10" d="M99.14,272.11l14.16-8.23c.3.06.61.12.91.2l-14.16,8.23c-.31-.08-.61-.14-.91-.2"></path><path class="cls-10" d="M100.05,272.31l14.16-8.23.37.1-14.16,8.23-.37-.1"></path></g><g class="cls-4"><path class="cls-10" d="M124.57,297.88l14.16-8.23,0,.06-14.16,8.23,0-.06"></path><path class="cls-10" d="M124.59,297.94l14.16-8.23c.13.34.26.67.38,1L125,299c-.12-.34-.25-.67-.38-1"></path><path class="cls-10" d="M125,299l14.16-8.23c.13.35.25.71.37,1.06L125.34,300c-.12-.35-.24-.71-.37-1.06"></path><path class="cls-10" d="M125.34,300l14.16-8.23.36,1.1-14.16,8.23-.36-1.1"></path><path class="cls-10" d="M125.7,301.11l14.16-8.23.33,1.14L126,302.25l-.33-1.14"></path><path class="cls-10" d="M126,302.25,140.19,294q.17.59.3,1.17l-14.16,8.23q-.14-.59-.3-1.17"></path><path class="cls-10" d="M126.33,303.42l14.16-8.23c.1.39.19.78.28,1.17l-14.16,8.23c-.09-.39-.18-.78-.28-1.17"></path><path class="cls-10" d="M126.61,304.59l14.16-8.23.12.59-14.16,8.23-.12-.59"></path></g><g class="cls-4"><path class="cls-10" d="M111.5,278.81l14.17-8.23.26.24-14.16,8.23-.27-.24"></path><path class="cls-10" d="M111.77,279.05l14.16-8.23c.33.29.66.6,1,.91L112.75,280c-.32-.31-.65-.62-1-.91"></path><path class="cls-10" d="M112.75,280l14.16-8.23c.32.3.63.6.93.92l-14.16,8.23c-.3-.32-.62-.62-.93-.92"></path><path class="cls-10" d="M113.68,280.88l14.16-8.23c.3.3.59.6.88.92l-14.16,8.23c-.29-.32-.58-.62-.88-.92"></path><path class="cls-10" d="M114.56,281.8l14.16-8.23c.28.3.55.6.82.91l-14.16,8.23c-.27-.31-.54-.62-.82-.91"></path><path class="cls-10" d="M115.38,282.71l14.16-8.23c.27.3.53.61.79.92l-14.16,8.23c-.26-.31-.52-.62-.79-.92"></path><path class="cls-10" d="M116.17,283.63l14.16-8.23.59.72-14.16,8.23-.59-.72"></path></g><polygon class="cls-10" points="131.34 307.84 145.5 299.61 145.46 312.35 131.3 320.58 131.34 307.84"></polygon><polygon class="cls-1" points="126.73 305.18 140.89 296.95 145.5 299.61 131.34 307.84 126.73 305.18"></polygon><polygon class="cls-10" points="100.43 267.11 114.59 258.88 125.68 265.28 111.52 273.51 100.43 267.11"></polygon><polygon class="cls-1" points="111.52 273.51 125.68 265.28 125.67 270.58 111.5 278.81 111.52 273.51"></polygon><polygon class="cls-10" points="120.02 282.48 134.18 274.25 142 287.8 127.84 296.02 120.02 282.48"></polygon><polygon class="cls-10" points="116.76 284.35 130.92 276.12 134.18 274.25 120.02 282.48 116.76 284.35"></polygon><path class="cls-5" d="M131.3,320.58l-4.61-2.66a14.75,14.75,0,0,1-2.19,4.79l3.25,5.62-7.88,4.47-3.23-5.61a15,15,0,0,1-5.27-.53l0,5.28-11.08-6.4v-5.28A45.73,45.73,0,0,1,95,314.71l-3.26,1.86L84,303l3.26-1.85a44.54,44.54,0,0,1-2.16-7.32l-4.6-2.65,0-12.74,4.59,2.65a14.92,14.92,0,0,1,2.2-4.78L84,270.74l7.86-4.49,3.24,5.62a14.84,14.84,0,0,1,5.28.54v-5.3l11.09,6.4,0,5.3a44.2,44.2,0,0,1,5.26,5.54l3.26-1.87L127.84,296l-3.27,1.86a44,44,0,0,1,2.16,7.3l4.61,2.66Zm-16.47-5.45c2.38-1.36,3.73-4.3,3.74-8.16a27.85,27.85,0,0,0-12.64-21.88c-3.36-1.94-6.59-2.27-9-.9s-3.73,4.29-3.74,8.15a27.83,27.83,0,0,0,12.63,21.88c3.36,1.95,6.59,2.27,9,.91"></path></g><g class="cls-4"><polygon class="cls-10" points="77.66 235.09 86.02 230.22 87.95 229.13 79.58 233.99 77.66 235.09"></polygon><polygon class="cls-1" points="93.86 249.04 102.23 244.18 102.22 247.3 93.85 252.16 93.86 249.04"></polygon><polygon class="cls-1" points="75.61 220.57 83.98 215.71 86.69 217.28 78.33 222.14 75.61 220.57"></polygon><g class="cls-4"><path class="cls-1" d="M85.34,223.94l8.37-4.86a3.84,3.84,0,0,0-1.32,1.28L84,225.23a3.87,3.87,0,0,1,1.32-1.29"></path><path class="cls-1" d="M84,225.23l8.37-4.87c-.1.16-.19.33-.28.51l-8.37,4.87c.09-.18.18-.35.28-.51"></path><path class="cls-1" d="M83.74,225.74l8.37-4.87a3.38,3.38,0,0,0-.18.44l-8.37,4.86.18-.43"></path><path class="cls-1" d="M83.56,226.17l8.37-4.86c-.05.13-.1.26-.14.4l-8.36,4.87c0-.14.08-.28.13-.41"></path><path class="cls-1" d="M83.43,226.58l8.36-4.87-.09.38L83.33,227c0-.12.06-.25.1-.37"></path><path class="cls-1" d="M83.33,227l8.37-4.86c0,.12-.06.24-.08.37l-8.37,4.86c0-.12,0-.25.08-.37"></path><path class="cls-1" d="M83.25,227.32l8.37-4.86c0,.12,0,.24-.05.36l-8.37,4.86c0-.12,0-.24,0-.36"></path><path class="cls-1" d="M83.2,227.68l8.37-4.86c0,.12,0,.23,0,.35L83.16,228c0-.12,0-.24,0-.36"></path><path class="cls-1" d="M83.16,228l8.37-4.87c0,.12,0,.24,0,.36l-8.37,4.86c0-.12,0-.24,0-.35"></path><path class="cls-1" d="M83.14,228.39l8.37-4.86c0,.11,0,.23,0,.35l-8.37,4.86c0-.12,0-.23,0-.35"></path><path class="cls-1" d="M83.13,228.74l8.37-4.86v0c0,.11,0,.22,0,.33l-8.37,4.86c0-.11,0-.22,0-.33v0"></path><path class="cls-1" d="M83.14,229.09l8.37-4.86c0,.12,0,.24,0,.36l-8.36,4.86c0-.12,0-.24,0-.36"></path><path class="cls-1" d="M83.16,229.45l8.36-4.86,0,.36-8.37,4.86c0-.12,0-.24,0-.36"></path><path class="cls-1" d="M83.18,229.81,91.55,225c0,.12,0,.24,0,.37l-8.37,4.86c0-.12,0-.25,0-.37"></path><path class="cls-1" d="M83.22,230.18l8.37-4.86.06.37-8.37,4.87-.06-.38"></path><path class="cls-1" d="M83.28,230.56l8.37-4.87.06.39-8.37,4.86-.06-.38"></path><path class="cls-1" d="M83.34,230.94l8.37-4.86c0,.13.05.26.08.39l-8.37,4.86c0-.13,0-.26-.08-.39"></path><path class="cls-1" d="M83.42,231.33l8.37-4.86.09.4-8.36,4.86c0-.13-.07-.27-.1-.4"></path><path class="cls-1" d="M83.52,231.73l8.36-4.86c0,.13.07.26.11.4l-8.37,4.86c0-.13-.07-.27-.1-.4"></path><path class="cls-1" d="M83.62,232.13,92,227.27l.12.4-8.37,4.86-.12-.4"></path><path class="cls-1" d="M83.74,232.53l8.37-4.86.12.39-8.37,4.86-.12-.39"></path><path class="cls-1" d="M83.86,232.92l8.37-4.86.14.38L84,233.3c0-.12-.09-.25-.14-.38"></path><path class="cls-1" d="M84,233.3l8.37-4.86.13.37-8.36,4.86c0-.12-.1-.24-.14-.37"></path><path class="cls-1" d="M84.14,233.67l8.36-4.86.15.36L84.28,234c0-.12-.1-.24-.14-.36"></path><path class="cls-1" d="M84.28,234l8.37-4.86.15.36-8.37,4.86-.15-.36"></path><path class="cls-1" d="M84.43,234.39l8.37-4.86c0,.12.11.24.17.36l-8.37,4.86-.17-.36"></path><path class="cls-1" d="M84.6,234.75,93,229.89l.18.38-8.37,4.86-.18-.38"></path><path class="cls-1" d="M84.78,235.13l8.37-4.86.22.43L85,235.57l-.23-.44"></path><path class="cls-1" d="M85,235.57l8.36-4.87c.1.19.2.37.31.55l0,.08-8.36,4.86,0-.08q-.16-.27-.3-.54"></path><path class="cls-1" d="M85.36,236.19l8.36-4.86c.21.36.43.7.66,1L86,237.24c-.23-.34-.45-.69-.65-1.05"></path><path class="cls-1" d="M86,237.24l8.37-4.87c.14.21.28.41.43.61l-8.37,4.86-.43-.6"></path><path class="cls-1" d="M86.44,237.84,94.81,233c.1.14.21.27.31.4l-8.37,4.87-.31-.41"></path><path class="cls-1" d="M86.75,238.25l8.37-4.87.29.36L87,238.6l-.29-.35"></path><path class="cls-1" d="M87,238.6l8.37-4.86.28.33-8.37,4.87L87,238.6"></path><path class="cls-1" d="M87.32,238.94l8.37-4.87.3.33-8.37,4.86-.3-.32"></path><path class="cls-1" d="M87.62,239.26,96,234.4l.3.32-8.37,4.86-.3-.32"></path><path class="cls-1" d="M87.92,239.58l8.37-4.86.32.31-8.37,4.87c-.1-.11-.21-.21-.32-.32"></path><path class="cls-1" d="M88.24,239.9,96.61,235l.33.31-8.36,4.87-.34-.31"></path><path class="cls-1" d="M88.58,240.21l8.36-4.87.34.3-8.37,4.86-.33-.29"></path><path class="cls-1" d="M88.91,240.5l8.37-4.86.33.27-8.36,4.86-.34-.27"></path><path class="cls-1" d="M89.25,240.77l8.36-4.86.33.25L89.58,241l-.33-.25"></path><path class="cls-1" d="M89.58,241l8.36-4.86.33.23-8.37,4.86-.32-.23"></path><path class="cls-1" d="M89.9,241.25l8.37-4.86.31.21-8.37,4.86-.31-.21"></path><path class="cls-1" d="M90.21,241.46l8.37-4.86.31.19-8.37,4.86-.31-.19"></path><path class="cls-1" d="M90.52,241.65l8.37-4.86.07,0,.24.13-8.37,4.86a1.71,1.71,0,0,1-.23-.13l-.08,0"></path><path class="cls-1" d="M90.83,241.82,99.2,237l.3.16L91.13,242l-.3-.16"></path><path class="cls-1" d="M91.13,242l8.37-4.86.3.14-8.37,4.86-.3-.14"></path><path class="cls-1" d="M91.43,242.12l8.37-4.86.3.13-8.37,4.86-.3-.13"></path><path class="cls-1" d="M91.73,242.25l8.37-4.86.3.11L92,242.36l-.31-.11"></path><path class="cls-1" d="M92,242.36l8.36-4.86.31.1-8.37,4.86-.3-.1"></path><path class="cls-1" d="M92.34,242.46l8.37-4.86.3.08-8.36,4.87-.31-.09"></path><path class="cls-1" d="M92.65,242.55l8.36-4.87.32.07L93,242.62l-.31-.07"></path><path class="cls-1" d="M93,242.62l8.37-4.87.32.06-8.37,4.86-.32,0"></path><path class="cls-1" d="M93.28,242.67l8.37-4.86.34,0-8.37,4.87-.34,0"></path><path class="cls-1" d="M93.62,242.71l8.37-4.87a2,2,0,0,0,.35,0L94,242.72h-.35"></path><path class="cls-1" d="M94,242.72l8.37-4.87h.39l-8.37,4.86-.39,0"></path><path class="cls-1" d="M94.36,242.7l8.37-4.86.42-.06-8.37,4.86a2.83,2.83,0,0,1-.42.06"></path><path class="cls-1" d="M94.78,242.64l8.37-4.86a4,4,0,0,0,.52-.15l-8.36,4.87a4.58,4.58,0,0,1-.53.14"></path><path class="cls-1" d="M95.31,242.5l8.36-4.87a3.24,3.24,0,0,0,.6-.27l-8.37,4.87a4.47,4.47,0,0,1-.59.27"></path></g><polygon class="cls-1" points="101.62 246.71 109.98 241.85 111.9 245.17 103.54 250.03 101.62 246.71"></polygon><polygon class="cls-1" points="82.36 213.34 90.72 208.48 92.64 211.8 84.27 216.66 82.36 213.34"></polygon><polygon class="cls-10" points="77.71 216 86.08 211.13 90.72 208.48 82.36 213.34 77.71 216"></polygon><g class="cls-4"><path class="cls-10" d="M102.91,243.88l8.37-4.87-.06.21-8.36,4.87a1.6,1.6,0,0,0,0-.21"></path><path class="cls-10" d="M102.86,244.09l8.36-4.87c-.07.24-.14.47-.22.69l-8.37,4.86c.08-.22.16-.45.23-.68"></path><path class="cls-10" d="M102.63,244.77l8.37-4.86c-.1.26-.2.5-.31.74l-8.37,4.86c.11-.24.21-.48.31-.74"></path><path class="cls-10" d="M102.32,245.51l8.37-4.86c-.15.3-.3.58-.47.85l-8.37,4.86a7.72,7.72,0,0,0,.47-.85"></path><path class="cls-10" d="M101.85,246.36l8.37-4.86-.24.35-8.36,4.86c.08-.11.16-.23.23-.35"></path></g><g class="cls-4"><polyline class="cls-10" points="84.27 216.66 92.64 211.8 92.64 211.8 84.27 216.66 84.27 216.66"></polyline><path class="cls-10" d="M84.27,216.66l8.37-4.86c.21,0,.43,0,.64,0l-8.36,4.87-.65,0"></path><path class="cls-10" d="M84.92,216.64l8.36-4.87.6,0-8.37,4.87a3.92,3.92,0,0,0-.59,0"></path><path class="cls-10" d="M85.51,216.66l8.37-4.87.57.06-8.37,4.86-.57-.05"></path><path class="cls-10" d="M86.08,216.71l8.37-4.86.55.09-8.37,4.87-.55-.1"></path><path class="cls-10" d="M86.63,216.81,95,211.94l.54.12-8.37,4.87a5.23,5.23,0,0,0-.54-.12"></path><path class="cls-10" d="M87.17,216.93l8.37-4.87.22.06L87.39,217l-.22,0"></path></g><g class="cls-4"><path class="cls-10" d="M101.66,232l8.37-4.86v0l-8.37,4.86v0"></path><path class="cls-10" d="M101.67,232.07l8.37-4.86c.08.2.15.4.22.59l-8.36,4.87-.23-.6"></path><path class="cls-10" d="M101.9,232.67l8.36-4.87c.08.21.15.42.22.63l-8.37,4.86-.21-.62"></path><path class="cls-10" d="M102.11,233.29l8.37-4.86c.08.22.15.44.21.65L102.32,234q-.09-.33-.21-.66"></path><path class="cls-10" d="M102.32,234l8.37-4.87c.07.23.14.45.2.68l-8.37,4.86c-.06-.22-.13-.45-.2-.67"></path><path class="cls-10" d="M102.52,234.62l8.37-4.86.18.68-8.37,4.87-.18-.69"></path><path class="cls-10" d="M102.7,235.31l8.37-4.87c.06.24.11.47.16.7L102.86,236c0-.23-.1-.46-.16-.69"></path><path class="cls-10" d="M102.86,236l8.37-4.86c0,.11,0,.23.07.35l-8.36,4.86c0-.12,0-.23-.08-.35"></path></g><g class="cls-4"><path class="cls-10" d="M93.94,220.76l8.37-4.86a1.07,1.07,0,0,0,.16.14l-8.37,4.87-.16-.15"></path><path class="cls-10" d="M94.1,220.91l8.37-4.87.57.54-8.36,4.86-.58-.53"></path><path class="cls-10" d="M94.68,221.44l8.36-4.86.55.54L95.23,222l-.55-.55"></path><path class="cls-10" d="M95.23,222l8.36-4.87c.18.18.35.36.52.55l-8.37,4.86-.51-.54"></path><path class="cls-10" d="M95.74,222.53l8.37-4.86c.17.17.33.35.49.54l-8.37,4.86-.49-.54"></path><path class="cls-10" d="M96.23,223.07l8.37-4.86.46.54-8.36,4.87-.47-.55"></path><path class="cls-10" d="M96.7,223.62l8.36-4.87c.12.14.24.28.35.43L97,224l-.34-.42"></path></g><polygon class="cls-10" points="105.66 237.92 114.03 233.06 114 240.59 105.64 245.45 105.66 237.92"></polygon><polygon class="cls-1" points="102.94 236.35 111.3 231.49 114.03 233.06 105.66 237.92 102.94 236.35"></polygon><polygon class="cls-10" points="87.4 213.85 95.76 208.99 102.31 212.77 93.95 217.64 87.4 213.85"></polygon><polygon class="cls-1" points="93.95 217.64 102.31 212.77 102.31 215.9 93.94 220.76 93.95 217.64"></polygon><polygon class="cls-10" points="98.97 222.93 107.34 218.07 111.96 226.08 103.59 230.94 98.97 222.93"></polygon><polygon class="cls-10" points="97.04 224.04 105.41 219.18 107.34 218.07 98.97 222.93 97.04 224.04"></polygon><path class="cls-5" d="M105.64,245.45l-2.73-1.57a8.75,8.75,0,0,1-1.29,2.83l1.92,3.32-4.66,2.64L97,249.36a9,9,0,0,1-3.11-.32v3.13l-6.55-3.79v-3.12A26.33,26.33,0,0,1,84.2,242l-1.93,1.1-4.61-8,1.92-1.1a27.07,27.07,0,0,1-1.28-4.32l-2.71-1.57,0-7.53,2.72,1.57a9,9,0,0,1,1.29-2.83L77.71,216l4.65-2.66,1.91,3.33a9,9,0,0,1,3.12.31v-3.13L94,217.64v3.12A27,27,0,0,1,97,224L99,222.93l4.62,8L101.66,232a27.07,27.07,0,0,1,1.28,4.32l2.72,1.57Zm-9.74-3.22c1.41-.81,2.21-2.54,2.21-4.82a16.4,16.4,0,0,0-7.47-12.93c-2-1.15-3.89-1.34-5.3-.54s-2.2,2.54-2.21,4.82a16.47,16.47,0,0,0,7.47,12.93c2,1.15,3.89,1.34,5.3.54"></path></g><g class="cls-4"><polygon class="cls-10" points="386.64 304.76 370.16 295.24 358.92 301.78 375.4 311.29 391.88 320.81 403.13 314.28 386.64 304.76"></polygon><path class="cls-1" d="M391.88,320.81l11.25-6.53c7.07,18.18,15.94,24.72,16.41,25.06l-11.24,6.54C407.83,345.53,399,339,391.88,320.81Z"></path><g class="cls-11"><path class="cls-1" d="M419.25,339.12c-.12-.1-.28-.22-.46-.38l-.59-.51-.68-.63-.73-.73-.77-.8-.78-.87c-.27-.3-.54-.62-.82-.95l-.86-1.07-1-1.29c-.47-.65-1-1.34-1.47-2.08-.74-1.11-1.51-2.32-2.29-3.65-.48-.82-1-1.69-1.45-2.6q-.5-.93-1-1.92c-.28-.57-.56-1.15-.84-1.75s-.54-1.17-.81-1.77-.53-1.22-.79-1.85-.53-1.3-.8-2h0l-11.25,6.53v0c.26.67.53,1.33.8,2s.52,1.25.79,1.85.53,1.2.8,1.77.57,1.18.85,1.75.66,1.3,1,1.92c.49.91,1,1.78,1.46,2.6.77,1.33,1.54,2.55,2.29,3.65.5.74,1,1.44,1.47,2.08.34.46.67.89,1,1.3s.58.73.86,1.06.55.65.81,1,.54.6.79.87l.76.81.74.72.68.64.59.51.45.37.3.23,11.24-6.54Z"></path></g><path class="cls-5" d="M408.3,345.88c6.51,44.57-17.63,53.52-33.15,54.14-15.47-18.51-39.48-55.26-32.73-92.18.46.2,9.35,3.9,16.5-6.06l16.48,9.51,16.48,9.52C399,339,407.83,345.53,408.3,345.88Z"></path><path class="cls-10" d="M363.26,301.09c-.24.1-.48.21-.72.29s-.42.14-.62.2l-.3.1-.9.21h0c-.41.08-.81.13-1.2.17l-.33,0-.72,0h-.3q-.37,0-.72,0h-.16c-.28,0-.55-.05-.8-.09l-.2,0-.51-.08-.24-.05-.39-.09-.21,0-.33-.09-.17-.05-.29-.1-.09,0-.29-.11-.07,0h0l-11.24,6.53.07,0h0l.29.1h0l.08,0,.29.09.07,0,.1,0,.33.09.12,0,.09,0,.39.08.17,0h.07l.5.09.18,0h0l.79.08h.17l.72,0h.3l.71,0h.2l.13,0c.39,0,.79-.09,1.2-.17h0c.29-.06.6-.13.9-.22l.31-.09.5-.16.11,0c.24-.09.49-.19.73-.3l.36-.15c.37-.17.74-.36,1.12-.58l11.24-6.53a11.8,11.8,0,0,1-1.11.58Z"></path><path class="cls-10" d="M420.63,353.89v-.19c0-.18,0-.38,0-.56,0-.61,0-1.22,0-1.84,0-.14,0-.27,0-.41s0-.36,0-.53q0-.9-.09-1.83c0-.2,0-.39,0-.59l0-.35c-.05-.75-.12-1.52-.19-2.3l0-.46a.28.28,0,0,1,0-.09c-.1-1-.21-2-.34-3a1.5,1.5,0,0,1,0-.22q-.13-1.06-.3-2.16l-11.24,6.54c.11.8.22,1.59.32,2.38.12,1,.24,2,.33,3,0,.19,0,.37.05.56.07.77.13,1.54.18,2.3,0,.31,0,.62.06.94l.09,1.82,0,.94c0,.63,0,1.24,0,1.85v.74c0,.84,0,1.67-.06,2.47,0,.1,0,.19,0,.28,0,.73-.08,1.44-.13,2.14,0,.26-.05.5-.07.75-.05.56-.11,1.1-.17,1.64l-.09.73c-.1.76-.21,1.51-.33,2.24,0,0,0,.06,0,.08-.13.78-.28,1.52-.45,2.26l-.12.55c-.2.82-.4,1.62-.63,2.39v0c-.27.89-.55,1.74-.86,2.57,0,.1-.07.2-.1.29-.38,1-.78,1.94-1.21,2.85l-.06.13c-.27.57-.56,1.12-.86,1.66-.07.14-.15.28-.23.42l-.75,1.25-.22.35c-.31.48-.64,1-1,1.41l-.21.28c-.27.37-.56.73-.84,1.08l-.3.36c-.34.41-.69.8-1,1.18l0,.05c-.37.39-.75.76-1.14,1.13l-.32.3c-.31.28-.62.56-.94.82l-.27.24c-.39.32-.79.64-1.2.94l-.27.2c-.33.24-.66.47-1,.69l-.35.23c-.42.28-.84.54-1.27.79l11.25-6.54c.42-.24.84-.51,1.26-.78l.35-.23c.34-.22.67-.46,1-.7l.28-.19c.4-.31.8-.62,1.2-.95l.27-.23c.31-.27.62-.54.93-.83l.33-.3c.38-.36.76-.74,1.13-1.13l0,0c.35-.38.7-.78,1.05-1.18l.29-.36q.43-.53.84-1.08l.22-.28c.33-.46.65-.93,1-1.42l.08-.1c.05-.08.09-.17.14-.24q.39-.62.75-1.26l.24-.42c.29-.53.58-1.09.85-1.66l0,0,0-.09c.43-.9.84-1.85,1.21-2.84a.36.36,0,0,1,0-.09l.06-.2c.31-.83.6-1.68.86-2.57v0h0c.22-.77.43-1.58.62-2.39,0-.1.05-.2.07-.3l.06-.26q.24-1.1.45-2.25h0a.25.25,0,0,0,0-.08c.13-.73.24-1.48.34-2.24,0-.1,0-.19,0-.29s0-.29,0-.43c.07-.54.12-1.09.17-1.64,0-.17,0-.32,0-.48s0-.18,0-.27c.05-.7.1-1.41.13-2.14,0-.08,0-.16,0-.24v0C420.6,355.55,420.62,354.73,420.63,353.89Z"></path><path class="cls-7" d="M383.76,348.56l0-5.71a14.07,14.07,0,0,0-6.37-11l-4.13-2.38c-3.52-2-6.4-.4-6.41,3.65v5.71l-2.09-1.2,0,12.12c0,6.69,4.69,14.84,10.51,18.2s10.56.66,10.58-6l0-12.12Zm-15-14.38c0-2.85,2-4,4.52-2.57L377.4,334a9.9,9.9,0,0,1,4.49,7.76l0,5.72-13.12-7.58Zm7.6,20.93v3.77c0,.69-.49.95-1.09.61a2.36,2.36,0,0,1-1.07-1.85v-3.77a6.1,6.1,0,0,1-1.66-3.89c0-1.74,1.24-2.44,2.76-1.57a6.05,6.05,0,0,1,2.74,4.75C378,354.47,377.34,355.19,376.36,355.11Z"></path></g><polygon class="cls-1" points="218.52 79.02 226.99 74.09 232.5 68.05 224.04 72.97 218.52 79.02"></polygon><path class="cls-10" d="M261.94,44.77c0-.13,0-.25,0-.38l0-.37c0-.13,0-.25,0-.38s0-.26-.05-.39,0-.26-.07-.39-.05-.27-.08-.4-.06-.27-.1-.4-.06-.28-.1-.41l-.12-.41c0-.14-.09-.27-.13-.4s-.09-.27-.14-.4-.09-.25-.14-.38l-.15-.37c0-.13-.11-.25-.16-.37s-.11-.25-.17-.38l-.2-.4-.24-.47c-.12-.23-.25-.45-.38-.68s-.38-.62-.58-.92-.32-.47-.49-.7l-.34-.45-.3-.36c-.1-.12-.19-.24-.3-.35a3.17,3.17,0,0,0-.3-.34l-.31-.33-.33-.32-.34-.32L256,33l-.34-.28-.34-.25a3.53,3.53,0,0,0-.34-.24l-.33-.22-.32-.2-.08,0L200.05,1.06l-.24-.14-.32-.16-.31-.15-.31-.13-.32-.12-.3-.1-.32-.09L197.61.1l-.34,0-.34,0h-.37l-.4,0a3.11,3.11,0,0,0-.44.06,4.26,4.26,0,0,0-.54.15,4.51,4.51,0,0,0-.63.29l-8.46,4.92a5,5,0,0,1,.62-.29,5.44,5.44,0,0,1,.54-.15l.45-.06.4,0h.36l.35,0,.33,0,.32.07.32.09.31.1.31.12.31.13.32.15.31.16.25.14,54.19,30.71.07,0,.33.2.33.22a3.43,3.43,0,0,1,.33.24l.34.25.34.28.35.3.34.32.32.32.32.33.3.34.3.34.3.37.34.45c.17.23.33.46.49.7s.39.61.58.92.25.45.38.68l.24.46c.06.14.13.28.19.41l.18.38.15.37c.06.12.11.25.16.37s.09.26.14.38.09.26.13.4.09.26.13.4l.12.4c0,.14.08.28.11.41l.09.41.09.4.06.39.06.39c0,.13,0,.25,0,.38l0,.37c0,.13,0,.25,0,.37V50l-.08,30.53v0c0,.12,0,.25,0,.37l0,.36,0,.37-.06.37c0,.13-.05.26-.07.38s-.07.27-.11.39-.08.28-.13.41-.12.3-.19.44a4.49,4.49,0,0,1-.29.53,4,4,0,0,1-1.34,1.31l8.46-4.92A4,4,0,0,0,261,79.28c.1-.17.2-.34.29-.53s.13-.29.18-.44.1-.27.14-.4.07-.26.1-.4,0-.25.08-.38,0-.24.05-.36,0-.25,0-.38,0-.24,0-.36,0-.25,0-.37v0L262,45.11C262,45,262,44.88,261.94,44.77Z"></path><path class="cls-5" d="M245.78,36.69c4.26,2.46,7.72,8.44,7.7,13.34l-.08,30.53c0,4.89-3.5,6.88-7.76,4.41L224,73l-5.52,6-5.63-12.48L191.45,54.27a17,17,0,0,1-7.7-13.35l.08-30.52c0-4.9,3.48-6.89,7.76-4.42Z"></path><path class="cls-3" d="M454.09,235.07c-1.6-.92-2.9-.19-2.91,1.65l-.24,83.79a6.4,6.4,0,0,0,2.89,5l93,53.7c1.61.92,2.91.18,2.91-1.66l.24-83.79a6.37,6.37,0,0,0-2.89-5Z"></path><path class="cls-1" d="M453.61,234.84l-.2-.07-.13,0-.12,0-.16,0h-.31l-.22,0h-.05l-.16,0,0,0a.66.66,0,0,0-.19.09l5.55-3.23h0a.61.61,0,0,1,.14-.07h0l.05,0,.07,0,.09,0h.08l.17,0h.48l.12,0h.07l.06,0,.21.07.07,0,0,0,.36.18,93,53.7a5.93,5.93,0,0,1,.54.38c.06,0,.11.1.17.15l.26.22.1.12.1.1.11.12.24.29a.86.86,0,0,1,.07.1l0,.05a.76.76,0,0,1,.08.11l.17.25.15.24v0l.11.2.13.25c0,.08.07.15.1.23h0c0,.09.08.17.11.26s.07.18.1.28a.65.65,0,0,0,0,.13l0,.06,0,.1c0,.11,0,.22.08.33l0,.21a.3.3,0,0,1,0,.1s0,.06,0,.1a5.4,5.4,0,0,1,0,.56l-.23,83.79a2,2,0,0,1-.85,1.86l-5.55,3.23a2,2,0,0,0,.84-1.86l.24-83.79a5,5,0,0,0,0-.66.43.43,0,0,1,0-.11q-.06-.31-.15-.63l0-.06a5.54,5.54,0,0,0-.25-.68h0a6.24,6.24,0,0,0-.35-.68v0c-.12-.21-.26-.42-.4-.62l0-.05c-.13-.18-.28-.35-.42-.51l-.1-.1a4,4,0,0,0-.37-.35l-.16-.14a4.91,4.91,0,0,0-.55-.38l-93-53.7-.37-.18Z"></path><g class="cls-4"><path class="cls-5" d="M454,230.44c-1.6-.92-2.9-.18-2.91,1.66v5.77l98.81,57v-5.76a6.37,6.37,0,0,0-2.88-5Z"></path><path class="cls-6" d="M555.39,285.35s0-.06,0-.1a.36.36,0,0,1,0-.1,1.42,1.42,0,0,0,0-.2c0-.11-.05-.22-.08-.33l0-.1,0-.06a.74.74,0,0,0,0-.14c0-.09-.06-.18-.1-.27s-.07-.18-.1-.26v0h0c0-.07-.07-.15-.11-.22l-.12-.25-.12-.2v0l-.15-.25-.17-.25-.07-.1,0-.06-.08-.1c-.07-.1-.15-.19-.23-.29a1.14,1.14,0,0,1-.11-.11l-.1-.11-.11-.11-.26-.23-.16-.15a3.78,3.78,0,0,0-.55-.37l-93-53.71c-.14-.08-.28-.14-.41-.2l-.13,0-.1,0-.11,0-.25,0h-.41l-.18,0h-.06l-.1,0-.15.05-.15.07h0l-5.55,3.23a1.52,1.52,0,0,1,.42-.16h0a1.8,1.8,0,0,1,.47,0h0a2.29,2.29,0,0,1,.48.1l.1,0a3.49,3.49,0,0,1,.53.24l93,53.7a5.93,5.93,0,0,1,.54.38l.17.15c.12.11.25.22.36.34a.94.94,0,0,1,.1.1,5.17,5.17,0,0,1,.42.51l0,.06a6.65,6.65,0,0,1,.41.62h0a6.16,6.16,0,0,1,.34.68h0c.09.23.18.46.25.69l0,.06a4.75,4.75,0,0,1,.14.63.36.36,0,0,1,0,.1,5.16,5.16,0,0,1,0,.67v5.76l5.55-3.22,0-5.77A3.64,3.64,0,0,0,555.39,285.35Z"></path></g><path class="cls-7" d="M530.05,277.1c-1-.58-1.81-.11-1.82,1a4,4,0,0,0,1.81,3.13c1,.58,1.82.12,1.82-1A4,4,0,0,0,530.05,277.1Z"></path><path class="cls-7" d="M536.29,280.7c-1-.58-1.82-.12-1.83,1a4,4,0,0,0,1.82,3.13c1,.58,1.82.12,1.82-1A4,4,0,0,0,536.29,280.7Z"></path><path class="cls-7" d="M542.52,284.3c-1-.58-1.82-.11-1.82,1a4,4,0,0,0,1.81,3.13c1,.58,1.82.12,1.83-1A4,4,0,0,0,542.52,284.3Z"></path><ellipse class="cls-7" cx="495.79" cy="306.43" rx="15.77" ry="24.81" transform="translate(-82.9 375.89) rotate(-38.56)"></ellipse><polygon class="cls-5" points="491.69 297.56 491.69 312.69 504.79 311.12 491.69 297.56"></polygon><path class="cls-12" d="M347,174a12.59,12.59,0,0,1,2.16-2.95c.37-.45,1.49-1.66,1.51-2.14s.2-1.2-.06-1.29-1.14.69-1.14.69a8,8,0,0,1-.53-3.11c.21-1.08,1.08-3,.62-3.08a5.71,5.71,0,0,0-2.45.83,8.87,8.87,0,0,0-2.33,2.21,22.49,22.49,0,0,0-.53,4.42,30.13,30.13,0,0,1-.76,3.77Z"></path><path class="cls-13" d="M343.56,198.89c-.93,3.9-4.9,9.87-7.67,8.18-.58-.35-1.81-4.85-1.93-5.8-.7-5.19,2.15-11.37,2.89-13.9.93-3.21,6.32-15.25,6.32-15.25s3.09.77,3.85,1.91c0,0-3.33,11.61-4,14.16S343.56,198.89,343.56,198.89Z"></path><path class="cls-10" d="M381.44,157.6s0-.11,0-.17,0-.11,0-.17a1.11,1.11,0,0,1,0-.17l0-.18,0-.18a1.16,1.16,0,0,0,0-.18c0-.06,0-.13,0-.19s0-.12-.05-.19a1.21,1.21,0,0,1,0-.18l-.06-.19a1.34,1.34,0,0,0-.07-.18l-.06-.17c0-.06-.05-.11-.07-.17s0-.11-.07-.17l-.08-.17-.09-.19-.11-.21a3.14,3.14,0,0,0-.18-.31c-.08-.14-.17-.29-.26-.42l-.22-.32-.16-.21c-.05-.05-.09-.11-.14-.17s-.09-.1-.13-.16l-.14-.15-.15-.15-.14-.15-.16-.14-.16-.14-.15-.13-.16-.11-.15-.11-.15-.1-.15-.09,0,0-24.78-14-.12-.06-.14-.08-.15-.07-.14-.06-.14-.05-.14,0-.15,0-.14,0-.16,0h-.5l-.21,0-.25.07a1.75,1.75,0,0,0-.28.13l-3.87,2.25.28-.13.25-.07.2,0h.35l.16,0,.15,0,.15,0,.14,0,.15,0,.14.05.14.06.14.07.15.08.11.06,24.79,14,0,0,.15.09.15.1.15.11.15.11.16.13.16.14.15.14.15.15.15.15.13.15.14.16c0,.06.09.12.14.17l.15.21a3.71,3.71,0,0,1,.23.32c.09.13.18.28.26.42l.18.31a2.12,2.12,0,0,0,.11.21l.09.19c0,.06.05.11.07.17l.08.17a1.22,1.22,0,0,0,.07.17l.06.17.06.19.06.18.06.18c0,.07,0,.13.05.19s0,.13,0,.19,0,.12,0,.18l0,.18a1.1,1.1,0,0,1,0,.18,1,1,0,0,1,0,.17c0,.06,0,.11,0,.17v.17a.92.92,0,0,1,0,.16l0,26.11h0a1.09,1.09,0,0,1,0,.18.86.86,0,0,1,0,.16c0,.06,0,.12,0,.17l0,.17,0,.17c0,.06,0,.12-.05.18l-.06.19-.09.2a1.36,1.36,0,0,1-.13.24,1.77,1.77,0,0,1-.62.6l3.88-2.25a1.75,1.75,0,0,0,.61-.6,1.83,1.83,0,0,0,.13-.24,1.76,1.76,0,0,0,.09-.2l.06-.19c0-.06,0-.12.05-.18l0-.17,0-.17a1.11,1.11,0,0,1,0-.17,1,1,0,0,1,0-.17v-.17h0l0-26.11Z"></path><path class="cls-5" d="M374,153.91a7.78,7.78,0,0,1,3.53,6.1l0,26.11c0,2.25-1.6,3.15-3.55,2L349.19,174.1a7.74,7.74,0,0,1-3.52-6.11l0-26.11c0-2.24,1.59-3.15,3.54-2Z"></path><path class="cls-7" d="M360.86,176.74l8.45-8.27a.4.4,0,0,0-.08-.63l-3.9-2.26a.38.38,0,0,1-.2-.34l0-11.22-9.24-5.36,0,10.76a.4.4,0,0,1-.59.35l-2.89-1.68a.39.39,0,0,0-.55.51l8.37,18A.39.39,0,0,0,360.86,176.74Z"></path><path class="cls-12" d="M372.56,181.06a12.34,12.34,0,0,0,1.26-3.43,7.58,7.58,0,0,1,.95-2.44c.38-.28.88-.83,1.11-.66s.05,1.33.05,1.33a8,8,0,0,0,2.89-1.28c.77-.78,1.88-2.55,2.22-2.22a5.76,5.76,0,0,1,.66,2.5,9,9,0,0,1-.55,3.16,22.74,22.74,0,0,1-3.39,2.89,30.69,30.69,0,0,0-2.72,2.72Z"></path><path class="cls-1" d="M348.13,286.36s0,2.45,0,3.3.23,1.78.49,1.9a3.89,3.89,0,0,0,2.89.28c.28-.07,3.15-.88,4.34-2.43s.17-2.16-1.17-2.16-3.31-1.68-3.31-1.68Z"></path><path class="cls-1" d="M338.51,280.51s0,3.13,0,4,.24,1.79.5,1.91a4.53,4.53,0,0,0,2.89.28,20.92,20.92,0,0,0,3-3.38c1.2-1.55.35-2.4-1-2.4a4.72,4.72,0,0,1-2.19-.49Z"></path><path class="cls-12" d="M349.75,182.66c.41.05,1.13,3,1.4,4.45s.47,3.39.63,3.93-.22,1.5-.22,1.91.31,2.2-.84,2.74-2.27.17-2.34.48-.65,4.11-.65,4.11l-5.7-.89a18.74,18.74,0,0,0-.23-3.12c-.25-1.24-1.24-5.24-1.24-5.24Z"></path><path class="cls-14" d="M339.08,184a4.9,4.9,0,0,1,3.26-3.07c2.72-1,8-.34,8.83,0s.55,3.25-.69,4.66a5.93,5.93,0,0,0-1.4,4.11l.06.84-.81.05a4.53,4.53,0,0,0-.82-1.78c-.81-.82-2.16-.2-2,.75a2,2,0,0,0,1.05,1.55,2.13,2.13,0,0,0,.85.35s-1.46,2.16-1.66,2.64a20.24,20.24,0,0,0-.49,2.19l-3.35.51a21.67,21.67,0,0,0-2.58-4.56,8.17,8.17,0,0,1-1.88-5.46A4.43,4.43,0,0,1,339.08,184Z"></path><path class="cls-10" d="M344.05,231.67c-3.07,3.07-3.5,9-.84,15,1.8,4.09,2.72,5.47,3,13.85s1.81,17.37,1.69,26.25c0,1,3.22,1.41,5.24-.14,0,0,.86-20.13,1.39-25.4s1.37-12.06,1.37-17.71a58.22,58.22,0,0,0-1.68-13Z"></path><path class="cls-10" d="M337.41,229.25c-3.07,3.07-1.9,9.05-1.22,15.3s1.12,14,1.37,18.66c.22,4,.36,9.43.89,17.3.07,1,2.88,2.34,4.9.79,0,0,1.23-17.16,1.76-22.42s2.2-15.52,3.26-20.52,1.57-6.84,1.57-6.84Z"></path><path class="cls-13" d="M339.91,195.92c-1.38-.19-2.31,1.14-3.89,2.52s-1.38,7.3-.59,11.24a33.74,33.74,0,0,1,.5,11c-.39,4.53-1.21,10.75-1,15.49,0,0,1.5,2.9,7.77,3.77a28.59,28.59,0,0,0,13.42-1.89s-1.09-12.34-1.41-15.54c-.47-4.71,1.13-11.09,1.73-14.09.88-4.42-2.66-10.77-2.66-10.77a17,17,0,0,1-7.51.08A39.7,39.7,0,0,1,339.91,195.92Z"></path><path class="cls-13" d="M353.77,197.7c-2.74,2.93-2.15,12.39.78,13.76.61.29,2-3.65,2.54-4.44,2.92-4.32,8.28-8.09,10-10.1,2.15-2.55,9.2-13.71,9.2-13.71s-2.35-2.15-3.72-2.15c0,0-7.83,9.2-9.59,11.16S353.77,197.7,353.77,197.7Z"></path><path class="cls-12" d="M345.1,170.19c.27,0,.78-.21,1.27-.3,1.12-.21,1.18.15,2.39-.93.71-.64,1.17-.48.87.51a6.91,6.91,0,0,1-1,1.42,16.76,16.76,0,0,1-1.33,2C346.61,173.45,345.1,170.19,345.1,170.19Z"></path><g class="cls-4"><g class="cls-4"><path class="cls-6" d="M104.6,121.72l-10.06-5.85.1,0,10.06,5.85-.1,0"></path><path class="cls-6" d="M104.7,121.68l-10.06-5.85a12.73,12.73,0,0,1,1.31-.45L106,121.23a9.25,9.25,0,0,0-1.31.45"></path><path class="cls-6" d="M106,121.23,96,115.38a9.39,9.39,0,0,1,1-.21L107,121a7.49,7.49,0,0,0-1,.22"></path><path class="cls-6" d="M107,121,97,115.17a8.09,8.09,0,0,1,.83-.09l10.06,5.85a8,8,0,0,0-.83.08"></path><path class="cls-6" d="M107.84,120.93l-10.06-5.85c.25,0,.5,0,.74,0l10.06,5.85a6.06,6.06,0,0,0-.74,0"></path><path class="cls-6" d="M108.58,120.94l-10.06-5.85c.23,0,.46,0,.68.08L109.26,121a5.05,5.05,0,0,0-.68-.08"></path><path class="cls-6" d="M109.26,121,99.2,115.17q.31.06.63.15l10.06,5.84a4.75,4.75,0,0,0-.63-.14"></path><path class="cls-6" d="M109.89,121.16l-10.06-5.84a4.1,4.1,0,0,1,.59.2l10.06,5.85a5.89,5.89,0,0,0-.59-.21"></path><path class="cls-6" d="M110.48,121.37l-10.06-5.85a5.85,5.85,0,0,1,.56.28L111,121.64a5.77,5.77,0,0,0-.56-.27"></path><path class="cls-6" d="M111,121.64,101,115.8l.06,0,10.06,5.85-.06,0"></path></g><g class="cls-4"><path class="cls-6" d="M91.45,112.61l-10.06-5.85a14.81,14.81,0,0,1,1.59-.53l10,5.85a15.43,15.43,0,0,0-1.58.53"></path><path class="cls-6" d="M93,112.08l-10-5.85a13.55,13.55,0,0,1,1.38-.29l10.06,5.85a11.86,11.86,0,0,0-1.39.29"></path><path class="cls-6" d="M94.42,111.79l-10.06-5.85a11.6,11.6,0,0,1,1.17-.12l10,5.85c-.38,0-.77.06-1.16.12"></path><path class="cls-6" d="M95.58,111.67l-10-5.85c.35,0,.69,0,1,0l10.06,5.85a9,9,0,0,0-1,0"></path><path class="cls-6" d="M96.62,111.68l-10.06-5.85a9.3,9.3,0,0,1,.94.11l10.06,5.85a9.3,9.3,0,0,0-.94-.11"></path><path class="cls-6" d="M97.56,111.79,87.5,105.94c.3.06.59.12.87.2L98.43,112a7.88,7.88,0,0,0-.87-.2"></path><path class="cls-6" d="M98.43,112l-10.06-5.85c.28.09.55.18.82.29l10.06,5.85a8,8,0,0,0-.82-.29"></path><path class="cls-6" d="M99.25,112.28l-10.06-5.85a7.85,7.85,0,0,1,.77.38L100,112.66a6.11,6.11,0,0,0-.77-.38"></path><path class="cls-6" d="M100,112.66,90,106.81l.09,0,10.06,5.84-.09,0"></path></g><g class="cls-4"><path class="cls-6" d="M69.66,103.41,59.6,97.57A25.59,25.59,0,0,1,62.71,96l10.05,5.84a27.86,27.86,0,0,0-3.1,1.54"></path><path class="cls-6" d="M72.76,101.87,62.71,96a21.33,21.33,0,0,1,2.54-.88L75.31,101a20.25,20.25,0,0,0-2.55.87"></path><path class="cls-6" d="M75.31,101,65.25,95.15a16,16,0,0,1,1.94-.41l10.06,5.84a18.29,18.29,0,0,0-1.94.42"></path><path class="cls-6" d="M77.25,100.58,67.19,94.74a16,16,0,0,1,1.64-.17l10.06,5.85a15.94,15.94,0,0,0-1.64.16"></path><path class="cls-6" d="M78.89,100.42,68.83,94.57a14,14,0,0,1,1.45,0l10.06,5.84a14,14,0,0,0-1.45,0"></path><path class="cls-6" d="M80.34,100.43,70.28,94.59a11.34,11.34,0,0,1,1.32.15l10.06,5.85a11.33,11.33,0,0,0-1.32-.16"></path><path class="cls-6" d="M81.66,100.59,71.6,94.74a12.22,12.22,0,0,1,1.23.28l10.06,5.85a10,10,0,0,0-1.23-.28"></path><path class="cls-6" d="M82.89,100.87,72.83,95a12.3,12.3,0,0,1,1.16.41L84,101.28a9.24,9.24,0,0,0-1.15-.41"></path><path class="cls-6" d="M84,101.28,74,95.43c.37.16.74.34,1.1.54l10.06,5.85a11.37,11.37,0,0,0-1.11-.54"></path><path class="cls-6" d="M85.15,101.82,75.09,96l.12.07,10.06,5.84-.12-.06"></path></g><g class="cls-4"><path class="cls-6" d="M48.94,132.47l-10.06-5.84c.09-.35.18-.7.28-1l10.06,5.84c-.1.35-.19.69-.28,1"></path><path class="cls-6" d="M49.22,131.43l-10.06-5.84c.2-.75.43-1.5.68-2.25l10.06,5.85c-.25.75-.48,1.49-.68,2.24"></path><path class="cls-6" d="M49.9,129.19l-10.06-5.85q.34-1,.75-2.07l10,5.85c-.26.69-.51,1.38-.74,2.07"></path><path class="cls-6" d="M50.64,127.12l-10-5.85c.25-.65.52-1.31.8-2l10.06,5.84c-.28.66-.55,1.31-.81,2"></path><path class="cls-6" d="M51.45,125.15l-10.06-5.84c.28-.64.57-1.27.87-1.9l10.06,5.84c-.31.63-.6,1.27-.87,1.9"></path><path class="cls-6" d="M52.32,123.25l-10.06-5.84c.3-.63.62-1.25,1-1.87l10,5.85c-.32.61-.64,1.24-.94,1.86"></path><path class="cls-6" d="M53.26,121.39l-10-5.85c.33-.62.67-1.24,1-1.85l10.06,5.84c-.36.62-.7,1.23-1,1.86"></path><path class="cls-6" d="M54.3,119.53l-10.06-5.84c.36-.63.74-1.25,1.13-1.86l10.06,5.85c-.39.61-.77,1.23-1.13,1.85"></path><path class="cls-6" d="M55.43,117.68l-10.06-5.85c.41-.64.83-1.27,1.27-1.89l10.06,5.84c-.44.62-.86,1.26-1.27,1.9"></path><path class="cls-6" d="M56.7,115.78l-10.06-5.84c.47-.68,1-1.34,1.47-2l10,5.85c-.5.65-1,1.31-1.46,2"></path><path class="cls-6" d="M58.16,113.8l-10-5.85c.57-.73,1.15-1.45,1.76-2.15l10.06,5.85c-.61.69-1.19,1.41-1.77,2.15"></path><path class="cls-6" d="M59.93,111.65,49.87,105.8c.77-.88,1.57-1.74,2.39-2.55l10.06,5.85c-.82.81-1.62,1.66-2.39,2.55"></path><path class="cls-6" d="M62.32,109.1l-10.06-5.85a36.64,36.64,0,0,1,7.34-5.68l10.06,5.84a36.7,36.7,0,0,0-7.34,5.69"></path></g><polygon class="cls-1" points="21.24 169.71 11.18 163.87 12.71 162.98 22.77 168.83 21.24 169.71"></polygon><g class="cls-4"><path class="cls-1" d="M13.33,196.29,3.27,190.44c-2-1.17-3.26-3.66-3.27-7.2A18.44,18.44,0,0,1,.14,181l10.06,5.85a18.28,18.28,0,0,0-.14,2.19c0,3.55,1.26,6,3.27,7.21"></path><path class="cls-1" d="M10.2,186.89.14,181c.07-.51.16-1,.27-1.55l10.06,5.84q-.17.78-.27,1.56"></path><path class="cls-1" d="M10.47,185.33.41,179.49c.09-.43.2-.86.32-1.29L10.79,184c-.12.43-.23.86-.32,1.29"></path><path class="cls-1" d="M10.79,184,.73,178.2c.1-.38.22-.76.35-1.14l10.05,5.84c-.12.38-.24.76-.34,1.14"></path><path class="cls-1" d="M11.13,182.9l-10-5.84c.11-.36.24-.71.38-1.06l10.05,5.84c-.13.35-.26.71-.38,1.06"></path><path class="cls-1" d="M11.51,181.84,1.46,176c.12-.34.26-.68.41-1l10.06,5.85c-.15.33-.29.67-.42,1"></path><path class="cls-1" d="M11.93,180.84,1.87,175c.14-.33.29-.65.44-1l10.06,5.84c-.15.32-.3.65-.44,1"></path><path class="cls-1" d="M12.37,179.86,2.31,174c.16-.32.32-.64.49-1l10.06,5.85c-.17.31-.33.63-.49,1"></path><path class="cls-1" d="M12.86,178.91,2.8,173.06c.17-.32.34-.63.52-.94L13.38,178c-.18.31-.36.63-.52.95"></path><path class="cls-1" d="M13.38,178,3.32,172.12c.19-.32.38-.64.58-1L14,177l-.58,1"></path><path class="cls-1" d="M14,177,3.9,171.17c.21-.33.43-.65.65-1L14.61,176,14,177"></path><path class="cls-1" d="M14.61,176,4.55,170.2c.24-.35.49-.68.75-1L15.36,175c-.26.33-.51.67-.75,1"></path><path class="cls-1" d="M15.36,175,5.3,169.19c.29-.38.6-.75.91-1.11l10.06,5.84c-.31.36-.62.73-.91,1.11"></path><path class="cls-1" d="M16.27,173.92,6.21,168.08c.39-.46.8-.89,1.22-1.31l10.06,5.85c-.42.41-.83.85-1.22,1.3"></path><path class="cls-1" d="M17.49,172.62,7.43,166.77a19.37,19.37,0,0,1,3.75-2.9l10.06,5.84a19,19,0,0,0-3.75,2.91"></path></g><g class="cls-4"><path class="cls-1" d="M22.77,168.83l-10-5.85a20.45,20.45,0,0,1-.1-2.11,26,26,0,0,1,.23-3.6l10.06,5.85a26,26,0,0,0-.23,3.6c0,.73,0,1.44.09,2.11"></path><path class="cls-1" d="M22.91,163.12l-10.06-5.85c.11-.84.26-1.69.44-2.54l10.06,5.84c-.18.86-.33,1.71-.44,2.55"></path><path class="cls-1" d="M23.35,160.57l-10.06-5.84c.15-.71.32-1.41.52-2.11l10.06,5.84c-.2.71-.37,1.41-.52,2.11"></path><path class="cls-1" d="M23.87,158.46l-10.06-5.84c.17-.63.36-1.25.57-1.88l10.06,5.85c-.21.62-.4,1.25-.57,1.87"></path><path class="cls-1" d="M24.44,156.59l-10.06-5.85c.19-.58.4-1.15.62-1.73l10.06,5.85c-.22.57-.43,1.15-.62,1.73"></path><path class="cls-1" d="M25.06,154.86,15,149c.21-.55.44-1.1.68-1.65l10.05,5.85c-.23.54-.46,1.09-.67,1.65"></path><path class="cls-1" d="M25.73,153.21l-10-5.85c.23-.53.47-1.07.73-1.59l10.06,5.84c-.26.53-.5,1.06-.74,1.6"></path><path class="cls-1" d="M26.47,151.61l-10.06-5.84c.25-.53.51-1.05.79-1.57l10.06,5.85c-.28.51-.54,1-.79,1.56"></path><path class="cls-1" d="M27.26,150.05,17.2,144.2c.28-.52.56-1,.86-1.55l10.06,5.85c-.3.51-.59,1-.86,1.55"></path><path class="cls-1" d="M28.12,148.5l-10.06-5.85c.31-.52.62-1,1-1.55l10.06,5.84c-.33.52-.64,1-.95,1.56"></path><path class="cls-1" d="M29.07,146.94,19,141.1c.34-.54.7-1.07,1.06-1.59l10.06,5.85c-.36.52-.72,1-1.06,1.58"></path><path class="cls-1" d="M30.13,145.36l-10.06-5.85c.4-.56.81-1.12,1.23-1.66l10.06,5.85c-.42.54-.83,1.09-1.23,1.66"></path><path class="cls-1" d="M31.36,143.7,21.3,137.85c.48-.62,1-1.23,1.49-1.81l10.06,5.84c-.51.59-1,1.19-1.49,1.82"></path><path class="cls-1" d="M32.85,141.88,22.79,136c.65-.75,1.32-1.46,2-2.14l10.06,5.84c-.69.68-1.36,1.4-2,2.14"></path><path class="cls-1" d="M34.86,139.74,24.8,133.9a30.2,30.2,0,0,1,6.14-4.76,23.57,23.57,0,0,1,2.62-1.3l10,5.85A20.43,20.43,0,0,0,41,135a30.5,30.5,0,0,0-6.14,4.75"></path><path class="cls-1" d="M43.61,133.69l-10-5.85a17.92,17.92,0,0,1,2.13-.73L45.75,133a18.16,18.16,0,0,0-2.14.74"></path><path class="cls-1" d="M45.75,133l-10.06-5.84a14.5,14.5,0,0,1,1.61-.34l10.06,5.84c-.53.08-1.06.2-1.61.34"></path><path class="cls-1" d="M47.36,132.61,37.3,126.77a12.8,12.8,0,0,1,1.36-.14l10.06,5.85a12.75,12.75,0,0,0-1.36.13"></path><path class="cls-1" d="M48.72,132.48l-10.06-5.85h.22l10.06,5.84h-.22"></path></g><path class="cls-8" d="M69.66,103.41c11.09-6.4,20.28-2.23,21.79,9.2,5.28-2.09,10-.74,12.1,4.19a14.41,14.41,0,0,1,1,4.92c5.5-2.34,9.75.6,9.77,7.14,0,7.13-5,15.8-11.19,19.38L21.32,195.5c-6.2,3.58-11.24.71-11.26-6.42s5-15.79,11.18-19.37l1.53-.88c-.06-.67-.09-1.38-.09-2.11,0-11.67,8.17-25.87,18.32-31.73a17,17,0,0,1,7.94-2.52C51.86,120.84,60,109,69.66,103.41Z"></path></g><path class="cls-7" d="M71.25,119.88l13.22,12.89a.62.62,0,0,1-.12,1l-6.12,3.53a.58.58,0,0,0-.3.53l0,17.48L63.5,163.64l0-16.77a.62.62,0,0,0-.93-.53L58,149a.62.62,0,0,1-.87-.8l13.11-28.09A.62.62,0,0,1,71.25,119.88Z"></path></g></g></svg>