<svg xmlns="http://www.w3.org/2000/svg" xmlns:xlink="http://www.w3.org/1999/xlink" id="Capa_1" x="0px" y="0px" viewBox="0 0 31.7 31.7" style="enable-background:new 0 0 31.7 31.7;" xml:space="preserve">
<style type="text/css">
	.st0{fill:url(#SVGID_1_);}
</style>
<linearGradient id="SVGID_1_" gradientUnits="userSpaceOnUse" x1="2.3627" y1="13.2272" x2="28.0544" y2="18.2211">
	<stop offset="0.3084" style="stop-color:#F29100"></stop>
	<stop offset="0.5093" style="stop-color:#EE7A09"></stop>
	<stop offset="0.8247" style="stop-color:#EA5A16"></stop>
	<stop offset="1" style="stop-color:#E84E1B"></stop>
</linearGradient>
<path class="st0" d="M23.8,10.3c0,0.1,0,0.2-0.1,0.3c-4.2,3.8-7.4,9.1-8.4,11.6c0,0.1-0.1,0.1-0.2,0.2c0,0,0,0,0,0  c-0.1,0-0.1,0-0.2-0.1l-6.1-6.2c0-0.1,1.8-1.7,1.9-1.6l3.4,2.6c1.3-1.5,4.5-5,9-7.7C23.2,9.3,23.8,10.3,23.8,10.3z M27.6,4.3v15.8  c0,6.5-11.1,11.4-11.6,11.6c-0.1,0-0.1,0-0.2,0c-0.1,0-0.1,0-0.2,0c-0.5-0.2-11.6-5.1-11.6-11.6V4.3c0-0.3,0.2-0.5,0.5-0.5  c9.2,0,10.8-3.5,10.8-3.6C15.5,0.1,15.7,0,15.8,0c0,0,0,0,0,0c0.2,0,0.4,0.1,0.4,0.3c0,0,1.6,3.6,10.8,3.6  C27.4,3.8,27.6,4.1,27.6,4.3z M25,19.1l0-12.3c0-0.2-0.2-0.4-0.4-0.4c-7.3,0-8.5-2.8-8.5-2.8c-0.1-0.1-0.2-0.2-0.3-0.2c0,0,0,0,0,0  c-0.1,0-0.3,0.1-0.3,0.2c0,0-1.3,2.8-8.5,2.8c-0.2,0-0.4,0.2-0.4,0.4v12.3c0,5,8.7,8.9,9,9.1c0,0,0.1,0,0.1,0c0,0,0.1,0,0.1,0  C16.4,28.1,25,24.2,25,19.1z"></path>
</svg>