<svg xmlns="http://www.w3.org/2000/svg" xmlns:xlink="http://www.w3.org/1999/xlink" id="Capa_1" x="0px" y="0px" viewBox="0 0 240.1 43.2" style="enable-background:new 0 0 240.1 43.2;" xml:space="preserve">
<style type="text/css">
	.st0{fill:url(#SVGID_1_);}
	.st1{opacity:0.26;fill:#FFFFFF;enable-background:new    ;}
	.st2{fill:#1D1D1B;}
</style>
<title>Recurso 19</title>
<g id="Capa_2_1_">
	<g id="Capa_1-2">
		
			<linearGradient id="SVGID_1_" gradientUnits="userSpaceOnUse" x1="25.8208" y1="-14.6439" x2="98.2309" y2="57.7662" gradientTransform="matrix(1 0 0 -1 0 45.064)">
			<stop offset="0.31" style="stop-color:#F39200"></stop>
			<stop offset="0.51" style="stop-color:#EF7B09"></stop>
			<stop offset="0.82" style="stop-color:#EB5B16"></stop>
			<stop offset="1" style="stop-color:#E94F1B"></stop>
		</linearGradient>
		<path class="st0" d="M0,33.9l1.4-5.6h12.4c2.2,0.2,2.9-0.9,3.2-1.8v-0.2c0-0.5-0.2-1.1-0.5-1.5c-0.7-0.6-1.6-0.8-2.5-0.6h-3.6    c-2,0.1-3.9-0.7-5.3-2.2c-1.2-1.4-1.6-3.4-1.1-6c1.4-4.5,4.8-6.5,10.4-6.2h13L26,15.2H13.1c-1.1-0.2-2.1,0.4-2.4,1.5    c0,0.1,0,0.1,0,0.2c-0.1,0.8,0.3,1.6,1.1,1.9c0.7,0.3,1.5,0.3,2.3,0.3l3.2-0.1c2.8,0.1,4.7,0.9,5.6,2.3l0,0    c0.9,1.5,1.1,3.5,0.7,6.1c-1,4.6-4,6.8-9.5,6.6H0z M120.2,28l-1.4,5.9l-14.4-0.1c-1.8,0-3.6-0.5-5.1-1.5c-1.2-0.9-2.1-2.1-2.6-3.5    c-1.3-3.2-1-7,0.9-11.2c2.6-4.8,6.6-7.3,12.4-7.7h8.2c2.3,0.1,3.8,0.8,4.5,1.9c0.7,1.2,0.9,2.7,0.5,4l-2.2,8.7h-18.7l0.3,0.9    c0.6,1.6,2,2.4,4.1,2.5L120.2,28z M103.6,19h12.1l0.8-3.4h-6c-1.9,0-3.7,0.6-5.2,1.8l-0.5,0.5L103.6,19z M80.4,26.1    c-0.4,1.9,0,4,1.2,5.5c1.2,1.5,3,2.4,4.9,2.3h5.1l1.4-5.7h-3.6c-0.6,0-1.2-0.3-1.6-0.7c-0.4-0.5-0.5-1-0.4-1.6v-0.1l6.2-24.2h-6.9    L80.4,26.1z M80.7,9.9l-5.8,24l-13.4-0.1c-1.8,0-3.6-0.5-5.1-1.5c-1.2-0.9-2.1-2.1-2.6-3.5c-1.3-3.2-1-7,0.9-11.2    c2.6-4.9,6.6-7.4,12.4-7.7H80.7z M71.9,18.2l0.6-2.6h-4.7c-2-0.1-3.9,0.6-5.4,1.8c-1.3,1-2.2,2.4-2.6,3.9c-0.7,2.3-0.6,4,0.3,5.2    c0.9,1.1,2.4,1.7,3.8,1.5h5.8L71.9,18.2L71.9,18.2z M37.5,28c-1.4,0.1-2.8-0.5-3.8-1.5c-0.9-1.2-0.9-2.9-0.3-5.2    c0.4-1.6,1.4-2.9,2.6-3.9c1.5-1.2,3.3-1.8,5.2-1.8H53l1.3-5.6H40.7c-5.7,0.3-9.9,2.8-12.4,7.6c-1.9,4.2-2.2,7.9-0.9,11.2    c0.5,1.4,1.4,2.6,2.6,3.5c1.5,1,3.3,1.5,5.1,1.5l13.4,0.1L50,28H37.5z"></path>
		<path class="st1" d="M81.6,31.6c1.2,1.5,3,2.4,4.9,2.3h5.1l1.4-5.7h-3.6c-0.3,0-0.6-0.1-0.9-0.2h-8.2    C80.3,29.3,80.8,30.6,81.6,31.6z"></path>
		<path class="st1" d="M53.8,28.8c0.5,1.4,1.4,2.6,2.6,3.5c1.5,1,3.3,1.5,5.1,1.5l13.4,0.1l1.4-5.9H53.5    C53.6,28.2,53.6,28.5,53.8,28.8z"></path>
		<path class="st1" d="M96.4,28c0.1,0.3,0.2,0.5,0.3,0.8c0.5,1.4,1.4,2.6,2.6,3.5c1.5,1,3.3,1.5,5.1,1.5l14.4,0.1l1.4-5.9H96.4z"></path>
		<path class="st1" d="M23.4,28h-7.5c-0.6,0.3-1.4,0.4-2.1,0.3H1.4L0,33.9h14.1C19.2,34.1,22.3,32.1,23.4,28z"></path>
		<path class="st1" d="M27.5,28.8c0.5,1.4,1.4,2.6,2.5,3.5c1.5,1,3.3,1.5,5.1,1.5l13.4,0.1L50,28H27.2    C27.3,28.2,27.3,28.5,27.5,28.8z"></path>
		<path class="st2" d="M239.3,15c-0.5-1.4-1.4-2.6-2.6-3.5c-1.5-1-3.3-1.5-5.1-1.5l-13.4-0.1l-8.1,33.3h6.6l2.4-9.4h6.9    c5.8-0.4,9.8-2.9,12.4-7.7C240.4,22,240.6,18.2,239.3,15z M233.3,22.5c-0.4,1.5-1.4,2.9-2.6,3.9c-1.5,1.2-3.3,1.8-5.2,1.8h-4.9    l0.1-0.8l2.9-11.6h5.7c1.4-0.1,2.8,0.5,3.8,1.5C233.9,18.5,234,20.2,233.3,22.5L233.3,22.5z"></path>
		<path class="st2" d="M180,9.9l-4.3,18.3h-4c-0.6,0-1.2-0.3-1.6-0.8c-0.4-0.5-0.5-1-0.4-1.6l3.9-16h-6.8l-4,16.2    c-0.1,0.5-0.2,1-0.2,1.5v0.6h-4.2c-0.6,0-1.2-0.3-1.6-0.8c-0.3-0.5-0.5-1-0.4-1.6v-0.1l3.9-15.9h-6.8l-4,16.2    c-0.5,1.9-0.1,4,1.2,5.5c1.1,1.5,2.9,2.4,4.8,2.3h2.8h9.8h0.6h12.5l5.8-24L180,9.9z"></path>
		<path class="st2" d="M201.1,9.9c-5.8,0.4-9.9,2.9-12.4,7.7c-1.9,4.2-2.2,7.9-0.9,11.2c0.5,1.4,1.4,2.6,2.6,3.5    c1.5,1,3.3,1.5,5.1,1.5l13.4,0.1l5.8-24L201.1,9.9z M205.9,18.2l-2.3,9.8h-5.8c-1.4,0.1-2.8-0.5-3.8-1.5c-0.9-1.2-0.9-2.9-0.3-5.2    c0.4-1.6,1.4-2.9,2.6-3.9c1.5-1.2,3.4-1.9,5.4-1.8h4.7L205.9,18.2L205.9,18.2z"></path>
		<path class="st2" d="M145.9,27.3c0.4-2.5,0.2-4.6-0.7-6.1s-2.7-2.2-5.6-2.3l-3.2,0.1c-0.8,0.1-1.6,0-2.3-0.3    c-0.7-0.3-1.2-1.1-1-1.9c0.1-1.1,1.2-1.9,2.3-1.7c0.1,0,0.1,0,0.2,0h12.9l1.3-5.3h-13c-5.6-0.3-9,1.7-10.4,6.2    c-0.5,2.5-0.1,4.5,1.1,6c1.3,1.5,3.3,2.3,5.3,2.2h3.6c0.9-0.1,1.8,0.1,2.5,0.6c0.4,0.4,0.6,0.9,0.5,1.5v0.2    c-0.3,0.9-1,1.9-3.2,1.8h-12.4l-1.4,5.6h14.1C141.8,34.1,144.9,31.9,145.9,27.3z"></path>
	</g>
</g>
</svg>