<svg xmlns="http://www.w3.org/2000/svg" xmlns:xlink="http://www.w3.org/1999/xlink" width="134.876" height="128.244" viewBox="0 0 134.876 128.244"><defs><linearGradient id="a" y1="0.5" x2="1" y2="0.5" gradientUnits="objectBoundingBox"><stop offset="0" stop-color="#fce98b"/><stop offset="0.587" stop-color="#fed942"/><stop offset="1" stop-color="#f6af1a"/></linearGradient></defs><g transform="translate(-9.278 48.461) rotate(-25)"><path d="M0,.51a27.56,27.56,0,0,0,6.976,6.38,23.857,23.857,0,0,0,9.359,3.063l4.228,7.475a.573.573,0,0,0,1.032-.493L20.078,13.1l4.992,4.132a.572.572,0,0,0,.787-.826l-4.5-4.922,3.716.509a.485.485,0,0,0,.215-.941l-4.622-1.5a4.754,4.754,0,0,1-2.079-1.583l-.811-1.8a.639.639,0,0,0-1.217.195l-.037,2.006a30.1,30.1,0,0,1-6.461-2.381C7.505,4.546,2.553,0,2.553,0Z" transform="translate(59.381 94.434)" fill="#8f1a1f"/><path d="M0,.786S4.653,6.737,9.077,9.077,20.331,11.8,20.331,11.8l4.73,7.168a.573.573,0,0,0,1-.562l-1.775-3.722,5.264,3.78a.572.572,0,0,0,.728-.878l-4.83-4.6,3.743.254a.485.485,0,0,0,.151-.954l-4.715-1.178a4.76,4.76,0,0,1-2.183-1.437l-.933-1.738a.638.638,0,0,0-1.2.278l.1,2a51.694,51.694,0,0,1-9.254-3.2C6.861,4.931,2.645,0,2.645,0Z" transform="translate(75.812 92.343)" fill="#8f1a1f"/><path d="M24.357,9.832C19.174,3.808,6.55-3.711.73,2.078-.926,3.723.51,6.048,2.314,6.611,5.728,7.69,8.991,7.333,12.1,9.448a46.228,46.228,0,0,1,6.335,5.66c3.33,3.3,8.136,8.849,7.779,13.874-.4,5.628-5.448,7.026-10.054,5.72-4.175-1.174-8.275-4.237-11.408-7.154C3.01,25.924.322,28.374,1.674,30.3c3.685,5.255,9.31,8.007,15.662,9.277,7.036,1.407,13.926-1.415,15.586-8.14C34.794,23.847,29.072,15.306,24.357,9.832Z" transform="translate(6.721 25.048)" fill="#e59d33" style="mix-blend-mode:multiply;isolation:isolate"/><path d="M35.037,20.991C32.3,15.19,24.711,8.449,20.128,5.223,16.622,2.767,8.61-.335,6.467.029,1.984.8,5.774,11.069,8.533,13.207,5.391,11.2.419,7.722.964,13.979c.451,5.145,4.276,8.129,7.584,11.442C5.256,23.7.329,20.472.006,23.622c-.217,3.746,5.161,9.187,8,11.193C12.894,38.27,26.28,43.085,33.3,38.87,40.457,34.562,37.183,25.539,35.037,20.991Z" transform="translate(0 21.954)" fill="url(#a)"/><path d="M12.6,14.916C8.983,20.486-.457,32.01.017,51.242S10.252,96.137,50.31,95.16c33.874-.826,45.847-35.48,47.246-38.779s1.97-7.022,1.7-7.65c-.149-.343-2.515,3.424-2.713,3.05-.267-.5,1.464-2.907,1.119-3.462-.39-.627-1.939,2.307-2.41,1.627-3.258-4.713-9.122-12.259-12.361-17.195C77.9,25.154,71.8,6.3,48.813,1.1,26.776-3.882,16.219,9.344,12.6,14.916Z" transform="translate(15.349 0)" fill="url(#a)"/><path d="M9.917,10.919c5.756-6.69,19.776-15.039,26.239-8.611C38,4.135,36.4,6.717,34.4,7.342c-3.792,1.2-7.415.8-10.87,3.15a51.311,51.311,0,0,0-7.035,6.286c-3.7,3.67-9.035,9.827-8.639,15.408.439,6.249,6.051,7.8,11.165,6.352,4.637-1.3,9.19-4.7,12.669-7.945,1.937-1.8,4.921.916,3.421,3.052-4.093,5.836-10.34,8.892-17.393,10.3C9.9,45.511,2.249,42.376.4,34.91-1.674,26.484,4.68,17,9.917,10.919Z" transform="translate(70.173 19.23)" fill="#e59d33" style="mix-blend-mode:multiply;isolation:isolate"/><path d="M4.869,43.166c7.79,4.682,22.656-.666,28.083-4.5,3.155-2.228,9.127-8.271,8.886-12.431-.359-3.5-5.83.085-9.486,2,3.673-3.679,7.921-6.993,8.422-12.707.6-6.948-4.917-3.091-8.405-.857C35.432,12.293,39.64.884,34.663.033c-2.38-.4-11.278,3.04-15.171,5.768C14.4,9.383,5.97,16.87,2.934,23.312.551,28.362-3.085,38.383,4.869,43.166Z" transform="translate(72.759 15.793)" fill="#f6bd2a"/><path d="M5.587,10.418a6.585,6.585,0,0,0,2.29-4.654C7.987,3.618,7,1.789,5.47,0A29.625,29.625,0,0,1,1.6,3.757c-2.07,1.886-2.18,1.861-.07,3.613Q3.489,8.988,5.587,10.418Z" transform="translate(33.45 23.244)" fill="#e39125"/><path d="M.065,1.714a2.223,2.223,0,0,1,.443-1A2.72,2.72,0,0,1,.692.51a1.413,1.413,0,0,1,.95-.5,1.221,1.221,0,0,1,.737.166,1.772,1.772,0,0,1,.581.3,3.142,3.142,0,0,1,.537.56A2.609,2.609,0,0,1,3.98,3.006,1.958,1.958,0,0,1,2.213,4.62,2.009,2.009,0,0,1,.207,3.346,2.676,2.676,0,0,1,.065,1.714Z" transform="translate(47.982 19.009)" fill="#4d3435"/><path d="M.017,2.338A4.044,4.044,0,0,1,.01,1.7,1.6,1.6,0,0,1,1.024.1a1.58,1.58,0,0,1,2,.923c.052.127.1.25.154.38a3.072,3.072,0,0,1,.162.6.485.485,0,0,1,.017.073,1.106,1.106,0,0,0,.031.132l-.021-.083a1.546,1.546,0,0,1,.015.717,1.653,1.653,0,0,1-1.038,1.25,1.609,1.609,0,0,1-1.6-.274,1.826,1.826,0,0,1-.571-.819A4.3,4.3,0,0,1,.017,2.338Z" transform="translate(32.766 17.137)" fill="#4d3435"/><path d="M1.647,31.6s-4.137-7.919.7-18.222S14.162-.759,21.245.122c6.648.828,17.012,2.3,22.788,18.693S60.185,36.027,63,36.485s8.813,1.378,12.056,5.6,2.072,5.9,2.072,5.9S59.456,62.676,35.994,57.544,3.483,39.5,1.647,31.6Z" transform="translate(15.99 36.792)" fill="#e59d33" opacity="0.3" style="mix-blend-mode:multiply;isolation:isolate"/></g></svg>