<svg xmlns="http://www.w3.org/2000/svg" width="1567.971" height="882.651" viewBox="0 0 1567.971 882.651"><g transform="translate(-150.245 -19.289)"><g transform="translate(188.798 247.548) rotate(-9)"><path d="M1313.005,1199.123c12.523-5.585,1.284-26.119-10.278-22.675,0,0,3.507-8.945-2.634-16.468s-18.027-4.99-22.371-8.1-5.781-11.245-13.792-11.942-21.2,7.147-24.675,2.853-9.912-16.014-17.341-14.468-15.553,1.3-19.645-1.539-2.523-22.727-22.233-26.015-26.181,2.18-31.3-4.2,3.706-16.71-4.759-18.756-4.451-13.269-11.376-11.432-1.794-14.8-13.438-17.393-18.965,1.811-18.965,1.811,32.711-40.28-11.814-60.245-52.513,19.128-56.791,20.458c0,0-6.951-19.495-22.985-12.037s-10.726,23.576-10.726,23.576-4.775-14.063-19.063-14.1-8.216,12.242-13.605,12.419-8.657-15.991-17.815-14.406-16.432,3.4-21.073-5.814S920.173,979.277,908,981.6s-18.962,3.405-28.819-4.066-10.732-14.851-20.017-12.877-13.491-3.647-13.491-3.647S849.5,914.8,811.249,909.4s-50.614,15.207-60.814,4.9-2.016-23.752-24.707-26.331,34.162-47.006-21.164-64.206c0,0,40.509-40.4-2.082-68.837s-71.1-4.206-71.1-4.206-15-25.838-32.449-14.53c0,0,3.167-28.822-19.485-44.816s-43.149-7.494-43.149-7.494,13.06-20.262-17.671-31.3-38.09,8.183-38.09,8.183-33.734-35.986-48.99-6.811-28.747-1.546-43.731,4.582S370.9,688.6,370.9,688.6s-3.49-13.657-20.4-13.478S327.808,691.6,327.808,691.6s-21.459-23.828-43.437-14.955-23.047,29.636-23.047,29.636,1.141-4.174-16.766-9.8-14.3,14.975-14.3,14.975.748-19.821-31.629-26.841-35.358,17.71-56.725,11.39-25.325-31.469-51.356-35.309-32.587,10.033-32.587,10.033-13.795-21.2-30.381-3.807c0,0-8.876-23.831-35.371-14.057s-19.978,31.623-19.978,31.623S-43.876,666.2-57.38,680.676s-2.863,30.881-2.863,30.881-15.592-20.763-24.72-9.066-27.959-3.258-29.194,5.17-24.4.409-26.41,12.723,41.793,20.207,38.888,29.982,22.129,21.066,22.129,21.066-2.35,16.909,19.07,23.259,29.3-7.566,29.3-7.566-4.046,30.685,44.97,40.378,48.519-28.832,48.519-28.832,2.373,32.923,32.2,34.4,38.865-9.955,38.865-9.955-12.236,47.934,56.4,74.674,94.845,15.743,94.845,15.743-1.268,28.858,39.349,40.734,62.049.085,62.049.085,15.563,40.5,50.117,46.058,48.212-11.2,48.212-11.2,15.851,35.018,48.365,17.547c0,0-1.359,17.409,33.94,18.968s13.357,2.454,41.028,13.961,50.82,3.654,50.82,3.654,8.34,32.031,50.663,34.459,34.338-31.793,34.338-31.793,15.746,21.357,35.577,4.664c0,0-4.765,31.842,33.338,38.924s46.98-8.523,46.98-8.523-4.611,36.348,38.512,31.819c0,0-11.364,18.913,21.8,25.472,0,0,14.337,22.9,41.4,16.148s20.354-27.482,20.354-27.482,7.491,17.913,21.962,5.265c0,0-8.187,29.289,23.5,29.946s39.358-14.354,49.679-2.36,37.156,13.1,37.156,13.1-5.683,15.537,23.335,24.439,51.921-3.147,51.921-3.147,5.618,17.138,27.266,9.7,25.083-13.114,25.083-13.114,3.631,17.145,31.015,15.729,26.4-10.543,26.4-10.543S1302.485,1203.812,1313.005,1199.123Z" transform="translate(140.635 -642.547)" fill="#fff"/><g transform="translate(0 56.376)"><path d="M-19.193,678.71s-.154-1.219-.193-1.85Z" transform="translate(415.645 -621.096)" fill="#ededed"/><path d="M213.741,785.985l.046-.085Z" transform="translate(944.412 -373.777)" fill="#ededed"/><path d="M122.559,752.387s.065-.383.111-.585Z" transform="translate(737.597 -451.116)" fill="#ededed"/><path d="M-53.114,670.185a29.118,29.118,0,0,1-8.193-8.582A111.192,111.192,0,0,1-53.114,670.185Z" transform="translate(320.562 -655.701)" fill="#ededed"/><path d="M-140.567,681.258c2.013-12.314,25.171-4.294,26.41-12.723s20.066,6.53,29.194-5.17c4.2-5.386,9.762-3.879,14.55-.7-15.02-3.935-6.3,10.948-6.3,10.948s-18.308-5.569-11.376,15.214,21.478,13.386,21.478,13.386c6.461,25.7,33.453,21.661,33.453,21.661,20.191,20.6,33.3,1.111,33.3,1.111,19.782,1.882,16.125-18.115,16.125-18.115,15.664,6.811,16.449-2.059,16.449-2.059-18.8-5.5-18.145-25.05-18.145-25.05,6.54,23.1,33.9,20.213,33.9,20.213-.392,15.129,13.363,14.9,13.363,14.9s-24.854,11.435,3.036,20.236,18.063-28.972,18.063-28.972,8.056,14.4,18.949,13.491,10.344-12.727,10.344-12.727,8.043,5.808,22.07-4.183c8.942-6.366.072-19.638-7.487-28.443,13.857,9.729,34.208,8.491,34.208,8.491-1.373,19.5,14.393,19.9,14.393,19.9-11.736,9.161,3.811,26.443,3.811,26.443s-24.707,7.543-13.955,33.77S195,785.2,195,785.2s-13.684,9.1,7.67,29.7,43.094,6.713,43.094,6.713c-6.249,18.691,24.586,33.061,34.381,30.188s5.938-10.37,4.824-21.638,14.318-11.376,14.318-11.376C305.065,807.154,287,798.415,287,798.415c5.219-41.372-43.538-41.728-43.538-41.728,14.707-3.608,12.354-39.276,12.354-39.276l43.76,36.449c6.795,30.943,47.133,24.606,47.133,24.606-20.135,12.831,2.487,38.169,2.487,38.169-28.992,53.382,34.018,62.353,34.018,62.353-5.216,33.423,38.136,43.087,38.136,43.087,22.214,21.674,39.469,5.023,39.469,5.023-10.085-9.5,3.464-19.648,3.464-19.648-16.56-13.566-7.491-36.639-7.491-36.639,1.847,25.119,34.757,32.463,34.757,32.463C480.476,937.531,512.4,930.7,512.4,930.7c17.321,23.773,25.936,6.455,25.936,6.455,32.515,10.406,33.881-12.945,33.881-12.945,23.531,9.631,32.472-7.605,32.472-7.605-8.67,39.777,35.005,27.962,35.005,27.962s-30.322,22.919,23.057,33.358c48.777,9.536,56.768-16.854,56.768-16.854l17.609,11.157c16.811-18.387-25.142-31.309-25.142-31.309,37.1,12.729,63.664-27.515,63.664-27.515-10.605,32.041,9.52,35.172,9.52,35.172-18.583,26.724,9.317,30.368,9.317,30.368,8.981,29.662,37.394,20.36,37.394,20.36s14.864,13.086,28.152,1.088-3.226-25.5-3.226-25.5c17.246,14.909,45.868,2.5,45.868,2.5-14.968,12.742-.225,22.72-.225,22.72s-19.155,15.671-6.667,22.671,18.073.356,18.073.356,11.122,11.844,29.943,5.3,5.428-18.929,5.428-18.929c25.642,22.135,49.336,13.226,49.336,13.226s-18.776,6.663-15.723,23.776,18.106,8.853,18.106,8.853-20.393,12.1-6.67,23.848c13.207,11.308,23.24-7.213,23.24-7.213s-9.945,20.674,21.145,29.168c32.263,8.811,37.587-15.465,37.587-15.465-6.1-7.1-9.141-10.645-15.207-17.753,18.269,19.713,50.764,6.847,50.764,6.847-5,21.37,16.484,22.55,16.484,22.55-2.539,19.073,18.445,20.06,18.445,20.06s-20.109,21.266,2.964,23.847,22.393-11.49,22.393-11.49,18.586,13.01,34.169,11.393,16.9-9.441,16.9-9.441a24.136,24.136,0,0,0,15.929,11.667c11.5,2.578,15.71-2.265,15.71-2.265s-4.706,9.37,15.919,14.461,21.073-12.121,21.073-12.121,12.412,14.187,18.439,9.141c2.709-2.271,3.932-6.6,4.464-10.677,4.723,5.693,5.945,14.661-1.7,18.07-10.517,4.69-14.236-3.075-14.236-3.075s.98,9.128-26.4,10.543-31.018-15.729-31.018-15.729-3.435,5.677-25.08,13.115-27.266-9.7-27.266-9.7-22.9,12.05-51.921,3.147-23.335-24.439-23.335-24.439-26.831-1.1-37.156-13.1-17.994,3.017-49.679,2.36-23.5-29.946-23.5-29.946c-14.471,12.648-21.962-5.265-21.962-5.265s6.713,20.733-20.354,27.482-41.4-16.148-41.4-16.148c-33.159-6.556-21.8-25.472-21.8-25.472-43.123,4.53-38.512-31.818-38.512-31.818s-8.876,15.605-46.98,8.523-33.338-38.924-33.338-38.924c-19.831,16.694-35.577-4.663-35.577-4.663s7.984,34.221-34.338,31.793-50.663-34.46-50.663-34.46-23.148,7.857-50.82-3.654-5.729-12.4-41.028-13.962-33.94-18.968-33.94-18.968c-32.515,17.471-48.365-17.547-48.365-17.547s-13.661,16.753-48.212,11.2-50.117-46.058-50.117-46.058-21.433,11.791-62.049-.085-39.349-40.734-39.349-40.734-26.217,11-94.845-15.743-56.4-74.674-56.4-74.674-9.033,11.432-38.865,9.955-32.2-34.4-32.2-34.4.5,38.528-48.519,28.832S-31.182,748-31.182,748s-7.88,13.916-29.3,7.566-19.07-23.259-19.07-23.259-25.034-11.291-22.129-21.066S-142.58,693.576-140.567,681.258Z" transform="translate(140.635 -659.797)" fill="#ededed"/></g><path d="M65.879,834.246s22.7-41.865,73.635-20.285c0,0,11.35-12.073,24.217-4.7,0,0-16.73-22.076,8.347-24.955,0,0,6.517-27.021,38.767-5.615,0,0-6.9-15.573-36.476-20.524,0,0-14.207-26.806,8.255-32.09,0,0-7.236-26.09,13.236-28.083-10.706-3.5-16.053-5.268-26.737-8.817,0,0-6.154,21.737-22.835,12.184,0,0-2.213,25.465-27.537,17.684,0,0-.062,11.9-16.105,9.611,0,0,25.675,16.4,15.105,33.175,0,0-6.641,7.582-14.419-4.87,0,0,8.416,10.7-8,16.145,0,0-7.664,19.576-25.743-4.919,0,0,7.893,9.857-2.683,26.1A65.368,65.368,0,0,1,65.879,834.246Z" transform="translate(609.039 -536.792)" fill="#ededed"/><g transform="translate(485.201 15.158)"><path d="M39.137,715.344c-1.461,2.052-2.5,3.226-2.5,3.226C37.474,717.439,38.307,716.373,39.137,715.344Z" transform="translate(57.505 -492.591)" fill="#ededed"/><path d="M54.552,711.066a38.724,38.724,0,0,1-5.265-1.637A20.244,20.244,0,0,1,54.552,711.066Z" transform="translate(86.204 -506.007)" fill="#ededed"/><path d="M7.829,741.363s40.309-6.252,33.3-34.767c0,0,13.478-15.07-6.968-28.515,0,0,1.931-23.939,16.916-30.064,4.206-1.722,8.278-.536,12.311,1.409-.016,0-17.517-2.065-15.4,15.6,0,0,18.119,6.844,15.579,17.926,0,0,19.883-2.17,26.495,12.3,0,0-17.338,14.465,10.223,28.593,0,0-22.491-8.311-27.7,12.19S93.9,754.308,93.9,754.308s-5.977,16.239,11.886,17.942,33.812-6.958,33.812-6.958.474,12.047,12.465,14.377c0,0-16.955,13.589,2.69,26.126,0,0-15.922,3.928-6.847,19.1,0,0-16.851-9.23-19.37,6.65-1.726,10.864,8.281,16.557,14.788,19.06-7.641-1.418-22.622-.712-38.849,19.331,6.288-8.821,20.259-33.884-6.6-51.937,0,0,8-35.159-33.58-55.4C64.29,762.605,60.515,736.529,7.829,741.363Z" transform="translate(-7.829 -647.185)" fill="#ededed"/></g><path d="M53.87,725.983s16.994,8.412,15.811-17.507c0,0,26.4-12.978,14.89-33.777,0,0,26.472,13.269,30.531-7.589,0,0-8.778,18.439,5.566,27.384,0,0-17.321-.438-5.892,17.04,0,0-19.047-13.8-17.864,3.33-2.242-6.344-3.36-9.514-5.589-15.857,0,0-4.814,8.755-13.39,13.177C77.933,712.184,76.656,742.856,53.87,725.983Z" transform="translate(581.8 -586.834)" fill="#ededed"/></g><g transform="translate(150.245 375.067)"><path d="M-85.744,772.376s-16.8-12.288-4.281-24.142,25.812,10.919,25.812,10.919,1.677-7.856,14.6-5.873S-34.5,765.3-34.5,765.3s2.536-26.3,27.423-24.57,27.678,21.6,27.678,21.6.51-15.122,20.106-9.468c0,0,3.213-17.416,22.678-7.33s9.327,23.024,9.327,23.024,6.608-.2,12.324,6.036-1.592,15.236-1.592,15.236,12.233-19.455,40.113-8.017,15.194,22.285,15.194,22.285,21.485-9.226,22.694,17.184c0,0,4.99-13.847,27.158-7.157s16.105,23.511,16.105,23.511,5.863-2.866,10.582,6.2.562,14.828.562,14.828,8.157-5.4,13.118,7.664c0,0,12.824-7.062,20.236,7.429,0,0,19.38,8.173,9.128,16.226,0,0,18.093-.742,16.011,10.834S252,901.7,252,901.7s.958,14.387-13.8,7.88-14.2-17-14.2-17-4.471,26.511-34.129,18.279-24.809-26.191-24.809-26.191-16.5,33.355-58.078,20.161S69.647,858.6,69.647,858.6s-12.262,10.5-29.583-2.644-11.605-25.08-11.605-25.08-8.782,7.867-29.812-.68-13.991-23.357-13.991-23.357-15.661,12.393-29.243-.657S-54.83,784.227-54.83,784.227s-7.187,6.719-18.671,1.32S-85.744,772.376-85.744,772.376Z" transform="translate(94.667 -740.646)" fill="#fff"/><path d="M228.451,871.539c-14.7-9.526-13.821,3.033-13.821,3.033-34.642,9.073-51.715-9.824-51.715-9.824-19.942,14.1-26.93-5.687-26.93-5.687s-6.589,23.129-35.606,15.253-19.923-32.74-19.923-32.74C43.5,837.87,37.44,812.562,37.44,812.562c-32.387-1.245-28.214-17.72-28.214-17.72-19.41-3.141-21.315-16.952-21.315-16.952-13.076,5.4-22.54-5.807-22.54-5.807s-1.556,6.843-8.762,6.909-7.053-10.086-7.053-10.086c-21.076,5.507-26.452-8.373-26.452-8.373-11.223-2.575-15.36-9.462-16.53-16.21-5.2,10.295,7.687,19.714,7.687,19.714s.755,7.771,12.242,13.171,18.671-1.32,18.671-1.32-3.343,8.909,10.242,21.955,29.243.657,29.243.657-7.043,14.811,13.991,23.357,29.812.68,29.812.68-5.716,11.935,11.605,25.08,29.583,2.644,29.583,2.644S65.426,883.294,107,896.488s58.078-20.161,58.078-20.161-4.853,17.958,24.809,26.191,34.129-18.279,34.129-18.279-.556,10.488,14.2,17,13.8-7.88,13.8-7.88,20.262,10.69,22.344-.886-16.011-10.834-16.011-10.834c10.252-8.053-9.128-16.226-9.128-16.226-7.409-14.491-20.236-7.429-20.236-7.429C218.391,859.26,228.451,871.539,228.451,871.539Z" transform="translate(94.662 -732.306)" fill="#ededed"/><path d="M-13.666,814.426s9.112-16.939-13.589-25.818c0,0-1.683-14.828-13.419-17.426,0,0,19.24,3.5,25.305-6.948,0,0,13.618,3.958,19.4-3.239,0,0-7.808,13.85,4.438,16.89,0,0,3.8,15.971,17.177,6.611,0,0,8.216,18.282,20.563,17.586,0,0,11.608,11.785,23.423,8.834,0,0-15.105,7.572-24.828-.049,0,0-19.387-3-24.413-13.439,0,0-6.651,2.353-6.755,13.086C13.633,810.514-3.08,802.635-13.666,814.426Z" transform="translate(217.116 -694.492)" fill="#ededed"/></g><g transform="translate(661.624 618.663) rotate(-9)"><path d="M766.4,1042.93s-1.065-14.416-27.815-10.213c0,0,1.059-14.6-20.988-16.076,0,0,3.131-14.719-25.4-28.809s-50.705-.957-50.705-.957,9.468-18.494-17.851-39.4-76.377-26.358-76.377-26.358,8.52-11.216-13.481-18.8-23.56,10.37-23.56,10.37a20.328,20.328,0,0,0-10.9-20.279s23.645-24.014-58.48-48.568-80.524,13.21-80.524,13.21-1.382-7.984-13.066-9.576c0,0,7.915-23.531-30.577-38.574s-64.425,3.768-56.908,20.141c0,0-1.6-27.2-48.2-33.848s-28.243,32.734-28.243,32.734-13.514-19.142-27.864-16.436-7.062,19.093-7.062,19.093-36.665-47.342-87.805-37.8,2.686,60.758,5.18,67.37c4.392,11.657,19.766,84.622,64.582,94.047,0,0-3.258,14.22,23.374,24.541s27.207-5.471,27.207-5.471-29.031,30.015,20.449,50.31,76.563.4,76.563.4,8.278,21.27,41.081,20.374,36.306-14.321,36.306-14.321,52.343,46.506,72.426,14.037c0,0,62.641,5.66,67.242,4.167,8.824-2.869,84.949,42.9,120.121,20.014,41.921-27.282,20.446-47.614,20.446-47.614s35.613,25.57,53.189,14.455c0,0-1.2,11.242,17.109,11.794s19.1-9.438,19.1-9.438S755.284,1057.134,766.4,1042.93Z" transform="translate(-26.512 -791.518)" fill="#fff"/><g transform="translate(0 1.265)"><path d="M82.356,813.187c1.856.144,3.02.284,3.02.284C84.336,813.4,83.336,813.3,82.356,813.187Z" transform="translate(72.683 -743.634)" fill="#ededed"/><path d="M774.8,1042.052c-11.115,14.2-41.437-5.477-41.437-5.477s-.784,9.987-19.1,9.435-17.109-11.791-17.109-11.791c-16.955,10.723-53.049-14.357-53.049-14.357s19.446,21.462-20.586,47.516c-35.172,22.887-85.181,2.683-120.121-20.014-12.481,32.548-67.242-4.167-67.242-4.167-20.083,32.469-72.425-14.037-72.425-14.037s-3.5,13.429-36.306,14.321-41.081-20.373-41.081-20.373-27.083,19.893-76.563-.4c-34-13.945-30.864-32.525-25.645-42.731-3.83,1.918-10.484,2.356-22.011-2.108-26.632-10.321-23.374-24.541-23.374-24.541-44.816-9.425-91.936-46.555-64.582-94.047-46.038-15.625-56.32-57.827-5.18-67.37l.029-.007c-15.828,11.89-25.057,29.865,22.5,47.163,0,0-14.922,11.487,1.265,24.223,0,0,20.338,1.837,21.285-14.547,0,0,35.394,14.007,47.248-.373,0,0,7.961,10.736,28.632,13.086-9.429-.722-37.123-1.569-24.992,15.975,0,0-28.629-4.245-17.524,15.354,0,0,8.768,8.265,19.848,6.752,0,0-16.053,14.811,13.88,26.6,0,0-15.9,15.8,20.079,25.08s7.121-19.527,7.121-19.527,19.936,17.086,42.708,12.233c0,0-18.269,36.169,26.227,48.565,0,0,7.353,12.929,28.515,9.049,0,0-8.291,11.994,24.8,19.848,0,0,17.187-7.752,11.278-17.4,0,0,15.775,15.386,34.087,6.111s-21.923-22.364-33.871-18.22c0,0-14.844-14.135-36.368-16.546,0,0,48.222,1.072,41.6-14.021,0,0,18.279-11.445-7.795-19.249,0,0,6.549-11.547-13.275-22.122,0,0,49.552-4.517,19.246-40.976,0,0,37.1,9.1,54.728-9.066,0,0-21.308,21.2-4.86,34.018,20.854,7.389,31.3,11.043,52.248,18.279,0,0-53.4-7.295-35.469,24.979a23.493,23.493,0,0,0-26.488,1.288s-7.085,25.135,33.26,21.55c0,0,15.788,28.953,34.28,7.523,0,0,39.107,36.443,76.38,4.628,0,0-27.06,28.773,15.161,45.653s36.149-9.893,36.149-9.893,38.728,13.877,38.711-11.935c0,0,22.864,10.373,36.946-2.262,0,0,1.062,12.932,20.818,21.73s24.2-7.52,24.2-7.52,19.978,18.227,45.4,13.909C773.35,1027.359,774.8,1042.052,774.8,1042.052Z" transform="translate(-34.917 -791.905)" fill="#ededed"/></g><path d="M197.1,881.007s15.638-12.932,6.857-22.246c0,0,13.161-5,7.5-16.034,0,0,23.354,8.1,27.423-1.124,0,0-.023,8.611,11.2,14.21,0,0-15.047-1.48-14.713,10.232,0,0-13.481-6.677-18.3.621C217.065,866.666,212.228,878.278,197.1,881.007Z" transform="translate(332.939 -677.917)" fill="#ededed"/><path d="M166.485,905.138s-28.619-19.246-15.936-36.731c0,0-15.592-18.714-3.745-22.753,0,0-12-21.305,11.481-21.612,0,0-16.792,3.343-33.812-10.962,0,0,.072,15.808-25.351,6.1,0,0,5.726,10.2-5.765,16.027,0,0,32.453,10.115,31.851,25.031,0,0,18.834,8.1,15.514,17.5C140.722,877.734,140.131,894.186,166.485,905.138Z" transform="translate(97.634 -742.61)" fill="#ededed"/></g><path d="M185.226,715.037c-8.929,4.546,18.975,6.69,24.433,9.33S225.6,737.244,241.2,739.659c0,0,10.115,17.181,32.462,13.04,0,0,9.174,15.965,22.857,19.8s28.943-2.585,28.943-2.585,4.471,15.367,30.188,23.779S392,798.434,392,798.434s15.011,12.465,29.518,7.844c0,0,10.713,14.566,37.319,22.782s42.417-6.827,52.715-1.239,34.263,8.8,26.737-.883-20.936-10.111-20.936-10.111,16.2-8.147-2.242-27.6-40.95-7.34-40.95-7.34,7.03-8.2-6.278-12.988c0,0,4.9-8.216-7.621-15.239s-18.491,2.167-18.491,2.167,5.853-10.925-3.732-18.132-21.452.513-21.452.513-.693-30.868-62.039-45.46-54.219,30.24-54.219,30.24-7.628-8.37-23.263-8.536-10.4,16.511-10.4,16.511-12.563-14.3-24.158-15.8-15.661,5.478-15.661,5.478a15.253,15.253,0,0,0-13.664-7.445C202.008,713.952,196.416,714.321,185.226,715.037Z" transform="translate(906.341 -478.397) rotate(-1)" fill="#fff"/><path d="M154.885,687.156c-15.841,6.249,5.513,15.89,22.629,18.73S219.787,716,219.787,716,193.593,671.888,154.885,687.156Z" transform="translate(693.347 -493.529) rotate(-9)" fill="#fff"/><path d="M297.553,738.73c24.106-4,32.008,16.592,48.091,21.138s28.217,24.246,28.217,24.246-48.5-.657-62.428-23.011S297.553,738.73,297.553,738.73Z" transform="matrix(0.951, -0.309, 0.309, 0.951, 1022.616, -229.528)" fill="#fff"/><path d="M265.729,822.6c-4.353,2.889,3.072,11.406,14.9,13.416S300.6,838.925,303.1,844.9s23.318,4.582,31.453,7.85,24.429,10.112,29.658,7.716-4.425-5.628-19.57-12.475-21.344-13.259-27.283-13.007-13.363.467-23.619-5.69S270.991,819.1,265.729,822.6Z" transform="translate(1128.139 -92.373) rotate(-9)" fill="#fff"/><path d="M2.947,814.15c13.35-4.615,19.877,20.606,33.544,25.809s59.931,20.177,57.245,27.707-14.38,5.977-29.155-3.944-15.105-7.576-41.6-18.086S-9.723,818.53,2.947,814.15Z" transform="translate(451.955 -200.133)" fill="#fff"/><path d="M52.06,843.405c17.988,7.866,35.126,12.082,36.933,18.589s-18,1.033-29.381-3.493S42.255,839.117,52.06,843.405Z" transform="translate(566.489 -134.248)" fill="#fff"/><path d="M-46.878,793.14C-34.077,786.8-1.526,807-1.85,815.9s-7.906,7.125-16.573,5.151-2.621-8.854-13.285-10.128S-62.8,801.03-46.878,793.14Z" transform="translate(339.997 -249.261)" fill="#fff"/></g></svg>