<svg xmlns="http://www.w3.org/2000/svg" width="280" height="280" viewBox="0 0 280 280"><g transform="translate(-1 -2.725)"><g transform="translate(0 0)"><path d="M67.871,35.169a24.984,24.984,0,0,1-7.326,17.687A25,25,0,0,1,19.839,44.9a25,25,0,1,1,48.032-9.732Z" transform="translate(97.956 -7.444)" fill="#fddd55"/><path d="M38.929,65.573a26.857,26.857,0,0,1-5.214-.5,26.434,26.434,0,0,1-4.944-1.5,26.1,26.1,0,0,1-4.538-2.442,28.036,28.036,0,0,1-4.057-3.312,26.53,26.53,0,0,1-5.815-8.775,26.623,26.623,0,0,1,0-19.946,26.316,26.316,0,0,1,5.815-8.76,27.168,27.168,0,0,1,4.057-3.327,26.025,26.025,0,0,1,4.538-2.426,26.435,26.435,0,0,1,4.944-1.5,26.46,26.46,0,0,1,10.429,0,26.473,26.473,0,0,1,9.482,3.922,26.518,26.518,0,0,1,4.042,40.807,27.129,27.129,0,0,1-4.042,3.312,26.234,26.234,0,0,1-4.553,2.442,25.953,25.953,0,0,1-4.929,1.5A26.971,26.971,0,0,1,38.929,65.573Z" transform="translate(22.458 23.139)" fill="#fddd55"/><path d="M35.574,69.154a25.815,25.815,0,0,1-5-.485,25.448,25.448,0,0,1-4.759-1.44,25.18,25.18,0,0,1-4.383-2.336,26.039,26.039,0,0,1-3.891-3.2,25.33,25.33,0,0,1-5.6-8.431,25.5,25.5,0,0,1,5.6-27.645,25.936,25.936,0,0,1,3.891-3.188,25.092,25.092,0,0,1,9.141-3.79,26.15,26.15,0,0,1,10.024,0,25.446,25.446,0,0,1,4.759,1.44,25.8,25.8,0,0,1,8.273,5.538,25.479,25.479,0,0,1,5.6,8.431,25.849,25.849,0,0,1,0,19.213,25.33,25.33,0,0,1-5.6,8.431,26.04,26.04,0,0,1-3.891,3.2,25.711,25.711,0,0,1-4.383,2.336,25.448,25.448,0,0,1-4.759,1.44A25.853,25.853,0,0,1,35.574,69.154Z" transform="translate(-9.074 100.466)" fill="#fddd55"/><path d="M36.456,71.827A24.146,24.146,0,0,1,27.247,70,22.344,22.344,0,0,1,23.138,67.8a23.292,23.292,0,0,1-3.678-3.008,24.886,24.886,0,0,1-3-3.651,25.706,25.706,0,0,1-2.2-4.118,24.239,24.239,0,0,1-1.351-4.469,24.5,24.5,0,0,1,0-9.448,24.237,24.237,0,0,1,1.351-4.468,23.764,23.764,0,0,1,5.2-7.769,24.151,24.151,0,0,1,7.787-5.228,22.975,22.975,0,0,1,4.482-1.343,24.138,24.138,0,0,1,9.453,0,22.55,22.55,0,0,1,4.468,1.343,24.948,24.948,0,0,1,4.123,2.205,24.636,24.636,0,0,1,6.666,6.674,23.088,23.088,0,0,1,2.2,4.118A24.235,24.235,0,0,1,59.989,43.1a24.5,24.5,0,0,1,0,9.448,24.236,24.236,0,0,1-1.351,4.469,23.6,23.6,0,0,1-2.2,4.118,24,24,0,0,1-3,3.651A23.189,23.189,0,0,1,49.774,67.8,22.938,22.938,0,0,1,45.651,70a23.607,23.607,0,0,1-4.468,1.358A24.363,24.363,0,0,1,36.456,71.827Z" transform="translate(23.832 178.067)" fill="#fddd55"/><path d="M41.116,72.231a23.163,23.163,0,0,1-4.534-.445,22.784,22.784,0,0,1-8.238-3.426,21.813,21.813,0,0,1-3.514-2.892,22.358,22.358,0,0,1-2.872-3.5,22.356,22.356,0,0,1-3.4-8.215,23.6,23.6,0,0,1,0-9.046,22.989,22.989,0,0,1,1.283-4.286,23.867,23.867,0,0,1,2.114-3.945,22.358,22.358,0,0,1,2.872-3.5,23.506,23.506,0,0,1,3.514-2.892,23.11,23.11,0,0,1,8.238-3.411,23.331,23.331,0,0,1,9.069,0,23.11,23.11,0,0,1,8.238,3.411A23.5,23.5,0,0,1,57.4,32.978a25.178,25.178,0,0,1,2.887,3.514,22.747,22.747,0,0,1,3.4,8.215,24.381,24.381,0,0,1,.437,4.523,24.63,24.63,0,0,1-.437,4.523,23.038,23.038,0,0,1-3.4,8.215,24.226,24.226,0,0,1-2.887,3.5,21.812,21.812,0,0,1-3.514,2.892,22.785,22.785,0,0,1-8.238,3.426A23.054,23.054,0,0,1,41.116,72.231Z" transform="translate(101.447 210.494)" fill="#fddd55"/><path d="M45.789,68.012a21.7,21.7,0,0,1-4.327-.423,21.185,21.185,0,0,1-4.105-1.237,20.5,20.5,0,0,1-3.794-2.037A21.825,21.825,0,0,1,30.2,61.554a21.554,21.554,0,0,1-2.742-3.35,21.9,21.9,0,0,1-2.015-3.772,22.787,22.787,0,0,1-1.23-4.089,22.728,22.728,0,0,1,0-8.646,22.786,22.786,0,0,1,1.23-4.089A22.078,22.078,0,0,1,30.2,30.485a22.84,22.84,0,0,1,3.364-2.776,21.838,21.838,0,0,1,7.9-3.259A22.041,22.041,0,0,1,58.03,27.709a24.493,24.493,0,0,1,3.364,2.776,23.392,23.392,0,0,1,2.742,3.35,21.9,21.9,0,0,1,2.015,3.772,22.784,22.784,0,0,1,1.23,4.089,22.728,22.728,0,0,1,0,8.646,22.784,22.784,0,0,1-1.23,4.089A21.9,21.9,0,0,1,64.136,58.2a22,22,0,0,1-6.106,6.111,20.986,20.986,0,0,1-3.794,2.037,21.5,21.5,0,0,1-4.105,1.237A21.742,21.742,0,0,1,45.789,68.012Z" transform="translate(179.049 180.631)" fill="#fddd55"/><path d="M46.2,58.525a20.769,20.769,0,0,1-3.951-.381A18.668,18.668,0,0,1,38.513,57a18.1,18.1,0,0,1-3.434-1.846,18.669,18.669,0,0,1-3.06-2.52,19.085,19.085,0,0,1-2.5-3.033,21.133,21.133,0,0,1-1.825-3.429A20.487,20.487,0,0,1,26.574,34.6a20.918,20.918,0,0,1,1.121-3.722,20.406,20.406,0,0,1,1.825-3.414,19.188,19.188,0,0,1,2.5-3.048,19.446,19.446,0,0,1,3.06-2.52,18.974,18.974,0,0,1,3.434-1.846,20.323,20.323,0,0,1,11.638-1.143,20.793,20.793,0,0,1,3.736,1.143,20.046,20.046,0,0,1,8.98,7.414,18.99,18.99,0,0,1,1.825,3.414A18.784,18.784,0,0,1,65.812,34.6a20.067,20.067,0,0,1,0,7.854,18.784,18.784,0,0,1-1.121,3.722,18.509,18.509,0,0,1-1.825,3.414,19.911,19.911,0,0,1-2.486,3.048,19.291,19.291,0,0,1-3.06,2.52A19.021,19.021,0,0,1,53.887,57a18.669,18.669,0,0,1-3.736,1.143A20.882,20.882,0,0,1,46.2,58.525Z" transform="translate(214.8 105.606)" fill="#fddd55"/><path d="M41.474,49.037a16.646,16.646,0,0,1-6.72-1.372,18.064,18.064,0,0,1-3.017-1.655,18.9,18.9,0,0,1-2.68-2.277,17.215,17.215,0,0,1-2.168-2.744,17.816,17.816,0,0,1-1.6-3.07,18.694,18.694,0,0,1-.97-3.352,18.665,18.665,0,0,1,0-7.059,18.888,18.888,0,0,1,.97-3.338,17.945,17.945,0,0,1,1.6-3.084,16.5,16.5,0,0,1,2.168-2.73,17.528,17.528,0,0,1,5.7-3.947,16.351,16.351,0,0,1,3.272-1.018,17.046,17.046,0,0,1,6.908,0,16.353,16.353,0,0,1,3.272,1.018,17.173,17.173,0,0,1,3.017,1.669,17.851,17.851,0,0,1,2.68,2.277,18.773,18.773,0,0,1,2.168,2.73,18.368,18.368,0,0,1,2.572,6.422,18.668,18.668,0,0,1,0,7.059,18.084,18.084,0,0,1-2.572,6.422A18.889,18.889,0,0,1,53.9,43.732a19.678,19.678,0,0,1-2.68,2.277,18.065,18.065,0,0,1-3.017,1.655,16.649,16.649,0,0,1-6.733,1.372Z" transform="translate(182.612 29.568)" fill="#fddd55"/></g></g></svg>