<svg xmlns="http://www.w3.org/2000/svg" width="1605.336" height="813.441" viewBox="0 0 1605.336 813.441"><g transform="translate(0 688.812)"><path d="M442.814,970.271s-25.874-1.434-20-18.109,34.639-4.53,34.639-4.53-3.2-7.523,11.909-12.749S493.2,936.94,493.2,936.94s-13.958-23.524,13.8-35.411,43.3,3.344,43.3,3.344-9-13,15.53-18.8c0,0-7.52-16.39,19.645-18.4s24.465,14.334,24.465,14.334,6.935-3.739,16.965-1.595,7.912,13.671,7.912,13.671.814-22.952,37.734-28.5,30.207,10.435,30.207,10.435,17.05-19.439,34.969,2.026c0,0-3.393-14.314,24.371-20.848S793.98,868.05,793.98,868.05s4.422-5.615,15.128-.627,9.932,12.086,9.932,12.086,5.239-8.99,18.73-.814c0,0,9.135-12.951,26.106-4.944,0,0,25.642-3.879,19.886,8.5,0,0,18.645-10.615,23.75.18s-23.047,13.089-23.047,13.089,10.118,11.468-9.6,14.181-25.772-6.35-25.772-6.35,12.1,24.6-24.518,34.021-42.914-8.268-42.914-8.268,3.794,36.953-48.728,48.581-69.18-18.4-69.18-18.4-6.33,15.462-33.169,13.8S602.222,958.3,602.222,958.3s-4.33,11.363-32.227,15.5-29.848-12.128-29.848-12.128-8.8,18.847-31.672,15.132-24.982-13.024-24.982-13.024-3.4,9.511-19.145,11.083S442.814,970.271,442.814,970.271Z" transform="translate(-421.948 -855.729)" fill="#fff"/><path d="M845.738,879.609c-21.573.144-12.713,10.138-12.713,10.138C802.085,916.373,772,909.911,772,909.911c-12.21,22.7-32.182,9.961-32.182,9.961s7.739,22.966-28.1,32.168-42.032-16.6-42.032-16.6c-41.675,16.949-64.275-1.065-64.275-1.065-35.332,16.442-41.388.313-41.388.313-22.727,7.8-33.564-2.814-33.564-2.814-10.546,11.569-27.805,7.19-27.805,7.19s2.7,6.6-4.974,10.514-13.981-4.729-13.981-4.729c-19.057,15.91-33.678,7.053-33.678,7.053-13.667,3.811-22.5.193-28.067-4.886.99,11.465,20.828,12.556,20.828,12.556s5.781,6.164,21.534,4.589,19.145-11.082,19.145-11.082,2.118,9.308,24.982,13.024,31.672-15.132,31.672-15.132,1.951,16.262,29.848,12.128,32.227-15.5,32.227-15.5,1.533,13.125,28.367,14.785,33.166-13.8,33.166-13.8,16.661,30.028,69.183,18.4,48.728-48.581,48.728-48.581,6.3,17.69,42.914,8.268,24.517-34.021,24.517-34.021,6.059,9.063,25.773,6.35,9.6-14.181,9.6-14.181,28.155-2.291,23.047-13.089-23.75-.18-23.75-.18c5.755-12.376-19.887-8.5-19.887-8.5C846.882,855.049,837.744,868,837.744,868,827.338,874.9,845.738,879.609,845.738,879.609Z" transform="translate(-421.922 -845.035)" fill="#ededed"/><path d="M548.049,919.178S547,900.046,517.2,904.929c0,0-11.184-11.517-25.338-7.337,0,0,22.7-7.5,22.567-19.563,0,0,16.994-4.082,18.612-13.262,0,0,.438,15.866,15.383,11.745,0,0,14.132,11.311,22.443-3.827,0,0,20.285,10.827,32.956,3.487,0,0,19.766,3.51,30.433-5.441,0,0-11.233,14.615-26.374,13.559,0,0-22.485,8.092-34.427,2.095,0,0-5.585,5.6,1.111,14.641C574.567,901.027,551.8,903.543,548.049,919.178Z" transform="translate(-263.371 -835.229)" fill="#ededed"/></g><g transform="translate(377.378 157.931)"><path d="M1699.055,849.055c-11.138,22.527-18.524,37.185-35.42,32.005s-16.792,27.482-37.41,24.985-11.824,26.377-37.636,29.221-41.806-36.195-50.729-25.832c0,0,7.563,39.75-35.146,55.124s-84.917,16.06-112.8-7.6c0,0-.631,22.23-20.723,20.3s-.386,30.521-40.63,41.643-73.873-2.216-73.873-2.216,9.073,29.91-29.5,44.372-53.817-11.245-77.56-4.85-29.139,25.959-55.774,22.031-38.934-12.4-38.934-12.4,8.755,18.037-4.088,22.021-21.132-3.912-21.132-3.912,14.118,12.223-2.235,26.426-86.635,26.832-84.292-.389c0,0-5.811,13.648-23.75,12.8s-9.893-14.968-9.893-14.968-12.89,19.5-25.58,11.638c0,0,.863,19.263-15.867,20.168,0,0,5.974,24.707-44.333,30.678s-60.3-27.927-60.3-27.927-6.18,13.491-20.955,2.239c0,0-8.945,18.344-28.341,20.854S688,1146.009,688,1146.009s-3.35,16.419-20.387,15.484c0,0,4.706,11.255-16.5,16.086s-40.538-3.651-30.129-23.479c0,0-13.955,17.641-28.453,13.919a45.18,45.18,0,0,1-22.7-14.347s2.16,22.478-28.658,20.861-17.38-18.988-17.38-18.988-17.609,7.36-23.71-.833-17.275,5.108-25.55-2.733,6.337-18.827,27.7-14.007c0,0-9.419-21.782,21.285-19.4,0,0-4.085-21.292,23.688-22.056s21.665,10.288,21.665,10.288,13.3-20.276,30.629-5.713c0,0-3.425-20.7,24.593-27.534s39.887,2.9,39.887,2.9-.219-18.727,26.763-16.22c0,0-8.01-19.687,12.03-24.521,0,0-10.183-46.172,65.6-43.215,0,0,1.909-21.178,25.217-17.707,0,0-4-27.011,32.479-30.963,0,0-5.834-40.028,62.928-39.767,0,0,26.152-23.524,53.673-.686,0,0-.281-27.305,28.544-14.282,0,0-14.161-23.139,11.729-32.574s44.189,6.046,44.189,6.046-24.936-32.509,12.5-59.036,71.217-8.994,71.217-8.994,15.128-20.158,33.057-1.886c0,0,12.687-18.105,30.613-7.906,0,0-6.464-32.371,28.041-31.776,0,0-15.769-35.75,27.688-42.048s60.346,26.5,60.346,26.5,35.374-39.453,70.014.33c0,0,11.635-19.824,35.067-8.206,0,0,32.394-64.954,83.854-18.622s-9.739,88.132-9.739,88.132,33.783-.1,30.452,21.681-41.5,25.43-41.5,25.43,23.279,7.157,19.651,21.612c0,0,18.628-13.491,29.2,1.471,0,0,27.6-18.8,49.92,6.958,0,0,4.618-20.04,25.544-16.1s31.661-18.344,49.712-5.357,23.063-14.066,36.636-9.229S1705.333,836.358,1699.055,849.055Z" transform="translate(-472.185 -694.26)" fill="#fff"/><g transform="translate(0 153.896)"><path d="M779.95,751.71a17.707,17.707,0,0,1,1.8-.915S781.1,751.148,779.95,751.71Z" transform="translate(225.873 -719.927)" fill="#ededed"/><path d="M498.005,830.289a10.918,10.918,0,0,1,0-2.33A11.936,11.936,0,0,1,498.005,830.289Z" transform="translate(-413.756 -544.907)" fill="#ededed"/><path d="M800.833,757.067a14.846,14.846,0,0,1,2.268-1.676S802.277,756.087,800.833,757.067Z" transform="translate(273.238 -709.503)" fill="#ededed"/><path d="M949.9,741.35c-.121.288-.248.578-.408.9-11.141,22.521-18.524,37.185-35.42,32.005s-16.792,27.482-37.411,24.985-11.824,26.377-37.636,29.221c-15.426,1.7-27.378-11.563-36.365-20.3,28.282,2.843,24.8-13.138,24.8-13.138,24.41.118,30.064-21.544,30.064-21.544,19.338,12.608,41.643-6.55,41.643-6.55,11.733,3.259,17.88-8.726,17.88-8.726A41.111,41.111,0,0,0,949.9,741.35Z" transform="translate(277.38 -741.35)" fill="#ededed"/><path d="M488.032,825.608a15.916,15.916,0,0,1-.2-2.183A15.781,15.781,0,0,1,488.032,825.608Z" transform="translate(-436.693 -555.191)" fill="#ededed"/><path d="M502.239,1020.916s-9.419-21.782,21.285-19.4c-19.468,1.821-13.844,11.88-7.527,15.968s10.55-2.732,10.55-2.732-10.141,16.995,10.909,15.834c15.88-.876,18.6-9.788,18.978-14.105.4,4.066,3.161,11.755,18.8,8.55,20.9-4.288,17.906-16.789,17.906-16.789,8.112,14.984,24.4,6.252,24.4,6.252,1.454,20.58,17.808,16.58,17.808,16.58,3.353,7.18,15.059,7.52,16.779-1.948s-10.579-8.38-10.579-8.38c10.742-12.955-10.275-29.315-10.275-29.315,9.458,7.736,24.05.095,24.05.095-3.8-13.609,9.582-20.168,9.582-20.168s-10.468,16,.8,16.811,17.112-6.461,17.112-6.461c7.409,19.41,25.257,11.873,25.257,11.873s-8.171,19.978,10.435,17.906,7.909-18.625,7.909-18.625,9.916,8.844,15.239-.552-8.52-17.409-8.52-17.409c14.684,5.661,19.419-.147,19.419-.147,15.265,22.518,34.423,10.55,34.423,10.55s-.781,16.8,21.933,12.272,9.925-19.22,9.925-19.22c27.309,1.409,24.972-14.3,24.972-14.3,24.969,1.392,19.135-17.018,19.135-17.018,7.873-9.677-3-12.4-3-12.4,10.412-1.007,12.556-5.549,12.556-5.549-4.647-13.386,9.167-17.448,9.167-17.448-10.062,8.027,3.755,15.34,3.755,15.34s-9.952,16.328,6.111,24.874,21.812-.271,21.812-.271-4.494,13.792,13.108,11.383,19.2-18.177,19.2-18.177-.049,14.514,15.553,13.377,19.413-13.511,19.413-13.511,8.618,11.523,19.727,3.935,7.066-21.112,7.066-21.112,11.072,13.52,18.393-1.092-11.164-17.435-11.164-17.435c26.531-22.949-8.942-32.08-8.942-32.08-7.824,1.964-6.533,12.193-6.533,12.193-6.621-14.622-28.668-12.243-28.668-12.243,36.747-8.157,27.387-29.671,27.387-29.671,13.1,28.832,36.443,11.9,36.443,11.9s-1.226,17.939,7.03,15.821,2.748-13.926,2.748-13.926,20.946,8.706,33.959-3.092-1.366-25.236-1.366-25.236,23.511,7.909,28.779-1.455-3.7-14.915-3.7-14.915c11.416,4.458,29.237-3.023,29.237-3.023-23.086,13.354-6.049,29.5-6.049,29.5-23.057,15.507-1.337,29.975-1.337,29.975s-16.262-1.4-9.713,13.645,19.308,5.432,19.308,5.432c7.2,12.207,19.978,4.321,19.978,4.321,9.174,27.142,27.38,10.21,27.38,10.21s-1.543,14.164,13.027,9.144,8.2-15.472,8.2-15.472c22.593-8.072,14.537-20.923,14.537-20.923,14.462-6.736-2.987-16.452-2.987-16.452,34.512-10.181,21.573-34.535,21.573-34.535-15.19.8-13.37-10.38-13.37-10.38-21.054-.209-24.845-11.589-24.845-11.589,18.615,11.157,31.8-1.056,31.8-1.056-5.6,14.037,14.409,18.5,14.409,18.5s-.265,14.739,10.961,20.828,24.538-2.689,24.538-2.689-1,16.756,11.8,17,13.082-14.092,13.082-14.092c19.55,5.337,18.815-21.194,18.815-21.194s11.376,21.128,29.224,4.552-8.9-28.077-8.9-28.077c18.282-19.384-19.154-23.629-19.154-23.629,33.1-21.145-12.115-25.318-12.115-25.318,31.227-14.762,41.091,7.569,41.091,7.569-9.386,18.955,19.939,18.416,19.939,18.416,7.739,22.622,23.482,10.128,23.482,10.128s-16.8,37.009,12.35,29.23,8.514-25.936,8.514-25.936c19.9-4.039,15.7-22.439,15.7-22.439,16.295,8.128,39.238-1.817,45.745-5-12.985,7.523,6.35,22.289,6.35,22.289-20.828,11.275-2.409,26.537-2.409,26.537s-14,9.3,2.5,13,14.174-7.376,14.174-7.376c27.952-3.285,18.766-18.922,18.766-18.922,16.74-2.562,6.693-13.717,6.693-13.717,9.553,1.441,18.223-3.359,22.177-6.033-4.229,3.8-4,8.644-2.791,12.426a4.489,4.489,0,0,0-5.605,1.288s7.563,39.751-35.146,55.124-84.917,16.06-112.8-7.6c0,0-.631,22.23-20.723,20.3s-.386,30.521-40.63,41.643-73.873-2.216-73.873-2.216,9.073,29.91-29.5,44.372-53.817-11.246-77.56-4.85-29.139,25.959-55.774,22.031-38.934-12.4-38.934-12.4,8.755,18.037-4.088,22.021a23.61,23.61,0,0,1-21.031-3.82s13.236,12.811-2.337,26.335c-16.351,14.2-86.635,26.831-84.292-.389,0,0-5.811,13.648-23.75,12.8s-9.893-14.969-9.893-14.969-12.89,19.5-25.58,11.638c0,0,.863,19.263-15.867,20.168,0,0,5.974,24.707-44.333,30.678s-60.3-27.926-60.3-27.926-6.18,13.491-20.955,2.239c0,0-8.945,18.344-28.341,20.854S688,1028.952,688,1028.952s-3.35,16.419-20.387,15.485c0,0,4.706,11.255-16.5,16.086s-40.538-3.651-30.129-23.478c0,0-13.955,17.641-28.453,13.919a45.178,45.178,0,0,1-22.7-14.347s2.16,22.478-28.658,20.861-17.38-18.988-17.38-18.988-17.609,7.36-23.71-.833-17.275,5.108-25.55-2.732S480.872,1016.1,502.239,1020.916Z" transform="translate(-472.185 -731.1)" fill="#ededed"/></g><path d="M749.926,781.146s22.864,2.03,19.763-14.38c0,0,.013-10.318,13.269-12.926,0,0-12.89-8.379.568-15.416s18.567,3.275,18.567,3.275-5.033-10.059,6.265-11.69c0,0-17.73-4.206-17.772-14.537,0,0-14.122,18.71-34.567,11.063,0,0,12.311,11.873-3.415,20.642,0,0,9.929,2.837,9.651,8.9s-11.566,2.562-11.566,2.562S767.953,774.411,749.926,781.146Z" transform="translate(157.774 -646.147)" fill="#ededed"/><path d="M727.728,788.854s14.87-14,26.338-7.638c0,0-9.474-12.877.5-20.658,0,0-27,12.707-35.093.481s6.814-16.524,6.814-16.524-20.243-.64-21.41-15.935c0,0,.209,17.743-15.932,19.628,0,0,18.648-1,13.69,14.419C702.631,762.627,734.96,767.9,727.728,788.854Z" transform="translate(19.45 -616.418)" fill="#ededed"/><g transform="translate(230.137 199.143)"><path d="M616.148,763.314a26.043,26.043,0,0,1,1.232-7.3A27.988,27.988,0,0,1,616.148,763.314Z" transform="translate(-375.792 -753.339)" fill="#ededed"/><path d="M611.26,868.633c-51.032-9.059-68.2,28.874-68.2,28.874s-10.187-46.173,65.6-43.215c0,0,1.906-21.178,25.214-17.707,5.883,13.543,16.508,6.438,16.508,6.438-9.828-13.53,8.925-21.115,8.925-21.115-1.9-6.291,7.046-16.285,7.046-16.285s-5.833-40.028,62.928-39.767c0,0,26.152-23.524,53.673-.686-32.355-8.082-59.918,15.481-59.918,15.481-15.1-.7-22.606,11.67-22.606,11.67-20.514,2.1-23.407,15.481-23.407,15.481-11.39,1-9.922,16.6-9.922,16.6-15.726,6.209-4.971,21.3-4.971,21.3-.761,4.337-1.141,6.5-1.9,10.841,7.033,10.965,18.72,6.082,18.72,6.082s-7.781,16.648,8.331,16.177,17.55-13.05,17.55-13.05c17.351,2.389,21.557-12.445,21.557-12.445-1.99,12.38,14.422,13.118,14.422,13.118,13.824-16.563-12.435-25.5-12.435-25.5,23.116,5.553,32.149-7.615,32.149-7.615-7.206,18.034,8,31.858,8,31.858-18.978-1.85-22.635,14.965-22.635,14.965-16.066-3.67-23.936,10.344-23.936,10.344-13-18.3-37.842,5.51-37.842,5.51-19.39,3.324-15.289,18.308-15.289,18.308-31.4.749-21.256,19.567-21.256,19.567-21.776-18.563-50.839-1.216-50.839-1.216,10.684-10.318,16.008-15.491,26.613-25.851,23.508-2.448,16.253-16.808,16.253-16.808,25.416-10.893,2.981-25.6,2.981-25.6C624.865,852.92,611.26,868.633,611.26,868.633Z" transform="translate(-542.603 -755.195)" fill="#ededed"/></g></g><g transform="translate(508.93 170.411)"><path d="M541.68,900.37c-.127,8.523,11.674-.186,11.674-.186s5.03,6.932,10.112-2.2c0,0,21.991,13.527,35.218-14.053,0,0,13.553,11.866,20.864,4.252s23.861,22.805,53.48-8.811c0,0,40.27,18.831,50.558-26.426,0,0,11.027,12.978,24.593-5.588,0,0,7.576,15.962,36.672-4.523s16.68-38.172,16.68-38.172,24.949,17.586,48.735-1.556,11.177-44.3,11.177-44.3,25.469,2.291,36.116-21.018c0,0,19.723-1.928,17.141-23.367s-25.9-20.691-25.9-20.691-6.275-12.527-19.328-10.716-14.681,12.252-14.681,12.252-8.17-11.886-30.417-12.625-24.282,20.432-24.282,20.432-2.673-11.818-10.87-10.837-11.03,6.818-11.03,6.818-7.657-10.471-20.452-8.461S742.854,710.2,742.854,710.2s-.742-7.9-6.092-8.046-7.026,9.556-7.026,9.556-8.311-5.974-14.03-1.938-2.212,11.752-2.212,11.752-12.115-18.155-34.394,1.49-5.657,35.8-5.657,35.8-7.624-5.909-15.347,2.68,2.582,14.1,2.582,14.1-17.658-8.105-31.387,13.118,6.242,29.253,6.242,29.253-15.468-4.32-21.756,3.893.543,15.8.543,15.8-11.478-13.527-26.1,4.533,1.869,23.171,1.869,23.171-19.354-6.961-29.23,4.3-3.448,17.958-3.448,17.958-9.827-1.392-6.944,5.585C550.464,893.21,541.784,893.455,541.68,900.37Z" transform="translate(-541.679 -682.624)" fill="#fff"/><g transform="translate(0 11.104)"><path d="M591.358,708.648c-.494-.4-1.007-.791-1.562-1.164A19.088,19.088,0,0,0,591.358,708.648Z" transform="translate(-432.541 -637.341)" fill="#ededed"/><path d="M544.712,748.307s-.173-.66-.5-1.8A6.886,6.886,0,0,0,544.712,748.307Z" transform="translate(-535.926 -548.826)" fill="#ededed"/><path d="M604.761,702.272l-.052-.049Z" transform="translate(-398.716 -649.276)" fill="#ededed"/><path d="M640.226,689.06s1.356.526,3.291,1.072A20.463,20.463,0,0,0,640.226,689.06Z" transform="translate(-318.158 -679.131)" fill="#ededed"/><path d="M888.8,686.025s9.638,1.484,2.664,10.782-11.641-.8-11.641-.8c-2,3.412-8.693,2.17-12.782,1.016,3.477,1.454,8.367,4.572,7.55,10.51-1.245,9.082-12.122,7.66-12.122,7.66s10.086,8.017.536,13.412-16.413-3.435-16.413-3.435,3.37,9.177-2.444,9.759-7.017-12.02-7.017-12.02c-5.451-10.55,4.539-15.194,4.539-15.194-8.422-4.543-9.664-15.269-9.664-15.269-2.5,12.56-14.854,15.383-14.854,15.383-8.991,11.086-18.985,6.906-18.985,6.906-4.546,6.461-16.217,9.383-16.217,9.383,20.063-3.209,23.737,18.311,23.737,18.311,5.906-15.119,18.367-7.8,18.367-7.8,13.35-8.9,13.452,4.442,13.452,4.442-.484,11.9,11.559,12.33,11.559,12.33-4.422,7.645-11.144,5.108-11.144,5.108-9.651,13.318-19.292,6.464-19.292,6.464-.023,9.755-9.206,9.929-9.206,9.929s9.945,7.886,4.451,14.909-15.572,2.843-15.572,2.843c-11.847,12.7-15.782.506-15.782.506-14.938,12.716-14.981-1.225-14.981-1.225s-7.775,11.357-16.285,5.582,4.562-14.53,4.562-14.53c-16.348-2.529-1.2-12.88-1.2-12.88-.506-10.71,14.55-12.6,19.717-12.942-22.043.654-11.965-14.217-11.965-14.217-9.04,3.206-14.638-1.931-14.638-1.931s7.014,7.324.223,14.314c-7.125,7.337-9.765,1.056-9.765,1.056s4.726,11.677-4.964,13.87-10.347-8.9-10.347-8.9c-9.645,5.311-18.818.389-22.374-2.033,10.481,8.5,7.311,22.495,7.311,22.495,16.635-9.9,21.233,2.628,21.233,2.628,17.481,8.471,3.3,21.213,3.3,21.213,6.622,11.589-5.582,13.148-5.582,13.148s13.769,6.3,5.987,9.72-11.955-10.4-11.955-10.4c-10.481,11.046-19.913-2.36-19.913-2.36,4.082,14.772-5.7,13.877-5.7,13.877s7.579,9.4-2.677,11.8-4.853-7.981-4.853-7.981c-12.426,4.876-17.057-6.853-17.057-6.853,4.863,15.181-5.575,18.256-5.575,18.256s12.543,9.533.35,15.4-14.406-6.059-14.406-6.059c-4.255,7.252-8.223,4.739-8.223,4.739-4.69-2.69,4.089-11.621,4.089-11.621-14.677,12.386-29.721,2.6-29.721,2.6s7.634,16.959-2.337,20.841-12.831-4.049-12.831-4.049c-10.87,8.559-14.161-.131-14.161-.131-5.726,18.344-23.3,17.651-23.3,17.651-6.468,7.778-14,3.259-14,3.259s-8.68.245-8.785,7.161c-.127,8.523,11.674-.186,11.674-.186s5.03,6.932,10.108-2.2c0,0,21.995,13.527,35.221-14.053,0,0,13.553,11.867,20.864,4.252s23.861,22.805,53.48-8.811c0,0,40.27,18.831,50.558-26.426,0,0,11.027,12.978,24.593-5.588,0,0,7.576,15.961,36.672-4.523s16.68-38.172,16.68-38.172,24.949,17.586,48.735-1.556,11.177-44.3,11.177-44.3,25.469,2.291,36.116-21.017c0,0,19.723-1.928,17.141-23.367S888.8,686.025,888.8,686.025Z" transform="translate(-541.679 -686.022)" fill="#ededed"/><path d="M612.865,707.233c.556-.016,1.124-.042,1.723-.078C614.587,707.155,613.93,707.161,612.865,707.233Z" transform="translate(-380.217 -638.089)" fill="#ededed"/></g><path d="M600.982,755.756s-10.814-2.686-16.318,6.517c0,0-1.392-6.386-9.772-8.118,0,0,13.759-5.611,6.272-15.047,0,0,6.739-11.138-4.37-15.452,0,0,6.517-.742,7.533-9.811,0,0-2.592,9.929,6.4,10.667,0,0-6.432,5.569,2.817,9.766s11.288-6.631,11.288-6.631-3.069,10.128,2.654,15.534c0,0-11.821-2.334-14.517,2.846S600.982,755.756,600.982,755.756Z" transform="translate(-466.344 -611.808)" fill="#ededed"/></g><path d="M436.151,858.2c-14.073,7.343,29.515-6.36,29.515-6.36s15.988,8.945,27.364,5.667,26.907-15.448,26.907-15.448,20.848,8.026,63.347-10.386,39.172-32.884,39.172-32.884,24.43,10.324,46.424-4.039,21.632-31.561,21.632-31.561S716.12,757.907,711.162,750s-28.194-1.111-28.194-1.111-.591-13.733-16.746-12.292-20.72,21.269-20.72,21.269-9.844-36.992-60.389-25.894-48.169,60.6-48.169,60.6-14.958-10.749-33.505,4.16-10.491,27.423-10.491,27.423-18.168-1.585-27.361,7.383S455.126,848.3,436.151,858.2Z" transform="translate(-77.77 -530.384) rotate(14)" fill="#fff"/><path d="M2.767,74.709s-10.9-11.2,10.575-35.084S28.477,6.1,52.44,1.761s32.312-.67,19.723,11.288-31.828,33.79-31.828,33.79S37.749,65.614,2.767,74.709Z" transform="translate(465.498 208.31) rotate(23)" fill="#fff"/><path d="M633.892,740.527s15.582-35.789,43.574-44.819,7.726-28.43,44.087-47.555,29.835,16.576,29.835,16.576-28.07,36.786-55.755,48.535S633.892,740.527,633.892,740.527Z" transform="translate(480.75 -799.776) rotate(17)" fill="#fff"/><path d="M695.723,830.043c-15.769,5.072-8.991,29.538,17.651,13.03S723.7,825.21,723.7,825.21C712.512,827.167,706.917,828.132,695.723,830.043Z" transform="translate(254.946 -206.138)" fill="#fff"/><path d="M689.822,846.4c-22.985,10.22-21.2,19.952-12.311,19.112s21.985-3.581,27.051-7.984,13.938-5.291,11.082-10.759S704.208,840.01,689.822,846.4Z" transform="translate(218.753 -167.788)" fill="#fff"/><path d="M646.249,858.056c-16.494,1.2-25.746,17.3-8.5,16.631s41.741-4.676,51.356-13.317,16.5-9.687,6.745-14.739S646.249,858.056,646.249,858.056Z" transform="translate(121.524 -159.739)" fill="#fff"/><path d="M678.595,885.968c-7.013,3.209-2.83,8.023,19.344,2.729s27.175-10.354,27.175-10.354S712.444,870.487,678.595,885.968Z" transform="translate(228.068 -90.145)" fill="#fff"/><path d="M7.772,71.716c-9.154,3.322-9.978,8.221-3.755,6.589S25.6,68.083,25.6,68.083s9.221,13.085,30.157-.3c0,0,13.737,8.468,32.251,1.055s21.844-14.284,21.844-14.284,15.844,8.056,26.562-7.232a23.61,23.61,0,0,0,22.345,7.821c14.4-2.569,16.109-13.838,16.109-13.838s12.627,8.351,22.757,4.466,3.8-13.519,3.8-13.519,6.6-8.259-1.951-13.8-14.3,7.283-14.3,7.283-9.255-6.122-16.5,3c0,0,13.367-18.379-2.615-27.138s-24.409,21.356-24.409,21.356-8.2-4.516-12.875-.652-3.7,12.2-3.7,12.2-3.28-8.956-19.288-5.332S92.176,42.863,92.176,42.863s-10.525-8.776-29.3,2.7S42.7,57.315,33.88,56.928,17.893,66.01,17.893,66.01s-5.471-3.616-8.75-1.854S7.772,71.716,7.772,71.716Z" transform="matrix(0.985, 0.174, -0.174, 0.985, 97.231, 537.332)" fill="#fff"/></svg>