<svg width="32" height="32" viewBox="0 0 32 32" fill="none" xmlns="http://www.w3.org/2000/svg">
<path d="M16 30C23.7338 30 30 23.7338 30 16C30 8.26617 23.7338 2 16 2C8.26617 2 2 8.26617 2 16C2 23.7338 8.26617 30 16 30ZM8.40617 15.6967L21.9045 10.4922C22.531 10.2658 23.0782 10.645 22.8752 11.5923L22.8763 11.5912L20.578 22.419C20.4077 23.1867 19.9515 23.3733 19.3133 23.0117L15.8133 20.4322L14.1252 22.0585C13.9385 22.2452 13.781 22.4027 13.4193 22.4027L13.6678 18.8408L20.1545 12.9807C20.4368 12.7322 20.0915 12.5922 19.7193 12.8395L11.7032 17.8865L8.2475 16.8085C7.49733 16.5705 7.481 16.0583 8.40617 15.6967Z" fill="white"/>
</svg>
