<svg width="33" height="32" viewBox="0 0 33 32" fill="none" xmlns="http://www.w3.org/2000/svg">
<path fill-rule="evenodd" clip-rule="evenodd" d="M2.5 16C2.5 8.2692 8.7692 2 16.5 2C24.2308 2 30.5 8.2692 30.5 16C30.5 23.7308 24.2308 30 16.5 30C8.7692 30 2.5 23.7308 2.5 16ZM24.6048 10.8995C25.1442 11.4201 25.32 12.6013 25.32 12.6013C25.32 12.6013 25.5 13.9888 25.5 15.3757V16.6186C25.5 18.0061 25.32 19.3924 25.32 19.3924C25.32 19.3924 25.1448 20.5754 24.6048 21.0954C23.9877 21.7104 23.3034 21.7739 22.9169 21.8097C22.8746 21.8136 22.8359 21.8172 22.8012 21.8211C20.2824 21.9943 16.5 22 16.5 22C16.5 22 11.82 21.96 10.38 21.8286C10.3112 21.8162 10.2277 21.8066 10.1332 21.7957C9.67667 21.7433 8.96182 21.6611 8.3952 21.0954C7.8558 20.5754 7.68 19.3936 7.68 19.3936C7.68 19.3936 7.5 18.0067 7.5 16.6192V15.3757C7.5 13.9888 7.68 12.6013 7.68 12.6013C7.68 12.6013 7.8552 11.4195 8.3952 10.8995C9.012 10.2842 9.696 10.221 10.0826 10.1852C10.1251 10.1813 10.164 10.1777 10.1988 10.1737C12.7176 10 16.4958 10 16.4958 10H16.5036C16.5036 10 20.2824 10 22.8012 10.1737C22.836 10.1777 22.875 10.1813 22.9175 10.1852C23.3042 10.221 23.9886 10.2842 24.6048 10.8995ZM14.64 13.4344L14.6418 18.2518L19.5048 15.8517L14.64 13.4344Z" fill="#1E5AFF"/>
</svg>
