<svg width="22" height="33" viewBox="0 0 22 33" fill="none" xmlns="http://www.w3.org/2000/svg">
<path fill-rule="evenodd" clip-rule="evenodd" d="M7.35707 8.95078L4.41016 13.3262L2.82492 15.6816L1.26636 13.4768L4.38856 8.95078L10.5593 0.00126495L10.5606 0L10.5618 0.00126495L16.7326 8.95078L19.8535 13.4768L18.2962 15.6816L16.7097 13.3262L13.7641 8.95078L10.5606 4.19331L7.35707 8.95078ZM18.5846 25.986V19.894L21.12 16.3066V26.8285L16.7327 33.0001H10.5619H10.5594H4.38735L0 26.8285V16.3041L2.53664 19.8915V25.986L5.716 30.4753H10.5594H10.5619H15.4053L18.5846 25.986ZM12.4 13.6671V13.3484L11.0879 11.4927L6.43506 18.2399V20.7888V23.7652L8.69478 26.944H10.1416H10.3346H10.3359L12.0164 24.5672H12.0151H9.93706L8.82308 22.9936V18.9786L12.4 13.6671ZM15.4368 19.4294L13.6522 21.9555H13.5836H10.9009V19.4294H15.3683H15.4368Z" fill="url(#paint0_linear)"/>
<defs>
<linearGradient id="paint0_linear" x1="10.5847" y1="-6.03333e-09" x2="10.1083" y2="32.9936" gradientUnits="userSpaceOnUse">
<stop stop-color="#2FDAFF"/>
<stop offset="1" stop-color="#538DFF"/>
</linearGradient>
</defs>
</svg>
