<svg width="141" height="33" viewBox="0 0 141 33" fill="none" xmlns="http://www.w3.org/2000/svg">
<path fill-rule="evenodd" clip-rule="evenodd" d="M7.35707 8.95078L4.41016 13.3262L2.82492 15.6816L1.26636 13.4768L4.38856 8.95078L10.5593 0.00126495L10.5606 0L10.5618 0.00126495L16.7326 8.95078L19.8535 13.4768L18.2962 15.6816L16.7097 13.3262L13.7641 8.95078L10.5606 4.19331L7.35707 8.95078ZM18.5846 25.986V19.894L21.12 16.3066V26.8285L16.7327 33.0001H10.5619H10.5594H4.38735L0 26.8285V16.3041L2.53664 19.8915V25.986L5.716 30.4753H10.5594H10.5619H15.4053L18.5846 25.986ZM12.4 13.6671V13.3484L11.0879 11.4927L6.43506 18.2399V20.7888V23.7652L8.69478 26.944H10.1416H10.3346H10.3359L12.0164 24.5672H12.0151H9.93706L8.82308 22.9936V18.9786L12.4 13.6671ZM15.4368 19.4294L13.6522 21.9555H13.5836H10.9009V19.4294H15.3683H15.4368Z" fill="url(#paint0_linear)"/>
<path d="M37.2738 22.931V15.6814H40.5286V14.0667H37.2738V9.23999H35.6385V14.0667H34.3201V15.6814H35.6385V23.4634L37.9615 26.723H41.1466V25.1083H38.7839L37.2738 22.931Z" fill="white"/>
<path d="M47.7467 17.3256V26.7223H49.3614V17.8596L50.9128 15.6807H55.253V14.0454H50.0682L47.7467 17.3256Z" fill="white"/>
<path d="M65.3835 9.24292H63.089V11.558H65.3835V9.24292Z" fill="white"/>
<path d="M65.2187 14.0048H61.853V15.6195H63.604V25.1287H61.853V26.7228H66.9697V25.1287H65.2187V14.0048Z" fill="white"/>
<path d="M81.4739 25.1076H76.7359L75.1845 22.9097V17.8406L76.7343 15.6807H81.4739L82.7748 17.5157L84.1043 16.5697L82.3185 14.0454H75.8913L73.5698 17.3256V23.4421L75.8913 26.7223H82.3185L84.1059 24.1758L82.7732 23.2552L81.4739 25.1076Z" fill="white"/>
<path d="M98.0189 16.6267L96.5088 18.7834H92.3207L92.3539 9.42468L90.7392 9.45004L90.7059 26.9077H92.3207V20.3981H96.5088L98.0189 22.5754V26.9077H99.6542V22.0445L97.9175 19.5804L99.6542 17.118V14.2308H98.0189V16.6267Z" fill="white"/>
<path d="M109.62 9.42468H106.254V11.0394H108.005V25.3548H106.254V26.9489H111.371V25.3548H109.62V9.42468Z" fill="white"/>
<path d="M129 21.7778V17.4899L126.678 14.2303H120.294L117.971 17.4899V23.6477L120.294 26.9072H127.723V25.2925H121.117L119.586 23.1153V21.7778H129ZM125.831 15.8451L127.361 18.0239V20.1425H119.586V18.0239L121.117 15.8451H125.831Z" fill="white"/>
<defs>
<linearGradient id="paint0_linear" x1="10.5847" y1="-6.03333e-09" x2="10.1083" y2="32.9936" gradientUnits="userSpaceOnUse">
<stop stop-color="#2FDAFF"/>
<stop offset="1" stop-color="#538DFF"/>
</linearGradient>
</defs>
</svg>
