<svg width="32" height="32" viewBox="0 0 32 32" fill="none" xmlns="http://www.w3.org/2000/svg">
<path d="M4.39602 6.9784C4.69658 5.69706 5.69706 4.69658 6.9784 4.39601V4.39601C8.08884 4.13554 9.24449 4.13554 10.3549 4.39601V4.39601C11.6363 4.69658 12.6368 5.69706 12.9373 6.9784V6.9784C13.1978 8.08884 13.1978 9.24449 12.9373 10.3549V10.3549C12.6368 11.6363 11.6363 12.6368 10.3549 12.9373V12.9373C9.24449 13.1978 8.08884 13.1978 6.9784 12.9373V12.9373C5.69706 12.6368 4.69658 11.6363 4.39602 10.3549V10.3549C4.13554 9.24449 4.13554 8.08884 4.39602 6.9784V6.9784Z" stroke="white" stroke-width="1.5"/>
<path d="M4.39602 21.645C4.69658 20.3637 5.69706 19.3632 6.9784 19.0626V19.0626C8.08884 18.8022 9.24449 18.8022 10.3549 19.0626V19.0626C11.6363 19.3632 12.6368 20.3637 12.9373 21.645V21.645C13.1978 22.7555 13.1978 23.9111 12.9373 25.0216V25.0216C12.6368 26.3029 11.6363 27.3034 10.3549 27.6039V27.6039C9.24449 27.8644 8.08884 27.8644 6.9784 27.6039V27.6039C5.69706 27.3034 4.69658 26.3029 4.39602 25.0216V25.0216C4.13554 23.9111 4.13554 22.7555 4.39602 21.645V21.645Z" stroke="white" stroke-width="1.5"/>
<path d="M19.0628 6.9784C19.3633 5.69706 20.3638 4.69658 21.6451 4.39601V4.39601C22.7556 4.13554 23.9112 4.13554 25.0217 4.39601V4.39601C26.303 4.69658 27.3035 5.69706 27.6041 6.9784V6.9784C27.8645 8.08884 27.8645 9.24449 27.6041 10.3549V10.3549C27.3035 11.6363 26.303 12.6368 25.0217 12.9373V12.9373C23.9112 13.1978 22.7556 13.1978 21.6451 12.9373V12.9373C20.3638 12.6368 19.3633 11.6363 19.0628 10.3549V10.3549C18.8023 9.24449 18.8023 8.08884 19.0628 6.9784V6.9784Z" stroke="white" stroke-width="1.5"/>
<path d="M19.0628 21.645C19.3633 20.3637 20.3638 19.3632 21.6451 19.0626V19.0626C22.7556 18.8022 23.9112 18.8022 25.0217 19.0626V19.0626C26.303 19.3632 27.3035 20.3637 27.6041 21.645V21.645C27.8645 22.7555 27.8645 23.9111 27.6041 25.0216V25.0216C27.3035 26.3029 26.303 27.3034 25.0217 27.6039V27.6039C23.9112 27.8644 22.7556 27.8644 21.6451 27.6039V27.6039C20.3638 27.3034 19.3633 26.3029 19.0628 25.0216V25.0216C18.8023 23.9111 18.8023 22.7555 19.0628 21.645V21.645Z" stroke="white" stroke-width="1.5"/>
</svg>
