<svg width="150" height="150" viewBox="0 0 150 150" fill="none" xmlns="http://www.w3.org/2000/svg">
<path d="M135 75.466C134.897 108.672 107.847 135.141 74.1623 135.004C41.6062 134.867 14.8637 107.749 15.0005 74.8505C15.1373 40.7213 43.2477 14.5944 75.9064 15.0048C108.565 15.4151 135.102 42.3286 135 75.466ZM20.8825 75.0557C20.9509 104.979 45.197 129.122 75.1882 129.088C104.906 129.054 129.084 104.808 129.084 75.0215C129.084 45.3038 104.735 20.9209 75.154 20.9893C45.1628 21.0235 20.8483 45.2696 20.8825 75.0557Z" fill="white"/>
<path d="M83.7719 122.829C79.0527 124.197 74.1966 124.505 69.3748 123.684C60.1756 122.077 54.6014 115.032 54.362 105.047C54.2253 100.327 55.1144 95.745 56.5849 91.2994C58.2948 86.1013 60.1756 80.9717 61.8855 75.7737C62.3985 74.2348 62.8088 72.5591 62.843 70.9518C62.9114 67.3953 60.2098 65.1382 56.6533 65.6512C53.4729 66.0958 51.2843 67.9424 49.6086 70.5414C49.335 70.9518 49.1298 71.3964 48.8904 71.8409C48.6853 71.7726 48.5143 71.7042 48.3091 71.6358C49.0614 69.4471 49.506 67.0875 50.6345 65.0698C55.3538 56.623 62.3643 50.9804 72.008 49.2706C77.6506 48.2446 83.0538 49.4758 87.8414 52.6903C93.6208 56.5546 96.425 64.9672 93.9628 72.2171C91.9794 78.0307 89.4145 83.6391 87.0891 89.3501C86.8497 89.9656 86.6103 90.5812 86.2684 91.4361C90.8508 90.3076 91.8084 86.2381 93.9286 83.2287C92.4239 88.5294 94.0312 93.659 94.339 98.8228C94.5784 102.55 94.6126 106.346 94.1338 110.04C93.4156 115.682 90.2353 119.786 85.003 122.18C84.5585 122.385 84.1139 122.659 83.6693 122.898C83.7377 122.898 83.7719 122.829 83.7719 122.829Z" fill="white"/>
<path d="M64.7918 27.8629C60.6197 36.1045 64.3814 43.457 72.5546 45.8508C71.0499 46.1586 69.7162 46.398 68.4167 46.74C49.8475 51.767 41.7768 72.9353 52.3781 89.0765C53.3014 90.4786 53.3698 91.6413 53.0278 93.1802C52.4123 95.8818 51.8309 98.6518 51.6941 101.422C51.2838 110.347 53.746 117.905 62.7057 122.214C46.9407 119.307 26.9693 103.098 26.046 77.0732C25.0884 50.0913 45.436 31.2485 64.7918 27.8629Z" fill="white"/>
<path d="M83.7375 122.898C90.3035 121.256 94.2704 116.845 96.3222 110.587C98.1347 105.081 98.1347 99.3699 97.5876 93.6589C97.4166 92.0174 97.143 90.3759 97.0062 88.7345C96.5274 83.1261 98.1005 78.3042 102.341 74.4057C105.761 71.2253 108.907 67.7372 111.13 63.5651C113.695 58.7774 114.755 53.6478 114.208 48.2104C114.139 47.5606 114.105 46.9109 114.037 46.2611C114.208 46.1927 114.413 46.0901 114.584 46.0217C116.396 49.3389 118.516 52.5193 119.953 55.9732C126.382 71.3279 125.424 86.3406 116.943 100.704C109.83 112.741 99.0922 119.888 85.5842 123C85.0371 123.137 84.4215 122.864 83.8059 122.761C83.7717 122.829 83.7375 122.898 83.7375 122.898Z" fill="white"/>
<path d="M101.452 62.6758C94.4417 51.7326 89.8934 48.2787 79.9077 45.9874C83.772 45.2009 86.7814 43.149 88.7307 39.7293C90.7141 36.2411 90.2354 32.6504 88.7307 28.6835C95.2624 31.2825 101.931 32.8214 104.564 40.1055C105.829 43.5594 105.898 47.1159 105.351 50.7067C104.735 54.8104 103.333 58.7089 101.452 62.6758Z" fill="white"/>
<path d="M76.6587 45.9193C70.2638 45.9535 65.3051 41.0974 65.2709 34.8051C65.2367 28.7179 70.2296 23.7593 76.3851 23.7593C82.4381 23.7593 87.3625 28.6495 87.3967 34.7025C87.4651 40.7555 82.5407 45.8851 76.6587 45.9193Z" fill="white"/>
</svg>
