<svg width="150" height="150" viewBox="0 0 150 150" fill="none" xmlns="http://www.w3.org/2000/svg">
<path d="M71.1582 104.685V130.659C53.4506 130.659 28.4119 117.054 20.6297 87.8184C14.4038 64.4302 27.5097 43.5906 34.8408 36.0944L71.1582 0V45.2023C59.3381 45.2023 50.9693 56.4467 48.2624 62.0689H66.8723V87.8184H48.1496C54.3755 100.412 66.0827 104.31 71.1582 104.685Z" fill="white"/>
<path d="M79.73 104.798V150L117.288 112.444C133.439 95.5323 132.589 71.7393 130.146 61.9567H84.1287V87.8187H102.851C97.1668 100.143 85.0686 104.273 79.73 104.798Z" fill="white"/>
<path d="M79.73 19.1155V45.09C88.5725 45.9896 94.6178 50.9371 96.5352 53.2984H127.439C115.619 25.7722 90.7079 19.0406 79.73 19.1155Z" fill="white"/>
</svg>
