<svg width="150" height="150" viewBox="0 0 150 150" fill="none" xmlns="http://www.w3.org/2000/svg">
<path d="M135 83.22C134.804 83.9774 134.575 84.7348 134.411 85.4922C133.264 91.8478 131.167 97.8741 128.053 103.538C127.922 103.769 127.759 103.966 127.464 104.394C127.824 102.221 128.283 100.344 128.414 98.4339C129.037 90.2013 127.3 82.6931 121.27 76.7327C116.715 72.2212 111.243 69.488 104.787 69.2245C102.264 69.1257 99.9048 69.8502 97.6766 71.0028C92.9906 73.4396 89.5171 76.9961 87.4198 81.8699C86.7972 83.3517 86.6334 84.9324 87.0921 86.5131C87.682 88.5547 89.9431 90.0037 91.8764 89.5756C93.4493 89.2134 94.0719 88.3572 93.777 86.7106C93.5804 85.5251 93.7443 84.4384 94.4652 83.4505C95.1206 82.5614 95.6121 82.6273 96.0709 83.6481C97.5127 87.007 100.298 88.4889 103.706 89.0816C106.131 89.5097 109.211 85.9862 108.458 83.4176C107.835 81.31 106.721 79.7294 104.624 78.972C104.001 78.7414 103.378 78.5439 102.723 78.3463C104.132 75.9424 106.688 74.8227 109.637 75.4484C115.667 76.7327 120.091 80.1904 122.941 85.6898C125.203 90.0695 125.694 94.7457 125.268 99.5865C124.875 104.131 123.892 108.609 121.696 112.594C120.549 114.636 118.78 116.414 117.076 118.093C112.554 122.539 107.507 126.293 101.773 128.993C95.1533 132.155 88.1735 134.196 80.8333 134.822C72.6082 135.547 64.547 134.723 56.6825 132.155C49.1128 129.685 42.2641 125.832 36.2673 120.432C36.6278 120.53 37.0538 120.596 37.3815 120.761C44.7873 124.054 52.5863 124.943 60.582 124.581C66.6115 124.317 72.5427 123.395 78.3428 121.683C87.6164 118.95 95.907 114.405 102.985 107.72C104.034 106.732 104.984 105.58 105.902 104.394C96.3003 107.391 86.6006 108.906 76.4094 107.358C79.162 106.667 81.7508 106.074 84.3068 105.349C89.0255 103.966 93.6132 102.221 97.5455 99.0925C100.331 96.8862 102.723 94.3505 104.787 91.4526C104.886 91.288 104.984 91.1233 105.017 91.0575C102.756 90.4647 100.527 89.872 98.3319 89.2792C97.2506 90.6952 96.2347 92.3418 94.8912 93.7248C90.5984 98.2693 85.1588 100.443 79.0637 101.101C75.4264 101.496 71.8873 100.904 68.4138 99.7511C63.9244 98.2363 59.3695 96.7874 55.4372 94.0212C52.9468 92.2759 50.5874 90.3659 48.1297 88.5547C47.9004 88.3901 47.6382 88.2254 47.376 88.0608C47.4416 87.962 47.5071 87.8961 47.6054 87.7973C49.3094 88.423 51.0134 89.0816 52.7502 89.6085C59.5989 91.7161 66.5132 92.3747 73.4602 90.1683C77.2614 88.9828 80.7349 87.1058 83.4548 84.0762C85.978 81.2442 87.4526 77.8523 88.5012 74.23C89.5171 70.7723 88.9272 67.5121 87.6492 64.3179C87.5181 64.0215 87.1904 63.7251 86.8955 63.6263C85.3554 63.0665 83.8152 62.4738 82.2423 62.0457C81.7508 61.9139 81.0954 62.0127 80.6039 62.2432C77.032 63.8568 74.345 63.297 71.7562 60.2674C71.0681 59.4441 70.4782 58.5221 69.7573 57.7647C69.4296 57.4354 68.8725 57.1719 68.4465 57.139C67.7256 57.1061 67.0047 57.3037 66.2838 57.4354C64.3832 57.7647 62.712 57.3695 61.3357 55.9206C60.8114 55.3608 60.3854 55.262 59.9594 56.0852C58.7797 58.4892 56.7808 59.7076 54.1592 59.971C47.802 60.5967 43.0505 57.8964 39.7736 52.5617C36.4967 47.194 35.5136 41.3982 37.1193 35.2402C38.3318 30.6629 41.1172 27.1393 44.6562 24.1097C50.8168 18.8737 58.026 16.1405 65.8578 14.7903C67.4962 14.5269 69.1347 14.2634 70.7404 14C73.5585 14 76.3439 14 79.162 14C79.4242 14.0659 79.6863 14.1976 79.9813 14.2305C81.8163 14.461 83.7169 14.5927 85.552 14.955C95.2516 16.7332 104.067 20.5532 111.833 26.6453C117.305 30.9263 122.09 35.9317 125.858 41.8263C126.153 42.2544 126.284 42.7813 126.513 43.2423C126.12 43.0118 125.727 42.7484 125.334 42.5179C121.106 39.9163 117.043 36.9526 112.586 34.7462C104.132 30.5641 95.1206 28.5553 85.6503 28.7529C85.2898 28.7529 84.8966 28.7529 84.5034 28.7529C85.4537 27.9296 86.404 27.271 87.4198 26.7441C88.4357 26.2172 89.5171 25.7891 90.7295 25.2622C77.9496 21.7057 65.8578 22.3644 54.5525 29.6749C57.2068 24.2414 61.8927 20.9154 66.5459 17.3589C58.5503 17.8858 49.3094 22.4631 44.263 28.2919C41.0516 32.013 39.3149 36.3269 39.4459 41.2665C39.5442 44.7901 40.8878 47.9185 42.6573 50.8822C44.0336 53.1873 45.9014 54.9656 48.2936 56.184C48.7523 56.4145 49.3094 56.5463 50.0959 56.7768C49.6043 55.5583 49.2439 54.6692 48.8834 53.7472C48.2608 52.1336 47.8676 50.487 48.2936 48.7417C48.7523 46.9305 49.4405 45.2182 50.9151 43.9668C51.1117 43.8021 51.4394 43.7692 51.7016 43.6704C51.7671 43.9009 51.8982 44.1644 51.9309 44.3949C51.9309 44.8559 51.8654 45.3169 51.8326 45.8109C51.7671 46.6671 51.8326 47.4904 52.7502 47.8526C53.6349 48.1819 54.192 47.5562 54.6835 46.9305C54.7819 46.7988 54.8802 46.6671 54.9785 46.5024C56.2565 44.362 57.6 42.2215 58.8452 40.0151C59.9921 38.0064 61.0735 35.9317 63.3673 34.9438C63.5967 34.845 63.8261 34.8121 64.1538 34.7133C64.0883 34.9768 64.0883 35.0755 64.0227 35.1414C60.9752 39.62 60.4181 44.7571 60.4509 49.9602C60.4837 53.9118 64.3176 56.4804 67.6273 54.9327C68.2172 54.6692 68.3155 54.4387 68.0533 53.813C67.4962 52.3641 66.8409 50.8822 66.6115 49.3345C65.9561 44.8888 67.5618 41.0689 70.3144 37.71C70.8715 37.0514 71.7235 36.5904 72.5427 36.2281C73.3619 35.8329 73.9518 36.294 73.8207 37.216C73.7551 37.8088 73.493 38.3686 73.3291 38.9614C73.067 39.8505 72.9031 40.7725 73.3619 41.5299C75.2625 40.1469 76.9993 38.665 78.9654 37.4465C85.8469 33.1985 93.2855 31.9801 101.216 33.6595C106.131 34.6804 110.588 36.755 114.88 39.2577C119.304 41.8592 123.63 44.5595 127.005 48.5441C130.839 53.0227 133.69 57.9952 134.476 63.9886C134.575 64.8118 134.837 65.6022 135 66.3925C135 72.0895 135 77.6547 135 83.22ZM120.156 57.633C120.189 57.6659 120.222 57.6988 120.287 57.7318C120.254 57.6988 120.222 57.633 120.222 57.6C120.189 57.4025 120.222 57.2049 120.156 57.0073C118.387 51.3432 115.405 46.5354 110.096 43.6046C107.278 42.0568 104.296 40.7725 101.478 39.4224C105.639 39.126 109.801 39.9163 113.963 41.1677C113.733 40.8384 113.471 40.6408 113.176 40.4762C109.736 38.4345 105.967 37.0843 102.1 36.1623C99.1839 35.4707 96.2019 35.0426 93.1544 35.3719C89.2549 35.8 85.6175 37.1831 82.1112 38.8626C77.7857 40.9372 74.1811 43.868 72.0184 48.2478C71.3302 49.6638 70.6748 51.3103 70.7404 52.8251C70.8715 56.2828 72.7065 58.9502 75.4919 60.959C76.4094 61.6176 77.458 61.9139 78.5722 61.5188C78.5394 61.3871 78.5722 61.3212 78.5394 61.2553C78.4411 61.1565 78.3428 61.0577 78.2445 60.9919C76.9993 60.0369 76.3767 58.7197 76.1145 57.2378C75.8524 55.6901 76.3111 54.3728 77.458 53.3191C78.4739 52.397 78.8999 52.5617 79.2276 53.8789C79.7846 55.9535 80.6039 57.9293 82.3079 59.3124C86.5678 62.7372 93.2527 62.6713 96.9884 59.4112C97.2178 59.2136 97.4799 59.0819 97.7421 58.9173C97.8076 58.9831 97.9059 59.049 97.9715 59.1148C97.6765 59.9052 97.3161 60.6955 97.0867 61.5188C96.9229 62.0786 96.7262 62.8031 96.9229 63.297C97.4472 64.5813 98.1353 65.8327 98.8235 67.0511C99.1512 67.6109 99.6427 67.7426 100.364 67.6109C101.805 67.3804 103.28 67.1499 104.722 67.2487C108.195 67.5121 111.603 68.1378 114.815 69.5538C115.503 69.8502 115.896 69.5209 115.863 68.8293C115.863 68.1378 115.765 67.4133 115.601 66.7547C114.225 61.2883 111.374 56.7438 107.016 53.1215C106.328 52.5617 105.672 51.936 104.787 51.1457C108.589 51.7713 111.997 52.5946 115.11 54.4387C116.879 55.4596 118.485 56.5792 120.156 57.633Z" fill="#34D9C3"/>
<path d="M15.0655 70.1137C15.1966 69.4222 15.3277 68.7636 15.426 68.072C16.9006 55.295 21.947 44.0986 30.4015 34.4499C31.5484 33.1327 32.7936 31.9143 34.0061 30.6629C34.1699 30.4983 34.3993 30.3665 34.7597 30.3336C34.5631 30.7617 34.3665 31.2227 34.1699 31.6508C31.4828 37.2161 29.615 43.0448 28.8285 49.1699C27.911 56.25 28.763 63.1654 30.8602 69.9491C33.0558 77.0621 36.7587 83.2859 42.2311 88.3902C46.9498 92.8029 52.1929 96.3923 57.9275 99.2572C60.8111 100.706 63.7931 101.958 66.7423 103.308C57.3049 103.637 48.064 102.682 39.413 98.3023C39.3474 98.4669 39.2819 98.6316 39.2163 98.7962C41.9689 100.607 44.656 102.55 47.4741 104.23C53.8313 108.05 60.7784 110.157 68.0531 111.145C73.4272 111.87 78.8669 112.265 84.2738 112.792C84.4049 112.792 84.5032 112.825 84.7326 113.055C83.0613 113.845 81.4229 114.702 79.7517 115.426C71.8216 118.917 63.4654 119.806 54.9455 119.279C51.4392 119.049 47.8674 118.752 44.4266 118.028C38.0039 116.678 32.597 113.253 27.7799 108.807C20.7018 102.221 17.2938 93.8237 15.8192 84.4714C15.5571 82.759 15.2949 81.0467 15 79.3672C15.0655 76.3047 15.0655 73.2092 15.0655 70.1137Z" fill="#33D8C3"/>
<path d="M126.71 43.3741C126.71 43.407 126.677 43.44 126.677 43.44C126.645 43.44 126.645 43.407 126.612 43.407C126.645 43.3741 126.645 43.3412 126.677 43.3082C126.677 43.3412 126.71 43.3741 126.71 43.3741Z" fill="#34D9C3"/>
</svg>
