<svg width="150" height="150" viewBox="0 0 150 150" fill="none" xmlns="http://www.w3.org/2000/svg">
<path d="M65.1168 16C65.1168 16.0705 65.1168 16.141 65.1168 16.2114C62.5041 16.2114 59.8678 16.2349 57.255 16.2349C41.861 16.2349 26.4669 16.2349 11.0493 16.2114C11.0493 16.141 11.0493 16.0705 11.0493 16C29.0797 16 47.11 16 65.1168 16Z" fill="#B6F3DE"/>
<path d="M84.842 16.1879C84.842 16.1175 84.842 16.047 84.8656 16C102.872 16 120.903 16 138.91 16C138.91 16.0705 138.91 16.1645 138.91 16.2349C121.35 16.2349 103.814 16.2349 86.2543 16.2349C85.7836 16.2349 85.3128 16.2114 84.842 16.1879Z" fill="#B6F3DE"/>
<path d="M84.842 16.188C85.3127 16.2115 85.7835 16.235 86.2543 16.235C103.814 16.235 121.35 16.235 138.909 16.235C138.839 16.6344 138.886 17.1277 138.674 17.4566C137.521 19.2657 136.273 21.0277 135.096 22.8132C132.484 26.7601 132.319 30.848 134.602 34.9829C137.921 41.0442 141.263 47.1056 144.606 53.1669C144.747 53.4019 144.935 53.6368 144.982 53.8952C145.029 54.1536 144.982 54.5061 144.841 54.694C144.77 54.8115 144.323 54.7645 144.135 54.647C143.452 54.2006 142.793 53.7073 142.111 53.2374C132.436 46.3068 122.786 39.3762 113.088 32.4925C112.57 32.1166 111.817 31.8817 111.158 31.8817C107.509 31.8347 103.884 31.8582 100.236 31.8582C100.024 31.8582 99.8123 31.9052 99.5534 31.9287C101.954 33.9257 104.355 35.7817 106.591 37.8491C116.007 46.5417 122.903 56.8554 126.269 69.3305C129.118 79.8791 129.165 90.5217 126.316 101.07C122.597 114.885 113.747 124.282 100.589 129.733C93.2687 132.763 85.6187 134.196 77.7334 134.478C67.7767 134.854 58.126 133.421 48.9225 129.545C33.7638 123.131 24.8899 111.666 22.4184 95.4789C18.9111 72.5726 26.6082 53.5428 43.2968 37.8491C45.2976 35.9696 47.5102 34.3485 49.6286 32.6335C49.864 32.4456 50.0759 32.2576 50.4996 31.9287C49.8876 31.8817 49.5109 31.8582 49.1343 31.8582C45.6977 31.8582 42.2376 31.8112 38.801 31.8817C38.1184 31.9052 37.3181 32.1401 36.7767 32.5395C26.7023 39.7051 16.6515 46.9176 6.60061 54.0832C6.15338 54.4121 5.54138 54.5061 5 54.694C5.11769 54.1302 5.14123 53.5193 5.40015 53.0494C8.67198 47.0586 11.9909 41.0677 15.2862 35.0768C17.6165 30.848 17.4282 26.7131 14.7449 22.6957C13.5679 20.9337 12.344 19.1952 11.2141 17.4097C11.0258 17.1042 11.0964 16.6109 11.0493 16.2115C26.4669 16.235 41.861 16.235 57.2786 16.235C59.8913 16.235 62.5276 16.2115 65.1404 16.2115C65.9878 16.7283 65.5641 17.2922 65.2581 17.903C62.6924 22.9776 59.9384 28.0053 57.6081 33.1974C53.1123 43.1821 49.9346 53.5898 48.0751 64.3734C46.0979 75.7678 45.6507 87.2091 47.7456 98.6505C49.1814 106.497 51.7942 113.851 57.3257 119.818C62.2216 125.081 68.271 128.041 75.5443 127.83C83.053 127.642 89.0318 124.212 93.763 118.526C98.2823 113.099 100.66 106.662 102.001 99.8487C104.238 88.5248 103.979 77.1539 102.119 65.8065C99.318 48.7736 93.3158 32.8919 84.7243 17.95C84.3477 17.3392 83.8769 16.7048 84.842 16.188Z" fill="#01D88E"/>
</svg>
