<svg width="51" height="50" viewBox="0 0 51 50" fill="none" xmlns="http://www.w3.org/2000/svg">
<g clip-path="url(#clip0)">
<path d="M50.5 6.32771C46.1123 3.72721 41.5165 1.79809 36.6738 0.666992V0.67129L33.6867 6.26646C33.4083 6.22013 33.1336 6.17782 32.8635 6.13928C32.782 5.96455 32.6863 5.81104 32.5751 5.6758C31.2453 4.06216 27.292 4.14623 25.8362 4.87026C25.3717 5.10166 24.879 5.50013 24.3677 6.05749C22.1786 6.35148 20.071 6.90413 18.084 7.70565L14.3264 0.666992C9.48363 1.79809 4.88806 3.72721 0.5 6.32771L6.63265 16.9064C6.11935 17.4917 5.26801 18.8419 4.78989 19.7738C5.05044 20.2606 5.54467 20.7569 6.04938 21.0823C4.32144 23.3563 1.96913 27.612 0.797077 30.5153C6.21135 36.3747 10.3446 39.3343 17.7486 36.0819L25.5012 49.4558L50.4974 6.33617L50.5 6.32771Z" fill="white"/>
<path d="M6.10161 19.6748C6.36216 19.9894 6.87721 20.4371 7.61963 20.7627C5.6568 23.3109 3.43343 27.1819 2.07429 30.2786C8.05921 36.3111 11.0431 38.0053 18.1966 34.7127L25.5012 47.3131L49.0291 6.72666C45.3769 4.62039 41.4142 2.98956 37.2262 1.91836L34.2694 7.45672C33.527 7.31826 32.7856 7.20101 32.0478 7.11184C31.9841 6.79112 31.8857 6.52749 31.7437 6.35531C30.842 5.26075 27.523 5.22824 26.317 5.82844C25.8814 6.04521 25.3873 6.49888 24.9087 7.06872C22.3703 7.3701 19.9172 8.03167 17.5988 9.07789L13.7742 1.91406C9.58542 2.98418 5.62175 4.61394 1.96899 6.719L7.91443 16.975C7.28119 17.8176 6.67603 18.7166 6.10161 19.6748Z" fill="#111820"/>
<path d="M15.4146 18.3851C15.7197 18.7208 18.6982 19.3508 18.5727 17.0059C17.3802 17.0977 16.2184 17.6598 15.4146 18.3851Z" fill="#FF5000"/>
<path d="M20.7653 28.4511L21.075 26.6579L23.1409 26.748L22.5205 24.3496C18.7665 26.5698 17.9257 30.8141 17.134 32.4744C18.9926 30.8124 21.9648 28.9855 25.9611 28.3196C25.664 26.9907 24.9604 25.6056 24.2372 24.6895L24.4424 27.7976L21.9061 27.8597L21.3775 28.9727L19.8255 29.1134L18.9569 30.3505L19.4567 28.7363L20.7653 28.4511Z" fill="white"/>
<path d="M12.6873 9.62447C12.9058 9.07571 13.7744 8.18327 15.291 7.80588L13.0423 3.59375C9.88697 4.48418 6.83656 5.71371 3.94409 7.26115L8.80423 15.6451C9.77873 14.5644 11.0045 13.3751 12.4904 12.2307C12.3545 11.3237 12.3749 10.4087 12.6873 9.62447ZM35.7003 7.82723L37.9579 3.59845C41.1123 4.48982 44.1626 5.72083 47.0544 7.26907L44.2846 12.0469C42.9046 11.1711 40.9313 10.3443 39.203 9.76535L39.653 8.98895C38.5764 8.57395 37.2331 8.17561 35.7003 7.82723Z" fill="#FF5000"/>
<path d="M26.9356 11.5886C26.1763 11.4159 25.4135 11.291 24.6699 11.214C25.5505 9.53739 27.8182 8.05738 28.9641 8.39622C28.3491 8.73682 27.233 10.0588 26.9356 11.5886ZM37.0779 10.6234L37.5356 9.83366C35.6332 9.24488 33.8273 8.84681 32.1156 8.6095C32.0502 9.65773 31.7964 10.8513 31.4057 11.7996C32.5999 12.6293 33.8836 14.2622 34.1625 15.7197C33.1716 14.2443 31.4149 13.1109 29.4129 12.3393C30.1835 10.8861 30.835 8.16643 30.333 7.44496C29.9 6.82314 27.8951 6.73987 26.8308 7.17891C25.6894 7.65017 24.1713 9.35998 22.7747 11.097C22.8925 10.4257 23.2653 9.56264 23.7538 8.72285C14.5705 10.378 9.45407 16.8143 7.83183 19.1784C8.14677 19.367 8.51436 19.5024 8.92036 19.5843C9.21032 18.5516 11.0141 17.0103 11.8315 16.4662C11.1385 17.2858 10.3906 18.959 10.525 19.648C13.6494 19.618 15.4758 15.6294 20.4479 16.0309L19.5566 16.6235C19.7532 17.5493 19.5249 19.2841 17.2826 19.6235C17.9104 19.796 18.4466 20.0651 18.8406 20.465C14.1137 19.4396 11.9869 21.5221 9.05667 21.0745C6.84055 24.1463 5.33797 26.6068 3.72607 29.8719C5.03109 29.1763 8.07143 29.0272 9.73839 29.6491L9.82247 31.1734C8.2201 31.617 7.97594 33.6503 10.4566 34.55C12.0798 35.1385 15.1406 35.1886 16.3005 31.6316C17.3442 28.432 19.408 23.4561 24.8298 21.6312L24.1879 22.8305C25.7609 24.2239 27.243 26.9729 27.5856 29.5274C23.5572 29.6082 19.8958 31.2596 17.134 34.0104C19.9553 32.3887 22.6943 31.576 26.2333 31.4836C30.7074 31.3668 31.8859 28.6392 30.5871 24.9471C32.2657 26.2363 32.7576 28.8619 31.6514 30.7536C30.7869 32.2325 28.9369 32.9337 26.5353 32.8782C23.7981 32.8148 21.3905 33.2568 19.73 33.9279L22.6244 38.9205L23.5644 37.2991L26.6032 42.5479L43.5649 13.2881C41.9565 12.2527 39.1724 11.168 37.0779 10.6234Z" fill="white"/>
</g>
<defs>
<clipPath id="clip0">
<rect width="50" height="50" fill="white" transform="translate(0.5)"/>
</clipPath>
</defs>
</svg>
