<svg width="150" height="150" viewBox="0 0 150 150" fill="none" xmlns="http://www.w3.org/2000/svg">
<path d="M89.7698 57.5639C89.1605 57.5639 88.7318 57.5639 88.303 57.5639C66.1878 57.5639 44.0725 57.5186 21.9573 57.6092C17.6471 57.6318 13.743 56.4999 10.0647 54.4172C6.16067 52.2439 3.00135 49.1878 0.293365 45.6789C0.203099 45.5205 0.135399 45.362 0 45.0903C41.703 45.0903 83.3158 45.0903 125.041 45.0903C123.62 47.6711 121.747 49.7311 119.558 51.5195C115.744 54.6209 111.298 56.3414 106.537 57.3601C106.018 57.4733 105.431 57.8355 105.138 58.2657C98.819 67.4114 92.5455 76.5572 86.2494 85.7256C82.1649 91.6567 78.0803 97.5879 74.0184 103.542C73.4993 104.311 73.0706 104.379 72.3033 103.904C70.0241 102.5 68.1059 100.712 66.6165 98.5161C65.082 96.2296 65.2174 93.7394 66.7519 91.4983C74.244 80.5415 81.7136 69.562 89.1831 58.6052C89.3636 58.3336 89.499 58.0393 89.7698 57.5639Z" fill="#D03435"/>
<path d="M125.651 57.8358C122.108 57.8358 118.723 57.8358 115.36 57.8358C115.36 57.7905 115.338 57.7678 115.338 57.7226C116.579 57.3377 117.82 56.9755 119.039 56.5454C124.974 54.4174 130.006 51.0217 133.73 45.8376C134.181 45.2264 134.655 45 135.399 45C139.868 45.0453 144.336 45.0226 148.804 45.0226C149.143 45.0226 149.458 45.0226 150 45.0226C148.894 46.6752 147.901 48.192 146.886 49.7087C141.673 57.3377 136.46 64.9441 131.247 72.5731C124.184 82.9187 117.098 93.2643 110.035 103.632C109.561 104.334 109.177 104.447 108.41 103.995C106.131 102.591 104.212 100.825 102.723 98.6295C101.121 96.2977 101.256 93.8302 102.836 91.4985C110.17 80.7454 117.504 69.9924 124.816 59.2393C125.087 58.8318 125.312 58.4017 125.651 57.8358Z" fill="#D03435"/>
<path d="M21.867 60.6427C42.4703 60.6427 63.051 60.6427 83.8348 60.6427C82.3455 62.8612 80.9689 64.9666 79.5021 67.0493C79.3441 67.2756 78.7799 67.3209 78.3963 67.3209C71.3104 67.3436 64.2019 67.3209 57.116 67.3209C49.2403 67.3209 41.342 67.2077 33.4663 67.3662C30.1941 67.4341 27.5989 66.189 25.1618 64.2874C23.898 63.2913 22.702 62.1821 21.4834 61.1407C21.5962 60.9823 21.7316 60.8012 21.867 60.6427Z" fill="#D03435"/>
<path d="M34.1882 70.6036C48.518 70.6036 62.7124 70.6036 77.0873 70.6036C75.7333 72.6184 74.4921 74.52 73.1833 76.3763C73.0253 76.6254 72.5514 76.7612 72.2129 76.7612C62.4867 76.7838 52.7831 76.7838 43.0569 76.7612C42.6507 76.7612 42.2445 76.648 41.8609 76.5122C38.8144 75.4935 35.9259 73.2749 34.1882 70.6036Z" fill="#D03435"/>
<path d="M46.4871 80.0663C54.4757 80.0663 62.4643 80.0663 70.5657 80.0663C70.4303 80.3379 70.3626 80.5643 70.2497 80.7681C69.0763 82.5112 67.9479 84.2996 66.7068 85.9974C66.436 86.3596 65.8267 86.6766 65.3528 86.6992C62.9156 86.7671 60.4784 86.6087 58.0412 86.7671C54.3403 87.0161 51.4292 85.4541 48.8341 83.0771C47.9088 82.2395 47.119 81.2435 46.2615 80.3379C46.3517 80.2474 46.4194 80.1568 46.4871 80.0663Z" fill="#D03435"/>
</svg>
