<svg width="150" height="150" viewBox="0 0 150 150" fill="none" xmlns="http://www.w3.org/2000/svg">
<g clip-path="url(#clip0)">
<path d="M10 90.1967C10.2342 88.1361 10.4683 86.1224 10.7493 84.0618C13.5123 66.7343 23.3937 55.4012 39.6909 49.4536C42.9691 48.236 46.4346 47.5336 49.8064 46.5969C50.1342 46.5033 50.4621 46.4565 51.1177 46.2691C44.4677 43.2251 37.9113 41.9138 30.9335 44.1617C31.0272 43.9744 31.074 43.8807 31.1677 43.8339C38.8948 37.4649 47.1839 32.1261 57.0652 29.8314C71.6765 26.4127 84.2741 30.2997 94.9984 40.6494C95.2326 40.8836 95.4199 41.1645 95.6072 41.3987C95.7009 41.3519 95.7946 41.3519 95.8882 41.305C96.6375 27.5367 97.3868 13.8152 98.1361 0.0468311C98.2298 0.0468311 98.2766 0 98.3703 0C103.334 16.7655 108.252 33.5311 113.216 50.2966C113.309 50.2966 113.356 50.2498 113.45 50.2498C114.34 38.823 115.276 27.3494 116.166 15.9226C116.213 15.9226 116.26 15.8757 116.307 15.8757C116.4 16.1099 116.541 16.3441 116.588 16.5782C123.05 38.3078 129.466 60.0375 135.929 81.7671C136.116 82.4227 135.976 82.8442 135.554 83.3125C134.009 85.0453 132.51 86.778 131.012 88.5576C130.543 89.1196 130.122 89.3069 129.419 89.0728C128.67 88.8386 127.874 88.7449 126.984 88.6044C126.001 92.6787 126.141 96.5189 128.342 100.078C130.543 103.637 133.868 105.604 137.662 106.541C137.896 107.993 138.036 109.351 138.411 110.662C138.786 111.973 139.394 113.191 139.956 114.596C134.056 116.656 131.152 121.012 130.45 127.24C126.89 126.865 123.425 127.146 120.24 128.973C117.103 130.799 115.042 133.515 113.731 137.028C111.249 133.234 109.422 129.394 109.235 124.945C109.188 123.587 109.141 122.276 109.095 120.918C109.001 117.078 107.643 113.612 105.723 110.381C104.177 107.805 101.883 105.979 99.1196 104.995C95.5136 103.731 91.7671 102.841 88.1143 101.717C85.4917 100.921 82.8692 100.125 80.3403 99.0478C77.4368 97.7833 75.2825 95.5823 74.1118 92.5383C73.9713 92.1636 73.8776 91.789 73.7371 91.3206C77.2026 91.3675 80.2935 90.6182 82.7755 87.8551C78.748 86.8717 74.5332 86.3097 73.4093 81.2988C74.6737 81.1583 75.7977 81.2051 76.7811 80.8773C78.2797 80.3622 79.7783 79.7065 81.1833 78.8636C81.8857 78.4421 82.4477 77.5991 82.916 76.803C83.5716 75.6791 83.3375 75.3512 82.0731 75.3044C75.1889 75.0703 69.5223 77.5055 65.167 82.9379C64.8392 83.3594 64.5582 83.8277 64.1836 84.3428C64.4646 84.4833 64.6519 84.6238 64.9329 84.8111C63.7621 87.9488 63.247 91.1802 63.3406 94.552C63.4343 97.877 64.0431 101.155 65.2607 104.34C66.9466 104.012 68.5857 103.731 70.178 103.356C70.8804 103.169 71.2082 103.356 71.4892 104.059C73.5966 108.835 76.4533 113.097 80.1061 116.844C80.6681 117.406 81.0896 117.499 81.7452 117.078C83.0097 116.282 84.3678 115.579 85.7727 114.783C90.7368 125.648 97.4336 135.014 107.971 141.524C106.847 142.226 105.863 142.835 104.88 143.35C103.147 144.24 101.321 144.989 99.5879 145.832C98.9791 146.113 98.6044 145.973 98.1361 145.598C91.2519 140.212 86.1005 133.562 82.7287 125.507C82.354 124.618 81.9794 124.477 81.1364 124.664C75.5635 125.648 70.0375 126.631 64.4646 127.568C64.2772 127.615 64.0899 127.615 63.8089 127.474C67.5086 125.273 71.2551 123.072 75.0016 120.871C74.9079 120.684 74.8611 120.543 74.8142 120.45C72.1917 117.593 70.1311 114.362 68.3515 110.99C67.8832 110.147 67.3213 109.866 66.4315 109.678C61.4205 108.835 56.4096 107.946 51.3519 107.056C51.1645 107.009 51.024 106.962 50.8367 106.775C54.1149 106.166 57.3931 105.604 60.8117 104.995C59.079 101.342 58.517 97.5492 58.8448 93.709C59.0322 91.4143 59.4536 89.1196 59.9219 86.8717C60.1093 85.9819 59.9688 85.5604 59.1726 85.1858C58.2829 84.7175 57.4399 84.1087 56.5969 83.3125C57.7209 83.453 58.8448 83.6872 59.9688 83.734C60.3434 83.7808 60.9522 83.5467 61.0927 83.2657C65.2139 76.7093 71.1614 73.759 78.7949 73.9463C79.029 73.9463 79.2164 73.9463 79.4505 73.9463C79.4505 73.8526 79.4973 73.7122 79.4973 73.6185C78.1861 73.3843 76.9216 73.0097 75.6104 72.916C61.28 71.7452 48.823 80.3622 44.8892 94.3178C41.7046 105.604 43.6247 116.282 49.3381 126.303C55.754 137.59 65.5885 144.708 77.7178 148.876C78.5139 149.157 79.3568 149.391 80.2935 149.719C75.0952 151.124 60.3434 147.846 52.3353 143.584C43.6247 138.948 36.7874 132.345 31.5891 124.009C26.3909 115.673 23.3937 106.588 23.1127 96.4721C16.5095 99.8907 13.7465 105.979 12.1074 112.957C11.7796 111.13 11.4049 109.304 11.1708 107.477C10.7961 104.621 10.5151 101.717 10.2342 98.8605C10.1873 98.4858 10.0937 98.158 10.0468 97.8302C10 95.2545 10 92.7256 10 90.1967ZM114.995 75.1171C114.902 75.2107 114.808 75.3044 114.761 75.3981C114.621 76.7562 114.667 78.1611 114.34 79.4724C114.012 80.8305 113.356 82.0949 112.841 83.4062C112.607 84.0618 112.42 84.7175 112.326 85.3731C112.092 87.4805 112.701 88.7449 114.714 89.4474C116.026 89.9157 116.915 90.5714 117.618 91.7421C118.039 92.4446 118.742 93.0534 119.397 93.6154C119.772 93.9432 120.287 94.0837 120.615 94.3178C120.006 90.9928 119.491 87.7615 118.789 84.577C118.227 82.1417 117.571 79.7534 116.728 77.4118C116.447 76.522 115.604 75.8664 114.995 75.1171Z" fill="white"/>
</g>
<defs>
<clipPath id="clip0">
<rect width="150" height="150" fill="white"/>
</clipPath>
</defs>
</svg>
