<svg width="150" height="150" viewBox="0 0 150 150" fill="none" xmlns="http://www.w3.org/2000/svg">
<path d="M51.3678 20C55.6387 24.1564 59.7854 28.2132 64.0066 32.2452C64.4287 32.6434 65.1488 32.9172 65.7199 32.8923C68.3519 32.7927 70.984 32.519 73.616 32.3945C74.063 32.3696 74.6838 32.6185 74.9569 32.9421C75.9253 34.1616 76.7944 35.4558 77.7628 36.8496C76.4716 37.7207 75.23 38.6167 73.9388 39.4131C73.3429 39.7864 73.1194 40.1847 73.1194 40.9064C73.2684 56.4618 73.3926 72.0172 73.5664 87.5725C73.5664 88.4934 73.3429 89.0659 72.5483 89.6134C70.6612 90.9076 68.8486 92.3512 66.8869 93.8196C69.9908 97.08 73.0698 100.266 76.2481 103.601C71.4558 106.811 66.6883 109.972 61.896 113.183C58.8915 109.201 55.9118 105.243 52.8576 101.187C47.7673 105.318 42.6771 109.425 37.4875 113.631C33.9615 109.275 30.4356 104.92 26.8351 100.465C25.9164 100.888 25.0225 101.336 24.0789 101.709C23.7561 101.834 23.2843 101.983 23.0609 101.834C19.8081 99.7182 16.1828 99.8924 12.5575 99.992C12.4334 99.992 12.3092 99.9422 12.2099 99.9173C11.465 97.3538 12.7562 94.0187 15.2392 93.1476C17.6726 92.3014 18.0699 90.833 18.0699 88.5681C18.0947 74.058 18.2686 59.5231 18.3679 45.013C18.3679 44.0175 18.5169 43.2957 19.4604 42.6486C29.9638 35.2567 40.4175 27.7901 50.896 20.3484C51.045 20.224 51.1691 20.1493 51.3678 20ZM42.3294 38.8904C40.4175 40.782 38.5552 42.6486 36.7177 44.5402C36.4446 44.8139 36.2708 45.3117 36.2708 45.7099C36.1714 59.2742 36.0721 72.8385 35.9976 86.4277C35.9976 86.801 36.1218 87.2739 36.3701 87.5228C39.5484 90.5343 42.7516 93.5209 45.9795 96.5324C47.2956 95.6116 48.4378 94.5911 49.7786 93.9191C52.2617 92.6498 53.4287 90.8329 52.8825 88.0205C52.7583 87.3734 52.9073 86.7014 52.8576 86.0294C52.8328 85.681 52.7583 85.2579 52.5348 85.009C51.4175 83.7895 50.2752 82.5948 49.1082 81.4251C46.1534 78.5629 43.1489 75.7256 40.0947 72.7887C43.7696 69.8519 47.3452 66.9897 50.9457 64.1275C51.5664 64.8493 52.1127 65.4715 52.6838 66.1435C52.7831 65.9941 52.8576 65.9195 52.8576 65.8697C52.8576 59.4982 52.8825 53.1267 52.8576 46.7552C52.8576 46.4068 52.6093 45.9588 52.3114 45.7597C49.0089 43.4699 45.6816 41.2051 42.3294 38.8904Z" fill="white"/>
<path d="M120.274 62.8335C120.274 57.6069 120.249 52.6789 120.298 47.751C120.298 46.7306 120.075 46.0337 119.231 45.3368C116.524 43.047 113.917 40.6328 111.21 38.1938C109.125 39.6124 107.039 41.0062 105.003 42.4497C104.779 42.599 104.705 43.0968 104.68 43.4453C104.332 54.8193 103.985 66.1934 103.662 77.5675C103.587 80.4546 103.438 83.3666 103.414 86.2537C103.414 86.8012 103.662 87.4732 104.034 87.8465C106.07 89.9621 108.131 92.0527 110.267 94.0687C110.59 94.3922 111.285 94.5664 111.732 94.4669C114.289 93.8447 116.797 93.098 119.355 92.4758C120.274 92.2518 120.447 91.8038 120.447 90.9327C120.398 86.179 120.447 81.4253 120.423 76.6467C120.423 75.9498 120.596 75.5267 121.267 75.2031C127.077 72.4903 132.838 69.7276 138.648 66.9899C138.748 66.9401 138.872 66.9401 139.145 66.8903C139.145 67.8361 139.17 68.7072 139.145 69.6032C138.897 76.6715 138.673 83.7399 138.4 90.8083C138.375 91.1567 138.176 91.6047 137.903 91.8038C127.474 99.5442 117.046 107.235 106.592 114.95C106.567 114.975 106.517 114.975 106.368 115C104.357 113.283 102.296 111.516 100.235 109.748C96.8831 106.886 93.531 103.999 90.154 101.162C89.8312 100.888 89.2849 100.739 88.838 100.739C85.5851 100.714 82.3323 100.714 79.0547 100.714C79.4023 99.5939 79.7251 98.2997 80.2217 97.0304C80.3955 96.6073 80.8922 96.1842 81.3143 96.01C84.0705 94.9647 84.7409 93.0731 84.7161 90.1363C84.5671 75.4022 84.6912 60.6682 84.6912 45.9341C84.6912 45.1128 84.8651 44.5901 85.5851 44.1173C96.4113 36.9991 107.237 29.8312 118.039 22.6882C118.138 22.6135 118.237 22.5637 118.436 22.4642C121.341 24.8037 124.271 27.1432 127.201 29.4828C128.617 30.6276 129.982 31.8223 131.447 32.8925C132.043 33.3156 132.838 33.5894 133.558 33.6143C136.314 33.7636 139.07 33.7885 142 33.8632C141.702 36.1529 141.603 38.3182 141.057 40.3591C140.808 41.28 139.741 42.0017 138.946 42.7235C138.325 43.2959 138.052 43.9181 138.077 44.7644C138.127 47.9999 138.127 51.2105 138.077 54.446C138.077 54.8442 137.804 55.4665 137.506 55.6158C131.845 58.0051 126.258 60.3446 120.274 62.8335Z" fill="white"/>
</svg>
