<svg width="150" height="150" viewBox="0 0 150 150" fill="none" xmlns="http://www.w3.org/2000/svg">
<path d="M105.257 31.7412C102.171 36.1461 98.5404 39.981 93.7691 42.8571C94.1062 39.0741 94.3914 35.4724 94.7285 31.5339C94.184 31.8967 93.795 32.0522 93.5357 32.3113C89.6201 36.3275 85.7304 40.3697 81.763 44.36C81.0628 45.0596 81.1147 45.5001 81.763 46.1479C83.3707 47.8321 84.9006 49.5681 86.5861 51.3819C84.0708 53.5326 81.2962 54.7245 78.1067 54.3358C77.225 54.2322 76.4471 53.0662 75.721 52.2888C75.1765 51.7188 74.6838 51.5892 74.243 52.2629C72.2203 55.4759 69.4716 54.5431 66.8007 53.5585C65.582 53.118 64.4929 52.2888 63.1704 51.5374C64.804 49.7495 66.2562 48.1689 67.7083 46.5884C68.953 45.2669 68.953 45.2151 67.6824 43.8936C63.9224 40.0328 60.1364 36.172 56.3764 32.3113C56.1171 32.0522 55.806 31.8708 55.5207 31.6376C55.417 31.6894 55.2873 31.7412 55.1836 31.7931C55.5207 35.3947 55.8319 38.9705 56.1949 42.8571C51.2939 39.981 47.7155 36.1202 44.6815 31.6894C44.5259 31.7671 44.3703 31.8449 44.2407 31.9226C44.5519 35.0838 44.863 38.219 45.2001 41.4838C35.1129 34.4619 25.6222 18.2674 27.5151 0C30.1342 5.36362 33.3496 10.0535 37.3171 14.1734C41.2845 18.2933 45.7188 21.7395 51.0865 24.1752C50.6716 20.7808 50.8531 17.5419 51.7088 14.0698C53.6796 16.1427 55.4948 18.0342 57.284 19.9516C62.9111 25.9889 68.5122 32.0263 74.1133 38.0636C74.8134 38.8409 75.2543 38.6595 75.8766 37.9858C82.3334 31.0157 88.8162 24.0715 95.273 17.1273C96.2066 16.1427 97.1401 15.1581 98.2292 14.0439C99.0331 17.1014 99.1627 20.0035 98.9034 22.9314C98.8775 23.2942 98.9034 23.6569 98.9293 24.0197C99.3183 23.942 99.7851 23.9679 100.122 23.7865C107.435 19.7703 113.503 14.3548 118.17 7.41061C119.7 5.13042 120.893 2.64294 122.241 0.259112C122.293 0.181378 122.423 0.129556 122.553 0.0518224C125.405 12.4892 115.499 35.7316 104.79 41.6134C105.101 38.3486 105.412 35.1615 105.723 31.9485C105.568 31.8967 105.412 31.819 105.257 31.7412Z" fill="white"/>
<path d="M104.064 44.8005C103.909 46.3811 103.779 47.7803 103.675 49.1795C103.649 49.4904 103.701 49.8273 103.727 50.1641C104.09 50.1123 104.505 50.1382 104.79 49.9568C107.928 47.8321 111.221 45.8629 114.1 43.4531C121.723 37.1049 127.376 29.2279 131.266 20.1071C131.577 19.4075 131.811 18.682 132.07 17.9565C132.2 17.9565 132.303 17.9565 132.433 17.9824C132.485 21.2213 132.796 24.4861 132.511 27.6991C132.148 32.0781 131.681 36.483 130.67 40.7324C127.584 53.999 120.557 64.778 109.354 72.7069C103.131 77.1118 96.285 80.1952 88.9724 82.2681C88.0649 82.5272 87.9352 83.0973 87.9352 83.9264C87.9611 88.8495 87.9611 93.7727 87.9352 98.6958C87.9352 99.1881 87.8055 99.9395 87.4425 100.173C84.2271 102.323 80.9597 104.422 77.459 106.676C77.459 106.003 77.459 105.614 77.459 105.2C77.459 90.1192 77.459 75.0648 77.4331 59.9845C77.4331 58.7925 77.7443 58.378 78.963 58.2225C88.8428 57.0824 97.1667 52.9366 103.546 45.1632C103.675 45.0596 103.779 45.0078 104.064 44.8005ZM111.169 57.6265C111.066 57.5229 110.962 57.4452 110.858 57.3415C110.651 57.3674 110.417 57.3415 110.262 57.4452C107.15 58.8962 104.012 60.3213 100.927 61.8501C100.408 62.1092 99.8635 62.6533 99.682 63.1715C98.541 66.4363 95.2996 67.4728 92.5509 65.4258C92.2398 65.1926 91.773 64.9594 91.41 65.0112C90.5542 65.1408 89.6985 65.3222 88.9465 65.7108C88.5316 65.9181 88.0648 66.54 88.0389 67.0064C87.9352 68.5092 88.013 70.0121 87.9871 71.5409C87.9611 72.4996 88.3242 72.8364 89.2318 72.5255C91.4359 71.8 93.6919 71.1781 95.8182 70.2971C101.134 68.0947 105.983 65.1926 109.432 60.399C110.028 59.4921 110.573 58.5593 111.169 57.6265Z" fill="white"/>
<path d="M72.3504 106.573C69.2905 104.629 66.3344 102.764 63.456 100.82C63.093 100.561 62.9115 99.8099 62.9115 99.2658C62.8855 89.0827 62.8855 78.8996 62.8855 68.6906C62.8855 66.8509 62.7559 66.825 61.0185 66.3845C53.8615 64.5707 46.9898 62.135 41.3887 57.0305C41.2072 56.8751 40.9478 56.7714 40.3255 56.4346C40.5329 58.637 40.7404 60.5544 40.9478 62.8346C26.2449 51.4078 18.5693 36.7161 17.9729 18.3451C18.5952 19.7702 19.1917 21.2471 19.8659 22.6464C25.5448 34.2028 33.5575 43.6085 44.9931 49.8531C45.3561 50.0604 45.8488 50.0604 46.2637 50.1381C46.2896 49.7236 46.3674 49.309 46.3415 48.8944C46.2119 47.6248 46.0303 46.3292 45.8229 44.6968C46.6267 45.5259 47.1972 46.1219 47.7418 46.7179C53.4466 52.7293 60.4739 56.3568 68.5385 58.067C69.5498 58.2743 70.613 58.1965 71.6243 58.3779C71.9614 58.4556 72.506 58.9739 72.506 59.2848C72.5319 74.8574 72.5319 90.456 72.5319 106.029C72.5319 106.184 72.4541 106.288 72.3504 106.573Z" fill="white"/>
<path d="M29.3567 59.7772C31.7423 61.6946 33.9724 63.5084 36.2284 65.2962C36.6952 65.6849 36.8248 65.9699 36.4358 66.5659C34.5429 69.3902 32.7796 72.3182 30.8866 75.1166C30.2642 76.0494 30.4976 76.3862 31.3274 76.9045C38.5881 81.4908 45.8229 86.103 53.0577 90.7152C53.2651 90.8447 53.4726 91.0261 53.8097 91.2852C52.6428 93.1508 51.5018 95.0164 50.309 96.8302C48.3382 99.8618 46.3674 102.893 44.3708 105.925C43.9299 106.599 44.0336 106.961 44.7079 107.376C46.2897 108.335 47.8714 109.345 49.3755 110.408C50.2312 111.004 50.6979 110.822 51.2166 109.993C52.4094 108.05 53.6541 106.132 54.9247 104.241C55.1062 103.956 55.7545 103.671 55.936 103.774C58.5032 105.329 61.0444 106.961 63.6375 108.62C60.2146 113.906 56.8695 119.114 53.4466 124.452C51.7352 123.363 50.0756 122.301 48.416 121.264C42.8149 117.689 37.2138 114.113 31.6127 110.563C30.6273 109.941 30.4717 109.501 31.1718 108.464C34.128 104.034 36.9804 99.525 39.8847 95.0423C40.4292 94.1872 39.9106 93.9022 39.3401 93.5395C34.2576 90.3006 29.1492 87.0358 24.0667 83.7969C21.9144 82.4236 19.7881 81.0503 17.6358 79.677C17.0912 79.3401 16.7541 79.0551 17.2209 78.3555C21.1365 72.3182 25.0262 66.255 28.9418 60.2177C29.0455 60.0622 29.227 59.9067 29.3567 59.7772Z" fill="white"/>
<path d="M124.368 65.2185C127.324 69.8566 130.228 74.417 133.21 79.081C131.603 80.1175 130.073 81.128 128.517 82.1126C122.553 85.9216 116.589 89.7305 110.599 93.4876C109.691 94.0577 109.717 94.4723 110.261 95.3014C113.373 100.043 116.459 104.837 119.623 109.708C111.947 114.605 104.349 119.451 96.5439 124.426C93.1729 119.166 89.8018 113.958 86.3789 108.594C89.1276 106.832 91.7726 105.148 94.5472 103.36C95.9993 105.614 97.5033 107.765 98.8258 109.993C99.3963 110.952 99.7853 110.926 100.615 110.356C102.041 109.319 103.545 108.361 105.075 107.48C106.061 106.936 106.087 106.521 105.464 105.588C102.327 100.872 99.2667 96.0788 96.129 91.2075C98.774 89.5232 101.341 87.8649 103.908 86.2066C108.887 83.0195 113.866 79.8324 118.871 76.6972C119.674 76.2049 119.752 75.8162 119.234 75.0648C117.47 72.4996 117.496 72.4996 119.571 70.323C121.127 68.7424 122.682 67.0323 124.368 65.2185Z" fill="white"/>
<path d="M74.9954 150C73.7766 147.979 72.6875 146.036 71.4947 144.17C67.7606 138.262 63.4042 132.899 58.3217 128.105C57.6475 127.483 57.4401 127.043 58.0105 126.188C60.9148 121.809 63.7413 117.378 66.5678 112.947C67.1383 112.04 67.7866 111.677 68.8757 111.703C73.0765 111.755 77.2514 111.755 81.4522 111.703C82.2561 111.703 82.7229 111.962 83.1378 112.61C86.0939 117.222 89.076 121.809 92.084 126.369C92.4989 127.017 92.3692 127.405 91.8506 127.924C85.8346 133.598 80.8299 140.024 76.655 147.15C76.1104 148.031 75.5918 148.964 74.9954 150Z" fill="white"/>
<path d="M63.3262 20.4439C68.0197 15.9354 71.8316 10.9864 74.9692 5.23407C78.1069 10.9864 81.9706 15.9354 86.6382 20.4439C82.7486 24.6157 78.9367 28.6837 74.9692 32.9072C71.0536 28.7355 67.2418 24.6675 63.3262 20.4439Z" fill="white"/>
</svg>
