<svg width="150" height="150" viewBox="0 0 150 150" fill="none" xmlns="http://www.w3.org/2000/svg">
<path d="M71.611 33C65.5956 33 59.97 33.3728 54.3274 33.7456C39.2974 34.8809 24.6402 37.5073 10 41.2521L22.7763 55.9093C32.5534 53.6556 42.3136 52.1475 52.0907 51.402C47.5834 69.4312 37.4335 85.2237 22.7763 96.1191V116.792C47.5664 102.897 64.8501 78.4627 70.1199 50.2836C71.2382 44.658 71.611 38.6426 71.611 33Z" fill="#FF5900"/>
<path d="M140 41.2686C125.343 37.5069 110.686 34.8804 95.6725 33.7621C90.03 33.3893 84.0315 33.0165 78.3889 33.0165C78.3889 39.0319 78.7617 44.6576 79.897 50.3001C85.1499 78.4792 102.433 102.524 127.241 116.808V96.1357C112.583 85.2402 102.45 69.4646 97.9262 51.4185C107.703 52.1641 117.463 54.0449 127.241 55.9258L140 41.2686Z" fill="#FF5900"/>
<path d="M67.1042 117.165L82.8968 99.1353V79.9708H67.1042V117.165Z" fill="#FF5900"/>
</svg>
