<svg width="150" height="150" viewBox="0 0 150 150" fill="none" xmlns="http://www.w3.org/2000/svg">
<path d="M140 43.1265C140 41.1282 140 39.1298 140 37.1315C140 36.8817 139.979 36.6736 139.958 36.507C139.958 36.4654 139.937 36.403 139.937 36.3405L139.686 34.2173H118.096V20H32.3424L32.3006 25.2872C32.2797 27.7643 32.2588 30.2414 32.2379 32.7185C32.2379 33.1973 32.2379 33.6761 32.2379 34.1756C25.8006 34.1756 19.3424 34.1756 12.9051 34.1756C12.8424 34.1548 12.7588 34.1548 12.6961 34.1548L10 33.8218V74.7875L10.1463 75.2038C10.2926 75.5993 10.4598 76.0157 10.6061 76.4112C11.0241 77.4936 11.4421 78.5968 11.8392 79.6793C11.8392 79.7625 11.8392 79.8666 11.8392 79.9291V80.0123C11.8392 81.2821 11.8392 82.5935 11.8392 83.8424C11.8392 86.0281 11.8392 88.2971 11.8601 90.5244C11.9019 94.2088 13.1768 97.7267 15.4341 100.433C17.7331 103.18 20.9727 104.971 24.5466 105.491C25.7379 105.658 26.8875 105.678 27.7653 105.678C28.1833 105.678 28.6013 105.678 28.9984 105.658C29.4791 105.658 29.9807 105.637 30.4823 105.658C31.0257 105.658 31.6109 105.658 32.3424 105.658H34.6624C35.4566 105.658 36.3762 105.658 37.3376 105.678C42.3119 110.924 48.1431 115.15 53.2428 118.688C60.7042 123.892 67.0788 127.618 73.328 130.387C73.8714 130.637 74.4984 130.762 75.1045 130.762C75.6688 130.762 76.1913 130.657 76.6511 130.428C88.836 124.704 100.268 117.085 110.635 107.76C110.698 107.718 110.74 107.656 110.823 107.593C111.158 107.302 111.617 106.906 111.994 106.324C112.265 105.887 112.537 105.616 113.728 105.616C113.854 105.616 114 105.616 114.146 105.637C115.254 105.699 116.445 105.72 117.783 105.72C119.225 105.72 120.667 105.699 122.068 105.658H122.339C126.352 105.574 130.093 103.992 132.831 101.182C135.569 98.3928 137.095 94.6459 137.095 90.6284C137.095 88.0473 137.095 85.4661 137.095 82.9057V82.76C137.095 75.2663 137.095 67.5228 137.116 59.9041C137.116 59.8209 137.178 59.5503 137.346 59.3005C139.143 56.5111 140.021 53.701 140.021 50.6827C140 48.1223 140 45.6244 140 43.1265Z" fill="white"/>
<path d="M75.0835 129.284C74.6864 129.284 74.2475 129.2 73.8922 129.034C67.7475 126.286 61.4356 122.623 54.0577 117.46C48.9163 113.88 43.0433 109.613 38.0899 104.325C38.0272 104.284 37.7973 104.2 37.5883 104.18C36.5433 104.159 35.5192 104.159 34.6622 104.159H32.3632C31.7362 104.159 31.1301 104.159 30.5031 104.159C30.3986 104.159 30.2941 104.159 30.1896 104.159C29.7925 104.159 29.3954 104.159 28.9983 104.159C28.6012 104.159 28.1831 104.18 27.786 104.18C26.95 104.18 25.8632 104.159 24.7764 103.992C21.5577 103.534 18.6526 101.911 16.5835 99.4544C14.5352 96.9981 13.3857 93.8133 13.3439 90.4619C13.323 88.2346 13.323 85.9865 13.323 83.8008C13.323 82.531 13.323 81.2404 13.323 79.9707V79.8874C13.323 79.6584 13.323 79.3878 13.2812 79.2629C12.8632 78.1181 12.4243 76.9732 12.0063 75.8699C11.86 75.4744 11.6928 75.0581 11.5465 74.6626L11.4629 74.5169V35.4662L12.5288 35.5911C12.5915 35.5911 12.6333 35.6119 12.696 35.6119C12.7378 35.6119 12.8005 35.6327 12.8214 35.6327C16.479 35.6327 20.1574 35.6327 23.8359 35.6327C27.1381 35.6327 30.4195 35.6327 33.7217 35.6327V35.2997C33.7217 34.4462 33.7217 33.5928 33.7217 32.7393C33.7426 30.2622 33.7635 27.7851 33.7844 25.308L33.8053 21.4571H116.633V35.6744H138.37L138.474 36.507C138.474 36.5903 138.495 36.6527 138.495 36.7152C138.516 36.8609 138.537 36.9858 138.537 37.1315C138.537 39.1714 138.537 41.1906 138.537 43.2306C138.537 45.7076 138.537 48.1639 138.537 50.641C138.537 53.3679 137.743 55.9283 136.092 58.4678C135.82 58.9049 135.632 59.4462 135.632 59.8417C135.611 67.5227 135.611 75.3495 135.611 82.9057C135.611 85.4661 135.611 88.0264 135.611 90.5868C135.611 94.2088 134.252 97.5809 131.765 100.12C129.278 102.639 125.913 104.076 122.276 104.159H122.005C120.604 104.18 119.162 104.221 117.741 104.221C116.424 104.221 115.254 104.2 114.188 104.138C114.021 104.138 113.854 104.117 113.686 104.117C112.202 104.117 111.387 104.513 110.739 105.491C110.489 105.886 110.133 106.178 109.841 106.449C109.778 106.511 109.694 106.573 109.632 106.636C99.3697 115.878 88.0417 123.414 76.0031 129.075C75.7314 129.221 75.4179 129.284 75.0835 129.284ZM32.8021 96.6026C35.1639 96.6026 37.7137 96.6026 40.3262 96.6234C40.995 96.6234 41.7475 96.9356 42.2073 97.3936C42.9179 98.1013 43.6076 98.8299 44.2555 99.5376C45.3423 100.703 46.4918 101.931 47.6832 102.951C55.8761 109.966 64.8005 115.982 74.2266 120.832C74.5192 120.978 74.77 121.061 74.979 121.061C75.2089 121.061 75.4597 120.978 75.7732 120.832C84.8439 116.17 93.5385 110.341 101.606 103.555C103.32 102.098 104.929 100.412 106.476 98.7674C106.831 98.3719 107.207 97.9973 107.563 97.6226C108.022 97.123 108.628 96.6026 109.694 96.6026H109.715C111.722 96.6234 113.854 96.6234 116.215 96.6234C118.055 96.6234 119.873 96.6234 121.712 96.6234C125.453 96.6026 127.982 94.1047 127.982 90.3786C127.982 84.5294 127.982 78.6801 127.982 72.8308V65.1497H96.7989V78.4927H116.32V84.9457H108.691V82.5727H99.9967L99.8922 84.9457H90.5915V56.636H110.99C115.609 56.636 120.228 56.636 124.868 56.636C128.296 56.636 130.783 54.2838 130.887 50.8908C130.95 49.0382 130.929 47.1231 130.929 45.2705C130.929 44.5836 130.929 43.9175 130.908 43.2306H109.026V29.1798H41.2877V43.3138H19.1333C19.1333 45.3121 19.1333 47.3313 19.1333 49.3296C19.1333 57.094 19.1124 65.1289 19.196 73.0181C19.196 73.8508 19.5513 74.8916 20.1365 75.7867C21.286 77.5768 23.0417 78.4303 25.4661 78.4303C30.2941 78.4303 35.1221 78.4303 39.9291 78.4303H59.4709V84.9457H50.024V82.5935H41.2877V85.0081H20.9725C20.9725 85.5077 20.9516 85.9865 20.9516 86.4444C20.9098 88.1305 20.8889 89.7125 21.0143 91.2945C21.286 94.4585 23.7314 96.6026 27.0754 96.6026H32.8021Z" fill="black"/>
<path d="M20.053 84.0506C26.8457 84.0506 33.5547 84.0506 40.3682 84.0506C40.3682 83.218 40.3682 82.4686 40.3682 81.636C43.9421 81.636 47.3907 81.636 50.9855 81.636C50.9855 82.3853 50.9855 83.1555 50.9855 83.9882C53.5772 83.9882 56.0225 83.9882 58.5514 83.9882C58.5514 82.4686 58.5514 80.9907 58.5514 79.3462C58.0916 79.3462 57.6527 79.3462 57.2138 79.3462C46.6383 79.3462 36.0627 79.3462 25.508 79.3462C22.9164 79.3462 20.7637 78.4303 19.3633 76.2654C18.7572 75.3287 18.2765 74.1006 18.2556 72.9973C18.172 62.9641 18.2138 52.91 18.2138 42.8767C18.2138 42.731 18.2556 42.6061 18.2765 42.3563C25.5916 42.3563 32.9067 42.3563 40.3682 42.3563C40.3682 37.5895 40.3682 32.9475 40.3682 28.2223C63.6302 28.2223 86.7251 28.2223 109.987 28.2223C109.987 32.8642 109.987 37.5062 109.987 42.2939C117.344 42.2939 124.555 42.2939 131.786 42.2939C131.828 42.5853 131.87 42.7518 131.87 42.9183C131.87 45.5828 131.932 48.2472 131.849 50.9116C131.703 54.8042 128.777 57.5519 124.889 57.5519C114.251 57.5519 103.613 57.5519 92.9743 57.5519C92.5354 57.5519 92.0756 57.5519 91.5531 57.5519C91.5531 66.3987 91.5531 75.1414 91.5531 83.9673C93.9984 83.9673 96.4437 83.9673 99.0145 83.9673C99.0563 83.1972 99.0772 82.427 99.119 81.5943C102.651 81.5943 106.1 81.5943 109.653 81.5943C109.653 82.4061 109.653 83.1555 109.653 83.9673C111.617 83.9673 113.477 83.9673 115.4 83.9673C115.4 82.4686 115.4 81.0115 115.4 79.3878C108.942 79.3878 102.463 79.3878 95.8794 79.3878C95.8794 74.2463 95.8794 69.2505 95.8794 64.1506C106.852 64.1506 117.846 64.1506 128.965 64.1506C128.965 64.5877 128.965 64.9832 128.965 65.3995C128.965 73.7051 128.965 82.0315 128.965 90.337C128.965 94.5835 126.059 97.4977 121.754 97.4977C117.762 97.5185 113.749 97.5185 109.757 97.4769C109.088 97.4769 108.733 97.7267 108.294 98.2054C106.33 100.266 104.428 102.389 102.275 104.221C94.2701 110.986 85.6174 116.815 76.2749 121.623C75.418 122.06 74.7492 122.081 73.8714 121.644C64.2572 116.69 55.3537 110.674 47.1608 103.638C45.1752 101.931 43.4823 99.8707 41.6222 98.0181C41.3296 97.7267 40.8071 97.5185 40.3891 97.5185C35.9791 97.4769 31.5482 97.4977 27.1383 97.4977C23.3762 97.4977 20.4711 95.0622 20.1575 91.3362C19.8649 89.0048 20.053 86.611 20.053 84.0506ZM72.0531 61.9441C69.8794 61.9441 67.8312 61.9441 65.783 61.9441C62.8987 61.9233 60.7251 60.6743 59.2621 58.1764C59.0949 57.885 58.635 57.6144 58.3215 57.6144C49.6897 57.5936 41.0788 57.5936 32.4469 57.5727C31.7572 57.5727 31.6318 57.8642 31.6527 58.447C31.6736 59.9041 31.7363 61.3612 31.6318 62.7975C31.5691 63.8592 31.8826 64.1089 32.9485 64.1089C45.5305 64.0673 58.1125 64.0881 70.7154 64.0881C71.1543 64.0881 71.5932 64.0881 72.0949 64.0881C72.0949 64.6293 72.0949 65.004 72.0949 65.3787C72.0949 73.7259 72.0949 82.0731 72.0949 90.4203C72.0949 94.6043 69.1688 97.5185 64.9469 97.5393C62.209 97.5601 59.4502 97.5393 56.7122 97.5393C56.3987 97.5393 56.0852 97.581 55.7508 97.6018C55.7926 97.8932 55.918 97.9556 56.0225 98.0389C61.7074 102.452 67.5386 106.615 74.0595 109.779C74.7701 110.133 75.3135 110.071 76.0032 109.737C82.545 106.573 88.418 102.369 94.1029 97.914C94.1656 97.8516 94.2074 97.7683 94.3119 97.581C93.8939 97.5601 93.5595 97.5393 93.2251 97.5393C90.4453 97.5393 87.6656 97.5601 84.8858 97.5393C80.8521 97.4769 77.926 94.521 77.926 90.5452C77.926 74.8916 77.926 59.238 77.926 43.6053C77.926 43.2098 77.926 42.8143 77.926 42.2939C85.1576 42.2939 92.2428 42.2939 99.4116 42.2939C99.4116 41.7318 99.4116 41.2947 99.4116 40.8576C99.4116 40.4204 99.4116 39.9833 99.4116 39.5462C83.1929 39.5462 67.1206 39.5462 51.09 39.5462C51.09 40.5245 51.09 41.3988 51.09 42.3563C58.1125 42.3563 65.0514 42.3563 72.0531 42.3563C72.0531 48.8925 72.0531 55.3663 72.0531 61.9441Z" fill="white"/>
<path d="M72.0531 61.9441C72.0531 55.3663 72.0531 48.8925 72.0531 42.3563C65.0515 42.3563 58.1126 42.3563 51.0901 42.3563C51.0901 41.3779 51.0901 40.5037 51.0901 39.5461C67.1206 39.5461 83.193 39.5461 99.4116 39.5461C99.4116 39.9833 99.4116 40.4204 99.4116 40.8575C99.4116 41.2947 99.4116 41.7526 99.4116 42.2938C92.2428 42.2938 85.1576 42.2938 77.9261 42.2938C77.9261 42.7934 77.9261 43.2097 77.9261 43.6052C77.9261 59.2588 77.9261 74.9124 77.9261 90.5452C77.9261 94.521 80.8521 97.4769 84.8859 97.5185C87.6656 97.5601 90.4454 97.5185 93.2251 97.5185C93.5595 97.5185 93.8939 97.5393 94.3119 97.5602C94.2074 97.7475 94.1656 97.8516 94.1029 97.8932C88.418 102.348 82.5451 106.553 76.0033 109.717C75.3135 110.05 74.7701 110.091 74.0595 109.758C67.5386 106.615 61.7074 102.431 56.0225 98.0181C55.918 97.9348 55.7926 97.8724 55.7508 97.581C56.0643 97.5602 56.3779 97.5185 56.7123 97.5185C59.4502 97.5185 62.209 97.5185 64.947 97.5185C69.1688 97.4977 72.0949 94.5835 72.0949 90.3995C72.0949 82.0523 72.0949 73.7051 72.0949 65.3579C72.0949 64.9832 72.0949 64.6085 72.0949 64.0673C71.5724 64.0673 71.1544 64.0673 70.7155 64.0673C58.1335 64.0673 45.5515 64.0465 32.9486 64.0881C31.8827 64.0881 31.5483 63.8383 31.6319 62.7767C31.7364 61.3196 31.6737 59.8625 31.6528 58.4262C31.6319 57.8433 31.7782 57.5519 32.447 57.5519C41.0788 57.5727 49.6897 57.5519 58.3216 57.5936C58.6351 57.5936 59.0949 57.885 59.2621 58.1556C60.7251 60.6535 62.8779 61.9025 65.783 61.9233C67.8312 61.9441 69.8795 61.9441 72.0531 61.9441Z" fill="black"/>
</svg>
