<svg width="25" height="22" viewBox="0 0 25 22" fill="none" xmlns="http://www.w3.org/2000/svg">
<path d="M4.90585 1.09722L1.0532 6.95892C0.570534 7.69224 0.635573 8.6619 1.20937 9.31516L11.4756 21.0648C11.8248 21.4631 12.3235 21.6918 12.8438 21.6923H12.8453C13.3638 21.6923 13.8614 21.4657 14.2114 21.0703C16.526 18.5021 18.8426 15.8233 21.0832 13.2325C22.1973 11.9442 23.3492 10.6121 24.4815 9.31638C25.0781 8.63594 25.1227 7.62052 24.5925 6.8886L20.7178 0.993161C20.3725 0.468248 19.8019 0.154559 19.1902 0.153809H6.50172C5.8449 0.153902 5.23784 0.514093 4.90585 1.09722ZM7.83948 8.97053L10.7502 17.3946L3.38965 8.97053H7.83948ZM14.5438 2.02892L15.96 7.09551H9.73203L11.1482 2.02892H14.5438ZM15.8795 8.97053L12.846 17.7499L9.81244 8.97053H15.8795ZM19.6773 12.0017C18.1175 13.8053 16.5206 15.6511 14.9155 17.4705L17.8524 8.97053H22.3041C21.4228 9.98351 20.5388 11.0056 19.6773 12.0017ZM22.4942 7.09551H17.8958L16.4796 2.02892H19.1642L22.4942 7.09551ZM6.52315 2.02892H9.21228L7.79615 7.09551H3.1977L6.47954 2.10214C6.49491 2.07889 6.50908 2.05489 6.52231 2.03033C6.52259 2.02986 6.52287 2.02939 6.52315 2.02892Z" fill="white"/>
</svg>
