<svg width="24" height="22" viewBox="0 0 24 22" fill="none" xmlns="http://www.w3.org/2000/svg">
<path d="M20.1181 6.06689H4.46354C3.16667 6.06689 2.11536 7.11821 2.11536 8.41508V17.8078C2.11536 19.1047 3.16667 20.156 4.46354 20.156H20.1181C21.4149 20.156 22.4663 19.1047 22.4663 17.8078V8.41508C22.4663 7.11821 21.4149 6.06689 20.1181 6.06689Z" stroke="white" stroke-width="2.32072" stroke-linejoin="round"/>
<path d="M19.8911 6.06666V4.59904C19.891 4.23909 19.8114 3.8836 19.6581 3.55793C19.5048 3.23227 19.2815 2.94446 19.0041 2.71503C18.7267 2.48561 18.4021 2.32023 18.0535 2.23069C17.7049 2.14115 17.3408 2.12967 16.9872 2.19705L4.10348 4.39602C3.54399 4.50265 3.03925 4.80117 2.6763 5.24012C2.31336 5.67906 2.11497 6.2309 2.11536 6.80046V9.19756" stroke="white" stroke-width="2.32072" stroke-linejoin="round"/>
<path d="M17.77 14.6768C17.4604 14.6768 17.1577 14.585 16.9003 14.413C16.6428 14.241 16.4422 13.9965 16.3237 13.7104C16.2052 13.4244 16.1742 13.1096 16.2346 12.8059C16.295 12.5023 16.4441 12.2233 16.663 12.0044C16.882 11.7855 17.1609 11.6364 17.4646 11.576C17.7682 11.5156 18.083 11.5466 18.3691 11.6651C18.6551 11.7835 18.8996 11.9842 19.0716 12.2416C19.2436 12.4991 19.3354 12.8017 19.3354 13.1114C19.3354 13.5265 19.1705 13.9247 18.8769 14.2183C18.5833 14.5119 18.1852 14.6768 17.77 14.6768Z" fill="white"/>
</svg>
