<svg width="28" height="27" viewBox="0 0 28 27" fill="none" xmlns="http://www.w3.org/2000/svg">
<path d="M26.7685 9.61624L17.7168 0.564576C16.9637 -0.188535 15.7845 -0.187849 15.0321 0.564576L0.911696 14.6849C0.541179 15.0554 0.335091 15.5643 0.346587 16.0804C0.357398 16.5807 0.562221 17.0421 0.923825 17.3821L2.85172 19.31C3.18563 19.6445 3.71388 19.6833 4.09331 19.4028C5.20038 18.5852 6.74119 18.6917 7.67777 19.6518C8.63723 20.6349 8.75399 22.1792 7.94904 23.2443C7.66184 23.6243 7.69876 24.1573 8.03552 24.4941L9.97549 26.434C10.3365 26.7947 10.8281 26.9998 11.3306 26.9998C11.3439 26.9998 11.3576 26.9995 11.371 26.9992C11.8712 26.9884 12.3327 26.7839 12.6726 26.422L26.7806 12.3131C27.1511 11.9429 27.3569 11.4343 27.3457 10.9179C27.3349 10.4177 27.1304 9.95622 26.7685 9.61624ZM16.3939 1.90378C16.3895 1.90632 16.3821 1.90758 16.3761 1.90885L15.707 1.23974L16.3939 1.90378ZM11.3182 25.078L9.91537 23.6752C10.7712 21.9404 10.4528 19.7635 9.04334 18.319C7.63864 16.8809 5.45092 16.5552 3.67317 17.433L2.26783 16.0279L16.3748 1.92129L25.4248 10.9713L11.3182 25.078Z" fill="white"/>
<path d="M13.0134 3.81459L11.6558 5.15479L14.1043 7.63497L15.4618 6.29478L13.0134 3.81459Z" fill="white"/>
<path d="M21.0846 11.9134L19.7441 13.2715L22.2251 15.7203L23.5655 14.3623L21.0846 11.9134Z" fill="white"/>
<path d="M17.048 7.84875L15.699 9.19775L18.1793 11.6781L19.5283 10.3291L17.048 7.84875Z" fill="white"/>
</svg>
