<svg width="25" height="24" viewBox="0 0 25 24" fill="none" xmlns="http://www.w3.org/2000/svg">
<path d="M21.4309 10.96V21.7323H3.59705V10.96H1.93549V22.5631C1.93549 23.0219 2.30737 23.3938 2.76624 23.3938H22.2617C22.7206 23.3938 23.0924 23.0219 23.0924 22.5631V10.96H21.4309Z" fill="white"/>
<path d="M23.7848 4.729H1.21546C0.756591 4.729 0.384705 5.10089 0.384705 5.55976V10.9875C0.384705 11.4463 0.756591 11.8182 1.21546 11.8182H23.7847C24.2436 11.8182 24.6155 11.4466 24.6155 10.9875V5.55976C24.6155 5.10089 24.2436 4.729 23.7848 4.729ZM22.954 10.157H2.04627V6.39085H22.954V10.157H22.954Z" fill="white"/>
<path d="M13.3176 5.34928C13.2611 5.13385 11.8906 0.0766602 7.88934 0.0766602C6.1486 0.0766602 4.73242 1.49284 4.73242 3.23358C4.73242 4.97431 6.13615 6.39049 7.86165 6.39049H12.514C12.7712 6.39049 13.0144 6.27114 13.1717 6.0673C13.3289 5.86347 13.3827 5.59821 13.3176 5.34928ZM7.8617 4.72898C7.0387 4.72898 6.39398 4.07209 6.39398 3.23358C6.39398 2.42303 7.07884 1.73817 7.88939 1.73817C9.71238 1.73817 10.804 3.53405 11.3288 4.72893H7.8617V4.72898Z" fill="white"/>
<path d="M17.1385 0.0766602C13.1372 0.0766602 11.7667 5.13385 11.7102 5.34928C11.6449 5.59821 11.6989 5.86352 11.8562 6.06735C12.0135 6.27118 12.2563 6.39054 12.5139 6.39054H17.1662C18.8917 6.39054 20.2954 4.97436 20.2954 3.23362C20.2955 1.49284 18.8793 0.0766602 17.1385 0.0766602ZM17.1662 4.72898H13.6958C14.2167 3.53405 15.305 1.73822 17.1388 1.73822C17.9494 1.73822 18.6342 2.42307 18.6342 3.23362C18.6342 4.07209 17.9895 4.72898 17.1662 4.72898Z" fill="white"/>
<path d="M13.3448 5.55957H11.6832V22.5627H13.3448V5.55957Z" fill="white"/>
</svg>
