<svg width="28" height="27" viewBox="0 0 28 27" fill="none" xmlns="http://www.w3.org/2000/svg">
<path d="M23.3921 3.95402C20.8422 1.40426 17.4521 0 13.8461 0C10.2402 0 6.85002 1.40426 4.30015 3.95402C1.75039 6.50389 0.34613 9.89402 0.34613 13.5C0.34613 17.106 1.75039 20.4961 4.30015 23.046C6.85002 25.5957 10.2402 27 13.8461 27C17.4521 27 20.8422 25.5957 23.3921 23.046C25.9419 20.4961 27.3461 17.106 27.3461 13.5C27.3461 9.89402 25.9419 6.50389 23.3921 3.95402ZM13.8461 25.418C7.27453 25.418 1.92816 20.0716 1.92816 13.5C1.92816 6.9284 7.27453 1.58203 13.8461 1.58203C20.4177 1.58203 25.7641 6.9284 25.7641 13.5C25.7641 20.0716 20.4177 25.418 13.8461 25.418Z" fill="white"/>
<path d="M22.5085 10.5886C22.4155 10.3022 22.1679 10.0935 21.87 10.0502L16.8157 9.31576L14.5554 4.73583C14.4221 4.46583 14.1471 4.29492 13.8461 4.29492C13.545 4.29492 13.27 4.46589 13.1367 4.73583L10.8764 9.31576L5.82216 10.0502C5.52421 10.0935 5.27667 10.3022 5.18365 10.5886C5.09058 10.8749 5.1682 11.1893 5.38378 11.3994L9.04107 14.9644L8.1777 19.9982C8.12681 20.295 8.24878 20.5949 8.49236 20.7719C8.736 20.9489 9.05889 20.9722 9.32541 20.8321L13.846 18.4555L18.3667 20.8321C18.4824 20.893 18.6088 20.923 18.7347 20.923C18.8987 20.923 19.0619 20.872 19.1997 20.7719C19.4433 20.5949 19.5653 20.295 19.5144 19.9982L18.651 14.9644L22.3083 11.3994C22.5239 11.1893 22.6015 10.875 22.5085 10.5886ZM17.249 14.1218C17.0625 14.3035 16.9775 14.5654 17.0215 14.822L17.6842 18.6859L14.2141 16.8617C14.0989 16.8011 13.9724 16.7708 13.846 16.7708C13.7196 16.7708 13.5931 16.8011 13.4779 16.8617L10.0078 18.686L10.6706 14.822C10.7145 14.5654 10.6295 14.3036 10.4431 14.1219L7.63569 11.3854L11.5154 10.8216C11.773 10.7842 11.9957 10.6224 12.1109 10.3889L13.846 6.87326L15.581 10.3889C15.6962 10.6223 15.919 10.7842 16.1766 10.8216L20.0563 11.3853L17.249 14.1218Z" fill="white"/>
</svg>
