<svg width="28" height="17" viewBox="0 0 28 17" fill="none" xmlns="http://www.w3.org/2000/svg">
<path d="M14.1538 3.13037C12.0337 3.13037 10.3089 4.85516 10.3089 6.97529C10.3089 9.09542 12.0337 10.8202 14.1538 10.8202C16.2739 10.8202 17.9987 9.09537 17.9987 6.97529C17.9987 4.85521 16.2739 3.13037 14.1538 3.13037ZM14.1538 9.1114C12.9758 9.1114 12.0178 8.15301 12.0178 6.97534C12.0178 5.79736 12.9758 4.83928 14.1538 4.83928C15.3318 4.83928 16.2899 5.79736 16.2899 6.97534C16.2899 8.15332 15.3318 9.1114 14.1538 9.1114Z" fill="white"/>
<path d="M14.1538 9.08301C10.9972 9.08301 8.42908 11.6511 8.42908 14.8077V16.0894C8.42908 16.5613 8.81156 16.9438 9.28353 16.9438C9.75545 16.9438 10.138 16.5613 10.138 16.0894V14.8077C10.138 12.5933 11.9394 10.7919 14.1538 10.7919C16.3682 10.7919 18.1697 12.5936 18.1697 14.8077V16.0894C18.1697 16.5613 18.5521 16.9438 19.0241 16.9438C19.496 16.9438 19.8786 16.5613 19.8786 16.0894V14.8077C19.8785 11.6511 17.3103 9.08301 14.1538 9.08301Z" fill="white"/>
<path d="M21.9292 0.538574C19.8091 0.538574 18.0843 2.26341 18.0843 4.38349C18.0843 6.50357 19.8091 8.22841 21.9292 8.22841C24.0496 8.22841 25.7741 6.50357 25.7741 4.38349C25.7741 2.26341 24.0493 0.538574 21.9292 0.538574ZM21.9292 6.51955C20.7512 6.51955 19.7931 5.56147 19.7931 4.38349C19.7931 3.20551 20.7512 2.24743 21.9292 2.24743C23.1072 2.24743 24.0653 3.20551 24.0653 4.38349C24.0653 5.56147 23.1072 6.51955 21.9292 6.51955Z" fill="white"/>
<path d="M21.9292 6.49072C19.3109 6.49072 17.0262 8.26539 16.374 10.8067C16.2566 11.2636 16.532 11.7292 16.9888 11.8466C17.446 11.9651 17.9113 11.6888 18.0287 11.2317C18.4872 9.44622 20.0913 8.19963 21.9292 8.19963C24.1436 8.19963 25.945 10.0014 25.945 12.2155V13.4971C25.945 13.969 26.3275 14.3516 26.7995 14.3516C27.2714 14.3516 27.654 13.9691 27.6539 13.4971V12.2154C27.6538 9.05889 25.0857 6.49072 21.9292 6.49072Z" fill="white"/>
<path d="M6.3783 0.538574C4.25817 0.538574 2.53339 2.26341 2.53339 4.38349C2.53339 6.50357 4.25822 8.22841 6.3783 8.22841C8.49844 8.22841 10.2232 6.50357 10.2232 4.38349C10.2232 2.26341 8.49844 0.538574 6.3783 0.538574ZM6.3783 6.51955C5.20032 6.51955 4.24224 5.56147 4.24224 4.38349C4.24224 3.20551 5.20032 2.24743 6.3783 2.24743C7.55629 2.24743 8.51437 3.20551 8.51437 4.38349C8.51437 5.56147 7.55629 6.51955 6.3783 6.51955Z" fill="white"/>
<path d="M11.9056 10.7782C11.2574 8.25369 8.98459 6.49072 6.37856 6.49072C3.22198 6.49067 0.65387 9.05884 0.65387 12.2154V13.497C0.65387 13.9689 1.03635 14.3515 1.50833 14.3515C1.98025 14.3515 2.36278 13.969 2.36278 13.497V12.2154C2.36278 10.0013 4.16419 8.19953 6.37861 8.19953C8.20422 8.19953 9.79633 9.43447 10.2503 11.2031C10.3677 11.66 10.8316 11.9345 11.2905 11.8183C11.7475 11.701 12.0229 11.2351 11.9056 10.7782Z" fill="white"/>
</svg>
