<svg xmlns="http://www.w3.org/2000/svg" xmlns:xlink="http://www.w3.org/1999/xlink" width="110.18" height="102.712" viewBox="0 0 110.18 102.712"><defs><linearGradient id="a" x1="1.176" y1="-0.301" x2="-0.497" y2="1.703" gradientUnits="objectBoundingBox"><stop offset="0" stop-color="#cf5c2b"/><stop offset="1" stop-color="#59173e"/></linearGradient><linearGradient id="b" x1="0.852" y1="-0.202" x2="-0.032" y2="1.556" xlink:href="#a"/><linearGradient id="c" x1="1.17" y1="-0.301" x2="-0.496" y2="1.703" xlink:href="#a"/><linearGradient id="e" x1="0.649" y1="-1.158" x2="0.096" y2="3.554" xlink:href="#a"/><linearGradient id="f" x1="1.976" y1="0.025" x2="-3.074" y2="1.639" xlink:href="#a"/><linearGradient id="g" x1="0.73" y1="-0.473" x2="0.051" y2="2.987" xlink:href="#a"/><linearGradient id="h" x1="0.542" y1="1.891" x2="0.5" y2="0.54" xlink:href="#a"/><linearGradient id="i" x1="25.027" y1="-5151.236" x2="4.886" y2="-920.75" gradientUnits="objectBoundingBox"><stop offset="0" stop-color="#ffca2b"/><stop offset="1" stop-color="#d15b24"/></linearGradient><linearGradient id="j" x1="8.169" y1="-852.648" x2="1.835" y2="-148.015" xlink:href="#i"/><linearGradient id="k" x1="0.559" y1="-0.43" x2="0.485" y2="0.767" xlink:href="#i"/><linearGradient id="l" x1="2.009" y1="-503.273" x2="0.774" y2="-90.773" xlink:href="#i"/></defs><g transform="translate(-143 -933)"><g transform="translate(143 933)" ><g transform="translate(0.041)"><path d="M3122.1,482.871l-.008.01c.058-.083.109-.174.167-.257A2.048,2.048,0,0,0,3122.1,482.871Z" transform="translate(-3109.186 -465.31)" fill="url(#a)"/><path d="M3227.075,524.9a38.524,38.524,0,0,0-.552-4.816v-.015c0-.03-.015-.043-.015-.073-.1-.583-.219-1.15-.348-1.718-.162-.757-.351-1.5-.568-2.24,0-.03-.015-.043-.015-.058a40.3,40.3,0,0,0-5.225-11.307,3.484,3.484,0,0,0-.2-.293,103.677,103.677,0,0,0-21.96-23.6c-4.119-3.244-9.924-4.205-15.135-4.553-12.951-.845-25.393-.9-37.355,3.085-5.634,1.877-9.619,5.719-12.982,10.083a2.881,2.881,0,0,0-.2.262c-.394.494-.76,1-1.137,1.529a1.447,1.447,0,0,0-.013.348,3.3,3.3,0,0,0,1.657,2.447,8.748,8.748,0,0,0,2.9.959c8.529,1.718,17.7.86,26.4,1.587-8.978,1.44-18.423,1.178-27.431.232-1.513-.159-3.579-.653-4.992.293-.772.51-1.541,1.032-2.313,1.556a10.58,10.58,0,0,0-2,1.761c-.873,1.6-1.7,3.232-2.472,4.861-.378.8-.741,1.587-1.107,2.386-.668,1.456-1.294,2.924-1.892,4.41-.2.452-.376.916-.567,1.367a41.277,41.277,0,0,0-1.643,5.035,36.424,36.424,0,0,0-.787,4.279c-.091.757-.1,1.508-.139,2.263l.025.04a2.582,2.582,0,0,0,.886,1.054,4.094,4.094,0,0,0,1.317.55,11.44,11.44,0,0,0,1.432.235c.911.111,1.824.214,2.74.3s1.829.164,2.747.212,1.832.073,2.747.061,1.831-.053,2.744-.141c-2.076.088-4.253.24-6.43.389s-4.354.3-6.43.391a2.014,2.014,0,0,0-.813.151,1.38,1.38,0,0,0-.656,1.067,2.6,2.6,0,0,0-.03.444c0,.293.04.585.06.878a3.01,3.01,0,0,1-.046.868c-.088-.4-.141-.794-.207-1.191.005.043,0,.083.008.126a41.981,41.981,0,0,0,3.768,13.229c.116.116.247.217.348.305a13.427,13.427,0,0,0,2.139,1.483c2.548,1.441,5.5,1.761,8.355,2.17a37.172,37.172,0,0,0,4.889.568q9.539.98,19.093,1.819-15.586-.371-31.187-.146c.248.671.51,1.355.772,2.038a82.676,82.676,0,0,0,7.9,11.7c.015.028.046.043.058.073,4.089,4.932,9.17,9.4,15.353,11.846,5.764,2.268,11.889,2.457,18,2.75a184.276,184.276,0,0,0,19.253-.03c5.733-.333,12.05-.785,16.954-3.812a24.722,24.722,0,0,0,5.545-4.745,34.931,34.931,0,0,0,3.231-4.22,120,120,0,0,0,7.187-12.356,2.179,2.179,0,0,1,.235-.567q-4.677-.114-9.356-.086c3.54-.83,7.2-1.71,10.01-3.726a12.128,12.128,0,0,0,1.579-1.35c.124-.126.3-.293.477-.472.041-.091.089-.182.128-.275a85.2,85.2,0,0,0,3.6-9.341,36.892,36.892,0,0,0,1.688-9.43c.015-.161.015-.32.015-.495C3227.118,526.545,3227.118,525.73,3227.075,524.9Zm.012,2.563a3.372,3.372,0,0,0-2.348-2.969,10.71,10.71,0,0,0-4.1-.444q-10.685.193-21.379.416,11-1.3,22.008-2.563c.714-.081,1.445-.171,2.164-.28.822-.144,2.177-.2,2.744-.885a1.717,1.717,0,0,0,.343-.661,37.8,37.8,0,0,1,.558,4.831c.048.822.051,1.637.028,2.429A.348.348,0,0,0,3227.088,527.463Z" transform="translate(-3116.978 -475.761)" fill="url(#b)"/></g><path d="M3160.616,494.333c-.03.189-.073.363-.116.553a8.578,8.578,0,0,1-.232-2.2v-.073C3160.4,493.183,3160.515,493.75,3160.616,494.333Z" transform="translate(-3051.046 -450.098)" fill="#eb924d"/><path d="M3201.158,514.484a49.6,49.6,0,0,0-3.771-11.718,48.71,48.71,0,0,0-6-9.886c-2.149-2.7-5.6-4.394-8.564-6.074-1.294-.729-2.41-1.665-3.759-2.258-26.975-12.02-58.7,11.306-55.972,39.6a32.7,32.7,0,0,0,4.42,13.521c6.746,11.483,19.083,18.8,32.592,20.075a46.236,46.236,0,0,0,14.967-.908,35.276,35.276,0,0,0,22.814-17.28C3201.971,532.219,3202.647,522.579,3201.158,514.484Zm-12.1,21.286a26.441,26.441,0,0,1-17.141,12.984,34.6,34.6,0,0,1-11.236.676,31.727,31.727,0,0,1-24.5-15.065,24.886,24.886,0,0,1-3.32-10.161,26.517,26.517,0,0,1-.111-3.325c.015-.487.088-.984.06-1.471a3.191,3.191,0,0,0-.159-.739,4.977,4.977,0,0,1,0-2.318,3.1,3.1,0,0,1,1.292-2.018,4.334,4.334,0,0,1,1.821-.492,33.387,33.387,0,0,1,4.462-.177q-2.834-.439-5.666-.88a19.734,19.734,0,0,1,.7-2.455c.311-.774.74-1.483,1.1-2.222a22.011,22.011,0,0,1,2.244-3.418,32.2,32.2,0,0,1,5.741-5.84,32.621,32.621,0,0,1,7.046-4.236,30.928,30.928,0,0,1,7.914-2.288,28.524,28.524,0,0,1,8.34,0,27.944,27.944,0,0,1,7.26,2.124c1,.454,1.859,1.155,2.823,1.693,2.23,1.266,4.818,2.548,6.43,4.571a36.982,36.982,0,0,1,4.516,7.422,37.833,37.833,0,0,1,2.836,8.8,23.644,23.644,0,0,1-.056,9.8q-5.767.314-11.549.151l10.519,1.15c1.108.121.517,1.115.285,1.809a5.8,5.8,0,0,0-.3,1.854,5.1,5.1,0,0,1-.242,1.675,10.916,10.916,0,0,1-.509,1.2c-.1.2-.195.4-.3.6C3189.3,535.319,3189.054,535.621,3189.054,535.77Z" transform="translate(-3107.884 -467.305)" fill="#9b3724"/><path d="M3131.642,485.229a67.852,67.852,0,0,0,11-.237,23.208,23.208,0,0,0-2.7-.416c-.908-.091-1.819-.134-2.729-.154s-1.839-.013-2.76,0-1.836.028-2.752.033-1.834-.008-2.747-.05c-.114-.005-.229-.02-.341-.015a.762.762,0,0,0-.015.512c.088.187.306.149.479.149.552,0,1.1.045,1.655.1C3131.034,485.171,3131.341,485.191,3131.642,485.229Z" transform="translate(-3099.303 -462.628)" fill="#eb924d"/><path d="M3124.469,492.2a2.062,2.062,0,0,1,.2-.51,24.174,24.174,0,0,1,1.557-3.115,3.186,3.186,0,0,1,1.108-1.251,5.234,5.234,0,0,0,.888-.495,25.229,25.229,0,0,0,2.081-1.614,38.5,38.5,0,0,1,4.163-3.232c.232-.131.449-.262.683-.393a22.652,22.652,0,0,1,5.107-1.773,92.743,92.743,0,0,1,29.236-2.475c1.178.086,2.343.189,3.522.32a7.643,7.643,0,0,1,1.266.2,3.143,3.143,0,0,0,1.1.119c.934.013,1.85.028,2.78.086a19.28,19.28,0,0,1,7.394,1.63,31.821,31.821,0,0,1,6.286,4.614c3.448,2.9,7.189,5.456,10.361,8.688a10.2,10.2,0,0,1,2.49,3.244,15.2,15.2,0,0,0,2.765,3.9A94.658,94.658,0,0,1,3214,509.33c1.034,1.673,2.023,3.391,2.954,5.121.262.482.568.989.831,1.529a40.288,40.288,0,0,0-5.225-11.307,103.932,103.932,0,0,0-22.164-23.9c-4.119-3.244-9.924-4.205-15.136-4.553-12.95-.845-25.393-.9-37.354,3.085-5.634,1.877-9.619,5.719-12.982,10.083a2.967,2.967,0,0,0-.2.262c-.394.494-.76,1-1.138,1.529-.449.626-.886,1.251-1.325,1.892a2.192,2.192,0,0,0-.159.247,4.2,4.2,0,0,0,2.039.611C3124.252,493.349,3124.338,492.769,3124.469,492.2Z" transform="translate(-3109.141 -475.761)" fill="#eb924d"/><path d="M3215.48,496.743a2.289,2.289,0,0,0-.3-.951,2.115,2.115,0,0,0-.923-.679c-2.929-1.309-6.309-.605-9.478-.093q-2.932.473-5.9.7t-5.961.2a2.48,2.48,0,0,0-1.2.091c-.477.267.114.232.351.235l1.46.013q1.532.375,3.06.752a2.3,2.3,0,0,1,1.842,1.388,5.4,5.4,0,0,1,.306,1.94,45.682,45.682,0,0,1-1.663,13.458,27.316,27.316,0,0,1-6.736,11.677,38.716,38.716,0,0,1-5.56,5.038c-3.563,2.406-7.378,4.606-11.591,5.5-.625.131-1.256.234-1.89.333-5.333.835-10.569.131-15.955-.257a29.787,29.787,0,0,1-8.71-1.973,32.561,32.561,0,0,1-5.177-2.6c-1.183-.729-2.323-1.526-3.438-2.354q-.841-.62-1.662-1.261c-.276-.212-.55-.424-.826-.638-.136-.106-.27-.214-.406-.32a6.452,6.452,0,0,0-1.054-.57c-1.756-.9-3.6-2-4.352-3.817,1.985-.154,3.968-.336,5.953-.51a9.691,9.691,0,0,1-2.492-.015c-1.373-.161-2.72-.492-4.094-.613a3.964,3.964,0,0,0-.813.023c-.341.04-.7-.01-1.049,0a13.482,13.482,0,0,0-2.086.237.986.986,0,0,0-.772.446,21.367,21.367,0,0,1,2.7.368,3.882,3.882,0,0,1,1.516.754c.222.187.363.424.565.625.235.242.552.464.807.679q.874.734,1.761,1.458c4.886,3.976,10.186,7.646,16.235,9.6,2.061.669,4.18,1.014,6.284,1.5.661.149,1.321.285,1.987.4q2,.36,4.021.527a44.174,44.174,0,0,0,8.105-.073,43.248,43.248,0,0,0,7.946-1.572c.285-.086.57-.174.853-.265a24.92,24.92,0,0,0,10.22-5.789,10.851,10.851,0,0,1,1.861-1.864,4.566,4.566,0,0,0,.924-.689c.868-.885,1.708-1.8,2.56-2.7a3.9,3.9,0,0,1,.79-.694,3.941,3.941,0,0,1,1.809-.411,2.233,2.233,0,0,1-1.112-1.173,15.031,15.031,0,0,0,3.543-6.662c.681-2.449,1-4.982,1.509-7.474a36.781,36.781,0,0,0,.666-3.948c.055-.6.106-1.208.144-1.814a25.614,25.614,0,0,0,0-3.67,6.445,6.445,0,0,1,.033-2.273.78.78,0,0,1,.191-.376.947.947,0,0,1,.361-.187l.242-.083.288,0q3.042.027,6.082.048l.742.008a9.018,9.018,0,0,1,4.021.651c2.023,1.017,2.969,3.355,3.551,5.542A21.323,21.323,0,0,0,3215.48,496.743Z" transform="translate(-3105.686 -447.432)" fill="#eb924d"/><path d="M3129.01,514.911c-.126.008-.489-.527-.567-.626a5.905,5.905,0,0,1-.508-.764,13,13,0,0,1-.607-1.574q-1.147-2.777-2.291-5.552a25.273,25.273,0,0,1-1.14-3.151,25.742,25.742,0,0,1-.527-2.843l-.414-2.833c.133.918.139,1.867.247,2.788q.167,1.411.416,2.81a48.133,48.133,0,0,0,1.31,5.479q.383,1.267.833,2.507a7.87,7.87,0,0,1,.335,1.027c.048.24.046.479.071.721a7.633,7.633,0,0,0,.8,2.129Q3127.988,514.969,3129.01,514.911Z" transform="translate(-3107.833 -442.556)" fill="#eb924d"/><path d="M3135.919,486.224c1.725.045,3.451.1,5.174.149,1.985.048,3.968.078,5.954.045s3.945-.136,5.911-.346q1.464-.155,2.923-.4a23.337,23.337,0,0,0,2.888-.6,1.7,1.7,0,0,0-.37-.071c-.159-.008-.311.038-.47.028-.256-.018-.511-.043-.767-.066-.512-.04-1.024-.078-1.536-.108a29.1,29.1,0,0,0-3.075-.038c-2,.091-3.986.464-5.991.5-4.029.081-8.02-1.224-11.99-1.582-1.259-.114-2.52-.214-3.784-.252a2.714,2.714,0,0,0-1.115.131,2.658,2.658,0,0,0-.943.795,35.723,35.723,0,0,0-6.186,10.323c-.495,1.271-1.128,2.477-1.668,3.739q-.669,1.574-1.3,3.164a41.316,41.316,0,0,0-1.643,5.035,34.587,34.587,0,0,0-.966,6.393,2.512,2.512,0,0,0,.952,1.244c.028.018.061.028.088.045,0-.885.076-2.237.085-2.414a17.212,17.212,0,0,0,.189-3,10.953,10.953,0,0,1,.785-3.827c.409-1.37.9-2.707,1.443-4.031.334-.815.695-1.617,1.067-2.414a6.909,6.909,0,0,1,.542-1.075,4.431,4.431,0,0,0,.394-.52c.317-.621.517-1.324.785-1.97a23.863,23.863,0,0,1,1.92-3.8c.046-.073.091-.144.139-.214a10.627,10.627,0,0,1,5.325-4.382A15.434,15.434,0,0,1,3135.919,486.224Z" transform="translate(-3116.961 -464.006)" fill="#eb924d"/><path d="M3119.15,498.117A3.881,3.881,0,0,1,3121.3,497c.787-.159,1.572-.29,2.375-.378-.26-.093-.535-.141-.8-.225-1.423.093-2.835.182-4.2.24a2.013,2.013,0,0,0-.812.151,1.608,1.608,0,0,0-.686,1.511,7.23,7.23,0,0,1,.015,1.745c-.073-.32-.11-.643-.166-.964a41.912,41.912,0,0,0,3.736,13.128c.116.116.247.217.348.305a13.525,13.525,0,0,0,1.415.979l-.873-2.008a34.248,34.248,0,0,1-2.835-9.914,8.78,8.78,0,0,1,0-2.4A2.359,2.359,0,0,1,3119.15,498.117Z" transform="translate(-3116.86 -444.339)" fill="#eb924d"/><g transform="translate(0)"><g transform="translate(0.04)"><path d="M3069.533,482.871l-.008.01c.058-.083.109-.174.167-.257A2.076,2.076,0,0,0,3069.533,482.871Z" transform="translate(-3056.617 -465.31)" fill="url(#c)"/><path d="M3174.506,524.9a37.986,37.986,0,0,0-.555-4.816v-.015c0-.03-.013-.043-.013-.073-.1-.583-.219-1.15-.351-1.718-.159-.757-.348-1.5-.567-2.24,0-.03-.016-.043-.016-.058a40.171,40.171,0,0,0-5.222-11.307,3.32,3.32,0,0,0-.2-.293,103.679,103.679,0,0,0-21.959-23.6c-4.119-3.244-9.926-4.205-15.135-4.553-12.952-.845-25.394-.9-37.355,3.085-5.633,1.877-9.622,5.719-12.981,10.083-.074.088-.146.177-.205.262-.39.494-.756,1-1.135,1.529a1.485,1.485,0,0,0-.012.348,3.294,3.294,0,0,0,1.658,2.447,8.745,8.745,0,0,0,2.9.959c8.529,1.718,17.7.86,26.4,1.587-8.979,1.44-18.423,1.178-27.431.232-1.514-.159-3.583-.653-4.992.293-.772.51-1.544,1.032-2.313,1.556a10.451,10.451,0,0,0-2,1.761c-.873,1.6-1.7,3.232-2.472,4.861-.379.8-.745,1.587-1.108,2.386-.669,1.456-1.294,2.924-1.892,4.41-.2.452-.379.916-.568,1.367a42.073,42.073,0,0,0-1.645,5.035,36.814,36.814,0,0,0-.783,4.279c-.091.757-.1,1.508-.139,2.263l.025.04a2.589,2.589,0,0,0,.885,1.054,4.1,4.1,0,0,0,1.317.55,11.357,11.357,0,0,0,1.433.235c.91.111,1.823.214,2.739.3s1.829.164,2.745.212,1.834.073,2.75.061,1.832-.053,2.742-.141c-2.074.088-4.251.24-6.427.389s-4.355.3-6.431.391a2,2,0,0,0-.812.151,1.376,1.376,0,0,0-.656,1.067,2.354,2.354,0,0,0-.03.444c0,.293.04.585.06.878a3.01,3.01,0,0,1-.046.868c-.091-.4-.141-.794-.207-1.191.005.043,0,.083.008.126a41.994,41.994,0,0,0,3.769,13.229c.116.116.248.217.349.305a13.28,13.28,0,0,0,2.139,1.483c2.548,1.441,5.5,1.761,8.355,2.17a37.173,37.173,0,0,0,4.889.568q9.539.98,19.091,1.819-15.587-.371-31.185-.146c.247.671.51,1.355.772,2.038a82.391,82.391,0,0,0,7.9,11.7c.014.028.042.043.058.073,4.09,4.932,9.17,9.4,15.353,11.846,5.765,2.268,11.89,2.457,18,2.75a184.267,184.267,0,0,0,19.253-.03c5.734-.333,12.051-.785,16.955-3.812a24.781,24.781,0,0,0,5.545-4.745,34.961,34.961,0,0,0,3.229-4.22,119.493,119.493,0,0,0,7.189-12.356,2.155,2.155,0,0,1,.235-.567q-4.677-.114-9.356-.086c3.539-.83,7.2-1.71,10.01-3.726a12.193,12.193,0,0,0,1.579-1.35c.124-.126.3-.293.477-.472.041-.091.085-.182.129-.275a84.72,84.72,0,0,0,3.592-9.341,36.768,36.768,0,0,0,1.69-9.43c.013-.161.013-.32.013-.495C3174.549,526.545,3174.549,525.73,3174.506,524.9Zm.013,2.563a3.373,3.373,0,0,0-2.349-2.969,10.716,10.716,0,0,0-4.1-.444q-10.685.193-21.379.416,11-1.3,22.008-2.563c.714-.081,1.445-.171,2.164-.28.823-.144,2.177-.2,2.745-.885a1.729,1.729,0,0,0,.344-.661,37.839,37.839,0,0,1,.557,4.831c.048.822.05,1.637.028,2.429A.353.353,0,0,0,3174.519,527.463Z" transform="translate(-3064.408 -475.761)" fill="url(#b)"/></g><path d="M3108.049,494.333c-.031.189-.073.363-.116.553a8.712,8.712,0,0,1-.235-2.2v-.073C3107.829,493.183,3107.948,493.75,3108.049,494.333Z" transform="translate(-2998.478 -450.098)" fill="#eb924d"/><g transform="translate(7.543 73.326)"><path d="M3161.568,508.554c-5.663-.613-11.25-1.166-16.939-1.309q-16.94-.462-33.852-1.4c-7.209-.4-14.356-.787-21.533-1.019,3.107.3,6.21.618,9.324.888q-15.587-.371-31.185-.146c.247.671.51,1.355.772,2.038a82.454,82.454,0,0,0,7.9,11.7,302.843,302.843,0,0,0,33.326,3.986q16.9,1.222,33.834,1.98c2.707.116,5.355.146,8,.116a35.02,35.02,0,0,0,3.229-4.22,118.627,118.627,0,0,0,7.321-12.6A1.082,1.082,0,0,1,3161.568,508.554Z" transform="translate(-3067.383 -504.828)" fill="url(#e)"/></g><g transform="translate(0.04 21.401)"><path d="M3064.443,497.371c.005.043,0,.083.008.126l.015,0Z" transform="translate(-3064.355 -464.256)" fill="url(#f)"/><path d="M3174.506,511.983a37.986,37.986,0,0,0-.555-4.816v-.015c0-.03-.013-.043-.013-.073-.1-.583-.219-1.15-.351-1.718-.159-.757-.348-1.5-.567-2.24,0-.03-.016-.043-.016-.058a40.17,40.17,0,0,0-5.222-11.307,3.321,3.321,0,0,0-.2-.293c-1.834-.247-3.684-.464-5.53-.653-12.834-1.34-25.774-2.2-38.636-3.29-15.572-1.339-32.338-3.683-48.578-3.216-.638,1.032-1.237,2.081-1.819,3.143-.873,1.6-1.7,3.232-2.472,4.861-.379.8-.745,1.587-1.108,2.386-.669,1.456-1.294,2.924-1.892,4.41,16.808,5.341,35.6,7.1,52.637,9.72,1.12.161,2.24.351,3.363.525-.262-.015-.525-.015-.787-.028-19.588-.424-38.9-.933-58.209.464-.091.757-.1,1.508-.139,2.263a2.57,2.57,0,0,0,.91,1.095,6.168,6.168,0,0,0,2.75.785,50.937,50.937,0,0,0,10.976.434c-4.15.177-8.708.6-12.858.78a2.006,2.006,0,0,0-.812.151,1.609,1.609,0,0,0-.686,1.511c0,.234.027.472.048.706,19.219,2.248,38.526,2.861,58.021,3.89q20.063,1.067,40.091,2.341c3.391.2,6.708.436,9.982.6a36.767,36.767,0,0,0,1.69-9.43c.013-.161.013-.32.013-.494C3174.549,513.628,3174.549,512.813,3174.506,511.983Zm.013,2.563a3.373,3.373,0,0,0-2.349-2.969,10.717,10.717,0,0,0-4.1-.444q-10.685.193-21.379.416,11-1.3,22.008-2.563c.714-.081,1.445-.172,2.164-.28.823-.144,2.177-.2,2.745-.885a1.729,1.729,0,0,0,.344-.661,37.838,37.838,0,0,1,.557,4.831c.048.822.05,1.637.028,2.429A.353.353,0,0,0,3174.519,514.546Z" transform="translate(-3064.408 -484.244)" fill="url(#g)"/></g><path d="M3148.589,514.484a49.5,49.5,0,0,0-3.773-11.718,48.626,48.626,0,0,0-6-9.886c-2.149-2.7-5.605-4.394-8.564-6.074-1.294-.729-2.411-1.665-3.759-2.258-26.975-12.02-58.7,11.306-55.972,39.6a32.694,32.694,0,0,0,4.42,13.521c6.745,11.483,19.083,18.8,32.589,20.075a46.251,46.251,0,0,0,14.969-.908,35.278,35.278,0,0,0,22.815-17.28C3149.4,532.219,3150.077,522.579,3148.589,514.484Zm-12.1,21.286a26.443,26.443,0,0,1-17.141,12.984,34.6,34.6,0,0,1-11.235.676,31.732,31.732,0,0,1-24.5-15.065,24.905,24.905,0,0,1-3.318-10.161,26.61,26.61,0,0,1-.11-3.325c.015-.487.087-.984.06-1.471a3.191,3.191,0,0,0-.159-.739,4.973,4.973,0,0,1,0-2.318,3.1,3.1,0,0,1,1.292-2.018,4.335,4.335,0,0,1,1.822-.492,33.379,33.379,0,0,1,4.462-.177q-2.834-.439-5.666-.88a19.781,19.781,0,0,1,.7-2.455c.311-.774.739-1.483,1.1-2.222a21.988,21.988,0,0,1,2.243-3.418,32.163,32.163,0,0,1,5.742-5.84,32.592,32.592,0,0,1,7.046-4.236,30.9,30.9,0,0,1,7.914-2.288,28.5,28.5,0,0,1,8.336,0,27.964,27.964,0,0,1,7.264,2.124c1,.454,1.856,1.155,2.822,1.693,2.23,1.266,4.818,2.548,6.431,4.571a37.027,37.027,0,0,1,4.516,7.422,37.865,37.865,0,0,1,2.835,8.8,23.677,23.677,0,0,1-.056,9.8q-5.766.314-11.548.151l10.517,1.15c1.109.121.518,1.115.285,1.809a5.8,5.8,0,0,0-.3,1.854,5.1,5.1,0,0,1-.243,1.675,11.06,11.06,0,0,1-.509,1.2c-.1.2-.194.4-.3.6C3136.73,535.319,3136.485,535.621,3136.485,535.77Z" transform="translate(-3055.315 -467.305)" fill="url(#h)"/><path d="M3079.074,485.229a67.858,67.858,0,0,0,11-.237,23.2,23.2,0,0,0-2.7-.416c-.905-.091-1.816-.134-2.728-.154s-1.841-.013-2.76,0-1.836.028-2.755.033-1.831-.008-2.747-.05c-.11-.005-.227-.02-.338-.015a.763.763,0,0,0-.018.512c.091.187.308.149.482.149.552,0,1.1.045,1.655.1C3078.466,485.171,3078.774,485.191,3079.074,485.229Z" transform="translate(-3046.736 -462.628)" fill="#eb924d"/><path d="M3071.9,492.2a1.955,1.955,0,0,1,.2-.51,24.108,24.108,0,0,1,1.556-3.115,3.193,3.193,0,0,1,1.107-1.251,5.174,5.174,0,0,0,.888-.495,24.566,24.566,0,0,0,2.079-1.614,38.976,38.976,0,0,1,4.162-3.232c.235-.131.452-.262.687-.393a22.624,22.624,0,0,1,5.105-1.773,92.753,92.753,0,0,1,29.237-2.475c1.178.086,2.344.189,3.522.32a7.668,7.668,0,0,1,1.266.2,3.139,3.139,0,0,0,1.1.119c.931.013,1.849.028,2.78.086a19.279,19.279,0,0,1,7.394,1.63,31.921,31.921,0,0,1,6.286,4.614c3.448,2.9,7.189,5.456,10.36,8.688a10.206,10.206,0,0,1,2.488,3.244,15.2,15.2,0,0,0,2.767,3.9,94.911,94.911,0,0,1,6.534,9.185c1.032,1.673,2.023,3.391,2.954,5.121.262.482.567.989.827,1.529a40.183,40.183,0,0,0-5.222-11.307,103.921,103.921,0,0,0-22.164-23.9c-4.119-3.244-9.926-4.205-15.135-4.553-12.952-.845-25.394-.9-37.355,3.085-5.633,1.877-9.622,5.719-12.981,10.083-.074.088-.146.177-.2.262-.391.494-.756,1-1.135,1.529-.451.626-.888,1.251-1.324,1.892a2,2,0,0,0-.159.247,4.193,4.193,0,0,0,2.036.611C3071.683,493.349,3071.769,492.769,3071.9,492.2Z" transform="translate(-3056.573 -475.761)" fill="#eb924d"/><path d="M3162.912,496.743a2.3,2.3,0,0,0-.3-.951,2.115,2.115,0,0,0-.924-.679c-2.928-1.309-6.312-.605-9.477-.093q-2.933.473-5.9.7t-5.963.2a2.47,2.47,0,0,0-1.193.091c-.477.267.113.232.351.235l1.46.013,3.06.752a2.3,2.3,0,0,1,1.841,1.388,5.427,5.427,0,0,1,.306,1.94,45.657,45.657,0,0,1-1.662,13.458,27.35,27.35,0,0,1-6.736,11.677,38.765,38.765,0,0,1-5.56,5.038c-3.567,2.406-7.379,4.606-11.591,5.5-.625.131-1.256.234-1.89.333-5.333.835-10.57.131-15.956-.257a29.787,29.787,0,0,1-8.71-1.973,32.568,32.568,0,0,1-5.177-2.6c-1.184-.729-2.323-1.526-3.441-2.354q-.836-.62-1.66-1.261c-.277-.212-.55-.424-.824-.638-.137-.106-.271-.214-.407-.32a6.438,6.438,0,0,0-1.054-.57c-1.756-.9-3.6-2-4.352-3.817,1.986-.154,3.968-.336,5.954-.51a9.686,9.686,0,0,1-2.492-.015c-1.373-.161-2.719-.492-4.1-.613a3.939,3.939,0,0,0-.81.023c-.341.04-.707-.01-1.049,0a13.445,13.445,0,0,0-2.086.237.989.989,0,0,0-.774.446,21.321,21.321,0,0,1,2.7.368,3.878,3.878,0,0,1,1.516.754c.222.187.364.424.563.625.237.242.555.464.808.679q.877.734,1.763,1.458c4.886,3.976,10.187,7.646,16.236,9.6,2.061.669,4.18,1.014,6.284,1.5.658.149,1.321.285,1.988.4q2,.36,4.021.527a44.14,44.14,0,0,0,8.1-.073,43.234,43.234,0,0,0,7.949-1.572q.428-.129.852-.265a24.92,24.92,0,0,0,10.22-5.789,10.733,10.733,0,0,1,1.861-1.864,4.556,4.556,0,0,0,.923-.689c.868-.885,1.708-1.8,2.56-2.7a2.949,2.949,0,0,1,2.6-1.105,2.234,2.234,0,0,1-1.112-1.173,15.037,15.037,0,0,0,3.544-6.662c.681-2.449,1-4.982,1.509-7.474a37.027,37.027,0,0,0,.667-3.948c.055-.6.106-1.208.143-1.814a25.508,25.508,0,0,0,0-3.67,6.527,6.527,0,0,1,.03-2.273.82.82,0,0,1,.195-.376.939.939,0,0,1,.36-.187l.242-.083.288,0q3.042.027,6.082.048l.742.008a9.018,9.018,0,0,1,4.021.651c2.023,1.017,2.97,3.355,3.552,5.542A21.333,21.333,0,0,0,3162.912,496.743Z" transform="translate(-3053.119 -447.432)" fill="#eb924d"/><path d="M3076.442,514.911c-.126.008-.49-.527-.568-.626a5.877,5.877,0,0,1-.507-.764,12.956,12.956,0,0,1-.607-1.574q-1.147-2.777-2.292-5.552a19.092,19.092,0,0,1-1.667-5.994l-.414-2.833c.133.918.139,1.867.247,2.788q.166,1.411.413,2.81a48.773,48.773,0,0,0,1.312,5.479q.383,1.267.833,2.507a7.836,7.836,0,0,1,.336,1.027c.048.24.042.479.07.721a7.641,7.641,0,0,0,.8,2.129Q3075.42,514.969,3076.442,514.911Z" transform="translate(-3055.265 -442.556)" fill="#eb924d"/><path d="M3083.35,486.224c1.726.045,3.448.1,5.174.149,1.983.048,3.968.078,5.951.045s3.948-.136,5.91-.346q1.469-.155,2.927-.4a23.411,23.411,0,0,0,2.888-.6,1.708,1.708,0,0,0-.373-.071c-.156-.008-.308.038-.467.028-.258-.018-.512-.043-.77-.066-.512-.04-1.021-.078-1.536-.108a29.049,29.049,0,0,0-3.073-.038c-2,.091-3.989.464-5.991.5-4.029.081-8.019-1.224-11.99-1.582-1.259-.114-2.52-.214-3.784-.252a2.718,2.718,0,0,0-1.115.131,2.679,2.679,0,0,0-.944.795,35.8,35.8,0,0,0-6.185,10.323c-.494,1.271-1.127,2.477-1.667,3.739-.449,1.049-.881,2.1-1.3,3.164a41.984,41.984,0,0,0-1.646,5.035,34.662,34.662,0,0,0-.963,6.393,2.511,2.511,0,0,0,.951,1.244c.028.018.061.028.088.045-.005-.885.075-2.237.086-2.414a17.381,17.381,0,0,0,.189-3,10.914,10.914,0,0,1,.785-3.827c.408-1.37.9-2.707,1.44-4.031.333-.815.7-1.617,1.07-2.414a6.848,6.848,0,0,1,.543-1.075,4.4,4.4,0,0,0,.393-.52c.318-.621.517-1.324.785-1.97a23.762,23.762,0,0,1,1.92-3.8c.045-.073.09-.144.138-.214a10.621,10.621,0,0,1,5.326-4.382A15.422,15.422,0,0,1,3083.35,486.224Z" transform="translate(-3064.393 -464.006)" fill="#eb924d"/><path d="M3066.581,498.117a3.88,3.88,0,0,1,2.152-1.117c.787-.159,1.572-.29,2.371-.378-.26-.093-.532-.141-.794-.225-1.423.093-2.835.182-4.2.24a2.006,2.006,0,0,0-.812.151,1.609,1.609,0,0,0-.686,1.511,7.409,7.409,0,0,1,.015,1.745c-.073-.32-.111-.643-.167-.964a41.9,41.9,0,0,0,3.736,13.128c.116.116.248.217.349.305a13.508,13.508,0,0,0,1.412.979l-.87-2.008a34.139,34.139,0,0,1-2.838-9.914,9.029,9.029,0,0,1,0-2.4A2.406,2.406,0,0,1,3066.581,498.117Z" transform="translate(-3064.291 -444.339)" fill="#eb924d"/></g><g transform="translate(17.451 16.555)" id="ring"><path d="M3087.936,511.563c.088,0,.177-.015.267-.02C3088.112,511.548,3088.024,511.561,3087.936,511.563Z" transform="translate(-3045.996 -437.832)" fill="url(#i)"/><path d="M3089.256,511.5c.282-.038.567-.078.85-.121C3089.823,511.419,3089.538,511.459,3089.256,511.5Z" transform="translate(-3043.986 -438.086)" fill="url(#j)"/><path d="M3141.229,536.572c3.42-6.14,4.535-14.846,2.983-23.286a47.159,47.159,0,0,0-3.564-11.069,46.07,46.07,0,0,0-5.661-9.326c-1.549-1.945-4.117-3.373-6.6-4.755l-1.2-.671c-.555-.313-1.087-.663-1.614-1.012a13.085,13.085,0,0,0-1.9-1.12,34.45,34.45,0,0,0-14.109-3.009,39.642,39.642,0,0,0-28.743,13.085c-6.962,7.666-10.288,17.187-9.361,26.805a30.262,30.262,0,0,0,4.061,12.424c6.186,10.524,17.594,17.537,30.522,18.763,1.541.144,3.083.217,4.581.217a41.289,41.289,0,0,0,9.5-1.065A32.514,32.514,0,0,0,3141.229,536.572Zm-23.08,12.82a35.276,35.276,0,0,1-8.12.916c-1.274,0-2.581-.063-3.882-.187a33.181,33.181,0,0,1-25.593-16.579,26.478,26.478,0,0,1-4-10.792,29.139,29.139,0,0,1-.121-3.625c.005-.214.021-.436.035-.656a4.831,4.831,0,0,0-.012-.694,7.51,7.51,0,0,1-.069-3.612,5.762,5.762,0,0,1,1.342-2.634c.146-.411-.081-.8-.02-1.14a3.4,3.4,0,0,1,.676-1.506c.133-.431.295-.933.373-1.13a17.477,17.477,0,0,1,.815-1.685c.121-.23.245-.459.361-.694a23.686,23.686,0,0,1,2.482-3.807,34.886,34.886,0,0,1,13.723-10.814,33.154,33.154,0,0,1,8.521-2.465,31.624,31.624,0,0,1,4.543-.33,30.173,30.173,0,0,1,12.376,2.636,14.322,14.322,0,0,1,2.033,1.176c.318.209.638.421.974.61l.855.479a20.224,20.224,0,0,1,6.289,4.7,39.275,39.275,0,0,1,4.811,7.9,40.3,40.3,0,0,1,3.015,9.357,26.415,26.415,0,0,1,.086,9.876,18.615,18.615,0,0,1-1.584,8.05l-.189.386-.007.008c-.109.26-.228.52-.347.774-.108.23-.219.454-.334.676l-.036.068v.023l-.315.568A28.717,28.717,0,0,1,3118.149,549.392Z" transform="translate(-3071.31 -482.323)" fill="url(#k)"/><path d="M3084.986,511.49c1.448.136,2.9.194,4.356.207C3087.886,511.684,3086.433,511.626,3084.986,511.49Z" transform="translate(-3050.488 -437.912)" fill="url(#l)"/></g><g transform="translate(20.872 16.555)" id="ringColor"><path d="M3087.936,511.563c.088,0,.177-.015.267-.02C3088.112,511.548,3088.024,511.561,3087.936,511.563Z" transform="translate(-3049.417 -437.832)" fill="#ffdf80"/><path d="M3089.256,511.5c.282-.038.567-.078.85-.121C3089.823,511.419,3089.538,511.459,3089.256,511.5Z" transform="translate(-3047.407 -438.086)" fill="#ffdf80"/><path d="M3142.147,513.286a47.013,47.013,0,0,0-3.567-11.069,46,46,0,0,0-5.658-9.326c-3.58-4.5-10.7-7.288-11.312-7.558a34.45,34.45,0,0,0-14.109-3.009,39.639,39.639,0,0,0-28.743,13.085,37.893,37.893,0,0,0-6.092,8.991c.045.161.078.328.133.487.074.224.154.446.24.669.016.038.114.27.114.272l.125.285a13.3,13.3,0,0,0,.755,1.385c.131.207.27.4.408.6l.045.063.071.088c.086.1.174.207.265.308a7.274,7.274,0,0,0,.563.56c.07.063.141.121.212.182l.141.1c.068.045.139.081.209.121a3.264,3.264,0,0,1,.373-.636c.133-.434.295-.933.373-1.13a17.422,17.422,0,0,1,.815-1.685c.121-.23.245-.462.358-.694a23.917,23.917,0,0,1,2.485-3.807,34.578,34.578,0,0,1,6.165-6.274,34.928,34.928,0,0,1,7.558-4.541,33.15,33.15,0,0,1,8.522-2.465,31.617,31.617,0,0,1,4.543-.33,30.173,30.173,0,0,1,12.376,2.636,14.308,14.308,0,0,1,2.033,1.176c.318.209,1.829,1.09,1.829,1.09a20.221,20.221,0,0,1,6.289,4.7,39.253,39.253,0,0,1,4.811,7.9,40.294,40.294,0,0,1,3.015,9.357c.651,3.519-.121,15.121-1.5,17.923l-.19.388-.007.008c-.109.26-.228.52-.346.774-.108.23-.219.454-.335.676l-.036.068v.023l-.315.568a29.486,29.486,0,0,1-3.637,5.149c.037-.023.075-.038.11-.063a15.311,15.311,0,0,0,4.137-4.394c2.126-3.229,3.817-7.333,7.059-9.644A40.7,40.7,0,0,0,3142.147,513.286Z" transform="translate(-3072.667 -482.323)" fill="#ffdf80"/><path d="M3084.986,511.49c1.448.136,2.9.194,4.356.207C3087.886,511.684,3086.433,511.626,3084.986,511.49Z" transform="translate(-3053.909 -437.912)" fill="#ffdf80"/></g></g><g transform="translate(173.758 968.672)"><path d="M406.428,56.487a19.68,19.68,0,0,1-5.66,1.552,9.883,9.883,0,0,0,4.333-5.452,19.685,19.685,0,0,1-6.259,2.391A9.859,9.859,0,0,0,381.8,61.722a9.968,9.968,0,0,0,.254,2.246,27.981,27.981,0,0,1-20.311-10.3,9.864,9.864,0,0,0,3.049,13.156,9.811,9.811,0,0,1-4.464-1.232v.125a9.859,9.859,0,0,0,7.9,9.662,9.809,9.809,0,0,1-2.6.345,10,10,0,0,1-1.855-.174,9.867,9.867,0,0,0,9.2,6.843,19.841,19.841,0,0,1-14.59,4.079,27.888,27.888,0,0,0,15.106,4.43c18.125,0,28.038-15.016,28.038-28.038q0-.641-.03-1.275a20.078,20.078,0,0,0,4.923-5.108Zm0,0" transform="translate(-358.391 -51.868)" fill="#fff"/></g></g></svg>