<svg width="27" height="27" viewBox="0 0 27 27" fill="none" xmlns="http://www.w3.org/2000/svg">
<path fill-rule="evenodd" clip-rule="evenodd" d="M7.33594 6.10664C8.93379 2.51543 12.5408 0 16.7174 0C22.3811 0 27.0006 4.61953 27.0006 10.2832C27.0006 10.5521 26.9848 10.8211 26.9689 11.0742H23.6941C23.3777 10.1566 22.4918 9.49219 21.4635 9.49219C21.0996 9.49219 20.7516 9.57129 20.451 9.72949L18.8531 8.13164C19.0113 7.83105 19.0904 7.48301 19.0904 7.11914C19.0904 5.80605 18.0305 4.74609 16.7174 4.74609C15.4043 4.74609 14.3443 5.80605 14.3443 7.11914C14.3443 7.48301 14.4234 7.83105 14.5816 8.13164L12.9838 9.72949C12.6832 9.57129 12.3352 9.49219 11.9713 9.49219C11.6074 9.49219 11.2594 9.57129 10.9588 9.72949L7.33594 6.10664ZM16.7168 7.91016C16.2738 7.91016 15.9258 7.56211 15.9258 7.11914C15.9258 6.67617 16.2738 6.32812 16.7168 6.32812C17.1598 6.32812 17.5078 6.67617 17.5078 7.11914C17.5078 7.56211 17.1598 7.91016 16.7168 7.91016ZM16.2832 20.7986C21.1242 20.7986 25.2059 17.4131 26.2816 12.8885H23.26C22.9436 13.806 22.0576 14.4705 21.0293 14.4705C19.7162 14.4705 18.6562 13.4105 18.6562 12.0975C18.6562 11.7336 18.7354 11.3855 18.8936 11.085L17.2957 9.48711C16.9951 9.64531 16.6471 9.72441 16.2832 9.72441C15.9193 9.72441 15.5713 9.64531 15.2707 9.48711L13.6729 11.085C13.8311 11.3855 13.9102 11.7336 13.9102 12.0975C13.9102 13.4105 12.8502 14.4705 11.5371 14.4705C10.224 14.4705 9.16406 13.4105 9.16406 12.0975C9.16406 11.7336 9.24316 11.3855 9.40137 11.085L6.31641 8C6.11074 8.80684 6 9.64531 6 10.5154C6 16.1791 10.6195 20.7986 16.2832 20.7986ZM11.1797 11.8652C11.1797 12.3082 11.5277 12.6562 11.9707 12.6562C12.4137 12.6562 12.7617 12.3082 12.7617 11.8652C12.7617 11.4223 12.4137 11.0742 11.9707 11.0742C11.5277 11.0742 11.1797 11.4223 11.1797 11.8652ZM20.6719 11.8652C20.6719 12.3082 21.0199 12.6562 21.4629 12.6562C21.9059 12.6562 22.2539 12.3082 22.2539 11.8652C22.2539 11.4223 21.9059 11.0742 21.4629 11.0742C21.0199 11.0742 20.6719 11.4223 20.6719 11.8652ZM6.43359 3.95508C6.43359 2.64199 5.37363 1.58203 4.06055 1.58203C3.03223 1.58203 2.14629 2.24648 1.82988 3.16406H0V4.74609H1.82988C2.14629 5.66367 3.03223 6.32812 4.06055 6.32812C4.42441 6.32812 4.77246 6.24902 5.07305 6.09082L6.75 7.76777C6.89238 7.19824 7.08223 6.64453 7.33535 6.10664L6.19629 4.96758C6.35449 4.66699 6.43359 4.31895 6.43359 3.95508ZM10.1787 20.1762L4.05093 26.3039C3.1228 27.232 1.61987 27.232 0.697021 26.3039C-0.22583 25.381 -0.22583 23.8781 0.697021 22.95L6.82476 16.8223C7.70542 18.1512 8.84976 19.2955 10.1787 20.1762Z" fill="url(#paint0_linear)"/>
<defs>
<linearGradient id="paint0_linear" x1="12.5068" y1="0" x2="12.5068" y2="27" gradientUnits="userSpaceOnUse">
<stop stop-color="#A23BB8"/>
<stop offset="1" stop-color="#774BBD"/>
</linearGradient>
</defs>
</svg>
