<svg width="27" height="27" viewBox="0 0 27 27" fill="none" xmlns="http://www.w3.org/2000/svg">
<path fill-rule="evenodd" clip-rule="evenodd" d="M26.8549 12.0443C26.512 9.08263 25.7721 6.18059 24.6549 3.41633C24.3326 2.66194 23.8493 1.98714 23.2388 1.43921C22.6282 0.891283 21.9053 0.483482 21.1206 0.244359C20.3358 0.00523612 19.5083 -0.0594149 18.696 0.0549366C17.8836 0.169288 17.1061 0.459881 16.4179 0.906346C15.5466 1.45068 14.5398 1.73926 13.5124 1.73926C12.485 1.73926 11.4783 1.45068 10.6069 0.906346C9.9187 0.459881 9.14119 0.169288 8.32885 0.0549366C7.51651 -0.0594149 6.68899 0.00523612 5.90427 0.244359C5.11955 0.483482 4.39659 0.891283 3.78607 1.43921C3.17554 1.98714 2.6922 2.66194 2.36991 3.41633C1.25273 6.18057 0.51275 9.08262 0.169918 12.0443C0.00252414 13.5659 -0.0412864 15.0986 0.038917 16.6273C0.0428576 17.0776 0.17718 17.5171 0.42564 17.8926C0.674099 18.2681 1.02605 18.5636 1.43891 18.7433C1.86115 18.952 2.33403 19.0363 2.80236 18.9864C3.2707 18.9365 3.71518 18.7544 4.08392 18.4613C5.49426 17.4855 6.78247 16.344 7.92092 15.0613C8.28868 14.6299 8.77575 14.3168 9.32091 14.1613C12.0535 13.2927 14.9883 13.2927 17.7209 14.1613C18.2661 14.3167 18.7532 14.6298 19.1209 15.0613C20.2594 16.344 21.5476 17.4855 22.9579 18.4613C23.3266 18.7545 23.7711 18.9366 24.2394 18.9866C24.7078 19.0365 25.1807 18.9521 25.6029 18.7433C26.0158 18.5636 26.3677 18.2681 26.6162 17.8926C26.8647 17.5171 26.999 17.0776 27.0029 16.6273C27.0775 15.0982 27.028 13.5655 26.8549 12.0443ZM7.02692 4.00333C7.29213 4.00333 7.54649 4.1087 7.73402 4.29624C7.92156 4.48378 8.02692 4.73811 8.02692 5.00333V9.00333C8.02692 9.26855 7.92156 9.52289 7.73402 9.71042C7.54649 9.89796 7.29213 10.0033 7.02692 10.0033C6.7617 10.0033 6.50734 9.89796 6.31981 9.71042C6.13227 9.52289 6.02692 9.26855 6.02692 9.00333V5.00333C6.02692 4.73811 6.13227 4.48378 6.31981 4.29624C6.50734 4.1087 6.7617 4.00333 7.02692 4.00333ZM5.02692 6.00333H9.02692C9.29213 6.00333 9.54649 6.1087 9.73402 6.29624C9.92156 6.48378 10.0269 6.73811 10.0269 7.00333C10.0269 7.26855 9.92156 7.52289 9.73402 7.71042C9.54649 7.89796 9.29213 8.00333 9.02692 8.00333H5.02692C4.7617 8.00333 4.50734 7.89796 4.31981 7.71042C4.13227 7.52289 4.02692 7.26855 4.02692 7.00333C4.02692 6.73811 4.13227 6.48378 4.31981 6.29624C4.50734 6.1087 4.7617 6.00333 5.02692 6.00333ZM20.0269 4.00333C20.2247 4.00333 20.418 4.06197 20.5825 4.17185C20.7469 4.28173 20.8751 4.43791 20.9508 4.62064C21.0265 4.80337 21.0463 5.00445 21.0077 5.19843C20.9691 5.39241 20.8739 5.57057 20.734 5.71042C20.5942 5.85028 20.416 5.94552 20.222 5.98411C20.028 6.02269 19.827 6.00291 19.6442 5.92722C19.4615 5.85153 19.3053 5.72335 19.1954 5.5589C19.0856 5.39445 19.0269 5.20111 19.0269 5.00333C19.0269 4.73811 19.1323 4.48378 19.3198 4.29624C19.5073 4.1087 19.7617 4.00333 20.0269 4.00333ZM18.0269 6.00333C18.2247 6.00333 18.418 6.06197 18.5825 6.17185C18.7469 6.28173 18.8751 6.43791 18.9508 6.62064C19.0265 6.80337 19.0463 7.00445 19.0077 7.19843C18.9691 7.39241 18.8739 7.57057 18.734 7.71042C18.5942 7.85028 18.416 7.94552 18.222 7.98411C18.028 8.02269 17.827 8.00291 17.6442 7.92722C17.4615 7.85153 17.3053 7.72335 17.1954 7.5589C17.0856 7.39445 17.0269 7.20111 17.0269 7.00333C17.0269 6.73811 17.1323 6.48378 17.3198 6.29624C17.5073 6.1087 17.7617 6.00333 18.0269 6.00333ZM22.0269 6.00333C22.2247 6.00333 22.418 6.06197 22.5825 6.17185C22.7469 6.28173 22.8751 6.43791 22.9508 6.62064C23.0265 6.80337 23.0463 7.00445 23.0077 7.19843C22.9691 7.39241 22.8739 7.57057 22.734 7.71042C22.5942 7.85028 22.416 7.94552 22.222 7.98411C22.028 8.02269 21.827 8.00291 21.6442 7.92722C21.4615 7.85153 21.3053 7.72335 21.1954 7.5589C21.0856 7.39445 21.0269 7.20111 21.0269 7.00333C21.0269 6.73811 21.1323 6.48378 21.3198 6.29624C21.5073 6.1087 21.7617 6.00333 22.0269 6.00333ZM20.0269 8.00333C20.2247 8.00333 20.418 8.06197 20.5825 8.17185C20.7469 8.28173 20.8751 8.43791 20.9508 8.62064C21.0265 8.80337 21.0463 9.00445 21.0077 9.19843C20.9691 9.39241 20.8739 9.57057 20.734 9.71042C20.5942 9.85028 20.416 9.94552 20.222 9.98411C20.028 10.0227 19.827 10.0029 19.6442 9.92722C19.4615 9.85153 19.3053 9.72335 19.1954 9.5589C19.0856 9.39445 19.0269 9.20111 19.0269 9.00333C19.0269 8.73811 19.1323 8.48378 19.3198 8.29624C19.5073 8.1087 19.7617 8.00333 20.0269 8.00333Z" fill="url(#paint0_linear)"/>
<defs>
<linearGradient id="paint0_linear" x1="13.5183" y1="0" x2="13.5183" y2="19.0006" gradientUnits="userSpaceOnUse">
<stop stop-color="#A23BB8"/>
<stop offset="1" stop-color="#774BBD"/>
</linearGradient>
</defs>
</svg>
