<svg width="27" height="27" viewBox="0 0 27 27" fill="none" xmlns="http://www.w3.org/2000/svg">
<path d="M4 11C4 7.68629 6.68629 5 10 5H14C17.3137 5 20 7.68629 20 11V14C20 17.3137 17.3137 20 14 20H10C6.68629 20 4 17.3137 4 14V11Z" fill="url(#paint0_linear)"/>
<path fill-rule="evenodd" clip-rule="evenodd" d="M10 5H14C15.5913 5 17.1174 5.63214 18.2426 6.75735C19.3679 7.88257 20 9.4087 20 11V14C20 15.5913 19.3679 17.1174 18.2426 18.2426C17.1174 19.3679 15.5913 20 14 20H10C8.4087 20 6.88258 19.3679 5.75736 18.2426C4.63214 17.1174 4 15.5913 4 14V11C4 9.4087 4.63214 7.88257 5.75736 6.75735C6.88258 5.63214 8.4087 5 10 5ZM4 18C4.59334 18 5.17336 18.1759 5.66671 18.5056C6.16006 18.8352 6.54457 19.3038 6.77164 19.852C6.9987 20.4001 7.05811 21.0033 6.94236 21.5853C6.8266 22.1672 6.54088 22.7017 6.12132 23.1213C5.70176 23.5409 5.16721 23.8266 4.58527 23.9424C4.00333 24.0581 3.40013 23.9987 2.85195 23.7716C2.30377 23.5446 1.83524 23.1601 1.50559 22.6667C1.17595 22.1734 1 21.5933 1 21C1 20.2044 1.31607 19.4413 1.87868 18.8787C2.44129 18.3161 3.20435 18 4 18ZM20 18C20.5933 18 21.1734 18.1759 21.6667 18.5056C22.1601 18.8352 22.5446 19.3038 22.7716 19.852C22.9987 20.4001 23.0581 21.0033 22.9424 21.5853C22.8266 22.1672 22.5409 22.7017 22.1213 23.1213C21.7018 23.5409 21.1672 23.8266 20.5853 23.9424C20.0033 24.0581 19.4001 23.9987 18.852 23.7716C18.3038 23.5446 17.8352 23.1601 17.5056 22.6667C17.1759 22.1734 17 21.5933 17 21C17 20.2044 17.3161 19.4413 17.8787 18.8787C18.4413 18.3161 19.2044 18 20 18ZM7 22H10C10.2652 22 10.5196 22.1054 10.7071 22.2929C10.8946 22.4804 11 22.7348 11 23V27C11 27.2652 10.8946 27.5196 10.7071 27.7071C10.5196 27.8946 10.2652 28 10 28H7C6.73478 28 6.48043 27.8946 6.29289 27.7071C6.10536 27.5196 6 27.2652 6 27V23C6 22.7348 6.10536 22.4804 6.29289 22.2929C6.48043 22.1054 6.73478 22 7 22ZM14 22H17C17.2652 22 17.5196 22.1054 17.7071 22.2929C17.8946 22.4804 18 22.7348 18 23V27C18 27.2652 17.8946 27.5196 17.7071 27.7071C17.5196 27.8946 17.2652 28 17 28H14C13.7348 28 13.4804 27.8946 13.2929 27.7071C13.1054 27.5196 13 27.2652 13 27V23C13 22.7348 13.1054 22.4804 13.2929 22.2929C13.4804 22.1054 13.7348 22 14 22ZM6 17H18V26H6V17ZM1 21C1 19.293 3.605 10 6 10H7V21C7 21 1 22.706 1 21ZM23 21.234C23 19.49 20.395 10 18 10H17V21.234C17 21.234 23 22.976 23 21.233V21.234ZM2 3C2.39556 3 2.78224 3.1173 3.11114 3.33707C3.44004 3.55683 3.69638 3.86917 3.84776 4.23462C3.99913 4.60007 4.03874 5.00221 3.96157 5.39017C3.8844 5.77813 3.69392 6.13451 3.41422 6.41422C3.13451 6.69392 2.77814 6.88441 2.39018 6.96158C2.00222 7.03875 1.60009 6.99912 1.23463 6.84775C0.869182 6.69637 0.556822 6.44004 0.337059 6.11115C0.117296 5.78225 0 5.39556 0 5C0 4.46957 0.210712 3.96086 0.585785 3.58578C0.960858 3.21071 1.46957 3 2 3ZM7 0C7.39556 0 7.78224 0.117304 8.11114 0.337067C8.44004 0.556829 8.69638 0.869167 8.84776 1.23462C8.99913 1.60007 9.03874 2.00221 8.96157 2.39017C8.8844 2.77813 8.69392 3.13451 8.41422 3.41422C8.13451 3.69392 7.77814 3.88441 7.39018 3.96158C7.00222 4.03875 6.60009 3.99912 6.23463 3.84775C5.86918 3.69637 5.55682 3.44004 5.33706 3.11115C5.1173 2.78225 5 2.39556 5 2C5 1.46957 5.21071 0.960858 5.58578 0.585785C5.96086 0.210712 6.46957 0 7 0ZM17 0C17.3956 0 17.7822 0.117304 18.1111 0.337067C18.44 0.556829 18.6964 0.869167 18.8478 1.23462C18.9991 1.60007 19.0387 2.00221 18.9616 2.39017C18.8844 2.77813 18.6939 3.13451 18.4142 3.41422C18.1345 3.69392 17.7781 3.88441 17.3902 3.96158C17.0022 4.03875 16.6001 3.99912 16.2346 3.84775C15.8692 3.69637 15.5568 3.44004 15.3371 3.11115C15.1173 2.78225 15 2.39556 15 2C15 1.46957 15.2107 0.960858 15.5858 0.585785C15.9609 0.210712 16.4696 0 17 0ZM22 3C22.3956 3 22.7822 3.1173 23.1111 3.33707C23.44 3.55683 23.6964 3.86917 23.8478 4.23462C23.9991 4.60007 24.0387 5.00221 23.9616 5.39017C23.8844 5.77813 23.6939 6.13451 23.4142 6.41422C23.1345 6.69392 22.7781 6.88441 22.3902 6.96158C22.0022 7.03875 21.6001 6.99912 21.2346 6.84775C20.8692 6.69637 20.5568 6.44004 20.3371 6.11115C20.1173 5.78225 20 5.39556 20 5C20 4.46957 20.2107 3.96086 20.5858 3.58578C20.9609 3.21071 21.4696 3 22 3ZM5 9C5 9 0 8.525 0 5C0 1.475 4 5 4 5C4 5 4.391 7 6 7L5 9ZM19 9C19 9 24 8.488 24 4.685C24 0.881998 20 4.685 20 4.685C20 4.685 19.609 6.84201 18 6.84201L19 9ZM8 6C6.207 6 5 3.989 5 2C5 0.011 9 2 9 2C9 2 9.518 6 11 6H8ZM16.19 6C17.869 6 19 3.93799 19 1.89999C19 -0.138006 15 2 15 2C15 2 14.769 6 13.38 6H16.19Z" fill="url(#paint1_linear)"/>
<path d="M9 2C9 3.10457 8.10457 4 7 4C5.89543 4 5 3.10457 5 2C5 0.895431 5.89543 0 7 0C8.10457 0 9 0.895431 9 2Z" fill="url(#paint2_linear)"/>
<path d="M6 17H18V18.7639C18.5308 18.2889 19.2316 18 20 18C21.6569 18 23 19.3431 23 21C23 22.6569 21.6569 24 20 24C19.2316 24 18.5308 23.7111 18 23.2361V26H6V23.2361C5.46924 23.7111 4.76835 24 4 24C2.34315 24 1 22.6569 1 21C1 19.3431 2.34315 18 4 18C4.76835 18 5.46924 18.2889 6 18.7639V17Z" fill="url(#paint3_linear)"/>
<path d="M17 4C18.1046 4 19 3.10457 19 2C19 0.895431 18.1046 0 17 0C15.8954 0 15 0.895431 15 2C15 3.10457 15.8954 4 17 4Z" fill="url(#paint4_linear)"/>
<path d="M24 5C24 6.10457 23.1046 7 22 7C20.8954 7 20 6.10457 20 5C20 3.89543 20.8954 3 22 3C23.1046 3 24 3.89543 24 5Z" fill="url(#paint5_linear)"/>
<path d="M2 7C3.10457 7 4 6.10457 4 5C4 3.89543 3.10457 3 2 3C0.895431 3 0 3.89543 0 5C0 6.10457 0.895431 7 2 7Z" fill="url(#paint6_linear)"/>
<defs>
<linearGradient id="paint0_linear" x1="12" y1="0" x2="12" y2="28" gradientUnits="userSpaceOnUse">
<stop stop-color="#A23BB8"/>
<stop offset="1" stop-color="#774BBD"/>
</linearGradient>
<linearGradient id="paint1_linear" x1="12" y1="0" x2="12" y2="28" gradientUnits="userSpaceOnUse">
<stop stop-color="#A23BB8"/>
<stop offset="1" stop-color="#774BBD"/>
</linearGradient>
<linearGradient id="paint2_linear" x1="12" y1="0" x2="12" y2="28" gradientUnits="userSpaceOnUse">
<stop stop-color="#A23BB8"/>
<stop offset="1" stop-color="#774BBD"/>
</linearGradient>
<linearGradient id="paint3_linear" x1="12" y1="0" x2="12" y2="28" gradientUnits="userSpaceOnUse">
<stop stop-color="#A23BB8"/>
<stop offset="1" stop-color="#774BBD"/>
</linearGradient>
<linearGradient id="paint4_linear" x1="12" y1="0" x2="12" y2="28" gradientUnits="userSpaceOnUse">
<stop stop-color="#A23BB8"/>
<stop offset="1" stop-color="#774BBD"/>
</linearGradient>
<linearGradient id="paint5_linear" x1="12" y1="0" x2="12" y2="28" gradientUnits="userSpaceOnUse">
<stop stop-color="#A23BB8"/>
<stop offset="1" stop-color="#774BBD"/>
</linearGradient>
<linearGradient id="paint6_linear" x1="12" y1="0" x2="12" y2="28" gradientUnits="userSpaceOnUse">
<stop stop-color="#A23BB8"/>
<stop offset="1" stop-color="#774BBD"/>
</linearGradient>
</defs>
</svg>
