<svg width="11" height="14" viewBox="0 0 11 14" fill="none" xmlns="http://www.w3.org/2000/svg">
<path d="M0.953953 7.54799L9.62062 13.548C9.72064 13.6172 9.83768 13.6577 9.95908 13.6652C10.0805 13.6726 10.2016 13.6467 10.3093 13.5903C10.4171 13.5339 10.5073 13.449 10.5703 13.345C10.6333 13.2409 10.6666 13.1216 10.6666 13V0.999994C10.6667 0.878312 10.6335 0.758929 10.5705 0.654782C10.5076 0.550635 10.4174 0.465698 10.3096 0.409175C10.2019 0.352652 10.0807 0.3267 9.95924 0.33413C9.83779 0.341561 9.72068 0.382091 9.62062 0.451328L0.953953 6.45133C0.865659 6.51295 0.793551 6.59498 0.74376 6.69045C0.69397 6.78591 0.667969 6.89199 0.667969 6.99966C0.667969 7.10733 0.69397 7.21341 0.74376 7.30888C0.793551 7.40434 0.865659 7.48637 0.953953 7.54799Z" fill="white"/>
</svg>
