<svg width="27" height="27" viewBox="0 0 27 27" fill="none" xmlns="http://www.w3.org/2000/svg">
<path fill-rule="evenodd" clip-rule="evenodd" d="M5.57216 26.9858H1.43115C1.03139 26.9626 0.657062 26.7821 0.38989 26.4838C0.122717 26.1856 -0.0155947 25.7937 0.00515459 25.3938V10.5718C-0.0154934 10.3283 0.0261087 10.0836 0.126054 9.86063C0.225999 9.63766 0.381002 9.44375 0.576493 9.29715C0.771984 9.15056 1.00154 9.05609 1.24359 9.02262C1.48563 8.98914 1.73222 9.01776 1.96016 9.10579L6.11715 11.0058C6.388 11.1417 6.61468 11.3517 6.77083 11.6114C6.92697 11.8711 7.00615 12.1698 6.99915 12.4728V25.3858C7.02209 25.7872 6.88463 26.1813 6.61702 26.4813C6.3494 26.7814 5.97356 26.9628 5.57216 26.9858ZM15.5772 26.9858H11.4372C11.0361 26.9623 10.6608 26.7807 10.3936 26.4807C10.1264 26.1807 9.98921 25.7869 10.0122 25.3858V1.5638C9.99132 1.32025 10.0328 1.0754 10.1327 0.852284C10.2325 0.629171 10.3875 0.435125 10.583 0.288411C10.7785 0.141696 11.0082 0.0471351 11.2503 0.0136153C11.4924 -0.0199046 11.7391 0.0087091 11.9672 0.0967909L16.1242 1.9968C16.3954 2.13196 16.6224 2.34167 16.7787 2.60134C16.9349 2.86101 17.0138 3.15986 17.0062 3.4628V25.3858C17.0175 25.5846 16.9896 25.7838 16.9239 25.9718C16.8583 26.1598 16.7563 26.3331 16.6237 26.4817C16.491 26.6303 16.3305 26.7513 16.1511 26.8378C15.9717 26.9243 15.777 26.9746 15.5782 26.9858H15.5772ZM25.5822 26.9858H21.4422C21.0348 26.9563 20.6556 26.7667 20.3876 26.4585C20.1197 26.1502 19.9847 25.7483 20.0122 25.3408V12.6078C19.9857 12.3614 20.0228 12.1124 20.12 11.8844C20.2171 11.6564 20.3711 11.4572 20.5671 11.3056C20.7632 11.1541 20.9948 11.0553 21.2399 11.0188C21.485 10.9822 21.7354 11.0091 21.9672 11.0968L26.1242 13.0518C26.3992 13.1948 26.6283 13.4124 26.7854 13.6796C26.9424 13.9469 27.021 14.253 27.0122 14.5628V25.3408C27.0397 25.7482 26.9048 26.1499 26.637 26.4581C26.3693 26.7664 25.9904 26.9561 25.5832 26.9858H25.5822Z" fill="#fff"/>
<defs>
<linearGradient id="paint0_linear" x1="12.5138" y1="0" x2="12.5138" y2="26.9858" gradientUnits="userSpaceOnUse">
<stop stop-color="#A23BB8"/>
<stop offset="1" stop-color="#774BBD"/>
</linearGradient>
</defs>
</svg>
