<svg width="120" height="120" viewBox="0 0 120 120" fill="none" xmlns="http://www.w3.org/2000/svg">
<path fill-rule="evenodd" clip-rule="evenodd" d="M60 120C26.9 120 0 93.1 0 60C0 26.9 26.9 0 60 0C93.1 0 120 26.9 120 60C120 93.1 93.1 120 60 120ZM113.1 45.6L108.3 44.3C107 44 105.9 43.1 105.3 42L98.2 29.8C97.5 28.7 97.4 27.3 97.7 26L99 21.2C92.1 14.3 83.5 9.3 74.1 6.8L70.6 10.3C69.7 11.2 68.4 11.8 67.1 11.7H52.9C51.6 11.7 50.3 11.2 49.4 10.3L45.9 6.8C36.5 9.3 27.9 14.2 21 21.1L22.3 25.9C22.6 27.2 22.5 28.5 21.8 29.7L14.8 42C14.1 43.1 13.1 44 11.8 44.3L7 45.6C4.4 55 4.4 65 6.9 74.4L11.7 75.7C13 76 14.1 76.9 14.7 78L21.8 90.2C22.5 91.3 22.6 92.7 22.3 94L21 98.8C27.9 105.7 36.5 110.7 45.9 113.1L49.4 109.6C50.3 108.7 51.6 108.2 52.9 108.2H67C68.3 108.2 69.6 108.7 70.5 109.6L74 113.1C83.4 110.6 92 105.7 98.9 98.8L97.7 94C97.4 92.7 97.5 91.4 98.2 90.2L105.3 78C106 76.9 107 76 108.3 75.7L113.1 74.4C115.6 64.9 115.6 55 113.1 45.6Z" fill="#3A66B4"/>
<path fill-rule="evenodd" clip-rule="evenodd" d="M69.4 28.6C69.4 28.6 69.4 28.5 69.4 28.6C67.8 28.1 66.1 29.1 65.7 30.7C65.2 32.3 66.1 34 67.7 34.5C79.2 38 87 48.6 87 60.6C87 62.8 86.7 64.9 86.3 67C85.9 68.6 86.9 70.3 88.5 70.7C88.7 70.8 89 70.8 89.2 70.8C90.6 70.8 91.8 69.8 92.1 68.5C96.2 51.2 86.3 33.8 69.4 28.6ZM82.8 80.5C81.6 79.3 79.7 79.2 78.5 80.4C68.1 90.4 51.7 90.4 41.3 80.4C40.1 79.3 38.2 79.4 37.1 80.6C36 81.8 36 83.7 37.2 84.9C43.4 90.7 51.5 94 60 94C68.5 94 76.6 90.7 82.7 84.8C83.9 83.7 84 81.7 82.8 80.5ZM54.4 30.6C53.9 29 52.2 28.1 50.7 28.5C36.6 32.9 27 45.9 27 60.6C27 63.2 27.3 65.8 27.9 68.4C28.2 69.8 29.4 70.7 30.8 70.7C31 70.7 31.3 70.7 31.5 70.6C33.1 70.2 34.1 68.6 33.7 66.9C33.2 64.8 33 62.7 33 60.5C33 48.5 40.8 37.9 52.3 34.3C54 33.9 54.8 32.2 54.4 30.6ZM64.7 61.7C64.7 61.7 64.8 61.7 64.8 61.6C64.9 61.5 64.9 61.5 65 61.5C64.9 61.6 64.8 61.6 64.7 61.7ZM63.9 62.4C64 62.3 64 62.3 64 62.2C64 62.3 64 62.3 63.9 62.4ZM63.3 63.9C63.3 64.1 63.3 64.3 63.3 64.6C63.3 64.5 63.3 64.4 63.3 64.2C63.3 64.1 63.3 64 63.3 63.9ZM54.8 61.4C55.1 61.5 55.4 61.7 55.7 61.9C55.4 61.7 55.1 61.5 54.8 61.4ZM56.4 62.8C56.4 62.9 56.5 63 56.5 63C56.5 63 56.4 62.9 56.4 62.8ZM56.6 65C56.6 65.1 56.6 65.1 56.6 65.1C56.6 65.1 56.6 65.1 56.6 65C56.6 64.9 56.7 64.8 56.7 64.6C56.7 64.8 56.7 64.9 56.6 65Z" fill="white"/>
<path fill-rule="evenodd" clip-rule="evenodd" d="M50.0001 66.4L49.0001 70.6L28.5001 82.5C28.0001 82.8 27.5001 82.9 27.0001 82.9C25.9001 82.9 24.9001 82.3 24.4001 81.4C23.6001 79.9 24.1001 78.1 25.5001 77.2L45.9001 65.3L50.0001 66.4Z" fill="white"/>
<path fill-rule="evenodd" clip-rule="evenodd" d="M95.6 81.4C95.1 82.3 94.1 82.9 93 82.9C92.5 82.9 92 82.8 91.5 82.5L71.1 70.6L70 66.4L74.1 65.3L94.5 77.2C96 78.1 96.4 80 95.6 81.4Z" fill="white"/>
<path fill-rule="evenodd" clip-rule="evenodd" d="M63 22V45.9L60 48.9L57 45.9V22C57 20.3 58.3 19 60 19C61.7 19 63 20.4 63 22Z" fill="white"/>
<path fill-rule="evenodd" clip-rule="evenodd" d="M56.6999 63.8C56.6999 63.7 56.6999 63.6 56.5999 63.5C56.5999 63.4 56.4999 63.3 56.4999 63.2C56.4999 63.2 56.4999 63.2 56.4999 63.1C56.4999 63 56.3999 62.9 56.3999 62.9C56.3999 62.9 56.3999 62.9 56.3999 62.8L56.2999 62.7C56.2999 62.6 56.1999 62.6 56.1999 62.5C56.0999 62.4 56.0999 62.4 55.9999 62.3C55.8999 62.2 55.7999 62.1 55.6999 62C55.3999 61.8 55.1999 61.6 54.7999 61.5C54.6999 61.5 54.5999 61.4 54.4999 61.4C54.3999 61.4 54.1999 61.3 54.0999 61.3C54.1999 61.3 54.2999 61.3 54.3999 61.3L42.1999 58C40.5999 57.6 38.8999 58.5 38.4999 60.2C38.0999 61.8 38.9999 63.5 40.5999 63.9L45.8999 65.4L49.9999 66.5L48.9999 70.6L47.4999 76C47.0999 77.6 47.9999 79.3 49.5999 79.7C49.8999 79.8 50.0999 79.8 50.3999 79.8C51.7999 79.8 52.8999 78.9 53.2999 77.5L56.5999 65.1V65C56.5999 64.9 56.6999 64.8 56.6999 64.6C56.6999 64.4 56.6999 64.1 56.6999 63.9C56.6999 63.9 56.6999 63.9 56.6999 63.8ZM53.8999 61.2C53.6999 61.2 53.5999 61.2 53.3999 61.2C53.5999 61.2 53.7999 61.2 53.8999 61.2Z" fill="white"/>
<path fill-rule="evenodd" clip-rule="evenodd" d="M81.5 60.1C81.1 58.5 79.4001 57.5 77.8001 57.9L65.5 61.2C65.6 61.2 65.7001 61.2 65.8001 61.2C65.7001 61.2 65.5001 61.2 65.4001 61.3C65.3001 61.3 65.3 61.3 65.2 61.4C65.1 61.4 65.1 61.4 65 61.5C65 61.5 64.9001 61.5 64.9001 61.6C64.8001 61.6 64.7 61.7 64.7 61.7C64.6 61.7 64.6 61.7 64.6 61.8C64.6 61.8 64.6 61.8 64.5 61.9C64.4 62 64.3 62 64.2 62.1C64.2 62.1 64.2 62.1 64.1 62.1C64 62.2 64.0001 62.2 63.9001 62.3C63.9001 62.3 63.8 62.4 63.8 62.5L63.7001 62.6C63.6001 62.7 63.6 62.8 63.5 62.9C63.5 63 63.4001 63.1 63.4001 63.2V63.3V63.4V63.5C63.4001 63.6 63.3 63.8 63.3 63.9C63.3 64 63.3 64.1 63.3 64.2C63.3 64.3 63.3 64.4 63.3 64.6C63.3 64.7 63.3 64.7 63.3 64.8C63.3 64.9 63.3 65 63.3 65C63.3 65.1 63.3001 65.2 63.4001 65.3C63.4001 65.3 63.4 65.2 63.3 65.2L66.6 77.6C66.9 78.9 68.1 79.8 69.5 79.9C69.8 79.9 70.0001 79.9 70.3001 79.8C71.9001 79.3 72.9001 77.7 72.4001 76.1L71 70.7L70 66.4L74.1 65.3L79.4001 63.8C81.0001 63.4 82 61.7 81.5 60.1ZM66.6 61.2C66.4 61.2 66.3 61.2 66.1 61.2C66.3 61.2 66.4 61.2 66.6 61.2Z" fill="white"/>
<path fill-rule="evenodd" clip-rule="evenodd" d="M71.2 42C71.2 42 71.1 41.9 71.2 42C70 40.8 68.1 40.8 66.9 42L63 46L60 49L57 46L53.1 42C51.9 40.9 50 40.9 48.9 42C47.7 43.2 47.7 45.1 48.9 46.3L57.7 55.2L57.9 55.4C58 55.5 58 55.5 58.1 55.6C58.2 55.7 58.4 55.8 58.6 55.9C58.8 56 58.9 56.1 59.1 56.1C59.2 56.1 59.3 56.2 59.4 56.2C59.6 56.2 59.7 56.2 59.9 56.2C60.1 56.2 60.4 56.2 60.6 56.1C60.7 56.1 60.7 56.1 60.8 56.1H60.9C61 56.1 61.1 56 61.2 56C61.5 55.9 61.8 55.7 62 55.4L71 46.3C72.3 45.1 72.3 43.2 71.2 42ZM57 53V53.3C57 53.5 57 53.7 57 53.9C57 53.6 57 53.3 57 53ZM62.3 55.2C62.5 55 62.6 54.7 62.7 54.5C62.7 54.7 62.5 55 62.3 55.2Z" fill="white"/>
</svg>
