<svg width="37" height="37" viewBox="0 0 37 37" fill="none" xmlns="http://www.w3.org/2000/svg">
<circle cx="18.5" cy="18.5" r="18.5" fill="url(#paint0_linear)"/>
<path fill-rule="evenodd" clip-rule="evenodd" d="M23.7999 14.26C23.131 14.2386 22.4693 14.4042 21.8892 14.738C21.3091 15.0719 20.8335 15.561 20.5159 16.1501V14.53H16.872C16.92 15.6 16.872 26.0002 16.872 26.0002H20.5159V19.5901C20.5025 19.2755 20.5431 18.9613 20.6359 18.6604C20.7646 18.2633 21.0137 17.9158 21.3486 17.6667C21.6835 17.4176 22.0877 17.2792 22.505 17.2702C23.825 17.2702 24.3519 18.3201 24.3519 19.8601V26.0002H28V19.4201C28 15.9001 26.1999 14.26 23.7999 14.26ZM11.215 26.0002H14.859V14.53H11.215V26.0002ZM13.0609 9.00023C12.7961 8.98927 12.5318 9.03168 12.2836 9.12474C12.0354 9.21779 11.8084 9.35984 11.616 9.54222C11.4237 9.72459 11.2699 9.94337 11.1638 10.1863C11.0576 10.4291 11.0013 10.6907 10.9982 10.9558C10.995 11.2208 11.0451 11.4839 11.1455 11.7292C11.2458 11.9746 11.3944 12.1976 11.5824 12.3845C11.7703 12.5714 11.9939 12.7187 12.2398 12.8176C12.4857 12.9165 12.7489 12.9649 13.0139 12.9602H13.0369C13.3021 12.9701 13.5666 12.9265 13.8146 12.8323C14.0626 12.738 14.2892 12.5949 14.4809 12.4114C14.6725 12.2278 14.8253 12.0076 14.9303 11.7639C15.0352 11.5202 15.0901 11.2578 15.0917 10.9924C15.0933 10.7271 15.0416 10.4644 14.9396 10.2195C14.8376 9.97449 14.6875 9.75246 14.4981 9.56663C14.3087 9.3808 14.0839 9.23471 13.837 9.13743C13.5901 9.04015 13.3262 8.99356 13.0609 9.00023Z" fill="white"/>
<defs>
<linearGradient id="paint0_linear" x1="37" y1="19" x2="0" y2="19" gradientUnits="userSpaceOnUse">
<stop stop-color="#2960CE"/>
<stop offset="1" stop-color="#6595F7"/>
</linearGradient>
</defs>
</svg>
