<svg width="47" height="56" viewBox="0 0 47 56" fill="none" xmlns="http://www.w3.org/2000/svg">
<path fill-rule="evenodd" clip-rule="evenodd" d="M46.3334 22.2402C46.3334 12.9702 44.4634 11.1195 42.6034 9.26953C43.2437 7.80677 43.5701 6.22663 43.5615 4.62988C43.5529 3.03314 43.2094 1.45577 42.5534 0C42.5534 0 38.8833 -0.00042963 35.1633 5.55957C33.3133 3.71957 27.7134 3.70996 25.8534 3.70996C23.9934 3.70996 18.3833 3.71957 16.5433 5.55957C12.8133 -0.00042963 9.15333 0 9.15333 0C8.49727 1.45577 8.15389 3.03314 8.14528 4.62988C8.13666 6.22663 8.46309 7.80677 9.10341 9.26953C7.23341 11.1195 5.37343 12.9702 5.37343 22.2402C5.37343 31.5102 12.1433 36.1493 20.2733 37.0693C19.2233 37.9693 18.4133 40.7699 18.4133 42.6299C16.4182 43.4828 14.1799 43.576 12.1205 42.8926C10.0611 42.2092 8.32287 40.7964 7.23341 38.9199C7.23341 38.9199 5.37333 35.21 1.65333 35.21C1.65333 35.21 -2.06667 34.8593 1.65333 37.0693C3.15942 38.7301 4.41294 40.6041 5.37343 42.6299C5.37343 42.6299 8.22334 50.3695 18.4133 48.1895C18.4333 51.1995 18.4133 55.5996 18.4133 55.5996H33.2933V42.6299C33.2933 41.1599 32.4834 37.9693 31.4334 37.0693C39.5634 36.1493 46.3334 31.5102 46.3334 22.2402Z" fill="white"/>
</svg>
