<svg width="51" height="51" viewBox="0 0 51 51" fill="none" xmlns="http://www.w3.org/2000/svg">
<path fill-rule="evenodd" clip-rule="evenodd" d="M44.14 0H6.16003C4.52654 0.00079495 2.96011 0.650612 1.80505 1.80566C0.650002 2.96072 0.00079495 4.52667 0 6.16016V44.1406C0.00079495 45.7741 0.650002 47.3401 1.80505 48.4951C2.96011 49.6502 4.52654 50.3 6.16003 50.3008H44.14C45.7735 50.3 47.3398 49.6502 48.4949 48.4951C49.6499 47.3401 50.2993 45.7741 50.3 44.1406V6.16016C50.2993 4.52667 49.6499 2.96072 48.4949 1.80566C47.3398 0.650612 45.7735 0.00079495 44.14 0ZM15.9399 37.1504C13.5632 37.1662 11.2354 36.4759 9.25146 35.167C7.26758 33.8581 5.71716 31.9891 4.79663 29.7979C3.8761 27.6066 3.62698 25.1914 4.08093 22.8584C4.53488 20.5254 5.67143 18.3796 7.34644 16.6934C9.02144 15.0071 11.1595 13.8563 13.4894 13.3867C15.8193 12.9172 18.2361 13.1508 20.4335 14.0566C22.6308 14.9625 24.5098 16.5005 25.8319 18.4756C27.1541 20.4507 27.8599 22.7736 27.86 25.1504C27.8703 28.3223 26.6204 31.3688 24.385 33.6191C22.1496 35.8695 19.1119 37.1395 15.9399 37.1504ZM34.97 36.4404C31.68 36.4404 29.01 31.3904 29.01 25.1504C29.01 18.9104 31.68 13.8604 34.97 13.8604C38.26 13.8604 40.9301 18.9104 40.9301 25.1504C40.9301 31.3904 38.26 36.4404 34.97 36.4404ZM44.1801 35.2705C43.0201 35.2705 42.08 30.7404 42.08 25.1504C42.08 19.5604 43.0201 15.0303 44.1801 15.0303C45.3401 15.0303 46.27 19.5604 46.27 25.1504C46.27 30.7404 45.3301 35.2705 44.1801 35.2705Z" fill="white"/>
</svg>
