<svg width="59" height="49" viewBox="0 0 59 49" fill="none" xmlns="http://www.w3.org/2000/svg">
<path fill-rule="evenodd" clip-rule="evenodd" d="M57.487 0.526313C56.667 -0.133687 55.3419 -0.194233 53.0699 0.465767C51.4929 0.945767 37.483 5.95608 25.115 10.7861C14.008 15.1461 4.98394 18.9662 3.91494 19.4462C2.71494 19.8062 0.128954 20.8758 0.00295398 22.5458C-0.060046 23.6158 0.885967 24.5756 2.71597 25.3456C4.67297 26.3056 13.3159 29.0459 15.1479 29.5859C15.7789 31.6159 19.5019 43.496 19.6919 44.206C19.8865 44.9999 20.3849 45.6859 21.0799 46.1162C21.1727 46.2111 21.2788 46.2921 21.3949 46.3564C21.6255 46.4869 21.8883 46.549 22.1529 46.5361C22.6523 46.5136 23.1344 46.3474 23.5409 46.0566C25.8759 44.2666 29.915 40.2657 31.05 39.1357C36.0359 42.8357 41.4629 46.9557 41.9679 47.4257L42.031 47.4863C43.0305 48.3732 44.2974 48.9011 45.6309 48.9863C46.0166 48.9851 46.3998 48.9247 46.7669 48.8066C47.4522 48.5561 48.0557 48.1222 48.5118 47.5527C48.9679 46.9832 49.2592 46.2995 49.354 45.5761C49.4016 45.3356 49.4647 45.0985 49.5429 44.8662C51.6889 36.0362 53.393 28.2765 54.781 21.7665C56.106 15.3865 57.181 9.11631 57.81 5.77631C57.936 4.94631 58.0619 4.28616 58.1259 3.86616C58.3129 2.67616 58.434 1.30631 57.487 0.526313ZM46.823 10.6064L39.1869 17.3564C33.8869 21.9464 26.9449 27.976 22.3379 31.916V31.9765L22.2749 32.0361C22.2749 32.0442 22.2733 32.052 22.2701 32.0595C22.2669 32.067 22.2622 32.0744 22.2563 32.08C22.2504 32.0856 22.2434 32.0899 22.2358 32.0927C22.2282 32.0956 22.2201 32.0961 22.2119 32.0956C22.215 32.1197 22.2106 32.1445 22.1994 32.166C22.1881 32.1874 22.1705 32.2047 22.149 32.2158V32.3359C21.833 35.6759 21.2839 38.5161 21.0319 41.0761C20.7789 40.3661 18.5529 30.8265 17.7959 28.4365L46.5699 10.5566C46.6329 10.4966 46.76 10.4359 46.823 10.3759C46.886 10.3759 46.8859 10.3164 46.9489 10.3164C46.9735 10.3196 46.9985 10.3153 47.0208 10.3046C47.0432 10.294 47.062 10.2769 47.0749 10.2558C47.0001 10.3788 46.9159 10.4964 46.823 10.6064Z" fill="white"/>
</svg>
