<svg width="56" height="47" viewBox="0 0 56 47" fill="none" xmlns="http://www.w3.org/2000/svg">
<path fill-rule="evenodd" clip-rule="evenodd" d="M55.6 5.48926C53.5237 6.434 51.3146 7.05537 49.05 7.33008C51.4462 5.85101 53.2286 3.55739 54.07 0.870117C51.8364 2.22812 49.3829 3.18493 46.82 3.69922C45.7664 2.53555 44.4811 1.60597 43.0464 0.96875C41.6118 0.331531 40.0597 0.00155636 38.4899 0C35.4283 0.0392722 32.5076 1.29225 30.3698 3.48438C28.2321 5.6765 27.0524 8.62777 27.09 11.6895C27.0843 12.5876 27.1815 13.4834 27.3799 14.3594C22.8147 14.1133 18.3548 12.8953 14.2985 10.7861C10.2423 8.67695 6.68335 5.72577 3.85999 2.12988C2.85087 3.92538 2.32057 5.95013 2.32001 8.00977C2.31132 9.92389 2.76936 11.8116 3.65454 13.5088C4.53972 15.206 5.82531 16.6617 7.39996 17.75C5.58198 17.7012 3.80496 17.1994 2.22998 16.29V16.4297C2.20499 19.1007 3.1013 21.6987 4.76794 23.7861C6.43459 25.8735 8.76974 27.3227 11.38 27.8896C9.70467 28.3712 7.93761 28.44 6.22998 28.0898C6.93235 30.3894 8.3392 32.4102 10.2519 33.8672C12.1646 35.3241 14.4865 36.1437 16.89 36.21C12.8804 39.4544 7.87786 41.2229 2.71997 41.2197C1.81068 41.2188 0.902328 41.1621 0 41.0498C5.17304 44.4987 11.2526 46.3365 17.47 46.3301C38.47 46.3301 49.94 28.5098 49.94 13.0498C49.94 12.5498 49.93 12.0398 49.91 11.5498C52.1452 9.8767 54.0709 7.8253 55.6 5.48926Z" fill="white"/>
</svg>
