<svg width="40" height="23" viewBox="0 0 40 23" fill="none" xmlns="http://www.w3.org/2000/svg">
<path fill-rule="evenodd" clip-rule="evenodd" d="M37.996 16.388L22.346 0.96C21.718 0.341 20.881 0 19.992 0C19.117 0 18.258 0.35 17.639 0.961L1.96705 16.408C1.34105 17.024 0.998047 17.848 0.998047 18.729C0.998047 19.609 1.34105 20.434 1.96705 21.05C2.58605 21.66 3.44405 22.01 4.32105 22.01C5.19705 22.01 6.05505 21.66 6.67405 21.05L20.019 7.895L33.338 21.05C33.963 21.666 34.8 22.005 35.693 22.005C36.586 22.005 37.422 21.666 38.047 21.05C38.67 20.436 39.019 19.577 39.006 18.694C38.992 17.797 38.625 16.97 37.996 16.388Z" fill="#62F6FF"/>
</svg>
