<svg width="24" height="24" viewBox="0 0 24 24" fill="none" xmlns="http://www.w3.org/2000/svg">
<path fill-rule="evenodd" clip-rule="evenodd" d="M4.698 3.29349C5.39771 2.90764 6.22454 2.89864 6.92875 3.28787L15.6538 8.10372L12.8988 10.8587L4.698 3.29349ZM3.56299 5.16651C3.56299 4.7694 3.67773 4.3948 3.87797 4.06744L12.1035 11.6551L3.8566 19.902C3.66761 19.5814 3.56299 19.2147 3.56299 18.83V5.16651ZM19.3064 10.1196L16.6785 8.66956L13.7256 11.6214L17.3445 14.9591L19.3075 13.8758C20.014 13.4843 20.437 12.7823 20.437 11.9971C20.4358 11.2119 20.014 10.51 19.3064 10.1196ZM4.66089 20.6873L12.9303 12.4178L16.3074 15.5328L6.92876 20.7086C6.57666 20.9032 6.19193 21 5.80945 21C5.41347 21 5.01974 20.892 4.66089 20.6873Z" fill="white"/>
</svg>
