<svg xmlns="http://www.w3.org/2000/svg" width="36.362" height="36.958" viewBox="0 0 36.362 36.958">
  <defs>
    <style>
      .cls-1 {
        fill: #459cd8;
      }

      .cls-2 {
        fill: #f8f8f8;
      }
    </style>
  </defs>
  <g id="twitter.5f6fafde" transform="translate(0 0)">
    <rect id="矩形_2879" data-name="矩形 2879" class="cls-1" width="36.362" height="36.958" rx="10" transform="translate(0 -0.001)"/>
    <path id="路径_12798" data-name="路径 12798" class="cls-2" d="M15.555,26.2a17.771,17.771,0,0,1-2.684-.208A12.777,12.777,0,0,1,9.2,24.687L8,24.046l1.3-.418c1.42-.456,2.284-.74,3.353-1.183a4.392,4.392,0,0,1-2.293-2.6l-.3-.9.248.037a4.435,4.435,0,0,1-.564-.68,4.107,4.107,0,0,1-.725-2.483l.057-.783.479.182a4.317,4.317,0,0,1-.434-1.19,4.44,4.44,0,0,1,.493-3.049l.418-.749.559.656a10.339,10.339,0,0,0,6.659,3.665,3.812,3.812,0,0,1,.242-2.068A3.9,3.9,0,0,1,19.1,10.683a4.927,4.927,0,0,1,2.808-.674,4.539,4.539,0,0,1,2.757,1.111,9.4,9.4,0,0,0,1.009-.329c.221-.081.472-.174.786-.28l1.157-.39-.754,2.106c.05,0,.1-.008.155-.01l1.235-.055-.73.976c-.042.056-.053.072-.067.094-.059.087-.132.195-1.134,1.5a1.816,1.816,0,0,0-.353,1.2,11.129,11.129,0,0,1-.634,4.571,8.083,8.083,0,0,1-2.222,3.217,9.9,9.9,0,0,1-4.651,2.2,14.642,14.642,0,0,1-2.9.278Z" transform="translate(0.15 0.377)"/>
  </g>
</svg>
