<svg width="134" height="15" viewBox="0 0 134 15" fill="none" xmlns="http://www.w3.org/2000/svg">
<g clip-path="url(#clip0)">
<path d="M9.28246 6.82287C9.87011 7.21595 10.3545 7.73933 10.6962 8.35035C11.0446 8.98579 11.2199 9.69829 11.2051 10.4192C11.2089 11.0006 11.0878 11.5761 10.8497 12.1087C10.6219 12.6258 10.2949 13.0954 9.88632 13.492C9.47813 13.8833 8.99861 14.1963 8.47259 14.4148C7.92597 14.6418 7.33759 14.7568 6.74379 14.7527H-0.0078125V0.203194H6.53577C7.0759 0.199997 7.61065 0.30841 8.10501 0.521337C8.58383 0.726286 9.02047 1.01489 9.39353 1.373C9.77103 1.73652 10.0702 2.17036 10.2735 2.6489C10.4768 3.12744 10.58 3.64098 10.577 4.1592C10.5888 4.69443 10.4704 5.22473 10.2317 5.70642C10.0067 6.14469 9.68195 6.52663 9.28246 6.82287ZM3.18723 5.65505H6.53981C6.71864 5.65531 6.89577 5.62104 7.06104 5.5542C7.22631 5.48736 7.37648 5.38926 7.50293 5.26554C7.62939 5.14181 7.72964 4.99489 7.79796 4.83319C7.86627 4.67148 7.9013 4.49818 7.90103 4.32321C7.90438 4.15017 7.8701 3.97841 7.80047 3.81932C7.73083 3.66022 7.62743 3.51743 7.49711 3.40041C7.23814 3.15832 6.89186 3.0262 6.53375 3.03286H3.18319L3.18723 5.65505ZM6.74783 11.9052C6.95482 11.9051 7.15899 11.8582 7.34435 11.768C7.5297 11.6779 7.6912 11.5469 7.81621 11.3855C8.10676 11.0465 8.26303 10.6166 8.25649 10.1742C8.26918 9.73325 8.11203 9.30372 7.81621 8.97081C7.68625 8.81705 7.52297 8.69349 7.33819 8.60908C7.15341 8.52466 6.95175 8.48151 6.74783 8.48274H3.18319V11.9052H6.74783Z" fill="white"/>
<path d="M18.221 11.9051H24.3162V14.7328H15.0381V0.203125H18.221V11.9051Z" fill="white"/>
<path d="M34.1597 9.015e-05C35.1415 -0.00489957 36.1128 0.197298 37.0074 0.592897C37.8865 0.979368 38.6802 1.52974 39.3441 2.21324C40.012 2.90229 40.5441 3.70621 40.9133 4.58447C41.3017 5.49987 41.4981 6.4823 41.491 7.47342C41.4951 8.46426 41.2988 9.4461 40.9133 10.3624C40.5478 11.2502 40.0155 12.0632 39.3441 12.7593C38.679 13.444 37.8857 13.9974 37.0074 14.3895C36.1133 14.7882 35.1422 14.9945 34.1597 14.9945C33.1772 14.9945 32.2061 14.7882 31.312 14.3895C30.4359 13.9997 29.6462 13.4458 28.9875 12.7593C28.3205 12.0613 27.7912 11.2486 27.4263 10.3624C27.0436 9.44749 26.8487 8.46786 26.8527 7.47934C26.8459 6.48845 27.0416 5.50622 27.4283 4.5904C27.7976 3.71397 28.3265 2.9105 28.9895 2.21917C29.647 1.53377 30.4372 0.982999 31.3141 0.598825C32.2076 0.201464 33.1782 -0.00275352 34.1597 9.015e-05ZM34.1698 11.9056C34.7282 11.9094 35.2803 11.7905 35.7855 11.5579C36.2833 11.3269 36.73 11.0026 37.1003 10.6034C37.4822 10.1933 37.7835 9.71763 37.9889 9.20046C38.2076 8.6521 38.3172 8.06794 38.3121 7.47934C38.3167 6.88759 38.207 6.3003 37.9889 5.74834C37.785 5.22687 37.4837 4.7471 37.1003 4.33352C36.7305 3.93434 36.2837 3.61065 35.7855 3.38107C35.2816 3.15194 34.7326 3.03323 34.1769 3.03323C33.6212 3.03323 33.0722 3.15194 32.5682 3.38107C32.0692 3.61006 31.6216 3.93382 31.2515 4.33352C30.8689 4.74773 30.5677 5.22734 30.3628 5.74834C30.1447 6.3003 30.0351 6.88759 30.0397 7.47934C30.0345 8.06794 30.1442 8.6521 30.3628 9.20046C30.569 9.71727 30.8702 10.1928 31.2515 10.6034C31.6221 11.0031 32.0695 11.3274 32.5682 11.5579C33.069 11.7889 33.6162 11.9078 34.1698 11.9056Z" fill="white"/>
<path d="M52.256 11.9057C52.9387 11.9029 53.6119 11.7489 54.2251 11.4551C54.9683 11.0772 55.6295 10.5618 56.172 9.93756L58.226 11.8444C57.4747 12.8221 56.5128 13.6262 55.4086 14.1998C54.4041 14.7174 53.2862 14.9887 52.151 14.9903C51.1743 14.9964 50.2085 14.7898 49.3235 14.3856C48.4586 13.9927 47.6801 13.439 47.0312 12.7554C46.3731 12.0606 45.8544 11.2508 45.5024 10.3683C45.1286 9.44593 44.9401 8.46172 44.947 7.46951C44.9401 6.47862 45.1358 5.49639 45.5226 4.58056C45.8913 3.70389 46.4204 2.90034 47.0837 2.20933C47.7413 1.52394 48.5314 0.973165 49.4083 0.588991C50.3029 0.193392 51.2742 -0.00880582 52.256 -0.0038161C53.1721 -0.00663647 54.0797 0.168669 54.9259 0.511923C55.8598 0.913497 56.7033 1.4917 57.4081 2.21328L55.5662 4.40469C55.0887 3.94229 54.5224 3.57695 53.9 3.32974C53.3725 3.14499 52.8162 3.05138 52.256 3.05309C51.6979 3.05226 51.1465 3.17096 50.6403 3.40088C50.1395 3.62853 49.6883 3.94856 49.3114 4.34344C48.9262 4.75235 48.624 5.22911 48.4207 5.74839C48.2019 6.30021 48.0916 6.8875 48.0956 7.47939C48.0911 8.06811 48.2014 8.65226 48.4207 9.20051C48.6269 9.71777 48.9289 10.1934 49.3114 10.6035C49.6856 11.0043 50.1373 11.3287 50.6403 11.5579C51.1465 11.7878 51.6979 11.9065 52.256 11.9057Z" fill="white"/>
<path d="M68.3825 6.84257L75.5461 14.7328H71.6301L66.379 8.80476L65.1006 10.0753V14.7269H61.9116V0.203125H65.0946V6.08575L71.0646 0.203125H75.122L68.3825 6.84257Z" fill="white"/>
<path d="M88.3627 7.2581C88.9209 7.57106 89.3838 8.02397 89.7037 8.57019C90.0192 9.13482 90.1779 9.77046 90.1642 10.4138C90.1682 11.0554 90.0026 11.6871 89.6835 12.2476C89.3421 12.8369 88.8784 13.3498 88.3223 13.7533C87.775 14.1583 87.16 14.4672 86.5046 14.6662C85.8096 14.8803 85.0863 14.9941 84.3577 15.0041C83.627 15.0077 82.8999 14.9038 82.2008 14.6959C81.5418 14.5019 80.9254 14.1897 80.3831 13.775C79.6328 13.2403 79.066 12.4955 78.7573 11.6389L81.6898 10.3071C81.7009 10.4861 81.7512 10.6606 81.8373 10.8189C81.9501 11.0438 82.1065 11.2451 82.2977 11.4117C82.5353 11.621 82.8088 11.7876 83.1056 11.9037C83.4997 12.0482 83.919 12.1153 84.3396 12.1013C84.6912 12.1064 85.0414 12.0577 85.3777 11.9571C85.6465 11.8767 85.9008 11.7554 86.131 11.5975C86.3195 11.4693 86.4767 11.3019 86.5915 11.1074C86.6928 10.9354 86.747 10.7408 86.749 10.5423C86.7474 10.3192 86.67 10.1029 86.5288 9.92771C86.3507 9.71688 86.1145 9.56051 85.8482 9.47717C85.2694 9.28052 84.6785 9.11949 84.079 8.99502C83.4633 8.86876 82.8563 8.7051 82.2614 8.50497C81.6846 8.31067 81.1355 8.04504 80.6275 7.71456C80.1101 7.37069 79.6976 6.8961 79.4339 6.34122C79.1666 5.82712 79.0281 5.25817 79.03 4.68137C79.0311 4.01899 79.1924 3.36627 79.5005 2.77648C79.8074 2.17077 80.2474 1.63902 80.7891 1.21937C81.3108 0.819624 81.8991 0.510802 82.528 0.306451C83.1791 0.094326 83.8613 -0.0124651 84.5476 -0.00971379C85.241 -0.0122711 85.9306 0.0910644 86.5915 0.296568C87.2241 0.49332 87.8158 0.799146 88.3384 1.19961C88.8219 1.54641 89.2286 1.98533 89.534 2.48996L87.1691 4.09646C86.88 3.70285 86.5046 3.37744 86.0704 3.14402C85.6182 2.90173 85.1096 2.77784 84.594 2.78438C83.8387 2.78438 83.2571 2.9484 82.845 3.27642C82.646 3.42914 82.4864 3.62547 82.379 3.84959C82.2717 4.07371 82.2196 4.31936 82.227 4.56676C82.2301 4.69456 82.2627 4.82003 82.3225 4.93368C82.3824 5.04732 82.4678 5.14619 82.5724 5.2228C82.8439 5.43774 83.1478 5.61037 83.4731 5.73459C83.8783 5.89542 84.2947 6.02749 84.7193 6.12979C85.1797 6.2444 85.6382 6.36099 86.0906 6.47757C86.543 6.59416 86.9732 6.71272 87.3791 6.83523C87.7231 6.9372 88.0533 7.07917 88.3627 7.2581Z" fill="white"/>
<path d="M93.4116 0.203125H104.176V3.03082H100.385V14.7328H97.2025V3.03279H93.4116V0.203125Z" fill="white"/>
<path d="M107.737 0.203125H117.015V3.03082H110.92V5.65498H116.282V8.48267H110.92V11.9051H117.015V14.7328H107.737V0.203125Z" fill="white"/>
<path d="M131.78 4.52671C131.784 5.40472 131.522 6.26409 131.027 6.99674C130.789 7.34463 130.499 7.65567 130.167 7.91954C129.837 8.18378 129.47 8.40069 129.078 8.56373L134 14.7329H130.294L125.705 8.87199H124.282V14.7329H121.099V0.203171H127.507C128.08 0.200496 128.648 0.315616 129.173 0.541075C129.684 0.759071 130.146 1.07253 130.534 1.46387C131.34 2.28828 131.786 3.38636 131.78 4.52671ZM127.109 6.0443C127.305 6.04612 127.5 6.00789 127.681 5.93202C127.861 5.85615 128.023 5.74431 128.157 5.60365C128.301 5.46226 128.414 5.29403 128.489 5.10901C128.565 4.92398 128.602 4.72595 128.597 4.52671C128.6 4.33093 128.563 4.13663 128.487 3.95535C128.411 3.77408 128.299 3.60954 128.157 3.47152C128.023 3.33085 127.861 3.21902 127.681 3.14315C127.5 3.06728 127.305 3.02903 127.109 3.03086H124.282V6.0443H127.109Z" fill="white"/>
</g>
<defs>
<clipPath id="clip0">
<rect width="134" height="15" fill="white"/>
</clipPath>
</defs>
</svg>
